%TF.GenerationSoftware,KiCad,Pcbnew,9.0.3*%
%TF.CreationDate,2025-09-24T18:51:33-07:00*%
%TF.ProjectId,battery_pack_v2,62617474-6572-4795-9f70-61636b5f7632,rev?*%
%TF.SameCoordinates,Original*%
%TF.FileFunction,Soldermask,Bot*%
%TF.FilePolarity,Negative*%
%FSLAX46Y46*%
G04 Gerber Fmt 4.6, Leading zero omitted, Abs format (unit mm)*
G04 Created by KiCad (PCBNEW 9.0.3) date 2025-09-24 18:51:33*
%MOMM*%
%LPD*%
G01*
G04 APERTURE LIST*
G04 Aperture macros list*
%AMRoundRect*
0 Rectangle with rounded corners*
0 $1 Rounding radius*
0 $2 $3 $4 $5 $6 $7 $8 $9 X,Y pos of 4 corners*
0 Add a 4 corners polygon primitive as box body*
4,1,4,$2,$3,$4,$5,$6,$7,$8,$9,$2,$3,0*
0 Add four circle primitives for the rounded corners*
1,1,$1+$1,$2,$3*
1,1,$1+$1,$4,$5*
1,1,$1+$1,$6,$7*
1,1,$1+$1,$8,$9*
0 Add four rect primitives between the rounded corners*
20,1,$1+$1,$2,$3,$4,$5,0*
20,1,$1+$1,$4,$5,$6,$7,0*
20,1,$1+$1,$6,$7,$8,$9,0*
20,1,$1+$1,$8,$9,$2,$3,0*%
G04 Aperture macros list end*
%ADD10C,0.150000*%
%ADD11C,0.500000*%
%ADD12C,0.000000*%
%ADD13C,5.000000*%
%ADD14C,3.300000*%
%ADD15C,2.400000*%
%ADD16O,3.500000X2.500000*%
%ADD17C,2.000000*%
%ADD18RoundRect,0.150000X-0.825000X-0.150000X0.825000X-0.150000X0.825000X0.150000X-0.825000X0.150000X0*%
%ADD19RoundRect,0.200000X0.200000X0.275000X-0.200000X0.275000X-0.200000X-0.275000X0.200000X-0.275000X0*%
%ADD20RoundRect,0.150000X0.512500X0.150000X-0.512500X0.150000X-0.512500X-0.150000X0.512500X-0.150000X0*%
%ADD21RoundRect,0.225000X0.225000X0.250000X-0.225000X0.250000X-0.225000X-0.250000X0.225000X-0.250000X0*%
%ADD22RoundRect,0.200000X-0.200000X-0.275000X0.200000X-0.275000X0.200000X0.275000X-0.200000X0.275000X0*%
%ADD23RoundRect,0.225000X-0.250000X0.225000X-0.250000X-0.225000X0.250000X-0.225000X0.250000X0.225000X0*%
%ADD24RoundRect,0.225000X-0.225000X-0.250000X0.225000X-0.250000X0.225000X0.250000X-0.225000X0.250000X0*%
%ADD25R,1.500000X0.600000*%
%ADD26R,1.800000X1.250000*%
%ADD27O,0.360000X1.690000*%
%ADD28R,2.500000X1.100000*%
%ADD29R,2.200000X2.000000*%
%ADD30RoundRect,0.200000X0.275000X-0.200000X0.275000X0.200000X-0.275000X0.200000X-0.275000X-0.200000X0*%
%ADD31RoundRect,0.200000X-0.275000X0.200000X-0.275000X-0.200000X0.275000X-0.200000X0.275000X0.200000X0*%
G04 APERTURE END LIST*
D10*
X193457397Y-45864308D02*
G75*
G02*
X188042603Y-45864308I-2707397J0D01*
G01*
X188042603Y-45864308D02*
G75*
G02*
X193457397Y-45864308I2707397J0D01*
G01*
X117793079Y-48564936D02*
X113993079Y-48558429D01*
X190743079Y-43092944D02*
X194543079Y-43086437D01*
X190750000Y-43167561D02*
X194550000Y-43161054D01*
X113942531Y-43067561D02*
X117742531Y-43061054D01*
X197242408Y-45889606D02*
G75*
G02*
X191857592Y-45889606I-2692408J0D01*
G01*
X191857592Y-45889606D02*
G75*
G02*
X197242408Y-45889606I2692408J0D01*
G01*
X116650476Y-45861683D02*
G75*
G02*
X111235682Y-45861683I-2707397J0D01*
G01*
X111235682Y-45861683D02*
G75*
G02*
X116650476Y-45861683I2707397J0D01*
G01*
X120435487Y-45886981D02*
G75*
G02*
X115050671Y-45886981I-2692408J0D01*
G01*
X115050671Y-45886981D02*
G75*
G02*
X120435487Y-45886981I2692408J0D01*
G01*
X116649928Y-45764308D02*
G75*
G02*
X111235134Y-45764308I-2707397J0D01*
G01*
X111235134Y-45764308D02*
G75*
G02*
X116649928Y-45764308I2707397J0D01*
G01*
X193450476Y-45789691D02*
G75*
G02*
X188035682Y-45789691I-2707397J0D01*
G01*
X188035682Y-45789691D02*
G75*
G02*
X193450476Y-45789691I2707397J0D01*
G01*
X113943079Y-43164936D02*
X117743079Y-43158429D01*
X120434939Y-45789606D02*
G75*
G02*
X115050123Y-45789606I-2692408J0D01*
G01*
X115050123Y-45789606D02*
G75*
G02*
X120434939Y-45789606I2692408J0D01*
G01*
X194600000Y-48567561D02*
X190800000Y-48561054D01*
X197235487Y-45814989D02*
G75*
G02*
X191850671Y-45814989I-2692408J0D01*
G01*
X191850671Y-45814989D02*
G75*
G02*
X197235487Y-45814989I2692408J0D01*
G01*
X117792531Y-48467561D02*
X113992531Y-48461054D01*
X194593079Y-48492944D02*
X190793079Y-48486437D01*
D11*
X158278056Y-44742257D02*
X156420913Y-44742257D01*
X156420913Y-44742257D02*
X157420913Y-45885114D01*
X157420913Y-45885114D02*
X156992342Y-45885114D01*
X156992342Y-45885114D02*
X156706628Y-46027971D01*
X156706628Y-46027971D02*
X156563770Y-46170828D01*
X156563770Y-46170828D02*
X156420913Y-46456542D01*
X156420913Y-46456542D02*
X156420913Y-47170828D01*
X156420913Y-47170828D02*
X156563770Y-47456542D01*
X156563770Y-47456542D02*
X156706628Y-47599400D01*
X156706628Y-47599400D02*
X156992342Y-47742257D01*
X156992342Y-47742257D02*
X157849485Y-47742257D01*
X157849485Y-47742257D02*
X158135199Y-47599400D01*
X158135199Y-47599400D02*
X158278056Y-47456542D01*
X155135199Y-47742257D02*
X155135199Y-44742257D01*
X155135199Y-44742257D02*
X153992342Y-44742257D01*
X153992342Y-44742257D02*
X153706627Y-44885114D01*
X153706627Y-44885114D02*
X153563770Y-45027971D01*
X153563770Y-45027971D02*
X153420913Y-45313685D01*
X153420913Y-45313685D02*
X153420913Y-45742257D01*
X153420913Y-45742257D02*
X153563770Y-46027971D01*
X153563770Y-46027971D02*
X153706627Y-46170828D01*
X153706627Y-46170828D02*
X153992342Y-46313685D01*
X153992342Y-46313685D02*
X155135199Y-46313685D01*
X152420913Y-45742257D02*
X151706627Y-47742257D01*
X150992342Y-45742257D02*
X151706627Y-47742257D01*
X151706627Y-47742257D02*
X151992342Y-48456542D01*
X151992342Y-48456542D02*
X152135199Y-48599400D01*
X152135199Y-48599400D02*
X152420913Y-48742257D01*
X150279028Y-43387314D02*
X150183790Y-43292076D01*
X150183790Y-43292076D02*
X149993314Y-43196838D01*
X149993314Y-43196838D02*
X149517123Y-43196838D01*
X149517123Y-43196838D02*
X149326647Y-43292076D01*
X149326647Y-43292076D02*
X149231409Y-43387314D01*
X149231409Y-43387314D02*
X149136171Y-43577790D01*
X149136171Y-43577790D02*
X149136171Y-43768266D01*
X149136171Y-43768266D02*
X149231409Y-44053980D01*
X149231409Y-44053980D02*
X150374266Y-45196838D01*
X150374266Y-45196838D02*
X149136171Y-45196838D01*
D10*
X188028572Y-132908557D02*
X188028572Y-132008557D01*
X188028572Y-132008557D02*
X187685715Y-132008557D01*
X187685715Y-132008557D02*
X187600000Y-132051414D01*
X187600000Y-132051414D02*
X187557143Y-132094271D01*
X187557143Y-132094271D02*
X187514286Y-132179985D01*
X187514286Y-132179985D02*
X187514286Y-132308557D01*
X187514286Y-132308557D02*
X187557143Y-132394271D01*
X187557143Y-132394271D02*
X187600000Y-132437128D01*
X187600000Y-132437128D02*
X187685715Y-132479985D01*
X187685715Y-132479985D02*
X188028572Y-132479985D01*
X186957143Y-132479985D02*
X186957143Y-132908557D01*
X187257143Y-132008557D02*
X186957143Y-132479985D01*
X186957143Y-132479985D02*
X186657143Y-132008557D01*
X186400000Y-132865700D02*
X186271429Y-132908557D01*
X186271429Y-132908557D02*
X186057143Y-132908557D01*
X186057143Y-132908557D02*
X185971429Y-132865700D01*
X185971429Y-132865700D02*
X185928571Y-132822842D01*
X185928571Y-132822842D02*
X185885714Y-132737128D01*
X185885714Y-132737128D02*
X185885714Y-132651414D01*
X185885714Y-132651414D02*
X185928571Y-132565700D01*
X185928571Y-132565700D02*
X185971429Y-132522842D01*
X185971429Y-132522842D02*
X186057143Y-132479985D01*
X186057143Y-132479985D02*
X186228571Y-132437128D01*
X186228571Y-132437128D02*
X186314286Y-132394271D01*
X186314286Y-132394271D02*
X186357143Y-132351414D01*
X186357143Y-132351414D02*
X186400000Y-132265700D01*
X186400000Y-132265700D02*
X186400000Y-132179985D01*
X186400000Y-132179985D02*
X186357143Y-132094271D01*
X186357143Y-132094271D02*
X186314286Y-132051414D01*
X186314286Y-132051414D02*
X186228571Y-132008557D01*
X186228571Y-132008557D02*
X186014286Y-132008557D01*
X186014286Y-132008557D02*
X185885714Y-132051414D01*
X184900000Y-132994271D02*
X184985714Y-132951414D01*
X184985714Y-132951414D02*
X185071428Y-132865700D01*
X185071428Y-132865700D02*
X185200000Y-132737128D01*
X185200000Y-132737128D02*
X185285714Y-132694271D01*
X185285714Y-132694271D02*
X185371428Y-132694271D01*
X185328571Y-132908557D02*
X185414286Y-132865700D01*
X185414286Y-132865700D02*
X185500000Y-132779985D01*
X185500000Y-132779985D02*
X185542857Y-132608557D01*
X185542857Y-132608557D02*
X185542857Y-132308557D01*
X185542857Y-132308557D02*
X185500000Y-132137128D01*
X185500000Y-132137128D02*
X185414286Y-132051414D01*
X185414286Y-132051414D02*
X185328571Y-132008557D01*
X185328571Y-132008557D02*
X185157143Y-132008557D01*
X185157143Y-132008557D02*
X185071428Y-132051414D01*
X185071428Y-132051414D02*
X184985714Y-132137128D01*
X184985714Y-132137128D02*
X184942857Y-132308557D01*
X184942857Y-132308557D02*
X184942857Y-132608557D01*
X184942857Y-132608557D02*
X184985714Y-132779985D01*
X184985714Y-132779985D02*
X185071428Y-132865700D01*
X185071428Y-132865700D02*
X185157143Y-132908557D01*
X185157143Y-132908557D02*
X185328571Y-132908557D01*
X184557143Y-132008557D02*
X184557143Y-132737128D01*
X184557143Y-132737128D02*
X184514286Y-132822842D01*
X184514286Y-132822842D02*
X184471429Y-132865700D01*
X184471429Y-132865700D02*
X184385714Y-132908557D01*
X184385714Y-132908557D02*
X184214286Y-132908557D01*
X184214286Y-132908557D02*
X184128571Y-132865700D01*
X184128571Y-132865700D02*
X184085714Y-132822842D01*
X184085714Y-132822842D02*
X184042857Y-132737128D01*
X184042857Y-132737128D02*
X184042857Y-132008557D01*
X183657143Y-132651414D02*
X183228572Y-132651414D01*
X183742857Y-132908557D02*
X183442857Y-132008557D01*
X183442857Y-132008557D02*
X183142857Y-132908557D01*
X182328571Y-132908557D02*
X182628571Y-132479985D01*
X182842857Y-132908557D02*
X182842857Y-132008557D01*
X182842857Y-132008557D02*
X182500000Y-132008557D01*
X182500000Y-132008557D02*
X182414285Y-132051414D01*
X182414285Y-132051414D02*
X182371428Y-132094271D01*
X182371428Y-132094271D02*
X182328571Y-132179985D01*
X182328571Y-132179985D02*
X182328571Y-132308557D01*
X182328571Y-132308557D02*
X182371428Y-132394271D01*
X182371428Y-132394271D02*
X182414285Y-132437128D01*
X182414285Y-132437128D02*
X182500000Y-132479985D01*
X182500000Y-132479985D02*
X182842857Y-132479985D01*
X181942857Y-132437128D02*
X181642857Y-132437128D01*
X181514285Y-132908557D02*
X181942857Y-132908557D01*
X181942857Y-132908557D02*
X181942857Y-132008557D01*
X181942857Y-132008557D02*
X181514285Y-132008557D01*
X181128571Y-132908557D02*
X181128571Y-132008557D01*
X181128571Y-132008557D02*
X180914285Y-132008557D01*
X180914285Y-132008557D02*
X180785714Y-132051414D01*
X180785714Y-132051414D02*
X180699999Y-132137128D01*
X180699999Y-132137128D02*
X180657142Y-132222842D01*
X180657142Y-132222842D02*
X180614285Y-132394271D01*
X180614285Y-132394271D02*
X180614285Y-132522842D01*
X180614285Y-132522842D02*
X180657142Y-132694271D01*
X180657142Y-132694271D02*
X180699999Y-132779985D01*
X180699999Y-132779985D02*
X180785714Y-132865700D01*
X180785714Y-132865700D02*
X180914285Y-132908557D01*
X180914285Y-132908557D02*
X181128571Y-132908557D01*
X179242857Y-132437128D02*
X179114285Y-132479985D01*
X179114285Y-132479985D02*
X179071428Y-132522842D01*
X179071428Y-132522842D02*
X179028571Y-132608557D01*
X179028571Y-132608557D02*
X179028571Y-132737128D01*
X179028571Y-132737128D02*
X179071428Y-132822842D01*
X179071428Y-132822842D02*
X179114285Y-132865700D01*
X179114285Y-132865700D02*
X179200000Y-132908557D01*
X179200000Y-132908557D02*
X179542857Y-132908557D01*
X179542857Y-132908557D02*
X179542857Y-132008557D01*
X179542857Y-132008557D02*
X179242857Y-132008557D01*
X179242857Y-132008557D02*
X179157143Y-132051414D01*
X179157143Y-132051414D02*
X179114285Y-132094271D01*
X179114285Y-132094271D02*
X179071428Y-132179985D01*
X179071428Y-132179985D02*
X179071428Y-132265700D01*
X179071428Y-132265700D02*
X179114285Y-132351414D01*
X179114285Y-132351414D02*
X179157143Y-132394271D01*
X179157143Y-132394271D02*
X179242857Y-132437128D01*
X179242857Y-132437128D02*
X179542857Y-132437128D01*
X178685714Y-132651414D02*
X178257143Y-132651414D01*
X178771428Y-132908557D02*
X178471428Y-132008557D01*
X178471428Y-132008557D02*
X178171428Y-132908557D01*
X177999999Y-132008557D02*
X177485714Y-132008557D01*
X177742856Y-132908557D02*
X177742856Y-132008557D01*
X177314285Y-132008557D02*
X176800000Y-132008557D01*
X177057142Y-132908557D02*
X177057142Y-132008557D01*
X176500000Y-132437128D02*
X176200000Y-132437128D01*
X176071428Y-132908557D02*
X176500000Y-132908557D01*
X176500000Y-132908557D02*
X176500000Y-132008557D01*
X176500000Y-132008557D02*
X176071428Y-132008557D01*
X175171428Y-132908557D02*
X175471428Y-132479985D01*
X175685714Y-132908557D02*
X175685714Y-132008557D01*
X175685714Y-132008557D02*
X175342857Y-132008557D01*
X175342857Y-132008557D02*
X175257142Y-132051414D01*
X175257142Y-132051414D02*
X175214285Y-132094271D01*
X175214285Y-132094271D02*
X175171428Y-132179985D01*
X175171428Y-132179985D02*
X175171428Y-132308557D01*
X175171428Y-132308557D02*
X175214285Y-132394271D01*
X175214285Y-132394271D02*
X175257142Y-132437128D01*
X175257142Y-132437128D02*
X175342857Y-132479985D01*
X175342857Y-132479985D02*
X175685714Y-132479985D01*
X174614285Y-132479985D02*
X174614285Y-132908557D01*
X174914285Y-132008557D02*
X174614285Y-132479985D01*
X174614285Y-132479985D02*
X174314285Y-132008557D01*
X173328571Y-132908557D02*
X173328571Y-132008557D01*
X173328571Y-132008557D02*
X172985714Y-132008557D01*
X172985714Y-132008557D02*
X172899999Y-132051414D01*
X172899999Y-132051414D02*
X172857142Y-132094271D01*
X172857142Y-132094271D02*
X172814285Y-132179985D01*
X172814285Y-132179985D02*
X172814285Y-132308557D01*
X172814285Y-132308557D02*
X172857142Y-132394271D01*
X172857142Y-132394271D02*
X172899999Y-132437128D01*
X172899999Y-132437128D02*
X172985714Y-132479985D01*
X172985714Y-132479985D02*
X173328571Y-132479985D01*
X172471428Y-132651414D02*
X172042857Y-132651414D01*
X172557142Y-132908557D02*
X172257142Y-132008557D01*
X172257142Y-132008557D02*
X171957142Y-132908557D01*
X171142856Y-132822842D02*
X171185713Y-132865700D01*
X171185713Y-132865700D02*
X171314285Y-132908557D01*
X171314285Y-132908557D02*
X171399999Y-132908557D01*
X171399999Y-132908557D02*
X171528570Y-132865700D01*
X171528570Y-132865700D02*
X171614285Y-132779985D01*
X171614285Y-132779985D02*
X171657142Y-132694271D01*
X171657142Y-132694271D02*
X171699999Y-132522842D01*
X171699999Y-132522842D02*
X171699999Y-132394271D01*
X171699999Y-132394271D02*
X171657142Y-132222842D01*
X171657142Y-132222842D02*
X171614285Y-132137128D01*
X171614285Y-132137128D02*
X171528570Y-132051414D01*
X171528570Y-132051414D02*
X171399999Y-132008557D01*
X171399999Y-132008557D02*
X171314285Y-132008557D01*
X171314285Y-132008557D02*
X171185713Y-132051414D01*
X171185713Y-132051414D02*
X171142856Y-132094271D01*
X170757142Y-132908557D02*
X170757142Y-132008557D01*
X170242856Y-132908557D02*
X170628570Y-132394271D01*
X170242856Y-132008557D02*
X170757142Y-132522842D01*
X169299999Y-132008557D02*
X168999999Y-132908557D01*
X168999999Y-132908557D02*
X168699999Y-132008557D01*
X168442856Y-132094271D02*
X168399999Y-132051414D01*
X168399999Y-132051414D02*
X168314285Y-132008557D01*
X168314285Y-132008557D02*
X168099999Y-132008557D01*
X168099999Y-132008557D02*
X168014285Y-132051414D01*
X168014285Y-132051414D02*
X167971427Y-132094271D01*
X167971427Y-132094271D02*
X167928570Y-132179985D01*
X167928570Y-132179985D02*
X167928570Y-132265700D01*
X167928570Y-132265700D02*
X167971427Y-132394271D01*
X167971427Y-132394271D02*
X168485713Y-132908557D01*
X168485713Y-132908557D02*
X167928570Y-132908557D01*
X192023810Y-134454819D02*
X192023810Y-133454819D01*
X192023810Y-133931009D02*
X191452382Y-133931009D01*
X191452382Y-134454819D02*
X191452382Y-133454819D01*
X190595239Y-134407200D02*
X190690477Y-134454819D01*
X190690477Y-134454819D02*
X190880953Y-134454819D01*
X190880953Y-134454819D02*
X190976191Y-134407200D01*
X190976191Y-134407200D02*
X191023810Y-134311961D01*
X191023810Y-134311961D02*
X191023810Y-133931009D01*
X191023810Y-133931009D02*
X190976191Y-133835771D01*
X190976191Y-133835771D02*
X190880953Y-133788152D01*
X190880953Y-133788152D02*
X190690477Y-133788152D01*
X190690477Y-133788152D02*
X190595239Y-133835771D01*
X190595239Y-133835771D02*
X190547620Y-133931009D01*
X190547620Y-133931009D02*
X190547620Y-134026247D01*
X190547620Y-134026247D02*
X191023810Y-134121485D01*
X189976191Y-134454819D02*
X190071429Y-134407200D01*
X190071429Y-134407200D02*
X190119048Y-134311961D01*
X190119048Y-134311961D02*
X190119048Y-133454819D01*
X189166667Y-134454819D02*
X189166667Y-133454819D01*
X189166667Y-134407200D02*
X189261905Y-134454819D01*
X189261905Y-134454819D02*
X189452381Y-134454819D01*
X189452381Y-134454819D02*
X189547619Y-134407200D01*
X189547619Y-134407200D02*
X189595238Y-134359580D01*
X189595238Y-134359580D02*
X189642857Y-134264342D01*
X189642857Y-134264342D02*
X189642857Y-133978628D01*
X189642857Y-133978628D02*
X189595238Y-133883390D01*
X189595238Y-133883390D02*
X189547619Y-133835771D01*
X189547619Y-133835771D02*
X189452381Y-133788152D01*
X189452381Y-133788152D02*
X189261905Y-133788152D01*
X189261905Y-133788152D02*
X189166667Y-133835771D01*
X188071428Y-133454819D02*
X187500000Y-133454819D01*
X187785714Y-134454819D02*
X187785714Y-133454819D01*
X187023809Y-134454819D02*
X187119047Y-134407200D01*
X187119047Y-134407200D02*
X187166666Y-134359580D01*
X187166666Y-134359580D02*
X187214285Y-134264342D01*
X187214285Y-134264342D02*
X187214285Y-133978628D01*
X187214285Y-133978628D02*
X187166666Y-133883390D01*
X187166666Y-133883390D02*
X187119047Y-133835771D01*
X187119047Y-133835771D02*
X187023809Y-133788152D01*
X187023809Y-133788152D02*
X186880952Y-133788152D01*
X186880952Y-133788152D02*
X186785714Y-133835771D01*
X186785714Y-133835771D02*
X186738095Y-133883390D01*
X186738095Y-133883390D02*
X186690476Y-133978628D01*
X186690476Y-133978628D02*
X186690476Y-134264342D01*
X186690476Y-134264342D02*
X186738095Y-134359580D01*
X186738095Y-134359580D02*
X186785714Y-134407200D01*
X186785714Y-134407200D02*
X186880952Y-134454819D01*
X186880952Y-134454819D02*
X187023809Y-134454819D01*
X185833333Y-133788152D02*
X185833333Y-134597676D01*
X185833333Y-134597676D02*
X185880952Y-134692914D01*
X185880952Y-134692914D02*
X185928571Y-134740533D01*
X185928571Y-134740533D02*
X186023809Y-134788152D01*
X186023809Y-134788152D02*
X186166666Y-134788152D01*
X186166666Y-134788152D02*
X186261904Y-134740533D01*
X185833333Y-134407200D02*
X185928571Y-134454819D01*
X185928571Y-134454819D02*
X186119047Y-134454819D01*
X186119047Y-134454819D02*
X186214285Y-134407200D01*
X186214285Y-134407200D02*
X186261904Y-134359580D01*
X186261904Y-134359580D02*
X186309523Y-134264342D01*
X186309523Y-134264342D02*
X186309523Y-133978628D01*
X186309523Y-133978628D02*
X186261904Y-133883390D01*
X186261904Y-133883390D02*
X186214285Y-133835771D01*
X186214285Y-133835771D02*
X186119047Y-133788152D01*
X186119047Y-133788152D02*
X185928571Y-133788152D01*
X185928571Y-133788152D02*
X185833333Y-133835771D01*
X184976190Y-134407200D02*
X185071428Y-134454819D01*
X185071428Y-134454819D02*
X185261904Y-134454819D01*
X185261904Y-134454819D02*
X185357142Y-134407200D01*
X185357142Y-134407200D02*
X185404761Y-134311961D01*
X185404761Y-134311961D02*
X185404761Y-133931009D01*
X185404761Y-133931009D02*
X185357142Y-133835771D01*
X185357142Y-133835771D02*
X185261904Y-133788152D01*
X185261904Y-133788152D02*
X185071428Y-133788152D01*
X185071428Y-133788152D02*
X184976190Y-133835771D01*
X184976190Y-133835771D02*
X184928571Y-133931009D01*
X184928571Y-133931009D02*
X184928571Y-134026247D01*
X184928571Y-134026247D02*
X185404761Y-134121485D01*
X184642856Y-133788152D02*
X184261904Y-133788152D01*
X184499999Y-133454819D02*
X184499999Y-134311961D01*
X184499999Y-134311961D02*
X184452380Y-134407200D01*
X184452380Y-134407200D02*
X184357142Y-134454819D01*
X184357142Y-134454819D02*
X184261904Y-134454819D01*
X183928570Y-134454819D02*
X183928570Y-133454819D01*
X183499999Y-134454819D02*
X183499999Y-133931009D01*
X183499999Y-133931009D02*
X183547618Y-133835771D01*
X183547618Y-133835771D02*
X183642856Y-133788152D01*
X183642856Y-133788152D02*
X183785713Y-133788152D01*
X183785713Y-133788152D02*
X183880951Y-133835771D01*
X183880951Y-133835771D02*
X183928570Y-133883390D01*
X182642856Y-134407200D02*
X182738094Y-134454819D01*
X182738094Y-134454819D02*
X182928570Y-134454819D01*
X182928570Y-134454819D02*
X183023808Y-134407200D01*
X183023808Y-134407200D02*
X183071427Y-134311961D01*
X183071427Y-134311961D02*
X183071427Y-133931009D01*
X183071427Y-133931009D02*
X183023808Y-133835771D01*
X183023808Y-133835771D02*
X182928570Y-133788152D01*
X182928570Y-133788152D02*
X182738094Y-133788152D01*
X182738094Y-133788152D02*
X182642856Y-133835771D01*
X182642856Y-133835771D02*
X182595237Y-133931009D01*
X182595237Y-133931009D02*
X182595237Y-134026247D01*
X182595237Y-134026247D02*
X183071427Y-134121485D01*
X182166665Y-134454819D02*
X182166665Y-133788152D01*
X182166665Y-133978628D02*
X182119046Y-133883390D01*
X182119046Y-133883390D02*
X182071427Y-133835771D01*
X182071427Y-133835771D02*
X181976189Y-133788152D01*
X181976189Y-133788152D02*
X181880951Y-133788152D01*
X180785712Y-134454819D02*
X180785712Y-133454819D01*
X180785712Y-133835771D02*
X180690474Y-133788152D01*
X180690474Y-133788152D02*
X180499998Y-133788152D01*
X180499998Y-133788152D02*
X180404760Y-133835771D01*
X180404760Y-133835771D02*
X180357141Y-133883390D01*
X180357141Y-133883390D02*
X180309522Y-133978628D01*
X180309522Y-133978628D02*
X180309522Y-134264342D01*
X180309522Y-134264342D02*
X180357141Y-134359580D01*
X180357141Y-134359580D02*
X180404760Y-134407200D01*
X180404760Y-134407200D02*
X180499998Y-134454819D01*
X180499998Y-134454819D02*
X180690474Y-134454819D01*
X180690474Y-134454819D02*
X180785712Y-134407200D01*
X179976188Y-133788152D02*
X179738093Y-134454819D01*
X179499998Y-133788152D02*
X179738093Y-134454819D01*
X179738093Y-134454819D02*
X179833331Y-134692914D01*
X179833331Y-134692914D02*
X179880950Y-134740533D01*
X179880950Y-134740533D02*
X179976188Y-134788152D01*
X178452378Y-133454819D02*
X177833331Y-133454819D01*
X177833331Y-133454819D02*
X178166664Y-133835771D01*
X178166664Y-133835771D02*
X178023807Y-133835771D01*
X178023807Y-133835771D02*
X177928569Y-133883390D01*
X177928569Y-133883390D02*
X177880950Y-133931009D01*
X177880950Y-133931009D02*
X177833331Y-134026247D01*
X177833331Y-134026247D02*
X177833331Y-134264342D01*
X177833331Y-134264342D02*
X177880950Y-134359580D01*
X177880950Y-134359580D02*
X177928569Y-134407200D01*
X177928569Y-134407200D02*
X178023807Y-134454819D01*
X178023807Y-134454819D02*
X178309521Y-134454819D01*
X178309521Y-134454819D02*
X178404759Y-134407200D01*
X178404759Y-134407200D02*
X178452378Y-134359580D01*
X177404759Y-134454819D02*
X177404759Y-133454819D01*
X177404759Y-133454819D02*
X177071426Y-134169104D01*
X177071426Y-134169104D02*
X176738093Y-133454819D01*
X176738093Y-133454819D02*
X176738093Y-134454819D01*
X176309521Y-133550057D02*
X176261902Y-133502438D01*
X176261902Y-133502438D02*
X176166664Y-133454819D01*
X176166664Y-133454819D02*
X175928569Y-133454819D01*
X175928569Y-133454819D02*
X175833331Y-133502438D01*
X175833331Y-133502438D02*
X175785712Y-133550057D01*
X175785712Y-133550057D02*
X175738093Y-133645295D01*
X175738093Y-133645295D02*
X175738093Y-133740533D01*
X175738093Y-133740533D02*
X175785712Y-133883390D01*
X175785712Y-133883390D02*
X176357140Y-134454819D01*
X176357140Y-134454819D02*
X175738093Y-134454819D01*
X175357140Y-133550057D02*
X175309521Y-133502438D01*
X175309521Y-133502438D02*
X175214283Y-133454819D01*
X175214283Y-133454819D02*
X174976188Y-133454819D01*
X174976188Y-133454819D02*
X174880950Y-133502438D01*
X174880950Y-133502438D02*
X174833331Y-133550057D01*
X174833331Y-133550057D02*
X174785712Y-133645295D01*
X174785712Y-133645295D02*
X174785712Y-133740533D01*
X174785712Y-133740533D02*
X174833331Y-133883390D01*
X174833331Y-133883390D02*
X175404759Y-134454819D01*
X175404759Y-134454819D02*
X174785712Y-134454819D01*
X173833331Y-134454819D02*
X174404759Y-134454819D01*
X174119045Y-134454819D02*
X174119045Y-133454819D01*
X174119045Y-133454819D02*
X174214283Y-133597676D01*
X174214283Y-133597676D02*
X174309521Y-133692914D01*
X174309521Y-133692914D02*
X174404759Y-133740533D01*
X172976188Y-133454819D02*
X173166664Y-133454819D01*
X173166664Y-133454819D02*
X173261902Y-133502438D01*
X173261902Y-133502438D02*
X173309521Y-133550057D01*
X173309521Y-133550057D02*
X173404759Y-133692914D01*
X173404759Y-133692914D02*
X173452378Y-133883390D01*
X173452378Y-133883390D02*
X173452378Y-134264342D01*
X173452378Y-134264342D02*
X173404759Y-134359580D01*
X173404759Y-134359580D02*
X173357140Y-134407200D01*
X173357140Y-134407200D02*
X173261902Y-134454819D01*
X173261902Y-134454819D02*
X173071426Y-134454819D01*
X173071426Y-134454819D02*
X172976188Y-134407200D01*
X172976188Y-134407200D02*
X172928569Y-134359580D01*
X172928569Y-134359580D02*
X172880950Y-134264342D01*
X172880950Y-134264342D02*
X172880950Y-134026247D01*
X172880950Y-134026247D02*
X172928569Y-133931009D01*
X172928569Y-133931009D02*
X172976188Y-133883390D01*
X172976188Y-133883390D02*
X173071426Y-133835771D01*
X173071426Y-133835771D02*
X173261902Y-133835771D01*
X173261902Y-133835771D02*
X173357140Y-133883390D01*
X173357140Y-133883390D02*
X173404759Y-133931009D01*
X173404759Y-133931009D02*
X173452378Y-134026247D01*
X171261902Y-134454819D02*
X171261902Y-133931009D01*
X171261902Y-133931009D02*
X171309521Y-133835771D01*
X171309521Y-133835771D02*
X171404759Y-133788152D01*
X171404759Y-133788152D02*
X171595235Y-133788152D01*
X171595235Y-133788152D02*
X171690473Y-133835771D01*
X171261902Y-134407200D02*
X171357140Y-134454819D01*
X171357140Y-134454819D02*
X171595235Y-134454819D01*
X171595235Y-134454819D02*
X171690473Y-134407200D01*
X171690473Y-134407200D02*
X171738092Y-134311961D01*
X171738092Y-134311961D02*
X171738092Y-134216723D01*
X171738092Y-134216723D02*
X171690473Y-134121485D01*
X171690473Y-134121485D02*
X171595235Y-134073866D01*
X171595235Y-134073866D02*
X171357140Y-134073866D01*
X171357140Y-134073866D02*
X171261902Y-134026247D01*
X170785711Y-133788152D02*
X170785711Y-134454819D01*
X170785711Y-133883390D02*
X170738092Y-133835771D01*
X170738092Y-133835771D02*
X170642854Y-133788152D01*
X170642854Y-133788152D02*
X170499997Y-133788152D01*
X170499997Y-133788152D02*
X170404759Y-133835771D01*
X170404759Y-133835771D02*
X170357140Y-133931009D01*
X170357140Y-133931009D02*
X170357140Y-134454819D01*
X169452378Y-134454819D02*
X169452378Y-133454819D01*
X169452378Y-134407200D02*
X169547616Y-134454819D01*
X169547616Y-134454819D02*
X169738092Y-134454819D01*
X169738092Y-134454819D02*
X169833330Y-134407200D01*
X169833330Y-134407200D02*
X169880949Y-134359580D01*
X169880949Y-134359580D02*
X169928568Y-134264342D01*
X169928568Y-134264342D02*
X169928568Y-133978628D01*
X169928568Y-133978628D02*
X169880949Y-133883390D01*
X169880949Y-133883390D02*
X169833330Y-133835771D01*
X169833330Y-133835771D02*
X169738092Y-133788152D01*
X169738092Y-133788152D02*
X169547616Y-133788152D01*
X169547616Y-133788152D02*
X169452378Y-133835771D01*
X167785711Y-134454819D02*
X167785711Y-133931009D01*
X167785711Y-133931009D02*
X167833330Y-133835771D01*
X167833330Y-133835771D02*
X167928568Y-133788152D01*
X167928568Y-133788152D02*
X168119044Y-133788152D01*
X168119044Y-133788152D02*
X168214282Y-133835771D01*
X167785711Y-134407200D02*
X167880949Y-134454819D01*
X167880949Y-134454819D02*
X168119044Y-134454819D01*
X168119044Y-134454819D02*
X168214282Y-134407200D01*
X168214282Y-134407200D02*
X168261901Y-134311961D01*
X168261901Y-134311961D02*
X168261901Y-134216723D01*
X168261901Y-134216723D02*
X168214282Y-134121485D01*
X168214282Y-134121485D02*
X168119044Y-134073866D01*
X168119044Y-134073866D02*
X167880949Y-134073866D01*
X167880949Y-134073866D02*
X167785711Y-134026247D01*
X166119044Y-134454819D02*
X166119044Y-133454819D01*
X166119044Y-134407200D02*
X166214282Y-134454819D01*
X166214282Y-134454819D02*
X166404758Y-134454819D01*
X166404758Y-134454819D02*
X166499996Y-134407200D01*
X166499996Y-134407200D02*
X166547615Y-134359580D01*
X166547615Y-134359580D02*
X166595234Y-134264342D01*
X166595234Y-134264342D02*
X166595234Y-133978628D01*
X166595234Y-133978628D02*
X166547615Y-133883390D01*
X166547615Y-133883390D02*
X166499996Y-133835771D01*
X166499996Y-133835771D02*
X166404758Y-133788152D01*
X166404758Y-133788152D02*
X166214282Y-133788152D01*
X166214282Y-133788152D02*
X166119044Y-133835771D01*
X165642853Y-134454819D02*
X165642853Y-133788152D01*
X165642853Y-133978628D02*
X165595234Y-133883390D01*
X165595234Y-133883390D02*
X165547615Y-133835771D01*
X165547615Y-133835771D02*
X165452377Y-133788152D01*
X165452377Y-133788152D02*
X165357139Y-133788152D01*
X164642853Y-134407200D02*
X164738091Y-134454819D01*
X164738091Y-134454819D02*
X164928567Y-134454819D01*
X164928567Y-134454819D02*
X165023805Y-134407200D01*
X165023805Y-134407200D02*
X165071424Y-134311961D01*
X165071424Y-134311961D02*
X165071424Y-133931009D01*
X165071424Y-133931009D02*
X165023805Y-133835771D01*
X165023805Y-133835771D02*
X164928567Y-133788152D01*
X164928567Y-133788152D02*
X164738091Y-133788152D01*
X164738091Y-133788152D02*
X164642853Y-133835771D01*
X164642853Y-133835771D02*
X164595234Y-133931009D01*
X164595234Y-133931009D02*
X164595234Y-134026247D01*
X164595234Y-134026247D02*
X165071424Y-134121485D01*
X163738091Y-134454819D02*
X163738091Y-133931009D01*
X163738091Y-133931009D02*
X163785710Y-133835771D01*
X163785710Y-133835771D02*
X163880948Y-133788152D01*
X163880948Y-133788152D02*
X164071424Y-133788152D01*
X164071424Y-133788152D02*
X164166662Y-133835771D01*
X163738091Y-134407200D02*
X163833329Y-134454819D01*
X163833329Y-134454819D02*
X164071424Y-134454819D01*
X164071424Y-134454819D02*
X164166662Y-134407200D01*
X164166662Y-134407200D02*
X164214281Y-134311961D01*
X164214281Y-134311961D02*
X164214281Y-134216723D01*
X164214281Y-134216723D02*
X164166662Y-134121485D01*
X164166662Y-134121485D02*
X164071424Y-134073866D01*
X164071424Y-134073866D02*
X163833329Y-134073866D01*
X163833329Y-134073866D02*
X163738091Y-134026247D01*
X163261900Y-134454819D02*
X163261900Y-133788152D01*
X163261900Y-133883390D02*
X163214281Y-133835771D01*
X163214281Y-133835771D02*
X163119043Y-133788152D01*
X163119043Y-133788152D02*
X162976186Y-133788152D01*
X162976186Y-133788152D02*
X162880948Y-133835771D01*
X162880948Y-133835771D02*
X162833329Y-133931009D01*
X162833329Y-133931009D02*
X162833329Y-134454819D01*
X162833329Y-133931009D02*
X162785710Y-133835771D01*
X162785710Y-133835771D02*
X162690472Y-133788152D01*
X162690472Y-133788152D02*
X162547615Y-133788152D01*
X162547615Y-133788152D02*
X162452376Y-133835771D01*
X162452376Y-133835771D02*
X162404757Y-133931009D01*
X162404757Y-133931009D02*
X162404757Y-134454819D01*
X161928567Y-134359580D02*
X161880948Y-134407200D01*
X161880948Y-134407200D02*
X161928567Y-134454819D01*
X161928567Y-134454819D02*
X161976186Y-134407200D01*
X161976186Y-134407200D02*
X161928567Y-134359580D01*
X161928567Y-134359580D02*
X161928567Y-134454819D01*
X161452377Y-134359580D02*
X161404758Y-134407200D01*
X161404758Y-134407200D02*
X161452377Y-134454819D01*
X161452377Y-134454819D02*
X161499996Y-134407200D01*
X161499996Y-134407200D02*
X161452377Y-134359580D01*
X161452377Y-134359580D02*
X161452377Y-134454819D01*
X160976187Y-134359580D02*
X160928568Y-134407200D01*
X160928568Y-134407200D02*
X160976187Y-134454819D01*
X160976187Y-134454819D02*
X161023806Y-134407200D01*
X161023806Y-134407200D02*
X160976187Y-134359580D01*
X160976187Y-134359580D02*
X160976187Y-134454819D01*
D12*
%TO.C,G\u002A\u002A\u002A*%
G36*
X134174852Y-43117799D02*
G01*
X134177834Y-43266698D01*
X134185149Y-43684884D01*
X133463599Y-43690775D01*
X132742048Y-43696667D01*
X132742048Y-43875226D01*
X134996354Y-43897546D01*
X135123981Y-43957364D01*
X135176190Y-43983977D01*
X135335174Y-44096820D01*
X135467032Y-44243909D01*
X135570161Y-44423158D01*
X135642958Y-44632481D01*
X135702482Y-44919058D01*
X135733980Y-45244052D01*
X135724999Y-45568413D01*
X135675777Y-45901395D01*
X135626719Y-46104582D01*
X135553729Y-46313444D01*
X135464650Y-46483351D01*
X135358188Y-46616232D01*
X135233052Y-46714017D01*
X135087948Y-46778633D01*
X135041555Y-46788499D01*
X134949178Y-46798833D01*
X134828713Y-46805832D01*
X134689456Y-46808794D01*
X134382558Y-46810287D01*
X134382558Y-46446699D01*
X134381656Y-46329933D01*
X134375611Y-46167471D01*
X134362680Y-46035404D01*
X134341468Y-45925011D01*
X134310581Y-45827569D01*
X134268623Y-45734355D01*
X134263248Y-45724149D01*
X134186470Y-45613676D01*
X134080453Y-45503595D01*
X133957689Y-45405422D01*
X133830673Y-45330673D01*
X133679483Y-45259057D01*
X132764368Y-45247897D01*
X132554995Y-45245299D01*
X132365757Y-45242702D01*
X132212431Y-45240072D01*
X132090468Y-45237128D01*
X131995320Y-45233590D01*
X131922441Y-45229175D01*
X131867281Y-45223603D01*
X131825293Y-45216592D01*
X131791930Y-45207862D01*
X131762642Y-45197130D01*
X131732884Y-45184117D01*
X131641980Y-45130922D01*
X131531177Y-45037099D01*
X131433520Y-44924420D01*
X131362218Y-44806348D01*
X131355691Y-44791967D01*
X131344564Y-44764341D01*
X131335591Y-44733876D01*
X131328541Y-44695926D01*
X131323182Y-44645848D01*
X131319282Y-44578996D01*
X131316611Y-44490727D01*
X131314937Y-44376396D01*
X131314027Y-44231358D01*
X131313651Y-44050970D01*
X131313577Y-43830586D01*
X131313577Y-42995509D01*
X133294158Y-42995509D01*
X133295075Y-43091202D01*
X133334097Y-43190233D01*
X133337537Y-43195633D01*
X133391433Y-43254372D01*
X133456056Y-43296252D01*
X133510034Y-43315148D01*
X133603173Y-43323385D01*
X133685477Y-43291419D01*
X133765002Y-43217187D01*
X133773521Y-43206835D01*
X133811415Y-43147228D01*
X133826816Y-43082427D01*
X133824760Y-42993591D01*
X133816954Y-42946373D01*
X133779638Y-42873796D01*
X133705958Y-42813921D01*
X133645516Y-42785332D01*
X133548322Y-42770814D01*
X133458428Y-42790807D01*
X133381995Y-42839077D01*
X133325185Y-42909390D01*
X133294158Y-42995509D01*
X131313577Y-42995509D01*
X131313577Y-42960111D01*
X131368208Y-42849094D01*
X131377753Y-42830480D01*
X131475330Y-42690870D01*
X131605919Y-42569998D01*
X131759923Y-42476982D01*
X131844590Y-42441727D01*
X131974093Y-42402468D01*
X132123703Y-42373357D01*
X132299424Y-42353558D01*
X132507258Y-42342232D01*
X132753208Y-42338544D01*
X132823033Y-42338842D01*
X133124799Y-42349293D01*
X133385789Y-42374912D01*
X133607119Y-42416029D01*
X133789900Y-42472971D01*
X133935248Y-42546069D01*
X134044274Y-42635651D01*
X134118093Y-42742047D01*
X134133522Y-42775220D01*
X134148213Y-42815640D01*
X134158821Y-42862460D01*
X134166216Y-42923328D01*
X134171269Y-43005892D01*
X134173719Y-43082427D01*
X134174852Y-43117799D01*
G37*
G36*
X134173654Y-47615283D02*
G01*
X134168750Y-47670551D01*
X134162105Y-47712251D01*
X134153454Y-47745187D01*
X134142529Y-47774160D01*
X134129064Y-47803974D01*
X134065118Y-47905777D01*
X133967558Y-48012098D01*
X133850149Y-48107773D01*
X133724809Y-48181667D01*
X133631458Y-48220551D01*
X133496912Y-48266868D01*
X133348732Y-48310428D01*
X133203263Y-48346476D01*
X133076846Y-48370256D01*
X133068312Y-48371466D01*
X132840520Y-48390257D01*
X132606720Y-48385769D01*
X132373951Y-48359764D01*
X132149255Y-48314004D01*
X131939672Y-48250250D01*
X131752244Y-48170265D01*
X131594011Y-48075811D01*
X131472014Y-47968650D01*
X131466726Y-47962730D01*
X131407178Y-47887968D01*
X131363485Y-47811690D01*
X131333405Y-47725322D01*
X131324388Y-47674699D01*
X131664398Y-47674699D01*
X131687433Y-47762271D01*
X131740949Y-47838319D01*
X131826706Y-47894144D01*
X131858081Y-47906053D01*
X131956139Y-47922501D01*
X132041838Y-47898331D01*
X132123205Y-47831856D01*
X132154076Y-47792557D01*
X132193437Y-47699596D01*
X132197508Y-47603798D01*
X132169900Y-47513965D01*
X132114222Y-47438899D01*
X132034084Y-47387405D01*
X131933097Y-47368284D01*
X131841861Y-47383186D01*
X131760575Y-47429847D01*
X131702729Y-47499787D01*
X131670083Y-47584304D01*
X131664398Y-47674699D01*
X131324388Y-47674699D01*
X131314695Y-47620285D01*
X131305113Y-47488004D01*
X131302417Y-47319902D01*
X131302417Y-47011784D01*
X132022233Y-47005895D01*
X132742048Y-47000006D01*
X132748912Y-46905147D01*
X132755775Y-46810287D01*
X131620230Y-46810287D01*
X131547363Y-46810286D01*
X131284559Y-46810152D01*
X131061617Y-46809475D01*
X130874722Y-46807814D01*
X130720056Y-46804727D01*
X130593804Y-46799771D01*
X130492148Y-46792505D01*
X130411273Y-46782486D01*
X130347361Y-46769272D01*
X130296597Y-46752421D01*
X130255164Y-46731491D01*
X130219245Y-46706039D01*
X130185024Y-46675623D01*
X130148684Y-46639802D01*
X130102874Y-46588496D01*
X130011475Y-46451410D01*
X129929621Y-46282593D01*
X129859771Y-46090541D01*
X129804382Y-45883753D01*
X129765912Y-45670727D01*
X129746820Y-45459958D01*
X129749562Y-45259946D01*
X129765360Y-45095330D01*
X129803607Y-44843687D01*
X129856202Y-44614324D01*
X129921644Y-44411608D01*
X129998435Y-44239905D01*
X130085073Y-44103580D01*
X130180059Y-44007001D01*
X130202399Y-43990414D01*
X130262161Y-43952307D01*
X130324803Y-43924824D01*
X130398666Y-43906277D01*
X130492091Y-43894978D01*
X130613420Y-43889237D01*
X130770994Y-43887365D01*
X131121206Y-43886386D01*
X131128112Y-44316043D01*
X131135019Y-44745700D01*
X131206634Y-44896891D01*
X131266996Y-45005915D01*
X131392445Y-45162441D01*
X131546112Y-45286832D01*
X131723495Y-45375752D01*
X131920095Y-45425864D01*
X131958992Y-45429737D01*
X132046187Y-45434684D01*
X132166866Y-45439099D01*
X132314592Y-45442826D01*
X132482926Y-45445711D01*
X132665429Y-45447598D01*
X132855663Y-45448334D01*
X133638873Y-45448776D01*
X133775708Y-45517153D01*
X133799685Y-45529685D01*
X133942756Y-45630887D01*
X134057369Y-45760102D01*
X134136295Y-45909467D01*
X134146597Y-45938601D01*
X134156441Y-45973235D01*
X134164251Y-46013451D01*
X134170261Y-46064130D01*
X134174700Y-46130154D01*
X134177802Y-46216407D01*
X134179797Y-46327770D01*
X134180918Y-46469126D01*
X134181395Y-46645357D01*
X134181461Y-46861344D01*
X134181426Y-46967333D01*
X134181215Y-47162480D01*
X134180600Y-47320046D01*
X134179312Y-47444833D01*
X134177086Y-47541645D01*
X134174189Y-47603798D01*
X134173654Y-47615283D01*
G37*
%TD*%
D13*
%TO.C,*%
X194500000Y-131530000D03*
%TD*%
D14*
%TO.C,BT3*%
X130600000Y-116950000D03*
X114600000Y-61750000D03*
D15*
X130600000Y-53550000D03*
D16*
X122600000Y-53630000D03*
X122600000Y-125070000D03*
%TD*%
D17*
%TO.C,TP2*%
X113000000Y-120000000D03*
%TD*%
%TO.C,TP5*%
X192000000Y-52550000D03*
%TD*%
D14*
%TO.C,BT1*%
X152600000Y-116970000D03*
X136600000Y-61770000D03*
D15*
X152600000Y-53570000D03*
D16*
X144600000Y-53650000D03*
X144600000Y-125090000D03*
%TD*%
D14*
%TO.C,BT2*%
X174000000Y-116990000D03*
X158000000Y-61790000D03*
D15*
X174000000Y-53590000D03*
D16*
X166000000Y-53670000D03*
X166000000Y-125110000D03*
%TD*%
D13*
%TO.C,*%
X114500000Y-131530000D03*
%TD*%
D17*
%TO.C,TP4*%
X112860000Y-123900000D03*
%TD*%
%TO.C,TP3*%
X191800000Y-125000000D03*
%TD*%
D14*
%TO.C,BT4*%
X195200000Y-117000000D03*
X179200000Y-61800000D03*
D15*
X195200000Y-53600000D03*
D16*
X187200000Y-53680000D03*
X187200000Y-125120000D03*
%TD*%
D18*
%TO.C,Q2*%
X153230098Y-96480999D03*
X153230098Y-95210999D03*
X153230098Y-93940999D03*
X153230098Y-92670999D03*
X158180098Y-92670999D03*
X158180098Y-93940999D03*
X158180098Y-95210999D03*
X158180098Y-96480999D03*
%TD*%
D19*
%TO.C,R4*%
X151130098Y-94426000D03*
X149480098Y-94426000D03*
%TD*%
D20*
%TO.C,U1*%
X150812599Y-90396001D03*
X150812599Y-91346000D03*
X150812599Y-92295999D03*
X148537599Y-92295999D03*
X148537599Y-91346000D03*
X148537599Y-90396001D03*
%TD*%
D21*
%TO.C,C10*%
X154275000Y-76500000D03*
X152725000Y-76500000D03*
%TD*%
D22*
%TO.C,R8*%
X149925000Y-72500000D03*
X151575000Y-72500000D03*
%TD*%
D23*
%TO.C,C11*%
X122600000Y-89225000D03*
X122600000Y-90775000D03*
%TD*%
%TO.C,C14*%
X187250000Y-88975000D03*
X187250000Y-90525000D03*
%TD*%
D24*
%TO.C,C7*%
X146360098Y-97616000D03*
X147910098Y-97616000D03*
%TD*%
D25*
%TO.C,U7*%
X189122500Y-70350000D03*
X189122500Y-71850000D03*
X189122500Y-73349999D03*
X189122500Y-74850001D03*
X189122500Y-76350000D03*
X189122500Y-77850000D03*
D26*
X194302501Y-80450000D03*
X194302501Y-67750000D03*
%TD*%
D24*
%TO.C,C8*%
X146340097Y-94435999D03*
X147890097Y-94435999D03*
%TD*%
D22*
%TO.C,R3*%
X150470098Y-98136000D03*
X152120098Y-98136000D03*
%TD*%
D24*
%TO.C,C9*%
X146350099Y-95986000D03*
X147900099Y-95986000D03*
%TD*%
D27*
%TO.C,U3*%
X155020000Y-70350000D03*
X155680000Y-70350000D03*
X156330000Y-70350000D03*
X156980000Y-70350000D03*
X156980000Y-74650000D03*
X156330000Y-74650000D03*
X155680000Y-74650000D03*
X155020000Y-74650000D03*
%TD*%
D21*
%TO.C,C13*%
X166775000Y-91250000D03*
X165225000Y-91250000D03*
%TD*%
D18*
%TO.C,Q1*%
X153240099Y-90921000D03*
X153240099Y-89651000D03*
X153240099Y-88381000D03*
X153240099Y-87111000D03*
X158190099Y-87111000D03*
X158190099Y-88381000D03*
X158190099Y-89651000D03*
X158190099Y-90921000D03*
%TD*%
D28*
%TO.C,J1*%
X167250506Y-71469670D03*
X160150506Y-71469670D03*
X167250506Y-73469670D03*
X160150506Y-73469670D03*
X167250506Y-75469670D03*
X160150506Y-75469670D03*
X167250506Y-77469670D03*
X160150506Y-77469670D03*
X167250506Y-79469670D03*
X160150506Y-79469670D03*
X167250506Y-81469670D03*
X160150506Y-81469670D03*
D29*
X163700506Y-85469670D03*
X163700506Y-67469670D03*
%TD*%
D30*
%TO.C,R7*%
X153000000Y-74825000D03*
X153000000Y-73175000D03*
%TD*%
D31*
%TO.C,R6*%
X153000000Y-70175000D03*
X153000000Y-71825000D03*
%TD*%
D19*
%TO.C,R5*%
X151120097Y-95965999D03*
X149470097Y-95965999D03*
%TD*%
D23*
%TO.C,C12*%
X144000000Y-89725000D03*
X144000000Y-91275000D03*
%TD*%
D24*
%TO.C,C5*%
X155160097Y-85255999D03*
X156710097Y-85255999D03*
%TD*%
G36*
X194809031Y-43093945D02*
G01*
X195530059Y-43286219D01*
X195555076Y-43295841D01*
X195849535Y-43446798D01*
X195867653Y-43458122D01*
X196250696Y-43745404D01*
X196266304Y-43759273D01*
X196689417Y-44203205D01*
X196707608Y-44227623D01*
X196894849Y-44555296D01*
X196903608Y-44574052D01*
X197240934Y-45484952D01*
X197248767Y-45530212D01*
X197248399Y-45561039D01*
X197250374Y-45572453D01*
X197250092Y-45572501D01*
X197255688Y-45604832D01*
X197250179Y-46066467D01*
X197246299Y-46096024D01*
X197004447Y-47046824D01*
X196990826Y-47079840D01*
X196812678Y-47381465D01*
X196797421Y-47402145D01*
X196315903Y-47931816D01*
X196294118Y-47950843D01*
X195832439Y-48268675D01*
X195809453Y-48281199D01*
X195240463Y-48518279D01*
X195201211Y-48527634D01*
X194553847Y-48575081D01*
X194544357Y-48575418D01*
X190649102Y-48566750D01*
X190649099Y-48566750D01*
X190497241Y-48583943D01*
X190462352Y-48583029D01*
X190190320Y-48537690D01*
X190169585Y-48532391D01*
X189421624Y-48271840D01*
X189382410Y-48249649D01*
X189100004Y-48014311D01*
X188759673Y-47767850D01*
X188730223Y-47737869D01*
X188407468Y-47275018D01*
X188394886Y-47252294D01*
X188216033Y-46832093D01*
X188210816Y-46817362D01*
X188115804Y-46484820D01*
X188111784Y-46464630D01*
X188044272Y-45878794D01*
X188043446Y-45863604D01*
X188043483Y-45857394D01*
X188043132Y-45854347D01*
X189198792Y-45854347D01*
X189198792Y-45854355D01*
X189234376Y-46101854D01*
X189308616Y-46340615D01*
X189419654Y-46564659D01*
X189419658Y-46564666D01*
X189564681Y-46768328D01*
X189564690Y-46768339D01*
X189740082Y-46946541D01*
X189740085Y-46946543D01*
X189941435Y-47094799D01*
X189941438Y-47094801D01*
X190163677Y-47209378D01*
X190163682Y-47209380D01*
X190401237Y-47287406D01*
X190648134Y-47326917D01*
X190648142Y-47326918D01*
X190773264Y-47329323D01*
X194623165Y-47379321D01*
X194748888Y-47376943D01*
X194748908Y-47376941D01*
X194997283Y-47337609D01*
X195236453Y-47259902D01*
X195236455Y-47259901D01*
X195460528Y-47145734D01*
X195663975Y-46997926D01*
X195841800Y-46820106D01*
X195989621Y-46616650D01*
X196103784Y-46392597D01*
X196103787Y-46392589D01*
X196181499Y-46153423D01*
X196220840Y-45905035D01*
X196220840Y-45653564D01*
X196181499Y-45405176D01*
X196103787Y-45166010D01*
X196103784Y-45166002D01*
X195989621Y-44941949D01*
X195841800Y-44738493D01*
X195663975Y-44560673D01*
X195460528Y-44412865D01*
X195236455Y-44298698D01*
X195236453Y-44298697D01*
X194997282Y-44220990D01*
X194997284Y-44220990D01*
X194748905Y-44181657D01*
X194748900Y-44181656D01*
X194623177Y-44179322D01*
X190823995Y-44180114D01*
X190822347Y-44180104D01*
X190698098Y-44178504D01*
X190450079Y-44210161D01*
X190450077Y-44210162D01*
X190210159Y-44280611D01*
X189984394Y-44388080D01*
X189778431Y-44529878D01*
X189597475Y-44702423D01*
X189446046Y-44901402D01*
X189446043Y-44901406D01*
X189327957Y-45121807D01*
X189246181Y-45358087D01*
X189202758Y-45604345D01*
X189198792Y-45854347D01*
X188043132Y-45854347D01*
X188037432Y-45804882D01*
X188037617Y-45774515D01*
X188093061Y-45339828D01*
X188140843Y-44957575D01*
X188150237Y-44923152D01*
X188318770Y-44533789D01*
X188325004Y-44521326D01*
X188511399Y-44195135D01*
X188536781Y-44163749D01*
X188842022Y-43890636D01*
X188844196Y-43888736D01*
X189042975Y-43718916D01*
X189051582Y-43712186D01*
X189391334Y-43469506D01*
X189403354Y-43461906D01*
X189874882Y-43199805D01*
X189913559Y-43185967D01*
X190431904Y-43091723D01*
X190454443Y-43089691D01*
X194776566Y-43089691D01*
X194809031Y-43093945D01*
G37*
G36*
X118008483Y-43068562D02*
G01*
X118729511Y-43260836D01*
X118754528Y-43270458D01*
X119048987Y-43421415D01*
X119067105Y-43432739D01*
X119450148Y-43720021D01*
X119465756Y-43733890D01*
X119888869Y-44177822D01*
X119907060Y-44202240D01*
X120094301Y-44529913D01*
X120103060Y-44548669D01*
X120440386Y-45459569D01*
X120448219Y-45504829D01*
X120447362Y-45576575D01*
X120448850Y-45595199D01*
X120443258Y-46063841D01*
X120439378Y-46093399D01*
X120197526Y-47044199D01*
X120183905Y-47077215D01*
X120005757Y-47378840D01*
X119990500Y-47399520D01*
X119508982Y-47929191D01*
X119487197Y-47948218D01*
X119025518Y-48266050D01*
X119002532Y-48278574D01*
X118433542Y-48515654D01*
X118394290Y-48525009D01*
X117746926Y-48572456D01*
X117737436Y-48572793D01*
X113842181Y-48564125D01*
X113842178Y-48564125D01*
X113690320Y-48581318D01*
X113655431Y-48580404D01*
X113383399Y-48535065D01*
X113362664Y-48529766D01*
X112614703Y-48269215D01*
X112575489Y-48247024D01*
X112293083Y-48011686D01*
X111952752Y-47765225D01*
X111923302Y-47735244D01*
X111600547Y-47272393D01*
X111587965Y-47249669D01*
X111409112Y-46829468D01*
X111403895Y-46814737D01*
X111308883Y-46482195D01*
X111304863Y-46462005D01*
X111237432Y-45876876D01*
X111237617Y-45846509D01*
X111241288Y-45817723D01*
X111241288Y-45817718D01*
X111239974Y-45806312D01*
X112976192Y-45806312D01*
X112991951Y-46055473D01*
X113046729Y-46299027D01*
X113046735Y-46299046D01*
X113139164Y-46530941D01*
X113266952Y-46745411D01*
X113266959Y-46745421D01*
X113426909Y-46937097D01*
X113615040Y-47101212D01*
X113615039Y-47101212D01*
X113826650Y-47233662D01*
X113826655Y-47233665D01*
X114056490Y-47331163D01*
X114298791Y-47391263D01*
X114298805Y-47391265D01*
X114422952Y-47404311D01*
X114422959Y-47404312D01*
X117173179Y-47429322D01*
X117298905Y-47426987D01*
X117298908Y-47426986D01*
X117547291Y-47387651D01*
X117786469Y-47309943D01*
X117786471Y-47309942D01*
X118010548Y-47195774D01*
X118214009Y-47047955D01*
X118214010Y-47047954D01*
X118391828Y-46870140D01*
X118391833Y-46870134D01*
X118539656Y-46666678D01*
X118539656Y-46666677D01*
X118653824Y-46442614D01*
X118653827Y-46442606D01*
X118731541Y-46203435D01*
X118770884Y-45955038D01*
X118770884Y-45703561D01*
X118731541Y-45455164D01*
X118653827Y-45215993D01*
X118653824Y-45215985D01*
X118539656Y-44991922D01*
X118539656Y-44991921D01*
X118391833Y-44788465D01*
X118391828Y-44788459D01*
X118214010Y-44610645D01*
X118214009Y-44610644D01*
X118010548Y-44462825D01*
X117786471Y-44348657D01*
X117786469Y-44348656D01*
X117547291Y-44270948D01*
X117298904Y-44231613D01*
X117173155Y-44229321D01*
X114472935Y-44255106D01*
X114348411Y-44264125D01*
X114104324Y-44316509D01*
X114104318Y-44316511D01*
X113871516Y-44406663D01*
X113871509Y-44406666D01*
X113655801Y-44532338D01*
X113462555Y-44690404D01*
X113296606Y-44876907D01*
X113296602Y-44876911D01*
X113162078Y-45087214D01*
X113162071Y-45087227D01*
X113062331Y-45316071D01*
X113062328Y-45316082D01*
X112999848Y-45557784D01*
X112976192Y-45806312D01*
X111239974Y-45806312D01*
X111236884Y-45779500D01*
X111237069Y-45749133D01*
X111292513Y-45314445D01*
X111340295Y-44932192D01*
X111349689Y-44897769D01*
X111518222Y-44508406D01*
X111524456Y-44495943D01*
X111710851Y-44169752D01*
X111736233Y-44138366D01*
X112041474Y-43865253D01*
X112043648Y-43863353D01*
X112242427Y-43693533D01*
X112251034Y-43686803D01*
X112590786Y-43444123D01*
X112602806Y-43436523D01*
X113074334Y-43174422D01*
X113113011Y-43160584D01*
X113631356Y-43066340D01*
X113653895Y-43064308D01*
X117976018Y-43064308D01*
X118008483Y-43068562D01*
G37*
G36*
X118008483Y-43068562D02*
G01*
X118729511Y-43260836D01*
X118754528Y-43270458D01*
X119048987Y-43421415D01*
X119067105Y-43432739D01*
X119450148Y-43720021D01*
X119465756Y-43733890D01*
X119888869Y-44177822D01*
X119907060Y-44202240D01*
X120094301Y-44529913D01*
X120103060Y-44548669D01*
X120440386Y-45459569D01*
X120448219Y-45504829D01*
X120447362Y-45576575D01*
X120448850Y-45595199D01*
X120443258Y-46063841D01*
X120439378Y-46093399D01*
X120197526Y-47044199D01*
X120183905Y-47077215D01*
X120005757Y-47378840D01*
X119990500Y-47399520D01*
X119508982Y-47929191D01*
X119487197Y-47948218D01*
X119025518Y-48266050D01*
X119002532Y-48278574D01*
X118433542Y-48515654D01*
X118394290Y-48525009D01*
X117746926Y-48572456D01*
X117737436Y-48572793D01*
X113842181Y-48564125D01*
X113842178Y-48564125D01*
X113690320Y-48581318D01*
X113655431Y-48580404D01*
X113383399Y-48535065D01*
X113362664Y-48529766D01*
X112614703Y-48269215D01*
X112575489Y-48247024D01*
X112293083Y-48011686D01*
X111952752Y-47765225D01*
X111923302Y-47735244D01*
X111600547Y-47272393D01*
X111587965Y-47249669D01*
X111409112Y-46829468D01*
X111403895Y-46814737D01*
X111308883Y-46482195D01*
X111304863Y-46462005D01*
X111237432Y-45876876D01*
X111237617Y-45846509D01*
X111241288Y-45817723D01*
X111241288Y-45817718D01*
X111239974Y-45806312D01*
X112976192Y-45806312D01*
X112991951Y-46055473D01*
X113046729Y-46299027D01*
X113046735Y-46299046D01*
X113139164Y-46530941D01*
X113266952Y-46745411D01*
X113266959Y-46745421D01*
X113426909Y-46937097D01*
X113615040Y-47101212D01*
X113615039Y-47101212D01*
X113826650Y-47233662D01*
X113826655Y-47233665D01*
X114056490Y-47331163D01*
X114298791Y-47391263D01*
X114298805Y-47391265D01*
X114422952Y-47404311D01*
X114422959Y-47404312D01*
X117173179Y-47429322D01*
X117298905Y-47426987D01*
X117298908Y-47426986D01*
X117547291Y-47387651D01*
X117786469Y-47309943D01*
X117786471Y-47309942D01*
X118010548Y-47195774D01*
X118214009Y-47047955D01*
X118214010Y-47047954D01*
X118391828Y-46870140D01*
X118391833Y-46870134D01*
X118539656Y-46666678D01*
X118539656Y-46666677D01*
X118653824Y-46442614D01*
X118653827Y-46442606D01*
X118731541Y-46203435D01*
X118770884Y-45955038D01*
X118770884Y-45703561D01*
X118731541Y-45455164D01*
X118653827Y-45215993D01*
X118653824Y-45215985D01*
X118539656Y-44991922D01*
X118539656Y-44991921D01*
X118391833Y-44788465D01*
X118391828Y-44788459D01*
X118214010Y-44610645D01*
X118214009Y-44610644D01*
X118010548Y-44462825D01*
X117786471Y-44348657D01*
X117786469Y-44348656D01*
X117547291Y-44270948D01*
X117298904Y-44231613D01*
X117173155Y-44229321D01*
X114472935Y-44255106D01*
X114348411Y-44264125D01*
X114104324Y-44316509D01*
X114104318Y-44316511D01*
X113871516Y-44406663D01*
X113871509Y-44406666D01*
X113655801Y-44532338D01*
X113462555Y-44690404D01*
X113296606Y-44876907D01*
X113296602Y-44876911D01*
X113162078Y-45087214D01*
X113162071Y-45087227D01*
X113062331Y-45316071D01*
X113062328Y-45316082D01*
X112999848Y-45557784D01*
X112976192Y-45806312D01*
X111239974Y-45806312D01*
X111236884Y-45779500D01*
X111237069Y-45749133D01*
X111292513Y-45314445D01*
X111340295Y-44932192D01*
X111349689Y-44897769D01*
X111518222Y-44508406D01*
X111524456Y-44495943D01*
X111710851Y-44169752D01*
X111736233Y-44138366D01*
X112041474Y-43865253D01*
X112043648Y-43863353D01*
X112242427Y-43693533D01*
X112251034Y-43686803D01*
X112590786Y-43444123D01*
X112602806Y-43436523D01*
X113074334Y-43174422D01*
X113113011Y-43160584D01*
X113631356Y-43066340D01*
X113653895Y-43064308D01*
X117976018Y-43064308D01*
X118008483Y-43068562D01*
G37*
G36*
X194809031Y-43093945D02*
G01*
X195530059Y-43286219D01*
X195555076Y-43295841D01*
X195849535Y-43446798D01*
X195867653Y-43458122D01*
X196250696Y-43745404D01*
X196266304Y-43759273D01*
X196689417Y-44203205D01*
X196707608Y-44227623D01*
X196894849Y-44555296D01*
X196903608Y-44574052D01*
X197240934Y-45484952D01*
X197248767Y-45530212D01*
X197248399Y-45561039D01*
X197250374Y-45572453D01*
X197250092Y-45572501D01*
X197255688Y-45604832D01*
X197250179Y-46066467D01*
X197246299Y-46096024D01*
X197004447Y-47046824D01*
X196990826Y-47079840D01*
X196812678Y-47381465D01*
X196797421Y-47402145D01*
X196315903Y-47931816D01*
X196294118Y-47950843D01*
X195832439Y-48268675D01*
X195809453Y-48281199D01*
X195240463Y-48518279D01*
X195201211Y-48527634D01*
X194553847Y-48575081D01*
X194544357Y-48575418D01*
X190649102Y-48566750D01*
X190649099Y-48566750D01*
X190497241Y-48583943D01*
X190462352Y-48583029D01*
X190190320Y-48537690D01*
X190169585Y-48532391D01*
X189421624Y-48271840D01*
X189382410Y-48249649D01*
X189100004Y-48014311D01*
X188759673Y-47767850D01*
X188730223Y-47737869D01*
X188407468Y-47275018D01*
X188394886Y-47252294D01*
X188216033Y-46832093D01*
X188210816Y-46817362D01*
X188115804Y-46484820D01*
X188111784Y-46464630D01*
X188044272Y-45878794D01*
X188043446Y-45863604D01*
X188043483Y-45857394D01*
X188043132Y-45854347D01*
X189198792Y-45854347D01*
X189198792Y-45854355D01*
X189234376Y-46101854D01*
X189308616Y-46340615D01*
X189419654Y-46564659D01*
X189419658Y-46564666D01*
X189564681Y-46768328D01*
X189564690Y-46768339D01*
X189740082Y-46946541D01*
X189740085Y-46946543D01*
X189941435Y-47094799D01*
X189941438Y-47094801D01*
X190163677Y-47209378D01*
X190163682Y-47209380D01*
X190401237Y-47287406D01*
X190648134Y-47326917D01*
X190648142Y-47326918D01*
X190773264Y-47329323D01*
X194623165Y-47379321D01*
X194748888Y-47376943D01*
X194748908Y-47376941D01*
X194997283Y-47337609D01*
X195236453Y-47259902D01*
X195236455Y-47259901D01*
X195460528Y-47145734D01*
X195663975Y-46997926D01*
X195841800Y-46820106D01*
X195989621Y-46616650D01*
X196103784Y-46392597D01*
X196103787Y-46392589D01*
X196181499Y-46153423D01*
X196220840Y-45905035D01*
X196220840Y-45653564D01*
X196181499Y-45405176D01*
X196103787Y-45166010D01*
X196103784Y-45166002D01*
X195989621Y-44941949D01*
X195841800Y-44738493D01*
X195663975Y-44560673D01*
X195460528Y-44412865D01*
X195236455Y-44298698D01*
X195236453Y-44298697D01*
X194997282Y-44220990D01*
X194997284Y-44220990D01*
X194748905Y-44181657D01*
X194748900Y-44181656D01*
X194623177Y-44179322D01*
X190823995Y-44180114D01*
X190822347Y-44180104D01*
X190698098Y-44178504D01*
X190450079Y-44210161D01*
X190450077Y-44210162D01*
X190210159Y-44280611D01*
X189984394Y-44388080D01*
X189778431Y-44529878D01*
X189597475Y-44702423D01*
X189446046Y-44901402D01*
X189446043Y-44901406D01*
X189327957Y-45121807D01*
X189246181Y-45358087D01*
X189202758Y-45604345D01*
X189198792Y-45854347D01*
X188043132Y-45854347D01*
X188037432Y-45804882D01*
X188037617Y-45774515D01*
X188093061Y-45339828D01*
X188140843Y-44957575D01*
X188150237Y-44923152D01*
X188318770Y-44533789D01*
X188325004Y-44521326D01*
X188511399Y-44195135D01*
X188536781Y-44163749D01*
X188842022Y-43890636D01*
X188844196Y-43888736D01*
X189042975Y-43718916D01*
X189051582Y-43712186D01*
X189391334Y-43469506D01*
X189403354Y-43461906D01*
X189874882Y-43199805D01*
X189913559Y-43185967D01*
X190431904Y-43091723D01*
X190454443Y-43089691D01*
X194776566Y-43089691D01*
X194809031Y-43093945D01*
G37*
M02*
