%TF.GenerationSoftware,KiCad,Pcbnew,9.0.0*%
%TF.CreationDate,2025-09-25T15:35:20-07:00*%
%TF.ProjectId,battery_pack_v2,62617474-6572-4795-9f70-61636b5f7632,rev?*%
%TF.SameCoordinates,Original*%
%TF.FileFunction,Profile,NP*%
%FSLAX46Y46*%
G04 Gerber Fmt 4.6, Leading zero omitted, Abs format (unit mm)*
G04 Created by KiCad (PCBNEW 9.0.0) date 2025-09-25 15:35:20*
%MOMM*%
%LPD*%
G01*
G04 APERTURE LIST*
%TA.AperFunction,Profile*%
%ADD10C,0.100000*%
%TD*%
%TA.AperFunction,Profile*%
%ADD11C,0.150000*%
%TD*%
G04 APERTURE END LIST*
D10*
X190158162Y-40989322D02*
X195598162Y-41004322D01*
X195700000Y-111000000D02*
X195700000Y-66000000D01*
D11*
X117133162Y-40989322D02*
X120308162Y-40989322D01*
D10*
X195700000Y-66000000D02*
X197000000Y-64000000D01*
X110500000Y-46000000D02*
G75*
G02*
X112663519Y-41014844I6488810J145960D01*
G01*
X110500000Y-118000000D02*
X112000000Y-116000000D01*
D11*
X164123162Y-41624322D02*
X164758162Y-40989322D01*
D10*
X117173162Y-44120000D02*
G75*
G02*
X117173162Y-47538600I38J-1709300D01*
G01*
X198500000Y-61944322D02*
X198500000Y-44500000D01*
X112663520Y-41014845D02*
X117133162Y-40989322D01*
X110500000Y-46000000D02*
X110500000Y-59000000D01*
X197000000Y-64000000D02*
X198500000Y-61944322D01*
D11*
X153328162Y-41624322D02*
X152693162Y-40989322D01*
X198500000Y-131499996D02*
X198500000Y-114500000D01*
D10*
X190773200Y-47459331D02*
X194623160Y-47488757D01*
X198500000Y-131500000D02*
G75*
G02*
X194500000Y-135500000I-4618600J618600D01*
G01*
X112000000Y-116000000D02*
X112000000Y-61000000D01*
D11*
X194500000Y-135500000D02*
X114500000Y-135500000D01*
D10*
X110500000Y-118000000D02*
X110500000Y-132500000D01*
X114440015Y-44130000D02*
X117173162Y-44120061D01*
X112000000Y-61000000D02*
X110500000Y-59000000D01*
X195598162Y-41004322D02*
X198500000Y-44500000D01*
D11*
X164758162Y-40989322D02*
X190158162Y-40989322D01*
D10*
X194600000Y-44070000D02*
X190823137Y-44050001D01*
D11*
X152693162Y-40989322D02*
X120308162Y-40989322D01*
D10*
X114500000Y-135500000D02*
G75*
G02*
X110499976Y-132500007I-60600J4085900D01*
G01*
X194600000Y-44070000D02*
G75*
G02*
X194623160Y-47488757I23200J-1709300D01*
G01*
X114412188Y-47530657D02*
G75*
G02*
X114440000Y-44130000I144912J1699257D01*
G01*
X190773162Y-47459331D02*
G75*
G02*
X190823137Y-44050000I38J1705031D01*
G01*
X198500000Y-114500000D02*
X195700000Y-111000000D01*
X114412188Y-47530657D02*
X117163392Y-47538571D01*
D11*
X164123162Y-41624322D02*
X153328162Y-41624322D01*
M02*
