%TF.GenerationSoftware,KiCad,Pcbnew,9.0.0*%
%TF.CreationDate,2025-09-25T15:35:20-07:00*%
%TF.ProjectId,battery_pack_v2,62617474-6572-4795-9f70-61636b5f7632,rev?*%
%TF.SameCoordinates,Original*%
%TF.FileFunction,Soldermask,Top*%
%TF.FilePolarity,Negative*%
%FSLAX46Y46*%
G04 Gerber Fmt 4.6, Leading zero omitted, Abs format (unit mm)*
G04 Created by KiCad (PCBNEW 9.0.0) date 2025-09-25 15:35:20*
%MOMM*%
%LPD*%
G01*
G04 APERTURE LIST*
G04 Aperture macros list*
%AMRoundRect*
0 Rectangle with rounded corners*
0 $1 Rounding radius*
0 $2 $3 $4 $5 $6 $7 $8 $9 X,Y pos of 4 corners*
0 Add a 4 corners polygon primitive as box body*
4,1,4,$2,$3,$4,$5,$6,$7,$8,$9,$2,$3,0*
0 Add four circle primitives for the rounded corners*
1,1,$1+$1,$2,$3*
1,1,$1+$1,$4,$5*
1,1,$1+$1,$6,$7*
1,1,$1+$1,$8,$9*
0 Add four rect primitives between the rounded corners*
20,1,$1+$1,$2,$3,$4,$5,0*
20,1,$1+$1,$4,$5,$6,$7,0*
20,1,$1+$1,$6,$7,$8,$9,0*
20,1,$1+$1,$8,$9,$2,$3,0*%
G04 Aperture macros list end*
%ADD10C,0.150000*%
%ADD11C,1.200000*%
%ADD12C,5.600000*%
%ADD13C,3.300000*%
%ADD14C,2.400000*%
%ADD15O,3.500000X2.500000*%
%ADD16C,2.000000*%
%ADD17RoundRect,0.087500X-0.250000X-0.087500X0.250000X-0.087500X0.250000X0.087500X-0.250000X0.087500X0*%
G04 APERTURE END LIST*
D10*
X116650476Y-45874617D02*
G75*
G02*
X111235682Y-45874617I-2707397J0D01*
G01*
X111235682Y-45874617D02*
G75*
G02*
X116650476Y-45874617I2707397J0D01*
G01*
X120435487Y-45849319D02*
G75*
G02*
X115050671Y-45849319I-2692408J0D01*
G01*
X115050671Y-45849319D02*
G75*
G02*
X120435487Y-45849319I2692408J0D01*
G01*
X193450476Y-45874617D02*
G75*
G02*
X188035682Y-45874617I-2707397J0D01*
G01*
X188035682Y-45874617D02*
G75*
G02*
X193450476Y-45874617I2707397J0D01*
G01*
X113943079Y-48571364D02*
X117743079Y-48577871D01*
X194593079Y-43171364D02*
X190793079Y-43177871D01*
X190743079Y-48571364D02*
X194543079Y-48577871D01*
X197235487Y-45849319D02*
G75*
G02*
X191850671Y-45849319I-2692408J0D01*
G01*
X191850671Y-45849319D02*
G75*
G02*
X197235487Y-45849319I2692408J0D01*
G01*
X117793079Y-43171364D02*
X113993079Y-43177871D01*
D11*
%TO.C,J1*%
X163700506Y-70469670D03*
X163700506Y-82469670D03*
%TD*%
D12*
%TO.C,*%
X194500000Y-131530000D03*
%TD*%
D13*
%TO.C,BT3*%
X130600000Y-116950000D03*
X114600000Y-61750000D03*
D14*
X130600000Y-53550000D03*
D15*
X122600000Y-53630000D03*
X122600000Y-125070000D03*
%TD*%
D16*
%TO.C,TP2*%
X113000000Y-120000000D03*
%TD*%
D17*
%TO.C,U5*%
X165287500Y-88890000D03*
X165287500Y-89390000D03*
X165287500Y-89890000D03*
X166712500Y-89890000D03*
X166712500Y-89390000D03*
X166712500Y-88890000D03*
%TD*%
%TO.C,U2*%
X121887500Y-88850000D03*
X121887500Y-89350000D03*
X121887500Y-89850000D03*
X123312500Y-89850000D03*
X123312500Y-89350000D03*
X123312500Y-88850000D03*
%TD*%
D16*
%TO.C,TP5*%
X192000000Y-52550000D03*
%TD*%
D13*
%TO.C,BT1*%
X152600000Y-116970000D03*
X136600000Y-61770000D03*
D14*
X152600000Y-53570000D03*
D15*
X144600000Y-53650000D03*
X144600000Y-125090000D03*
%TD*%
D13*
%TO.C,BT2*%
X174000000Y-116990000D03*
X158000000Y-61790000D03*
D14*
X174000000Y-53590000D03*
D15*
X166000000Y-53670000D03*
X166000000Y-125110000D03*
%TD*%
D17*
%TO.C,U4*%
X143175000Y-88870000D03*
X143175000Y-89370000D03*
X143175000Y-89870000D03*
X144600000Y-89870000D03*
X144600000Y-89370000D03*
X144600000Y-88870000D03*
%TD*%
%TO.C,U6*%
X186487500Y-88900000D03*
X186487500Y-89400000D03*
X186487500Y-89900000D03*
X187912500Y-89900000D03*
X187912500Y-89400000D03*
X187912500Y-88900000D03*
%TD*%
D12*
%TO.C,*%
X114500000Y-131530000D03*
%TD*%
D16*
%TO.C,TP4*%
X112860000Y-123900000D03*
%TD*%
%TO.C,TP3*%
X191800000Y-125000000D03*
%TD*%
D13*
%TO.C,BT4*%
X195200000Y-117000000D03*
X179200000Y-61800000D03*
D14*
X195200000Y-53600000D03*
D15*
X187200000Y-53680000D03*
X187200000Y-125120000D03*
%TD*%
G36*
X190642180Y-43172174D02*
G01*
X194537436Y-43163506D01*
X194546926Y-43163843D01*
X195194290Y-43211290D01*
X195233542Y-43220645D01*
X195802532Y-43457725D01*
X195825518Y-43470249D01*
X196287197Y-43788081D01*
X196308982Y-43807108D01*
X196790500Y-44336779D01*
X196805757Y-44357459D01*
X196983905Y-44659084D01*
X196997526Y-44692100D01*
X197239378Y-45642900D01*
X197243258Y-45672457D01*
X197248767Y-46134094D01*
X197240934Y-46179355D01*
X196903608Y-47090255D01*
X196894849Y-47109011D01*
X196707608Y-47436684D01*
X196689417Y-47461102D01*
X196266304Y-47905034D01*
X196250696Y-47918903D01*
X195867653Y-48206185D01*
X195849535Y-48217509D01*
X195555076Y-48368466D01*
X195530060Y-48378088D01*
X194809032Y-48570363D01*
X194776566Y-48574617D01*
X190454443Y-48574617D01*
X190431903Y-48572585D01*
X189913558Y-48478340D01*
X189874882Y-48464502D01*
X189403354Y-48202401D01*
X189391334Y-48194801D01*
X189051582Y-47952121D01*
X189042975Y-47945391D01*
X188844196Y-47775571D01*
X188842022Y-47773671D01*
X188536781Y-47500558D01*
X188511399Y-47469172D01*
X188325004Y-47142981D01*
X188318770Y-47130518D01*
X188150237Y-46741155D01*
X188140843Y-46706732D01*
X188093059Y-46324460D01*
X188037617Y-45889792D01*
X188037432Y-45859425D01*
X188052430Y-45729279D01*
X189065843Y-45729279D01*
X189065843Y-45729292D01*
X189081508Y-45986404D01*
X189081509Y-45986410D01*
X189135665Y-46238215D01*
X189227092Y-46479038D01*
X189227093Y-46479040D01*
X189353698Y-46703356D01*
X189353697Y-46703356D01*
X189512607Y-46906081D01*
X189700207Y-47082599D01*
X189912228Y-47228891D01*
X190143826Y-47341619D01*
X190389752Y-47418229D01*
X190389768Y-47418233D01*
X190644403Y-47456975D01*
X190773236Y-47459331D01*
X194623133Y-47488757D01*
X194751652Y-47486446D01*
X195005730Y-47447987D01*
X195251194Y-47371931D01*
X195482510Y-47259987D01*
X195482520Y-47259982D01*
X195694449Y-47114693D01*
X195694457Y-47114686D01*
X195882274Y-46939292D01*
X196041724Y-46737757D01*
X196041724Y-46737756D01*
X196169205Y-46514635D01*
X196169207Y-46514632D01*
X196261854Y-46274941D01*
X196317581Y-46024082D01*
X196317582Y-46024076D01*
X196335133Y-45767702D01*
X196314110Y-45511585D01*
X196254991Y-45261509D01*
X196159100Y-45023085D01*
X196159098Y-45023081D01*
X196028607Y-44801711D01*
X196028606Y-44801708D01*
X195866446Y-44602358D01*
X195866439Y-44602351D01*
X195676269Y-44429523D01*
X195462365Y-44287102D01*
X195229562Y-44178307D01*
X194983088Y-44105581D01*
X194983089Y-44105581D01*
X194728511Y-44070569D01*
X194728517Y-44070569D01*
X194600000Y-44070000D01*
X194600000Y-44069999D01*
X194599890Y-44069999D01*
X190823474Y-44050001D01*
X190822755Y-44049995D01*
X190694337Y-44048582D01*
X190694320Y-44048582D01*
X190438651Y-44079854D01*
X190438644Y-44079855D01*
X190190585Y-44149229D01*
X189955777Y-44255129D01*
X189739570Y-44395144D01*
X189739570Y-44395145D01*
X189546885Y-44566090D01*
X189382105Y-44764071D01*
X189248984Y-44984585D01*
X189248979Y-44984595D01*
X189150547Y-45222612D01*
X189150541Y-45222629D01*
X189089031Y-45472747D01*
X189089030Y-45472757D01*
X189065843Y-45729279D01*
X188052430Y-45729279D01*
X188104863Y-45274294D01*
X188108883Y-45254104D01*
X188203895Y-44921562D01*
X188209112Y-44906831D01*
X188387965Y-44486630D01*
X188400547Y-44463906D01*
X188723302Y-44001055D01*
X188752752Y-43971074D01*
X189093083Y-43724613D01*
X189375489Y-43489275D01*
X189414703Y-43467084D01*
X190162664Y-43206533D01*
X190183399Y-43201234D01*
X190455431Y-43155895D01*
X190490320Y-43154981D01*
X190642180Y-43172174D01*
G37*
G36*
X113842180Y-43172174D02*
G01*
X117737436Y-43163506D01*
X117746926Y-43163843D01*
X118394290Y-43211290D01*
X118433542Y-43220645D01*
X119002532Y-43457725D01*
X119025518Y-43470249D01*
X119487197Y-43788081D01*
X119508982Y-43807108D01*
X119990500Y-44336779D01*
X120005757Y-44357459D01*
X120183905Y-44659084D01*
X120197526Y-44692100D01*
X120439378Y-45642900D01*
X120443258Y-45672457D01*
X120448767Y-46134094D01*
X120440934Y-46179355D01*
X120103608Y-47090255D01*
X120094849Y-47109011D01*
X119907608Y-47436684D01*
X119889417Y-47461102D01*
X119466304Y-47905034D01*
X119450696Y-47918903D01*
X119067653Y-48206185D01*
X119049535Y-48217509D01*
X118755076Y-48368466D01*
X118730060Y-48378088D01*
X118009032Y-48570363D01*
X117976566Y-48574617D01*
X113654443Y-48574617D01*
X113631903Y-48572585D01*
X113113558Y-48478340D01*
X113074882Y-48464502D01*
X112603354Y-48202401D01*
X112591334Y-48194801D01*
X112251582Y-47952121D01*
X112242975Y-47945391D01*
X112044196Y-47775571D01*
X112042022Y-47773671D01*
X111736781Y-47500558D01*
X111711399Y-47469172D01*
X111525004Y-47142981D01*
X111518770Y-47130518D01*
X111350237Y-46741155D01*
X111340843Y-46706732D01*
X111293059Y-46324460D01*
X111244647Y-45944907D01*
X112853061Y-45944907D01*
X112888935Y-46197262D01*
X112888937Y-46197275D01*
X112961968Y-46441471D01*
X112961971Y-46441477D01*
X113070533Y-46672084D01*
X113070536Y-46672091D01*
X113212220Y-46883982D01*
X113383852Y-47072415D01*
X113383858Y-47072421D01*
X113581630Y-47233217D01*
X113581635Y-47233220D01*
X113801136Y-47362789D01*
X113801139Y-47362790D01*
X114037482Y-47458246D01*
X114285407Y-47517464D01*
X114285411Y-47517465D01*
X114412188Y-47530657D01*
X114412184Y-47530657D01*
X117173148Y-47538600D01*
X117301073Y-47536331D01*
X117301090Y-47536330D01*
X117554076Y-47498203D01*
X117554087Y-47498201D01*
X117798573Y-47422792D01*
X118029092Y-47311784D01*
X118240477Y-47167667D01*
X118240486Y-47167659D01*
X118428033Y-46993646D01*
X118587562Y-46793610D01*
X118587562Y-46793609D01*
X118715483Y-46572043D01*
X118808962Y-46333869D01*
X118865894Y-46084439D01*
X118885014Y-45829300D01*
X118865894Y-45574160D01*
X118808962Y-45324730D01*
X118715483Y-45086556D01*
X118587562Y-44864990D01*
X118587562Y-44864989D01*
X118428033Y-44664953D01*
X118240486Y-44490940D01*
X118240477Y-44490932D01*
X118029092Y-44346815D01*
X117798573Y-44235807D01*
X117554087Y-44160398D01*
X117554076Y-44160396D01*
X117301090Y-44122269D01*
X117301073Y-44122268D01*
X117173164Y-44119999D01*
X114440019Y-44129999D01*
X114313032Y-44141114D01*
X114064171Y-44196269D01*
X113826302Y-44287843D01*
X113826295Y-44287847D01*
X113604707Y-44413803D01*
X113604703Y-44413806D01*
X113404322Y-44571345D01*
X113404317Y-44571349D01*
X113229627Y-44756948D01*
X113229623Y-44756953D01*
X113084491Y-44966497D01*
X112972164Y-45195310D01*
X112972162Y-45195315D01*
X112895146Y-45438278D01*
X112895145Y-45438286D01*
X112855147Y-45690017D01*
X112853061Y-45944907D01*
X111244647Y-45944907D01*
X111237617Y-45889792D01*
X111237432Y-45859425D01*
X111304863Y-45274294D01*
X111308883Y-45254104D01*
X111403895Y-44921562D01*
X111409112Y-44906831D01*
X111587965Y-44486630D01*
X111600547Y-44463906D01*
X111923302Y-44001055D01*
X111952752Y-43971074D01*
X112293083Y-43724613D01*
X112575489Y-43489275D01*
X112614703Y-43467084D01*
X113362664Y-43206533D01*
X113383399Y-43201234D01*
X113655431Y-43155895D01*
X113690320Y-43154981D01*
X113842180Y-43172174D01*
G37*
M02*
