%TF.GenerationSoftware,KiCad,Pcbnew,8.0.2-1*%
%TF.CreationDate,2024-06-12T20:01:09-07:00*%
%TF.ProjectId,battery_board_v3b,62617474-6572-4795-9f62-6f6172645f76,rev?*%
%TF.SameCoordinates,Original*%
%TF.FileFunction,Paste,Top*%
%TF.FilePolarity,Positive*%
%FSLAX46Y46*%
G04 Gerber Fmt 4.6, Leading zero omitted, Abs format (unit mm)*
G04 Created by KiCad (PCBNEW 8.0.2-1) date 2024-06-12 20:01:09*
%MOMM*%
%LPD*%
G01*
G04 APERTURE LIST*
G04 Aperture macros list*
%AMRoundRect*
0 Rectangle with rounded corners*
0 $1 Rounding radius*
0 $2 $3 $4 $5 $6 $7 $8 $9 X,Y pos of 4 corners*
0 Add a 4 corners polygon primitive as box body*
4,1,4,$2,$3,$4,$5,$6,$7,$8,$9,$2,$3,0*
0 Add four circle primitives for the rounded corners*
1,1,$1+$1,$2,$3*
1,1,$1+$1,$4,$5*
1,1,$1+$1,$6,$7*
1,1,$1+$1,$8,$9*
0 Add four rect primitives between the rounded corners*
20,1,$1+$1,$2,$3,$4,$5,0*
20,1,$1+$1,$4,$5,$6,$7,0*
20,1,$1+$1,$6,$7,$8,$9,0*
20,1,$1+$1,$8,$9,$2,$3,0*%
%AMRotRect*
0 Rectangle, with rotation*
0 The origin of the aperture is its center*
0 $1 length*
0 $2 width*
0 $3 Rotation angle, in degrees counterclockwise*
0 Add horizontal line*
21,1,$1,$2,0,0,$3*%
G04 Aperture macros list end*
%ADD10RoundRect,0.200000X0.275000X-0.200000X0.275000X0.200000X-0.275000X0.200000X-0.275000X-0.200000X0*%
%ADD11RotRect,0.600000X1.550000X135.000000*%
%ADD12RotRect,1.200000X1.800000X135.000000*%
%ADD13RoundRect,0.225000X-0.225000X-0.250000X0.225000X-0.250000X0.225000X0.250000X-0.225000X0.250000X0*%
%ADD14RoundRect,0.250000X-1.450000X0.312500X-1.450000X-0.312500X1.450000X-0.312500X1.450000X0.312500X0*%
%ADD15R,1.500000X0.900000*%
%ADD16RoundRect,0.150000X0.825000X0.150000X-0.825000X0.150000X-0.825000X-0.150000X0.825000X-0.150000X0*%
%ADD17RoundRect,0.150000X0.150000X0.625000X-0.150000X0.625000X-0.150000X-0.625000X0.150000X-0.625000X0*%
%ADD18RoundRect,0.250000X0.350000X0.650000X-0.350000X0.650000X-0.350000X-0.650000X0.350000X-0.650000X0*%
%ADD19R,0.650000X0.400000*%
%ADD20RoundRect,0.200000X-0.200000X-0.275000X0.200000X-0.275000X0.200000X0.275000X-0.200000X0.275000X0*%
%ADD21RoundRect,0.250000X0.255000X0.395000X-0.255000X0.395000X-0.255000X-0.395000X0.255000X-0.395000X0*%
%ADD22RoundRect,0.150000X0.662500X0.150000X-0.662500X0.150000X-0.662500X-0.150000X0.662500X-0.150000X0*%
%ADD23RoundRect,0.150000X-0.512500X-0.150000X0.512500X-0.150000X0.512500X0.150000X-0.512500X0.150000X0*%
%ADD24RoundRect,0.140000X-0.021213X0.219203X-0.219203X0.021213X0.021213X-0.219203X0.219203X-0.021213X0*%
%ADD25R,0.600000X1.000000*%
%ADD26R,1.250000X1.800000*%
%ADD27RoundRect,0.140000X-0.219203X-0.021213X-0.021213X-0.219203X0.219203X0.021213X0.021213X0.219203X0*%
%ADD28RoundRect,0.200000X0.200000X0.275000X-0.200000X0.275000X-0.200000X-0.275000X0.200000X-0.275000X0*%
%ADD29RoundRect,0.225000X-0.250000X0.225000X-0.250000X-0.225000X0.250000X-0.225000X0.250000X0.225000X0*%
%ADD30RotRect,0.800000X0.500000X135.000000*%
%ADD31RotRect,0.800000X0.400000X135.000000*%
%ADD32RoundRect,0.250000X-0.650000X0.325000X-0.650000X-0.325000X0.650000X-0.325000X0.650000X0.325000X0*%
%ADD33RoundRect,0.200000X0.335876X0.053033X0.053033X0.335876X-0.335876X-0.053033X-0.053033X-0.335876X0*%
%ADD34RoundRect,0.225000X0.250000X-0.225000X0.250000X0.225000X-0.250000X0.225000X-0.250000X-0.225000X0*%
%ADD35RoundRect,0.250000X-0.475000X0.250000X-0.475000X-0.250000X0.475000X-0.250000X0.475000X0.250000X0*%
%ADD36RoundRect,0.150000X0.150000X-0.825000X0.150000X0.825000X-0.150000X0.825000X-0.150000X-0.825000X0*%
%ADD37R,2.200000X0.600000*%
%ADD38R,2.150000X3.450000*%
%ADD39RoundRect,0.150000X0.406586X0.618718X-0.618718X-0.406586X-0.406586X-0.618718X0.618718X0.406586X0*%
%ADD40RotRect,0.900000X0.900000X225.000000*%
%ADD41R,1.000000X0.600000*%
%ADD42R,1.800000X1.250000*%
%ADD43RoundRect,0.225000X0.225000X0.250000X-0.225000X0.250000X-0.225000X-0.250000X0.225000X-0.250000X0*%
%ADD44RotRect,0.900000X0.900000X45.000000*%
%ADD45RoundRect,0.250000X-0.255000X-0.395000X0.255000X-0.395000X0.255000X0.395000X-0.255000X0.395000X0*%
%ADD46RoundRect,0.150000X-0.662500X-0.150000X0.662500X-0.150000X0.662500X0.150000X-0.662500X0.150000X0*%
%ADD47RoundRect,0.150000X0.587500X0.150000X-0.587500X0.150000X-0.587500X-0.150000X0.587500X-0.150000X0*%
%ADD48RoundRect,0.250000X0.362500X1.425000X-0.362500X1.425000X-0.362500X-1.425000X0.362500X-1.425000X0*%
%ADD49RoundRect,0.250000X0.325000X0.650000X-0.325000X0.650000X-0.325000X-0.650000X0.325000X-0.650000X0*%
%ADD50R,0.600000X1.550000*%
%ADD51R,1.200000X1.800000*%
%ADD52RoundRect,0.250001X-0.354999X-0.374999X0.354999X-0.374999X0.354999X0.374999X-0.354999X0.374999X0*%
%ADD53RoundRect,0.100000X-0.687500X-0.100000X0.687500X-0.100000X0.687500X0.100000X-0.687500X0.100000X0*%
%ADD54RoundRect,0.200000X0.053033X-0.335876X0.335876X-0.053033X-0.053033X0.335876X-0.335876X0.053033X0*%
%ADD55RoundRect,0.237500X-0.237500X0.287500X-0.237500X-0.287500X0.237500X-0.287500X0.237500X0.287500X0*%
%ADD56RoundRect,0.250000X-0.362500X-1.425000X0.362500X-1.425000X0.362500X1.425000X-0.362500X1.425000X0*%
%ADD57RoundRect,0.250000X-0.500000X0.950000X-0.500000X-0.950000X0.500000X-0.950000X0.500000X0.950000X0*%
%ADD58RoundRect,0.250000X-0.500000X0.275000X-0.500000X-0.275000X0.500000X-0.275000X0.500000X0.275000X0*%
%ADD59RoundRect,0.250000X0.950000X0.500000X-0.950000X0.500000X-0.950000X-0.500000X0.950000X-0.500000X0*%
%ADD60RoundRect,0.250000X0.275000X0.500000X-0.275000X0.500000X-0.275000X-0.500000X0.275000X-0.500000X0*%
%ADD61RoundRect,0.140000X0.219203X0.021213X0.021213X0.219203X-0.219203X-0.021213X-0.021213X-0.219203X0*%
%ADD62RoundRect,0.125000X0.176777X0.000000X0.000000X0.176777X-0.176777X0.000000X0.000000X-0.176777X0*%
%ADD63RoundRect,0.150000X-0.150000X0.512500X-0.150000X-0.512500X0.150000X-0.512500X0.150000X0.512500X0*%
%ADD64RoundRect,0.150000X-0.150000X0.825000X-0.150000X-0.825000X0.150000X-0.825000X0.150000X0.825000X0*%
%ADD65RoundRect,0.250000X-0.325000X-0.650000X0.325000X-0.650000X0.325000X0.650000X-0.325000X0.650000X0*%
%ADD66RoundRect,0.200000X-0.053033X0.335876X-0.335876X0.053033X0.053033X-0.335876X0.335876X-0.053033X0*%
%ADD67RoundRect,0.237500X-0.287500X-0.237500X0.287500X-0.237500X0.287500X0.237500X-0.287500X0.237500X0*%
%ADD68R,0.400000X0.510000*%
%ADD69RoundRect,0.250000X-1.425000X0.362500X-1.425000X-0.362500X1.425000X-0.362500X1.425000X0.362500X0*%
%ADD70RoundRect,0.200000X-0.275000X0.200000X-0.275000X-0.200000X0.275000X-0.200000X0.275000X0.200000X0*%
%ADD71RoundRect,0.100000X0.100000X-0.712500X0.100000X0.712500X-0.100000X0.712500X-0.100000X-0.712500X0*%
%ADD72RoundRect,0.150000X-0.650000X-0.150000X0.650000X-0.150000X0.650000X0.150000X-0.650000X0.150000X0*%
%ADD73RoundRect,0.150000X-0.587500X-0.150000X0.587500X-0.150000X0.587500X0.150000X-0.587500X0.150000X0*%
%ADD74RoundRect,0.250000X1.100000X-0.325000X1.100000X0.325000X-1.100000X0.325000X-1.100000X-0.325000X0*%
%ADD75RoundRect,0.140000X0.170000X-0.140000X0.170000X0.140000X-0.170000X0.140000X-0.170000X-0.140000X0*%
%ADD76RoundRect,0.250000X1.425000X-0.362500X1.425000X0.362500X-1.425000X0.362500X-1.425000X-0.362500X0*%
%ADD77RoundRect,0.140000X-0.140000X-0.170000X0.140000X-0.170000X0.140000X0.170000X-0.140000X0.170000X0*%
%ADD78R,1.380000X0.450000*%
%ADD79R,2.100000X1.475000*%
%ADD80R,1.900000X1.375000*%
%ADD81RoundRect,0.250000X0.500000X-0.950000X0.500000X0.950000X-0.500000X0.950000X-0.500000X-0.950000X0*%
%ADD82RoundRect,0.250000X0.500000X-0.275000X0.500000X0.275000X-0.500000X0.275000X-0.500000X-0.275000X0*%
%ADD83RoundRect,0.140000X0.140000X0.170000X-0.140000X0.170000X-0.140000X-0.170000X0.140000X-0.170000X0*%
%ADD84RoundRect,0.249999X-0.558616X0.000000X0.000000X-0.558616X0.558616X0.000000X0.000000X0.558616X0*%
%ADD85RoundRect,0.050000X-0.309359X0.238649X0.238649X-0.309359X0.309359X-0.238649X-0.238649X0.309359X0*%
%ADD86RoundRect,0.050000X-0.309359X-0.238649X-0.238649X-0.309359X0.309359X0.238649X0.238649X0.309359X0*%
%ADD87RoundRect,0.250000X0.475000X-0.250000X0.475000X0.250000X-0.475000X0.250000X-0.475000X-0.250000X0*%
%ADD88R,0.250000X1.100000*%
%ADD89RoundRect,0.250000X-0.312500X-1.450000X0.312500X-1.450000X0.312500X1.450000X-0.312500X1.450000X0*%
%ADD90RoundRect,0.250000X0.452548X0.000000X0.000000X0.452548X-0.452548X0.000000X0.000000X-0.452548X0*%
%ADD91RoundRect,0.075000X0.362392X-0.256326X-0.256326X0.362392X-0.362392X0.256326X0.256326X-0.362392X0*%
%ADD92RoundRect,0.075000X0.362392X0.256326X0.256326X0.362392X-0.362392X-0.256326X-0.256326X-0.362392X0*%
%ADD93RoundRect,0.150000X-0.350000X0.150000X-0.350000X-0.150000X0.350000X-0.150000X0.350000X0.150000X0*%
%ADD94RoundRect,0.250000X-0.650000X0.375000X-0.650000X-0.375000X0.650000X-0.375000X0.650000X0.375000X0*%
%ADD95R,0.400000X1.100000*%
%ADD96RoundRect,0.225000X0.017678X-0.335876X0.335876X-0.017678X-0.017678X0.335876X-0.335876X0.017678X0*%
%ADD97RoundRect,0.225000X-0.335876X-0.017678X-0.017678X-0.335876X0.335876X0.017678X0.017678X0.335876X0*%
%ADD98RoundRect,0.167500X0.407500X-0.167500X0.407500X0.167500X-0.407500X0.167500X-0.407500X-0.167500X0*%
%ADD99RoundRect,0.100000X0.100000X-0.625000X0.100000X0.625000X-0.100000X0.625000X-0.100000X-0.625000X0*%
%ADD100RotRect,1.150000X1.000000X315.000000*%
%ADD101RoundRect,0.250000X-0.250000X-0.475000X0.250000X-0.475000X0.250000X0.475000X-0.250000X0.475000X0*%
%ADD102RoundRect,0.140000X0.021213X-0.219203X0.219203X-0.021213X-0.021213X0.219203X-0.219203X0.021213X0*%
%ADD103RotRect,1.150000X1.000000X225.000000*%
G04 APERTURE END LIST*
D10*
%TO.C,R57*%
X186790000Y-65585000D03*
X186790000Y-63935000D03*
%TD*%
D11*
%TO.C,J21*%
X179057577Y-87283744D03*
X178350470Y-86576637D03*
X177643363Y-85869530D03*
X176936256Y-85162423D03*
D12*
X178191371Y-89988427D03*
X174231573Y-86028629D03*
%TD*%
D13*
%TO.C,C1*%
X144082500Y-90615000D03*
X145632500Y-90615000D03*
%TD*%
D14*
%TO.C,L3*%
X159440000Y-108330000D03*
X159440000Y-112605000D03*
%TD*%
D15*
%TO.C,LED1*%
X193870000Y-68420000D03*
X193870000Y-65120000D03*
X188970000Y-65120000D03*
X188970000Y-68420000D03*
%TD*%
D16*
%TO.C,Q2*%
X125124999Y-122585000D03*
X125124999Y-121315000D03*
X125124999Y-120045000D03*
X125124999Y-118775000D03*
X120174999Y-118775000D03*
X120174999Y-120045000D03*
X120174999Y-121315000D03*
X120174999Y-122585000D03*
%TD*%
D17*
%TO.C,J27*%
X154110000Y-70395000D03*
X153110000Y-70395000D03*
X152110000Y-70395000D03*
X151110000Y-70395000D03*
D18*
X155410000Y-72920000D03*
X149810000Y-72920000D03*
%TD*%
D19*
%TO.C,Q3*%
X154057500Y-98180000D03*
X154057500Y-98830000D03*
X154057500Y-99480000D03*
X155957500Y-99480000D03*
X155957500Y-98830000D03*
X155957500Y-98180000D03*
%TD*%
D20*
%TO.C,R4*%
X127225000Y-120530000D03*
X128875000Y-120530000D03*
%TD*%
D21*
%TO.C,Q9*%
X127832502Y-85469999D03*
X127832502Y-83869999D03*
X126572502Y-85469999D03*
X126572502Y-83869999D03*
D22*
X129840002Y-86574999D03*
X129840002Y-85304999D03*
X129840002Y-84034999D03*
X129840002Y-82764999D03*
X124565002Y-82764999D03*
X124565002Y-84034999D03*
X124565002Y-85304999D03*
X124565002Y-86574999D03*
%TD*%
D23*
%TO.C,U1*%
X127542500Y-116500000D03*
X127542500Y-117450000D03*
X127542500Y-118400000D03*
X129817500Y-118400000D03*
X129817500Y-117450000D03*
X129817500Y-116500000D03*
%TD*%
D24*
%TO.C,C31*%
X185639411Y-85060589D03*
X184960589Y-85739411D03*
%TD*%
D25*
%TO.C,J7*%
X155870000Y-49225000D03*
X154370000Y-49225000D03*
D26*
X158475000Y-44035000D03*
X151765000Y-44035000D03*
%TD*%
D27*
%TO.C,C20*%
X171960589Y-79870589D03*
X172639411Y-80549411D03*
%TD*%
D28*
%TO.C,FB3*%
X131215000Y-94502499D03*
X129565000Y-94502499D03*
%TD*%
%TO.C,R19*%
X133285000Y-86564998D03*
X131635000Y-86564998D03*
%TD*%
D29*
%TO.C,C40*%
X180220000Y-108085000D03*
X180220000Y-109635000D03*
%TD*%
D10*
%TO.C,R60*%
X123750000Y-71955000D03*
X123750000Y-70305000D03*
%TD*%
D30*
%TO.C,R48*%
X171537868Y-70934924D03*
D31*
X172103553Y-70369239D03*
X172669239Y-69803553D03*
D30*
X173234924Y-69237868D03*
X171962132Y-67965076D03*
D31*
X171396447Y-68530761D03*
X170830761Y-69096447D03*
D30*
X170265076Y-69662132D03*
%TD*%
D25*
%TO.C,J8*%
X164610000Y-49245000D03*
X163110000Y-49245000D03*
D26*
X167215000Y-44055000D03*
X160505000Y-44055000D03*
%TD*%
D32*
%TO.C,C50*%
X122430000Y-63325000D03*
X122430000Y-66275000D03*
%TD*%
D28*
%TO.C,R31*%
X180825000Y-60880000D03*
X179175000Y-60880000D03*
%TD*%
D20*
%TO.C,R43*%
X169415000Y-115690000D03*
X171065000Y-115690000D03*
%TD*%
D33*
%TO.C,R40*%
X169963503Y-65683595D03*
X168796777Y-64516869D03*
%TD*%
D34*
%TO.C,C13*%
X145467500Y-86055000D03*
X145467500Y-84505000D03*
%TD*%
D35*
%TO.C,C18*%
X125665000Y-97682499D03*
X125665000Y-99582499D03*
%TD*%
D36*
%TO.C,U14*%
X182215000Y-108495000D03*
X183485000Y-108495000D03*
X184755000Y-108495000D03*
X186025000Y-108495000D03*
X186025000Y-103545000D03*
X184755000Y-103545000D03*
X183485000Y-103545000D03*
X182215000Y-103545000D03*
%TD*%
D37*
%TO.C,U6*%
X149270000Y-80630000D03*
X149270000Y-81900000D03*
X149270000Y-83170000D03*
X149270000Y-84440000D03*
X149270000Y-85710000D03*
D38*
X155570000Y-83170000D03*
%TD*%
D39*
%TO.C,U13*%
X185957838Y-82766238D03*
X185059813Y-81868213D03*
X184161787Y-80970187D03*
X183263762Y-80072162D03*
X179622162Y-83713762D03*
X180520187Y-84611787D03*
X181418213Y-85509813D03*
X182316238Y-86407838D03*
%TD*%
D40*
%TO.C,SW1*%
X167046117Y-79685254D03*
X169945254Y-76786117D03*
X165914746Y-78553883D03*
X168813883Y-75654746D03*
%TD*%
D41*
%TO.C,J14*%
X189030000Y-106400000D03*
X189030000Y-104900000D03*
X189030000Y-103400000D03*
X189030000Y-101900000D03*
X189030000Y-100400000D03*
D42*
X194220000Y-109005000D03*
X194220000Y-97795000D03*
%TD*%
D20*
%TO.C,FB1*%
X132890000Y-106322499D03*
X134540000Y-106322499D03*
%TD*%
D43*
%TO.C,C49*%
X144995000Y-109710000D03*
X143445000Y-109710000D03*
%TD*%
D44*
%TO.C,SW2*%
X172313883Y-87844746D03*
X169414746Y-90743883D03*
X173445254Y-88976117D03*
X170546117Y-91875254D03*
%TD*%
D10*
%TO.C,R59*%
X112050000Y-57485000D03*
X112050000Y-55835000D03*
%TD*%
D13*
%TO.C,C12*%
X151052500Y-98160000D03*
X152602500Y-98160000D03*
%TD*%
%TO.C,C43*%
X144535000Y-105100000D03*
X146085000Y-105100000D03*
%TD*%
D45*
%TO.C,Q11*%
X116082500Y-56965000D03*
X116082500Y-58565000D03*
X117342500Y-56965000D03*
X117342500Y-58565000D03*
D46*
X114075000Y-55860000D03*
X114075000Y-57130000D03*
X114075000Y-58400000D03*
X114075000Y-59670000D03*
X119350000Y-59670000D03*
X119350000Y-58400000D03*
X119350000Y-57130000D03*
X119350000Y-55860000D03*
%TD*%
D34*
%TO.C,C6*%
X156907500Y-95015000D03*
X156907500Y-93465000D03*
%TD*%
D47*
%TO.C,Q7*%
X135407501Y-84619998D03*
X135407501Y-82719998D03*
X133532501Y-83669998D03*
%TD*%
D20*
%TO.C,R54*%
X187340000Y-76720000D03*
X188990000Y-76720000D03*
%TD*%
D48*
%TO.C,R1*%
X130962500Y-110200000D03*
X125037500Y-110200000D03*
%TD*%
D49*
%TO.C,C46*%
X155185000Y-105500000D03*
X152235000Y-105500000D03*
%TD*%
D50*
%TO.C,J20*%
X173670000Y-43475000D03*
X172670000Y-43475000D03*
X171670000Y-43475000D03*
X170670000Y-43475000D03*
D51*
X174970000Y-46000000D03*
X169370000Y-46000000D03*
%TD*%
D10*
%TO.C,R62*%
X111540000Y-50465000D03*
X111540000Y-48815000D03*
%TD*%
D52*
%TO.C,U3*%
X151227500Y-93525000D03*
X151227500Y-95075000D03*
X152727500Y-93525000D03*
X152727500Y-95075000D03*
D53*
X149115000Y-92350000D03*
X149115000Y-93000000D03*
X149115000Y-93650000D03*
X149115000Y-94300000D03*
X149115000Y-94950000D03*
X149115000Y-95600000D03*
X149115000Y-96250000D03*
X154840000Y-96250000D03*
X154840000Y-95600000D03*
X154840000Y-94950000D03*
X154840000Y-94300000D03*
X154840000Y-93650000D03*
X154840000Y-93000000D03*
X154840000Y-92350000D03*
%TD*%
D54*
%TO.C,R45*%
X173716637Y-91403363D03*
X174883363Y-90236637D03*
%TD*%
D10*
%TO.C,R52*%
X178650000Y-109685000D03*
X178650000Y-108035000D03*
%TD*%
D28*
%TO.C,R10*%
X155762500Y-101060000D03*
X154112500Y-101060000D03*
%TD*%
D35*
%TO.C,C27*%
X132924999Y-92572500D03*
X132924999Y-94472500D03*
%TD*%
D20*
%TO.C,R53*%
X187340000Y-75180000D03*
X188990000Y-75180000D03*
%TD*%
D28*
%TO.C,R9*%
X122302500Y-75170000D03*
X120652500Y-75170000D03*
%TD*%
D54*
%TO.C,R36*%
X167200000Y-93110000D03*
X168366726Y-91943274D03*
%TD*%
D55*
%TO.C,D10*%
X186770000Y-62435000D03*
X186770000Y-60685000D03*
%TD*%
D56*
%TO.C,R49*%
X180597500Y-121770000D03*
X186522500Y-121770000D03*
%TD*%
D57*
%TO.C,D11*%
X165800000Y-116350000D03*
D58*
X165800000Y-113975000D03*
%TD*%
D59*
%TO.C,D4*%
X174250000Y-121420000D03*
D60*
X176625000Y-121420000D03*
%TD*%
D61*
%TO.C,C21*%
X169389411Y-83379411D03*
X168710589Y-82700589D03*
%TD*%
D62*
%TO.C,D8*%
X164772183Y-79872183D03*
X166327817Y-81427817D03*
%TD*%
D63*
%TO.C,D5*%
X177130000Y-49675000D03*
X175230000Y-49675000D03*
X176180000Y-51950000D03*
%TD*%
D64*
%TO.C,U12*%
X185025000Y-113555000D03*
X183755000Y-113555000D03*
X182485000Y-113555000D03*
X181215000Y-113555000D03*
X181215000Y-118505000D03*
X182485000Y-118505000D03*
X183755000Y-118505000D03*
X185025000Y-118505000D03*
%TD*%
D65*
%TO.C,C45*%
X157045000Y-105820000D03*
X159995000Y-105820000D03*
%TD*%
D10*
%TO.C,R6*%
X147137500Y-92210000D03*
X147137500Y-90560000D03*
%TD*%
D66*
%TO.C,R38*%
X172683363Y-83136637D03*
X171516637Y-84303363D03*
%TD*%
D67*
%TO.C,D2*%
X155670000Y-68240000D03*
X153920000Y-68240000D03*
%TD*%
D68*
%TO.C,Q4*%
X120841957Y-73425562D03*
X121841957Y-73425562D03*
X121341957Y-72135562D03*
%TD*%
D69*
%TO.C,R55*%
X176250000Y-95137500D03*
X176250000Y-101062500D03*
%TD*%
D20*
%TO.C,R37*%
X129760000Y-106302499D03*
X131410000Y-106302499D03*
%TD*%
D70*
%TO.C,R25*%
X147057500Y-84455000D03*
X147057500Y-86105000D03*
%TD*%
D20*
%TO.C,R26*%
X148552500Y-87640000D03*
X150202500Y-87640000D03*
%TD*%
D27*
%TO.C,C35*%
X160049866Y-59984315D03*
X160728688Y-60663137D03*
%TD*%
D41*
%TO.C,J10*%
X119570000Y-64340000D03*
X119570000Y-65840000D03*
D42*
X114380000Y-61735000D03*
X114380000Y-68445000D03*
%TD*%
D29*
%TO.C,C34*%
X169450000Y-117235000D03*
X169450000Y-118785000D03*
%TD*%
D25*
%TO.C,J5*%
X138390000Y-49192500D03*
X136890000Y-49192500D03*
D26*
X140995000Y-44002500D03*
X134285000Y-44002500D03*
%TD*%
D27*
%TO.C,C36*%
X162036836Y-55564897D03*
X162715658Y-56243719D03*
%TD*%
D35*
%TO.C,C16*%
X135085000Y-92592499D03*
X135085000Y-94492499D03*
%TD*%
D71*
%TO.C,U9*%
X127570000Y-100835000D03*
X128220000Y-100835000D03*
X128870000Y-100835000D03*
X129520000Y-100835000D03*
X129520000Y-96610000D03*
X128870000Y-96610000D03*
X128220000Y-96610000D03*
X127570000Y-96610000D03*
%TD*%
D28*
%TO.C,R47*%
X179615000Y-114000000D03*
X177965000Y-114000000D03*
%TD*%
D24*
%TO.C,C33*%
X174339411Y-81460589D03*
X173660589Y-82139411D03*
%TD*%
D49*
%TO.C,C4*%
X155225000Y-90000000D03*
X152275000Y-90000000D03*
%TD*%
D43*
%TO.C,C7*%
X131995000Y-123720000D03*
X130445000Y-123720000D03*
%TD*%
D10*
%TO.C,R20*%
X146540000Y-111260000D03*
X146540000Y-109610000D03*
%TD*%
D24*
%TO.C,C26*%
X185009411Y-77030589D03*
X184330589Y-77709411D03*
%TD*%
D20*
%TO.C,R12*%
X151012500Y-99750000D03*
X152662500Y-99750000D03*
%TD*%
D28*
%TO.C,R22*%
X138817501Y-82669999D03*
X137167501Y-82669999D03*
%TD*%
D72*
%TO.C,U8*%
X177720000Y-64275000D03*
X177720000Y-65545000D03*
X177720000Y-66815000D03*
X177720000Y-68085000D03*
X184920000Y-68085000D03*
X184920000Y-66815000D03*
X184920000Y-65545000D03*
X184920000Y-64275000D03*
%TD*%
D59*
%TO.C,D6*%
X170850000Y-99400000D03*
D60*
X173225000Y-99400000D03*
%TD*%
D10*
%TO.C,R15*%
X147777500Y-102595000D03*
X147777500Y-100945000D03*
%TD*%
D20*
%TO.C,R30*%
X121915000Y-59840000D03*
X123565000Y-59840000D03*
%TD*%
%TO.C,R56*%
X179155000Y-62450000D03*
X180805000Y-62450000D03*
%TD*%
D10*
%TO.C,R1043*%
X167900000Y-117325000D03*
X167900000Y-115675000D03*
%TD*%
D43*
%TO.C,C10*%
X145622500Y-95260000D03*
X144072500Y-95260000D03*
%TD*%
D19*
%TO.C,Q5*%
X149587500Y-99440000D03*
X149587500Y-98790000D03*
X149587500Y-98140000D03*
X147687500Y-98140000D03*
X147687500Y-98790000D03*
X147687500Y-99440000D03*
%TD*%
D47*
%TO.C,Q6*%
X135440002Y-79039999D03*
X135440002Y-77139999D03*
X133565002Y-78089999D03*
%TD*%
D28*
%TO.C,FB2*%
X131210000Y-92552500D03*
X129560000Y-92552500D03*
%TD*%
D43*
%TO.C,C11*%
X145627500Y-93730000D03*
X144077500Y-93730000D03*
%TD*%
D73*
%TO.C,U10*%
X127767500Y-102802500D03*
X127767500Y-104702500D03*
X129642500Y-103752500D03*
%TD*%
D43*
%TO.C,C8*%
X132015001Y-120540000D03*
X130465001Y-120540000D03*
%TD*%
D28*
%TO.C,R64*%
X114375000Y-127540000D03*
X112725000Y-127540000D03*
%TD*%
%TO.C,R3*%
X128885000Y-123740000D03*
X127235000Y-123740000D03*
%TD*%
%TO.C,R29*%
X123555000Y-61400000D03*
X121905000Y-61400000D03*
%TD*%
D50*
%TO.C,J16*%
X137250000Y-108725000D03*
X136250000Y-108725000D03*
X135250000Y-108725000D03*
X134250000Y-108725000D03*
D51*
X138550000Y-111250000D03*
X132950000Y-111250000D03*
%TD*%
D20*
%TO.C,R13*%
X157182500Y-102260000D03*
X158832500Y-102260000D03*
%TD*%
D13*
%TO.C,C44*%
X143455000Y-106620000D03*
X145005000Y-106620000D03*
%TD*%
%TO.C,C42*%
X184575000Y-101520000D03*
X186125000Y-101520000D03*
%TD*%
D43*
%TO.C,C9*%
X132005000Y-122090000D03*
X130455000Y-122090000D03*
%TD*%
D74*
%TO.C,C14*%
X121732500Y-80184998D03*
X121732500Y-77234998D03*
%TD*%
D75*
%TO.C,C29*%
X177630000Y-71530000D03*
X177630000Y-70570000D03*
%TD*%
D76*
%TO.C,R50*%
X180200000Y-101062500D03*
X180200000Y-95137500D03*
%TD*%
D77*
%TO.C,C37*%
X178297500Y-53492500D03*
X179257500Y-53492500D03*
%TD*%
D33*
%TO.C,R61*%
X147283363Y-114183363D03*
X146116637Y-113016637D03*
%TD*%
D78*
%TO.C,J24*%
X191890000Y-74947500D03*
X191890000Y-75597500D03*
X191890000Y-76247500D03*
X191890000Y-76897500D03*
X191890000Y-77547500D03*
D79*
X192250000Y-78710000D03*
D80*
X194550000Y-77185000D03*
X194550000Y-75310000D03*
D79*
X192250000Y-73785000D03*
%TD*%
D34*
%TO.C,C47*%
X156380000Y-110455000D03*
X156380000Y-108905000D03*
%TD*%
D10*
%TO.C,R63*%
X196970000Y-50395000D03*
X196970000Y-48745000D03*
%TD*%
D81*
%TO.C,D7*%
X167900000Y-108100000D03*
D82*
X167900000Y-110475000D03*
%TD*%
D70*
%TO.C,R27*%
X131742501Y-77054999D03*
X131742501Y-78704999D03*
%TD*%
D13*
%TO.C,C2*%
X145447500Y-89075000D03*
X146997500Y-89075000D03*
%TD*%
D28*
%TO.C,R39*%
X152310000Y-68160000D03*
X150660000Y-68160000D03*
%TD*%
D20*
%TO.C,R23*%
X137147502Y-79059999D03*
X138797502Y-79059999D03*
%TD*%
D52*
%TO.C,U5*%
X150500000Y-108975000D03*
X150500000Y-110525000D03*
X152000000Y-108975000D03*
X152000000Y-110525000D03*
D53*
X148387500Y-107800000D03*
X148387500Y-108450000D03*
X148387500Y-109100000D03*
X148387500Y-109750000D03*
X148387500Y-110400000D03*
X148387500Y-111050000D03*
X148387500Y-111700000D03*
X154112500Y-111700000D03*
X154112500Y-111050000D03*
X154112500Y-110400000D03*
X154112500Y-109750000D03*
X154112500Y-109100000D03*
X154112500Y-108450000D03*
X154112500Y-107800000D03*
%TD*%
D50*
%TO.C,J22*%
X181700000Y-43475000D03*
X180700000Y-43475000D03*
X179700000Y-43475000D03*
X178700000Y-43475000D03*
D51*
X183000000Y-46000000D03*
X177400000Y-46000000D03*
%TD*%
D83*
%TO.C,C32*%
X173270000Y-75050000D03*
X172310000Y-75050000D03*
%TD*%
D84*
%TO.C,IC3*%
X177666528Y-76866516D03*
X176535157Y-77997887D03*
X178797899Y-77997887D03*
X177666528Y-79129258D03*
D85*
X177074326Y-73728730D03*
X176791483Y-74011573D03*
X176508641Y-74294415D03*
X176225798Y-74577258D03*
X175942955Y-74860101D03*
X175660113Y-75142943D03*
X175377270Y-75425786D03*
X175094427Y-75708629D03*
X174811584Y-75991472D03*
X174528742Y-76274314D03*
X174245899Y-76557157D03*
X173963056Y-76840000D03*
X173680214Y-77122842D03*
X173397371Y-77405685D03*
D86*
X173397371Y-78590089D03*
X173680214Y-78872932D03*
X173963056Y-79155774D03*
X174245899Y-79438617D03*
X174528742Y-79721460D03*
X174811584Y-80004302D03*
X175094427Y-80287145D03*
X175377270Y-80569988D03*
X175660113Y-80852831D03*
X175942955Y-81135673D03*
X176225798Y-81418516D03*
X176508641Y-81701359D03*
X176791483Y-81984201D03*
X177074326Y-82267044D03*
D85*
X178258730Y-82267044D03*
X178541573Y-81984201D03*
X178824415Y-81701359D03*
X179107258Y-81418516D03*
X179390101Y-81135673D03*
X179672943Y-80852831D03*
X179955786Y-80569988D03*
X180238629Y-80287145D03*
X180521472Y-80004302D03*
X180804314Y-79721460D03*
X181087157Y-79438617D03*
X181370000Y-79155774D03*
X181652842Y-78872932D03*
X181935685Y-78590089D03*
D86*
X181935685Y-77405685D03*
X181652842Y-77122842D03*
X181370000Y-76840000D03*
X181087157Y-76557157D03*
X180804314Y-76274314D03*
X180521472Y-75991472D03*
X180238629Y-75708629D03*
X179955786Y-75425786D03*
X179672943Y-75142943D03*
X179390101Y-74860101D03*
X179107258Y-74577258D03*
X178824415Y-74294415D03*
X178541573Y-74011573D03*
X178258730Y-73728730D03*
%TD*%
D74*
%TO.C,C15*%
X121702500Y-86725000D03*
X121702500Y-83775000D03*
%TD*%
D41*
%TO.C,J15*%
X189040000Y-91530000D03*
X189040000Y-90030000D03*
X189040000Y-88530000D03*
X189040000Y-87030000D03*
X189040000Y-85530000D03*
D42*
X194230000Y-94135000D03*
X194230000Y-82925000D03*
%TD*%
D20*
%TO.C,R18*%
X143405000Y-108150000D03*
X145055000Y-108150000D03*
%TD*%
%TO.C,R8*%
X144032500Y-92145000D03*
X145682500Y-92145000D03*
%TD*%
D87*
%TO.C,C17*%
X125675000Y-103082499D03*
X125675000Y-101182499D03*
%TD*%
D88*
%TO.C,U7*%
X133265001Y-96572500D03*
X132765001Y-96572500D03*
X132265001Y-96572500D03*
X131765001Y-96572500D03*
X131265001Y-96572500D03*
X131265001Y-100872500D03*
X131765001Y-100872500D03*
X132265001Y-100872500D03*
X132765001Y-100872500D03*
X133265001Y-100872500D03*
%TD*%
D77*
%TO.C,C38*%
X173097500Y-53532500D03*
X174057500Y-53532500D03*
%TD*%
D50*
%TO.C,J11*%
X142264000Y-79995000D03*
X143264000Y-79995000D03*
X144264000Y-79995000D03*
X145264000Y-79995000D03*
D51*
X140964000Y-77470000D03*
X146564000Y-77470000D03*
%TD*%
D89*
%TO.C,L2*%
X168822500Y-104250000D03*
X173097500Y-104250000D03*
%TD*%
D20*
%TO.C,R33*%
X122270001Y-99592499D03*
X123920001Y-99592499D03*
%TD*%
D90*
%TO.C,U11*%
X167615909Y-61554092D03*
X166611817Y-62558183D03*
X168620000Y-60550000D03*
X165607725Y-61554092D03*
X166611817Y-60550000D03*
X167615909Y-59545908D03*
X164603634Y-60550000D03*
X166611817Y-58541817D03*
X165607725Y-59545908D03*
D91*
X167239374Y-63935274D03*
X167698994Y-63475654D03*
X168158613Y-63016035D03*
X168618232Y-62556415D03*
X169077852Y-62096796D03*
X169537471Y-61637177D03*
X169997091Y-61177557D03*
D92*
X169997091Y-59922443D03*
X169537471Y-59462823D03*
X169077852Y-59003204D03*
X168618232Y-58543585D03*
X168158613Y-58083965D03*
X167698994Y-57624346D03*
X167239374Y-57164726D03*
D91*
X165984260Y-57164726D03*
X165524640Y-57624346D03*
X165065021Y-58083965D03*
X164605402Y-58543585D03*
X164145782Y-59003204D03*
X163686163Y-59462823D03*
X163226543Y-59922443D03*
D92*
X163226543Y-61177557D03*
X163686163Y-61637177D03*
X164145782Y-62096796D03*
X164605402Y-62556415D03*
X165065021Y-63016035D03*
X165524640Y-63475654D03*
X165984260Y-63935274D03*
%TD*%
D20*
%TO.C,R7*%
X144582500Y-96900000D03*
X146232500Y-96900000D03*
%TD*%
D87*
%TO.C,C24*%
X127845000Y-94482500D03*
X127845000Y-92582500D03*
%TD*%
D16*
%TO.C,Q1*%
X125114999Y-117025000D03*
X125114999Y-115755000D03*
X125114999Y-114485000D03*
X125114999Y-113215000D03*
X120164999Y-113215000D03*
X120164999Y-114485000D03*
X120164999Y-115755000D03*
X120164999Y-117025000D03*
%TD*%
D20*
%TO.C,R65*%
X190560000Y-127400000D03*
X192210000Y-127400000D03*
%TD*%
D28*
%TO.C,R17*%
X146182500Y-98700000D03*
X144532500Y-98700000D03*
%TD*%
D70*
%TO.C,R44*%
X171000000Y-112555000D03*
X171000000Y-114205000D03*
%TD*%
D93*
%TO.C,J12*%
X119000000Y-83750001D03*
X119000000Y-85250000D03*
X119000000Y-86750000D03*
X119000000Y-88250000D03*
X119000000Y-89750000D03*
X119000000Y-91249999D03*
X119000000Y-92750001D03*
X119000000Y-94250000D03*
X119000000Y-95750000D03*
X119000000Y-97250000D03*
X119000000Y-98750000D03*
X119000000Y-100249999D03*
D94*
X113810000Y-81145000D03*
X113810000Y-102855000D03*
%TD*%
D73*
%TO.C,Q10*%
X119252500Y-50650000D03*
X119252500Y-52550000D03*
X121127500Y-51600000D03*
%TD*%
D20*
%TO.C,R5*%
X127235001Y-122070000D03*
X128885001Y-122070000D03*
%TD*%
D28*
%TO.C,R21*%
X138807501Y-77109998D03*
X137157501Y-77109998D03*
%TD*%
D25*
%TO.C,J9*%
X129690000Y-49222500D03*
X128190000Y-49222500D03*
D26*
X132295000Y-44032500D03*
X125585000Y-44032500D03*
%TD*%
D28*
%TO.C,R46*%
X177032500Y-53762500D03*
X175382500Y-53762500D03*
%TD*%
D95*
%TO.C,IC2*%
X140545000Y-96550000D03*
X139895000Y-96550000D03*
X139245000Y-96550000D03*
X138595000Y-96550000D03*
X138595000Y-100850000D03*
X139245000Y-100850000D03*
X139895000Y-100850000D03*
X140545000Y-100850000D03*
%TD*%
D59*
%TO.C,D1*%
X119300000Y-70200000D03*
D60*
X121675000Y-70200000D03*
%TD*%
D50*
%TO.C,J19*%
X146300000Y-116225000D03*
X145300000Y-116225000D03*
X144300000Y-116225000D03*
X143300000Y-116225000D03*
D51*
X147600000Y-118750000D03*
X142000000Y-118750000D03*
%TD*%
D96*
%TO.C,C23*%
X181041992Y-74288008D03*
X182138008Y-73191992D03*
%TD*%
D97*
%TO.C,C28*%
X186071992Y-77961992D03*
X187168008Y-79058008D03*
%TD*%
D10*
%TO.C,R32*%
X122335000Y-96207501D03*
X122335000Y-94557501D03*
%TD*%
D65*
%TO.C,C3*%
X157025000Y-90000000D03*
X159975000Y-90000000D03*
%TD*%
D10*
%TO.C,R2*%
X136900000Y-94607499D03*
X136900000Y-92957499D03*
%TD*%
D21*
%TO.C,Q8*%
X127850000Y-79885000D03*
X127850000Y-78285000D03*
X126590000Y-79885000D03*
X126590000Y-78285000D03*
D22*
X129857500Y-80990000D03*
X129857500Y-79720000D03*
X129857500Y-78450000D03*
X129857500Y-77180000D03*
X124582500Y-77180000D03*
X124582500Y-78450000D03*
X124582500Y-79720000D03*
X124582500Y-80990000D03*
%TD*%
D10*
%TO.C,R16*%
X146540000Y-108215000D03*
X146540000Y-106565000D03*
%TD*%
D87*
%TO.C,C19*%
X125685001Y-96102500D03*
X125685001Y-94202500D03*
%TD*%
D56*
%TO.C,R58*%
X150457500Y-122710000D03*
X156382500Y-122710000D03*
%TD*%
D14*
%TO.C,L1*%
X159727500Y-93312500D03*
X159727500Y-97587500D03*
%TD*%
D43*
%TO.C,C48*%
X144995000Y-111270000D03*
X143445000Y-111270000D03*
%TD*%
D98*
%TO.C,IC4*%
X174380000Y-110290000D03*
X175800000Y-110290000D03*
X174380000Y-109470000D03*
X175800000Y-109470000D03*
D99*
X173465000Y-112030000D03*
X174115000Y-112030000D03*
X174765000Y-112030000D03*
X175415000Y-112030000D03*
X176065000Y-112030000D03*
X176715000Y-112030000D03*
X176715000Y-107730000D03*
X176065000Y-107730000D03*
X175415000Y-107730000D03*
X174765000Y-107730000D03*
X174115000Y-107730000D03*
X173465000Y-107730000D03*
%TD*%
D81*
%TO.C,D12*%
X165300000Y-96250000D03*
D82*
X165300000Y-98625000D03*
%TD*%
D100*
%TO.C,Y1*%
X169616307Y-81406256D03*
X170853744Y-82643693D03*
X171843693Y-81653744D03*
X170606256Y-80416307D03*
%TD*%
D10*
%TO.C,R11*%
X147237500Y-95325000D03*
X147237500Y-93675000D03*
%TD*%
D25*
%TO.C,J17*%
X152840000Y-125740000D03*
X154340000Y-125740000D03*
D26*
X150235000Y-130930000D03*
X156945000Y-130930000D03*
%TD*%
D28*
%TO.C,R35*%
X136530000Y-96502499D03*
X134880000Y-96502499D03*
%TD*%
D59*
%TO.C,D9*%
X170825000Y-96700000D03*
D60*
X173200000Y-96700000D03*
%TD*%
D28*
%TO.C,R34*%
X123910001Y-97682499D03*
X122260001Y-97682499D03*
%TD*%
D10*
%TO.C,R51*%
X176360000Y-105505000D03*
X176360000Y-103855000D03*
%TD*%
D20*
%TO.C,R24*%
X137147501Y-84639998D03*
X138797501Y-84639998D03*
%TD*%
D13*
%TO.C,C39*%
X169935000Y-101470000D03*
X171485000Y-101470000D03*
%TD*%
D101*
%TO.C,C22*%
X131555000Y-104442499D03*
X133455000Y-104442499D03*
%TD*%
D13*
%TO.C,C5*%
X127395000Y-114610000D03*
X128945000Y-114610000D03*
%TD*%
D25*
%TO.C,J6*%
X147145000Y-49175000D03*
X145645000Y-49175000D03*
D26*
X149750000Y-43985000D03*
X143040000Y-43985000D03*
%TD*%
D13*
%TO.C,C41*%
X183215000Y-111430000D03*
X184765000Y-111430000D03*
%TD*%
D102*
%TO.C,C25*%
X174240589Y-83009411D03*
X174919411Y-82330589D03*
%TD*%
D41*
%TO.C,J3*%
X119107500Y-74750000D03*
X119107500Y-76250000D03*
D42*
X113917500Y-72145000D03*
X113917500Y-78855000D03*
%TD*%
D33*
%TO.C,R42*%
X168863952Y-66790217D03*
X167697226Y-65623491D03*
%TD*%
D10*
%TO.C,R14*%
X157427500Y-100785000D03*
X157427500Y-99135000D03*
%TD*%
D70*
%TO.C,R28*%
X131712500Y-82625000D03*
X131712500Y-84275000D03*
%TD*%
D103*
%TO.C,Y2*%
X161170631Y-56643235D03*
X159933194Y-57880672D03*
X160923143Y-58870621D03*
X162160580Y-57633184D03*
%TD*%
D50*
%TO.C,J26*%
X185410000Y-73365000D03*
X186410000Y-73365000D03*
X187410000Y-73365000D03*
X188410000Y-73365000D03*
D51*
X184110000Y-70840000D03*
X189710000Y-70840000D03*
%TD*%
D67*
%TO.C,D3*%
X155655000Y-65610000D03*
X153905000Y-65610000D03*
%TD*%
D28*
%TO.C,R41*%
X152320000Y-65610000D03*
X150670000Y-65610000D03*
%TD*%
D97*
%TO.C,C30*%
X184961992Y-79041992D03*
X186058008Y-80138008D03*
%TD*%
M02*
