%TF.GenerationSoftware,KiCad,Pcbnew,9.0.0*%
%TF.CreationDate,2025-03-28T16:48:42-07:00*%
%TF.ProjectId,battery_pack_v1,62617474-6572-4795-9f70-61636b5f7631,rev?*%
%TF.SameCoordinates,Original*%
%TF.FileFunction,Legend,Top*%
%TF.FilePolarity,Positive*%
%FSLAX46Y46*%
G04 Gerber Fmt 4.6, Leading zero omitted, Abs format (unit mm)*
G04 Created by KiCad (PCBNEW 9.0.0) date 2025-03-28 16:48:42*
%MOMM*%
%LPD*%
G01*
G04 APERTURE LIST*
%ADD10C,1.000000*%
%ADD11C,0.150000*%
%ADD12C,0.125000*%
%ADD13C,0.250000*%
%ADD14C,0.120000*%
%ADD15C,5.000000*%
%ADD16C,1.850000*%
%ADD17R,3.500000X5.000000*%
%ADD18R,5.500000X5.000000*%
%ADD19C,2.000000*%
%ADD20C,3.300000*%
%ADD21C,2.400000*%
%ADD22O,3.500000X2.500000*%
G04 APERTURE END LIST*
D10*
X122448370Y-76031333D02*
X126257894Y-76031333D01*
X124353132Y-77936095D02*
X124353132Y-74126571D01*
X165848370Y-101931333D02*
X169657894Y-101931333D01*
X165348370Y-76031333D02*
X169157894Y-76031333D01*
X167253132Y-77936095D02*
X167253132Y-74126571D01*
X122448370Y-101931333D02*
X126257894Y-101931333D01*
D11*
X190249160Y-42632200D02*
X190344398Y-42679819D01*
X190344398Y-42679819D02*
X190534874Y-42679819D01*
X190534874Y-42679819D02*
X190630112Y-42632200D01*
X190630112Y-42632200D02*
X190677731Y-42536961D01*
X190677731Y-42536961D02*
X190677731Y-42489342D01*
X190677731Y-42489342D02*
X190630112Y-42394104D01*
X190630112Y-42394104D02*
X190534874Y-42346485D01*
X190534874Y-42346485D02*
X190392017Y-42346485D01*
X190392017Y-42346485D02*
X190296779Y-42298866D01*
X190296779Y-42298866D02*
X190249160Y-42203628D01*
X190249160Y-42203628D02*
X190249160Y-42156009D01*
X190249160Y-42156009D02*
X190296779Y-42060771D01*
X190296779Y-42060771D02*
X190392017Y-42013152D01*
X190392017Y-42013152D02*
X190534874Y-42013152D01*
X190534874Y-42013152D02*
X190630112Y-42060771D01*
X191249160Y-42679819D02*
X191153922Y-42632200D01*
X191153922Y-42632200D02*
X191106303Y-42536961D01*
X191106303Y-42536961D02*
X191106303Y-41679819D01*
X191772970Y-42679819D02*
X191677732Y-42632200D01*
X191677732Y-42632200D02*
X191630113Y-42584580D01*
X191630113Y-42584580D02*
X191582494Y-42489342D01*
X191582494Y-42489342D02*
X191582494Y-42203628D01*
X191582494Y-42203628D02*
X191630113Y-42108390D01*
X191630113Y-42108390D02*
X191677732Y-42060771D01*
X191677732Y-42060771D02*
X191772970Y-42013152D01*
X191772970Y-42013152D02*
X191915827Y-42013152D01*
X191915827Y-42013152D02*
X192011065Y-42060771D01*
X192011065Y-42060771D02*
X192058684Y-42108390D01*
X192058684Y-42108390D02*
X192106303Y-42203628D01*
X192106303Y-42203628D02*
X192106303Y-42489342D01*
X192106303Y-42489342D02*
X192058684Y-42584580D01*
X192058684Y-42584580D02*
X192011065Y-42632200D01*
X192011065Y-42632200D02*
X191915827Y-42679819D01*
X191915827Y-42679819D02*
X191772970Y-42679819D01*
X192392018Y-42013152D02*
X192772970Y-42013152D01*
X192534875Y-41679819D02*
X192534875Y-42536961D01*
X192534875Y-42536961D02*
X192582494Y-42632200D01*
X192582494Y-42632200D02*
X192677732Y-42679819D01*
X192677732Y-42679819D02*
X192772970Y-42679819D01*
X193058685Y-42632200D02*
X193153923Y-42679819D01*
X193153923Y-42679819D02*
X193344399Y-42679819D01*
X193344399Y-42679819D02*
X193439637Y-42632200D01*
X193439637Y-42632200D02*
X193487256Y-42536961D01*
X193487256Y-42536961D02*
X193487256Y-42489342D01*
X193487256Y-42489342D02*
X193439637Y-42394104D01*
X193439637Y-42394104D02*
X193344399Y-42346485D01*
X193344399Y-42346485D02*
X193201542Y-42346485D01*
X193201542Y-42346485D02*
X193106304Y-42298866D01*
X193106304Y-42298866D02*
X193058685Y-42203628D01*
X193058685Y-42203628D02*
X193058685Y-42156009D01*
X193058685Y-42156009D02*
X193106304Y-42060771D01*
X193106304Y-42060771D02*
X193201542Y-42013152D01*
X193201542Y-42013152D02*
X193344399Y-42013152D01*
X193344399Y-42013152D02*
X193439637Y-42060771D01*
X193915828Y-42584580D02*
X193963447Y-42632200D01*
X193963447Y-42632200D02*
X193915828Y-42679819D01*
X193915828Y-42679819D02*
X193868209Y-42632200D01*
X193868209Y-42632200D02*
X193915828Y-42584580D01*
X193915828Y-42584580D02*
X193915828Y-42679819D01*
X193915828Y-42298866D02*
X193868209Y-41727438D01*
X193868209Y-41727438D02*
X193915828Y-41679819D01*
X193915828Y-41679819D02*
X193963447Y-41727438D01*
X193963447Y-41727438D02*
X193915828Y-42298866D01*
X193915828Y-42298866D02*
X193915828Y-41679819D01*
X194534875Y-42584580D02*
X194582494Y-42632200D01*
X194582494Y-42632200D02*
X194534875Y-42679819D01*
X194534875Y-42679819D02*
X194487256Y-42632200D01*
X194487256Y-42632200D02*
X194534875Y-42584580D01*
X194534875Y-42584580D02*
X194534875Y-42679819D01*
X194344399Y-41727438D02*
X194439637Y-41679819D01*
X194439637Y-41679819D02*
X194677732Y-41679819D01*
X194677732Y-41679819D02*
X194772970Y-41727438D01*
X194772970Y-41727438D02*
X194820589Y-41822676D01*
X194820589Y-41822676D02*
X194820589Y-41917914D01*
X194820589Y-41917914D02*
X194772970Y-42013152D01*
X194772970Y-42013152D02*
X194725351Y-42060771D01*
X194725351Y-42060771D02*
X194630113Y-42108390D01*
X194630113Y-42108390D02*
X194582494Y-42156009D01*
X194582494Y-42156009D02*
X194534875Y-42251247D01*
X194534875Y-42251247D02*
X194534875Y-42298866D01*
D12*
X118789378Y-130642365D02*
X118551283Y-130642365D01*
X118551283Y-130642365D02*
X118551283Y-130142365D01*
X118956045Y-130642365D02*
X118956045Y-130309032D01*
X118956045Y-130142365D02*
X118932236Y-130166175D01*
X118932236Y-130166175D02*
X118956045Y-130189984D01*
X118956045Y-130189984D02*
X118979855Y-130166175D01*
X118979855Y-130166175D02*
X118956045Y-130142365D01*
X118956045Y-130142365D02*
X118956045Y-130189984D01*
X119170331Y-130618556D02*
X119217950Y-130642365D01*
X119217950Y-130642365D02*
X119313188Y-130642365D01*
X119313188Y-130642365D02*
X119360807Y-130618556D01*
X119360807Y-130618556D02*
X119384616Y-130570936D01*
X119384616Y-130570936D02*
X119384616Y-130547127D01*
X119384616Y-130547127D02*
X119360807Y-130499508D01*
X119360807Y-130499508D02*
X119313188Y-130475698D01*
X119313188Y-130475698D02*
X119241759Y-130475698D01*
X119241759Y-130475698D02*
X119194140Y-130451889D01*
X119194140Y-130451889D02*
X119170331Y-130404270D01*
X119170331Y-130404270D02*
X119170331Y-130380460D01*
X119170331Y-130380460D02*
X119194140Y-130332841D01*
X119194140Y-130332841D02*
X119241759Y-130309032D01*
X119241759Y-130309032D02*
X119313188Y-130309032D01*
X119313188Y-130309032D02*
X119360807Y-130332841D01*
X119527474Y-130309032D02*
X119717950Y-130309032D01*
X119598902Y-130142365D02*
X119598902Y-130570936D01*
X119598902Y-130570936D02*
X119622712Y-130618556D01*
X119622712Y-130618556D02*
X119670331Y-130642365D01*
X119670331Y-130642365D02*
X119717950Y-130642365D01*
X120075092Y-130618556D02*
X120027473Y-130642365D01*
X120027473Y-130642365D02*
X119932235Y-130642365D01*
X119932235Y-130642365D02*
X119884616Y-130618556D01*
X119884616Y-130618556D02*
X119860807Y-130570936D01*
X119860807Y-130570936D02*
X119860807Y-130380460D01*
X119860807Y-130380460D02*
X119884616Y-130332841D01*
X119884616Y-130332841D02*
X119932235Y-130309032D01*
X119932235Y-130309032D02*
X120027473Y-130309032D01*
X120027473Y-130309032D02*
X120075092Y-130332841D01*
X120075092Y-130332841D02*
X120098902Y-130380460D01*
X120098902Y-130380460D02*
X120098902Y-130428079D01*
X120098902Y-130428079D02*
X119860807Y-130475698D01*
X120313187Y-130309032D02*
X120313187Y-130642365D01*
X120313187Y-130356651D02*
X120336997Y-130332841D01*
X120336997Y-130332841D02*
X120384616Y-130309032D01*
X120384616Y-130309032D02*
X120456044Y-130309032D01*
X120456044Y-130309032D02*
X120503663Y-130332841D01*
X120503663Y-130332841D02*
X120527473Y-130380460D01*
X120527473Y-130380460D02*
X120527473Y-130642365D01*
X121146520Y-130642365D02*
X121146520Y-130142365D01*
X121360806Y-130642365D02*
X121360806Y-130380460D01*
X121360806Y-130380460D02*
X121336996Y-130332841D01*
X121336996Y-130332841D02*
X121289377Y-130309032D01*
X121289377Y-130309032D02*
X121217949Y-130309032D01*
X121217949Y-130309032D02*
X121170330Y-130332841D01*
X121170330Y-130332841D02*
X121146520Y-130356651D01*
X121789377Y-130618556D02*
X121741758Y-130642365D01*
X121741758Y-130642365D02*
X121646520Y-130642365D01*
X121646520Y-130642365D02*
X121598901Y-130618556D01*
X121598901Y-130618556D02*
X121575092Y-130570936D01*
X121575092Y-130570936D02*
X121575092Y-130380460D01*
X121575092Y-130380460D02*
X121598901Y-130332841D01*
X121598901Y-130332841D02*
X121646520Y-130309032D01*
X121646520Y-130309032D02*
X121741758Y-130309032D01*
X121741758Y-130309032D02*
X121789377Y-130332841D01*
X121789377Y-130332841D02*
X121813187Y-130380460D01*
X121813187Y-130380460D02*
X121813187Y-130428079D01*
X121813187Y-130428079D02*
X121575092Y-130475698D01*
X122027472Y-130642365D02*
X122027472Y-130309032D01*
X122027472Y-130404270D02*
X122051282Y-130356651D01*
X122051282Y-130356651D02*
X122075091Y-130332841D01*
X122075091Y-130332841D02*
X122122710Y-130309032D01*
X122122710Y-130309032D02*
X122170329Y-130309032D01*
X122527472Y-130618556D02*
X122479853Y-130642365D01*
X122479853Y-130642365D02*
X122384615Y-130642365D01*
X122384615Y-130642365D02*
X122336996Y-130618556D01*
X122336996Y-130618556D02*
X122313187Y-130570936D01*
X122313187Y-130570936D02*
X122313187Y-130380460D01*
X122313187Y-130380460D02*
X122336996Y-130332841D01*
X122336996Y-130332841D02*
X122384615Y-130309032D01*
X122384615Y-130309032D02*
X122479853Y-130309032D01*
X122479853Y-130309032D02*
X122527472Y-130332841D01*
X122527472Y-130332841D02*
X122551282Y-130380460D01*
X122551282Y-130380460D02*
X122551282Y-130428079D01*
X122551282Y-130428079D02*
X122313187Y-130475698D01*
X122789377Y-130618556D02*
X122789377Y-130642365D01*
X122789377Y-130642365D02*
X122765567Y-130689984D01*
X122765567Y-130689984D02*
X122741758Y-130713794D01*
X118527474Y-131423528D02*
X118575093Y-131447337D01*
X118575093Y-131447337D02*
X118670331Y-131447337D01*
X118670331Y-131447337D02*
X118717950Y-131423528D01*
X118717950Y-131423528D02*
X118741759Y-131375908D01*
X118741759Y-131375908D02*
X118741759Y-131352099D01*
X118741759Y-131352099D02*
X118717950Y-131304480D01*
X118717950Y-131304480D02*
X118670331Y-131280670D01*
X118670331Y-131280670D02*
X118598902Y-131280670D01*
X118598902Y-131280670D02*
X118551283Y-131256861D01*
X118551283Y-131256861D02*
X118527474Y-131209242D01*
X118527474Y-131209242D02*
X118527474Y-131185432D01*
X118527474Y-131185432D02*
X118551283Y-131137813D01*
X118551283Y-131137813D02*
X118598902Y-131114004D01*
X118598902Y-131114004D02*
X118670331Y-131114004D01*
X118670331Y-131114004D02*
X118717950Y-131137813D01*
X118884617Y-131114004D02*
X119075093Y-131114004D01*
X118956045Y-130947337D02*
X118956045Y-131375908D01*
X118956045Y-131375908D02*
X118979855Y-131423528D01*
X118979855Y-131423528D02*
X119027474Y-131447337D01*
X119027474Y-131447337D02*
X119075093Y-131447337D01*
X119456045Y-131114004D02*
X119456045Y-131447337D01*
X119241759Y-131114004D02*
X119241759Y-131375908D01*
X119241759Y-131375908D02*
X119265569Y-131423528D01*
X119265569Y-131423528D02*
X119313188Y-131447337D01*
X119313188Y-131447337D02*
X119384616Y-131447337D01*
X119384616Y-131447337D02*
X119432235Y-131423528D01*
X119432235Y-131423528D02*
X119456045Y-131399718D01*
X119908426Y-131447337D02*
X119908426Y-130947337D01*
X119908426Y-131423528D02*
X119860807Y-131447337D01*
X119860807Y-131447337D02*
X119765569Y-131447337D01*
X119765569Y-131447337D02*
X119717950Y-131423528D01*
X119717950Y-131423528D02*
X119694140Y-131399718D01*
X119694140Y-131399718D02*
X119670331Y-131352099D01*
X119670331Y-131352099D02*
X119670331Y-131209242D01*
X119670331Y-131209242D02*
X119694140Y-131161623D01*
X119694140Y-131161623D02*
X119717950Y-131137813D01*
X119717950Y-131137813D02*
X119765569Y-131114004D01*
X119765569Y-131114004D02*
X119860807Y-131114004D01*
X119860807Y-131114004D02*
X119908426Y-131137813D01*
X120336997Y-131423528D02*
X120289378Y-131447337D01*
X120289378Y-131447337D02*
X120194140Y-131447337D01*
X120194140Y-131447337D02*
X120146521Y-131423528D01*
X120146521Y-131423528D02*
X120122712Y-131375908D01*
X120122712Y-131375908D02*
X120122712Y-131185432D01*
X120122712Y-131185432D02*
X120146521Y-131137813D01*
X120146521Y-131137813D02*
X120194140Y-131114004D01*
X120194140Y-131114004D02*
X120289378Y-131114004D01*
X120289378Y-131114004D02*
X120336997Y-131137813D01*
X120336997Y-131137813D02*
X120360807Y-131185432D01*
X120360807Y-131185432D02*
X120360807Y-131233051D01*
X120360807Y-131233051D02*
X120122712Y-131280670D01*
X120575092Y-131114004D02*
X120575092Y-131447337D01*
X120575092Y-131161623D02*
X120598902Y-131137813D01*
X120598902Y-131137813D02*
X120646521Y-131114004D01*
X120646521Y-131114004D02*
X120717949Y-131114004D01*
X120717949Y-131114004D02*
X120765568Y-131137813D01*
X120765568Y-131137813D02*
X120789378Y-131185432D01*
X120789378Y-131185432D02*
X120789378Y-131447337D01*
X120956045Y-131114004D02*
X121146521Y-131114004D01*
X121027473Y-130947337D02*
X121027473Y-131375908D01*
X121027473Y-131375908D02*
X121051283Y-131423528D01*
X121051283Y-131423528D02*
X121098902Y-131447337D01*
X121098902Y-131447337D02*
X121146521Y-131447337D01*
X121694139Y-131447337D02*
X121694139Y-131114004D01*
X121694139Y-130947337D02*
X121670330Y-130971147D01*
X121670330Y-130971147D02*
X121694139Y-130994956D01*
X121694139Y-130994956D02*
X121717949Y-130971147D01*
X121717949Y-130971147D02*
X121694139Y-130947337D01*
X121694139Y-130947337D02*
X121694139Y-130994956D01*
X121932234Y-131114004D02*
X121932234Y-131447337D01*
X121932234Y-131161623D02*
X121956044Y-131137813D01*
X121956044Y-131137813D02*
X122003663Y-131114004D01*
X122003663Y-131114004D02*
X122075091Y-131114004D01*
X122075091Y-131114004D02*
X122122710Y-131137813D01*
X122122710Y-131137813D02*
X122146520Y-131185432D01*
X122146520Y-131185432D02*
X122146520Y-131447337D01*
X118551283Y-131990404D02*
X118717950Y-131990404D01*
X118789378Y-132252309D02*
X118551283Y-132252309D01*
X118551283Y-132252309D02*
X118551283Y-131752309D01*
X118551283Y-131752309D02*
X118789378Y-131752309D01*
X119003664Y-131918976D02*
X119003664Y-132252309D01*
X119003664Y-131966595D02*
X119027474Y-131942785D01*
X119027474Y-131942785D02*
X119075093Y-131918976D01*
X119075093Y-131918976D02*
X119146521Y-131918976D01*
X119146521Y-131918976D02*
X119194140Y-131942785D01*
X119194140Y-131942785D02*
X119217950Y-131990404D01*
X119217950Y-131990404D02*
X119217950Y-132252309D01*
X119670331Y-131918976D02*
X119670331Y-132323738D01*
X119670331Y-132323738D02*
X119646521Y-132371357D01*
X119646521Y-132371357D02*
X119622712Y-132395166D01*
X119622712Y-132395166D02*
X119575093Y-132418976D01*
X119575093Y-132418976D02*
X119503664Y-132418976D01*
X119503664Y-132418976D02*
X119456045Y-132395166D01*
X119670331Y-132228500D02*
X119622712Y-132252309D01*
X119622712Y-132252309D02*
X119527474Y-132252309D01*
X119527474Y-132252309D02*
X119479855Y-132228500D01*
X119479855Y-132228500D02*
X119456045Y-132204690D01*
X119456045Y-132204690D02*
X119432236Y-132157071D01*
X119432236Y-132157071D02*
X119432236Y-132014214D01*
X119432236Y-132014214D02*
X119456045Y-131966595D01*
X119456045Y-131966595D02*
X119479855Y-131942785D01*
X119479855Y-131942785D02*
X119527474Y-131918976D01*
X119527474Y-131918976D02*
X119622712Y-131918976D01*
X119622712Y-131918976D02*
X119670331Y-131942785D01*
X119908426Y-132252309D02*
X119908426Y-131918976D01*
X119908426Y-131752309D02*
X119884617Y-131776119D01*
X119884617Y-131776119D02*
X119908426Y-131799928D01*
X119908426Y-131799928D02*
X119932236Y-131776119D01*
X119932236Y-131776119D02*
X119908426Y-131752309D01*
X119908426Y-131752309D02*
X119908426Y-131799928D01*
X120146521Y-131918976D02*
X120146521Y-132252309D01*
X120146521Y-131966595D02*
X120170331Y-131942785D01*
X120170331Y-131942785D02*
X120217950Y-131918976D01*
X120217950Y-131918976D02*
X120289378Y-131918976D01*
X120289378Y-131918976D02*
X120336997Y-131942785D01*
X120336997Y-131942785D02*
X120360807Y-131990404D01*
X120360807Y-131990404D02*
X120360807Y-132252309D01*
X120789378Y-132228500D02*
X120741759Y-132252309D01*
X120741759Y-132252309D02*
X120646521Y-132252309D01*
X120646521Y-132252309D02*
X120598902Y-132228500D01*
X120598902Y-132228500D02*
X120575093Y-132180880D01*
X120575093Y-132180880D02*
X120575093Y-131990404D01*
X120575093Y-131990404D02*
X120598902Y-131942785D01*
X120598902Y-131942785D02*
X120646521Y-131918976D01*
X120646521Y-131918976D02*
X120741759Y-131918976D01*
X120741759Y-131918976D02*
X120789378Y-131942785D01*
X120789378Y-131942785D02*
X120813188Y-131990404D01*
X120813188Y-131990404D02*
X120813188Y-132038023D01*
X120813188Y-132038023D02*
X120575093Y-132085642D01*
X121217949Y-132228500D02*
X121170330Y-132252309D01*
X121170330Y-132252309D02*
X121075092Y-132252309D01*
X121075092Y-132252309D02*
X121027473Y-132228500D01*
X121027473Y-132228500D02*
X121003664Y-132180880D01*
X121003664Y-132180880D02*
X121003664Y-131990404D01*
X121003664Y-131990404D02*
X121027473Y-131942785D01*
X121027473Y-131942785D02*
X121075092Y-131918976D01*
X121075092Y-131918976D02*
X121170330Y-131918976D01*
X121170330Y-131918976D02*
X121217949Y-131942785D01*
X121217949Y-131942785D02*
X121241759Y-131990404D01*
X121241759Y-131990404D02*
X121241759Y-132038023D01*
X121241759Y-132038023D02*
X121003664Y-132085642D01*
X121456044Y-132252309D02*
X121456044Y-131918976D01*
X121456044Y-132014214D02*
X121479854Y-131966595D01*
X121479854Y-131966595D02*
X121503663Y-131942785D01*
X121503663Y-131942785D02*
X121551282Y-131918976D01*
X121551282Y-131918976D02*
X121598901Y-131918976D01*
X121765568Y-132252309D02*
X121765568Y-131918976D01*
X121765568Y-131752309D02*
X121741759Y-131776119D01*
X121741759Y-131776119D02*
X121765568Y-131799928D01*
X121765568Y-131799928D02*
X121789378Y-131776119D01*
X121789378Y-131776119D02*
X121765568Y-131752309D01*
X121765568Y-131752309D02*
X121765568Y-131799928D01*
X122003663Y-131918976D02*
X122003663Y-132252309D01*
X122003663Y-131966595D02*
X122027473Y-131942785D01*
X122027473Y-131942785D02*
X122075092Y-131918976D01*
X122075092Y-131918976D02*
X122146520Y-131918976D01*
X122146520Y-131918976D02*
X122194139Y-131942785D01*
X122194139Y-131942785D02*
X122217949Y-131990404D01*
X122217949Y-131990404D02*
X122217949Y-132252309D01*
X122670330Y-131918976D02*
X122670330Y-132323738D01*
X122670330Y-132323738D02*
X122646520Y-132371357D01*
X122646520Y-132371357D02*
X122622711Y-132395166D01*
X122622711Y-132395166D02*
X122575092Y-132418976D01*
X122575092Y-132418976D02*
X122503663Y-132418976D01*
X122503663Y-132418976D02*
X122456044Y-132395166D01*
X122670330Y-132228500D02*
X122622711Y-132252309D01*
X122622711Y-132252309D02*
X122527473Y-132252309D01*
X122527473Y-132252309D02*
X122479854Y-132228500D01*
X122479854Y-132228500D02*
X122456044Y-132204690D01*
X122456044Y-132204690D02*
X122432235Y-132157071D01*
X122432235Y-132157071D02*
X122432235Y-132014214D01*
X122432235Y-132014214D02*
X122456044Y-131966595D01*
X122456044Y-131966595D02*
X122479854Y-131942785D01*
X122479854Y-131942785D02*
X122527473Y-131918976D01*
X122527473Y-131918976D02*
X122622711Y-131918976D01*
X122622711Y-131918976D02*
X122670330Y-131942785D01*
X122908425Y-132204690D02*
X122932235Y-132228500D01*
X122932235Y-132228500D02*
X122908425Y-132252309D01*
X122908425Y-132252309D02*
X122884616Y-132228500D01*
X122884616Y-132228500D02*
X122908425Y-132204690D01*
X122908425Y-132204690D02*
X122908425Y-132252309D01*
X122908425Y-132061833D02*
X122884616Y-131776119D01*
X122884616Y-131776119D02*
X122908425Y-131752309D01*
X122908425Y-131752309D02*
X122932235Y-131776119D01*
X122932235Y-131776119D02*
X122908425Y-132061833D01*
X122908425Y-132061833D02*
X122908425Y-131752309D01*
X124046521Y-130377337D02*
X124141759Y-130377337D01*
X124141759Y-130377337D02*
X124189378Y-130401147D01*
X124189378Y-130401147D02*
X124236997Y-130448766D01*
X124236997Y-130448766D02*
X124260807Y-130544004D01*
X124260807Y-130544004D02*
X124260807Y-130710670D01*
X124260807Y-130710670D02*
X124236997Y-130805908D01*
X124236997Y-130805908D02*
X124189378Y-130853528D01*
X124189378Y-130853528D02*
X124141759Y-130877337D01*
X124141759Y-130877337D02*
X124046521Y-130877337D01*
X124046521Y-130877337D02*
X123998902Y-130853528D01*
X123998902Y-130853528D02*
X123951283Y-130805908D01*
X123951283Y-130805908D02*
X123927474Y-130710670D01*
X123927474Y-130710670D02*
X123927474Y-130544004D01*
X123927474Y-130544004D02*
X123951283Y-130448766D01*
X123951283Y-130448766D02*
X123998902Y-130401147D01*
X123998902Y-130401147D02*
X124046521Y-130377337D01*
X124689379Y-130544004D02*
X124689379Y-130877337D01*
X124475093Y-130544004D02*
X124475093Y-130805908D01*
X124475093Y-130805908D02*
X124498903Y-130853528D01*
X124498903Y-130853528D02*
X124546522Y-130877337D01*
X124546522Y-130877337D02*
X124617950Y-130877337D01*
X124617950Y-130877337D02*
X124665569Y-130853528D01*
X124665569Y-130853528D02*
X124689379Y-130829718D01*
X124927474Y-130877337D02*
X124927474Y-130544004D01*
X124927474Y-130639242D02*
X124951284Y-130591623D01*
X124951284Y-130591623D02*
X124975093Y-130567813D01*
X124975093Y-130567813D02*
X125022712Y-130544004D01*
X125022712Y-130544004D02*
X125070331Y-130544004D01*
X125617950Y-130615432D02*
X125784617Y-130615432D01*
X125856045Y-130877337D02*
X125617950Y-130877337D01*
X125617950Y-130877337D02*
X125617950Y-130377337D01*
X125617950Y-130377337D02*
X125856045Y-130377337D01*
X126070331Y-130544004D02*
X126070331Y-130877337D01*
X126070331Y-130591623D02*
X126094141Y-130567813D01*
X126094141Y-130567813D02*
X126141760Y-130544004D01*
X126141760Y-130544004D02*
X126213188Y-130544004D01*
X126213188Y-130544004D02*
X126260807Y-130567813D01*
X126260807Y-130567813D02*
X126284617Y-130615432D01*
X126284617Y-130615432D02*
X126284617Y-130877337D01*
X126736998Y-130544004D02*
X126736998Y-130948766D01*
X126736998Y-130948766D02*
X126713188Y-130996385D01*
X126713188Y-130996385D02*
X126689379Y-131020194D01*
X126689379Y-131020194D02*
X126641760Y-131044004D01*
X126641760Y-131044004D02*
X126570331Y-131044004D01*
X126570331Y-131044004D02*
X126522712Y-131020194D01*
X126736998Y-130853528D02*
X126689379Y-130877337D01*
X126689379Y-130877337D02*
X126594141Y-130877337D01*
X126594141Y-130877337D02*
X126546522Y-130853528D01*
X126546522Y-130853528D02*
X126522712Y-130829718D01*
X126522712Y-130829718D02*
X126498903Y-130782099D01*
X126498903Y-130782099D02*
X126498903Y-130639242D01*
X126498903Y-130639242D02*
X126522712Y-130591623D01*
X126522712Y-130591623D02*
X126546522Y-130567813D01*
X126546522Y-130567813D02*
X126594141Y-130544004D01*
X126594141Y-130544004D02*
X126689379Y-130544004D01*
X126689379Y-130544004D02*
X126736998Y-130567813D01*
X126975093Y-130877337D02*
X126975093Y-130544004D01*
X126975093Y-130377337D02*
X126951284Y-130401147D01*
X126951284Y-130401147D02*
X126975093Y-130424956D01*
X126975093Y-130424956D02*
X126998903Y-130401147D01*
X126998903Y-130401147D02*
X126975093Y-130377337D01*
X126975093Y-130377337D02*
X126975093Y-130424956D01*
X127213188Y-130544004D02*
X127213188Y-130877337D01*
X127213188Y-130591623D02*
X127236998Y-130567813D01*
X127236998Y-130567813D02*
X127284617Y-130544004D01*
X127284617Y-130544004D02*
X127356045Y-130544004D01*
X127356045Y-130544004D02*
X127403664Y-130567813D01*
X127403664Y-130567813D02*
X127427474Y-130615432D01*
X127427474Y-130615432D02*
X127427474Y-130877337D01*
X127856045Y-130853528D02*
X127808426Y-130877337D01*
X127808426Y-130877337D02*
X127713188Y-130877337D01*
X127713188Y-130877337D02*
X127665569Y-130853528D01*
X127665569Y-130853528D02*
X127641760Y-130805908D01*
X127641760Y-130805908D02*
X127641760Y-130615432D01*
X127641760Y-130615432D02*
X127665569Y-130567813D01*
X127665569Y-130567813D02*
X127713188Y-130544004D01*
X127713188Y-130544004D02*
X127808426Y-130544004D01*
X127808426Y-130544004D02*
X127856045Y-130567813D01*
X127856045Y-130567813D02*
X127879855Y-130615432D01*
X127879855Y-130615432D02*
X127879855Y-130663051D01*
X127879855Y-130663051D02*
X127641760Y-130710670D01*
X128284616Y-130853528D02*
X128236997Y-130877337D01*
X128236997Y-130877337D02*
X128141759Y-130877337D01*
X128141759Y-130877337D02*
X128094140Y-130853528D01*
X128094140Y-130853528D02*
X128070331Y-130805908D01*
X128070331Y-130805908D02*
X128070331Y-130615432D01*
X128070331Y-130615432D02*
X128094140Y-130567813D01*
X128094140Y-130567813D02*
X128141759Y-130544004D01*
X128141759Y-130544004D02*
X128236997Y-130544004D01*
X128236997Y-130544004D02*
X128284616Y-130567813D01*
X128284616Y-130567813D02*
X128308426Y-130615432D01*
X128308426Y-130615432D02*
X128308426Y-130663051D01*
X128308426Y-130663051D02*
X128070331Y-130710670D01*
X128522711Y-130877337D02*
X128522711Y-130544004D01*
X128522711Y-130639242D02*
X128546521Y-130591623D01*
X128546521Y-130591623D02*
X128570330Y-130567813D01*
X128570330Y-130567813D02*
X128617949Y-130544004D01*
X128617949Y-130544004D02*
X128665568Y-130544004D01*
X128832235Y-130877337D02*
X128832235Y-130544004D01*
X128832235Y-130377337D02*
X128808426Y-130401147D01*
X128808426Y-130401147D02*
X128832235Y-130424956D01*
X128832235Y-130424956D02*
X128856045Y-130401147D01*
X128856045Y-130401147D02*
X128832235Y-130377337D01*
X128832235Y-130377337D02*
X128832235Y-130424956D01*
X129070330Y-130544004D02*
X129070330Y-130877337D01*
X129070330Y-130591623D02*
X129094140Y-130567813D01*
X129094140Y-130567813D02*
X129141759Y-130544004D01*
X129141759Y-130544004D02*
X129213187Y-130544004D01*
X129213187Y-130544004D02*
X129260806Y-130567813D01*
X129260806Y-130567813D02*
X129284616Y-130615432D01*
X129284616Y-130615432D02*
X129284616Y-130877337D01*
X129736997Y-130544004D02*
X129736997Y-130948766D01*
X129736997Y-130948766D02*
X129713187Y-130996385D01*
X129713187Y-130996385D02*
X129689378Y-131020194D01*
X129689378Y-131020194D02*
X129641759Y-131044004D01*
X129641759Y-131044004D02*
X129570330Y-131044004D01*
X129570330Y-131044004D02*
X129522711Y-131020194D01*
X129736997Y-130853528D02*
X129689378Y-130877337D01*
X129689378Y-130877337D02*
X129594140Y-130877337D01*
X129594140Y-130877337D02*
X129546521Y-130853528D01*
X129546521Y-130853528D02*
X129522711Y-130829718D01*
X129522711Y-130829718D02*
X129498902Y-130782099D01*
X129498902Y-130782099D02*
X129498902Y-130639242D01*
X129498902Y-130639242D02*
X129522711Y-130591623D01*
X129522711Y-130591623D02*
X129546521Y-130567813D01*
X129546521Y-130567813D02*
X129594140Y-130544004D01*
X129594140Y-130544004D02*
X129689378Y-130544004D01*
X129689378Y-130544004D02*
X129736997Y-130567813D01*
X130570330Y-130544004D02*
X130570330Y-130948766D01*
X130570330Y-130948766D02*
X130546520Y-130996385D01*
X130546520Y-130996385D02*
X130522711Y-131020194D01*
X130522711Y-131020194D02*
X130475092Y-131044004D01*
X130475092Y-131044004D02*
X130403663Y-131044004D01*
X130403663Y-131044004D02*
X130356044Y-131020194D01*
X130570330Y-130853528D02*
X130522711Y-130877337D01*
X130522711Y-130877337D02*
X130427473Y-130877337D01*
X130427473Y-130877337D02*
X130379854Y-130853528D01*
X130379854Y-130853528D02*
X130356044Y-130829718D01*
X130356044Y-130829718D02*
X130332235Y-130782099D01*
X130332235Y-130782099D02*
X130332235Y-130639242D01*
X130332235Y-130639242D02*
X130356044Y-130591623D01*
X130356044Y-130591623D02*
X130379854Y-130567813D01*
X130379854Y-130567813D02*
X130427473Y-130544004D01*
X130427473Y-130544004D02*
X130522711Y-130544004D01*
X130522711Y-130544004D02*
X130570330Y-130567813D01*
X130998901Y-130853528D02*
X130951282Y-130877337D01*
X130951282Y-130877337D02*
X130856044Y-130877337D01*
X130856044Y-130877337D02*
X130808425Y-130853528D01*
X130808425Y-130853528D02*
X130784616Y-130805908D01*
X130784616Y-130805908D02*
X130784616Y-130615432D01*
X130784616Y-130615432D02*
X130808425Y-130567813D01*
X130808425Y-130567813D02*
X130856044Y-130544004D01*
X130856044Y-130544004D02*
X130951282Y-130544004D01*
X130951282Y-130544004D02*
X130998901Y-130567813D01*
X130998901Y-130567813D02*
X131022711Y-130615432D01*
X131022711Y-130615432D02*
X131022711Y-130663051D01*
X131022711Y-130663051D02*
X130784616Y-130710670D01*
X131236996Y-130544004D02*
X131236996Y-130877337D01*
X131236996Y-130591623D02*
X131260806Y-130567813D01*
X131260806Y-130567813D02*
X131308425Y-130544004D01*
X131308425Y-130544004D02*
X131379853Y-130544004D01*
X131379853Y-130544004D02*
X131427472Y-130567813D01*
X131427472Y-130567813D02*
X131451282Y-130615432D01*
X131451282Y-130615432D02*
X131451282Y-130877337D01*
X131689377Y-130877337D02*
X131689377Y-130544004D01*
X131689377Y-130377337D02*
X131665568Y-130401147D01*
X131665568Y-130401147D02*
X131689377Y-130424956D01*
X131689377Y-130424956D02*
X131713187Y-130401147D01*
X131713187Y-130401147D02*
X131689377Y-130377337D01*
X131689377Y-130377337D02*
X131689377Y-130424956D01*
X132141758Y-130544004D02*
X132141758Y-130877337D01*
X131927472Y-130544004D02*
X131927472Y-130805908D01*
X131927472Y-130805908D02*
X131951282Y-130853528D01*
X131951282Y-130853528D02*
X131998901Y-130877337D01*
X131998901Y-130877337D02*
X132070329Y-130877337D01*
X132070329Y-130877337D02*
X132117948Y-130853528D01*
X132117948Y-130853528D02*
X132141758Y-130829718D01*
X132356044Y-130853528D02*
X132403663Y-130877337D01*
X132403663Y-130877337D02*
X132498901Y-130877337D01*
X132498901Y-130877337D02*
X132546520Y-130853528D01*
X132546520Y-130853528D02*
X132570329Y-130805908D01*
X132570329Y-130805908D02*
X132570329Y-130782099D01*
X132570329Y-130782099D02*
X132546520Y-130734480D01*
X132546520Y-130734480D02*
X132498901Y-130710670D01*
X132498901Y-130710670D02*
X132427472Y-130710670D01*
X132427472Y-130710670D02*
X132379853Y-130686861D01*
X132379853Y-130686861D02*
X132356044Y-130639242D01*
X132356044Y-130639242D02*
X132356044Y-130615432D01*
X132356044Y-130615432D02*
X132379853Y-130567813D01*
X132379853Y-130567813D02*
X132427472Y-130544004D01*
X132427472Y-130544004D02*
X132498901Y-130544004D01*
X132498901Y-130544004D02*
X132546520Y-130567813D01*
X123951283Y-131682309D02*
X123951283Y-131182309D01*
X123998902Y-131491833D02*
X124141759Y-131682309D01*
X124141759Y-131348976D02*
X123951283Y-131539452D01*
X124356045Y-131348976D02*
X124356045Y-131682309D01*
X124356045Y-131396595D02*
X124379855Y-131372785D01*
X124379855Y-131372785D02*
X124427474Y-131348976D01*
X124427474Y-131348976D02*
X124498902Y-131348976D01*
X124498902Y-131348976D02*
X124546521Y-131372785D01*
X124546521Y-131372785D02*
X124570331Y-131420404D01*
X124570331Y-131420404D02*
X124570331Y-131682309D01*
X124879855Y-131682309D02*
X124832236Y-131658500D01*
X124832236Y-131658500D02*
X124808426Y-131634690D01*
X124808426Y-131634690D02*
X124784617Y-131587071D01*
X124784617Y-131587071D02*
X124784617Y-131444214D01*
X124784617Y-131444214D02*
X124808426Y-131396595D01*
X124808426Y-131396595D02*
X124832236Y-131372785D01*
X124832236Y-131372785D02*
X124879855Y-131348976D01*
X124879855Y-131348976D02*
X124951283Y-131348976D01*
X124951283Y-131348976D02*
X124998902Y-131372785D01*
X124998902Y-131372785D02*
X125022712Y-131396595D01*
X125022712Y-131396595D02*
X125046521Y-131444214D01*
X125046521Y-131444214D02*
X125046521Y-131587071D01*
X125046521Y-131587071D02*
X125022712Y-131634690D01*
X125022712Y-131634690D02*
X124998902Y-131658500D01*
X124998902Y-131658500D02*
X124951283Y-131682309D01*
X124951283Y-131682309D02*
X124879855Y-131682309D01*
X125213188Y-131348976D02*
X125308426Y-131682309D01*
X125308426Y-131682309D02*
X125403664Y-131444214D01*
X125403664Y-131444214D02*
X125498902Y-131682309D01*
X125498902Y-131682309D02*
X125594140Y-131348976D01*
X125760808Y-131658500D02*
X125808427Y-131682309D01*
X125808427Y-131682309D02*
X125903665Y-131682309D01*
X125903665Y-131682309D02*
X125951284Y-131658500D01*
X125951284Y-131658500D02*
X125975093Y-131610880D01*
X125975093Y-131610880D02*
X125975093Y-131587071D01*
X125975093Y-131587071D02*
X125951284Y-131539452D01*
X125951284Y-131539452D02*
X125903665Y-131515642D01*
X125903665Y-131515642D02*
X125832236Y-131515642D01*
X125832236Y-131515642D02*
X125784617Y-131491833D01*
X125784617Y-131491833D02*
X125760808Y-131444214D01*
X125760808Y-131444214D02*
X125760808Y-131420404D01*
X125760808Y-131420404D02*
X125784617Y-131372785D01*
X125784617Y-131372785D02*
X125832236Y-131348976D01*
X125832236Y-131348976D02*
X125903665Y-131348976D01*
X125903665Y-131348976D02*
X125951284Y-131372785D01*
X126784617Y-131682309D02*
X126784617Y-131420404D01*
X126784617Y-131420404D02*
X126760807Y-131372785D01*
X126760807Y-131372785D02*
X126713188Y-131348976D01*
X126713188Y-131348976D02*
X126617950Y-131348976D01*
X126617950Y-131348976D02*
X126570331Y-131372785D01*
X126784617Y-131658500D02*
X126736998Y-131682309D01*
X126736998Y-131682309D02*
X126617950Y-131682309D01*
X126617950Y-131682309D02*
X126570331Y-131658500D01*
X126570331Y-131658500D02*
X126546522Y-131610880D01*
X126546522Y-131610880D02*
X126546522Y-131563261D01*
X126546522Y-131563261D02*
X126570331Y-131515642D01*
X126570331Y-131515642D02*
X126617950Y-131491833D01*
X126617950Y-131491833D02*
X126736998Y-131491833D01*
X126736998Y-131491833D02*
X126784617Y-131468023D01*
X127094141Y-131682309D02*
X127046522Y-131658500D01*
X127046522Y-131658500D02*
X127022712Y-131610880D01*
X127022712Y-131610880D02*
X127022712Y-131182309D01*
X127356046Y-131682309D02*
X127308427Y-131658500D01*
X127308427Y-131658500D02*
X127284617Y-131610880D01*
X127284617Y-131610880D02*
X127284617Y-131182309D01*
X127927474Y-131682309D02*
X127927474Y-131182309D01*
X127927474Y-131372785D02*
X127975093Y-131348976D01*
X127975093Y-131348976D02*
X128070331Y-131348976D01*
X128070331Y-131348976D02*
X128117950Y-131372785D01*
X128117950Y-131372785D02*
X128141760Y-131396595D01*
X128141760Y-131396595D02*
X128165569Y-131444214D01*
X128165569Y-131444214D02*
X128165569Y-131587071D01*
X128165569Y-131587071D02*
X128141760Y-131634690D01*
X128141760Y-131634690D02*
X128117950Y-131658500D01*
X128117950Y-131658500D02*
X128070331Y-131682309D01*
X128070331Y-131682309D02*
X127975093Y-131682309D01*
X127975093Y-131682309D02*
X127927474Y-131658500D01*
X128451284Y-131682309D02*
X128403665Y-131658500D01*
X128403665Y-131658500D02*
X128379855Y-131634690D01*
X128379855Y-131634690D02*
X128356046Y-131587071D01*
X128356046Y-131587071D02*
X128356046Y-131444214D01*
X128356046Y-131444214D02*
X128379855Y-131396595D01*
X128379855Y-131396595D02*
X128403665Y-131372785D01*
X128403665Y-131372785D02*
X128451284Y-131348976D01*
X128451284Y-131348976D02*
X128522712Y-131348976D01*
X128522712Y-131348976D02*
X128570331Y-131372785D01*
X128570331Y-131372785D02*
X128594141Y-131396595D01*
X128594141Y-131396595D02*
X128617950Y-131444214D01*
X128617950Y-131444214D02*
X128617950Y-131587071D01*
X128617950Y-131587071D02*
X128594141Y-131634690D01*
X128594141Y-131634690D02*
X128570331Y-131658500D01*
X128570331Y-131658500D02*
X128522712Y-131682309D01*
X128522712Y-131682309D02*
X128451284Y-131682309D01*
X129046522Y-131348976D02*
X129046522Y-131682309D01*
X128832236Y-131348976D02*
X128832236Y-131610880D01*
X128832236Y-131610880D02*
X128856046Y-131658500D01*
X128856046Y-131658500D02*
X128903665Y-131682309D01*
X128903665Y-131682309D02*
X128975093Y-131682309D01*
X128975093Y-131682309D02*
X129022712Y-131658500D01*
X129022712Y-131658500D02*
X129046522Y-131634690D01*
X129284617Y-131348976D02*
X129284617Y-131682309D01*
X129284617Y-131396595D02*
X129308427Y-131372785D01*
X129308427Y-131372785D02*
X129356046Y-131348976D01*
X129356046Y-131348976D02*
X129427474Y-131348976D01*
X129427474Y-131348976D02*
X129475093Y-131372785D01*
X129475093Y-131372785D02*
X129498903Y-131420404D01*
X129498903Y-131420404D02*
X129498903Y-131682309D01*
X129951284Y-131682309D02*
X129951284Y-131182309D01*
X129951284Y-131658500D02*
X129903665Y-131682309D01*
X129903665Y-131682309D02*
X129808427Y-131682309D01*
X129808427Y-131682309D02*
X129760808Y-131658500D01*
X129760808Y-131658500D02*
X129736998Y-131634690D01*
X129736998Y-131634690D02*
X129713189Y-131587071D01*
X129713189Y-131587071D02*
X129713189Y-131444214D01*
X129713189Y-131444214D02*
X129736998Y-131396595D01*
X129736998Y-131396595D02*
X129760808Y-131372785D01*
X129760808Y-131372785D02*
X129808427Y-131348976D01*
X129808427Y-131348976D02*
X129903665Y-131348976D01*
X129903665Y-131348976D02*
X129951284Y-131372785D01*
X130165570Y-131658500D02*
X130213189Y-131682309D01*
X130213189Y-131682309D02*
X130308427Y-131682309D01*
X130308427Y-131682309D02*
X130356046Y-131658500D01*
X130356046Y-131658500D02*
X130379855Y-131610880D01*
X130379855Y-131610880D02*
X130379855Y-131587071D01*
X130379855Y-131587071D02*
X130356046Y-131539452D01*
X130356046Y-131539452D02*
X130308427Y-131515642D01*
X130308427Y-131515642D02*
X130236998Y-131515642D01*
X130236998Y-131515642D02*
X130189379Y-131491833D01*
X130189379Y-131491833D02*
X130165570Y-131444214D01*
X130165570Y-131444214D02*
X130165570Y-131420404D01*
X130165570Y-131420404D02*
X130189379Y-131372785D01*
X130189379Y-131372785D02*
X130236998Y-131348976D01*
X130236998Y-131348976D02*
X130308427Y-131348976D01*
X130308427Y-131348976D02*
X130356046Y-131372785D01*
X130594141Y-131634690D02*
X130617951Y-131658500D01*
X130617951Y-131658500D02*
X130594141Y-131682309D01*
X130594141Y-131682309D02*
X130570332Y-131658500D01*
X130570332Y-131658500D02*
X130594141Y-131634690D01*
X130594141Y-131634690D02*
X130594141Y-131682309D01*
X130594141Y-131491833D02*
X130570332Y-131206119D01*
X130570332Y-131206119D02*
X130594141Y-131182309D01*
X130594141Y-131182309D02*
X130617951Y-131206119D01*
X130617951Y-131206119D02*
X130594141Y-131491833D01*
X130594141Y-131491833D02*
X130594141Y-131182309D01*
D10*
X144548370Y-101931333D02*
X148357894Y-101931333D01*
X185148370Y-75931333D02*
X188957894Y-75931333D01*
X187053132Y-77836095D02*
X187053132Y-74026571D01*
X185248370Y-101831333D02*
X189057894Y-101831333D01*
X144048370Y-75831333D02*
X147857894Y-75831333D01*
X145953132Y-77736095D02*
X145953132Y-73926571D01*
D12*
X184411283Y-131972365D02*
X184411283Y-131472365D01*
X184411283Y-131472365D02*
X184577950Y-131829508D01*
X184577950Y-131829508D02*
X184744616Y-131472365D01*
X184744616Y-131472365D02*
X184744616Y-131972365D01*
X185196998Y-131972365D02*
X185196998Y-131710460D01*
X185196998Y-131710460D02*
X185173188Y-131662841D01*
X185173188Y-131662841D02*
X185125569Y-131639032D01*
X185125569Y-131639032D02*
X185030331Y-131639032D01*
X185030331Y-131639032D02*
X184982712Y-131662841D01*
X185196998Y-131948556D02*
X185149379Y-131972365D01*
X185149379Y-131972365D02*
X185030331Y-131972365D01*
X185030331Y-131972365D02*
X184982712Y-131948556D01*
X184982712Y-131948556D02*
X184958903Y-131900936D01*
X184958903Y-131900936D02*
X184958903Y-131853317D01*
X184958903Y-131853317D02*
X184982712Y-131805698D01*
X184982712Y-131805698D02*
X185030331Y-131781889D01*
X185030331Y-131781889D02*
X185149379Y-131781889D01*
X185149379Y-131781889D02*
X185196998Y-131758079D01*
X185649379Y-131972365D02*
X185649379Y-131472365D01*
X185649379Y-131948556D02*
X185601760Y-131972365D01*
X185601760Y-131972365D02*
X185506522Y-131972365D01*
X185506522Y-131972365D02*
X185458903Y-131948556D01*
X185458903Y-131948556D02*
X185435093Y-131924746D01*
X185435093Y-131924746D02*
X185411284Y-131877127D01*
X185411284Y-131877127D02*
X185411284Y-131734270D01*
X185411284Y-131734270D02*
X185435093Y-131686651D01*
X185435093Y-131686651D02*
X185458903Y-131662841D01*
X185458903Y-131662841D02*
X185506522Y-131639032D01*
X185506522Y-131639032D02*
X185601760Y-131639032D01*
X185601760Y-131639032D02*
X185649379Y-131662841D01*
X186077950Y-131948556D02*
X186030331Y-131972365D01*
X186030331Y-131972365D02*
X185935093Y-131972365D01*
X185935093Y-131972365D02*
X185887474Y-131948556D01*
X185887474Y-131948556D02*
X185863665Y-131900936D01*
X185863665Y-131900936D02*
X185863665Y-131710460D01*
X185863665Y-131710460D02*
X185887474Y-131662841D01*
X185887474Y-131662841D02*
X185935093Y-131639032D01*
X185935093Y-131639032D02*
X186030331Y-131639032D01*
X186030331Y-131639032D02*
X186077950Y-131662841D01*
X186077950Y-131662841D02*
X186101760Y-131710460D01*
X186101760Y-131710460D02*
X186101760Y-131758079D01*
X186101760Y-131758079D02*
X185863665Y-131805698D01*
X186649378Y-131639032D02*
X186744616Y-131972365D01*
X186744616Y-131972365D02*
X186839854Y-131734270D01*
X186839854Y-131734270D02*
X186935092Y-131972365D01*
X186935092Y-131972365D02*
X187030330Y-131639032D01*
X187220807Y-131972365D02*
X187220807Y-131639032D01*
X187220807Y-131472365D02*
X187196998Y-131496175D01*
X187196998Y-131496175D02*
X187220807Y-131519984D01*
X187220807Y-131519984D02*
X187244617Y-131496175D01*
X187244617Y-131496175D02*
X187220807Y-131472365D01*
X187220807Y-131472365D02*
X187220807Y-131519984D01*
X187387474Y-131639032D02*
X187577950Y-131639032D01*
X187458902Y-131472365D02*
X187458902Y-131900936D01*
X187458902Y-131900936D02*
X187482712Y-131948556D01*
X187482712Y-131948556D02*
X187530331Y-131972365D01*
X187530331Y-131972365D02*
X187577950Y-131972365D01*
X187744616Y-131972365D02*
X187744616Y-131472365D01*
X187958902Y-131972365D02*
X187958902Y-131710460D01*
X187958902Y-131710460D02*
X187935092Y-131662841D01*
X187935092Y-131662841D02*
X187887473Y-131639032D01*
X187887473Y-131639032D02*
X187816045Y-131639032D01*
X187816045Y-131639032D02*
X187768426Y-131662841D01*
X187768426Y-131662841D02*
X187744616Y-131686651D01*
X188506521Y-131639032D02*
X188696997Y-131639032D01*
X188577949Y-131472365D02*
X188577949Y-131900936D01*
X188577949Y-131900936D02*
X188601759Y-131948556D01*
X188601759Y-131948556D02*
X188649378Y-131972365D01*
X188649378Y-131972365D02*
X188696997Y-131972365D01*
X188863663Y-131972365D02*
X188863663Y-131472365D01*
X189077949Y-131972365D02*
X189077949Y-131710460D01*
X189077949Y-131710460D02*
X189054139Y-131662841D01*
X189054139Y-131662841D02*
X189006520Y-131639032D01*
X189006520Y-131639032D02*
X188935092Y-131639032D01*
X188935092Y-131639032D02*
X188887473Y-131662841D01*
X188887473Y-131662841D02*
X188863663Y-131686651D01*
X189506520Y-131948556D02*
X189458901Y-131972365D01*
X189458901Y-131972365D02*
X189363663Y-131972365D01*
X189363663Y-131972365D02*
X189316044Y-131948556D01*
X189316044Y-131948556D02*
X189292235Y-131900936D01*
X189292235Y-131900936D02*
X189292235Y-131710460D01*
X189292235Y-131710460D02*
X189316044Y-131662841D01*
X189316044Y-131662841D02*
X189363663Y-131639032D01*
X189363663Y-131639032D02*
X189458901Y-131639032D01*
X189458901Y-131639032D02*
X189506520Y-131662841D01*
X189506520Y-131662841D02*
X189530330Y-131710460D01*
X189530330Y-131710460D02*
X189530330Y-131758079D01*
X189530330Y-131758079D02*
X189292235Y-131805698D01*
X184482712Y-132777337D02*
X184435093Y-132753528D01*
X184435093Y-132753528D02*
X184411283Y-132705908D01*
X184411283Y-132705908D02*
X184411283Y-132277337D01*
X184744617Y-132777337D02*
X184696998Y-132753528D01*
X184696998Y-132753528D02*
X184673188Y-132729718D01*
X184673188Y-132729718D02*
X184649379Y-132682099D01*
X184649379Y-132682099D02*
X184649379Y-132539242D01*
X184649379Y-132539242D02*
X184673188Y-132491623D01*
X184673188Y-132491623D02*
X184696998Y-132467813D01*
X184696998Y-132467813D02*
X184744617Y-132444004D01*
X184744617Y-132444004D02*
X184816045Y-132444004D01*
X184816045Y-132444004D02*
X184863664Y-132467813D01*
X184863664Y-132467813D02*
X184887474Y-132491623D01*
X184887474Y-132491623D02*
X184911283Y-132539242D01*
X184911283Y-132539242D02*
X184911283Y-132682099D01*
X184911283Y-132682099D02*
X184887474Y-132729718D01*
X184887474Y-132729718D02*
X184863664Y-132753528D01*
X184863664Y-132753528D02*
X184816045Y-132777337D01*
X184816045Y-132777337D02*
X184744617Y-132777337D01*
X185077950Y-132444004D02*
X185196998Y-132777337D01*
X185196998Y-132777337D02*
X185316045Y-132444004D01*
X185696997Y-132753528D02*
X185649378Y-132777337D01*
X185649378Y-132777337D02*
X185554140Y-132777337D01*
X185554140Y-132777337D02*
X185506521Y-132753528D01*
X185506521Y-132753528D02*
X185482712Y-132705908D01*
X185482712Y-132705908D02*
X185482712Y-132515432D01*
X185482712Y-132515432D02*
X185506521Y-132467813D01*
X185506521Y-132467813D02*
X185554140Y-132444004D01*
X185554140Y-132444004D02*
X185649378Y-132444004D01*
X185649378Y-132444004D02*
X185696997Y-132467813D01*
X185696997Y-132467813D02*
X185720807Y-132515432D01*
X185720807Y-132515432D02*
X185720807Y-132563051D01*
X185720807Y-132563051D02*
X185482712Y-132610670D01*
X186530330Y-132777337D02*
X186530330Y-132515432D01*
X186530330Y-132515432D02*
X186506520Y-132467813D01*
X186506520Y-132467813D02*
X186458901Y-132444004D01*
X186458901Y-132444004D02*
X186363663Y-132444004D01*
X186363663Y-132444004D02*
X186316044Y-132467813D01*
X186530330Y-132753528D02*
X186482711Y-132777337D01*
X186482711Y-132777337D02*
X186363663Y-132777337D01*
X186363663Y-132777337D02*
X186316044Y-132753528D01*
X186316044Y-132753528D02*
X186292235Y-132705908D01*
X186292235Y-132705908D02*
X186292235Y-132658289D01*
X186292235Y-132658289D02*
X186316044Y-132610670D01*
X186316044Y-132610670D02*
X186363663Y-132586861D01*
X186363663Y-132586861D02*
X186482711Y-132586861D01*
X186482711Y-132586861D02*
X186530330Y-132563051D01*
X186768425Y-132444004D02*
X186768425Y-132777337D01*
X186768425Y-132491623D02*
X186792235Y-132467813D01*
X186792235Y-132467813D02*
X186839854Y-132444004D01*
X186839854Y-132444004D02*
X186911282Y-132444004D01*
X186911282Y-132444004D02*
X186958901Y-132467813D01*
X186958901Y-132467813D02*
X186982711Y-132515432D01*
X186982711Y-132515432D02*
X186982711Y-132777337D01*
X187435092Y-132777337D02*
X187435092Y-132277337D01*
X187435092Y-132753528D02*
X187387473Y-132777337D01*
X187387473Y-132777337D02*
X187292235Y-132777337D01*
X187292235Y-132777337D02*
X187244616Y-132753528D01*
X187244616Y-132753528D02*
X187220806Y-132729718D01*
X187220806Y-132729718D02*
X187196997Y-132682099D01*
X187196997Y-132682099D02*
X187196997Y-132539242D01*
X187196997Y-132539242D02*
X187220806Y-132491623D01*
X187220806Y-132491623D02*
X187244616Y-132467813D01*
X187244616Y-132467813D02*
X187292235Y-132444004D01*
X187292235Y-132444004D02*
X187387473Y-132444004D01*
X187387473Y-132444004D02*
X187435092Y-132467813D01*
X188268425Y-132753528D02*
X188220806Y-132777337D01*
X188220806Y-132777337D02*
X188125568Y-132777337D01*
X188125568Y-132777337D02*
X188077949Y-132753528D01*
X188077949Y-132753528D02*
X188054139Y-132729718D01*
X188054139Y-132729718D02*
X188030330Y-132682099D01*
X188030330Y-132682099D02*
X188030330Y-132539242D01*
X188030330Y-132539242D02*
X188054139Y-132491623D01*
X188054139Y-132491623D02*
X188077949Y-132467813D01*
X188077949Y-132467813D02*
X188125568Y-132444004D01*
X188125568Y-132444004D02*
X188220806Y-132444004D01*
X188220806Y-132444004D02*
X188268425Y-132467813D01*
X188696996Y-132777337D02*
X188696996Y-132515432D01*
X188696996Y-132515432D02*
X188673186Y-132467813D01*
X188673186Y-132467813D02*
X188625567Y-132444004D01*
X188625567Y-132444004D02*
X188530329Y-132444004D01*
X188530329Y-132444004D02*
X188482710Y-132467813D01*
X188696996Y-132753528D02*
X188649377Y-132777337D01*
X188649377Y-132777337D02*
X188530329Y-132777337D01*
X188530329Y-132777337D02*
X188482710Y-132753528D01*
X188482710Y-132753528D02*
X188458901Y-132705908D01*
X188458901Y-132705908D02*
X188458901Y-132658289D01*
X188458901Y-132658289D02*
X188482710Y-132610670D01*
X188482710Y-132610670D02*
X188530329Y-132586861D01*
X188530329Y-132586861D02*
X188649377Y-132586861D01*
X188649377Y-132586861D02*
X188696996Y-132563051D01*
X188935091Y-132777337D02*
X188935091Y-132444004D01*
X188935091Y-132539242D02*
X188958901Y-132491623D01*
X188958901Y-132491623D02*
X188982710Y-132467813D01*
X188982710Y-132467813D02*
X189030329Y-132444004D01*
X189030329Y-132444004D02*
X189077948Y-132444004D01*
X189435091Y-132753528D02*
X189387472Y-132777337D01*
X189387472Y-132777337D02*
X189292234Y-132777337D01*
X189292234Y-132777337D02*
X189244615Y-132753528D01*
X189244615Y-132753528D02*
X189220806Y-132705908D01*
X189220806Y-132705908D02*
X189220806Y-132515432D01*
X189220806Y-132515432D02*
X189244615Y-132467813D01*
X189244615Y-132467813D02*
X189292234Y-132444004D01*
X189292234Y-132444004D02*
X189387472Y-132444004D01*
X189387472Y-132444004D02*
X189435091Y-132467813D01*
X189435091Y-132467813D02*
X189458901Y-132515432D01*
X189458901Y-132515432D02*
X189458901Y-132563051D01*
X189458901Y-132563051D02*
X189220806Y-132610670D01*
X184482712Y-133582309D02*
X184435093Y-133558500D01*
X184435093Y-133558500D02*
X184411283Y-133534690D01*
X184411283Y-133534690D02*
X184387474Y-133487071D01*
X184387474Y-133487071D02*
X184387474Y-133344214D01*
X184387474Y-133344214D02*
X184411283Y-133296595D01*
X184411283Y-133296595D02*
X184435093Y-133272785D01*
X184435093Y-133272785D02*
X184482712Y-133248976D01*
X184482712Y-133248976D02*
X184554140Y-133248976D01*
X184554140Y-133248976D02*
X184601759Y-133272785D01*
X184601759Y-133272785D02*
X184625569Y-133296595D01*
X184625569Y-133296595D02*
X184649378Y-133344214D01*
X184649378Y-133344214D02*
X184649378Y-133487071D01*
X184649378Y-133487071D02*
X184625569Y-133534690D01*
X184625569Y-133534690D02*
X184601759Y-133558500D01*
X184601759Y-133558500D02*
X184554140Y-133582309D01*
X184554140Y-133582309D02*
X184482712Y-133582309D01*
X184792236Y-133248976D02*
X184982712Y-133248976D01*
X184863664Y-133582309D02*
X184863664Y-133153738D01*
X184863664Y-133153738D02*
X184887474Y-133106119D01*
X184887474Y-133106119D02*
X184935093Y-133082309D01*
X184935093Y-133082309D02*
X184982712Y-133082309D01*
X185768425Y-133582309D02*
X185530330Y-133582309D01*
X185530330Y-133582309D02*
X185530330Y-133082309D01*
X185935092Y-133582309D02*
X185935092Y-133082309D01*
X185935092Y-133082309D02*
X186101759Y-133439452D01*
X186101759Y-133439452D02*
X186268425Y-133082309D01*
X186268425Y-133082309D02*
X186268425Y-133582309D01*
X186482712Y-133439452D02*
X186720807Y-133439452D01*
X186435093Y-133582309D02*
X186601759Y-133082309D01*
X186601759Y-133082309D02*
X186768426Y-133582309D01*
X187030330Y-133082309D02*
X187125568Y-133082309D01*
X187125568Y-133082309D02*
X187173187Y-133106119D01*
X187173187Y-133106119D02*
X187220806Y-133153738D01*
X187220806Y-133153738D02*
X187244616Y-133248976D01*
X187244616Y-133248976D02*
X187244616Y-133415642D01*
X187244616Y-133415642D02*
X187220806Y-133510880D01*
X187220806Y-133510880D02*
X187173187Y-133558500D01*
X187173187Y-133558500D02*
X187125568Y-133582309D01*
X187125568Y-133582309D02*
X187030330Y-133582309D01*
X187030330Y-133582309D02*
X186982711Y-133558500D01*
X186982711Y-133558500D02*
X186935092Y-133510880D01*
X186935092Y-133510880D02*
X186911283Y-133415642D01*
X186911283Y-133415642D02*
X186911283Y-133248976D01*
X186911283Y-133248976D02*
X186935092Y-133153738D01*
X186935092Y-133153738D02*
X186982711Y-133106119D01*
X186982711Y-133106119D02*
X187030330Y-133082309D01*
X188054140Y-133582309D02*
X188054140Y-133320404D01*
X188054140Y-133320404D02*
X188030330Y-133272785D01*
X188030330Y-133272785D02*
X187982711Y-133248976D01*
X187982711Y-133248976D02*
X187887473Y-133248976D01*
X187887473Y-133248976D02*
X187839854Y-133272785D01*
X188054140Y-133558500D02*
X188006521Y-133582309D01*
X188006521Y-133582309D02*
X187887473Y-133582309D01*
X187887473Y-133582309D02*
X187839854Y-133558500D01*
X187839854Y-133558500D02*
X187816045Y-133510880D01*
X187816045Y-133510880D02*
X187816045Y-133463261D01*
X187816045Y-133463261D02*
X187839854Y-133415642D01*
X187839854Y-133415642D02*
X187887473Y-133391833D01*
X187887473Y-133391833D02*
X188006521Y-133391833D01*
X188006521Y-133391833D02*
X188054140Y-133368023D01*
X188292235Y-133248976D02*
X188292235Y-133582309D01*
X188292235Y-133296595D02*
X188316045Y-133272785D01*
X188316045Y-133272785D02*
X188363664Y-133248976D01*
X188363664Y-133248976D02*
X188435092Y-133248976D01*
X188435092Y-133248976D02*
X188482711Y-133272785D01*
X188482711Y-133272785D02*
X188506521Y-133320404D01*
X188506521Y-133320404D02*
X188506521Y-133582309D01*
X188958902Y-133582309D02*
X188958902Y-133082309D01*
X188958902Y-133558500D02*
X188911283Y-133582309D01*
X188911283Y-133582309D02*
X188816045Y-133582309D01*
X188816045Y-133582309D02*
X188768426Y-133558500D01*
X188768426Y-133558500D02*
X188744616Y-133534690D01*
X188744616Y-133534690D02*
X188720807Y-133487071D01*
X188720807Y-133487071D02*
X188720807Y-133344214D01*
X188720807Y-133344214D02*
X188744616Y-133296595D01*
X188744616Y-133296595D02*
X188768426Y-133272785D01*
X188768426Y-133272785D02*
X188816045Y-133248976D01*
X188816045Y-133248976D02*
X188911283Y-133248976D01*
X188911283Y-133248976D02*
X188958902Y-133272785D01*
X189816044Y-133582309D02*
X189577949Y-133582309D01*
X189577949Y-133582309D02*
X189577949Y-133082309D01*
X189982711Y-133582309D02*
X189982711Y-133082309D01*
X189982711Y-133082309D02*
X190149378Y-133439452D01*
X190149378Y-133439452D02*
X190316044Y-133082309D01*
X190316044Y-133082309D02*
X190316044Y-133582309D01*
X190720807Y-133320404D02*
X190792235Y-133344214D01*
X190792235Y-133344214D02*
X190816045Y-133368023D01*
X190816045Y-133368023D02*
X190839854Y-133415642D01*
X190839854Y-133415642D02*
X190839854Y-133487071D01*
X190839854Y-133487071D02*
X190816045Y-133534690D01*
X190816045Y-133534690D02*
X190792235Y-133558500D01*
X190792235Y-133558500D02*
X190744616Y-133582309D01*
X190744616Y-133582309D02*
X190554140Y-133582309D01*
X190554140Y-133582309D02*
X190554140Y-133082309D01*
X190554140Y-133082309D02*
X190720807Y-133082309D01*
X190720807Y-133082309D02*
X190768426Y-133106119D01*
X190768426Y-133106119D02*
X190792235Y-133129928D01*
X190792235Y-133129928D02*
X190816045Y-133177547D01*
X190816045Y-133177547D02*
X190816045Y-133225166D01*
X190816045Y-133225166D02*
X190792235Y-133272785D01*
X190792235Y-133272785D02*
X190768426Y-133296595D01*
X190768426Y-133296595D02*
X190720807Y-133320404D01*
X190720807Y-133320404D02*
X190554140Y-133320404D01*
X191030331Y-133439452D02*
X191268426Y-133439452D01*
X190982712Y-133582309D02*
X191149378Y-133082309D01*
X191149378Y-133082309D02*
X191316045Y-133582309D01*
X191577949Y-133082309D02*
X191673187Y-133082309D01*
X191673187Y-133082309D02*
X191720806Y-133106119D01*
X191720806Y-133106119D02*
X191768425Y-133153738D01*
X191768425Y-133153738D02*
X191792235Y-133248976D01*
X191792235Y-133248976D02*
X191792235Y-133415642D01*
X191792235Y-133415642D02*
X191768425Y-133510880D01*
X191768425Y-133510880D02*
X191720806Y-133558500D01*
X191720806Y-133558500D02*
X191673187Y-133582309D01*
X191673187Y-133582309D02*
X191577949Y-133582309D01*
X191577949Y-133582309D02*
X191530330Y-133558500D01*
X191530330Y-133558500D02*
X191482711Y-133510880D01*
X191482711Y-133510880D02*
X191458902Y-133415642D01*
X191458902Y-133415642D02*
X191458902Y-133248976D01*
X191458902Y-133248976D02*
X191482711Y-133153738D01*
X191482711Y-133153738D02*
X191530330Y-133106119D01*
X191530330Y-133106119D02*
X191577949Y-133082309D01*
D11*
X190454819Y-61333333D02*
X191169104Y-61333333D01*
X191169104Y-61333333D02*
X191311961Y-61380952D01*
X191311961Y-61380952D02*
X191407200Y-61476190D01*
X191407200Y-61476190D02*
X191454819Y-61619047D01*
X191454819Y-61619047D02*
X191454819Y-61714285D01*
X190788152Y-60428571D02*
X191454819Y-60428571D01*
X190407200Y-60666666D02*
X191121485Y-60904761D01*
X191121485Y-60904761D02*
X191121485Y-60285714D01*
X127454819Y-61333333D02*
X128169104Y-61333333D01*
X128169104Y-61333333D02*
X128311961Y-61380952D01*
X128311961Y-61380952D02*
X128407200Y-61476190D01*
X128407200Y-61476190D02*
X128454819Y-61619047D01*
X128454819Y-61619047D02*
X128454819Y-61714285D01*
X127454819Y-60952380D02*
X127454819Y-60333333D01*
X127454819Y-60333333D02*
X127835771Y-60666666D01*
X127835771Y-60666666D02*
X127835771Y-60523809D01*
X127835771Y-60523809D02*
X127883390Y-60428571D01*
X127883390Y-60428571D02*
X127931009Y-60380952D01*
X127931009Y-60380952D02*
X128026247Y-60333333D01*
X128026247Y-60333333D02*
X128264342Y-60333333D01*
X128264342Y-60333333D02*
X128359580Y-60380952D01*
X128359580Y-60380952D02*
X128407200Y-60428571D01*
X128407200Y-60428571D02*
X128454819Y-60523809D01*
X128454819Y-60523809D02*
X128454819Y-60809523D01*
X128454819Y-60809523D02*
X128407200Y-60904761D01*
X128407200Y-60904761D02*
X128359580Y-60952380D01*
X194702381Y-49881009D02*
X194845238Y-49928628D01*
X194845238Y-49928628D02*
X194892857Y-49976247D01*
X194892857Y-49976247D02*
X194940476Y-50071485D01*
X194940476Y-50071485D02*
X194940476Y-50214342D01*
X194940476Y-50214342D02*
X194892857Y-50309580D01*
X194892857Y-50309580D02*
X194845238Y-50357200D01*
X194845238Y-50357200D02*
X194750000Y-50404819D01*
X194750000Y-50404819D02*
X194369048Y-50404819D01*
X194369048Y-50404819D02*
X194369048Y-49404819D01*
X194369048Y-49404819D02*
X194702381Y-49404819D01*
X194702381Y-49404819D02*
X194797619Y-49452438D01*
X194797619Y-49452438D02*
X194845238Y-49500057D01*
X194845238Y-49500057D02*
X194892857Y-49595295D01*
X194892857Y-49595295D02*
X194892857Y-49690533D01*
X194892857Y-49690533D02*
X194845238Y-49785771D01*
X194845238Y-49785771D02*
X194797619Y-49833390D01*
X194797619Y-49833390D02*
X194702381Y-49881009D01*
X194702381Y-49881009D02*
X194369048Y-49881009D01*
X195369048Y-50023866D02*
X196130953Y-50023866D01*
X195750000Y-50404819D02*
X195750000Y-49642914D01*
X148931009Y-90175714D02*
X148978628Y-90032857D01*
X148978628Y-90032857D02*
X149026247Y-89985238D01*
X149026247Y-89985238D02*
X149121485Y-89937619D01*
X149121485Y-89937619D02*
X149264342Y-89937619D01*
X149264342Y-89937619D02*
X149359580Y-89985238D01*
X149359580Y-89985238D02*
X149407200Y-90032857D01*
X149407200Y-90032857D02*
X149454819Y-90128095D01*
X149454819Y-90128095D02*
X149454819Y-90509047D01*
X149454819Y-90509047D02*
X148454819Y-90509047D01*
X148454819Y-90509047D02*
X148454819Y-90175714D01*
X148454819Y-90175714D02*
X148502438Y-90080476D01*
X148502438Y-90080476D02*
X148550057Y-90032857D01*
X148550057Y-90032857D02*
X148645295Y-89985238D01*
X148645295Y-89985238D02*
X148740533Y-89985238D01*
X148740533Y-89985238D02*
X148835771Y-90032857D01*
X148835771Y-90032857D02*
X148883390Y-90080476D01*
X148883390Y-90080476D02*
X148931009Y-90175714D01*
X148931009Y-90175714D02*
X148931009Y-90509047D01*
X148454819Y-89651904D02*
X148454819Y-89080476D01*
X149454819Y-89366190D02*
X148454819Y-89366190D01*
X149454819Y-88223333D02*
X149454819Y-88794761D01*
X149454819Y-88509047D02*
X148454819Y-88509047D01*
X148454819Y-88509047D02*
X148597676Y-88604285D01*
X148597676Y-88604285D02*
X148692914Y-88699523D01*
X148692914Y-88699523D02*
X148740533Y-88794761D01*
X170931009Y-90175714D02*
X170978628Y-90032857D01*
X170978628Y-90032857D02*
X171026247Y-89985238D01*
X171026247Y-89985238D02*
X171121485Y-89937619D01*
X171121485Y-89937619D02*
X171264342Y-89937619D01*
X171264342Y-89937619D02*
X171359580Y-89985238D01*
X171359580Y-89985238D02*
X171407200Y-90032857D01*
X171407200Y-90032857D02*
X171454819Y-90128095D01*
X171454819Y-90128095D02*
X171454819Y-90509047D01*
X171454819Y-90509047D02*
X170454819Y-90509047D01*
X170454819Y-90509047D02*
X170454819Y-90175714D01*
X170454819Y-90175714D02*
X170502438Y-90080476D01*
X170502438Y-90080476D02*
X170550057Y-90032857D01*
X170550057Y-90032857D02*
X170645295Y-89985238D01*
X170645295Y-89985238D02*
X170740533Y-89985238D01*
X170740533Y-89985238D02*
X170835771Y-90032857D01*
X170835771Y-90032857D02*
X170883390Y-90080476D01*
X170883390Y-90080476D02*
X170931009Y-90175714D01*
X170931009Y-90175714D02*
X170931009Y-90509047D01*
X170454819Y-89651904D02*
X170454819Y-89080476D01*
X171454819Y-89366190D02*
X170454819Y-89366190D01*
X170550057Y-88794761D02*
X170502438Y-88747142D01*
X170502438Y-88747142D02*
X170454819Y-88651904D01*
X170454819Y-88651904D02*
X170454819Y-88413809D01*
X170454819Y-88413809D02*
X170502438Y-88318571D01*
X170502438Y-88318571D02*
X170550057Y-88270952D01*
X170550057Y-88270952D02*
X170645295Y-88223333D01*
X170645295Y-88223333D02*
X170740533Y-88223333D01*
X170740533Y-88223333D02*
X170883390Y-88270952D01*
X170883390Y-88270952D02*
X171454819Y-88842380D01*
X171454819Y-88842380D02*
X171454819Y-88223333D01*
X120096106Y-117583333D02*
X120810391Y-117583333D01*
X120810391Y-117583333D02*
X120953248Y-117630952D01*
X120953248Y-117630952D02*
X121048487Y-117726190D01*
X121048487Y-117726190D02*
X121096106Y-117869047D01*
X121096106Y-117869047D02*
X121096106Y-117964285D01*
X120191344Y-117154761D02*
X120143725Y-117107142D01*
X120143725Y-117107142D02*
X120096106Y-117011904D01*
X120096106Y-117011904D02*
X120096106Y-116773809D01*
X120096106Y-116773809D02*
X120143725Y-116678571D01*
X120143725Y-116678571D02*
X120191344Y-116630952D01*
X120191344Y-116630952D02*
X120286582Y-116583333D01*
X120286582Y-116583333D02*
X120381820Y-116583333D01*
X120381820Y-116583333D02*
X120524677Y-116630952D01*
X120524677Y-116630952D02*
X121096106Y-117202380D01*
X121096106Y-117202380D02*
X121096106Y-116583333D01*
X182454819Y-117583333D02*
X183169104Y-117583333D01*
X183169104Y-117583333D02*
X183311961Y-117630952D01*
X183311961Y-117630952D02*
X183407200Y-117726190D01*
X183407200Y-117726190D02*
X183454819Y-117869047D01*
X183454819Y-117869047D02*
X183454819Y-117964285D01*
X182454819Y-116630952D02*
X182454819Y-117107142D01*
X182454819Y-117107142D02*
X182931009Y-117154761D01*
X182931009Y-117154761D02*
X182883390Y-117107142D01*
X182883390Y-117107142D02*
X182835771Y-117011904D01*
X182835771Y-117011904D02*
X182835771Y-116773809D01*
X182835771Y-116773809D02*
X182883390Y-116678571D01*
X182883390Y-116678571D02*
X182931009Y-116630952D01*
X182931009Y-116630952D02*
X183026247Y-116583333D01*
X183026247Y-116583333D02*
X183264342Y-116583333D01*
X183264342Y-116583333D02*
X183359580Y-116630952D01*
X183359580Y-116630952D02*
X183407200Y-116678571D01*
X183407200Y-116678571D02*
X183454819Y-116773809D01*
X183454819Y-116773809D02*
X183454819Y-117011904D01*
X183454819Y-117011904D02*
X183407200Y-117107142D01*
X183407200Y-117107142D02*
X183359580Y-117154761D01*
D13*
%TO.C,J4*%
X178750000Y-57570000D02*
X181330000Y-57570000D01*
X178750000Y-67100000D02*
X178750000Y-57570000D01*
X181330000Y-55100000D02*
X185040000Y-55100000D01*
X181330000Y-57570000D02*
X181330000Y-55100000D01*
X181330000Y-57570000D02*
X181330000Y-67100000D01*
X184020000Y-67100000D02*
X178750000Y-67100000D01*
X188960000Y-55100000D02*
X192620000Y-55100000D01*
X192620000Y-55100000D02*
X192620000Y-57570000D01*
X192620000Y-57570000D02*
X181220000Y-57570000D01*
X192620000Y-57570000D02*
X192620000Y-67100000D01*
X192620000Y-57570000D02*
X195250000Y-57570000D01*
X195250000Y-57570000D02*
X195250000Y-67100000D01*
X195250000Y-67100000D02*
X189980000Y-67100000D01*
D14*
%TO.C,TP2*%
X114500000Y-120000000D02*
G75*
G02*
X111500000Y-120000000I-1500000J0D01*
G01*
X111500000Y-120000000D02*
G75*
G02*
X114500000Y-120000000I1500000J0D01*
G01*
D13*
%TO.C,J3*%
X115750000Y-57570000D02*
X118330000Y-57570000D01*
X115750000Y-67100000D02*
X115750000Y-57570000D01*
X118330000Y-55100000D02*
X122040000Y-55100000D01*
X118330000Y-57570000D02*
X118330000Y-55100000D01*
X118330000Y-57570000D02*
X118330000Y-67100000D01*
X121020000Y-67100000D02*
X115750000Y-67100000D01*
X125960000Y-55100000D02*
X129620000Y-55100000D01*
X129620000Y-55100000D02*
X129620000Y-57570000D01*
X129620000Y-57570000D02*
X118220000Y-57570000D01*
X129620000Y-57570000D02*
X129620000Y-67100000D01*
X129620000Y-57570000D02*
X132250000Y-57570000D01*
X132250000Y-57570000D02*
X132250000Y-67100000D01*
X132250000Y-67100000D02*
X126980000Y-67100000D01*
D14*
%TO.C,TP5*%
X196750000Y-52750000D02*
G75*
G02*
X193750000Y-52750000I-1500000J0D01*
G01*
X193750000Y-52750000D02*
G75*
G02*
X196750000Y-52750000I1500000J0D01*
G01*
D13*
%TO.C,BT1*%
X134680000Y-50860000D02*
X134680000Y-127910000D01*
X134680000Y-50860000D02*
X155330000Y-50860000D01*
X134680000Y-127910000D02*
X155330000Y-127910000D01*
X155330000Y-50860000D02*
X155330000Y-127910000D01*
%TO.C,BT2*%
X156680000Y-50860000D02*
X156680000Y-127910000D01*
X156680000Y-50860000D02*
X177330000Y-50860000D01*
X156680000Y-127910000D02*
X177330000Y-127910000D01*
X177330000Y-50860000D02*
X177330000Y-127910000D01*
%TO.C,J2*%
X116391287Y-111150000D02*
X121661287Y-111150000D01*
X116391287Y-120680000D02*
X116391287Y-111150000D01*
X119021287Y-120680000D02*
X116391287Y-120680000D01*
X119021287Y-120680000D02*
X119021287Y-111150000D01*
X119021287Y-120680000D02*
X130421287Y-120680000D01*
X119021287Y-123150000D02*
X119021287Y-120680000D01*
X122681287Y-123150000D02*
X119021287Y-123150000D01*
X127621287Y-111150000D02*
X132891287Y-111150000D01*
X130311287Y-120680000D02*
X130311287Y-111150000D01*
X130311287Y-120680000D02*
X130311287Y-123150000D01*
X130311287Y-123150000D02*
X126601287Y-123150000D01*
X132891287Y-111150000D02*
X132891287Y-120680000D01*
X132891287Y-120680000D02*
X130311287Y-120680000D01*
D14*
%TO.C,TP4*%
X114360000Y-123900000D02*
G75*
G02*
X111360000Y-123900000I-1500000J0D01*
G01*
X111360000Y-123900000D02*
G75*
G02*
X114360000Y-123900000I1500000J0D01*
G01*
%TO.C,TP3*%
X193250000Y-125250000D02*
G75*
G02*
X190250000Y-125250000I-1500000J0D01*
G01*
X190250000Y-125250000D02*
G75*
G02*
X193250000Y-125250000I1500000J0D01*
G01*
D13*
%TO.C,J5*%
X178750000Y-111150000D02*
X184020000Y-111150000D01*
X178750000Y-120680000D02*
X178750000Y-111150000D01*
X181380000Y-120680000D02*
X178750000Y-120680000D01*
X181380000Y-120680000D02*
X181380000Y-111150000D01*
X181380000Y-120680000D02*
X192780000Y-120680000D01*
X181380000Y-123150000D02*
X181380000Y-120680000D01*
X185040000Y-123150000D02*
X181380000Y-123150000D01*
X189980000Y-111150000D02*
X195250000Y-111150000D01*
X192670000Y-120680000D02*
X192670000Y-111150000D01*
X192670000Y-120680000D02*
X192670000Y-123150000D01*
X192670000Y-123150000D02*
X188960000Y-123150000D01*
X195250000Y-111150000D02*
X195250000Y-120680000D01*
X195250000Y-120680000D02*
X192670000Y-120680000D01*
%TD*%
%LPC*%
D11*
X116650476Y-45874617D02*
G75*
G02*
X111235682Y-45874617I-2707397J0D01*
G01*
X111235682Y-45874617D02*
G75*
G02*
X116650476Y-45874617I2707397J0D01*
G01*
X120435487Y-45849319D02*
G75*
G02*
X115050671Y-45849319I-2692408J0D01*
G01*
X115050671Y-45849319D02*
G75*
G02*
X120435487Y-45849319I2692408J0D01*
G01*
X193450476Y-45874617D02*
G75*
G02*
X188035682Y-45874617I-2707397J0D01*
G01*
X188035682Y-45874617D02*
G75*
G02*
X193450476Y-45874617I2707397J0D01*
G01*
X113943079Y-48571364D02*
X117743079Y-48577871D01*
X194593079Y-43171364D02*
X190793079Y-43177871D01*
X190743079Y-48571364D02*
X194543079Y-48577871D01*
X197235487Y-45849319D02*
G75*
G02*
X191850671Y-45849319I-2692408J0D01*
G01*
X191850671Y-45849319D02*
G75*
G02*
X197235487Y-45849319I2692408J0D01*
G01*
X117793079Y-43171364D02*
X113993079Y-43177871D01*
D15*
%TO.C,*%
X194500000Y-131530000D03*
%TD*%
D16*
%TO.C,J4*%
X187000000Y-53000000D03*
X187000000Y-69000000D03*
D17*
X187000000Y-52500000D03*
D18*
X187000000Y-69500000D03*
%TD*%
D19*
%TO.C,TP2*%
X113000000Y-120000000D03*
%TD*%
D16*
%TO.C,J3*%
X124000000Y-53000000D03*
X124000000Y-69000000D03*
D17*
X124000000Y-52500000D03*
D18*
X124000000Y-69500000D03*
%TD*%
D19*
%TO.C,TP5*%
X195250000Y-52750000D03*
%TD*%
D20*
%TO.C,BT1*%
X137000000Y-61790000D03*
X153000000Y-116990000D03*
D21*
X137000000Y-125190000D03*
D22*
X145000000Y-53670000D03*
X145000000Y-125110000D03*
%TD*%
D20*
%TO.C,BT2*%
X159000000Y-61790000D03*
X175000000Y-116990000D03*
D21*
X159000000Y-125190000D03*
D22*
X167000000Y-53670000D03*
X167000000Y-125110000D03*
%TD*%
D16*
%TO.C,J2*%
X124641287Y-125250000D03*
X124641287Y-109250000D03*
D17*
X124641287Y-125750000D03*
D18*
X124641287Y-108750000D03*
%TD*%
D15*
%TO.C,*%
X114500000Y-131530000D03*
%TD*%
D19*
%TO.C,TP4*%
X112860000Y-123900000D03*
%TD*%
%TO.C,TP3*%
X191750000Y-125250000D03*
%TD*%
D16*
%TO.C,J5*%
X187000000Y-125250000D03*
X187000000Y-109250000D03*
D17*
X187000000Y-125750000D03*
D18*
X187000000Y-108750000D03*
%TD*%
G36*
X113842180Y-43172174D02*
G01*
X117737436Y-43163506D01*
X117746926Y-43163843D01*
X118394290Y-43211290D01*
X118433542Y-43220645D01*
X119002532Y-43457725D01*
X119025518Y-43470249D01*
X119487197Y-43788081D01*
X119508982Y-43807108D01*
X119990500Y-44336779D01*
X120005757Y-44357459D01*
X120183905Y-44659084D01*
X120197526Y-44692100D01*
X120439378Y-45642900D01*
X120443258Y-45672457D01*
X120448767Y-46134094D01*
X120440934Y-46179355D01*
X120103608Y-47090255D01*
X120094849Y-47109011D01*
X119907608Y-47436684D01*
X119889417Y-47461102D01*
X119466304Y-47905034D01*
X119450696Y-47918903D01*
X119067653Y-48206185D01*
X119049535Y-48217509D01*
X118755076Y-48368466D01*
X118730060Y-48378088D01*
X118009032Y-48570363D01*
X117976566Y-48574617D01*
X113654443Y-48574617D01*
X113631903Y-48572585D01*
X113113558Y-48478340D01*
X113074882Y-48464502D01*
X112603354Y-48202401D01*
X112591334Y-48194801D01*
X112251582Y-47952121D01*
X112242975Y-47945391D01*
X112044196Y-47775571D01*
X112042022Y-47773671D01*
X111736781Y-47500558D01*
X111711399Y-47469172D01*
X111525004Y-47142981D01*
X111518770Y-47130518D01*
X111350237Y-46741155D01*
X111340843Y-46706732D01*
X111293059Y-46324460D01*
X111237617Y-45889792D01*
X111237432Y-45859425D01*
X111243553Y-45806312D01*
X112976192Y-45806312D01*
X112991951Y-46055473D01*
X113046729Y-46299027D01*
X113046735Y-46299046D01*
X113139164Y-46530941D01*
X113266952Y-46745411D01*
X113266959Y-46745421D01*
X113426909Y-46937097D01*
X113615040Y-47101212D01*
X113615039Y-47101212D01*
X113826650Y-47233662D01*
X113826655Y-47233665D01*
X114056490Y-47331163D01*
X114298791Y-47391263D01*
X114298805Y-47391265D01*
X114422952Y-47404311D01*
X114422959Y-47404312D01*
X117173179Y-47429322D01*
X117298905Y-47426987D01*
X117298908Y-47426986D01*
X117547291Y-47387651D01*
X117786469Y-47309943D01*
X117786471Y-47309942D01*
X118010548Y-47195774D01*
X118214009Y-47047955D01*
X118214010Y-47047954D01*
X118391828Y-46870140D01*
X118391833Y-46870134D01*
X118539656Y-46666678D01*
X118539656Y-46666677D01*
X118653824Y-46442614D01*
X118653827Y-46442606D01*
X118731541Y-46203435D01*
X118770884Y-45955038D01*
X118770884Y-45703561D01*
X118731541Y-45455164D01*
X118653827Y-45215993D01*
X118653824Y-45215985D01*
X118539656Y-44991922D01*
X118539656Y-44991921D01*
X118391833Y-44788465D01*
X118391828Y-44788459D01*
X118214010Y-44610645D01*
X118214009Y-44610644D01*
X118010548Y-44462825D01*
X117786471Y-44348657D01*
X117786469Y-44348656D01*
X117547291Y-44270948D01*
X117298904Y-44231613D01*
X117173155Y-44229321D01*
X114472935Y-44255106D01*
X114348411Y-44264125D01*
X114104324Y-44316509D01*
X114104318Y-44316511D01*
X113871516Y-44406663D01*
X113871509Y-44406666D01*
X113655801Y-44532338D01*
X113462555Y-44690404D01*
X113296606Y-44876907D01*
X113296602Y-44876911D01*
X113162078Y-45087214D01*
X113162071Y-45087227D01*
X113062331Y-45316071D01*
X113062328Y-45316082D01*
X112999848Y-45557784D01*
X112976192Y-45806312D01*
X111243553Y-45806312D01*
X111304863Y-45274294D01*
X111308883Y-45254104D01*
X111403895Y-44921562D01*
X111409112Y-44906831D01*
X111587965Y-44486630D01*
X111600547Y-44463906D01*
X111923302Y-44001055D01*
X111952752Y-43971074D01*
X112293083Y-43724613D01*
X112575489Y-43489275D01*
X112614703Y-43467084D01*
X113362664Y-43206533D01*
X113383399Y-43201234D01*
X113655431Y-43155895D01*
X113690320Y-43154981D01*
X113842180Y-43172174D01*
G37*
G36*
X190642180Y-43172174D02*
G01*
X194537436Y-43163506D01*
X194546926Y-43163843D01*
X195194290Y-43211290D01*
X195233542Y-43220645D01*
X195802532Y-43457725D01*
X195825518Y-43470249D01*
X196287197Y-43788081D01*
X196308982Y-43807108D01*
X196790500Y-44336779D01*
X196805757Y-44357459D01*
X196983905Y-44659084D01*
X196997526Y-44692100D01*
X197239378Y-45642900D01*
X197243258Y-45672457D01*
X197248767Y-46134094D01*
X197240934Y-46179355D01*
X196903608Y-47090255D01*
X196894849Y-47109011D01*
X196707608Y-47436684D01*
X196689417Y-47461102D01*
X196266304Y-47905034D01*
X196250696Y-47918903D01*
X195867653Y-48206185D01*
X195849535Y-48217509D01*
X195555076Y-48368466D01*
X195530060Y-48378088D01*
X194809032Y-48570363D01*
X194776566Y-48574617D01*
X190454443Y-48574617D01*
X190431903Y-48572585D01*
X189913558Y-48478340D01*
X189874882Y-48464502D01*
X189403354Y-48202401D01*
X189391334Y-48194801D01*
X189051582Y-47952121D01*
X189042975Y-47945391D01*
X188844196Y-47775571D01*
X188842022Y-47773671D01*
X188536781Y-47500558D01*
X188511399Y-47469172D01*
X188325004Y-47142981D01*
X188318770Y-47130518D01*
X188150237Y-46741155D01*
X188140843Y-46706732D01*
X188093059Y-46324460D01*
X188037617Y-45889792D01*
X188037432Y-45859425D01*
X188038017Y-45854347D01*
X189198792Y-45854347D01*
X189198792Y-45854355D01*
X189234376Y-46101854D01*
X189308616Y-46340615D01*
X189419654Y-46564659D01*
X189419658Y-46564666D01*
X189564681Y-46768328D01*
X189564690Y-46768339D01*
X189740082Y-46946541D01*
X189740085Y-46946543D01*
X189941435Y-47094799D01*
X189941438Y-47094801D01*
X190163677Y-47209378D01*
X190163682Y-47209380D01*
X190401237Y-47287406D01*
X190648134Y-47326917D01*
X190648142Y-47326918D01*
X190773264Y-47329323D01*
X194623165Y-47379321D01*
X194748888Y-47376943D01*
X194748908Y-47376941D01*
X194997283Y-47337609D01*
X195236453Y-47259902D01*
X195236455Y-47259901D01*
X195460528Y-47145734D01*
X195663975Y-46997926D01*
X195841800Y-46820106D01*
X195989621Y-46616650D01*
X196103784Y-46392597D01*
X196103787Y-46392589D01*
X196181499Y-46153423D01*
X196220840Y-45905035D01*
X196220840Y-45653564D01*
X196181499Y-45405176D01*
X196103787Y-45166010D01*
X196103784Y-45166002D01*
X195989621Y-44941949D01*
X195841800Y-44738493D01*
X195663975Y-44560673D01*
X195460528Y-44412865D01*
X195236455Y-44298698D01*
X195236453Y-44298697D01*
X194997282Y-44220990D01*
X194997284Y-44220990D01*
X194748905Y-44181657D01*
X194748900Y-44181656D01*
X194623177Y-44179322D01*
X190823995Y-44180114D01*
X190822347Y-44180104D01*
X190698098Y-44178504D01*
X190450079Y-44210161D01*
X190450077Y-44210162D01*
X190210159Y-44280611D01*
X189984394Y-44388080D01*
X189778431Y-44529878D01*
X189597475Y-44702423D01*
X189446046Y-44901402D01*
X189446043Y-44901406D01*
X189327957Y-45121807D01*
X189246181Y-45358087D01*
X189202758Y-45604345D01*
X189198792Y-45854347D01*
X188038017Y-45854347D01*
X188104863Y-45274294D01*
X188108883Y-45254104D01*
X188203895Y-44921562D01*
X188209112Y-44906831D01*
X188387965Y-44486630D01*
X188400547Y-44463906D01*
X188723302Y-44001055D01*
X188752752Y-43971074D01*
X189093083Y-43724613D01*
X189375489Y-43489275D01*
X189414703Y-43467084D01*
X190162664Y-43206533D01*
X190183399Y-43201234D01*
X190455431Y-43155895D01*
X190490320Y-43154981D01*
X190642180Y-43172174D01*
G37*
%LPD*%
M02*
