%TF.GenerationSoftware,KiCad,Pcbnew,9.0.0*%
%TF.CreationDate,2025-03-28T16:48:43-07:00*%
%TF.ProjectId,battery_pack_v1,62617474-6572-4795-9f70-61636b5f7631,rev?*%
%TF.SameCoordinates,Original*%
%TF.FileFunction,Copper,L4,Bot*%
%TF.FilePolarity,Positive*%
%FSLAX46Y46*%
G04 Gerber Fmt 4.6, Leading zero omitted, Abs format (unit mm)*
G04 Created by KiCad (PCBNEW 9.0.0) date 2025-03-28 16:48:43*
%MOMM*%
%LPD*%
G01*
G04 APERTURE LIST*
G04 Aperture macros list*
%AMRoundRect*
0 Rectangle with rounded corners*
0 $1 Rounding radius*
0 $2 $3 $4 $5 $6 $7 $8 $9 X,Y pos of 4 corners*
0 Add a 4 corners polygon primitive as box body*
4,1,4,$2,$3,$4,$5,$6,$7,$8,$9,$2,$3,0*
0 Add four circle primitives for the rounded corners*
1,1,$1+$1,$2,$3*
1,1,$1+$1,$4,$5*
1,1,$1+$1,$6,$7*
1,1,$1+$1,$8,$9*
0 Add four rect primitives between the rounded corners*
20,1,$1+$1,$2,$3,$4,$5,0*
20,1,$1+$1,$4,$5,$6,$7,0*
20,1,$1+$1,$6,$7,$8,$9,0*
20,1,$1+$1,$8,$9,$2,$3,0*%
G04 Aperture macros list end*
%TA.AperFunction,ComponentPad*%
%ADD10C,5.000000*%
%TD*%
%TA.AperFunction,ComponentPad*%
%ADD11C,1.850000*%
%TD*%
%TA.AperFunction,ComponentPad*%
%ADD12C,2.000000*%
%TD*%
%TA.AperFunction,ComponentPad*%
%ADD13C,3.300000*%
%TD*%
%TA.AperFunction,ComponentPad*%
%ADD14C,2.400000*%
%TD*%
%TA.AperFunction,ComponentPad*%
%ADD15O,3.500000X2.500000*%
%TD*%
%TA.AperFunction,SMDPad,CuDef*%
%ADD16RoundRect,0.150000X-0.825000X-0.150000X0.825000X-0.150000X0.825000X0.150000X-0.825000X0.150000X0*%
%TD*%
%TA.AperFunction,SMDPad,CuDef*%
%ADD17RoundRect,0.200000X0.200000X0.275000X-0.200000X0.275000X-0.200000X-0.275000X0.200000X-0.275000X0*%
%TD*%
%TA.AperFunction,SMDPad,CuDef*%
%ADD18RoundRect,0.150000X0.512500X0.150000X-0.512500X0.150000X-0.512500X-0.150000X0.512500X-0.150000X0*%
%TD*%
%TA.AperFunction,SMDPad,CuDef*%
%ADD19RoundRect,0.250000X-0.362500X-1.425000X0.362500X-1.425000X0.362500X1.425000X-0.362500X1.425000X0*%
%TD*%
%TA.AperFunction,SMDPad,CuDef*%
%ADD20RoundRect,0.225000X-0.225000X-0.250000X0.225000X-0.250000X0.225000X0.250000X-0.225000X0.250000X0*%
%TD*%
%TA.AperFunction,SMDPad,CuDef*%
%ADD21RoundRect,0.200000X-0.200000X-0.275000X0.200000X-0.275000X0.200000X0.275000X-0.200000X0.275000X0*%
%TD*%
%TA.AperFunction,SMDPad,CuDef*%
%ADD22R,2.500000X1.100000*%
%TD*%
%TA.AperFunction,SMDPad,CuDef*%
%ADD23R,2.200000X2.000000*%
%TD*%
%TA.AperFunction,ViaPad*%
%ADD24C,0.800000*%
%TD*%
%TA.AperFunction,Conductor*%
%ADD25C,0.300000*%
%TD*%
%TA.AperFunction,Conductor*%
%ADD26C,0.500000*%
%TD*%
%TA.AperFunction,Conductor*%
%ADD27C,0.400000*%
%TD*%
G04 APERTURE END LIST*
D10*
%TO.P,,1*%
%TO.N,Chassis Ground*%
X194500000Y-131530000D03*
%TD*%
D11*
%TO.P,J4,*%
%TO.N,*%
X187000000Y-53000000D03*
X187000000Y-69000000D03*
%TD*%
D12*
%TO.P,TP2,1,1*%
%TO.N,B-*%
X113000000Y-120000000D03*
%TD*%
D11*
%TO.P,J3,*%
%TO.N,*%
X124000000Y-53000000D03*
X124000000Y-69000000D03*
%TD*%
D12*
%TO.P,TP5,1,1*%
%TO.N,PACK+*%
X195250000Y-52750000D03*
%TD*%
D13*
%TO.P,BT1,*%
%TO.N,*%
X137000000Y-61790000D03*
X153000000Y-116990000D03*
D14*
X137000000Y-125190000D03*
D15*
%TO.P,BT1,1,+*%
%TO.N,BM*%
X145000000Y-53670000D03*
%TO.P,BT1,2,-*%
%TO.N,B-*%
X145000000Y-125110000D03*
%TD*%
D13*
%TO.P,BT2,*%
%TO.N,*%
X159000000Y-61790000D03*
X175000000Y-116990000D03*
D14*
X159000000Y-125190000D03*
D15*
%TO.P,BT2,1,+*%
%TO.N,PACK+*%
X167000000Y-53670000D03*
%TO.P,BT2,2,-*%
%TO.N,BM*%
X167000000Y-125110000D03*
%TD*%
D11*
%TO.P,J2,*%
%TO.N,*%
X124641287Y-125250000D03*
X124641287Y-109250000D03*
%TD*%
D10*
%TO.P,,1*%
%TO.N,Chassis Ground*%
X114500000Y-131530000D03*
%TD*%
D12*
%TO.P,TP4,1,1*%
%TO.N,PACK-*%
X112860000Y-123900000D03*
%TD*%
%TO.P,TP3,1,1*%
%TO.N,BM*%
X191750000Y-125250000D03*
%TD*%
D11*
%TO.P,J5,*%
%TO.N,*%
X187000000Y-125250000D03*
X187000000Y-109250000D03*
%TD*%
D16*
%TO.P,Q2,1,S*%
%TO.N,PACK-*%
X153230098Y-96480999D03*
%TO.P,Q2,2,S*%
X153230098Y-95210999D03*
%TO.P,Q2,3,S*%
X153230098Y-93940999D03*
%TO.P,Q2,4,G*%
%TO.N,Net-(Q2-G)*%
X153230098Y-92670999D03*
%TO.P,Q2,5,D*%
%TO.N,Net-(Q1-D-Pad5)*%
X158180098Y-92670999D03*
%TO.P,Q2,6,D*%
X158180098Y-93940999D03*
%TO.P,Q2,7,D*%
X158180098Y-95210999D03*
%TO.P,Q2,8,D*%
X158180098Y-96480999D03*
%TD*%
D17*
%TO.P,R4,1*%
%TO.N,BM*%
X151130098Y-94426000D03*
%TO.P,R4,2*%
%TO.N,Net-(U1-VC)*%
X149480098Y-94426000D03*
%TD*%
D18*
%TO.P,U1,1,DOUT*%
%TO.N,Net-(Q1-G)*%
X150812599Y-90396001D03*
%TO.P,U1,2,COUT*%
%TO.N,Net-(Q2-G)*%
X150812599Y-91346000D03*
%TO.P,U1,3,V-*%
%TO.N,Net-(U1-V-)*%
X150812599Y-92295999D03*
%TO.P,U1,4,VC*%
%TO.N,Net-(U1-VC)*%
X148537599Y-92295999D03*
%TO.P,U1,5,VDD*%
%TO.N,/VDD*%
X148537599Y-91346000D03*
%TO.P,U1,6,VSS*%
%TO.N,B-*%
X148537599Y-90396001D03*
%TD*%
D19*
%TO.P,R1,1*%
%TO.N,B-*%
X147392597Y-84095999D03*
%TO.P,R1,2*%
%TO.N,Net-(C5-Pad1)*%
X153317597Y-84095999D03*
%TD*%
D20*
%TO.P,C7,1*%
%TO.N,B-*%
X146360098Y-97616000D03*
%TO.P,C7,2*%
%TO.N,Net-(U1-V-)*%
X147910098Y-97616000D03*
%TD*%
%TO.P,C8,1*%
%TO.N,B-*%
X146340097Y-94435999D03*
%TO.P,C8,2*%
%TO.N,Net-(U1-VC)*%
X147890097Y-94435999D03*
%TD*%
D21*
%TO.P,R3,1*%
%TO.N,Net-(U1-V-)*%
X150470098Y-98136000D03*
%TO.P,R3,2*%
%TO.N,PACK-*%
X152120098Y-98136000D03*
%TD*%
D20*
%TO.P,C9,1*%
%TO.N,B-*%
X146350099Y-95986000D03*
%TO.P,C9,2*%
%TO.N,/VDD*%
X147900099Y-95986000D03*
%TD*%
D16*
%TO.P,Q1,1,S*%
%TO.N,Net-(C5-Pad1)*%
X153240099Y-90921000D03*
%TO.P,Q1,2,S*%
X153240099Y-89651000D03*
%TO.P,Q1,3,S*%
X153240099Y-88381000D03*
%TO.P,Q1,4,G*%
%TO.N,Net-(Q1-G)*%
X153240099Y-87111000D03*
%TO.P,Q1,5,D*%
%TO.N,Net-(Q1-D-Pad5)*%
X158190099Y-87111000D03*
%TO.P,Q1,6,D*%
X158190099Y-88381000D03*
%TO.P,Q1,7,D*%
X158190099Y-89651000D03*
%TO.P,Q1,8,D*%
X158190099Y-90921000D03*
%TD*%
D22*
%TO.P,J1,1,Pin_1*%
%TO.N,PACK-*%
X160150506Y-81469670D03*
%TO.P,J1,2,Pin_2*%
%TO.N,PACK+*%
X167250506Y-81469670D03*
%TO.P,J1,3,Pin_3*%
%TO.N,PACK-*%
X160150506Y-79469670D03*
%TO.P,J1,4,Pin_4*%
%TO.N,PACK+*%
X167250506Y-79469670D03*
%TO.P,J1,5,Pin_5*%
%TO.N,PACK-*%
X160150506Y-77469670D03*
%TO.P,J1,6,Pin_6*%
%TO.N,PACK+*%
X167250506Y-77469670D03*
%TO.P,J1,7,Pin_7*%
%TO.N,PACK-*%
X160150506Y-75469670D03*
%TO.P,J1,8,Pin_8*%
%TO.N,PACK+*%
X167250506Y-75469670D03*
%TO.P,J1,9,Pin_9*%
%TO.N,PACK-*%
X160150506Y-73469670D03*
%TO.P,J1,10,Pin_10*%
%TO.N,PACK+*%
X167250506Y-73469670D03*
%TO.P,J1,11,Pin_11*%
%TO.N,PACK-*%
X160150506Y-71469670D03*
%TO.P,J1,12,Pin_12*%
%TO.N,PACK+*%
X167250506Y-71469670D03*
D23*
%TO.P,J1,13*%
%TO.N,N/C*%
X163700506Y-67469670D03*
%TO.P,J1,14*%
X163700506Y-85469670D03*
%TD*%
D17*
%TO.P,R5,1*%
%TO.N,PACK+*%
X151120097Y-95965999D03*
%TO.P,R5,2*%
%TO.N,/VDD*%
X149470097Y-95965999D03*
%TD*%
D20*
%TO.P,C5,1*%
%TO.N,Net-(C5-Pad1)*%
X155160097Y-85255999D03*
%TO.P,C5,2*%
%TO.N,PACK-*%
X156710097Y-85255999D03*
%TD*%
D24*
%TO.N,PACK-*%
X158000000Y-80700000D03*
X153600000Y-80400000D03*
X158200000Y-78200000D03*
X153800000Y-78300000D03*
X153600000Y-73900000D03*
X158200000Y-73700000D03*
X158100000Y-69300000D03*
X153600000Y-69100000D03*
X151200000Y-63700000D03*
X154600000Y-59800000D03*
X151070035Y-56949400D03*
X147000000Y-60000000D03*
X140200000Y-55800000D03*
X134600000Y-55900000D03*
X133300000Y-51300000D03*
X139800000Y-51400000D03*
X127720653Y-52632708D03*
X130100000Y-58800000D03*
X121900000Y-58800000D03*
X126700000Y-63900000D03*
X121400000Y-63700000D03*
X144600000Y-115200000D03*
X147500000Y-107900000D03*
X141800000Y-118900000D03*
X140000000Y-122400000D03*
X137000000Y-115500000D03*
X134800000Y-120000000D03*
X129800000Y-111500000D03*
X131300000Y-123000000D03*
X120200000Y-123300000D03*
X120700000Y-109400000D03*
X118300000Y-116900000D03*
X127300000Y-115600000D03*
X182700000Y-108700000D03*
X190900000Y-108600000D03*
X179000000Y-121700000D03*
X182900000Y-125000000D03*
X160800000Y-115900000D03*
X175132930Y-122786059D03*
X175000000Y-127200000D03*
X159200000Y-120700000D03*
X147800000Y-118000000D03*
X144500000Y-118000000D03*
X165500000Y-63400000D03*
X169300000Y-64000000D03*
X163700000Y-71500000D03*
X163800000Y-73400000D03*
X163700000Y-75200000D03*
X163700000Y-77600000D03*
X163700000Y-81700000D03*
X163700000Y-80200000D03*
X169600000Y-71700000D03*
X169300000Y-73500000D03*
X169700000Y-75900000D03*
X169500000Y-77600000D03*
X169300000Y-79500000D03*
X169400000Y-81600000D03*
X168300000Y-83100000D03*
X158700000Y-99000000D03*
X161300000Y-96400000D03*
X160100000Y-97800000D03*
X144500000Y-100700000D03*
X144500000Y-99600000D03*
X144500000Y-96700000D03*
X144500000Y-97700000D03*
X144500000Y-98600000D03*
X147900000Y-99400000D03*
X150200000Y-100000000D03*
X153200000Y-100100000D03*
X153300000Y-98200000D03*
X154400000Y-94250000D03*
X159925506Y-82625506D03*
X159375506Y-83175506D03*
X158725506Y-83825506D03*
X158075506Y-84475506D03*
%TO.N,/VDD*%
X147190097Y-93301507D03*
X148705560Y-95268460D03*
%TO.N,BM*%
X151250000Y-93500000D03*
%TD*%
D25*
%TO.N,PACK-*%
X153236000Y-98136000D02*
X153300000Y-98200000D01*
X152120098Y-98136000D02*
X153236000Y-98136000D01*
D26*
X153230098Y-93940999D02*
X154090999Y-93940999D01*
X154090999Y-93940999D02*
X154400000Y-94250000D01*
X159375506Y-83175506D02*
X159925506Y-82625506D01*
X158725506Y-83825506D02*
X159375506Y-83175506D01*
X158075506Y-84475506D02*
X158725506Y-83825506D01*
X157295013Y-85255999D02*
X158075506Y-84475506D01*
X156710097Y-85255999D02*
X157295013Y-85255999D01*
D25*
%TO.N,Net-(C5-Pad1)*%
X153240099Y-89651000D02*
X153240099Y-88381000D01*
D26*
X153240099Y-88381000D02*
X153799199Y-88381000D01*
D25*
X153240099Y-90921000D02*
X153240099Y-89651000D01*
D26*
X155250000Y-85345902D02*
X155160097Y-85255999D01*
X153799199Y-88381000D02*
X155250000Y-86930199D01*
D25*
X153317597Y-84095999D02*
X154000097Y-84095999D01*
D26*
X155160097Y-85255999D02*
X154000097Y-84095999D01*
X155250000Y-86930199D02*
X155250000Y-85345902D01*
%TO.N,B-*%
X146360098Y-97616000D02*
X146360098Y-95995999D01*
X146360098Y-95995999D02*
X146350099Y-95986000D01*
X147392597Y-89250999D02*
X147392597Y-84095999D01*
X146340097Y-94435999D02*
X146340097Y-91231839D01*
X146360098Y-97616000D02*
X146360098Y-123749902D01*
X147175935Y-90396001D02*
X148537599Y-90396001D01*
X146360098Y-123749902D02*
X145000000Y-125110000D01*
X148537599Y-90396001D02*
X147392597Y-89250999D01*
X146340097Y-91231839D02*
X147175935Y-90396001D01*
X146350099Y-95986000D02*
X146350099Y-94446001D01*
X146350099Y-94446001D02*
X146340097Y-94435999D01*
D25*
%TO.N,Net-(U1-V-)*%
X150369097Y-98034999D02*
X150470098Y-98136000D01*
X149470098Y-97636000D02*
X147930098Y-97636000D01*
X147930098Y-97636000D02*
X147910098Y-97616000D01*
X149869097Y-98034999D02*
X150369097Y-98034999D01*
X149869097Y-98034999D02*
X149470098Y-97636000D01*
X150369097Y-92739501D02*
X150369097Y-98034999D01*
X150812599Y-92295999D02*
X150369097Y-92739501D01*
%TO.N,Net-(U1-VC)*%
X148537599Y-93079159D02*
X148640188Y-93181748D01*
X148537599Y-92295999D02*
X148537599Y-93079159D01*
X148640188Y-93181748D02*
X148640188Y-93685908D01*
X147890097Y-94435999D02*
X149470099Y-94435999D01*
X149480098Y-94021658D02*
X149480098Y-94426000D01*
X148640188Y-93685908D02*
X147890097Y-94435999D01*
X149470099Y-94435999D02*
X149480098Y-94426000D01*
X148537599Y-93079159D02*
X149480098Y-94021658D01*
%TO.N,/VDD*%
X147900099Y-95986000D02*
X148770429Y-95986000D01*
X148770429Y-95986000D02*
X149450096Y-95986000D01*
X147475936Y-91346000D02*
X148537599Y-91346000D01*
X146941097Y-91880839D02*
X147475936Y-91346000D01*
X146941097Y-92722175D02*
X146941097Y-91880839D01*
X148770429Y-95986000D02*
X148770429Y-95333329D01*
X148770429Y-95333329D02*
X148705560Y-95268460D01*
X147190097Y-92971175D02*
X146941097Y-92722175D01*
X149450096Y-95986000D02*
X149470097Y-95965999D01*
X147190097Y-93301507D02*
X147190097Y-92971175D01*
D26*
%TO.N,PACK-*%
X160150506Y-77469670D02*
X160150506Y-76000000D01*
X159925506Y-82625506D02*
X160150506Y-82400506D01*
X160150506Y-76000000D02*
X160150506Y-75469670D01*
X160150506Y-73469670D02*
X160150506Y-71469670D01*
D25*
X153230098Y-97026000D02*
X153230098Y-96480999D01*
D26*
X160150506Y-79469670D02*
X160150506Y-77469670D01*
X160150506Y-82400506D02*
X160150506Y-81469670D01*
D25*
X152120098Y-98136000D02*
X153230098Y-97026000D01*
D26*
X156000000Y-85966096D02*
X156710097Y-85255999D01*
X160150506Y-81469670D02*
X160150506Y-79469670D01*
X153230098Y-93940999D02*
X154459001Y-93940999D01*
X156000000Y-92400000D02*
X156000000Y-85966096D01*
X154459001Y-93940999D02*
X156000000Y-92400000D01*
X153230098Y-95210999D02*
X153230098Y-96480999D01*
X153230098Y-93940999D02*
X153230098Y-95210999D01*
X160150506Y-76000000D02*
X160150506Y-73469670D01*
D25*
%TO.N,BM*%
X151130098Y-93619902D02*
X151250000Y-93500000D01*
X151130098Y-94426000D02*
X151130098Y-93619902D01*
%TO.N,PACK+*%
X151221098Y-97127226D02*
X151221098Y-98496774D01*
X151686324Y-98962000D02*
X157386774Y-98962000D01*
X157386774Y-98962000D02*
X157674387Y-98674387D01*
X151221098Y-98496774D02*
X151686324Y-98962000D01*
X167000000Y-89348775D02*
X167000000Y-53670000D01*
X151000000Y-96086096D02*
X151000000Y-96906128D01*
X157674387Y-98674387D02*
X167000000Y-89348775D01*
X157598775Y-98750000D02*
X157674387Y-98674387D01*
X151120097Y-95965999D02*
X151000000Y-96086096D01*
X151000000Y-96906128D02*
X151221098Y-97127226D01*
%TO.N,Net-(Q1-G)*%
X151750000Y-87111000D02*
X153240099Y-87111000D01*
X150812599Y-88048401D02*
X151750000Y-87111000D01*
X150812599Y-90396001D02*
X150812599Y-88048401D01*
D27*
%TO.N,Net-(Q1-D-Pad5)*%
X158180098Y-96480999D02*
X158180098Y-95210999D01*
X158190099Y-89651000D02*
X158190099Y-88381000D01*
X158180098Y-95210999D02*
X158180098Y-93940999D01*
X158190099Y-90921000D02*
X158190099Y-89651000D01*
X158180098Y-93940999D02*
X158180098Y-92670999D01*
X158180098Y-92670999D02*
X158180098Y-90931001D01*
X158190099Y-88381000D02*
X158190099Y-87111000D01*
X158180098Y-90931001D02*
X158190099Y-90921000D01*
D25*
%TO.N,Net-(Q2-G)*%
X153230098Y-91730098D02*
X153072000Y-91572000D01*
X153072000Y-91572000D02*
X152203421Y-91572000D01*
X152203421Y-91572000D02*
X151977421Y-91346000D01*
X153230098Y-92670999D02*
X153230098Y-91730098D01*
X151977421Y-91346000D02*
X150812599Y-91346000D01*
%TD*%
%TA.AperFunction,Conductor*%
%TO.N,Chassis Ground*%
G36*
X197003197Y-43020002D02*
G01*
X197032024Y-43045520D01*
X197470950Y-43574269D01*
X197499069Y-43639456D01*
X197500000Y-43654745D01*
X197500000Y-48874000D01*
X197479998Y-48942121D01*
X197426342Y-48988614D01*
X197374000Y-49000000D01*
X187626000Y-49000000D01*
X187557879Y-48979998D01*
X187511386Y-48926342D01*
X187500000Y-48874000D01*
X187500000Y-45854374D01*
X188995959Y-45854374D01*
X188995959Y-45854386D01*
X189028799Y-46108798D01*
X189028800Y-46108803D01*
X189097870Y-46355857D01*
X189097875Y-46355872D01*
X189201733Y-46590420D01*
X189201735Y-46590424D01*
X189282215Y-46718480D01*
X189338241Y-46807626D01*
X189504548Y-47002949D01*
X189504553Y-47002953D01*
X189697203Y-47172339D01*
X189912205Y-47312276D01*
X189912207Y-47312277D01*
X190145092Y-47419858D01*
X190145094Y-47419858D01*
X190145095Y-47419859D01*
X190145098Y-47419860D01*
X190391019Y-47492845D01*
X190391021Y-47492846D01*
X190447438Y-47501041D01*
X190644891Y-47529727D01*
X190771129Y-47529819D01*
X190772524Y-47529829D01*
X194582028Y-47579304D01*
X194583275Y-47579821D01*
X194621857Y-47579821D01*
X194660437Y-47580323D01*
X194660437Y-47580322D01*
X194667992Y-47580421D01*
X194674973Y-47579778D01*
X194751932Y-47579781D01*
X195006861Y-47543133D01*
X195253979Y-47470578D01*
X195488256Y-47363592D01*
X195704922Y-47224354D01*
X195899567Y-47055697D01*
X196068228Y-46861056D01*
X196207472Y-46644393D01*
X196314463Y-46410119D01*
X196387024Y-46163002D01*
X196423678Y-45908075D01*
X196423678Y-45650525D01*
X196387024Y-45395598D01*
X196314463Y-45148481D01*
X196226877Y-44956697D01*
X196207476Y-44914215D01*
X196207472Y-44914207D01*
X196178246Y-44868732D01*
X196068228Y-44697544D01*
X196032205Y-44655972D01*
X195899568Y-44502903D01*
X195704923Y-44334247D01*
X195704922Y-44334246D01*
X195488256Y-44195008D01*
X195488246Y-44195003D01*
X195253985Y-44088024D01*
X195253980Y-44088022D01*
X195253979Y-44088022D01*
X195191402Y-44069649D01*
X195006860Y-44015466D01*
X194816013Y-43988031D01*
X194751932Y-43978819D01*
X194751930Y-43978819D01*
X194675377Y-43978819D01*
X194675377Y-43978820D01*
X194663017Y-43978820D01*
X194663002Y-43978814D01*
X194625014Y-43978820D01*
X194623160Y-43978821D01*
X194623156Y-43978822D01*
X194572203Y-43978822D01*
X194572097Y-43978832D01*
X190829630Y-43979612D01*
X190825701Y-43979552D01*
X190712707Y-43976049D01*
X190701291Y-43975696D01*
X190701290Y-43975696D01*
X190701289Y-43975696D01*
X190446386Y-44004500D01*
X190446372Y-44004503D01*
X190198259Y-44069649D01*
X190198258Y-44069649D01*
X189962085Y-44169782D01*
X189962083Y-44169783D01*
X189742734Y-44302837D01*
X189544806Y-44466025D01*
X189372388Y-44655968D01*
X189229064Y-44868723D01*
X189229056Y-44868738D01*
X189117803Y-45099879D01*
X189117802Y-45099880D01*
X189040926Y-45344626D01*
X189000028Y-45597877D01*
X188995959Y-45854374D01*
X187500000Y-45854374D01*
X187500000Y-43126000D01*
X187520002Y-43057879D01*
X187573658Y-43011386D01*
X187626000Y-43000000D01*
X196935076Y-43000000D01*
X197003197Y-43020002D01*
G37*
%TD.AperFunction*%
%TD*%
%TA.AperFunction,Conductor*%
%TO.N,Chassis Ground*%
G36*
X120942121Y-43020002D02*
G01*
X120988614Y-43073658D01*
X121000000Y-43126000D01*
X121000000Y-48874000D01*
X120979998Y-48942121D01*
X120926342Y-48988614D01*
X120874000Y-49000000D01*
X110826500Y-49000000D01*
X110758379Y-48979998D01*
X110711886Y-48926342D01*
X110700500Y-48874000D01*
X110700500Y-46037542D01*
X110701346Y-46035363D01*
X110700500Y-45997757D01*
X110700500Y-45992675D01*
X110700511Y-45990974D01*
X110701491Y-45918391D01*
X110703048Y-45803099D01*
X112773656Y-45803099D01*
X112782289Y-45958081D01*
X112787830Y-46057570D01*
X112787830Y-46057574D01*
X112787831Y-46057575D01*
X112838123Y-46307408D01*
X112838128Y-46307428D01*
X112919696Y-46536809D01*
X112923516Y-46547551D01*
X113042260Y-46773062D01*
X113142386Y-46911060D01*
X113191929Y-46979343D01*
X113191939Y-46979355D01*
X113369469Y-47162190D01*
X113369473Y-47162193D01*
X113369474Y-47162194D01*
X113571264Y-47317871D01*
X113793182Y-47443199D01*
X113793185Y-47443200D01*
X114030691Y-47535619D01*
X114087950Y-47548910D01*
X114278958Y-47593247D01*
X114374014Y-47601363D01*
X114381260Y-47604442D01*
X114413517Y-47604735D01*
X114445665Y-47607477D01*
X114445665Y-47607476D01*
X114445668Y-47607477D01*
X114458006Y-47606098D01*
X114458169Y-47607561D01*
X114473288Y-47605278D01*
X117132401Y-47629459D01*
X117133275Y-47629821D01*
X117172287Y-47629821D01*
X117211219Y-47630176D01*
X117211220Y-47630175D01*
X117220103Y-47630256D01*
X117225175Y-47629778D01*
X117301932Y-47629781D01*
X117556861Y-47593133D01*
X117803979Y-47520578D01*
X118038256Y-47413592D01*
X118254922Y-47274354D01*
X118449567Y-47105697D01*
X118618228Y-46911056D01*
X118757472Y-46694393D01*
X118864463Y-46460119D01*
X118937024Y-46213002D01*
X118973678Y-45958075D01*
X118973678Y-45700525D01*
X118937024Y-45445598D01*
X118864463Y-45198481D01*
X118757472Y-44964207D01*
X118618228Y-44747544D01*
X118532907Y-44649080D01*
X118449568Y-44552903D01*
X118254923Y-44384247D01*
X118254922Y-44384246D01*
X118038256Y-44245008D01*
X118038246Y-44245003D01*
X117803985Y-44138024D01*
X117803980Y-44138022D01*
X117803979Y-44138022D01*
X117741633Y-44119717D01*
X117556860Y-44065466D01*
X117366013Y-44038031D01*
X117301932Y-44028819D01*
X117301930Y-44028819D01*
X117224902Y-44028819D01*
X117224902Y-44028820D01*
X117212046Y-44028820D01*
X117211128Y-44028450D01*
X117172170Y-44028821D01*
X117171596Y-44028822D01*
X117171595Y-44028821D01*
X117171593Y-44028822D01*
X117124382Y-44028822D01*
X117119524Y-44029324D01*
X114521819Y-44054128D01*
X114521820Y-44054129D01*
X114506358Y-44054276D01*
X114502074Y-44052765D01*
X114466639Y-44054656D01*
X114463863Y-44054683D01*
X114431141Y-44054995D01*
X114431044Y-44055016D01*
X114412042Y-44057492D01*
X114334995Y-44061615D01*
X114085032Y-44111336D01*
X113844702Y-44196175D01*
X113844698Y-44196177D01*
X113618924Y-44314397D01*
X113618920Y-44314400D01*
X113412296Y-44463595D01*
X113412292Y-44463598D01*
X113229040Y-44640717D01*
X113229032Y-44640726D01*
X113072903Y-44842145D01*
X113072892Y-44842161D01*
X112947062Y-45063777D01*
X112947058Y-45063785D01*
X112854095Y-45301077D01*
X112854091Y-45301089D01*
X112795897Y-45549210D01*
X112795896Y-45549215D01*
X112773656Y-45803099D01*
X110703048Y-45803099D01*
X110706503Y-45547315D01*
X110706949Y-45538300D01*
X110744837Y-45096238D01*
X110745935Y-45087248D01*
X110749662Y-45063781D01*
X110815521Y-44649060D01*
X110817258Y-44640199D01*
X110918188Y-44208129D01*
X110920557Y-44199421D01*
X111052298Y-43775749D01*
X111055283Y-43767241D01*
X111217173Y-43354105D01*
X111220767Y-43345825D01*
X111351648Y-43071710D01*
X111399050Y-43018855D01*
X111465352Y-43000000D01*
X120874000Y-43000000D01*
X120942121Y-43020002D01*
G37*
%TD.AperFunction*%
%TD*%
%TA.AperFunction,Conductor*%
%TO.N,PACK-*%
G36*
X198241621Y-49824602D02*
G01*
X198288114Y-49878258D01*
X198299500Y-49930600D01*
X198299500Y-61837863D01*
X198279498Y-61905984D01*
X198275284Y-61912133D01*
X196868071Y-63840650D01*
X196868070Y-63840651D01*
X196858239Y-63854122D01*
X196853627Y-63857291D01*
X196834867Y-63886150D01*
X196832846Y-63888921D01*
X196832841Y-63888930D01*
X196814524Y-63914034D01*
X196812784Y-63917788D01*
X196804116Y-63933459D01*
X195550557Y-65862011D01*
X195550558Y-65862012D01*
X195543355Y-65873094D01*
X195530024Y-65886426D01*
X195521827Y-65906213D01*
X195515505Y-65915940D01*
X195515505Y-65915941D01*
X195510157Y-65924169D01*
X195510156Y-65924171D01*
X195509127Y-65929711D01*
X195501660Y-65954902D01*
X195499500Y-65960115D01*
X195499500Y-65969929D01*
X195497380Y-65992943D01*
X195495587Y-66002589D01*
X195495587Y-66002591D01*
X195496756Y-66008097D01*
X195499500Y-66034248D01*
X195499500Y-114387514D01*
X195496101Y-114414705D01*
X195499500Y-114427065D01*
X195499500Y-114439885D01*
X195506983Y-114457951D01*
X195512061Y-114472750D01*
X195517248Y-114491609D01*
X195517249Y-114491611D01*
X195517250Y-114491614D01*
X195517251Y-114491615D01*
X195521299Y-114499690D01*
X195525021Y-114506089D01*
X195530022Y-114513573D01*
X195543848Y-114527398D01*
X195554212Y-114539136D01*
X198271841Y-118033232D01*
X198272958Y-118034667D01*
X198298992Y-118100719D01*
X198299500Y-118112024D01*
X198299500Y-128230273D01*
X198279498Y-128298394D01*
X198225842Y-128344887D01*
X198173642Y-128356273D01*
X110826642Y-128454858D01*
X110758499Y-128434933D01*
X110711946Y-128381330D01*
X110700500Y-128328858D01*
X110700500Y-123781321D01*
X111352000Y-123781321D01*
X111352000Y-124018678D01*
X111389133Y-124253129D01*
X111462480Y-124478867D01*
X111570246Y-124690368D01*
X111629230Y-124771556D01*
X111629232Y-124771556D01*
X112375841Y-124024946D01*
X112394075Y-124092993D01*
X112459901Y-124207007D01*
X112552993Y-124300099D01*
X112667007Y-124365925D01*
X112735051Y-124384157D01*
X111988442Y-125130766D01*
X112069636Y-125189756D01*
X112069637Y-125189757D01*
X112281132Y-125297519D01*
X112506870Y-125370866D01*
X112741321Y-125408000D01*
X112978679Y-125408000D01*
X113213129Y-125370866D01*
X113438867Y-125297519D01*
X113650367Y-125189754D01*
X113722728Y-125137181D01*
X123207787Y-125137181D01*
X123207787Y-125362819D01*
X123243084Y-125585679D01*
X123243085Y-125585684D01*
X123312808Y-125800269D01*
X123312809Y-125800272D01*
X123312810Y-125800273D01*
X123358239Y-125889433D01*
X123415250Y-126001321D01*
X123443810Y-126040630D01*
X123547874Y-126183863D01*
X123547876Y-126183865D01*
X123547878Y-126183868D01*
X123707418Y-126343408D01*
X123707421Y-126343410D01*
X123707424Y-126343413D01*
X123889969Y-126476039D01*
X124091014Y-126578477D01*
X124305608Y-126648203D01*
X124528468Y-126683500D01*
X124528471Y-126683500D01*
X124754103Y-126683500D01*
X124754106Y-126683500D01*
X124976966Y-126648203D01*
X125191560Y-126578477D01*
X125392605Y-126476039D01*
X125575150Y-126343413D01*
X125734700Y-126183863D01*
X125867326Y-126001318D01*
X125969764Y-125800273D01*
X126039490Y-125585679D01*
X126074787Y-125362819D01*
X126074787Y-125137181D01*
X126065416Y-125078016D01*
X135291500Y-125078016D01*
X135291500Y-125301983D01*
X135320731Y-125524020D01*
X135320733Y-125524027D01*
X135378698Y-125740358D01*
X135464405Y-125947272D01*
X135464406Y-125947273D01*
X135464411Y-125947283D01*
X135495610Y-126001321D01*
X135576386Y-126141228D01*
X135676690Y-126271947D01*
X135712725Y-126318909D01*
X135712734Y-126318919D01*
X135871080Y-126477265D01*
X135871090Y-126477274D01*
X135871091Y-126477275D01*
X136048772Y-126613614D01*
X136242728Y-126725595D01*
X136449642Y-126811302D01*
X136665973Y-126869267D01*
X136665977Y-126869267D01*
X136665979Y-126869268D01*
X136723204Y-126876801D01*
X136888019Y-126898500D01*
X136888026Y-126898500D01*
X137111974Y-126898500D01*
X137111981Y-126898500D01*
X137312656Y-126872080D01*
X137334020Y-126869268D01*
X137334020Y-126869267D01*
X137334027Y-126869267D01*
X137550358Y-126811302D01*
X137757272Y-126725595D01*
X137951228Y-126613614D01*
X138128909Y-126477275D01*
X138287275Y-126318909D01*
X138423614Y-126141228D01*
X138535595Y-125947272D01*
X138621302Y-125740358D01*
X138679267Y-125524027D01*
X138708500Y-125301981D01*
X138708500Y-125078019D01*
X138697536Y-124994739D01*
X142741500Y-124994739D01*
X142741500Y-125225260D01*
X142771587Y-125453794D01*
X142771588Y-125453800D01*
X142771589Y-125453802D01*
X142831251Y-125676464D01*
X142919465Y-125889433D01*
X142919466Y-125889434D01*
X142919471Y-125889444D01*
X143006759Y-126040630D01*
X143034724Y-126089066D01*
X143107464Y-126183863D01*
X143175053Y-126271947D01*
X143175062Y-126271957D01*
X143338042Y-126434937D01*
X143338052Y-126434946D01*
X143338053Y-126434947D01*
X143520934Y-126575276D01*
X143720567Y-126690535D01*
X143933536Y-126778749D01*
X144156198Y-126838411D01*
X144156204Y-126838411D01*
X144156205Y-126838412D01*
X144182425Y-126841863D01*
X144384742Y-126868500D01*
X144384749Y-126868500D01*
X145615251Y-126868500D01*
X145615258Y-126868500D01*
X145843802Y-126838411D01*
X146066464Y-126778749D01*
X146279433Y-126690535D01*
X146479066Y-126575276D01*
X146661947Y-126434947D01*
X146824947Y-126271947D01*
X146965276Y-126089066D01*
X147080535Y-125889433D01*
X147168749Y-125676464D01*
X147228411Y-125453802D01*
X147258500Y-125225258D01*
X147258500Y-125078016D01*
X157291500Y-125078016D01*
X157291500Y-125301983D01*
X157320731Y-125524020D01*
X157320733Y-125524027D01*
X157378698Y-125740358D01*
X157464405Y-125947272D01*
X157464406Y-125947273D01*
X157464411Y-125947283D01*
X157495610Y-126001321D01*
X157576386Y-126141228D01*
X157676690Y-126271947D01*
X157712725Y-126318909D01*
X157712734Y-126318919D01*
X157871080Y-126477265D01*
X157871090Y-126477274D01*
X157871091Y-126477275D01*
X158048772Y-126613614D01*
X158242728Y-126725595D01*
X158449642Y-126811302D01*
X158665973Y-126869267D01*
X158665977Y-126869267D01*
X158665979Y-126869268D01*
X158723204Y-126876801D01*
X158888019Y-126898500D01*
X158888026Y-126898500D01*
X159111974Y-126898500D01*
X159111981Y-126898500D01*
X159312656Y-126872080D01*
X159334020Y-126869268D01*
X159334020Y-126869267D01*
X159334027Y-126869267D01*
X159550358Y-126811302D01*
X159757272Y-126725595D01*
X159951228Y-126613614D01*
X160128909Y-126477275D01*
X160287275Y-126318909D01*
X160423614Y-126141228D01*
X160535595Y-125947272D01*
X160621302Y-125740358D01*
X160679267Y-125524027D01*
X160708500Y-125301981D01*
X160708500Y-125078019D01*
X160697536Y-124994739D01*
X164741500Y-124994739D01*
X164741500Y-125225260D01*
X164771587Y-125453794D01*
X164771588Y-125453800D01*
X164771589Y-125453802D01*
X164831251Y-125676464D01*
X164919465Y-125889433D01*
X164919466Y-125889434D01*
X164919471Y-125889444D01*
X165006759Y-126040630D01*
X165034724Y-126089066D01*
X165107464Y-126183863D01*
X165175053Y-126271947D01*
X165175062Y-126271957D01*
X165338042Y-126434937D01*
X165338052Y-126434946D01*
X165338053Y-126434947D01*
X165520934Y-126575276D01*
X165720567Y-126690535D01*
X165933536Y-126778749D01*
X166156198Y-126838411D01*
X166156204Y-126838411D01*
X166156205Y-126838412D01*
X166182425Y-126841863D01*
X166384742Y-126868500D01*
X166384749Y-126868500D01*
X167615251Y-126868500D01*
X167615258Y-126868500D01*
X167843802Y-126838411D01*
X168066464Y-126778749D01*
X168279433Y-126690535D01*
X168479066Y-126575276D01*
X168661947Y-126434947D01*
X168824947Y-126271947D01*
X168965276Y-126089066D01*
X169080535Y-125889433D01*
X169168749Y-125676464D01*
X169228411Y-125453802D01*
X169258500Y-125225258D01*
X169258500Y-125137181D01*
X185566500Y-125137181D01*
X185566500Y-125362819D01*
X185601797Y-125585679D01*
X185601798Y-125585684D01*
X185671521Y-125800269D01*
X185671522Y-125800272D01*
X185671523Y-125800273D01*
X185716952Y-125889433D01*
X185773963Y-126001321D01*
X185802523Y-126040630D01*
X185906587Y-126183863D01*
X185906589Y-126183865D01*
X185906591Y-126183868D01*
X186066131Y-126343408D01*
X186066134Y-126343410D01*
X186066137Y-126343413D01*
X186248682Y-126476039D01*
X186449727Y-126578477D01*
X186664321Y-126648203D01*
X186887181Y-126683500D01*
X186887184Y-126683500D01*
X187112816Y-126683500D01*
X187112819Y-126683500D01*
X187335679Y-126648203D01*
X187550273Y-126578477D01*
X187751318Y-126476039D01*
X187933863Y-126343413D01*
X188093413Y-126183863D01*
X188226039Y-126001318D01*
X188328477Y-125800273D01*
X188398203Y-125585679D01*
X188433500Y-125362819D01*
X188433500Y-125137181D01*
X188432565Y-125131278D01*
X190241500Y-125131278D01*
X190241500Y-125368722D01*
X190275863Y-125585684D01*
X190278645Y-125603246D01*
X190352016Y-125829058D01*
X190352018Y-125829063D01*
X190459815Y-126040627D01*
X190599380Y-126232722D01*
X190599382Y-126232724D01*
X190599384Y-126232727D01*
X190767272Y-126400615D01*
X190767275Y-126400617D01*
X190767278Y-126400620D01*
X190959373Y-126540185D01*
X191170937Y-126647982D01*
X191396759Y-126721356D01*
X191631278Y-126758500D01*
X191631281Y-126758500D01*
X191868719Y-126758500D01*
X191868722Y-126758500D01*
X192103241Y-126721356D01*
X192329063Y-126647982D01*
X192540627Y-126540185D01*
X192732722Y-126400620D01*
X192900620Y-126232722D01*
X193040185Y-126040627D01*
X193147982Y-125829063D01*
X193221356Y-125603241D01*
X193258500Y-125368722D01*
X193258500Y-125131278D01*
X193221356Y-124896759D01*
X193147982Y-124670937D01*
X193040185Y-124459373D01*
X192900620Y-124267278D01*
X192900617Y-124267275D01*
X192900615Y-124267272D01*
X192732727Y-124099384D01*
X192732724Y-124099382D01*
X192732722Y-124099380D01*
X192556227Y-123971149D01*
X192540630Y-123959817D01*
X192540629Y-123959816D01*
X192540627Y-123959815D01*
X192329063Y-123852018D01*
X192329060Y-123852017D01*
X192329058Y-123852016D01*
X192103246Y-123778645D01*
X192103242Y-123778644D01*
X192103241Y-123778644D01*
X191868722Y-123741500D01*
X191631278Y-123741500D01*
X191396759Y-123778644D01*
X191396753Y-123778645D01*
X191170941Y-123852016D01*
X191170935Y-123852019D01*
X190959369Y-123959817D01*
X190767275Y-124099382D01*
X190767272Y-124099384D01*
X190599384Y-124267272D01*
X190599382Y-124267275D01*
X190459817Y-124459369D01*
X190352019Y-124670935D01*
X190352016Y-124670941D01*
X190278645Y-124896753D01*
X190278644Y-124896758D01*
X190278644Y-124896759D01*
X190241500Y-125131278D01*
X188432565Y-125131278D01*
X188398203Y-124914321D01*
X188328477Y-124699727D01*
X188226039Y-124498682D01*
X188093413Y-124316137D01*
X188093410Y-124316134D01*
X188093408Y-124316131D01*
X187933868Y-124156591D01*
X187933865Y-124156589D01*
X187933863Y-124156587D01*
X187751318Y-124023961D01*
X187550273Y-123921523D01*
X187550272Y-123921522D01*
X187550269Y-123921521D01*
X187335684Y-123851798D01*
X187335680Y-123851797D01*
X187335679Y-123851797D01*
X187112819Y-123816500D01*
X186887181Y-123816500D01*
X186664321Y-123851797D01*
X186664315Y-123851798D01*
X186449730Y-123921521D01*
X186248678Y-124023963D01*
X186066134Y-124156589D01*
X186066131Y-124156591D01*
X185906591Y-124316131D01*
X185906589Y-124316134D01*
X185773963Y-124498678D01*
X185671521Y-124699730D01*
X185601798Y-124914315D01*
X185601797Y-124914320D01*
X185601797Y-124914321D01*
X185566500Y-125137181D01*
X169258500Y-125137181D01*
X169258500Y-124994742D01*
X169228411Y-124766198D01*
X169168749Y-124543536D01*
X169080535Y-124330567D01*
X168965276Y-124130934D01*
X168824947Y-123948053D01*
X168824946Y-123948052D01*
X168824937Y-123948042D01*
X168661957Y-123785062D01*
X168661947Y-123785053D01*
X168653595Y-123778644D01*
X168479066Y-123644724D01*
X168389466Y-123592993D01*
X168279444Y-123529471D01*
X168279439Y-123529468D01*
X168279433Y-123529465D01*
X168066464Y-123441251D01*
X167843802Y-123381589D01*
X167843800Y-123381588D01*
X167843794Y-123381587D01*
X167615260Y-123351500D01*
X167615258Y-123351500D01*
X166384742Y-123351500D01*
X166384739Y-123351500D01*
X166156205Y-123381587D01*
X166156198Y-123381589D01*
X165933536Y-123441251D01*
X165765791Y-123510733D01*
X165720565Y-123529466D01*
X165720555Y-123529471D01*
X165520938Y-123644721D01*
X165338052Y-123785053D01*
X165338042Y-123785062D01*
X165175062Y-123948042D01*
X165175053Y-123948052D01*
X165034721Y-124130938D01*
X164919471Y-124330555D01*
X164919466Y-124330565D01*
X164831251Y-124543536D01*
X164771587Y-124766205D01*
X164741500Y-124994739D01*
X160697536Y-124994739D01*
X160679267Y-124855973D01*
X160621302Y-124639642D01*
X160535595Y-124432728D01*
X160423614Y-124238772D01*
X160287275Y-124061091D01*
X160287274Y-124061090D01*
X160287265Y-124061080D01*
X160128919Y-123902734D01*
X160128909Y-123902725D01*
X160062826Y-123852018D01*
X159951228Y-123766386D01*
X159951223Y-123766383D01*
X159757283Y-123654411D01*
X159757278Y-123654408D01*
X159757272Y-123654405D01*
X159550358Y-123568698D01*
X159334027Y-123510733D01*
X159334020Y-123510731D01*
X159111983Y-123481500D01*
X159111981Y-123481500D01*
X158888019Y-123481500D01*
X158888016Y-123481500D01*
X158665979Y-123510731D01*
X158449642Y-123568698D01*
X158242726Y-123654406D01*
X158242716Y-123654411D01*
X158048776Y-123766383D01*
X157871090Y-123902725D01*
X157871080Y-123902734D01*
X157712734Y-124061080D01*
X157712725Y-124061090D01*
X157576383Y-124238776D01*
X157464411Y-124432716D01*
X157464406Y-124432726D01*
X157464405Y-124432728D01*
X157437086Y-124498682D01*
X157378698Y-124639642D01*
X157320731Y-124855979D01*
X157291500Y-125078016D01*
X147258500Y-125078016D01*
X147258500Y-124994742D01*
X147228411Y-124766198D01*
X147168749Y-124543536D01*
X147080535Y-124330567D01*
X147028772Y-124240911D01*
X147012034Y-124171915D01*
X147030674Y-124115356D01*
X147029353Y-124114650D01*
X147032268Y-124109195D01*
X147032270Y-124109189D01*
X147032272Y-124109187D01*
X147089449Y-123971149D01*
X147118598Y-123824607D01*
X147118598Y-123675197D01*
X147118598Y-116848521D01*
X150841500Y-116848521D01*
X150841500Y-117131478D01*
X150878431Y-117411998D01*
X150878432Y-117412004D01*
X150878433Y-117412006D01*
X150951666Y-117685316D01*
X151059947Y-117946728D01*
X151059948Y-117946729D01*
X151059953Y-117946740D01*
X151201424Y-118191776D01*
X151373667Y-118416245D01*
X151373686Y-118416266D01*
X151573733Y-118616313D01*
X151573743Y-118616322D01*
X151573749Y-118616328D01*
X151573752Y-118616330D01*
X151573754Y-118616332D01*
X151798223Y-118788575D01*
X152043259Y-118930046D01*
X152043263Y-118930047D01*
X152043272Y-118930053D01*
X152304684Y-119038334D01*
X152577994Y-119111567D01*
X152578000Y-119111567D01*
X152578001Y-119111568D01*
X152610187Y-119115805D01*
X152858524Y-119148500D01*
X152858531Y-119148500D01*
X153141469Y-119148500D01*
X153141476Y-119148500D01*
X153422006Y-119111567D01*
X153695316Y-119038334D01*
X153956728Y-118930053D01*
X154201771Y-118788578D01*
X154201771Y-118788577D01*
X154201776Y-118788575D01*
X154332137Y-118688544D01*
X154426251Y-118616328D01*
X154626328Y-118416251D01*
X154698544Y-118322137D01*
X154798575Y-118191776D01*
X154923890Y-117974724D01*
X154940053Y-117946728D01*
X155048334Y-117685316D01*
X155121567Y-117412006D01*
X155158500Y-117131476D01*
X155158500Y-116848524D01*
X155158500Y-116848521D01*
X172841500Y-116848521D01*
X172841500Y-117131478D01*
X172878431Y-117411998D01*
X172878432Y-117412004D01*
X172878433Y-117412006D01*
X172951666Y-117685316D01*
X173059947Y-117946728D01*
X173059948Y-117946729D01*
X173059953Y-117946740D01*
X173201424Y-118191776D01*
X173373667Y-118416245D01*
X173373686Y-118416266D01*
X173573733Y-118616313D01*
X173573743Y-118616322D01*
X173573749Y-118616328D01*
X173573752Y-118616330D01*
X173573754Y-118616332D01*
X173798223Y-118788575D01*
X174043259Y-118930046D01*
X174043263Y-118930047D01*
X174043272Y-118930053D01*
X174304684Y-119038334D01*
X174577994Y-119111567D01*
X174578000Y-119111567D01*
X174578001Y-119111568D01*
X174610187Y-119115805D01*
X174858524Y-119148500D01*
X174858531Y-119148500D01*
X175141469Y-119148500D01*
X175141476Y-119148500D01*
X175422006Y-119111567D01*
X175695316Y-119038334D01*
X175956728Y-118930053D01*
X176201771Y-118788578D01*
X176201771Y-118788577D01*
X176201776Y-118788575D01*
X176332137Y-118688544D01*
X176426251Y-118616328D01*
X176626328Y-118416251D01*
X176698544Y-118322137D01*
X176798575Y-118191776D01*
X176923890Y-117974724D01*
X176940053Y-117946728D01*
X177048334Y-117685316D01*
X177121567Y-117412006D01*
X177158500Y-117131476D01*
X177158500Y-116848524D01*
X177121567Y-116567994D01*
X177048334Y-116294684D01*
X176940053Y-116033272D01*
X176940047Y-116033263D01*
X176940046Y-116033259D01*
X176798575Y-115788223D01*
X176626332Y-115563754D01*
X176626330Y-115563752D01*
X176626328Y-115563749D01*
X176626322Y-115563743D01*
X176626313Y-115563733D01*
X176426266Y-115363686D01*
X176426245Y-115363667D01*
X176201776Y-115191424D01*
X175956740Y-115049953D01*
X175956732Y-115049949D01*
X175956728Y-115049947D01*
X175695316Y-114941666D01*
X175422006Y-114868433D01*
X175422004Y-114868432D01*
X175421998Y-114868431D01*
X175141478Y-114831500D01*
X175141476Y-114831500D01*
X174858524Y-114831500D01*
X174858521Y-114831500D01*
X174578001Y-114868431D01*
X174304684Y-114941666D01*
X174043270Y-115049948D01*
X174043259Y-115049953D01*
X173798223Y-115191424D01*
X173573754Y-115363667D01*
X173573733Y-115363686D01*
X173373686Y-115563733D01*
X173373667Y-115563754D01*
X173201424Y-115788223D01*
X173059953Y-116033259D01*
X173059948Y-116033270D01*
X172951666Y-116294684D01*
X172878431Y-116568001D01*
X172841500Y-116848521D01*
X155158500Y-116848521D01*
X155121567Y-116567994D01*
X155048334Y-116294684D01*
X154940053Y-116033272D01*
X154940047Y-116033263D01*
X154940046Y-116033259D01*
X154798575Y-115788223D01*
X154626332Y-115563754D01*
X154626330Y-115563752D01*
X154626328Y-115563749D01*
X154626322Y-115563743D01*
X154626313Y-115563733D01*
X154426266Y-115363686D01*
X154426245Y-115363667D01*
X154201776Y-115191424D01*
X153956740Y-115049953D01*
X153956732Y-115049949D01*
X153956728Y-115049947D01*
X153695316Y-114941666D01*
X153422006Y-114868433D01*
X153422004Y-114868432D01*
X153421998Y-114868431D01*
X153141478Y-114831500D01*
X153141476Y-114831500D01*
X152858524Y-114831500D01*
X152858521Y-114831500D01*
X152578001Y-114868431D01*
X152304684Y-114941666D01*
X152043270Y-115049948D01*
X152043259Y-115049953D01*
X151798223Y-115191424D01*
X151573754Y-115363667D01*
X151573733Y-115363686D01*
X151373686Y-115563733D01*
X151373667Y-115563754D01*
X151201424Y-115788223D01*
X151059953Y-116033259D01*
X151059948Y-116033270D01*
X150951666Y-116294684D01*
X150878431Y-116568001D01*
X150841500Y-116848521D01*
X147118598Y-116848521D01*
X147118598Y-109137181D01*
X185566500Y-109137181D01*
X185566500Y-109362819D01*
X185601797Y-109585679D01*
X185601798Y-109585684D01*
X185671521Y-109800269D01*
X185671522Y-109800272D01*
X185671523Y-109800273D01*
X185773961Y-110001318D01*
X185906587Y-110183863D01*
X185906589Y-110183865D01*
X185906591Y-110183868D01*
X186066131Y-110343408D01*
X186066134Y-110343410D01*
X186066137Y-110343413D01*
X186248682Y-110476039D01*
X186449727Y-110578477D01*
X186664321Y-110648203D01*
X186887181Y-110683500D01*
X186887184Y-110683500D01*
X187112816Y-110683500D01*
X187112819Y-110683500D01*
X187335679Y-110648203D01*
X187550273Y-110578477D01*
X187751318Y-110476039D01*
X187933863Y-110343413D01*
X188093413Y-110183863D01*
X188226039Y-110001318D01*
X188328477Y-109800273D01*
X188398203Y-109585679D01*
X188433500Y-109362819D01*
X188433500Y-109137181D01*
X188398203Y-108914321D01*
X188328477Y-108699727D01*
X188226039Y-108498682D01*
X188093413Y-108316137D01*
X188093410Y-108316134D01*
X188093408Y-108316131D01*
X187933868Y-108156591D01*
X187933865Y-108156589D01*
X187933863Y-108156587D01*
X187751318Y-108023961D01*
X187550273Y-107921523D01*
X187550272Y-107921522D01*
X187550269Y-107921521D01*
X187335684Y-107851798D01*
X187335680Y-107851797D01*
X187335679Y-107851797D01*
X187112819Y-107816500D01*
X186887181Y-107816500D01*
X186664321Y-107851797D01*
X186664315Y-107851798D01*
X186449730Y-107921521D01*
X186248678Y-108023963D01*
X186066134Y-108156589D01*
X186066131Y-108156591D01*
X185906591Y-108316131D01*
X185906589Y-108316134D01*
X185773963Y-108498678D01*
X185671521Y-108699730D01*
X185601798Y-108914315D01*
X185601797Y-108914320D01*
X185601797Y-108914321D01*
X185566500Y-109137181D01*
X147118598Y-109137181D01*
X147118598Y-98604144D01*
X147138600Y-98536023D01*
X147192256Y-98489530D01*
X147262530Y-98479426D01*
X147310742Y-98496902D01*
X147372997Y-98535302D01*
X147535762Y-98589236D01*
X147555854Y-98591288D01*
X147636218Y-98599500D01*
X147636226Y-98599500D01*
X148183978Y-98599500D01*
X148257034Y-98592035D01*
X148284434Y-98589236D01*
X148447199Y-98535302D01*
X148593138Y-98445285D01*
X148707019Y-98331403D01*
X148769329Y-98297380D01*
X148796113Y-98294500D01*
X149145148Y-98294500D01*
X149213269Y-98314502D01*
X149234238Y-98331400D01*
X149449328Y-98546490D01*
X149528664Y-98599500D01*
X149557180Y-98618554D01*
X149558273Y-98619006D01*
X149564156Y-98622883D01*
X149583501Y-98645730D01*
X149604866Y-98666710D01*
X149608567Y-98675333D01*
X149610034Y-98677065D01*
X149610355Y-98679497D01*
X149615125Y-98690608D01*
X149619271Y-98703912D01*
X149619271Y-98703913D01*
X149708282Y-98851155D01*
X149708286Y-98851160D01*
X149829937Y-98972811D01*
X149829942Y-98972815D01*
X149829943Y-98972816D01*
X149977185Y-99061827D01*
X150141449Y-99113013D01*
X150212833Y-99119500D01*
X150727362Y-99119499D01*
X150798747Y-99113013D01*
X150807851Y-99110175D01*
X150878836Y-99109001D01*
X150934437Y-99141373D01*
X151266555Y-99473491D01*
X151374407Y-99545555D01*
X151494247Y-99595194D01*
X151621467Y-99620500D01*
X157451631Y-99620500D01*
X157578851Y-99595194D01*
X157698691Y-99545555D01*
X157734477Y-99521643D01*
X157806538Y-99473495D01*
X157806539Y-99473493D01*
X157806543Y-99473491D01*
X158013074Y-99266959D01*
X158018542Y-99261491D01*
X158018547Y-99261488D01*
X158125957Y-99154077D01*
X167511491Y-89768544D01*
X167583555Y-89660692D01*
X167596648Y-89629083D01*
X167633193Y-89540858D01*
X167633193Y-89540855D01*
X167633195Y-89540852D01*
X167658500Y-89413631D01*
X167658500Y-89283918D01*
X167658500Y-82654170D01*
X167678502Y-82586049D01*
X167732158Y-82539556D01*
X167784500Y-82528170D01*
X168549138Y-82528170D01*
X168549144Y-82528170D01*
X168549151Y-82528169D01*
X168549155Y-82528169D01*
X168609702Y-82521660D01*
X168609705Y-82521659D01*
X168609707Y-82521659D01*
X168746710Y-82470559D01*
X168747305Y-82470114D01*
X168863767Y-82382931D01*
X168951393Y-82265877D01*
X168951393Y-82265876D01*
X168951395Y-82265874D01*
X169002495Y-82128871D01*
X169008613Y-82071969D01*
X169009005Y-82068319D01*
X169009006Y-82068302D01*
X169009006Y-80871037D01*
X169009005Y-80871020D01*
X169002496Y-80810473D01*
X169002494Y-80810465D01*
X168951484Y-80673705D01*
X168951395Y-80673466D01*
X168951394Y-80673464D01*
X168951393Y-80673462D01*
X168858367Y-80549195D01*
X168860163Y-80547849D01*
X168832098Y-80496453D01*
X168837163Y-80425638D01*
X168859451Y-80390957D01*
X168858367Y-80390145D01*
X168951393Y-80265877D01*
X168951393Y-80265876D01*
X168951395Y-80265874D01*
X169002495Y-80128871D01*
X169009006Y-80068308D01*
X169009006Y-78871032D01*
X169002507Y-78810576D01*
X169002496Y-78810473D01*
X169002494Y-78810465D01*
X168951484Y-78673705D01*
X168951395Y-78673466D01*
X168951394Y-78673464D01*
X168951393Y-78673462D01*
X168858367Y-78549195D01*
X168860163Y-78547849D01*
X168832098Y-78496453D01*
X168837163Y-78425638D01*
X168859451Y-78390957D01*
X168858367Y-78390145D01*
X168951393Y-78265877D01*
X168951393Y-78265876D01*
X168951395Y-78265874D01*
X169002495Y-78128871D01*
X169009006Y-78068308D01*
X169009006Y-76871032D01*
X169002507Y-76810576D01*
X169002496Y-76810473D01*
X169002494Y-76810465D01*
X168951484Y-76673705D01*
X168951395Y-76673466D01*
X168951394Y-76673464D01*
X168951393Y-76673462D01*
X168858367Y-76549195D01*
X168860163Y-76547849D01*
X168832098Y-76496453D01*
X168837163Y-76425638D01*
X168859451Y-76390957D01*
X168858367Y-76390145D01*
X168951393Y-76265877D01*
X168951393Y-76265876D01*
X168951395Y-76265874D01*
X169002495Y-76128871D01*
X169009006Y-76068308D01*
X169009006Y-74871032D01*
X169002507Y-74810576D01*
X169002496Y-74810473D01*
X169002494Y-74810465D01*
X168951484Y-74673705D01*
X168951395Y-74673466D01*
X168951394Y-74673464D01*
X168951393Y-74673462D01*
X168858367Y-74549195D01*
X168860163Y-74547849D01*
X168832098Y-74496453D01*
X168837163Y-74425638D01*
X168859451Y-74390957D01*
X168858367Y-74390145D01*
X168951393Y-74265877D01*
X168951393Y-74265876D01*
X168951395Y-74265874D01*
X169002495Y-74128871D01*
X169009006Y-74068308D01*
X169009006Y-72871032D01*
X169002507Y-72810576D01*
X169002496Y-72810473D01*
X169002494Y-72810465D01*
X168951484Y-72673705D01*
X168951395Y-72673466D01*
X168951394Y-72673464D01*
X168951393Y-72673462D01*
X168858367Y-72549195D01*
X168860163Y-72547849D01*
X168832098Y-72496453D01*
X168837163Y-72425638D01*
X168859451Y-72390957D01*
X168858367Y-72390145D01*
X168951393Y-72265877D01*
X168951393Y-72265876D01*
X168951395Y-72265874D01*
X169002495Y-72128871D01*
X169009006Y-72068308D01*
X169009006Y-70871032D01*
X169002507Y-70810576D01*
X169002496Y-70810473D01*
X169002494Y-70810465D01*
X168951484Y-70673705D01*
X168951395Y-70673466D01*
X168951394Y-70673464D01*
X168951393Y-70673462D01*
X168863767Y-70556408D01*
X168746713Y-70468782D01*
X168746708Y-70468780D01*
X168609710Y-70417681D01*
X168609702Y-70417679D01*
X168549155Y-70411170D01*
X168549144Y-70411170D01*
X167784500Y-70411170D01*
X167716379Y-70391168D01*
X167669886Y-70337512D01*
X167658500Y-70285170D01*
X167658500Y-68887181D01*
X185566500Y-68887181D01*
X185566500Y-69112819D01*
X185601797Y-69335679D01*
X185601798Y-69335684D01*
X185671521Y-69550269D01*
X185671522Y-69550272D01*
X185671523Y-69550273D01*
X185773961Y-69751318D01*
X185906587Y-69933863D01*
X185906589Y-69933865D01*
X185906591Y-69933868D01*
X186066131Y-70093408D01*
X186066134Y-70093410D01*
X186066137Y-70093413D01*
X186248682Y-70226039D01*
X186449727Y-70328477D01*
X186664321Y-70398203D01*
X186887181Y-70433500D01*
X186887184Y-70433500D01*
X187112816Y-70433500D01*
X187112819Y-70433500D01*
X187335679Y-70398203D01*
X187550273Y-70328477D01*
X187751318Y-70226039D01*
X187933863Y-70093413D01*
X188093413Y-69933863D01*
X188226039Y-69751318D01*
X188328477Y-69550273D01*
X188398203Y-69335679D01*
X188433500Y-69112819D01*
X188433500Y-68887181D01*
X188398203Y-68664321D01*
X188328477Y-68449727D01*
X188226039Y-68248682D01*
X188093413Y-68066137D01*
X188093410Y-68066134D01*
X188093408Y-68066131D01*
X187933868Y-67906591D01*
X187933865Y-67906589D01*
X187933863Y-67906587D01*
X187751318Y-67773961D01*
X187550273Y-67671523D01*
X187550272Y-67671522D01*
X187550269Y-67671521D01*
X187335684Y-67601798D01*
X187335680Y-67601797D01*
X187335679Y-67601797D01*
X187112819Y-67566500D01*
X186887181Y-67566500D01*
X186664321Y-67601797D01*
X186664315Y-67601798D01*
X186449730Y-67671521D01*
X186248678Y-67773963D01*
X186066134Y-67906589D01*
X186066131Y-67906591D01*
X185906591Y-68066131D01*
X185906589Y-68066134D01*
X185773963Y-68248678D01*
X185671521Y-68449730D01*
X185601798Y-68664315D01*
X185601797Y-68664320D01*
X185601797Y-68664321D01*
X185566500Y-68887181D01*
X167658500Y-68887181D01*
X167658500Y-55533305D01*
X167678502Y-55465184D01*
X167732158Y-55418691D01*
X167768054Y-55408383D01*
X167843802Y-55398411D01*
X168066464Y-55338749D01*
X168279433Y-55250535D01*
X168479066Y-55135276D01*
X168661947Y-54994947D01*
X168824947Y-54831947D01*
X168965276Y-54649066D01*
X169080535Y-54449433D01*
X169168749Y-54236464D01*
X169228411Y-54013802D01*
X169258500Y-53785258D01*
X169258500Y-53554742D01*
X169228411Y-53326198D01*
X169168749Y-53103536D01*
X169080535Y-52890567D01*
X169078580Y-52887181D01*
X185566500Y-52887181D01*
X185566500Y-53112819D01*
X185601797Y-53335679D01*
X185601798Y-53335684D01*
X185671521Y-53550269D01*
X185671522Y-53550272D01*
X185671523Y-53550273D01*
X185773961Y-53751318D01*
X185906587Y-53933863D01*
X185906589Y-53933865D01*
X185906591Y-53933868D01*
X186066131Y-54093408D01*
X186066134Y-54093410D01*
X186066137Y-54093413D01*
X186248682Y-54226039D01*
X186449727Y-54328477D01*
X186664321Y-54398203D01*
X186887181Y-54433500D01*
X186887184Y-54433500D01*
X187112816Y-54433500D01*
X187112819Y-54433500D01*
X187335679Y-54398203D01*
X187550273Y-54328477D01*
X187751318Y-54226039D01*
X187933863Y-54093413D01*
X188093413Y-53933863D01*
X188226039Y-53751318D01*
X188328477Y-53550273D01*
X188398203Y-53335679D01*
X188433500Y-53112819D01*
X188433500Y-52887181D01*
X188398203Y-52664321D01*
X188387467Y-52631278D01*
X193741500Y-52631278D01*
X193741500Y-52868722D01*
X193744960Y-52890565D01*
X193778645Y-53103246D01*
X193851087Y-53326198D01*
X193852018Y-53329063D01*
X193855391Y-53335682D01*
X193959817Y-53540630D01*
X193966820Y-53550269D01*
X194099380Y-53732722D01*
X194099382Y-53732724D01*
X194099384Y-53732727D01*
X194267272Y-53900615D01*
X194267275Y-53900617D01*
X194267278Y-53900620D01*
X194459373Y-54040185D01*
X194670937Y-54147982D01*
X194896759Y-54221356D01*
X195131278Y-54258500D01*
X195131281Y-54258500D01*
X195368719Y-54258500D01*
X195368722Y-54258500D01*
X195603241Y-54221356D01*
X195829063Y-54147982D01*
X196040627Y-54040185D01*
X196232722Y-53900620D01*
X196400620Y-53732722D01*
X196540185Y-53540627D01*
X196647982Y-53329063D01*
X196721356Y-53103241D01*
X196758500Y-52868722D01*
X196758500Y-52631278D01*
X196721356Y-52396759D01*
X196647982Y-52170937D01*
X196540185Y-51959373D01*
X196400620Y-51767278D01*
X196400617Y-51767275D01*
X196400615Y-51767272D01*
X196232727Y-51599384D01*
X196232724Y-51599382D01*
X196232722Y-51599380D01*
X196040627Y-51459815D01*
X195829063Y-51352018D01*
X195829060Y-51352017D01*
X195829058Y-51352016D01*
X195603246Y-51278645D01*
X195603242Y-51278644D01*
X195603241Y-51278644D01*
X195368722Y-51241500D01*
X195131278Y-51241500D01*
X194896759Y-51278644D01*
X194896753Y-51278645D01*
X194670941Y-51352016D01*
X194670935Y-51352019D01*
X194459369Y-51459817D01*
X194267275Y-51599382D01*
X194267272Y-51599384D01*
X194099384Y-51767272D01*
X194099382Y-51767275D01*
X193959817Y-51959369D01*
X193852019Y-52170935D01*
X193852016Y-52170941D01*
X193778645Y-52396753D01*
X193778644Y-52396758D01*
X193778644Y-52396759D01*
X193741500Y-52631278D01*
X188387467Y-52631278D01*
X188328477Y-52449727D01*
X188226039Y-52248682D01*
X188093413Y-52066137D01*
X188093410Y-52066134D01*
X188093408Y-52066131D01*
X187933868Y-51906591D01*
X187933865Y-51906589D01*
X187933863Y-51906587D01*
X187751318Y-51773961D01*
X187550273Y-51671523D01*
X187550272Y-51671522D01*
X187550269Y-51671521D01*
X187335684Y-51601798D01*
X187335680Y-51601797D01*
X187335679Y-51601797D01*
X187112819Y-51566500D01*
X186887181Y-51566500D01*
X186664321Y-51601797D01*
X186664315Y-51601798D01*
X186449730Y-51671521D01*
X186248678Y-51773963D01*
X186066134Y-51906589D01*
X186066131Y-51906591D01*
X185906591Y-52066131D01*
X185906589Y-52066134D01*
X185773963Y-52248678D01*
X185671521Y-52449730D01*
X185601798Y-52664315D01*
X185601798Y-52664317D01*
X185601797Y-52664321D01*
X185566500Y-52887181D01*
X169078580Y-52887181D01*
X168965276Y-52690934D01*
X168824947Y-52508053D01*
X168824946Y-52508052D01*
X168824937Y-52508042D01*
X168661957Y-52345062D01*
X168661947Y-52345053D01*
X168536353Y-52248682D01*
X168479066Y-52204724D01*
X168420542Y-52170935D01*
X168279444Y-52089471D01*
X168279439Y-52089468D01*
X168279433Y-52089465D01*
X168066464Y-52001251D01*
X167843802Y-51941589D01*
X167843800Y-51941588D01*
X167843794Y-51941587D01*
X167615260Y-51911500D01*
X167615258Y-51911500D01*
X166384742Y-51911500D01*
X166384739Y-51911500D01*
X166156205Y-51941587D01*
X166156198Y-51941589D01*
X165933536Y-52001251D01*
X165776894Y-52066134D01*
X165720565Y-52089466D01*
X165720555Y-52089471D01*
X165520938Y-52204721D01*
X165338052Y-52345053D01*
X165338042Y-52345062D01*
X165175062Y-52508042D01*
X165175053Y-52508052D01*
X165034721Y-52690938D01*
X164919471Y-52890555D01*
X164919466Y-52890565D01*
X164919465Y-52890567D01*
X164831373Y-53103241D01*
X164831251Y-53103536D01*
X164771587Y-53326205D01*
X164741500Y-53554739D01*
X164741500Y-53785260D01*
X164771587Y-54013794D01*
X164771588Y-54013800D01*
X164771589Y-54013802D01*
X164831251Y-54236464D01*
X164919465Y-54449433D01*
X165034724Y-54649066D01*
X165175053Y-54831947D01*
X165175062Y-54831957D01*
X165338042Y-54994937D01*
X165338052Y-54994946D01*
X165338053Y-54994947D01*
X165520934Y-55135276D01*
X165720567Y-55250535D01*
X165933536Y-55338749D01*
X166156198Y-55398411D01*
X166156204Y-55398411D01*
X166156205Y-55398412D01*
X166191655Y-55403079D01*
X166231945Y-55408383D01*
X166296872Y-55437105D01*
X166335965Y-55496369D01*
X166341500Y-55533305D01*
X166341500Y-70285170D01*
X166321498Y-70353291D01*
X166267842Y-70399784D01*
X166215500Y-70411170D01*
X165951856Y-70411170D01*
X165891309Y-70417679D01*
X165891301Y-70417681D01*
X165754303Y-70468780D01*
X165754298Y-70468782D01*
X165637244Y-70556408D01*
X165549618Y-70673462D01*
X165549616Y-70673467D01*
X165498517Y-70810465D01*
X165498515Y-70810473D01*
X165492006Y-70871020D01*
X165492006Y-72068319D01*
X165498515Y-72128866D01*
X165498517Y-72128874D01*
X165549616Y-72265872D01*
X165549618Y-72265877D01*
X165642645Y-72390145D01*
X165640848Y-72391490D01*
X165668914Y-72442887D01*
X165663849Y-72513702D01*
X165641560Y-72548382D01*
X165642645Y-72549195D01*
X165549618Y-72673462D01*
X165549616Y-72673467D01*
X165498517Y-72810465D01*
X165498515Y-72810473D01*
X165492006Y-72871020D01*
X165492006Y-74068319D01*
X165498515Y-74128866D01*
X165498517Y-74128874D01*
X165549616Y-74265872D01*
X165549618Y-74265877D01*
X165642645Y-74390145D01*
X165640848Y-74391490D01*
X165668914Y-74442887D01*
X165663849Y-74513702D01*
X165641560Y-74548382D01*
X165642645Y-74549195D01*
X165549618Y-74673462D01*
X165549616Y-74673467D01*
X165498517Y-74810465D01*
X165498515Y-74810473D01*
X165492006Y-74871020D01*
X165492006Y-76068319D01*
X165498515Y-76128866D01*
X165498517Y-76128874D01*
X165549616Y-76265872D01*
X165549618Y-76265877D01*
X165642645Y-76390145D01*
X165640848Y-76391490D01*
X165668914Y-76442887D01*
X165663849Y-76513702D01*
X165641560Y-76548382D01*
X165642645Y-76549195D01*
X165549618Y-76673462D01*
X165549616Y-76673467D01*
X165498517Y-76810465D01*
X165498515Y-76810473D01*
X165492006Y-76871020D01*
X165492006Y-78068319D01*
X165498515Y-78128866D01*
X165498517Y-78128874D01*
X165549616Y-78265872D01*
X165549618Y-78265877D01*
X165642645Y-78390145D01*
X165640848Y-78391490D01*
X165668914Y-78442887D01*
X165663849Y-78513702D01*
X165641560Y-78548382D01*
X165642645Y-78549195D01*
X165549618Y-78673462D01*
X165549616Y-78673467D01*
X165498517Y-78810465D01*
X165498515Y-78810473D01*
X165492006Y-78871020D01*
X165492006Y-80068319D01*
X165498515Y-80128866D01*
X165498517Y-80128874D01*
X165549616Y-80265872D01*
X165549618Y-80265877D01*
X165642645Y-80390145D01*
X165640848Y-80391490D01*
X165668914Y-80442887D01*
X165663849Y-80513702D01*
X165641560Y-80548382D01*
X165642645Y-80549195D01*
X165549618Y-80673462D01*
X165549616Y-80673467D01*
X165498517Y-80810465D01*
X165498515Y-80810473D01*
X165492006Y-80871020D01*
X165492006Y-82068319D01*
X165498515Y-82128866D01*
X165498517Y-82128874D01*
X165549616Y-82265872D01*
X165549618Y-82265877D01*
X165637244Y-82382931D01*
X165754298Y-82470557D01*
X165754300Y-82470558D01*
X165754302Y-82470559D01*
X165813381Y-82492594D01*
X165891301Y-82521658D01*
X165891309Y-82521660D01*
X165951856Y-82528169D01*
X165951861Y-82528169D01*
X165951868Y-82528170D01*
X166215500Y-82528170D01*
X166283621Y-82548172D01*
X166330114Y-82601828D01*
X166341500Y-82654170D01*
X166341500Y-89023823D01*
X166321498Y-89091944D01*
X166304595Y-89112918D01*
X159877217Y-95540295D01*
X159814905Y-95574321D01*
X159744090Y-95569256D01*
X159687254Y-95526709D01*
X159662443Y-95460189D01*
X159662511Y-95441308D01*
X159663598Y-95427505D01*
X159663598Y-94994488D01*
X159663597Y-94994487D01*
X159660660Y-94957170D01*
X159660660Y-94957169D01*
X159660611Y-94956999D01*
X159614243Y-94797398D01*
X159614241Y-94797396D01*
X159614241Y-94797393D01*
X159529554Y-94654197D01*
X159529553Y-94654196D01*
X159529551Y-94654192D01*
X159529547Y-94654188D01*
X159528806Y-94653232D01*
X159528454Y-94652336D01*
X159525516Y-94647368D01*
X159526317Y-94646894D01*
X159502854Y-94587149D01*
X159516750Y-94517525D01*
X159528806Y-94498766D01*
X159529543Y-94497813D01*
X159529551Y-94497806D01*
X159614243Y-94354600D01*
X159660660Y-94194830D01*
X159663597Y-94157510D01*
X159663598Y-94157510D01*
X159663598Y-93724488D01*
X159663597Y-93724487D01*
X159660660Y-93687170D01*
X159660660Y-93687169D01*
X159632279Y-93589479D01*
X159614243Y-93527398D01*
X159614241Y-93527396D01*
X159614241Y-93527393D01*
X159529554Y-93384197D01*
X159529553Y-93384196D01*
X159529551Y-93384192D01*
X159529547Y-93384188D01*
X159528806Y-93383232D01*
X159528454Y-93382336D01*
X159525516Y-93377368D01*
X159526317Y-93376894D01*
X159502854Y-93317149D01*
X159516750Y-93247525D01*
X159528806Y-93228766D01*
X159529543Y-93227813D01*
X159529551Y-93227806D01*
X159614243Y-93084600D01*
X159660660Y-92924830D01*
X159663597Y-92887510D01*
X159663598Y-92887510D01*
X159663598Y-92454488D01*
X159663597Y-92454487D01*
X159660660Y-92417170D01*
X159660660Y-92417169D01*
X159660660Y-92417168D01*
X159614243Y-92257398D01*
X159614241Y-92257396D01*
X159614241Y-92257393D01*
X159529553Y-92114195D01*
X159529548Y-92114188D01*
X159411908Y-91996548D01*
X159411901Y-91996543D01*
X159261876Y-91907818D01*
X159263239Y-91905512D01*
X159218625Y-91868394D01*
X159197262Y-91800687D01*
X159215896Y-91732180D01*
X159268609Y-91684621D01*
X159273204Y-91682523D01*
X159278691Y-91680147D01*
X159278700Y-91680145D01*
X159421906Y-91595453D01*
X159539552Y-91477807D01*
X159624244Y-91334601D01*
X159670661Y-91174831D01*
X159673598Y-91137511D01*
X159673599Y-91137511D01*
X159673599Y-90704489D01*
X159673598Y-90704488D01*
X159670661Y-90667171D01*
X159670661Y-90667170D01*
X159670661Y-90667169D01*
X159624244Y-90507399D01*
X159624242Y-90507397D01*
X159624242Y-90507394D01*
X159539555Y-90364198D01*
X159539554Y-90364197D01*
X159539552Y-90364193D01*
X159539548Y-90364189D01*
X159538807Y-90363233D01*
X159538455Y-90362337D01*
X159535517Y-90357369D01*
X159536318Y-90356895D01*
X159512855Y-90297150D01*
X159526751Y-90227526D01*
X159538807Y-90208767D01*
X159539544Y-90207814D01*
X159539552Y-90207807D01*
X159624244Y-90064601D01*
X159670661Y-89904831D01*
X159673598Y-89867511D01*
X159673599Y-89867511D01*
X159673599Y-89434489D01*
X159673598Y-89434488D01*
X159671956Y-89413631D01*
X159670661Y-89397169D01*
X159624244Y-89237399D01*
X159624242Y-89237397D01*
X159624242Y-89237394D01*
X159539555Y-89094198D01*
X159539554Y-89094197D01*
X159539552Y-89094193D01*
X159539548Y-89094189D01*
X159538807Y-89093233D01*
X159538455Y-89092337D01*
X159535517Y-89087369D01*
X159536318Y-89086895D01*
X159512855Y-89027150D01*
X159526751Y-88957526D01*
X159538807Y-88938767D01*
X159539544Y-88937814D01*
X159539552Y-88937807D01*
X159624244Y-88794601D01*
X159670661Y-88634831D01*
X159673598Y-88597511D01*
X159673599Y-88597511D01*
X159673599Y-88164489D01*
X159673598Y-88164488D01*
X159670661Y-88127171D01*
X159670661Y-88127170D01*
X159670661Y-88127169D01*
X159624244Y-87967399D01*
X159624242Y-87967397D01*
X159624242Y-87967394D01*
X159539555Y-87824198D01*
X159539554Y-87824197D01*
X159539552Y-87824193D01*
X159539548Y-87824189D01*
X159538807Y-87823233D01*
X159538455Y-87822337D01*
X159535517Y-87817369D01*
X159536318Y-87816895D01*
X159512855Y-87757150D01*
X159526751Y-87687526D01*
X159538807Y-87668767D01*
X159539544Y-87667814D01*
X159539552Y-87667807D01*
X159624244Y-87524601D01*
X159670661Y-87364831D01*
X159673598Y-87327511D01*
X159673599Y-87327511D01*
X159673599Y-86894489D01*
X159673598Y-86894488D01*
X159670661Y-86857171D01*
X159670661Y-86857170D01*
X159629611Y-86715874D01*
X159624244Y-86697399D01*
X159624242Y-86697397D01*
X159624242Y-86697394D01*
X159539554Y-86554196D01*
X159539549Y-86554189D01*
X159421909Y-86436549D01*
X159421902Y-86436544D01*
X159278704Y-86351856D01*
X159118928Y-86305437D01*
X159081610Y-86302500D01*
X159081601Y-86302500D01*
X157479406Y-86302500D01*
X157411285Y-86282498D01*
X157364792Y-86228842D01*
X157354688Y-86158568D01*
X157384182Y-86093988D01*
X157390311Y-86087405D01*
X157513982Y-85963733D01*
X157513987Y-85963727D01*
X157603944Y-85817883D01*
X157657839Y-85655240D01*
X157657841Y-85655228D01*
X157668096Y-85554851D01*
X157668097Y-85554851D01*
X157668097Y-85509999D01*
X156964097Y-85509999D01*
X156964097Y-86239000D01*
X156971753Y-86246656D01*
X157005779Y-86308968D01*
X157000714Y-86379783D01*
X156963438Y-86430482D01*
X156963897Y-86430941D01*
X156960890Y-86433947D01*
X156959894Y-86435303D01*
X156958292Y-86436545D01*
X156840648Y-86554189D01*
X156840643Y-86554196D01*
X156755955Y-86697394D01*
X156709536Y-86857170D01*
X156709536Y-86857171D01*
X156706599Y-86894488D01*
X156706599Y-87327511D01*
X156709536Y-87364828D01*
X156709536Y-87364829D01*
X156755955Y-87524605D01*
X156840642Y-87667802D01*
X156841397Y-87668775D01*
X156841751Y-87669676D01*
X156844681Y-87674631D01*
X156843881Y-87675103D01*
X156867343Y-87734861D01*
X156853441Y-87804483D01*
X156841397Y-87823225D01*
X156840642Y-87824197D01*
X156755955Y-87967394D01*
X156709536Y-88127170D01*
X156709536Y-88127171D01*
X156706599Y-88164488D01*
X156706599Y-88597511D01*
X156709536Y-88634828D01*
X156709536Y-88634829D01*
X156755955Y-88794605D01*
X156840642Y-88937802D01*
X156841397Y-88938775D01*
X156841751Y-88939676D01*
X156844681Y-88944631D01*
X156843881Y-88945103D01*
X156867343Y-89004861D01*
X156853441Y-89074483D01*
X156841397Y-89093225D01*
X156840642Y-89094197D01*
X156755955Y-89237394D01*
X156709536Y-89397170D01*
X156709536Y-89397171D01*
X156706599Y-89434488D01*
X156706599Y-89867511D01*
X156709536Y-89904828D01*
X156709536Y-89904829D01*
X156755955Y-90064605D01*
X156840642Y-90207802D01*
X156841397Y-90208775D01*
X156841751Y-90209676D01*
X156844681Y-90214631D01*
X156843881Y-90215103D01*
X156867343Y-90274861D01*
X156853441Y-90344483D01*
X156841397Y-90363225D01*
X156840642Y-90364197D01*
X156755955Y-90507394D01*
X156709536Y-90667170D01*
X156709536Y-90667171D01*
X156706599Y-90704488D01*
X156706599Y-91137511D01*
X156709536Y-91174828D01*
X156709536Y-91174829D01*
X156755955Y-91334605D01*
X156840643Y-91477803D01*
X156840648Y-91477810D01*
X156958288Y-91595450D01*
X156958295Y-91595455D01*
X157108321Y-91684181D01*
X157106956Y-91686488D01*
X157151559Y-91723586D01*
X157172933Y-91791289D01*
X157154312Y-91859800D01*
X157101607Y-91907368D01*
X157097003Y-91909471D01*
X157091492Y-91911855D01*
X156948294Y-91996543D01*
X156948287Y-91996548D01*
X156830647Y-92114188D01*
X156830642Y-92114195D01*
X156745954Y-92257393D01*
X156699535Y-92417169D01*
X156699535Y-92417170D01*
X156696598Y-92454487D01*
X156696598Y-92887510D01*
X156699535Y-92924827D01*
X156699535Y-92924828D01*
X156745954Y-93084604D01*
X156830641Y-93227801D01*
X156831396Y-93228774D01*
X156831750Y-93229675D01*
X156834680Y-93234630D01*
X156833880Y-93235102D01*
X156857342Y-93294860D01*
X156843440Y-93364482D01*
X156831396Y-93383224D01*
X156830641Y-93384196D01*
X156745954Y-93527393D01*
X156699535Y-93687169D01*
X156699535Y-93687170D01*
X156696598Y-93724487D01*
X156696598Y-94157510D01*
X156699535Y-94194827D01*
X156699535Y-94194828D01*
X156745954Y-94354604D01*
X156830641Y-94497801D01*
X156831396Y-94498774D01*
X156831750Y-94499675D01*
X156834680Y-94504630D01*
X156833880Y-94505102D01*
X156857342Y-94564860D01*
X156843440Y-94634482D01*
X156831396Y-94653224D01*
X156830641Y-94654196D01*
X156745954Y-94797393D01*
X156699535Y-94957169D01*
X156699535Y-94957170D01*
X156696598Y-94994487D01*
X156696598Y-95427510D01*
X156699535Y-95464827D01*
X156699535Y-95464828D01*
X156745954Y-95624604D01*
X156830641Y-95767801D01*
X156831396Y-95768774D01*
X156831750Y-95769675D01*
X156834680Y-95774630D01*
X156833880Y-95775102D01*
X156857342Y-95834860D01*
X156843440Y-95904482D01*
X156831396Y-95923224D01*
X156830641Y-95924196D01*
X156745954Y-96067393D01*
X156699535Y-96227169D01*
X156699535Y-96227170D01*
X156696598Y-96264487D01*
X156696598Y-96697510D01*
X156699535Y-96734827D01*
X156699535Y-96734828D01*
X156745954Y-96894604D01*
X156830642Y-97037802D01*
X156830647Y-97037809D01*
X156948287Y-97155449D01*
X156948294Y-97155454D01*
X157091492Y-97240142D01*
X157091495Y-97240142D01*
X157091497Y-97240144D01*
X157251267Y-97286561D01*
X157288586Y-97289498D01*
X157288587Y-97289499D01*
X157288596Y-97289499D01*
X157823824Y-97289499D01*
X157891945Y-97309501D01*
X157938438Y-97363157D01*
X157948542Y-97433431D01*
X157919048Y-97498011D01*
X157912919Y-97504594D01*
X157685067Y-97732446D01*
X157254617Y-98162896D01*
X157254614Y-98162899D01*
X157216657Y-98200857D01*
X157162896Y-98254618D01*
X157162894Y-98254620D01*
X157162885Y-98254627D01*
X157150918Y-98266595D01*
X157088606Y-98300621D01*
X157061823Y-98303500D01*
X152246098Y-98303500D01*
X152237272Y-98300908D01*
X152228166Y-98302218D01*
X152203740Y-98291062D01*
X152177977Y-98283498D01*
X152171952Y-98276544D01*
X152163586Y-98272724D01*
X152149071Y-98250138D01*
X152131484Y-98229842D01*
X152129159Y-98219155D01*
X152125202Y-98212998D01*
X152120098Y-98177500D01*
X152120098Y-98008000D01*
X152140100Y-97939879D01*
X152193756Y-97893386D01*
X152246098Y-97882000D01*
X153028097Y-97882000D01*
X153028097Y-97803778D01*
X153021616Y-97732446D01*
X152970464Y-97568293D01*
X152917199Y-97480182D01*
X152899076Y-97411538D01*
X152920941Y-97343992D01*
X152940914Y-97327623D01*
X152939194Y-97325903D01*
X152976098Y-97288999D01*
X152976098Y-97288998D01*
X153484098Y-97288998D01*
X154121554Y-97288998D01*
X154158848Y-97286064D01*
X154318498Y-97239680D01*
X154461599Y-97155050D01*
X154461601Y-97155049D01*
X154579148Y-97037502D01*
X154579149Y-97037500D01*
X154663779Y-96894400D01*
X154710091Y-96734999D01*
X153484098Y-96734999D01*
X153484098Y-97288998D01*
X152976098Y-97288998D01*
X152976098Y-96226999D01*
X153484098Y-96226999D01*
X154710090Y-96226999D01*
X154663779Y-96067597D01*
X154579150Y-95924498D01*
X154578165Y-95923228D01*
X154577702Y-95922049D01*
X154575117Y-95917678D01*
X154575821Y-95917261D01*
X154552216Y-95857144D01*
X154566114Y-95787521D01*
X154578165Y-95768770D01*
X154579150Y-95767499D01*
X154663779Y-95624400D01*
X154710091Y-95464999D01*
X153484098Y-95464999D01*
X153484098Y-96226999D01*
X152976098Y-96226999D01*
X152976098Y-94956999D01*
X153484098Y-94956999D01*
X154710090Y-94956999D01*
X154663779Y-94797597D01*
X154579150Y-94654498D01*
X154578165Y-94653228D01*
X154577702Y-94652049D01*
X154575117Y-94647678D01*
X154575821Y-94647261D01*
X154552216Y-94587144D01*
X154566114Y-94517521D01*
X154578165Y-94498770D01*
X154579150Y-94497499D01*
X154663779Y-94354400D01*
X154710091Y-94194999D01*
X153484098Y-94194999D01*
X153484098Y-94956999D01*
X152976098Y-94956999D01*
X152976098Y-94066999D01*
X152996100Y-93998878D01*
X153049756Y-93952385D01*
X153102098Y-93940999D01*
X153230098Y-93940999D01*
X153230098Y-93812999D01*
X153250100Y-93744878D01*
X153303756Y-93698385D01*
X153356098Y-93686999D01*
X154710090Y-93686999D01*
X154663779Y-93527597D01*
X154579151Y-93384499D01*
X154578483Y-93383638D01*
X154578169Y-93382839D01*
X154575117Y-93377678D01*
X154575949Y-93377185D01*
X154552535Y-93317553D01*
X154566434Y-93247930D01*
X154578488Y-93229175D01*
X154579542Y-93227814D01*
X154579551Y-93227806D01*
X154664243Y-93084600D01*
X154710660Y-92924830D01*
X154713597Y-92887510D01*
X154713598Y-92887510D01*
X154713598Y-92454488D01*
X154713597Y-92454487D01*
X154710660Y-92417170D01*
X154710660Y-92417169D01*
X154710660Y-92417168D01*
X154664243Y-92257398D01*
X154664241Y-92257396D01*
X154664241Y-92257393D01*
X154579553Y-92114195D01*
X154579548Y-92114188D01*
X154461908Y-91996548D01*
X154461901Y-91996543D01*
X154311876Y-91907818D01*
X154313239Y-91905512D01*
X154268625Y-91868394D01*
X154247262Y-91800687D01*
X154265896Y-91732180D01*
X154318609Y-91684621D01*
X154323204Y-91682523D01*
X154328691Y-91680147D01*
X154328700Y-91680145D01*
X154471906Y-91595453D01*
X154589552Y-91477807D01*
X154674244Y-91334601D01*
X154720661Y-91174831D01*
X154723598Y-91137511D01*
X154723599Y-91137511D01*
X154723599Y-90704489D01*
X154723598Y-90704488D01*
X154720661Y-90667171D01*
X154720661Y-90667170D01*
X154720661Y-90667169D01*
X154674244Y-90507399D01*
X154674242Y-90507397D01*
X154674242Y-90507394D01*
X154589555Y-90364198D01*
X154589554Y-90364197D01*
X154589552Y-90364193D01*
X154589548Y-90364189D01*
X154588807Y-90363233D01*
X154588455Y-90362337D01*
X154585517Y-90357369D01*
X154586318Y-90356895D01*
X154562855Y-90297150D01*
X154576751Y-90227526D01*
X154588807Y-90208767D01*
X154589544Y-90207814D01*
X154589552Y-90207807D01*
X154674244Y-90064601D01*
X154720661Y-89904831D01*
X154723598Y-89867511D01*
X154723599Y-89867511D01*
X154723599Y-89434489D01*
X154723598Y-89434488D01*
X154721956Y-89413631D01*
X154720661Y-89397169D01*
X154674244Y-89237399D01*
X154674242Y-89237397D01*
X154674242Y-89237394D01*
X154589555Y-89094198D01*
X154589554Y-89094197D01*
X154589552Y-89094193D01*
X154589548Y-89094189D01*
X154588807Y-89093233D01*
X154588455Y-89092337D01*
X154585517Y-89087369D01*
X154586318Y-89086895D01*
X154562855Y-89027150D01*
X154576751Y-88957526D01*
X154588807Y-88938767D01*
X154589544Y-88937814D01*
X154589552Y-88937807D01*
X154674244Y-88794601D01*
X154720661Y-88634831D01*
X154723598Y-88597511D01*
X154723599Y-88597511D01*
X154723599Y-88581471D01*
X154743601Y-88513350D01*
X154760504Y-88492376D01*
X155839158Y-87413722D01*
X155839165Y-87413715D01*
X155871828Y-87364831D01*
X155922174Y-87289483D01*
X155979351Y-87151445D01*
X156008500Y-87004905D01*
X156008500Y-86294755D01*
X156028502Y-86226634D01*
X156082158Y-86180141D01*
X156152432Y-86170037D01*
X156174133Y-86175151D01*
X156335855Y-86228741D01*
X156335867Y-86228743D01*
X156436244Y-86238998D01*
X156436244Y-86238999D01*
X156456097Y-86238999D01*
X156456097Y-85001999D01*
X156964097Y-85001999D01*
X157668097Y-85001999D01*
X157668097Y-84957146D01*
X157657841Y-84856769D01*
X157657839Y-84856757D01*
X157603944Y-84694114D01*
X157513987Y-84548270D01*
X157513982Y-84548264D01*
X157392831Y-84427113D01*
X157392825Y-84427108D01*
X157382955Y-84421020D01*
X162092006Y-84421020D01*
X162092006Y-86518319D01*
X162098515Y-86578866D01*
X162098517Y-86578874D01*
X162149616Y-86715872D01*
X162149618Y-86715877D01*
X162237244Y-86832931D01*
X162354298Y-86920557D01*
X162354300Y-86920558D01*
X162354302Y-86920559D01*
X162413381Y-86942594D01*
X162491301Y-86971658D01*
X162491309Y-86971660D01*
X162551856Y-86978169D01*
X162551861Y-86978169D01*
X162551868Y-86978170D01*
X162551874Y-86978170D01*
X164849138Y-86978170D01*
X164849144Y-86978170D01*
X164849151Y-86978169D01*
X164849155Y-86978169D01*
X164909702Y-86971660D01*
X164909705Y-86971659D01*
X164909707Y-86971659D01*
X165046710Y-86920559D01*
X165081524Y-86894498D01*
X165163767Y-86832931D01*
X165251393Y-86715877D01*
X165251393Y-86715876D01*
X165251395Y-86715874D01*
X165302495Y-86578871D01*
X165309006Y-86518308D01*
X165309006Y-84421032D01*
X165309005Y-84421020D01*
X165302496Y-84360473D01*
X165302494Y-84360465D01*
X165269870Y-84272999D01*
X165251395Y-84223466D01*
X165251394Y-84223464D01*
X165251393Y-84223462D01*
X165163767Y-84106408D01*
X165046713Y-84018782D01*
X165046708Y-84018780D01*
X164909710Y-83967681D01*
X164909702Y-83967679D01*
X164849155Y-83961170D01*
X164849144Y-83961170D01*
X162551868Y-83961170D01*
X162551856Y-83961170D01*
X162491309Y-83967679D01*
X162491301Y-83967681D01*
X162354303Y-84018780D01*
X162354298Y-84018782D01*
X162237244Y-84106408D01*
X162149618Y-84223462D01*
X162149616Y-84223467D01*
X162098517Y-84360465D01*
X162098515Y-84360473D01*
X162092006Y-84421020D01*
X157382955Y-84421020D01*
X157246981Y-84337151D01*
X157084338Y-84283256D01*
X157084326Y-84283254D01*
X156983949Y-84272999D01*
X156964097Y-84272999D01*
X156964097Y-85001999D01*
X156456097Y-85001999D01*
X156456097Y-84272999D01*
X156436244Y-84272999D01*
X156335867Y-84283254D01*
X156335855Y-84283256D01*
X156173212Y-84337151D01*
X156027368Y-84427108D01*
X156027364Y-84427111D01*
X156024539Y-84429937D01*
X156022123Y-84431255D01*
X156021611Y-84431661D01*
X156021541Y-84431573D01*
X155962225Y-84463958D01*
X155891409Y-84458889D01*
X155846350Y-84429927D01*
X155843137Y-84426714D01*
X155697198Y-84336697D01*
X155534433Y-84282763D01*
X155534430Y-84282762D01*
X155433977Y-84272499D01*
X155433969Y-84272499D01*
X155301468Y-84272499D01*
X155233347Y-84252497D01*
X155212377Y-84235598D01*
X154483612Y-83506833D01*
X154483611Y-83506832D01*
X154479235Y-83502456D01*
X154480338Y-83501352D01*
X154444689Y-83449003D01*
X154438596Y-83410295D01*
X154438596Y-82620454D01*
X154427984Y-82516573D01*
X154383700Y-82382931D01*
X154372212Y-82348261D01*
X154279127Y-82197347D01*
X154279126Y-82197346D01*
X154279121Y-82197340D01*
X154153755Y-82071974D01*
X154153749Y-82071969D01*
X154147747Y-82068267D01*
X158392506Y-82068267D01*
X158399011Y-82128763D01*
X158450061Y-82265634D01*
X158450061Y-82265635D01*
X158537601Y-82382574D01*
X158654540Y-82470114D01*
X158791412Y-82521164D01*
X158851908Y-82527669D01*
X158851921Y-82527670D01*
X159896506Y-82527670D01*
X160404506Y-82527670D01*
X161449091Y-82527670D01*
X161449103Y-82527669D01*
X161509599Y-82521164D01*
X161646470Y-82470114D01*
X161646471Y-82470114D01*
X161763410Y-82382574D01*
X161850950Y-82265635D01*
X161850950Y-82265634D01*
X161902000Y-82128763D01*
X161908505Y-82068267D01*
X161908506Y-82068255D01*
X161908506Y-81723670D01*
X160404506Y-81723670D01*
X160404506Y-82527670D01*
X159896506Y-82527670D01*
X159896506Y-81723670D01*
X158392506Y-81723670D01*
X158392506Y-82068267D01*
X154147747Y-82068267D01*
X154147728Y-82068255D01*
X154002835Y-81978884D01*
X153918679Y-81950998D01*
X153834524Y-81923112D01*
X153834517Y-81923111D01*
X153730650Y-81912499D01*
X152904552Y-81912499D01*
X152800671Y-81923111D01*
X152632358Y-81978884D01*
X152481444Y-82071969D01*
X152481438Y-82071974D01*
X152356072Y-82197340D01*
X152356067Y-82197346D01*
X152262982Y-82348261D01*
X152207210Y-82516571D01*
X152207209Y-82516578D01*
X152196597Y-82620445D01*
X152196597Y-85571543D01*
X152207209Y-85675424D01*
X152262982Y-85843737D01*
X152356067Y-85994651D01*
X152356072Y-85994657D01*
X152448820Y-86087405D01*
X152482846Y-86149717D01*
X152477781Y-86220532D01*
X152435234Y-86277368D01*
X152368714Y-86302179D01*
X152359725Y-86302500D01*
X152348588Y-86302500D01*
X152311270Y-86305437D01*
X152311269Y-86305437D01*
X152151493Y-86351856D01*
X152010986Y-86434953D01*
X151946847Y-86452500D01*
X151685139Y-86452500D01*
X151557922Y-86477806D01*
X151557919Y-86477807D01*
X151438083Y-86527445D01*
X151330231Y-86599509D01*
X151330225Y-86599514D01*
X150301114Y-87628624D01*
X150301109Y-87628631D01*
X150238388Y-87722499D01*
X150229045Y-87736481D01*
X150179406Y-87856320D01*
X150179405Y-87856323D01*
X150154099Y-87983540D01*
X150154099Y-89508086D01*
X150134097Y-89576207D01*
X150080441Y-89622700D01*
X150063254Y-89629082D01*
X150036495Y-89636856D01*
X150036494Y-89636856D01*
X149893295Y-89721545D01*
X149893288Y-89721550D01*
X149775644Y-89839194D01*
X149774655Y-89840470D01*
X149773625Y-89841213D01*
X149770040Y-89844799D01*
X149769461Y-89844220D01*
X149717097Y-89882035D01*
X149646205Y-89885882D01*
X149584486Y-89850792D01*
X149575543Y-89840470D01*
X149574553Y-89839194D01*
X149456909Y-89721550D01*
X149456902Y-89721545D01*
X149313704Y-89636857D01*
X149153928Y-89590438D01*
X149116610Y-89587501D01*
X149116601Y-89587501D01*
X148853970Y-89587501D01*
X148785849Y-89567499D01*
X148764875Y-89550596D01*
X148188002Y-88973723D01*
X148153976Y-88911411D01*
X148151097Y-88884628D01*
X148151097Y-86238248D01*
X148171099Y-86170127D01*
X148210951Y-86131007D01*
X148213421Y-86129482D01*
X148228749Y-86120029D01*
X148354127Y-85994651D01*
X148447212Y-85843737D01*
X148502984Y-85675425D01*
X148513597Y-85571544D01*
X148513596Y-82620455D01*
X148502984Y-82516573D01*
X148447212Y-82348261D01*
X148354127Y-82197347D01*
X148354126Y-82197346D01*
X148354121Y-82197340D01*
X148228755Y-82071974D01*
X148228749Y-82071969D01*
X148222728Y-82068255D01*
X148077835Y-81978884D01*
X147993679Y-81950998D01*
X147909524Y-81923112D01*
X147909517Y-81923111D01*
X147805650Y-81912499D01*
X146979552Y-81912499D01*
X146875671Y-81923111D01*
X146707358Y-81978884D01*
X146556444Y-82071969D01*
X146556438Y-82071974D01*
X146431072Y-82197340D01*
X146431067Y-82197346D01*
X146337982Y-82348261D01*
X146282210Y-82516571D01*
X146282209Y-82516578D01*
X146271597Y-82620445D01*
X146271597Y-85571543D01*
X146282209Y-85675424D01*
X146337982Y-85843737D01*
X146431067Y-85994651D01*
X146431072Y-85994657D01*
X146556438Y-86120023D01*
X146556442Y-86120026D01*
X146556445Y-86120029D01*
X146556447Y-86120030D01*
X146574243Y-86131007D01*
X146621722Y-86183793D01*
X146634097Y-86238248D01*
X146634097Y-89325706D01*
X146663246Y-89472246D01*
X146663248Y-89472251D01*
X146720423Y-89610283D01*
X146720424Y-89610286D01*
X146732573Y-89628468D01*
X146753787Y-89696221D01*
X146735003Y-89764688D01*
X146697818Y-89803227D01*
X146692427Y-89806829D01*
X146692421Y-89806834D01*
X145750930Y-90748324D01*
X145709988Y-90809601D01*
X145709987Y-90809602D01*
X145667923Y-90872555D01*
X145610747Y-91010589D01*
X145610746Y-91010592D01*
X145581597Y-91157129D01*
X145581597Y-93629983D01*
X145561595Y-93698104D01*
X145544692Y-93719078D01*
X145535817Y-93727952D01*
X145535812Y-93727958D01*
X145445795Y-93873898D01*
X145391860Y-94036665D01*
X145381597Y-94137118D01*
X145381597Y-94734879D01*
X145381596Y-94734879D01*
X145391860Y-94835332D01*
X145391861Y-94835335D01*
X145445795Y-94998100D01*
X145535812Y-95144039D01*
X145539665Y-95150285D01*
X145537536Y-95151598D01*
X145559673Y-95206447D01*
X145546433Y-95276198D01*
X145541519Y-95284923D01*
X145455797Y-95423899D01*
X145401862Y-95586666D01*
X145391599Y-95687119D01*
X145391599Y-96284880D01*
X145391598Y-96284880D01*
X145401862Y-96385333D01*
X145401863Y-96385336D01*
X145455797Y-96548101D01*
X145545814Y-96694040D01*
X145564693Y-96712919D01*
X145579640Y-96740291D01*
X145596494Y-96766516D01*
X145597399Y-96772813D01*
X145598718Y-96775228D01*
X145601598Y-96802014D01*
X145601598Y-96809984D01*
X145581596Y-96878105D01*
X145564693Y-96899079D01*
X145555818Y-96907953D01*
X145555813Y-96907959D01*
X145465796Y-97053899D01*
X145411861Y-97216666D01*
X145401598Y-97317119D01*
X145401598Y-97914880D01*
X145401597Y-97914880D01*
X145411861Y-98015333D01*
X145411862Y-98015336D01*
X145465796Y-98178101D01*
X145555813Y-98324040D01*
X145564691Y-98332918D01*
X145598718Y-98395227D01*
X145601598Y-98422015D01*
X145601598Y-123225500D01*
X145581596Y-123293621D01*
X145527940Y-123340114D01*
X145475598Y-123351500D01*
X144384739Y-123351500D01*
X144156205Y-123381587D01*
X144156198Y-123381589D01*
X143933536Y-123441251D01*
X143765791Y-123510733D01*
X143720565Y-123529466D01*
X143720555Y-123529471D01*
X143520938Y-123644721D01*
X143338052Y-123785053D01*
X143338042Y-123785062D01*
X143175062Y-123948042D01*
X143175053Y-123948052D01*
X143034721Y-124130938D01*
X142919471Y-124330555D01*
X142919466Y-124330565D01*
X142831251Y-124543536D01*
X142771587Y-124766205D01*
X142741500Y-124994739D01*
X138697536Y-124994739D01*
X138679267Y-124855973D01*
X138621302Y-124639642D01*
X138535595Y-124432728D01*
X138423614Y-124238772D01*
X138287275Y-124061091D01*
X138287274Y-124061090D01*
X138287265Y-124061080D01*
X138128919Y-123902734D01*
X138128909Y-123902725D01*
X138062826Y-123852018D01*
X137951228Y-123766386D01*
X137951223Y-123766383D01*
X137757283Y-123654411D01*
X137757278Y-123654408D01*
X137757272Y-123654405D01*
X137550358Y-123568698D01*
X137334027Y-123510733D01*
X137334020Y-123510731D01*
X137111983Y-123481500D01*
X137111981Y-123481500D01*
X136888019Y-123481500D01*
X136888016Y-123481500D01*
X136665979Y-123510731D01*
X136449642Y-123568698D01*
X136242726Y-123654406D01*
X136242716Y-123654411D01*
X136048776Y-123766383D01*
X135871090Y-123902725D01*
X135871080Y-123902734D01*
X135712734Y-124061080D01*
X135712725Y-124061090D01*
X135576383Y-124238776D01*
X135464411Y-124432716D01*
X135464406Y-124432726D01*
X135464405Y-124432728D01*
X135437086Y-124498682D01*
X135378698Y-124639642D01*
X135320731Y-124855979D01*
X135291500Y-125078016D01*
X126065416Y-125078016D01*
X126039490Y-124914321D01*
X125969764Y-124699727D01*
X125867326Y-124498682D01*
X125734700Y-124316137D01*
X125734697Y-124316134D01*
X125734695Y-124316131D01*
X125575155Y-124156591D01*
X125575152Y-124156589D01*
X125575150Y-124156587D01*
X125392605Y-124023961D01*
X125191560Y-123921523D01*
X125191559Y-123921522D01*
X125191556Y-123921521D01*
X124976971Y-123851798D01*
X124976967Y-123851797D01*
X124976966Y-123851797D01*
X124754106Y-123816500D01*
X124528468Y-123816500D01*
X124305608Y-123851797D01*
X124305602Y-123851798D01*
X124091017Y-123921521D01*
X123889965Y-124023963D01*
X123707421Y-124156589D01*
X123707418Y-124156591D01*
X123547878Y-124316131D01*
X123547876Y-124316134D01*
X123415250Y-124498678D01*
X123312808Y-124699730D01*
X123243085Y-124914315D01*
X123243084Y-124914320D01*
X123243084Y-124914321D01*
X123207787Y-125137181D01*
X113722728Y-125137181D01*
X113731556Y-125130767D01*
X113731556Y-125130765D01*
X112984948Y-124384157D01*
X113052993Y-124365925D01*
X113167007Y-124300099D01*
X113260099Y-124207007D01*
X113325925Y-124092993D01*
X113344157Y-124024948D01*
X114090765Y-124771556D01*
X114090767Y-124771556D01*
X114149754Y-124690367D01*
X114257519Y-124478867D01*
X114330866Y-124253129D01*
X114368000Y-124018678D01*
X114368000Y-123781321D01*
X114330866Y-123546870D01*
X114257519Y-123321132D01*
X114149757Y-123109637D01*
X114149756Y-123109636D01*
X114090766Y-123028442D01*
X113344157Y-123775051D01*
X113325925Y-123707007D01*
X113260099Y-123592993D01*
X113167007Y-123499901D01*
X113052993Y-123434075D01*
X112984946Y-123415841D01*
X113731556Y-122669232D01*
X113731556Y-122669230D01*
X113650368Y-122610246D01*
X113438867Y-122502480D01*
X113213129Y-122429133D01*
X112978679Y-122392000D01*
X112741321Y-122392000D01*
X112506870Y-122429133D01*
X112281132Y-122502480D01*
X112069634Y-122610243D01*
X111988442Y-122669231D01*
X112735052Y-123415841D01*
X112667007Y-123434075D01*
X112552993Y-123499901D01*
X112459901Y-123592993D01*
X112394075Y-123707007D01*
X112375841Y-123775052D01*
X111629231Y-123028442D01*
X111570243Y-123109634D01*
X111462480Y-123321132D01*
X111389133Y-123546870D01*
X111352000Y-123781321D01*
X110700500Y-123781321D01*
X110700500Y-119881278D01*
X111491500Y-119881278D01*
X111491500Y-120118722D01*
X111528644Y-120353241D01*
X111528645Y-120353246D01*
X111602016Y-120579058D01*
X111602018Y-120579063D01*
X111709815Y-120790627D01*
X111849380Y-120982722D01*
X111849382Y-120982724D01*
X111849384Y-120982727D01*
X112017272Y-121150615D01*
X112017275Y-121150617D01*
X112017278Y-121150620D01*
X112209373Y-121290185D01*
X112420937Y-121397982D01*
X112646759Y-121471356D01*
X112881278Y-121508500D01*
X112881281Y-121508500D01*
X113118719Y-121508500D01*
X113118722Y-121508500D01*
X113353241Y-121471356D01*
X113579063Y-121397982D01*
X113790627Y-121290185D01*
X113982722Y-121150620D01*
X114150620Y-120982722D01*
X114290185Y-120790627D01*
X114397982Y-120579063D01*
X114471356Y-120353241D01*
X114508500Y-120118722D01*
X114508500Y-119881278D01*
X114471356Y-119646759D01*
X114397982Y-119420937D01*
X114290185Y-119209373D01*
X114150620Y-119017278D01*
X114150617Y-119017275D01*
X114150615Y-119017272D01*
X113982727Y-118849384D01*
X113982724Y-118849382D01*
X113982722Y-118849380D01*
X113790627Y-118709815D01*
X113579063Y-118602018D01*
X113579060Y-118602017D01*
X113579058Y-118602016D01*
X113353246Y-118528645D01*
X113353242Y-118528644D01*
X113353241Y-118528644D01*
X113118722Y-118491500D01*
X112881278Y-118491500D01*
X112646759Y-118528644D01*
X112646753Y-118528645D01*
X112420941Y-118602016D01*
X112420935Y-118602019D01*
X112209369Y-118709817D01*
X112017275Y-118849382D01*
X112017272Y-118849384D01*
X111849384Y-119017272D01*
X111849382Y-119017275D01*
X111709817Y-119209369D01*
X111602019Y-119420935D01*
X111602016Y-119420941D01*
X111528645Y-119646753D01*
X111528644Y-119646758D01*
X111528644Y-119646759D01*
X111491500Y-119881278D01*
X110700500Y-119881278D01*
X110700500Y-118108832D01*
X110720502Y-118040711D01*
X110725690Y-118033245D01*
X112151848Y-116131701D01*
X112169976Y-116113574D01*
X112175566Y-116100077D01*
X112184329Y-116088394D01*
X112188468Y-116072237D01*
X112194112Y-116055302D01*
X112200500Y-116039882D01*
X112200500Y-116025275D01*
X112204125Y-116011126D01*
X112200500Y-115985750D01*
X112200500Y-109137181D01*
X123207787Y-109137181D01*
X123207787Y-109362819D01*
X123243084Y-109585679D01*
X123243085Y-109585684D01*
X123312808Y-109800269D01*
X123312809Y-109800272D01*
X123312810Y-109800273D01*
X123415248Y-110001318D01*
X123547874Y-110183863D01*
X123547876Y-110183865D01*
X123547878Y-110183868D01*
X123707418Y-110343408D01*
X123707421Y-110343410D01*
X123707424Y-110343413D01*
X123889969Y-110476039D01*
X124091014Y-110578477D01*
X124305608Y-110648203D01*
X124528468Y-110683500D01*
X124528471Y-110683500D01*
X124754103Y-110683500D01*
X124754106Y-110683500D01*
X124976966Y-110648203D01*
X125191560Y-110578477D01*
X125392605Y-110476039D01*
X125575150Y-110343413D01*
X125734700Y-110183863D01*
X125867326Y-110001318D01*
X125969764Y-109800273D01*
X126039490Y-109585679D01*
X126074787Y-109362819D01*
X126074787Y-109137181D01*
X126039490Y-108914321D01*
X125969764Y-108699727D01*
X125867326Y-108498682D01*
X125734700Y-108316137D01*
X125734697Y-108316134D01*
X125734695Y-108316131D01*
X125575155Y-108156591D01*
X125575152Y-108156589D01*
X125575150Y-108156587D01*
X125392605Y-108023961D01*
X125191560Y-107921523D01*
X125191559Y-107921522D01*
X125191556Y-107921521D01*
X124976971Y-107851798D01*
X124976967Y-107851797D01*
X124976966Y-107851797D01*
X124754106Y-107816500D01*
X124528468Y-107816500D01*
X124305608Y-107851797D01*
X124305602Y-107851798D01*
X124091017Y-107921521D01*
X123889965Y-108023963D01*
X123707421Y-108156589D01*
X123707418Y-108156591D01*
X123547878Y-108316131D01*
X123547876Y-108316134D01*
X123415250Y-108498678D01*
X123312808Y-108699730D01*
X123243085Y-108914315D01*
X123243084Y-108914320D01*
X123243084Y-108914321D01*
X123207787Y-109137181D01*
X112200500Y-109137181D01*
X112200500Y-80068267D01*
X158392506Y-80068267D01*
X158399011Y-80128763D01*
X158450061Y-80265634D01*
X158450061Y-80265635D01*
X158543002Y-80389788D01*
X158541320Y-80391046D01*
X158569628Y-80442887D01*
X158564563Y-80513702D01*
X158542003Y-80548804D01*
X158543002Y-80549552D01*
X158450061Y-80673704D01*
X158450061Y-80673705D01*
X158399011Y-80810576D01*
X158392506Y-80871072D01*
X158392506Y-81215670D01*
X159896506Y-81215670D01*
X160404506Y-81215670D01*
X161908506Y-81215670D01*
X161908506Y-80871084D01*
X161908505Y-80871072D01*
X161902000Y-80810576D01*
X161850950Y-80673705D01*
X161850950Y-80673704D01*
X161758010Y-80549552D01*
X161759691Y-80548293D01*
X161731384Y-80496453D01*
X161736449Y-80425638D01*
X161759008Y-80390535D01*
X161758010Y-80389788D01*
X161850950Y-80265635D01*
X161850950Y-80265634D01*
X161902000Y-80128763D01*
X161908505Y-80068267D01*
X161908506Y-80068255D01*
X161908506Y-79723670D01*
X160404506Y-79723670D01*
X160404506Y-81215670D01*
X159896506Y-81215670D01*
X159896506Y-79723670D01*
X158392506Y-79723670D01*
X158392506Y-80068267D01*
X112200500Y-80068267D01*
X112200500Y-78068267D01*
X158392506Y-78068267D01*
X158399011Y-78128763D01*
X158450061Y-78265634D01*
X158450061Y-78265635D01*
X158543002Y-78389788D01*
X158541320Y-78391046D01*
X158569628Y-78442887D01*
X158564563Y-78513702D01*
X158542003Y-78548804D01*
X158543002Y-78549552D01*
X158450061Y-78673704D01*
X158450061Y-78673705D01*
X158399011Y-78810576D01*
X158392506Y-78871072D01*
X158392506Y-79215670D01*
X159896506Y-79215670D01*
X160404506Y-79215670D01*
X161908506Y-79215670D01*
X161908506Y-78871084D01*
X161908505Y-78871072D01*
X161902000Y-78810576D01*
X161850950Y-78673705D01*
X161850950Y-78673704D01*
X161758010Y-78549552D01*
X161759691Y-78548293D01*
X161731384Y-78496453D01*
X161736449Y-78425638D01*
X161759008Y-78390535D01*
X161758010Y-78389788D01*
X161850950Y-78265635D01*
X161850950Y-78265634D01*
X161902000Y-78128763D01*
X161908505Y-78068267D01*
X161908506Y-78068255D01*
X161908506Y-77723670D01*
X160404506Y-77723670D01*
X160404506Y-79215670D01*
X159896506Y-79215670D01*
X159896506Y-77723670D01*
X158392506Y-77723670D01*
X158392506Y-78068267D01*
X112200500Y-78068267D01*
X112200500Y-76068267D01*
X158392506Y-76068267D01*
X158399011Y-76128763D01*
X158450061Y-76265634D01*
X158450061Y-76265635D01*
X158543002Y-76389788D01*
X158541320Y-76391046D01*
X158569628Y-76442887D01*
X158564563Y-76513702D01*
X158542003Y-76548804D01*
X158543002Y-76549552D01*
X158450061Y-76673704D01*
X158450061Y-76673705D01*
X158399011Y-76810576D01*
X158392506Y-76871072D01*
X158392506Y-77215670D01*
X159896506Y-77215670D01*
X160404506Y-77215670D01*
X161908506Y-77215670D01*
X161908506Y-76871084D01*
X161908505Y-76871072D01*
X161902000Y-76810576D01*
X161850950Y-76673705D01*
X161850950Y-76673704D01*
X161758010Y-76549552D01*
X161759691Y-76548293D01*
X161731384Y-76496453D01*
X161736449Y-76425638D01*
X161759008Y-76390535D01*
X161758010Y-76389788D01*
X161850950Y-76265635D01*
X161850950Y-76265634D01*
X161902000Y-76128763D01*
X161908505Y-76068267D01*
X161908506Y-76068255D01*
X161908506Y-75723670D01*
X160404506Y-75723670D01*
X160404506Y-77215670D01*
X159896506Y-77215670D01*
X159896506Y-75723670D01*
X158392506Y-75723670D01*
X158392506Y-76068267D01*
X112200500Y-76068267D01*
X112200500Y-74068267D01*
X158392506Y-74068267D01*
X158399011Y-74128763D01*
X158450061Y-74265634D01*
X158450061Y-74265635D01*
X158543002Y-74389788D01*
X158541320Y-74391046D01*
X158569628Y-74442887D01*
X158564563Y-74513702D01*
X158542003Y-74548804D01*
X158543002Y-74549552D01*
X158450061Y-74673704D01*
X158450061Y-74673705D01*
X158399011Y-74810576D01*
X158392506Y-74871072D01*
X158392506Y-75215670D01*
X159896506Y-75215670D01*
X160404506Y-75215670D01*
X161908506Y-75215670D01*
X161908506Y-74871084D01*
X161908505Y-74871072D01*
X161902000Y-74810576D01*
X161850950Y-74673705D01*
X161850950Y-74673704D01*
X161758010Y-74549552D01*
X161759691Y-74548293D01*
X161731384Y-74496453D01*
X161736449Y-74425638D01*
X161759008Y-74390535D01*
X161758010Y-74389788D01*
X161850950Y-74265635D01*
X161850950Y-74265634D01*
X161902000Y-74128763D01*
X161908505Y-74068267D01*
X161908506Y-74068255D01*
X161908506Y-73723670D01*
X160404506Y-73723670D01*
X160404506Y-75215670D01*
X159896506Y-75215670D01*
X159896506Y-73723670D01*
X158392506Y-73723670D01*
X158392506Y-74068267D01*
X112200500Y-74068267D01*
X112200500Y-72068267D01*
X158392506Y-72068267D01*
X158399011Y-72128763D01*
X158450061Y-72265634D01*
X158450061Y-72265635D01*
X158543002Y-72389788D01*
X158541320Y-72391046D01*
X158569628Y-72442887D01*
X158564563Y-72513702D01*
X158542003Y-72548804D01*
X158543002Y-72549552D01*
X158450061Y-72673704D01*
X158450061Y-72673705D01*
X158399011Y-72810576D01*
X158392506Y-72871072D01*
X158392506Y-73215670D01*
X159896506Y-73215670D01*
X160404506Y-73215670D01*
X161908506Y-73215670D01*
X161908506Y-72871084D01*
X161908505Y-72871072D01*
X161902000Y-72810576D01*
X161850950Y-72673705D01*
X161850950Y-72673704D01*
X161758010Y-72549552D01*
X161759691Y-72548293D01*
X161731384Y-72496453D01*
X161736449Y-72425638D01*
X161759008Y-72390535D01*
X161758010Y-72389788D01*
X161850950Y-72265635D01*
X161850950Y-72265634D01*
X161902000Y-72128763D01*
X161908505Y-72068267D01*
X161908506Y-72068255D01*
X161908506Y-71723670D01*
X160404506Y-71723670D01*
X160404506Y-73215670D01*
X159896506Y-73215670D01*
X159896506Y-71723670D01*
X158392506Y-71723670D01*
X158392506Y-72068267D01*
X112200500Y-72068267D01*
X112200500Y-70871072D01*
X158392506Y-70871072D01*
X158392506Y-71215670D01*
X159896506Y-71215670D01*
X160404506Y-71215670D01*
X161908506Y-71215670D01*
X161908506Y-70871084D01*
X161908505Y-70871072D01*
X161902000Y-70810576D01*
X161850950Y-70673705D01*
X161850950Y-70673704D01*
X161763410Y-70556765D01*
X161646471Y-70469225D01*
X161509599Y-70418175D01*
X161449103Y-70411670D01*
X160404506Y-70411670D01*
X160404506Y-71215670D01*
X159896506Y-71215670D01*
X159896506Y-70411670D01*
X158851908Y-70411670D01*
X158791412Y-70418175D01*
X158654541Y-70469225D01*
X158654540Y-70469225D01*
X158537601Y-70556765D01*
X158450061Y-70673704D01*
X158450061Y-70673705D01*
X158399011Y-70810576D01*
X158392506Y-70871072D01*
X112200500Y-70871072D01*
X112200500Y-68887181D01*
X122566500Y-68887181D01*
X122566500Y-69112819D01*
X122601797Y-69335679D01*
X122601798Y-69335684D01*
X122671521Y-69550269D01*
X122671522Y-69550272D01*
X122671523Y-69550273D01*
X122773961Y-69751318D01*
X122906587Y-69933863D01*
X122906589Y-69933865D01*
X122906591Y-69933868D01*
X123066131Y-70093408D01*
X123066134Y-70093410D01*
X123066137Y-70093413D01*
X123248682Y-70226039D01*
X123449727Y-70328477D01*
X123664321Y-70398203D01*
X123887181Y-70433500D01*
X123887184Y-70433500D01*
X124112816Y-70433500D01*
X124112819Y-70433500D01*
X124335679Y-70398203D01*
X124550273Y-70328477D01*
X124751318Y-70226039D01*
X124933863Y-70093413D01*
X125093413Y-69933863D01*
X125226039Y-69751318D01*
X125328477Y-69550273D01*
X125398203Y-69335679D01*
X125433500Y-69112819D01*
X125433500Y-68887181D01*
X125398203Y-68664321D01*
X125328477Y-68449727D01*
X125226039Y-68248682D01*
X125093413Y-68066137D01*
X125093410Y-68066134D01*
X125093408Y-68066131D01*
X124933868Y-67906591D01*
X124933865Y-67906589D01*
X124933863Y-67906587D01*
X124751318Y-67773961D01*
X124550273Y-67671523D01*
X124550272Y-67671522D01*
X124550269Y-67671521D01*
X124335684Y-67601798D01*
X124335680Y-67601797D01*
X124335679Y-67601797D01*
X124112819Y-67566500D01*
X123887181Y-67566500D01*
X123664321Y-67601797D01*
X123664315Y-67601798D01*
X123449730Y-67671521D01*
X123248678Y-67773963D01*
X123066134Y-67906589D01*
X123066131Y-67906591D01*
X122906591Y-68066131D01*
X122906589Y-68066134D01*
X122773963Y-68248678D01*
X122671521Y-68449730D01*
X122601798Y-68664315D01*
X122601797Y-68664320D01*
X122601797Y-68664321D01*
X122566500Y-68887181D01*
X112200500Y-68887181D01*
X112200500Y-66421020D01*
X162092006Y-66421020D01*
X162092006Y-68518319D01*
X162098515Y-68578866D01*
X162098517Y-68578874D01*
X162149616Y-68715872D01*
X162149618Y-68715877D01*
X162237244Y-68832931D01*
X162354298Y-68920557D01*
X162354300Y-68920558D01*
X162354302Y-68920559D01*
X162413381Y-68942594D01*
X162491301Y-68971658D01*
X162491309Y-68971660D01*
X162551856Y-68978169D01*
X162551861Y-68978169D01*
X162551868Y-68978170D01*
X162551874Y-68978170D01*
X164849138Y-68978170D01*
X164849144Y-68978170D01*
X164849151Y-68978169D01*
X164849155Y-68978169D01*
X164909702Y-68971660D01*
X164909705Y-68971659D01*
X164909707Y-68971659D01*
X165046710Y-68920559D01*
X165163767Y-68832931D01*
X165251395Y-68715874D01*
X165302495Y-68578871D01*
X165309006Y-68518308D01*
X165309006Y-66421032D01*
X165309005Y-66421020D01*
X165302496Y-66360473D01*
X165302494Y-66360465D01*
X165251395Y-66223467D01*
X165251393Y-66223462D01*
X165163767Y-66106408D01*
X165046713Y-66018782D01*
X165046708Y-66018780D01*
X164909710Y-65967681D01*
X164909702Y-65967679D01*
X164849155Y-65961170D01*
X164849144Y-65961170D01*
X162551868Y-65961170D01*
X162551856Y-65961170D01*
X162491309Y-65967679D01*
X162491301Y-65967681D01*
X162354303Y-66018780D01*
X162354298Y-66018782D01*
X162237244Y-66106408D01*
X162149618Y-66223462D01*
X162149616Y-66223467D01*
X162098517Y-66360465D01*
X162098515Y-66360473D01*
X162092006Y-66421020D01*
X112200500Y-66421020D01*
X112200500Y-61648521D01*
X134841500Y-61648521D01*
X134841500Y-61931478D01*
X134878431Y-62211998D01*
X134878432Y-62212004D01*
X134878433Y-62212006D01*
X134951666Y-62485316D01*
X135059947Y-62746728D01*
X135059948Y-62746729D01*
X135059953Y-62746740D01*
X135201424Y-62991776D01*
X135373667Y-63216245D01*
X135373686Y-63216266D01*
X135573733Y-63416313D01*
X135573743Y-63416322D01*
X135573749Y-63416328D01*
X135573752Y-63416330D01*
X135573754Y-63416332D01*
X135798223Y-63588575D01*
X136043259Y-63730046D01*
X136043263Y-63730047D01*
X136043272Y-63730053D01*
X136304684Y-63838334D01*
X136577994Y-63911567D01*
X136578000Y-63911567D01*
X136578001Y-63911568D01*
X136596725Y-63914033D01*
X136858524Y-63948500D01*
X136858531Y-63948500D01*
X137141469Y-63948500D01*
X137141476Y-63948500D01*
X137422006Y-63911567D01*
X137695316Y-63838334D01*
X137956728Y-63730053D01*
X138201771Y-63588578D01*
X138201771Y-63588577D01*
X138201776Y-63588575D01*
X138332137Y-63488544D01*
X138426251Y-63416328D01*
X138626328Y-63216251D01*
X138698544Y-63122137D01*
X138798575Y-62991776D01*
X138940046Y-62746740D01*
X138940045Y-62746740D01*
X138940053Y-62746728D01*
X139048334Y-62485316D01*
X139121567Y-62212006D01*
X139158500Y-61931476D01*
X139158500Y-61648524D01*
X139158500Y-61648521D01*
X156841500Y-61648521D01*
X156841500Y-61931478D01*
X156878431Y-62211998D01*
X156878432Y-62212004D01*
X156878433Y-62212006D01*
X156951666Y-62485316D01*
X157059947Y-62746728D01*
X157059948Y-62746729D01*
X157059953Y-62746740D01*
X157201424Y-62991776D01*
X157373667Y-63216245D01*
X157373686Y-63216266D01*
X157573733Y-63416313D01*
X157573743Y-63416322D01*
X157573749Y-63416328D01*
X157573752Y-63416330D01*
X157573754Y-63416332D01*
X157798223Y-63588575D01*
X158043259Y-63730046D01*
X158043263Y-63730047D01*
X158043272Y-63730053D01*
X158304684Y-63838334D01*
X158577994Y-63911567D01*
X158578000Y-63911567D01*
X158578001Y-63911568D01*
X158596725Y-63914033D01*
X158858524Y-63948500D01*
X158858531Y-63948500D01*
X159141469Y-63948500D01*
X159141476Y-63948500D01*
X159422006Y-63911567D01*
X159695316Y-63838334D01*
X159956728Y-63730053D01*
X160201771Y-63588578D01*
X160201771Y-63588577D01*
X160201776Y-63588575D01*
X160332137Y-63488544D01*
X160426251Y-63416328D01*
X160626328Y-63216251D01*
X160698544Y-63122137D01*
X160798575Y-62991776D01*
X160940046Y-62746740D01*
X160940045Y-62746740D01*
X160940053Y-62746728D01*
X161048334Y-62485316D01*
X161121567Y-62212006D01*
X161158500Y-61931476D01*
X161158500Y-61648524D01*
X161121567Y-61367994D01*
X161048334Y-61094684D01*
X160940053Y-60833272D01*
X160940047Y-60833263D01*
X160940046Y-60833259D01*
X160798575Y-60588223D01*
X160626332Y-60363754D01*
X160626330Y-60363752D01*
X160626328Y-60363749D01*
X160626322Y-60363743D01*
X160626313Y-60363733D01*
X160426266Y-60163686D01*
X160426245Y-60163667D01*
X160201776Y-59991424D01*
X159956740Y-59849953D01*
X159956732Y-59849949D01*
X159956728Y-59849947D01*
X159695316Y-59741666D01*
X159422006Y-59668433D01*
X159422004Y-59668432D01*
X159421998Y-59668431D01*
X159141478Y-59631500D01*
X159141476Y-59631500D01*
X158858524Y-59631500D01*
X158858521Y-59631500D01*
X158578001Y-59668431D01*
X158304684Y-59741666D01*
X158043270Y-59849948D01*
X158043259Y-59849953D01*
X157798223Y-59991424D01*
X157573754Y-60163667D01*
X157573733Y-60163686D01*
X157373686Y-60363733D01*
X157373667Y-60363754D01*
X157201424Y-60588223D01*
X157059953Y-60833259D01*
X157059948Y-60833270D01*
X157059947Y-60833272D01*
X156963202Y-61066833D01*
X156951666Y-61094684D01*
X156878431Y-61368001D01*
X156841500Y-61648521D01*
X139158500Y-61648521D01*
X139121567Y-61367994D01*
X139048334Y-61094684D01*
X138940053Y-60833272D01*
X138940047Y-60833263D01*
X138940046Y-60833259D01*
X138798575Y-60588223D01*
X138626332Y-60363754D01*
X138626330Y-60363752D01*
X138626328Y-60363749D01*
X138626322Y-60363743D01*
X138626313Y-60363733D01*
X138426266Y-60163686D01*
X138426245Y-60163667D01*
X138201776Y-59991424D01*
X137956740Y-59849953D01*
X137956732Y-59849949D01*
X137956728Y-59849947D01*
X137695316Y-59741666D01*
X137422006Y-59668433D01*
X137422004Y-59668432D01*
X137421998Y-59668431D01*
X137141478Y-59631500D01*
X137141476Y-59631500D01*
X136858524Y-59631500D01*
X136858521Y-59631500D01*
X136578001Y-59668431D01*
X136304684Y-59741666D01*
X136043270Y-59849948D01*
X136043259Y-59849953D01*
X135798223Y-59991424D01*
X135573754Y-60163667D01*
X135573733Y-60163686D01*
X135373686Y-60363733D01*
X135373667Y-60363754D01*
X135201424Y-60588223D01*
X135059953Y-60833259D01*
X135059948Y-60833270D01*
X135059947Y-60833272D01*
X134963202Y-61066833D01*
X134951666Y-61094684D01*
X134878431Y-61368001D01*
X134841500Y-61648521D01*
X112200500Y-61648521D01*
X112200500Y-61014249D01*
X112204125Y-60988874D01*
X112200500Y-60974724D01*
X112200500Y-60960118D01*
X112190690Y-60936434D01*
X112184329Y-60911606D01*
X112175566Y-60899922D01*
X112169976Y-60886426D01*
X112158177Y-60874627D01*
X112146477Y-60861137D01*
X112125578Y-60833272D01*
X110725700Y-58966766D01*
X110700829Y-58900268D01*
X110700500Y-58891166D01*
X110700500Y-52887181D01*
X122566500Y-52887181D01*
X122566500Y-53112819D01*
X122601797Y-53335679D01*
X122601798Y-53335684D01*
X122671521Y-53550269D01*
X122671522Y-53550272D01*
X122671523Y-53550273D01*
X122773961Y-53751318D01*
X122906587Y-53933863D01*
X122906589Y-53933865D01*
X122906591Y-53933868D01*
X123066131Y-54093408D01*
X123066134Y-54093410D01*
X123066137Y-54093413D01*
X123248682Y-54226039D01*
X123449727Y-54328477D01*
X123664321Y-54398203D01*
X123887181Y-54433500D01*
X123887184Y-54433500D01*
X124112816Y-54433500D01*
X124112819Y-54433500D01*
X124335679Y-54398203D01*
X124550273Y-54328477D01*
X124751318Y-54226039D01*
X124933863Y-54093413D01*
X125093413Y-53933863D01*
X125226039Y-53751318D01*
X125326201Y-53554739D01*
X142741500Y-53554739D01*
X142741500Y-53785260D01*
X142771587Y-54013794D01*
X142771588Y-54013800D01*
X142771589Y-54013802D01*
X142831251Y-54236464D01*
X142919465Y-54449433D01*
X143034724Y-54649066D01*
X143175053Y-54831947D01*
X143175062Y-54831957D01*
X143338042Y-54994937D01*
X143338052Y-54994946D01*
X143338053Y-54994947D01*
X143520934Y-55135276D01*
X143720567Y-55250535D01*
X143933536Y-55338749D01*
X144156198Y-55398411D01*
X144156204Y-55398411D01*
X144156205Y-55398412D01*
X144182425Y-55401863D01*
X144384742Y-55428500D01*
X144384749Y-55428500D01*
X145615251Y-55428500D01*
X145615258Y-55428500D01*
X145843802Y-55398411D01*
X146066464Y-55338749D01*
X146279433Y-55250535D01*
X146479066Y-55135276D01*
X146661947Y-54994947D01*
X146824947Y-54831947D01*
X146965276Y-54649066D01*
X147080535Y-54449433D01*
X147168749Y-54236464D01*
X147228411Y-54013802D01*
X147258500Y-53785258D01*
X147258500Y-53554742D01*
X147228411Y-53326198D01*
X147168749Y-53103536D01*
X147080535Y-52890567D01*
X146965276Y-52690934D01*
X146824947Y-52508053D01*
X146824946Y-52508052D01*
X146824937Y-52508042D01*
X146661957Y-52345062D01*
X146661947Y-52345053D01*
X146536353Y-52248682D01*
X146479066Y-52204724D01*
X146420542Y-52170935D01*
X146279444Y-52089471D01*
X146279439Y-52089468D01*
X146279433Y-52089465D01*
X146066464Y-52001251D01*
X145843802Y-51941589D01*
X145843800Y-51941588D01*
X145843794Y-51941587D01*
X145615260Y-51911500D01*
X145615258Y-51911500D01*
X144384742Y-51911500D01*
X144384739Y-51911500D01*
X144156205Y-51941587D01*
X144156198Y-51941589D01*
X143933536Y-52001251D01*
X143776894Y-52066134D01*
X143720565Y-52089466D01*
X143720555Y-52089471D01*
X143520938Y-52204721D01*
X143338052Y-52345053D01*
X143338042Y-52345062D01*
X143175062Y-52508042D01*
X143175053Y-52508052D01*
X143034721Y-52690938D01*
X142919471Y-52890555D01*
X142919466Y-52890565D01*
X142919465Y-52890567D01*
X142831373Y-53103241D01*
X142831251Y-53103536D01*
X142771587Y-53326205D01*
X142741500Y-53554739D01*
X125326201Y-53554739D01*
X125328477Y-53550273D01*
X125398203Y-53335679D01*
X125433500Y-53112819D01*
X125433500Y-52887181D01*
X125398203Y-52664321D01*
X125328477Y-52449727D01*
X125226039Y-52248682D01*
X125093413Y-52066137D01*
X125093410Y-52066134D01*
X125093408Y-52066131D01*
X124933868Y-51906591D01*
X124933865Y-51906589D01*
X124933863Y-51906587D01*
X124751318Y-51773961D01*
X124550273Y-51671523D01*
X124550272Y-51671522D01*
X124550269Y-51671521D01*
X124335684Y-51601798D01*
X124335680Y-51601797D01*
X124335679Y-51601797D01*
X124112819Y-51566500D01*
X123887181Y-51566500D01*
X123664321Y-51601797D01*
X123664315Y-51601798D01*
X123449730Y-51671521D01*
X123248678Y-51773963D01*
X123066134Y-51906589D01*
X123066131Y-51906591D01*
X122906591Y-52066131D01*
X122906589Y-52066134D01*
X122773963Y-52248678D01*
X122671521Y-52449730D01*
X122601798Y-52664315D01*
X122601798Y-52664317D01*
X122601797Y-52664321D01*
X122566500Y-52887181D01*
X110700500Y-52887181D01*
X110700500Y-49930600D01*
X110720502Y-49862479D01*
X110774158Y-49815986D01*
X110826500Y-49804600D01*
X198173500Y-49804600D01*
X198241621Y-49824602D01*
G37*
%TD.AperFunction*%
%TD*%
%TA.AperFunction,NonConductor*%
G36*
X135942121Y-42020002D02*
G01*
X135988614Y-42073658D01*
X136000000Y-42126000D01*
X136000000Y-48374000D01*
X135979998Y-48442121D01*
X135926342Y-48488614D01*
X135874000Y-48500000D01*
X129626000Y-48500000D01*
X129557879Y-48479998D01*
X129511386Y-48426342D01*
X129500000Y-48374000D01*
X129500000Y-42126000D01*
X129520002Y-42057879D01*
X129573658Y-42011386D01*
X129626000Y-42000000D01*
X135874000Y-42000000D01*
X135942121Y-42020002D01*
G37*
%TD.AperFunction*%
%TA.AperFunction,NonConductor*%
G36*
X158942121Y-42520002D02*
G01*
X158988614Y-42573658D01*
X159000000Y-42626000D01*
X159000000Y-48874000D01*
X158979998Y-48942121D01*
X158926342Y-48988614D01*
X158874000Y-49000000D01*
X150626000Y-49000000D01*
X150557879Y-48979998D01*
X150511386Y-48926342D01*
X150500000Y-48874000D01*
X150500000Y-46000000D01*
X148626000Y-46000000D01*
X148557879Y-45979998D01*
X148511386Y-45926342D01*
X148500000Y-45874000D01*
X148500000Y-42626000D01*
X148520002Y-42557879D01*
X148573658Y-42511386D01*
X148626000Y-42500000D01*
X158874000Y-42500000D01*
X158942121Y-42520002D01*
G37*
%TD.AperFunction*%
%TA.AperFunction,NonConductor*%
G36*
X187442121Y-131770002D02*
G01*
X187488614Y-131823658D01*
X187500000Y-131876000D01*
X187500000Y-133250000D01*
X192124000Y-133250000D01*
X192192121Y-133270002D01*
X192238614Y-133323658D01*
X192250000Y-133376000D01*
X192250000Y-134874000D01*
X192229998Y-134942121D01*
X192176342Y-134988614D01*
X192124000Y-135000000D01*
X160876000Y-135000000D01*
X160807879Y-134979998D01*
X160761386Y-134926342D01*
X160750000Y-134874000D01*
X160750000Y-133376000D01*
X160770002Y-133307879D01*
X160823658Y-133261386D01*
X160876000Y-133250000D01*
X168500000Y-133250000D01*
X168500000Y-131876000D01*
X168520002Y-131807879D01*
X168573658Y-131761386D01*
X168626000Y-131750000D01*
X187374000Y-131750000D01*
X187442121Y-131770002D01*
G37*
%TD.AperFunction*%
M02*
