%TF.GenerationSoftware,KiCad,Pcbnew,7.0.1*%
%TF.CreationDate,2024-01-14T15:51:55-07:00*%
%TF.ProjectId,Battery_Board_V3a,42617474-6572-4795-9f42-6f6172645f56,rev?*%
%TF.SameCoordinates,Original*%
%TF.FileFunction,Soldermask,Bot*%
%TF.FilePolarity,Negative*%
%FSLAX46Y46*%
G04 Gerber Fmt 4.6, Leading zero omitted, Abs format (unit mm)*
G04 Created by KiCad (PCBNEW 7.0.1) date 2024-01-14 15:51:55*
%MOMM*%
%LPD*%
G01*
G04 APERTURE LIST*
%ADD10C,0.500000*%
%ADD11C,0.150000*%
%ADD12C,5.000000*%
%ADD13C,2.000000*%
%ADD14R,1.700000X1.700000*%
%ADD15O,1.700000X1.700000*%
%ADD16C,1.800000*%
%ADD17O,2.416000X1.208000*%
%ADD18C,1.000000*%
%ADD19R,1.508000X1.508000*%
%ADD20C,1.508000*%
%ADD21C,4.770000*%
%ADD22C,5.325000*%
%ADD23C,3.570000*%
%ADD24C,1.980000*%
G04 APERTURE END LIST*
D10*
X158278056Y-44768257D02*
X156420913Y-44768257D01*
X156420913Y-44768257D02*
X157420913Y-45911114D01*
X157420913Y-45911114D02*
X156992342Y-45911114D01*
X156992342Y-45911114D02*
X156706628Y-46053971D01*
X156706628Y-46053971D02*
X156563770Y-46196828D01*
X156563770Y-46196828D02*
X156420913Y-46482542D01*
X156420913Y-46482542D02*
X156420913Y-47196828D01*
X156420913Y-47196828D02*
X156563770Y-47482542D01*
X156563770Y-47482542D02*
X156706628Y-47625400D01*
X156706628Y-47625400D02*
X156992342Y-47768257D01*
X156992342Y-47768257D02*
X157849485Y-47768257D01*
X157849485Y-47768257D02*
X158135199Y-47625400D01*
X158135199Y-47625400D02*
X158278056Y-47482542D01*
X155135199Y-47768257D02*
X155135199Y-44768257D01*
X155135199Y-44768257D02*
X153992342Y-44768257D01*
X153992342Y-44768257D02*
X153706627Y-44911114D01*
X153706627Y-44911114D02*
X153563770Y-45053971D01*
X153563770Y-45053971D02*
X153420913Y-45339685D01*
X153420913Y-45339685D02*
X153420913Y-45768257D01*
X153420913Y-45768257D02*
X153563770Y-46053971D01*
X153563770Y-46053971D02*
X153706627Y-46196828D01*
X153706627Y-46196828D02*
X153992342Y-46339685D01*
X153992342Y-46339685D02*
X155135199Y-46339685D01*
X152420913Y-45768257D02*
X151706627Y-47768257D01*
X150992342Y-45768257D02*
X151706627Y-47768257D01*
X151706627Y-47768257D02*
X151992342Y-48482542D01*
X151992342Y-48482542D02*
X152135199Y-48625400D01*
X152135199Y-48625400D02*
X152420913Y-48768257D01*
X150279028Y-43413314D02*
X150183790Y-43318076D01*
X150183790Y-43318076D02*
X149993314Y-43222838D01*
X149993314Y-43222838D02*
X149517123Y-43222838D01*
X149517123Y-43222838D02*
X149326647Y-43318076D01*
X149326647Y-43318076D02*
X149231409Y-43413314D01*
X149231409Y-43413314D02*
X149136171Y-43603790D01*
X149136171Y-43603790D02*
X149136171Y-43794266D01*
X149136171Y-43794266D02*
X149231409Y-44079980D01*
X149231409Y-44079980D02*
X150374266Y-45222838D01*
X150374266Y-45222838D02*
X149136171Y-45222838D01*
D11*
X187342857Y-132916357D02*
X187342857Y-132016357D01*
X187342857Y-132016357D02*
X187000000Y-132016357D01*
X187000000Y-132016357D02*
X186914285Y-132059214D01*
X186914285Y-132059214D02*
X186871428Y-132102071D01*
X186871428Y-132102071D02*
X186828571Y-132187785D01*
X186828571Y-132187785D02*
X186828571Y-132316357D01*
X186828571Y-132316357D02*
X186871428Y-132402071D01*
X186871428Y-132402071D02*
X186914285Y-132444928D01*
X186914285Y-132444928D02*
X187000000Y-132487785D01*
X187000000Y-132487785D02*
X187342857Y-132487785D01*
X186271428Y-132487785D02*
X186271428Y-132916357D01*
X186571428Y-132016357D02*
X186271428Y-132487785D01*
X186271428Y-132487785D02*
X185971428Y-132016357D01*
X185714285Y-132873500D02*
X185585714Y-132916357D01*
X185585714Y-132916357D02*
X185371428Y-132916357D01*
X185371428Y-132916357D02*
X185285714Y-132873500D01*
X185285714Y-132873500D02*
X185242856Y-132830642D01*
X185242856Y-132830642D02*
X185199999Y-132744928D01*
X185199999Y-132744928D02*
X185199999Y-132659214D01*
X185199999Y-132659214D02*
X185242856Y-132573500D01*
X185242856Y-132573500D02*
X185285714Y-132530642D01*
X185285714Y-132530642D02*
X185371428Y-132487785D01*
X185371428Y-132487785D02*
X185542856Y-132444928D01*
X185542856Y-132444928D02*
X185628571Y-132402071D01*
X185628571Y-132402071D02*
X185671428Y-132359214D01*
X185671428Y-132359214D02*
X185714285Y-132273500D01*
X185714285Y-132273500D02*
X185714285Y-132187785D01*
X185714285Y-132187785D02*
X185671428Y-132102071D01*
X185671428Y-132102071D02*
X185628571Y-132059214D01*
X185628571Y-132059214D02*
X185542856Y-132016357D01*
X185542856Y-132016357D02*
X185328571Y-132016357D01*
X185328571Y-132016357D02*
X185199999Y-132059214D01*
X184214285Y-133002071D02*
X184299999Y-132959214D01*
X184299999Y-132959214D02*
X184385713Y-132873500D01*
X184385713Y-132873500D02*
X184514285Y-132744928D01*
X184514285Y-132744928D02*
X184599999Y-132702071D01*
X184599999Y-132702071D02*
X184685713Y-132702071D01*
X184642856Y-132916357D02*
X184728571Y-132873500D01*
X184728571Y-132873500D02*
X184814285Y-132787785D01*
X184814285Y-132787785D02*
X184857142Y-132616357D01*
X184857142Y-132616357D02*
X184857142Y-132316357D01*
X184857142Y-132316357D02*
X184814285Y-132144928D01*
X184814285Y-132144928D02*
X184728571Y-132059214D01*
X184728571Y-132059214D02*
X184642856Y-132016357D01*
X184642856Y-132016357D02*
X184471428Y-132016357D01*
X184471428Y-132016357D02*
X184385713Y-132059214D01*
X184385713Y-132059214D02*
X184299999Y-132144928D01*
X184299999Y-132144928D02*
X184257142Y-132316357D01*
X184257142Y-132316357D02*
X184257142Y-132616357D01*
X184257142Y-132616357D02*
X184299999Y-132787785D01*
X184299999Y-132787785D02*
X184385713Y-132873500D01*
X184385713Y-132873500D02*
X184471428Y-132916357D01*
X184471428Y-132916357D02*
X184642856Y-132916357D01*
X183871428Y-132016357D02*
X183871428Y-132744928D01*
X183871428Y-132744928D02*
X183828571Y-132830642D01*
X183828571Y-132830642D02*
X183785714Y-132873500D01*
X183785714Y-132873500D02*
X183699999Y-132916357D01*
X183699999Y-132916357D02*
X183528571Y-132916357D01*
X183528571Y-132916357D02*
X183442856Y-132873500D01*
X183442856Y-132873500D02*
X183399999Y-132830642D01*
X183399999Y-132830642D02*
X183357142Y-132744928D01*
X183357142Y-132744928D02*
X183357142Y-132016357D01*
X182971428Y-132659214D02*
X182542857Y-132659214D01*
X183057142Y-132916357D02*
X182757142Y-132016357D01*
X182757142Y-132016357D02*
X182457142Y-132916357D01*
X181642856Y-132916357D02*
X181942856Y-132487785D01*
X182157142Y-132916357D02*
X182157142Y-132016357D01*
X182157142Y-132016357D02*
X181814285Y-132016357D01*
X181814285Y-132016357D02*
X181728570Y-132059214D01*
X181728570Y-132059214D02*
X181685713Y-132102071D01*
X181685713Y-132102071D02*
X181642856Y-132187785D01*
X181642856Y-132187785D02*
X181642856Y-132316357D01*
X181642856Y-132316357D02*
X181685713Y-132402071D01*
X181685713Y-132402071D02*
X181728570Y-132444928D01*
X181728570Y-132444928D02*
X181814285Y-132487785D01*
X181814285Y-132487785D02*
X182157142Y-132487785D01*
X181257142Y-132444928D02*
X180957142Y-132444928D01*
X180828570Y-132916357D02*
X181257142Y-132916357D01*
X181257142Y-132916357D02*
X181257142Y-132016357D01*
X181257142Y-132016357D02*
X180828570Y-132016357D01*
X180442856Y-132916357D02*
X180442856Y-132016357D01*
X180442856Y-132016357D02*
X180228570Y-132016357D01*
X180228570Y-132016357D02*
X180099999Y-132059214D01*
X180099999Y-132059214D02*
X180014284Y-132144928D01*
X180014284Y-132144928D02*
X179971427Y-132230642D01*
X179971427Y-132230642D02*
X179928570Y-132402071D01*
X179928570Y-132402071D02*
X179928570Y-132530642D01*
X179928570Y-132530642D02*
X179971427Y-132702071D01*
X179971427Y-132702071D02*
X180014284Y-132787785D01*
X180014284Y-132787785D02*
X180099999Y-132873500D01*
X180099999Y-132873500D02*
X180228570Y-132916357D01*
X180228570Y-132916357D02*
X180442856Y-132916357D01*
X178557142Y-132444928D02*
X178428570Y-132487785D01*
X178428570Y-132487785D02*
X178385713Y-132530642D01*
X178385713Y-132530642D02*
X178342856Y-132616357D01*
X178342856Y-132616357D02*
X178342856Y-132744928D01*
X178342856Y-132744928D02*
X178385713Y-132830642D01*
X178385713Y-132830642D02*
X178428570Y-132873500D01*
X178428570Y-132873500D02*
X178514285Y-132916357D01*
X178514285Y-132916357D02*
X178857142Y-132916357D01*
X178857142Y-132916357D02*
X178857142Y-132016357D01*
X178857142Y-132016357D02*
X178557142Y-132016357D01*
X178557142Y-132016357D02*
X178471428Y-132059214D01*
X178471428Y-132059214D02*
X178428570Y-132102071D01*
X178428570Y-132102071D02*
X178385713Y-132187785D01*
X178385713Y-132187785D02*
X178385713Y-132273500D01*
X178385713Y-132273500D02*
X178428570Y-132359214D01*
X178428570Y-132359214D02*
X178471428Y-132402071D01*
X178471428Y-132402071D02*
X178557142Y-132444928D01*
X178557142Y-132444928D02*
X178857142Y-132444928D01*
X177999999Y-132659214D02*
X177571428Y-132659214D01*
X178085713Y-132916357D02*
X177785713Y-132016357D01*
X177785713Y-132016357D02*
X177485713Y-132916357D01*
X177314284Y-132016357D02*
X176799999Y-132016357D01*
X177057141Y-132916357D02*
X177057141Y-132016357D01*
X176628570Y-132016357D02*
X176114285Y-132016357D01*
X176371427Y-132916357D02*
X176371427Y-132016357D01*
X175814285Y-132444928D02*
X175514285Y-132444928D01*
X175385713Y-132916357D02*
X175814285Y-132916357D01*
X175814285Y-132916357D02*
X175814285Y-132016357D01*
X175814285Y-132016357D02*
X175385713Y-132016357D01*
X174485713Y-132916357D02*
X174785713Y-132487785D01*
X174999999Y-132916357D02*
X174999999Y-132016357D01*
X174999999Y-132016357D02*
X174657142Y-132016357D01*
X174657142Y-132016357D02*
X174571427Y-132059214D01*
X174571427Y-132059214D02*
X174528570Y-132102071D01*
X174528570Y-132102071D02*
X174485713Y-132187785D01*
X174485713Y-132187785D02*
X174485713Y-132316357D01*
X174485713Y-132316357D02*
X174528570Y-132402071D01*
X174528570Y-132402071D02*
X174571427Y-132444928D01*
X174571427Y-132444928D02*
X174657142Y-132487785D01*
X174657142Y-132487785D02*
X174999999Y-132487785D01*
X173928570Y-132487785D02*
X173928570Y-132916357D01*
X174228570Y-132016357D02*
X173928570Y-132487785D01*
X173928570Y-132487785D02*
X173628570Y-132016357D01*
X172342856Y-132444928D02*
X172214284Y-132487785D01*
X172214284Y-132487785D02*
X172171427Y-132530642D01*
X172171427Y-132530642D02*
X172128570Y-132616357D01*
X172128570Y-132616357D02*
X172128570Y-132744928D01*
X172128570Y-132744928D02*
X172171427Y-132830642D01*
X172171427Y-132830642D02*
X172214284Y-132873500D01*
X172214284Y-132873500D02*
X172299999Y-132916357D01*
X172299999Y-132916357D02*
X172642856Y-132916357D01*
X172642856Y-132916357D02*
X172642856Y-132016357D01*
X172642856Y-132016357D02*
X172342856Y-132016357D01*
X172342856Y-132016357D02*
X172257142Y-132059214D01*
X172257142Y-132059214D02*
X172214284Y-132102071D01*
X172214284Y-132102071D02*
X172171427Y-132187785D01*
X172171427Y-132187785D02*
X172171427Y-132273500D01*
X172171427Y-132273500D02*
X172214284Y-132359214D01*
X172214284Y-132359214D02*
X172257142Y-132402071D01*
X172257142Y-132402071D02*
X172342856Y-132444928D01*
X172342856Y-132444928D02*
X172642856Y-132444928D01*
X171571427Y-132016357D02*
X171399999Y-132016357D01*
X171399999Y-132016357D02*
X171314284Y-132059214D01*
X171314284Y-132059214D02*
X171228570Y-132144928D01*
X171228570Y-132144928D02*
X171185713Y-132316357D01*
X171185713Y-132316357D02*
X171185713Y-132616357D01*
X171185713Y-132616357D02*
X171228570Y-132787785D01*
X171228570Y-132787785D02*
X171314284Y-132873500D01*
X171314284Y-132873500D02*
X171399999Y-132916357D01*
X171399999Y-132916357D02*
X171571427Y-132916357D01*
X171571427Y-132916357D02*
X171657142Y-132873500D01*
X171657142Y-132873500D02*
X171742856Y-132787785D01*
X171742856Y-132787785D02*
X171785713Y-132616357D01*
X171785713Y-132616357D02*
X171785713Y-132316357D01*
X171785713Y-132316357D02*
X171742856Y-132144928D01*
X171742856Y-132144928D02*
X171657142Y-132059214D01*
X171657142Y-132059214D02*
X171571427Y-132016357D01*
X170842856Y-132659214D02*
X170414285Y-132659214D01*
X170928570Y-132916357D02*
X170628570Y-132016357D01*
X170628570Y-132016357D02*
X170328570Y-132916357D01*
X169514284Y-132916357D02*
X169814284Y-132487785D01*
X170028570Y-132916357D02*
X170028570Y-132016357D01*
X170028570Y-132016357D02*
X169685713Y-132016357D01*
X169685713Y-132016357D02*
X169599998Y-132059214D01*
X169599998Y-132059214D02*
X169557141Y-132102071D01*
X169557141Y-132102071D02*
X169514284Y-132187785D01*
X169514284Y-132187785D02*
X169514284Y-132316357D01*
X169514284Y-132316357D02*
X169557141Y-132402071D01*
X169557141Y-132402071D02*
X169599998Y-132444928D01*
X169599998Y-132444928D02*
X169685713Y-132487785D01*
X169685713Y-132487785D02*
X170028570Y-132487785D01*
X169128570Y-132916357D02*
X169128570Y-132016357D01*
X169128570Y-132016357D02*
X168914284Y-132016357D01*
X168914284Y-132016357D02*
X168785713Y-132059214D01*
X168785713Y-132059214D02*
X168699998Y-132144928D01*
X168699998Y-132144928D02*
X168657141Y-132230642D01*
X168657141Y-132230642D02*
X168614284Y-132402071D01*
X168614284Y-132402071D02*
X168614284Y-132530642D01*
X168614284Y-132530642D02*
X168657141Y-132702071D01*
X168657141Y-132702071D02*
X168699998Y-132787785D01*
X168699998Y-132787785D02*
X168785713Y-132873500D01*
X168785713Y-132873500D02*
X168914284Y-132916357D01*
X168914284Y-132916357D02*
X169128570Y-132916357D01*
X192023810Y-134462619D02*
X192023810Y-133462619D01*
X192023810Y-133938809D02*
X191452382Y-133938809D01*
X191452382Y-134462619D02*
X191452382Y-133462619D01*
X190595239Y-134415000D02*
X190690477Y-134462619D01*
X190690477Y-134462619D02*
X190880953Y-134462619D01*
X190880953Y-134462619D02*
X190976191Y-134415000D01*
X190976191Y-134415000D02*
X191023810Y-134319761D01*
X191023810Y-134319761D02*
X191023810Y-133938809D01*
X191023810Y-133938809D02*
X190976191Y-133843571D01*
X190976191Y-133843571D02*
X190880953Y-133795952D01*
X190880953Y-133795952D02*
X190690477Y-133795952D01*
X190690477Y-133795952D02*
X190595239Y-133843571D01*
X190595239Y-133843571D02*
X190547620Y-133938809D01*
X190547620Y-133938809D02*
X190547620Y-134034047D01*
X190547620Y-134034047D02*
X191023810Y-134129285D01*
X189976191Y-134462619D02*
X190071429Y-134415000D01*
X190071429Y-134415000D02*
X190119048Y-134319761D01*
X190119048Y-134319761D02*
X190119048Y-133462619D01*
X189166667Y-134462619D02*
X189166667Y-133462619D01*
X189166667Y-134415000D02*
X189261905Y-134462619D01*
X189261905Y-134462619D02*
X189452381Y-134462619D01*
X189452381Y-134462619D02*
X189547619Y-134415000D01*
X189547619Y-134415000D02*
X189595238Y-134367380D01*
X189595238Y-134367380D02*
X189642857Y-134272142D01*
X189642857Y-134272142D02*
X189642857Y-133986428D01*
X189642857Y-133986428D02*
X189595238Y-133891190D01*
X189595238Y-133891190D02*
X189547619Y-133843571D01*
X189547619Y-133843571D02*
X189452381Y-133795952D01*
X189452381Y-133795952D02*
X189261905Y-133795952D01*
X189261905Y-133795952D02*
X189166667Y-133843571D01*
X188071428Y-133462619D02*
X187500000Y-133462619D01*
X187785714Y-134462619D02*
X187785714Y-133462619D01*
X187023809Y-134462619D02*
X187119047Y-134415000D01*
X187119047Y-134415000D02*
X187166666Y-134367380D01*
X187166666Y-134367380D02*
X187214285Y-134272142D01*
X187214285Y-134272142D02*
X187214285Y-133986428D01*
X187214285Y-133986428D02*
X187166666Y-133891190D01*
X187166666Y-133891190D02*
X187119047Y-133843571D01*
X187119047Y-133843571D02*
X187023809Y-133795952D01*
X187023809Y-133795952D02*
X186880952Y-133795952D01*
X186880952Y-133795952D02*
X186785714Y-133843571D01*
X186785714Y-133843571D02*
X186738095Y-133891190D01*
X186738095Y-133891190D02*
X186690476Y-133986428D01*
X186690476Y-133986428D02*
X186690476Y-134272142D01*
X186690476Y-134272142D02*
X186738095Y-134367380D01*
X186738095Y-134367380D02*
X186785714Y-134415000D01*
X186785714Y-134415000D02*
X186880952Y-134462619D01*
X186880952Y-134462619D02*
X187023809Y-134462619D01*
X185833333Y-133795952D02*
X185833333Y-134605476D01*
X185833333Y-134605476D02*
X185880952Y-134700714D01*
X185880952Y-134700714D02*
X185928571Y-134748333D01*
X185928571Y-134748333D02*
X186023809Y-134795952D01*
X186023809Y-134795952D02*
X186166666Y-134795952D01*
X186166666Y-134795952D02*
X186261904Y-134748333D01*
X185833333Y-134415000D02*
X185928571Y-134462619D01*
X185928571Y-134462619D02*
X186119047Y-134462619D01*
X186119047Y-134462619D02*
X186214285Y-134415000D01*
X186214285Y-134415000D02*
X186261904Y-134367380D01*
X186261904Y-134367380D02*
X186309523Y-134272142D01*
X186309523Y-134272142D02*
X186309523Y-133986428D01*
X186309523Y-133986428D02*
X186261904Y-133891190D01*
X186261904Y-133891190D02*
X186214285Y-133843571D01*
X186214285Y-133843571D02*
X186119047Y-133795952D01*
X186119047Y-133795952D02*
X185928571Y-133795952D01*
X185928571Y-133795952D02*
X185833333Y-133843571D01*
X184976190Y-134415000D02*
X185071428Y-134462619D01*
X185071428Y-134462619D02*
X185261904Y-134462619D01*
X185261904Y-134462619D02*
X185357142Y-134415000D01*
X185357142Y-134415000D02*
X185404761Y-134319761D01*
X185404761Y-134319761D02*
X185404761Y-133938809D01*
X185404761Y-133938809D02*
X185357142Y-133843571D01*
X185357142Y-133843571D02*
X185261904Y-133795952D01*
X185261904Y-133795952D02*
X185071428Y-133795952D01*
X185071428Y-133795952D02*
X184976190Y-133843571D01*
X184976190Y-133843571D02*
X184928571Y-133938809D01*
X184928571Y-133938809D02*
X184928571Y-134034047D01*
X184928571Y-134034047D02*
X185404761Y-134129285D01*
X184642856Y-133795952D02*
X184261904Y-133795952D01*
X184499999Y-133462619D02*
X184499999Y-134319761D01*
X184499999Y-134319761D02*
X184452380Y-134415000D01*
X184452380Y-134415000D02*
X184357142Y-134462619D01*
X184357142Y-134462619D02*
X184261904Y-134462619D01*
X183928570Y-134462619D02*
X183928570Y-133462619D01*
X183499999Y-134462619D02*
X183499999Y-133938809D01*
X183499999Y-133938809D02*
X183547618Y-133843571D01*
X183547618Y-133843571D02*
X183642856Y-133795952D01*
X183642856Y-133795952D02*
X183785713Y-133795952D01*
X183785713Y-133795952D02*
X183880951Y-133843571D01*
X183880951Y-133843571D02*
X183928570Y-133891190D01*
X182642856Y-134415000D02*
X182738094Y-134462619D01*
X182738094Y-134462619D02*
X182928570Y-134462619D01*
X182928570Y-134462619D02*
X183023808Y-134415000D01*
X183023808Y-134415000D02*
X183071427Y-134319761D01*
X183071427Y-134319761D02*
X183071427Y-133938809D01*
X183071427Y-133938809D02*
X183023808Y-133843571D01*
X183023808Y-133843571D02*
X182928570Y-133795952D01*
X182928570Y-133795952D02*
X182738094Y-133795952D01*
X182738094Y-133795952D02*
X182642856Y-133843571D01*
X182642856Y-133843571D02*
X182595237Y-133938809D01*
X182595237Y-133938809D02*
X182595237Y-134034047D01*
X182595237Y-134034047D02*
X183071427Y-134129285D01*
X182166665Y-134462619D02*
X182166665Y-133795952D01*
X182166665Y-133986428D02*
X182119046Y-133891190D01*
X182119046Y-133891190D02*
X182071427Y-133843571D01*
X182071427Y-133843571D02*
X181976189Y-133795952D01*
X181976189Y-133795952D02*
X181880951Y-133795952D01*
X180785712Y-134462619D02*
X180785712Y-133462619D01*
X180785712Y-133843571D02*
X180690474Y-133795952D01*
X180690474Y-133795952D02*
X180499998Y-133795952D01*
X180499998Y-133795952D02*
X180404760Y-133843571D01*
X180404760Y-133843571D02*
X180357141Y-133891190D01*
X180357141Y-133891190D02*
X180309522Y-133986428D01*
X180309522Y-133986428D02*
X180309522Y-134272142D01*
X180309522Y-134272142D02*
X180357141Y-134367380D01*
X180357141Y-134367380D02*
X180404760Y-134415000D01*
X180404760Y-134415000D02*
X180499998Y-134462619D01*
X180499998Y-134462619D02*
X180690474Y-134462619D01*
X180690474Y-134462619D02*
X180785712Y-134415000D01*
X179976188Y-133795952D02*
X179738093Y-134462619D01*
X179499998Y-133795952D02*
X179738093Y-134462619D01*
X179738093Y-134462619D02*
X179833331Y-134700714D01*
X179833331Y-134700714D02*
X179880950Y-134748333D01*
X179880950Y-134748333D02*
X179976188Y-134795952D01*
X178452378Y-133462619D02*
X177833331Y-133462619D01*
X177833331Y-133462619D02*
X178166664Y-133843571D01*
X178166664Y-133843571D02*
X178023807Y-133843571D01*
X178023807Y-133843571D02*
X177928569Y-133891190D01*
X177928569Y-133891190D02*
X177880950Y-133938809D01*
X177880950Y-133938809D02*
X177833331Y-134034047D01*
X177833331Y-134034047D02*
X177833331Y-134272142D01*
X177833331Y-134272142D02*
X177880950Y-134367380D01*
X177880950Y-134367380D02*
X177928569Y-134415000D01*
X177928569Y-134415000D02*
X178023807Y-134462619D01*
X178023807Y-134462619D02*
X178309521Y-134462619D01*
X178309521Y-134462619D02*
X178404759Y-134415000D01*
X178404759Y-134415000D02*
X178452378Y-134367380D01*
X177404759Y-134462619D02*
X177404759Y-133462619D01*
X177404759Y-133462619D02*
X177071426Y-134176904D01*
X177071426Y-134176904D02*
X176738093Y-133462619D01*
X176738093Y-133462619D02*
X176738093Y-134462619D01*
X176309521Y-133557857D02*
X176261902Y-133510238D01*
X176261902Y-133510238D02*
X176166664Y-133462619D01*
X176166664Y-133462619D02*
X175928569Y-133462619D01*
X175928569Y-133462619D02*
X175833331Y-133510238D01*
X175833331Y-133510238D02*
X175785712Y-133557857D01*
X175785712Y-133557857D02*
X175738093Y-133653095D01*
X175738093Y-133653095D02*
X175738093Y-133748333D01*
X175738093Y-133748333D02*
X175785712Y-133891190D01*
X175785712Y-133891190D02*
X176357140Y-134462619D01*
X176357140Y-134462619D02*
X175738093Y-134462619D01*
X175357140Y-133557857D02*
X175309521Y-133510238D01*
X175309521Y-133510238D02*
X175214283Y-133462619D01*
X175214283Y-133462619D02*
X174976188Y-133462619D01*
X174976188Y-133462619D02*
X174880950Y-133510238D01*
X174880950Y-133510238D02*
X174833331Y-133557857D01*
X174833331Y-133557857D02*
X174785712Y-133653095D01*
X174785712Y-133653095D02*
X174785712Y-133748333D01*
X174785712Y-133748333D02*
X174833331Y-133891190D01*
X174833331Y-133891190D02*
X175404759Y-134462619D01*
X175404759Y-134462619D02*
X174785712Y-134462619D01*
X173833331Y-134462619D02*
X174404759Y-134462619D01*
X174119045Y-134462619D02*
X174119045Y-133462619D01*
X174119045Y-133462619D02*
X174214283Y-133605476D01*
X174214283Y-133605476D02*
X174309521Y-133700714D01*
X174309521Y-133700714D02*
X174404759Y-133748333D01*
X172976188Y-133462619D02*
X173166664Y-133462619D01*
X173166664Y-133462619D02*
X173261902Y-133510238D01*
X173261902Y-133510238D02*
X173309521Y-133557857D01*
X173309521Y-133557857D02*
X173404759Y-133700714D01*
X173404759Y-133700714D02*
X173452378Y-133891190D01*
X173452378Y-133891190D02*
X173452378Y-134272142D01*
X173452378Y-134272142D02*
X173404759Y-134367380D01*
X173404759Y-134367380D02*
X173357140Y-134415000D01*
X173357140Y-134415000D02*
X173261902Y-134462619D01*
X173261902Y-134462619D02*
X173071426Y-134462619D01*
X173071426Y-134462619D02*
X172976188Y-134415000D01*
X172976188Y-134415000D02*
X172928569Y-134367380D01*
X172928569Y-134367380D02*
X172880950Y-134272142D01*
X172880950Y-134272142D02*
X172880950Y-134034047D01*
X172880950Y-134034047D02*
X172928569Y-133938809D01*
X172928569Y-133938809D02*
X172976188Y-133891190D01*
X172976188Y-133891190D02*
X173071426Y-133843571D01*
X173071426Y-133843571D02*
X173261902Y-133843571D01*
X173261902Y-133843571D02*
X173357140Y-133891190D01*
X173357140Y-133891190D02*
X173404759Y-133938809D01*
X173404759Y-133938809D02*
X173452378Y-134034047D01*
X171261902Y-134462619D02*
X171261902Y-133938809D01*
X171261902Y-133938809D02*
X171309521Y-133843571D01*
X171309521Y-133843571D02*
X171404759Y-133795952D01*
X171404759Y-133795952D02*
X171595235Y-133795952D01*
X171595235Y-133795952D02*
X171690473Y-133843571D01*
X171261902Y-134415000D02*
X171357140Y-134462619D01*
X171357140Y-134462619D02*
X171595235Y-134462619D01*
X171595235Y-134462619D02*
X171690473Y-134415000D01*
X171690473Y-134415000D02*
X171738092Y-134319761D01*
X171738092Y-134319761D02*
X171738092Y-134224523D01*
X171738092Y-134224523D02*
X171690473Y-134129285D01*
X171690473Y-134129285D02*
X171595235Y-134081666D01*
X171595235Y-134081666D02*
X171357140Y-134081666D01*
X171357140Y-134081666D02*
X171261902Y-134034047D01*
X170785711Y-133795952D02*
X170785711Y-134462619D01*
X170785711Y-133891190D02*
X170738092Y-133843571D01*
X170738092Y-133843571D02*
X170642854Y-133795952D01*
X170642854Y-133795952D02*
X170499997Y-133795952D01*
X170499997Y-133795952D02*
X170404759Y-133843571D01*
X170404759Y-133843571D02*
X170357140Y-133938809D01*
X170357140Y-133938809D02*
X170357140Y-134462619D01*
X169452378Y-134462619D02*
X169452378Y-133462619D01*
X169452378Y-134415000D02*
X169547616Y-134462619D01*
X169547616Y-134462619D02*
X169738092Y-134462619D01*
X169738092Y-134462619D02*
X169833330Y-134415000D01*
X169833330Y-134415000D02*
X169880949Y-134367380D01*
X169880949Y-134367380D02*
X169928568Y-134272142D01*
X169928568Y-134272142D02*
X169928568Y-133986428D01*
X169928568Y-133986428D02*
X169880949Y-133891190D01*
X169880949Y-133891190D02*
X169833330Y-133843571D01*
X169833330Y-133843571D02*
X169738092Y-133795952D01*
X169738092Y-133795952D02*
X169547616Y-133795952D01*
X169547616Y-133795952D02*
X169452378Y-133843571D01*
X167785711Y-134462619D02*
X167785711Y-133938809D01*
X167785711Y-133938809D02*
X167833330Y-133843571D01*
X167833330Y-133843571D02*
X167928568Y-133795952D01*
X167928568Y-133795952D02*
X168119044Y-133795952D01*
X168119044Y-133795952D02*
X168214282Y-133843571D01*
X167785711Y-134415000D02*
X167880949Y-134462619D01*
X167880949Y-134462619D02*
X168119044Y-134462619D01*
X168119044Y-134462619D02*
X168214282Y-134415000D01*
X168214282Y-134415000D02*
X168261901Y-134319761D01*
X168261901Y-134319761D02*
X168261901Y-134224523D01*
X168261901Y-134224523D02*
X168214282Y-134129285D01*
X168214282Y-134129285D02*
X168119044Y-134081666D01*
X168119044Y-134081666D02*
X167880949Y-134081666D01*
X167880949Y-134081666D02*
X167785711Y-134034047D01*
X166119044Y-134462619D02*
X166119044Y-133462619D01*
X166119044Y-134415000D02*
X166214282Y-134462619D01*
X166214282Y-134462619D02*
X166404758Y-134462619D01*
X166404758Y-134462619D02*
X166499996Y-134415000D01*
X166499996Y-134415000D02*
X166547615Y-134367380D01*
X166547615Y-134367380D02*
X166595234Y-134272142D01*
X166595234Y-134272142D02*
X166595234Y-133986428D01*
X166595234Y-133986428D02*
X166547615Y-133891190D01*
X166547615Y-133891190D02*
X166499996Y-133843571D01*
X166499996Y-133843571D02*
X166404758Y-133795952D01*
X166404758Y-133795952D02*
X166214282Y-133795952D01*
X166214282Y-133795952D02*
X166119044Y-133843571D01*
X165642853Y-134462619D02*
X165642853Y-133795952D01*
X165642853Y-133986428D02*
X165595234Y-133891190D01*
X165595234Y-133891190D02*
X165547615Y-133843571D01*
X165547615Y-133843571D02*
X165452377Y-133795952D01*
X165452377Y-133795952D02*
X165357139Y-133795952D01*
X164642853Y-134415000D02*
X164738091Y-134462619D01*
X164738091Y-134462619D02*
X164928567Y-134462619D01*
X164928567Y-134462619D02*
X165023805Y-134415000D01*
X165023805Y-134415000D02*
X165071424Y-134319761D01*
X165071424Y-134319761D02*
X165071424Y-133938809D01*
X165071424Y-133938809D02*
X165023805Y-133843571D01*
X165023805Y-133843571D02*
X164928567Y-133795952D01*
X164928567Y-133795952D02*
X164738091Y-133795952D01*
X164738091Y-133795952D02*
X164642853Y-133843571D01*
X164642853Y-133843571D02*
X164595234Y-133938809D01*
X164595234Y-133938809D02*
X164595234Y-134034047D01*
X164595234Y-134034047D02*
X165071424Y-134129285D01*
X163738091Y-134462619D02*
X163738091Y-133938809D01*
X163738091Y-133938809D02*
X163785710Y-133843571D01*
X163785710Y-133843571D02*
X163880948Y-133795952D01*
X163880948Y-133795952D02*
X164071424Y-133795952D01*
X164071424Y-133795952D02*
X164166662Y-133843571D01*
X163738091Y-134415000D02*
X163833329Y-134462619D01*
X163833329Y-134462619D02*
X164071424Y-134462619D01*
X164071424Y-134462619D02*
X164166662Y-134415000D01*
X164166662Y-134415000D02*
X164214281Y-134319761D01*
X164214281Y-134319761D02*
X164214281Y-134224523D01*
X164214281Y-134224523D02*
X164166662Y-134129285D01*
X164166662Y-134129285D02*
X164071424Y-134081666D01*
X164071424Y-134081666D02*
X163833329Y-134081666D01*
X163833329Y-134081666D02*
X163738091Y-134034047D01*
X163261900Y-134462619D02*
X163261900Y-133795952D01*
X163261900Y-133891190D02*
X163214281Y-133843571D01*
X163214281Y-133843571D02*
X163119043Y-133795952D01*
X163119043Y-133795952D02*
X162976186Y-133795952D01*
X162976186Y-133795952D02*
X162880948Y-133843571D01*
X162880948Y-133843571D02*
X162833329Y-133938809D01*
X162833329Y-133938809D02*
X162833329Y-134462619D01*
X162833329Y-133938809D02*
X162785710Y-133843571D01*
X162785710Y-133843571D02*
X162690472Y-133795952D01*
X162690472Y-133795952D02*
X162547615Y-133795952D01*
X162547615Y-133795952D02*
X162452376Y-133843571D01*
X162452376Y-133843571D02*
X162404757Y-133938809D01*
X162404757Y-133938809D02*
X162404757Y-134462619D01*
X161928567Y-134367380D02*
X161880948Y-134415000D01*
X161880948Y-134415000D02*
X161928567Y-134462619D01*
X161928567Y-134462619D02*
X161976186Y-134415000D01*
X161976186Y-134415000D02*
X161928567Y-134367380D01*
X161928567Y-134367380D02*
X161928567Y-134462619D01*
X161452377Y-134367380D02*
X161404758Y-134415000D01*
X161404758Y-134415000D02*
X161452377Y-134462619D01*
X161452377Y-134462619D02*
X161499996Y-134415000D01*
X161499996Y-134415000D02*
X161452377Y-134367380D01*
X161452377Y-134367380D02*
X161452377Y-134462619D01*
X160976187Y-134367380D02*
X160928568Y-134415000D01*
X160928568Y-134415000D02*
X160976187Y-134462619D01*
X160976187Y-134462619D02*
X161023806Y-134415000D01*
X161023806Y-134415000D02*
X160976187Y-134367380D01*
X160976187Y-134367380D02*
X160976187Y-134462619D01*
%TO.C,G\u002A\u002A\u002A*%
G36*
X134173719Y-43082427D02*
G01*
X134174852Y-43117799D01*
X134177834Y-43266698D01*
X134185149Y-43684884D01*
X133463599Y-43690775D01*
X132742048Y-43696667D01*
X132742048Y-43875226D01*
X134996354Y-43897546D01*
X135123981Y-43957364D01*
X135176190Y-43983977D01*
X135335174Y-44096820D01*
X135467032Y-44243909D01*
X135570161Y-44423158D01*
X135642958Y-44632481D01*
X135702482Y-44919058D01*
X135733980Y-45244052D01*
X135724999Y-45568413D01*
X135675777Y-45901395D01*
X135626719Y-46104582D01*
X135553729Y-46313444D01*
X135464650Y-46483351D01*
X135358188Y-46616232D01*
X135233052Y-46714017D01*
X135087948Y-46778633D01*
X135041555Y-46788499D01*
X134949178Y-46798833D01*
X134828713Y-46805832D01*
X134689456Y-46808794D01*
X134382558Y-46810287D01*
X134382558Y-46446699D01*
X134381656Y-46329933D01*
X134375611Y-46167471D01*
X134362680Y-46035404D01*
X134341468Y-45925011D01*
X134310581Y-45827569D01*
X134268623Y-45734355D01*
X134263248Y-45724149D01*
X134186470Y-45613676D01*
X134080453Y-45503595D01*
X133957689Y-45405422D01*
X133830673Y-45330673D01*
X133679483Y-45259057D01*
X132764368Y-45247897D01*
X132554995Y-45245299D01*
X132365757Y-45242702D01*
X132212431Y-45240072D01*
X132090468Y-45237128D01*
X131995320Y-45233590D01*
X131922441Y-45229175D01*
X131867281Y-45223603D01*
X131825293Y-45216592D01*
X131791930Y-45207862D01*
X131762642Y-45197130D01*
X131732884Y-45184117D01*
X131641980Y-45130922D01*
X131531177Y-45037099D01*
X131433520Y-44924420D01*
X131362218Y-44806348D01*
X131355691Y-44791967D01*
X131344564Y-44764341D01*
X131335591Y-44733876D01*
X131328541Y-44695926D01*
X131323182Y-44645848D01*
X131319282Y-44578996D01*
X131316611Y-44490727D01*
X131314937Y-44376396D01*
X131314027Y-44231358D01*
X131313651Y-44050970D01*
X131313577Y-43830586D01*
X131313577Y-42995509D01*
X133294158Y-42995509D01*
X133295075Y-43091202D01*
X133334097Y-43190233D01*
X133337537Y-43195633D01*
X133391433Y-43254372D01*
X133456056Y-43296252D01*
X133510034Y-43315148D01*
X133603173Y-43323385D01*
X133685477Y-43291419D01*
X133765002Y-43217187D01*
X133773521Y-43206835D01*
X133811415Y-43147228D01*
X133826816Y-43082427D01*
X133824760Y-42993591D01*
X133816954Y-42946373D01*
X133779638Y-42873796D01*
X133705958Y-42813921D01*
X133645516Y-42785332D01*
X133548322Y-42770814D01*
X133458428Y-42790807D01*
X133381995Y-42839077D01*
X133325185Y-42909390D01*
X133294158Y-42995509D01*
X131313577Y-42995509D01*
X131313577Y-42960111D01*
X131368208Y-42849094D01*
X131377753Y-42830480D01*
X131475330Y-42690870D01*
X131605919Y-42569998D01*
X131759923Y-42476982D01*
X131844590Y-42441727D01*
X131974093Y-42402468D01*
X132123703Y-42373357D01*
X132299424Y-42353558D01*
X132507258Y-42342232D01*
X132753208Y-42338544D01*
X132823033Y-42338842D01*
X133124799Y-42349293D01*
X133385789Y-42374912D01*
X133607119Y-42416029D01*
X133789900Y-42472971D01*
X133935248Y-42546069D01*
X134044274Y-42635651D01*
X134118093Y-42742047D01*
X134133522Y-42775220D01*
X134148213Y-42815640D01*
X134158821Y-42862460D01*
X134166216Y-42923328D01*
X134171269Y-43005892D01*
X134173719Y-43082427D01*
G37*
G36*
X134174189Y-47603798D02*
G01*
X134173654Y-47615283D01*
X134168750Y-47670551D01*
X134162105Y-47712251D01*
X134153454Y-47745187D01*
X134142529Y-47774160D01*
X134129064Y-47803974D01*
X134065118Y-47905777D01*
X133967558Y-48012098D01*
X133850149Y-48107773D01*
X133724809Y-48181667D01*
X133631458Y-48220551D01*
X133496912Y-48266868D01*
X133348732Y-48310428D01*
X133203263Y-48346476D01*
X133076846Y-48370256D01*
X133068312Y-48371466D01*
X132840520Y-48390257D01*
X132606720Y-48385769D01*
X132373951Y-48359764D01*
X132149255Y-48314004D01*
X131939672Y-48250250D01*
X131752244Y-48170265D01*
X131594011Y-48075811D01*
X131472014Y-47968650D01*
X131466726Y-47962730D01*
X131407178Y-47887968D01*
X131363485Y-47811690D01*
X131333405Y-47725322D01*
X131324388Y-47674699D01*
X131664398Y-47674699D01*
X131687433Y-47762271D01*
X131740949Y-47838319D01*
X131826706Y-47894144D01*
X131858081Y-47906053D01*
X131956139Y-47922501D01*
X132041838Y-47898331D01*
X132123205Y-47831856D01*
X132154076Y-47792557D01*
X132193437Y-47699596D01*
X132197508Y-47603798D01*
X132169900Y-47513965D01*
X132114222Y-47438899D01*
X132034084Y-47387405D01*
X131933097Y-47368284D01*
X131841861Y-47383186D01*
X131760575Y-47429847D01*
X131702729Y-47499787D01*
X131670083Y-47584304D01*
X131664398Y-47674699D01*
X131324388Y-47674699D01*
X131314695Y-47620285D01*
X131305113Y-47488004D01*
X131302417Y-47319902D01*
X131302417Y-47011784D01*
X132022233Y-47005895D01*
X132742048Y-47000006D01*
X132748912Y-46905147D01*
X132755775Y-46810287D01*
X131620230Y-46810287D01*
X131547363Y-46810286D01*
X131284559Y-46810152D01*
X131061617Y-46809475D01*
X130874722Y-46807814D01*
X130720056Y-46804727D01*
X130593804Y-46799771D01*
X130492148Y-46792505D01*
X130411273Y-46782486D01*
X130347361Y-46769272D01*
X130296597Y-46752421D01*
X130255164Y-46731491D01*
X130219245Y-46706039D01*
X130185024Y-46675623D01*
X130148684Y-46639802D01*
X130102874Y-46588496D01*
X130011475Y-46451410D01*
X129929621Y-46282593D01*
X129859771Y-46090541D01*
X129804382Y-45883753D01*
X129765912Y-45670727D01*
X129746820Y-45459958D01*
X129749562Y-45259946D01*
X129765360Y-45095330D01*
X129803607Y-44843687D01*
X129856202Y-44614324D01*
X129921644Y-44411608D01*
X129998435Y-44239905D01*
X130085073Y-44103580D01*
X130180059Y-44007001D01*
X130202399Y-43990414D01*
X130262161Y-43952307D01*
X130324803Y-43924824D01*
X130398666Y-43906277D01*
X130492091Y-43894978D01*
X130613420Y-43889237D01*
X130770994Y-43887365D01*
X131121206Y-43886386D01*
X131128112Y-44316043D01*
X131135019Y-44745700D01*
X131206634Y-44896891D01*
X131266996Y-45005915D01*
X131392445Y-45162441D01*
X131546112Y-45286832D01*
X131723495Y-45375752D01*
X131920095Y-45425864D01*
X131958992Y-45429737D01*
X132046187Y-45434684D01*
X132166866Y-45439099D01*
X132314592Y-45442826D01*
X132482926Y-45445711D01*
X132665429Y-45447598D01*
X132855663Y-45448334D01*
X133638873Y-45448776D01*
X133775708Y-45517153D01*
X133799685Y-45529685D01*
X133942756Y-45630887D01*
X134057369Y-45760102D01*
X134136295Y-45909467D01*
X134146597Y-45938601D01*
X134156441Y-45973235D01*
X134164251Y-46013451D01*
X134170261Y-46064130D01*
X134174700Y-46130154D01*
X134177802Y-46216407D01*
X134179797Y-46327770D01*
X134180918Y-46469126D01*
X134181395Y-46645357D01*
X134181461Y-46861344D01*
X134181426Y-46967333D01*
X134181215Y-47162480D01*
X134180600Y-47320046D01*
X134179312Y-47444833D01*
X134177086Y-47541645D01*
X134174189Y-47603798D01*
G37*
G36*
X154742237Y-132687478D02*
G01*
X154760774Y-132693910D01*
X154763804Y-132698305D01*
X154766878Y-132709127D01*
X154769346Y-132727605D01*
X154771268Y-132755477D01*
X154772704Y-132794481D01*
X154773716Y-132846357D01*
X154774364Y-132912843D01*
X154774708Y-132995680D01*
X154774809Y-133096604D01*
X154774793Y-133125188D01*
X154774386Y-133235404D01*
X154773430Y-133327445D01*
X154771935Y-133400984D01*
X154769910Y-133455690D01*
X154767363Y-133491233D01*
X154764301Y-133507284D01*
X154759470Y-133514596D01*
X154747939Y-133522036D01*
X154727367Y-133524752D01*
X154692424Y-133523982D01*
X154631054Y-133521046D01*
X154631054Y-132688259D01*
X154688897Y-132685261D01*
X154710118Y-132684838D01*
X154742237Y-132687478D01*
G37*
G36*
X155936745Y-132684843D02*
G01*
X155961231Y-132687796D01*
X155984333Y-132693594D01*
X155984333Y-132966870D01*
X155984604Y-133037718D01*
X155985452Y-133104553D01*
X155986809Y-133159990D01*
X155988606Y-133201922D01*
X155990773Y-133228241D01*
X155993240Y-133236841D01*
X155997065Y-133232736D01*
X156011061Y-133214072D01*
X156033757Y-133182142D01*
X156063798Y-133138903D01*
X156099827Y-133086311D01*
X156140488Y-133026323D01*
X156184425Y-132960898D01*
X156366703Y-132688259D01*
X156424208Y-132685261D01*
X156445190Y-132684839D01*
X156477224Y-132687478D01*
X156495747Y-132693910D01*
X156499243Y-132699482D01*
X156502186Y-132711255D01*
X156504548Y-132730872D01*
X156506388Y-132760045D01*
X156507764Y-132800487D01*
X156508734Y-132853908D01*
X156509354Y-132922021D01*
X156509684Y-133006538D01*
X156509782Y-133109171D01*
X156509754Y-133144749D01*
X156509459Y-133230140D01*
X156508868Y-133308475D01*
X156508018Y-133377626D01*
X156506944Y-133435464D01*
X156505685Y-133479860D01*
X156504276Y-133508686D01*
X156502753Y-133519813D01*
X156493267Y-133522645D01*
X156468740Y-133524402D01*
X156435833Y-133523944D01*
X156375941Y-133521046D01*
X156370984Y-133238493D01*
X156366027Y-132955941D01*
X156344863Y-132985683D01*
X156341995Y-132989792D01*
X156327524Y-133011046D01*
X156304220Y-133045633D01*
X156273630Y-133091244D01*
X156237300Y-133145574D01*
X156196774Y-133206314D01*
X156153600Y-133271158D01*
X155983502Y-133526890D01*
X155850492Y-133521046D01*
X155850492Y-132688259D01*
X155894310Y-132685128D01*
X155904070Y-132684599D01*
X155936745Y-132684843D01*
G37*
G36*
X155538439Y-131353362D02*
G01*
X155571607Y-131354211D01*
X155587768Y-131355520D01*
X155612553Y-131361188D01*
X155615140Y-131773723D01*
X155617726Y-132186258D01*
X155590354Y-132189405D01*
X155588602Y-132189558D01*
X155568388Y-132190126D01*
X155531669Y-132190315D01*
X155481232Y-132190140D01*
X155419862Y-132189618D01*
X155350347Y-132188764D01*
X155275472Y-132187596D01*
X154987963Y-132182638D01*
X154988769Y-132125652D01*
X154989556Y-132101025D01*
X154991587Y-132075674D01*
X154994247Y-132063994D01*
X154997084Y-132063330D01*
X155016304Y-132061963D01*
X155051092Y-132060707D01*
X155098559Y-132059635D01*
X155155813Y-132058819D01*
X155219965Y-132058331D01*
X155249583Y-132058151D01*
X155311996Y-132057450D01*
X155366786Y-132056403D01*
X155410901Y-132055092D01*
X155441292Y-132053600D01*
X155454905Y-132052008D01*
X155456270Y-132051340D01*
X155462296Y-132042509D01*
X155466150Y-132022763D01*
X155468197Y-131989141D01*
X155468798Y-131938682D01*
X155468798Y-131830687D01*
X155266369Y-131830687D01*
X155253288Y-131830674D01*
X155192117Y-131830278D01*
X155137780Y-131829389D01*
X155093526Y-131828098D01*
X155062602Y-131826495D01*
X155048258Y-131824669D01*
X155039202Y-131816281D01*
X155034069Y-131796061D01*
X155032576Y-131760227D01*
X155032834Y-131734180D01*
X155033733Y-131709947D01*
X155035055Y-131699823D01*
X155036759Y-131699559D01*
X155053738Y-131698583D01*
X155086527Y-131697277D01*
X155132218Y-131695743D01*
X155187907Y-131694080D01*
X155250687Y-131692388D01*
X155463841Y-131686932D01*
X155463841Y-131488649D01*
X155007791Y-131478735D01*
X155007791Y-131359766D01*
X155285387Y-131354809D01*
X155291972Y-131354693D01*
X155365028Y-131353638D01*
X155432334Y-131353069D01*
X155491076Y-131352979D01*
X155538439Y-131353362D01*
G37*
G36*
X153401703Y-132683546D02*
G01*
X153463589Y-132683924D01*
X153518365Y-132684677D01*
X153562935Y-132685819D01*
X153594207Y-132687362D01*
X153609088Y-132689320D01*
X153612319Y-132691654D01*
X153615642Y-132698213D01*
X153618324Y-132710497D01*
X153620433Y-132730270D01*
X153622036Y-132759295D01*
X153623197Y-132799334D01*
X153623985Y-132852150D01*
X153624465Y-132919505D01*
X153624705Y-133003164D01*
X153624770Y-133104887D01*
X153624761Y-133135471D01*
X153624559Y-133236150D01*
X153624061Y-133318857D01*
X153623221Y-133385052D01*
X153621996Y-133436195D01*
X153620343Y-133473745D01*
X153618218Y-133499163D01*
X153615577Y-133513907D01*
X153612377Y-133519437D01*
X153612179Y-133519511D01*
X153597340Y-133521285D01*
X153566077Y-133522703D01*
X153521409Y-133523773D01*
X153466358Y-133524505D01*
X153403944Y-133524910D01*
X153337190Y-133524996D01*
X153269115Y-133524774D01*
X153202741Y-133524253D01*
X153141088Y-133523442D01*
X153087179Y-133522351D01*
X153044033Y-133520990D01*
X153014672Y-133519369D01*
X153002117Y-133517496D01*
X152997813Y-133512823D01*
X152992300Y-133490577D01*
X152992203Y-133450727D01*
X152995223Y-133392162D01*
X153471101Y-133382248D01*
X153471101Y-133164137D01*
X153044793Y-133154223D01*
X153041842Y-133092260D01*
X153040801Y-133062796D01*
X153040741Y-133038421D01*
X153041842Y-133028317D01*
X153043590Y-133028053D01*
X153060688Y-133027077D01*
X153093587Y-133025772D01*
X153139373Y-133024237D01*
X153195131Y-133022573D01*
X153257947Y-133020881D01*
X153471101Y-133015425D01*
X153473936Y-132918946D01*
X153476772Y-132822467D01*
X153245911Y-132819805D01*
X153015051Y-132817143D01*
X153012031Y-132758578D01*
X153011419Y-132738388D01*
X153013923Y-132706641D01*
X153021945Y-132691809D01*
X153029207Y-132690311D01*
X153054263Y-132688428D01*
X153093860Y-132686829D01*
X153144905Y-132685527D01*
X153204306Y-132684534D01*
X153268968Y-132683864D01*
X153335798Y-132683531D01*
X153401703Y-132683546D01*
G37*
G36*
X157050102Y-132683546D02*
G01*
X157111989Y-132683924D01*
X157166764Y-132684677D01*
X157211335Y-132685819D01*
X157242607Y-132687362D01*
X157257488Y-132689320D01*
X157260683Y-132691611D01*
X157264015Y-132698123D01*
X157266706Y-132710347D01*
X157268821Y-132730047D01*
X157270428Y-132758988D01*
X157271593Y-132798933D01*
X157272383Y-132851649D01*
X157272864Y-132918899D01*
X157273104Y-133002448D01*
X157273170Y-133104061D01*
X157273138Y-133144089D01*
X157272850Y-133229733D01*
X157272288Y-133308220D01*
X157271487Y-133377439D01*
X157270480Y-133435278D01*
X157269301Y-133479624D01*
X157267983Y-133508367D01*
X157266560Y-133519394D01*
X157265289Y-133519959D01*
X157248923Y-133521842D01*
X157216497Y-133523345D01*
X157170986Y-133524479D01*
X157115364Y-133525252D01*
X157052605Y-133525674D01*
X156985684Y-133525753D01*
X156917575Y-133525500D01*
X156851251Y-133524922D01*
X156789688Y-133524030D01*
X156735858Y-133522832D01*
X156692737Y-133521338D01*
X156663299Y-133519556D01*
X156650517Y-133517496D01*
X156646213Y-133512823D01*
X156640700Y-133490577D01*
X156640603Y-133450727D01*
X156643622Y-133392162D01*
X156884040Y-133389508D01*
X157124458Y-133386853D01*
X157124458Y-133159567D01*
X156908825Y-133156895D01*
X156693193Y-133154223D01*
X156690168Y-133101369D01*
X156689750Y-133083762D01*
X156692348Y-133052835D01*
X156698818Y-133034449D01*
X156699442Y-133033760D01*
X156707934Y-133029038D01*
X156724407Y-133025515D01*
X156751228Y-133023041D01*
X156790768Y-133021463D01*
X156845394Y-133020627D01*
X156917475Y-133020382D01*
X157124458Y-133020382D01*
X157124458Y-132822465D01*
X156893954Y-132819804D01*
X156663451Y-132817143D01*
X156660431Y-132758578D01*
X156659819Y-132738388D01*
X156662323Y-132706641D01*
X156670345Y-132691809D01*
X156677606Y-132690311D01*
X156702662Y-132688428D01*
X156742260Y-132686829D01*
X156793305Y-132685527D01*
X156852705Y-132684534D01*
X156917367Y-132683864D01*
X156984197Y-132683531D01*
X157050102Y-132683546D01*
G37*
G36*
X156973860Y-131343754D02*
G01*
X157043666Y-131360177D01*
X157121196Y-131394223D01*
X157185340Y-131442887D01*
X157236116Y-131506190D01*
X157273542Y-131584149D01*
X157297637Y-131676783D01*
X157301550Y-131699947D01*
X157306767Y-131739297D01*
X157307806Y-131772506D01*
X157304652Y-131808080D01*
X157297287Y-131854521D01*
X157277478Y-131938663D01*
X157243546Y-132022501D01*
X157198128Y-132090330D01*
X157141313Y-132142052D01*
X157073192Y-132177564D01*
X156993852Y-132196766D01*
X156927981Y-132201669D01*
X156839841Y-132195067D01*
X156761749Y-132172581D01*
X156694681Y-132134662D01*
X156639615Y-132081758D01*
X156597528Y-132014320D01*
X156587086Y-131991189D01*
X156572190Y-131947713D01*
X156571069Y-131916726D01*
X156584671Y-131896150D01*
X156613945Y-131883910D01*
X156659837Y-131877931D01*
X156679596Y-131877079D01*
X156695099Y-131879880D01*
X156706715Y-131890170D01*
X156718264Y-131911561D01*
X156733566Y-131947666D01*
X156763726Y-131997019D01*
X156806770Y-132034343D01*
X156858982Y-132058105D01*
X156916847Y-132067260D01*
X156976848Y-132060759D01*
X157035471Y-132037557D01*
X157072740Y-132010973D01*
X157107165Y-131969016D01*
X157130683Y-131914605D01*
X157144019Y-131845956D01*
X157147899Y-131761288D01*
X157147857Y-131755766D01*
X157146521Y-131704708D01*
X157143030Y-131667469D01*
X157136593Y-131638581D01*
X157126420Y-131612576D01*
X157099236Y-131564665D01*
X157057550Y-131519686D01*
X157005925Y-131490882D01*
X156942409Y-131476812D01*
X156926378Y-131475528D01*
X156863958Y-131479320D01*
X156812764Y-131499036D01*
X156771286Y-131535507D01*
X156738012Y-131589569D01*
X156716666Y-131634980D01*
X156660969Y-131628434D01*
X156655772Y-131627797D01*
X156613015Y-131619119D01*
X156587846Y-131604904D01*
X156579322Y-131582981D01*
X156586504Y-131551183D01*
X156608452Y-131507339D01*
X156620625Y-131487627D01*
X156672239Y-131426819D01*
X156735360Y-131381137D01*
X156807997Y-131351471D01*
X156888161Y-131338713D01*
X156973860Y-131343754D01*
G37*
G36*
X153892154Y-132684471D02*
G01*
X153916426Y-132689320D01*
X153920225Y-132691935D01*
X153924135Y-132699425D01*
X153927098Y-132713596D01*
X153929238Y-132736642D01*
X153930683Y-132770751D01*
X153931559Y-132818116D01*
X153931992Y-132880926D01*
X153932108Y-132961373D01*
X153932108Y-132961878D01*
X153932387Y-133032445D01*
X153933166Y-133096302D01*
X153934370Y-133150825D01*
X153935925Y-133193391D01*
X153937757Y-133221377D01*
X153939792Y-133232158D01*
X153943724Y-133229015D01*
X153957706Y-133211730D01*
X153980331Y-133181089D01*
X154010269Y-133138973D01*
X154046187Y-133087262D01*
X154086754Y-133027839D01*
X154130639Y-132962583D01*
X154313802Y-132688259D01*
X154362716Y-132685163D01*
X154377893Y-132684514D01*
X154410967Y-132684996D01*
X154434593Y-132687830D01*
X154457557Y-132693594D01*
X154457557Y-133104015D01*
X154457547Y-133135686D01*
X154457344Y-133236304D01*
X154456843Y-133318963D01*
X154456002Y-133385122D01*
X154454776Y-133436237D01*
X154453124Y-133473768D01*
X154450999Y-133499173D01*
X154448361Y-133513910D01*
X154445164Y-133519437D01*
X154423548Y-133523991D01*
X154393158Y-133525438D01*
X154361379Y-133523968D01*
X154335254Y-133519915D01*
X154321823Y-133513610D01*
X154321808Y-133513588D01*
X154319506Y-133500603D01*
X154317093Y-133470523D01*
X154314694Y-133426063D01*
X154312436Y-133369935D01*
X154310445Y-133304855D01*
X154308845Y-133233536D01*
X154303888Y-132965855D01*
X153931168Y-133526003D01*
X153869179Y-133526003D01*
X153840936Y-133524864D01*
X153811386Y-133520592D01*
X153795293Y-133514106D01*
X153794489Y-133512712D01*
X153791453Y-133495450D01*
X153788858Y-133461597D01*
X153786705Y-133413754D01*
X153784993Y-133354522D01*
X153783723Y-133286503D01*
X153782893Y-133212296D01*
X153782506Y-133134504D01*
X153782559Y-133055727D01*
X153783054Y-132978566D01*
X153783990Y-132905623D01*
X153785368Y-132839497D01*
X153787187Y-132782791D01*
X153789448Y-132738106D01*
X153792150Y-132708041D01*
X153795293Y-132695199D01*
X153803220Y-132690857D01*
X153827897Y-132685611D01*
X153860093Y-132683359D01*
X153892154Y-132684471D01*
G37*
G36*
X154537813Y-131341416D02*
G01*
X154613768Y-131356537D01*
X154684915Y-131385113D01*
X154747832Y-131426827D01*
X154799097Y-131481362D01*
X154822613Y-131516301D01*
X154849103Y-131568032D01*
X154866306Y-131623497D01*
X154875661Y-131687850D01*
X154878607Y-131766245D01*
X154878363Y-131812004D01*
X154876627Y-131854897D01*
X154872612Y-131888332D01*
X154865576Y-131918015D01*
X154854777Y-131949656D01*
X154840353Y-131985936D01*
X154814074Y-132039145D01*
X154784120Y-132081999D01*
X154746693Y-132120505D01*
X154741906Y-132124762D01*
X154692836Y-132160128D01*
X154638263Y-132183233D01*
X154571569Y-132196966D01*
X154544272Y-132200642D01*
X154518851Y-132204142D01*
X154507127Y-132205861D01*
X154506518Y-132205906D01*
X154492474Y-132204828D01*
X154464827Y-132201765D01*
X154428837Y-132197293D01*
X154418093Y-132195742D01*
X154340369Y-132174010D01*
X154273117Y-132135645D01*
X154217480Y-132081479D01*
X154174603Y-132012343D01*
X154166494Y-131994613D01*
X154150908Y-131951434D01*
X154149004Y-131920463D01*
X154161981Y-131899067D01*
X154191034Y-131884618D01*
X154237363Y-131874484D01*
X154253389Y-131872086D01*
X154272595Y-131872327D01*
X154283775Y-131882321D01*
X154294455Y-131906258D01*
X154312636Y-131948680D01*
X154332043Y-131984238D01*
X154353101Y-132010359D01*
X154379337Y-132032278D01*
X154394070Y-132041597D01*
X154446480Y-132061139D01*
X154506036Y-132067171D01*
X154566442Y-132058800D01*
X154610020Y-132040234D01*
X154654935Y-132003152D01*
X154690547Y-131952461D01*
X154715841Y-131890770D01*
X154729800Y-131820687D01*
X154731407Y-131744819D01*
X154719646Y-131665774D01*
X154709392Y-131626485D01*
X154697372Y-131595247D01*
X154680950Y-131569556D01*
X154656348Y-131542024D01*
X154641144Y-131527370D01*
X154592080Y-131493872D01*
X154536898Y-131477194D01*
X154471624Y-131475911D01*
X154448548Y-131478861D01*
X154394708Y-131496927D01*
X154352751Y-131530516D01*
X154321152Y-131580691D01*
X154296365Y-131634833D01*
X154243964Y-131628674D01*
X154231363Y-131627136D01*
X154194613Y-131621178D01*
X154172975Y-131613655D01*
X154162723Y-131602688D01*
X154160133Y-131586400D01*
X154161071Y-131576355D01*
X154171734Y-131542213D01*
X154191601Y-131502340D01*
X154217303Y-131462907D01*
X154245472Y-131430080D01*
X154254349Y-131421825D01*
X154315317Y-131379955D01*
X154385165Y-131352808D01*
X154460471Y-131340068D01*
X154537813Y-131341416D01*
G37*
G36*
X153979627Y-131351626D02*
G01*
X154007268Y-131357257D01*
X154022543Y-131366236D01*
X154023228Y-131368643D01*
X154024941Y-131387901D01*
X154026396Y-131424009D01*
X154027561Y-131474787D01*
X154028405Y-131538057D01*
X154028894Y-131611639D01*
X154028997Y-131693353D01*
X154028682Y-131781021D01*
X154026292Y-132182448D01*
X153996550Y-132189103D01*
X153975618Y-132191682D01*
X153942421Y-132191427D01*
X153910890Y-132187693D01*
X153890048Y-132181153D01*
X153889314Y-132180059D01*
X153886656Y-132164521D01*
X153884504Y-132133899D01*
X153883063Y-132091972D01*
X153882537Y-132042518D01*
X153882537Y-131908526D01*
X153782831Y-131805902D01*
X153755107Y-131838147D01*
X153752452Y-131841325D01*
X153734599Y-131864585D01*
X153709396Y-131899300D01*
X153679811Y-131941327D01*
X153648813Y-131986522D01*
X153643574Y-131994250D01*
X153611474Y-132040982D01*
X153580442Y-132085234D01*
X153553786Y-132122333D01*
X153534814Y-132147603D01*
X153499386Y-132192553D01*
X153420802Y-132187596D01*
X153380303Y-132184058D01*
X153354575Y-132177788D01*
X153343744Y-132166297D01*
X153347223Y-132147054D01*
X153364426Y-132117525D01*
X153394765Y-132075178D01*
X153439240Y-132014972D01*
X153492162Y-131942998D01*
X153540061Y-131877483D01*
X153581801Y-131820001D01*
X153616244Y-131772126D01*
X153642254Y-131735432D01*
X153658694Y-131711492D01*
X153664426Y-131701880D01*
X153663201Y-131699953D01*
X153651142Y-131686395D01*
X153627843Y-131661883D01*
X153595328Y-131628503D01*
X153555625Y-131588345D01*
X153510757Y-131543496D01*
X153491932Y-131524688D01*
X153448830Y-131480874D01*
X153411754Y-131442136D01*
X153382745Y-131410667D01*
X153363843Y-131388661D01*
X153357088Y-131378312D01*
X153357721Y-131371648D01*
X153363176Y-131363645D01*
X153377342Y-131358659D01*
X153403925Y-131355671D01*
X153446631Y-131353659D01*
X153520672Y-131351005D01*
X153693345Y-131526404D01*
X153730660Y-131564112D01*
X153775211Y-131608578D01*
X153813822Y-131646494D01*
X153844520Y-131675946D01*
X153865329Y-131695020D01*
X153874278Y-131701803D01*
X153876454Y-131695818D01*
X153878880Y-131672985D01*
X153880807Y-131636096D01*
X153882078Y-131588368D01*
X153882537Y-131533018D01*
X153882537Y-131531244D01*
X153882627Y-131470241D01*
X153883137Y-131426083D01*
X153884435Y-131395858D01*
X153886887Y-131376654D01*
X153890862Y-131365561D01*
X153896725Y-131359668D01*
X153904844Y-131356063D01*
X153916348Y-131352919D01*
X153946895Y-131349970D01*
X153979627Y-131351626D01*
G37*
G36*
X155907498Y-131353640D02*
G01*
X155909185Y-131353819D01*
X155915267Y-131356741D01*
X155919546Y-131365265D01*
X155922332Y-131382236D01*
X155923937Y-131410498D01*
X155924672Y-131452897D01*
X155924848Y-131512278D01*
X155924896Y-131560324D01*
X155925311Y-131605850D01*
X155926501Y-131636881D01*
X155928874Y-131656401D01*
X155932835Y-131667393D01*
X155938793Y-131672841D01*
X155947155Y-131675726D01*
X155954123Y-131676852D01*
X155980350Y-131678790D01*
X156020257Y-131680359D01*
X156069823Y-131681422D01*
X156125024Y-131681840D01*
X156165683Y-131681703D01*
X156219514Y-131680617D01*
X156256646Y-131678332D01*
X156279028Y-131674703D01*
X156288607Y-131669582D01*
X156289931Y-131665652D01*
X156292859Y-131644214D01*
X156295503Y-131608480D01*
X156297616Y-131562284D01*
X156298951Y-131509459D01*
X156299414Y-131484353D01*
X156300744Y-131435320D01*
X156302404Y-131395352D01*
X156304227Y-131368034D01*
X156306046Y-131356957D01*
X156313636Y-131355038D01*
X156336427Y-131353531D01*
X156368165Y-131353457D01*
X156395305Y-131354951D01*
X156422962Y-131360790D01*
X156438197Y-131371936D01*
X156438769Y-131372813D01*
X156441965Y-131382733D01*
X156444506Y-131401410D01*
X156446430Y-131430423D01*
X156447774Y-131471355D01*
X156448576Y-131525787D01*
X156448874Y-131595299D01*
X156448707Y-131681473D01*
X156448111Y-131785891D01*
X156445340Y-132182638D01*
X156373462Y-132185551D01*
X156301585Y-132188464D01*
X156299632Y-132116152D01*
X156298963Y-132076129D01*
X156298870Y-132020205D01*
X156299579Y-131969485D01*
X156299790Y-131926950D01*
X156298498Y-131884707D01*
X156295967Y-131852994D01*
X156290456Y-131810859D01*
X156113670Y-131810859D01*
X156100208Y-131810865D01*
X156039357Y-131811165D01*
X155995141Y-131812083D01*
X155964871Y-131813849D01*
X155945861Y-131816693D01*
X155935421Y-131820847D01*
X155930866Y-131826541D01*
X155929285Y-131836723D01*
X155927516Y-131864587D01*
X155926110Y-131905858D01*
X155925183Y-131956951D01*
X155924848Y-132014281D01*
X155924848Y-132186339D01*
X155892627Y-132190303D01*
X155863994Y-132191935D01*
X155828458Y-132189554D01*
X155799512Y-132183167D01*
X155783723Y-132173773D01*
X155783232Y-132172141D01*
X155781660Y-132154579D01*
X155780214Y-132120030D01*
X155778935Y-132070679D01*
X155777863Y-132008712D01*
X155777037Y-131936311D01*
X155776499Y-131855663D01*
X155776288Y-131768952D01*
X155776136Y-131375094D01*
X155798443Y-131361860D01*
X155798908Y-131361586D01*
X155814140Y-131354857D01*
X155833958Y-131351543D01*
X155863398Y-131351264D01*
X155907498Y-131353640D01*
G37*
G36*
X155367053Y-132678977D02*
G01*
X155407303Y-132684939D01*
X155442625Y-132694982D01*
X155480800Y-132710802D01*
X155487063Y-132713732D01*
X155553114Y-132753977D01*
X155608061Y-132804866D01*
X155647648Y-132862532D01*
X155649045Y-132865291D01*
X155685060Y-132957188D01*
X155703857Y-133053210D01*
X155705374Y-133149978D01*
X155689549Y-133244115D01*
X155656321Y-133332245D01*
X155646741Y-133349707D01*
X155602157Y-133407557D01*
X155543328Y-133458368D01*
X155474416Y-133498995D01*
X155399581Y-133526294D01*
X155385266Y-133528698D01*
X155350921Y-133531308D01*
X155306787Y-133532438D01*
X155258908Y-133531848D01*
X155247130Y-133531459D01*
X155201703Y-133529294D01*
X155168008Y-133525452D01*
X155139367Y-133518394D01*
X155109104Y-133506584D01*
X155070539Y-133488484D01*
X155054883Y-133480764D01*
X155015373Y-133460106D01*
X154981999Y-133441095D01*
X154960699Y-133427051D01*
X154933435Y-133405594D01*
X154933435Y-133248037D01*
X154933455Y-133221897D01*
X154933791Y-133169605D01*
X154934824Y-133132849D01*
X154936909Y-133108568D01*
X154940406Y-133093702D01*
X154945671Y-133085191D01*
X154953061Y-133079975D01*
X154955137Y-133079088D01*
X154977049Y-133075290D01*
X155016336Y-133072818D01*
X155070977Y-133071757D01*
X155138951Y-133072191D01*
X155305215Y-133074910D01*
X155305215Y-133203794D01*
X155082147Y-133209400D01*
X155082147Y-133333989D01*
X155143037Y-133363076D01*
X155146544Y-133364742D01*
X155179875Y-133379058D01*
X155209570Y-133387335D01*
X155243434Y-133391113D01*
X155289271Y-133391932D01*
X155297059Y-133391897D01*
X155339677Y-133390632D01*
X155370473Y-133386564D01*
X155396383Y-133378277D01*
X155424344Y-133364355D01*
X155449926Y-133348208D01*
X155496195Y-133303199D01*
X155528749Y-133244644D01*
X155548165Y-133171645D01*
X155551331Y-133148099D01*
X155552750Y-133072113D01*
X155541197Y-133001176D01*
X155517902Y-132938004D01*
X155484094Y-132885308D01*
X155441002Y-132845802D01*
X155389855Y-132822199D01*
X155372064Y-132818317D01*
X155329488Y-132813080D01*
X155282898Y-132811062D01*
X155240116Y-132812465D01*
X155208967Y-132817494D01*
X155206890Y-132818147D01*
X155163939Y-132841226D01*
X155125139Y-132879013D01*
X155095534Y-132926655D01*
X155071659Y-132978804D01*
X155016531Y-132965989D01*
X154993160Y-132960234D01*
X154963237Y-132949876D01*
X154948561Y-132937095D01*
X154946282Y-132918482D01*
X154953551Y-132890626D01*
X154975893Y-132837312D01*
X155018596Y-132775510D01*
X155074566Y-132728289D01*
X155143539Y-132695805D01*
X155225252Y-132678212D01*
X155319443Y-132675664D01*
X155367053Y-132678977D01*
G37*
G36*
X158351728Y-133937439D02*
G01*
X158351124Y-133968524D01*
X158349665Y-134019544D01*
X158347980Y-134058153D01*
X158346045Y-134085452D01*
X158343838Y-134102541D01*
X158341337Y-134110521D01*
X158340592Y-134111508D01*
X158328577Y-134125203D01*
X158304954Y-134150816D01*
X158271599Y-134186361D01*
X158230386Y-134229847D01*
X158183191Y-134279287D01*
X158131887Y-134332692D01*
X157934777Y-134537244D01*
X156946895Y-134537244D01*
X156829958Y-134615107D01*
X156827445Y-134616780D01*
X156786842Y-134643725D01*
X156733387Y-134679085D01*
X156670537Y-134720579D01*
X156601752Y-134765924D01*
X156530490Y-134812840D01*
X156460211Y-134859043D01*
X156442879Y-134870432D01*
X156377203Y-134913643D01*
X156314956Y-134954682D01*
X156258770Y-134991808D01*
X156211273Y-135023282D01*
X156175097Y-135047364D01*
X156152873Y-135062314D01*
X156124936Y-135080800D01*
X156100109Y-135096092D01*
X156085954Y-135103409D01*
X156078423Y-135103745D01*
X156052011Y-135104116D01*
X156007675Y-135104437D01*
X155946463Y-135104708D01*
X155869428Y-135104929D01*
X155777621Y-135105099D01*
X155672093Y-135105217D01*
X155553895Y-135105284D01*
X155424077Y-135105298D01*
X155283692Y-135105258D01*
X155133790Y-135105166D01*
X154975423Y-135105019D01*
X154809640Y-135104817D01*
X154637495Y-135104560D01*
X154460036Y-135104247D01*
X152846511Y-135101187D01*
X152781980Y-135034848D01*
X152755188Y-135007072D01*
X152717690Y-134967851D01*
X152673473Y-134921364D01*
X152626001Y-134871256D01*
X152578741Y-134821169D01*
X152545108Y-134785499D01*
X152504430Y-134741670D01*
X152474326Y-134706458D01*
X152453190Y-134676175D01*
X152439418Y-134647128D01*
X152431407Y-134615627D01*
X152427552Y-134577982D01*
X152426249Y-134530503D01*
X152425895Y-134469498D01*
X152425658Y-134444397D01*
X152424427Y-134398612D01*
X152422038Y-134369344D01*
X152418237Y-134354278D01*
X152412768Y-134351103D01*
X152410498Y-134352739D01*
X152397544Y-134367307D01*
X152375866Y-134394848D01*
X152347294Y-134432940D01*
X152313659Y-134479159D01*
X152276790Y-134531085D01*
X152153206Y-134707186D01*
X151815783Y-134700964D01*
X151756116Y-134699802D01*
X151679471Y-134698121D01*
X151610370Y-134696392D01*
X151551269Y-134694687D01*
X151504625Y-134693079D01*
X151472894Y-134691639D01*
X151458533Y-134690441D01*
X151454485Y-134688974D01*
X151437231Y-134673816D01*
X151421745Y-134648871D01*
X151417687Y-134640057D01*
X151404573Y-134611911D01*
X151385227Y-134570609D01*
X151361087Y-134519219D01*
X151333595Y-134460808D01*
X151304191Y-134398446D01*
X151289427Y-134367154D01*
X151259571Y-134303820D01*
X151231664Y-134244553D01*
X151207336Y-134192818D01*
X151188217Y-134152081D01*
X151175937Y-134125808D01*
X151162302Y-134096597D01*
X151141681Y-134052608D01*
X151118070Y-134002377D01*
X151094354Y-133952049D01*
X151040430Y-133837774D01*
X151039632Y-133679007D01*
X151483318Y-133679007D01*
X151597565Y-133947021D01*
X151605458Y-133965523D01*
X151634281Y-134032846D01*
X151660575Y-134093897D01*
X151683298Y-134146278D01*
X151701406Y-134187594D01*
X151713858Y-134215448D01*
X151719609Y-134227444D01*
X151733761Y-134234434D01*
X151767196Y-134239512D01*
X151819140Y-134242316D01*
X151910876Y-134244777D01*
X151962734Y-134160507D01*
X151980654Y-134131280D01*
X152012357Y-134079271D01*
X152046136Y-134023579D01*
X152077171Y-133972139D01*
X152077465Y-133971649D01*
X152102645Y-133930605D01*
X152125089Y-133895531D01*
X152142359Y-133870135D01*
X152152022Y-133858126D01*
X152160632Y-133856712D01*
X152186831Y-133855501D01*
X152227678Y-133854780D01*
X152280355Y-133854510D01*
X152342040Y-133854650D01*
X152409915Y-133855161D01*
X152481159Y-133856003D01*
X152552954Y-133857136D01*
X152622478Y-133858520D01*
X152686914Y-133860116D01*
X152743440Y-133861882D01*
X152789237Y-133863781D01*
X152821485Y-133865771D01*
X152837365Y-133867813D01*
X152839782Y-133872594D01*
X152843694Y-133896054D01*
X152847750Y-133938640D01*
X152851919Y-133999926D01*
X152856168Y-134079485D01*
X152860466Y-134176890D01*
X152872885Y-134482717D01*
X152934054Y-134544454D01*
X152941823Y-134552215D01*
X152975267Y-134584132D01*
X153006985Y-134612376D01*
X153031016Y-134631592D01*
X153066809Y-134656991D01*
X153353225Y-134654485D01*
X153358497Y-134654439D01*
X153409559Y-134654007D01*
X153478546Y-134653440D01*
X153563774Y-134652752D01*
X153663560Y-134651956D01*
X153776221Y-134651065D01*
X153900074Y-134650092D01*
X154033436Y-134649050D01*
X154174624Y-134647953D01*
X154321955Y-134646814D01*
X154473746Y-134645645D01*
X154628314Y-134644461D01*
X154783975Y-134643274D01*
X154949675Y-134641998D01*
X155107836Y-134640737D01*
X155248271Y-134639551D01*
X155372062Y-134638417D01*
X155480294Y-134637312D01*
X155574049Y-134636212D01*
X155654410Y-134635094D01*
X155722462Y-134633934D01*
X155779287Y-134632709D01*
X155825969Y-134631394D01*
X155863591Y-134629967D01*
X155893236Y-134628404D01*
X155915989Y-134626682D01*
X155932932Y-134624776D01*
X155945149Y-134622664D01*
X155953722Y-134620321D01*
X155959737Y-134617725D01*
X155969325Y-134612377D01*
X155997923Y-134595564D01*
X156034838Y-134573182D01*
X156074497Y-134548587D01*
X156093993Y-134536382D01*
X156138962Y-134508348D01*
X156192795Y-134474893D01*
X156250364Y-134439201D01*
X156306542Y-134404458D01*
X156310507Y-134402009D01*
X156367423Y-134366810D01*
X156435237Y-134324803D01*
X156508463Y-134279390D01*
X156581616Y-134233972D01*
X156649210Y-134191952D01*
X156843166Y-134071280D01*
X157105260Y-134070322D01*
X157143003Y-134070130D01*
X157231019Y-134069343D01*
X157322712Y-134068130D01*
X157412207Y-134066586D01*
X157493626Y-134064806D01*
X157561093Y-134062887D01*
X157754833Y-134056409D01*
X157887835Y-133937439D01*
X157887383Y-132356136D01*
X157886932Y-130774832D01*
X157808157Y-130691730D01*
X157729382Y-130608627D01*
X157079844Y-130612033D01*
X156856859Y-130388573D01*
X156633873Y-130165113D01*
X154202158Y-130165113D01*
X153960556Y-130415271D01*
X153929730Y-130447187D01*
X153865677Y-130513487D01*
X153801577Y-130579816D01*
X153740194Y-130643317D01*
X153684292Y-130701130D01*
X153636634Y-130750396D01*
X153599985Y-130788255D01*
X153481015Y-130911081D01*
X153177207Y-130906164D01*
X153145457Y-130905684D01*
X153071876Y-130904850D01*
X153005638Y-130904479D01*
X152949237Y-130904563D01*
X152905170Y-130905091D01*
X152875934Y-130906053D01*
X152864026Y-130907438D01*
X152863934Y-130907510D01*
X152861090Y-130919330D01*
X152857846Y-130948249D01*
X152854389Y-130991642D01*
X152850903Y-131046882D01*
X152847576Y-131111342D01*
X152844592Y-131182397D01*
X152844529Y-131184076D01*
X152841617Y-131255343D01*
X152838519Y-131320252D01*
X152835399Y-131376112D01*
X152832420Y-131420230D01*
X152829747Y-131449914D01*
X152827543Y-131462472D01*
X152826587Y-131463384D01*
X152814205Y-131466724D01*
X152787455Y-131469369D01*
X152745245Y-131471357D01*
X152686485Y-131472728D01*
X152610084Y-131473522D01*
X152514952Y-131473778D01*
X152209349Y-131473778D01*
X152154105Y-131387030D01*
X152132277Y-131352589D01*
X152098956Y-131299643D01*
X152063721Y-131243335D01*
X152031312Y-131191226D01*
X151963763Y-131082170D01*
X151897224Y-131079243D01*
X151891140Y-131078997D01*
X151846073Y-131079682D01*
X151814240Y-131087126D01*
X151790130Y-131103546D01*
X151768234Y-131131161D01*
X151763009Y-131138971D01*
X151745904Y-131164435D01*
X151720630Y-131201995D01*
X151689076Y-131248844D01*
X151653129Y-131302178D01*
X151614680Y-131359193D01*
X151483318Y-131553925D01*
X151483318Y-133679007D01*
X151039632Y-133679007D01*
X151034318Y-132621915D01*
X151028206Y-131406055D01*
X151139271Y-131246644D01*
X151166420Y-131207633D01*
X151215448Y-131137035D01*
X151267944Y-131061295D01*
X151319160Y-130987267D01*
X151364348Y-130921805D01*
X151364541Y-130921525D01*
X151402665Y-130866227D01*
X151440089Y-130811978D01*
X151474176Y-130762599D01*
X151502289Y-130721908D01*
X151521791Y-130693727D01*
X151565220Y-130631077D01*
X152204008Y-130631077D01*
X152306991Y-130760013D01*
X152332621Y-130791611D01*
X152364866Y-130829869D01*
X152391682Y-130859953D01*
X152410824Y-130879367D01*
X152420046Y-130885618D01*
X152420516Y-130885350D01*
X152424012Y-130875590D01*
X152427358Y-130851554D01*
X152430608Y-130812317D01*
X152433818Y-130756952D01*
X152437042Y-130684535D01*
X152440335Y-130594140D01*
X152443751Y-130484844D01*
X152444988Y-130442709D01*
X152862034Y-130442709D01*
X152946043Y-130442597D01*
X153050950Y-130442035D01*
X153136876Y-130440988D01*
X153204319Y-130439445D01*
X153253778Y-130437392D01*
X153285750Y-130434816D01*
X153300734Y-130431706D01*
X153302795Y-130430314D01*
X153318006Y-130417168D01*
X153345368Y-130391777D01*
X153383473Y-130355502D01*
X153430916Y-130309706D01*
X153486291Y-130255751D01*
X153548192Y-130194997D01*
X153615213Y-130128808D01*
X153685948Y-130058546D01*
X154049507Y-129696388D01*
X154540542Y-129701265D01*
X154574152Y-129701594D01*
X154681939Y-129702558D01*
X154771899Y-129703171D01*
X154845591Y-129703404D01*
X154904576Y-129703227D01*
X154950415Y-129702612D01*
X154984668Y-129701528D01*
X155008896Y-129699946D01*
X155024659Y-129697837D01*
X155033518Y-129695171D01*
X155037033Y-129691920D01*
X155039714Y-129676185D01*
X155041722Y-129646659D01*
X155042490Y-129610276D01*
X155042490Y-129542852D01*
X154802073Y-129536055D01*
X154757670Y-129534651D01*
X154691641Y-129532000D01*
X154632697Y-129528966D01*
X154584025Y-129525745D01*
X154548808Y-129522529D01*
X154530230Y-129519513D01*
X154515556Y-129512998D01*
X154483111Y-129489225D01*
X154449314Y-129454924D01*
X154418744Y-129415038D01*
X154395976Y-129374511D01*
X154384911Y-129341334D01*
X154380224Y-129281489D01*
X154392641Y-129220946D01*
X154421171Y-129163471D01*
X154464825Y-129112828D01*
X154465856Y-129111898D01*
X154484726Y-129096143D01*
X154502919Y-129085377D01*
X154525538Y-129077880D01*
X154557689Y-129071937D01*
X154604473Y-129065829D01*
X154630879Y-129063715D01*
X154676688Y-129061647D01*
X154738339Y-129059815D01*
X154813759Y-129058220D01*
X154900875Y-129056865D01*
X154997615Y-129055752D01*
X155101903Y-129054882D01*
X155211668Y-129054259D01*
X155324836Y-129053884D01*
X155439334Y-129053760D01*
X155553089Y-129053887D01*
X155664026Y-129054269D01*
X155770074Y-129054907D01*
X155869159Y-129055804D01*
X155959207Y-129056962D01*
X156038146Y-129058382D01*
X156103902Y-129060067D01*
X156154402Y-129062019D01*
X156187572Y-129064239D01*
X156207033Y-129066061D01*
X156261249Y-129070303D01*
X156313978Y-129073429D01*
X156356113Y-129074863D01*
X156393046Y-129076665D01*
X156431897Y-129081253D01*
X156459853Y-129087511D01*
X156471233Y-129092554D01*
X156504420Y-129118082D01*
X156536561Y-129156597D01*
X156564099Y-129203323D01*
X156583475Y-129253480D01*
X156591759Y-129285494D01*
X156594382Y-129309400D01*
X156590441Y-129332349D01*
X156579615Y-129363551D01*
X156571452Y-129382931D01*
X156551056Y-129421642D01*
X156529744Y-129452980D01*
X156512414Y-129471984D01*
X156492913Y-129487650D01*
X156469274Y-129499778D01*
X156438882Y-129508960D01*
X156399123Y-129515787D01*
X156347380Y-129520849D01*
X156281040Y-129524736D01*
X156197487Y-129528041D01*
X155979376Y-129535566D01*
X155982908Y-129614879D01*
X155983298Y-129622567D01*
X155986756Y-129660563D01*
X155991862Y-129688493D01*
X155997780Y-129701476D01*
X156002608Y-129702396D01*
X156025346Y-129703882D01*
X156064576Y-129705243D01*
X156118199Y-129706442D01*
X156184117Y-129707444D01*
X156260233Y-129708213D01*
X156344446Y-129708714D01*
X156434659Y-129708911D01*
X156860199Y-129709063D01*
X157084034Y-129932035D01*
X157307869Y-130155008D01*
X157922545Y-130156004D01*
X158125785Y-130348209D01*
X158329024Y-130540415D01*
X158335158Y-130766679D01*
X158335870Y-130794312D01*
X158337707Y-130878322D01*
X158339403Y-130973063D01*
X158340858Y-131071934D01*
X158341971Y-131168335D01*
X158342639Y-131255667D01*
X158343026Y-131309124D01*
X158343961Y-131387416D01*
X158345259Y-131462960D01*
X158346830Y-131531485D01*
X158348587Y-131588721D01*
X158350440Y-131630399D01*
X158356893Y-131742407D01*
X158561070Y-131739455D01*
X158765246Y-131736503D01*
X158761926Y-131245753D01*
X158761551Y-131173073D01*
X158761477Y-131040791D01*
X158762179Y-130914319D01*
X158763611Y-130795216D01*
X158765727Y-130685037D01*
X158768479Y-130585340D01*
X158771822Y-130497682D01*
X158775709Y-130423621D01*
X158780094Y-130364713D01*
X158784930Y-130322516D01*
X158790171Y-130298587D01*
X158798534Y-130283667D01*
X158818283Y-130257709D01*
X158843379Y-130230213D01*
X158856895Y-130217202D01*
X158914115Y-130173649D01*
X158970524Y-130149826D01*
X159026516Y-130145688D01*
X159082485Y-130161188D01*
X159138828Y-130196283D01*
X159142429Y-130199174D01*
X159172326Y-130227884D01*
X159194283Y-130260623D01*
X159209850Y-130301322D01*
X159220578Y-130353911D01*
X159228019Y-130422322D01*
X159228961Y-130441609D01*
X159230039Y-130480892D01*
X159231137Y-130537868D01*
X159232248Y-130611415D01*
X159233362Y-130700407D01*
X159234470Y-130803720D01*
X159235562Y-130920231D01*
X159236629Y-131048816D01*
X159237663Y-131188350D01*
X159238652Y-131337710D01*
X159239589Y-131495771D01*
X159240465Y-131661410D01*
X159241269Y-131833503D01*
X159241992Y-132010925D01*
X159242626Y-132192553D01*
X159242933Y-132290351D01*
X159243581Y-132513880D01*
X159244085Y-132718743D01*
X159244434Y-132905763D01*
X159244616Y-133075762D01*
X159244619Y-133229562D01*
X159244433Y-133367986D01*
X159244045Y-133491857D01*
X159243446Y-133601998D01*
X159242622Y-133699230D01*
X159241563Y-133784376D01*
X159240257Y-133858260D01*
X159238694Y-133921702D01*
X159236861Y-133975527D01*
X159234748Y-134020557D01*
X159232342Y-134057614D01*
X159229633Y-134087520D01*
X159226609Y-134111099D01*
X159223259Y-134129173D01*
X159219572Y-134142564D01*
X159215535Y-134152095D01*
X159214245Y-134154440D01*
X159188927Y-134189475D01*
X159153072Y-134227104D01*
X159113190Y-134261121D01*
X159075790Y-134285321D01*
X159036130Y-134301622D01*
X158985792Y-134308939D01*
X158937649Y-134298612D01*
X158889540Y-134270068D01*
X158839304Y-134222736D01*
X158835150Y-134218224D01*
X158819174Y-134201275D01*
X158805332Y-134186333D01*
X158793472Y-134171941D01*
X158783442Y-134156645D01*
X158775090Y-134138988D01*
X158768263Y-134117515D01*
X158762808Y-134090770D01*
X158758574Y-134057298D01*
X158755409Y-134015643D01*
X158753160Y-133964350D01*
X158751674Y-133901962D01*
X158750800Y-133827025D01*
X158750386Y-133738083D01*
X158750278Y-133633680D01*
X158750325Y-133512360D01*
X158750375Y-133372668D01*
X158750375Y-132663055D01*
X158358767Y-132668431D01*
X158356222Y-133380666D01*
X158355795Y-133488744D01*
X158355135Y-133618325D01*
X158354361Y-133729993D01*
X158353449Y-133824849D01*
X158352377Y-133903992D01*
X158351728Y-133937439D01*
G37*
%TD*%
D12*
%TO.C,*%
X194500000Y-131530000D03*
%TD*%
D13*
%TO.C,TP6*%
X122428000Y-56388000D03*
%TD*%
%TO.C,TP1*%
X161720000Y-100590000D03*
%TD*%
%TO.C,TP2*%
X116620000Y-124620000D03*
%TD*%
D14*
%TO.C,J25*%
X158440000Y-63220000D03*
D15*
X158440000Y-65760000D03*
X158440000Y-68300000D03*
X158440000Y-70840000D03*
X158440000Y-73380000D03*
X158440000Y-75920000D03*
%TD*%
D16*
%TO.C,J18*%
X116315001Y-99472500D03*
X116315001Y-95972500D03*
%TD*%
D14*
%TO.C,J1*%
X147990000Y-54600000D03*
D15*
X147990000Y-52060000D03*
%TD*%
D13*
%TO.C,TP9*%
X161760000Y-108820000D03*
%TD*%
%TO.C,TP8*%
X165470000Y-75160000D03*
%TD*%
%TO.C,TP5*%
X188260000Y-52580000D03*
%TD*%
D17*
%TO.C,J24*%
X194550000Y-80197500D03*
X194550000Y-72297500D03*
%TD*%
D18*
%TO.C,J23*%
X164940000Y-86730000D03*
X162245924Y-84035924D03*
%TD*%
D19*
%TO.C,K1*%
X128862500Y-56350000D03*
D20*
X128862500Y-58890000D03*
D16*
X128862500Y-74130000D03*
X128862500Y-69050000D03*
%TD*%
D12*
%TO.C,*%
X114500000Y-131530000D03*
%TD*%
D13*
%TO.C,TP4*%
X112860000Y-124670000D03*
%TD*%
%TO.C,TP3*%
X190450000Y-124720000D03*
%TD*%
D21*
%TO.C,U2*%
X133828500Y-116160000D03*
X116298500Y-116160000D03*
D22*
X133828500Y-60960000D03*
X151298500Y-60960000D03*
D23*
X115878500Y-52450000D03*
D24*
X124248500Y-124670000D03*
X143378500Y-124670000D03*
X124248500Y-52450000D03*
X143378500Y-52450000D03*
%TD*%
D21*
%TO.C,U4*%
X174790000Y-116180000D03*
X157260000Y-116180000D03*
D22*
X174790000Y-60980000D03*
X192260000Y-60980000D03*
D23*
X156840000Y-52470000D03*
D24*
X165210000Y-124690000D03*
X184340000Y-124690000D03*
X165210000Y-52470000D03*
X184340000Y-52470000D03*
%TD*%
M02*
