M48
; DRILL file {KiCad 7.0.1} date Sun Jan 14 15:51:55 2024
; FORMAT={-:-/ absolute / inch / decimal}
; #@! TF.CreationDate,2024-01-14T15:51:55-07:00
; #@! TF.GenerationSoftware,Kicad,Pcbnew,7.0.1
; #@! TF.FileFunction,Plated,1,4,PTH
FMAT,2
INCH
; #@! TA.AperFunction,Plated,PTH,ViaDrill
T1C0.0118
; #@! TA.AperFunction,Plated,PTH,ComponentDrill
T2C0.0118
; #@! TA.AperFunction,Plated,PTH,ViaDrill
T3C0.0157
; #@! TA.AperFunction,Plated,PTH,ComponentDrill
T4C0.0276
; #@! TA.AperFunction,Plated,PTH,ComponentDrill
T5C0.0394
; #@! TA.AperFunction,Plated,PTH,ComponentDrill
T6C0.0433
; #@! TA.AperFunction,Plated,PTH,ComponentDrill
T7C0.0472
; #@! TA.AperFunction,Plated,PTH,ComponentDrill
T8C0.0520
; #@! TA.AperFunction,Plated,PTH,ComponentDrill
T9C0.0937
; #@! TA.AperFunction,Plated,PTH,ComponentDrill
T10C0.1252
; #@! TA.AperFunction,Plated,PTH,ComponentDrill
T11C0.1260
; #@! TA.AperFunction,Plated,PTH,ComponentDrill
T12C0.1398
%
G90
G05
T1
X4.4366Y-2.1035
X4.4402Y-2.3673
X4.6453Y-1.9933
X4.6961Y-2.1398
X4.761Y-2.4177
X4.763Y-2.3311
X4.7736Y-1.9902
X4.8193Y-2.6598
X4.8472Y-4.4083
X4.8547Y-3.5811
X4.9445Y-5.024
X4.961Y-2.4441
X4.9673Y-2.7713
X4.9834Y-4.7763
X5.1386Y-2.4906
X5.2508Y-4.7043
X5.2799Y-3.0201
X5.2937Y-3.4083
X5.3913Y-4.8012
X5.3949Y-3.2063
X5.4969Y-2.65
X5.5394Y-5.0118
X5.56Y-3.21
X5.5965Y-3.3839
X5.6071Y-4.6705
X5.6453Y-3.887
X5.672Y-4.4177
X5.7118Y-4.8626
X5.7866Y-3.4488
X5.8461Y-3.0579
X5.8634Y-2.9858
X5.8776Y-3.5457
X5.9319Y-2.6354
X5.9685Y-2.7224
X5.9819Y-4.8299
X5.9976Y-2.8256
X5.9988Y-3.1677
X6.0354Y-5.011
X6.0661Y-2.8205
X6.1366Y-3.3866
X6.1429Y-4.1728
X6.2476Y-3.4122
X6.2673Y-2.313
X6.3469Y-3.0831
X6.3854Y-2.7858
X6.3972Y-3.1311
X6.4043Y-4.572
X6.4197Y-3.165
X6.4311Y-4.3949
X6.4441Y-3.361
X6.4626Y-2.5138
X6.4752Y-3.1106
X6.485Y-2.2374
X6.4894Y-3.0618
X6.4898Y-2.5339
X6.5122Y-2.5583
X6.5583Y-2.485
X6.5602Y-2.2846
X6.5713Y-3.2638
X6.572Y-2.6256
X6.6071Y-3.2185
X6.6157Y-2.9362
X6.6217Y-3.8705
X6.6474Y-2.8825
X6.6508Y-2.7165
X6.6744Y-2.4811
X6.6763Y-2.9056
X6.6961Y-4.7244
X6.6992Y-3.1102
X6.7Y-2.81
X6.7205Y-1.9835
X6.7268Y-2.5378
X6.7472Y-3.3732
X6.7478Y-2.9056
X6.7598Y-1.9083
X6.76Y-2.84
X6.7795Y-2.9232
X6.7829Y-3.0786
X6.7913Y-3.7374
X6.8098Y-2.9851
X6.8138Y-2.1457
X6.8445Y-2.565
X6.8531Y-2.9559
X6.8591Y-2.7862
X6.878Y-3.0898
X6.8933Y-1.8717
X6.8965Y-2.7496
X6.9232Y-3.0701
X6.9256Y-1.9386
X6.9311Y-3.1472
X6.932Y-2.8614
X6.9358Y-2.9921
X6.9362Y-1.9909
X6.9374Y-3.4646
X6.9433Y-2.5799
X6.9433Y-2.6287
X6.9496Y-1.9144
X6.9496Y-2.6811
X6.9559Y-2.8197
X6.9727Y-3.1931
X6.976Y-3.2823
X6.9929Y-2.8673
X6.9945Y-2.998
X6.9945Y-3.1421
X6.9957Y-3.072
X7.0112Y-3.2872
X7.0142Y-4.4335
X7.0257Y-3.1785
X7.0484Y-3.1559
X7.052Y-3.2535
X7.0587Y-2.1469
X7.0657Y-3.0709
X7.0681Y-2.5815
X7.0764Y-2.6276
X7.0835Y-4.1114
X7.0886Y-3.3953
X7.1083Y-3.2323
X7.1142Y-1.9087
X7.1391Y-3.202
X7.1441Y-3.2358
X7.1512Y-2.6441
X7.152Y-1.987
X7.1541Y-3.1538
X7.1626Y-2.4535
X7.165Y-2.9402
X7.176Y-3.1311
X7.1783Y-3.2083
X7.1835Y-3.8449
X7.1916Y-2.6361
X7.198Y-2.7807
X7.2185Y-2.6807
X7.2353Y-2.6495
X7.2359Y-3.0941
X7.248Y-2.9929
X7.2531Y-2.8909
X7.28Y-3.54
X7.2831Y-2.9713
X7.3259Y-2.9377
X7.3264Y-3.8642
X7.3323Y-3.0205
X7.339Y-2.7972
X7.3547Y-3.315
X7.3712Y-2.8379
X7.3854Y-3.1567
X7.3945Y-4.4673
X7.3949Y-4.0004
X7.3961Y-3.0717
X7.4138Y-2.7386
X7.4693Y-2.8677
X7.4795Y-2.9177
X7.4921Y-3.0213
X7.4929Y-3.3665
X7.4945Y-3.5445
X7.4965Y-2.5728
X7.5051Y-3.0799
X7.524Y-2.7709
X7.6398Y-2.7516
T2
X5.7957Y-4.2134
X5.7957Y-4.2646
X5.7957Y-4.3157
X5.7957Y-4.3669
X5.7957Y-4.4181
X5.8469Y-4.2134
X5.8469Y-4.2646
X5.8469Y-4.3157
X5.8469Y-4.3669
X5.8469Y-4.4181
X5.898Y-4.2134
X5.898Y-4.2646
X5.898Y-4.3157
X5.898Y-4.3669
X5.898Y-4.4181
X5.9322Y-3.6102
X5.9322Y-3.6614
X5.9322Y-3.7126
X5.9322Y-3.7638
X5.9322Y-3.815
X5.9834Y-3.6102
X5.9834Y-3.6614
X5.9834Y-3.7126
X5.9834Y-3.7638
X5.9834Y-3.815
X6.0345Y-3.6102
X6.0345Y-3.6614
X6.0345Y-3.7126
X6.0345Y-3.7638
X6.0345Y-3.815
T3
X4.4441Y-2.0157
X4.5992Y-2.7638
X4.6811Y-2.8772
X4.7067Y-3.2626
X4.7898Y-4.8591
X4.835Y-4.8256
X4.839Y-4.0584
X4.8756Y-3.7227
X4.9853Y-4.7048
X4.989Y-4.5539
X4.9906Y-4.4598
X5.0386Y-4.7039
X5.0771Y-4.6958
X5.1035Y-4.8449
X5.1042Y-4.7791
X5.124Y-4.4862
X5.1421Y-4.0134
X5.1465Y-4.1264
X5.1709Y-4.0598
X5.1855Y-3.3602
X5.1874Y-3.1886
X5.3Y-3.87
X5.3Y-3.91
X5.3Y-4.13
X5.37Y-3.87
X5.4078Y-3.8439
X5.411Y-3.7638
X5.4571Y-3.7984
X5.4815Y-4.3134
X5.5015Y-3.0119
X5.6004Y-4.0224
X5.711Y-4.1457
X5.7248Y-3.4551
X5.787Y-3.2161
X5.8437Y-3.8437
X5.8799Y-3.8276
X5.8898Y-3.9638
X5.9673Y-3.2913
X5.9795Y-3.5248
X6.0114Y-4.0392
X6.1071Y-3.935
X6.1213Y-2.9465
X6.1236Y-3.2713
X6.1287Y-3.8291
X6.1587Y-4.365
X6.16Y-2.9532
X6.1788Y-3.574
X6.23Y-3.6251
X6.2547Y-3.9197
X6.2957Y-3.576
X6.2984Y-4.8988
X6.3919Y-3.5333
X6.4414Y-3.5856
X6.457Y-2.2577
X6.5984Y-3.7862
X6.8016Y-3.3213
X6.8128Y-3.4238
X6.8941Y-4.3272
X6.91Y-3.0201
X7.08Y-3.89
X7.115Y-3.7972
X7.1181Y-4.0472
X7.1354Y-3.6622
X7.1555Y-4.3614
X7.1805Y-4.5303
X7.211Y-4.572
X7.2244Y-4.3339
X7.26Y-3.79
X7.2724Y-4.335
X7.29Y-4.2004
X7.3161Y-3.3139
X7.363Y-4.2665
X7.39Y-3.42
X7.4079Y-5.0224
X7.7024Y-1.9953
T5
X4.4433Y-4.9083
X4.5913Y-4.9063
X4.82Y-2.22
X5.0733Y-2.2185
X5.0733Y-2.3185
X5.8264Y-2.0496
X5.8264Y-2.1496
X6.2378Y-2.489
X6.2378Y-2.589
X6.2378Y-2.689
X6.2378Y-2.789
X6.2378Y-2.889
X6.2378Y-2.989
X6.3669Y-3.9602
X6.3685Y-4.2843
X6.5146Y-2.9591
X7.4118Y-2.0701
X7.498Y-4.9102
T6
X4.5793Y-3.7784
X4.5793Y-3.9162
T7
X5.0733Y-2.7185
X5.0733Y-2.9185
T8
X4.8917Y-2.065
X4.8917Y-4.9083
X5.6448Y-2.065
X5.6448Y-4.9083
X6.5043Y-2.0657
X6.5043Y-4.9091
X7.2575Y-2.0657
X7.2575Y-4.9091
T9
X4.5621Y-2.065
X6.1748Y-2.0657
T10
X4.5787Y-4.5732
X5.2688Y-4.5732
X6.1913Y-4.574
X6.8815Y-4.574
T11
X4.5079Y-5.1783
X7.6575Y-5.1783
T12
X5.2688Y-2.4
X5.9566Y-2.4
X6.8815Y-2.4008
X7.5693Y-2.4008
T4
G00X7.6476Y-2.8464
M15
G01X7.6713Y-2.8464
M16
G05
G00X7.6476Y-3.1574
M15
G01X7.6713Y-3.1574
M16
G05
T0
M30
