%TF.GenerationSoftware,KiCad,Pcbnew,9.0.0*%
%TF.CreationDate,2025-05-14T15:36:39-07:00*%
%TF.ProjectId,battery_pack_v1a,62617474-6572-4795-9f70-61636b5f7631,rev?*%
%TF.SameCoordinates,Original*%
%TF.FileFunction,Profile,NP*%
%FSLAX46Y46*%
G04 Gerber Fmt 4.6, Leading zero omitted, Abs format (unit mm)*
G04 Created by KiCad (PCBNEW 9.0.0) date 2025-05-14 15:36:39*
%MOMM*%
%LPD*%
G01*
G04 APERTURE LIST*
%TA.AperFunction,Profile*%
%ADD10C,0.100000*%
%TD*%
%TA.AperFunction,Profile*%
%ADD11C,0.150000*%
%TD*%
G04 APERTURE END LIST*
D10*
X190158162Y-40989322D02*
X195598162Y-41004322D01*
X195700000Y-111000000D02*
X195700000Y-66000000D01*
D11*
X117133162Y-40989322D02*
X120308162Y-40989322D01*
D10*
X195700000Y-66000000D02*
X197000000Y-64000000D01*
X110500000Y-46000000D02*
G75*
G02*
X112663519Y-41014844I6488810J145960D01*
G01*
X110500000Y-118000000D02*
X112000000Y-116000000D01*
D11*
X164123162Y-41624322D02*
X164758162Y-40989322D01*
D10*
X117173162Y-44229322D02*
G75*
G02*
X117173162Y-47429278I38J-1599978D01*
G01*
X198500000Y-61944322D02*
X198500000Y-44500000D01*
X112663520Y-41014845D02*
X117133162Y-40989322D01*
X110500000Y-46000000D02*
X110500000Y-59000000D01*
X197000000Y-64000000D02*
X198500000Y-61944322D01*
D11*
X153328162Y-41624322D02*
X152693162Y-40989322D01*
X198500000Y-131499996D02*
X198500000Y-114500000D01*
D10*
X190773162Y-47329322D02*
X194623162Y-47379322D01*
X198500000Y-131500000D02*
G75*
G02*
X194500000Y-135500000I-4618600J618600D01*
G01*
X112000000Y-116000000D02*
X112000000Y-61000000D01*
D11*
X194500000Y-135500000D02*
X114500000Y-135500000D01*
D10*
X110500000Y-118000000D02*
X110500000Y-132500000D01*
X114472939Y-44255106D02*
X117173162Y-44229322D01*
X112000000Y-61000000D02*
X110500000Y-59000000D01*
X195598162Y-41004322D02*
X198500000Y-44500000D01*
D11*
X164758162Y-40989322D02*
X190158162Y-40989322D01*
D10*
X194623162Y-44179322D02*
X190823137Y-44180115D01*
D11*
X152693162Y-40989322D02*
X120308162Y-40989322D01*
D10*
X114500000Y-135500000D02*
G75*
G02*
X110499976Y-132500007I-60600J4085900D01*
G01*
X194623162Y-44179322D02*
G75*
G02*
X194623162Y-47379278I38J-1599978D01*
G01*
X114422964Y-47404313D02*
G75*
G02*
X114472935Y-44255023I134136J1572913D01*
G01*
X190773162Y-47329322D02*
G75*
G02*
X190823138Y-44180070I38J1575022D01*
G01*
X198500000Y-114500000D02*
X195700000Y-111000000D01*
X114422964Y-47404313D02*
X117173162Y-47429322D01*
D11*
X164123162Y-41624322D02*
X153328162Y-41624322D01*
M02*
