M48
; DRILL file {KiCad 9.0.0} date 2025-05-14T15:36:39-0700
; FORMAT={-:-/ absolute / inch / decimal}
; #@! TF.CreationDate,2025-05-14T15:36:39-07:00
; #@! TF.GenerationSoftware,Kicad,Pcbnew,9.0.0
; #@! TF.FileFunction,Plated,1,4,PTH
FMAT,2
INCH
; #@! TA.AperFunction,Plated,PTH,ViaDrill
T1C0.0157
; #@! TA.AperFunction,Plated,PTH,ComponentDrill
T2C0.0394
; #@! TA.AperFunction,Plated,PTH,ComponentDrill
T3C0.0512
; #@! TA.AperFunction,Plated,PTH,ComponentDrill
T4C0.0945
; #@! TA.AperFunction,Plated,PTH,ComponentDrill
T5C0.1260
; #@! TA.AperFunction,Plated,PTH,ComponentDrill
T6C0.1299
%
G90
G05
T1
X4.6575Y-4.6024
X4.7323Y-4.8543
X4.752Y-4.3071
X4.7795Y-2.5079
X4.7992Y-2.315
X4.9882Y-2.5157
X5.0118Y-4.5512
X5.1043Y-2.0197
X5.1102Y-4.3898
X5.122Y-2.315
X5.1693Y-4.8425
X5.248Y-2.0197
X5.3287Y-2.2205
X5.3543Y-4.8425
X5.3937Y-4.5472
X5.5039Y-2.0236
X5.5118Y-4.8819
X5.5197Y-2.1969
X5.5827Y-4.6811
X5.689Y-3.8071
X5.689Y-3.8465
X5.689Y-3.8819
X5.689Y-3.9213
X5.689Y-3.9646
X5.689Y-4.6457
X5.6929Y-4.5354
X5.748Y-2.4016
X5.7949Y-3.6733
X5.8071Y-4.248
X5.8189Y-4.6457
X5.8228Y-3.9134
X5.8545Y-3.7507
X5.9055Y-2.5591
X5.9134Y-3.937
X5.9476Y-2.2421
X5.9547Y-3.6811
X6.0315Y-3.9409
X6.0354Y-3.8661
X6.0472Y-2.7205
X6.0472Y-2.9094
X6.0472Y-3.1654
X6.0551Y-3.0827
X6.0787Y-3.7106
X6.0866Y-2.3543
X6.2116Y-3.3376
X6.2205Y-3.1772
X6.2244Y-2.7283
X6.2283Y-2.9016
X6.2283Y-3.0787
X6.2392Y-3.3101
X6.248Y-3.8976
X6.2648Y-3.2845
X6.2677Y-4.752
X6.2963Y-3.253
X6.3031Y-3.8504
X6.3307Y-4.563
X6.3504Y-3.7953
X6.4449Y-2.9606
X6.4449Y-3.0551
X6.4449Y-3.1575
X6.4449Y-3.2165
X6.4488Y-2.8898
X6.5157Y-2.4961
X6.626Y-3.2717
X6.6654Y-2.5197
X6.6654Y-2.8937
X6.6654Y-3.1299
X6.6693Y-3.2126
X6.6732Y-3.0551
X6.6811Y-2.9882
X6.8898Y-5.0079
X6.895Y-4.8341
X7.0472Y-4.7913
X7.1929Y-4.2795
X7.2047Y-5.0394
X7.5157Y-4.2756
T2
X4.4433Y-4.878
X4.4488Y-4.7244
X7.5512Y-4.9213
X7.5591Y-2.0689
T4
X5.1417Y-2.1083
X6.0079Y-2.1091
X6.8504Y-2.1098
X7.685Y-2.1102
T5
X4.5079Y-5.1783
X7.6575Y-5.1783
T6
X4.5118Y-2.4311
X5.1417Y-4.6043
X5.378Y-2.4319
X6.0079Y-4.6051
X6.2205Y-2.4327
X6.8504Y-4.6059
X7.0551Y-2.4331
X7.685Y-4.6063
T3
G00X4.8524Y-2.1114
M15
G01X4.8012Y-2.1114
M16
G05
G00X4.8524Y-4.924
M15
G01X4.8012Y-4.924
M16
G05
G00X5.7185Y-2.1122
M15
G01X5.6673Y-2.1122
M16
G05
G00X5.7185Y-4.9248
M15
G01X5.6673Y-4.9248
M16
G05
G00X6.561Y-2.113
M15
G01X6.5098Y-2.113
M16
G05
G00X6.561Y-4.9256
M15
G01X6.5098Y-4.9256
M16
G05
G00X7.3957Y-2.1134
M15
G01X7.3445Y-2.1134
M16
G05
G00X7.3957Y-4.926
M15
G01X7.3445Y-4.926
M16
G05
M30
