%TF.GenerationSoftware,KiCad,Pcbnew,9.0.0*%
%TF.CreationDate,2025-05-14T15:36:39-07:00*%
%TF.ProjectId,battery_pack_v1a,62617474-6572-4795-9f70-61636b5f7631,rev?*%
%TF.SameCoordinates,Original*%
%TF.FileFunction,Copper,L4,Bot*%
%TF.FilePolarity,Positive*%
%FSLAX46Y46*%
G04 Gerber Fmt 4.6, Leading zero omitted, Abs format (unit mm)*
G04 Created by KiCad (PCBNEW 9.0.0) date 2025-05-14 15:36:39*
%MOMM*%
%LPD*%
G01*
G04 APERTURE LIST*
G04 Aperture macros list*
%AMRoundRect*
0 Rectangle with rounded corners*
0 $1 Rounding radius*
0 $2 $3 $4 $5 $6 $7 $8 $9 X,Y pos of 4 corners*
0 Add a 4 corners polygon primitive as box body*
4,1,4,$2,$3,$4,$5,$6,$7,$8,$9,$2,$3,0*
0 Add four circle primitives for the rounded corners*
1,1,$1+$1,$2,$3*
1,1,$1+$1,$4,$5*
1,1,$1+$1,$6,$7*
1,1,$1+$1,$8,$9*
0 Add four rect primitives between the rounded corners*
20,1,$1+$1,$2,$3,$4,$5,0*
20,1,$1+$1,$4,$5,$6,$7,0*
20,1,$1+$1,$6,$7,$8,$9,0*
20,1,$1+$1,$8,$9,$2,$3,0*%
G04 Aperture macros list end*
%TA.AperFunction,ComponentPad*%
%ADD10C,5.000000*%
%TD*%
%TA.AperFunction,ComponentPad*%
%ADD11C,3.300000*%
%TD*%
%TA.AperFunction,ComponentPad*%
%ADD12C,2.400000*%
%TD*%
%TA.AperFunction,ComponentPad*%
%ADD13O,3.500000X2.500000*%
%TD*%
%TA.AperFunction,ComponentPad*%
%ADD14C,2.000000*%
%TD*%
%TA.AperFunction,SMDPad,CuDef*%
%ADD15RoundRect,0.150000X-0.825000X-0.150000X0.825000X-0.150000X0.825000X0.150000X-0.825000X0.150000X0*%
%TD*%
%TA.AperFunction,SMDPad,CuDef*%
%ADD16RoundRect,0.200000X0.200000X0.275000X-0.200000X0.275000X-0.200000X-0.275000X0.200000X-0.275000X0*%
%TD*%
%TA.AperFunction,SMDPad,CuDef*%
%ADD17RoundRect,0.150000X0.512500X0.150000X-0.512500X0.150000X-0.512500X-0.150000X0.512500X-0.150000X0*%
%TD*%
%TA.AperFunction,SMDPad,CuDef*%
%ADD18RoundRect,0.250000X-0.362500X-1.425000X0.362500X-1.425000X0.362500X1.425000X-0.362500X1.425000X0*%
%TD*%
%TA.AperFunction,SMDPad,CuDef*%
%ADD19RoundRect,0.225000X-0.225000X-0.250000X0.225000X-0.250000X0.225000X0.250000X-0.225000X0.250000X0*%
%TD*%
%TA.AperFunction,SMDPad,CuDef*%
%ADD20RoundRect,0.200000X-0.200000X-0.275000X0.200000X-0.275000X0.200000X0.275000X-0.200000X0.275000X0*%
%TD*%
%TA.AperFunction,SMDPad,CuDef*%
%ADD21R,2.500000X1.100000*%
%TD*%
%TA.AperFunction,SMDPad,CuDef*%
%ADD22R,2.200000X2.000000*%
%TD*%
%TA.AperFunction,ViaPad*%
%ADD23C,0.800000*%
%TD*%
%TA.AperFunction,Conductor*%
%ADD24C,0.500000*%
%TD*%
%TA.AperFunction,Conductor*%
%ADD25C,0.300000*%
%TD*%
%TA.AperFunction,Conductor*%
%ADD26C,0.400000*%
%TD*%
G04 APERTURE END LIST*
D10*
%TO.P,,1*%
%TO.N,Chassis Ground*%
X194500000Y-131530000D03*
%TD*%
D11*
%TO.P,BT3,*%
%TO.N,*%
X130600000Y-116950000D03*
X114600000Y-61750000D03*
D12*
X130600000Y-53550000D03*
D13*
%TO.P,BT3,1,+*%
%TO.N,BM*%
X122600000Y-53630000D03*
%TO.P,BT3,2,-*%
%TO.N,B-*%
X122600000Y-125070000D03*
%TD*%
D14*
%TO.P,TP2,1,1*%
%TO.N,B-*%
X113000000Y-120000000D03*
%TD*%
%TO.P,TP5,1,1*%
%TO.N,PACK+*%
X192000000Y-52550000D03*
%TD*%
D11*
%TO.P,BT1,*%
%TO.N,*%
X152600000Y-116970000D03*
X136600000Y-61770000D03*
D12*
X152600000Y-53570000D03*
D13*
%TO.P,BT1,1,+*%
%TO.N,BM*%
X144600000Y-53650000D03*
%TO.P,BT1,2,-*%
%TO.N,B-*%
X144600000Y-125090000D03*
%TD*%
D11*
%TO.P,BT2,*%
%TO.N,*%
X174000000Y-116990000D03*
X158000000Y-61790000D03*
D12*
X174000000Y-53590000D03*
D13*
%TO.P,BT2,1,+*%
%TO.N,PACK+*%
X166000000Y-53670000D03*
%TO.P,BT2,2,-*%
%TO.N,BM*%
X166000000Y-125110000D03*
%TD*%
D10*
%TO.P,,1*%
%TO.N,Chassis Ground*%
X114500000Y-131530000D03*
%TD*%
D14*
%TO.P,TP4,1,1*%
%TO.N,PACK-*%
X112860000Y-123900000D03*
%TD*%
%TO.P,TP3,1,1*%
%TO.N,BM*%
X191800000Y-125000000D03*
%TD*%
D15*
%TO.P,Q2,1,S*%
%TO.N,PACK-*%
X153230098Y-96480999D03*
%TO.P,Q2,2,S*%
X153230098Y-95210999D03*
%TO.P,Q2,3,S*%
X153230098Y-93940999D03*
%TO.P,Q2,4,G*%
%TO.N,Net-(Q2-G)*%
X153230098Y-92670999D03*
%TO.P,Q2,5,D*%
%TO.N,Net-(Q1-D-Pad5)*%
X158180098Y-92670999D03*
%TO.P,Q2,6,D*%
X158180098Y-93940999D03*
%TO.P,Q2,7,D*%
X158180098Y-95210999D03*
%TO.P,Q2,8,D*%
X158180098Y-96480999D03*
%TD*%
D16*
%TO.P,R4,1*%
%TO.N,BM*%
X151130098Y-94426000D03*
%TO.P,R4,2*%
%TO.N,Net-(U1-VC)*%
X149480098Y-94426000D03*
%TD*%
D17*
%TO.P,U1,1,DOUT*%
%TO.N,Net-(Q1-G)*%
X150812599Y-90396001D03*
%TO.P,U1,2,COUT*%
%TO.N,Net-(Q2-G)*%
X150812599Y-91346000D03*
%TO.P,U1,3,V-*%
%TO.N,Net-(U1-V-)*%
X150812599Y-92295999D03*
%TO.P,U1,4,VC*%
%TO.N,Net-(U1-VC)*%
X148537599Y-92295999D03*
%TO.P,U1,5,VDD*%
%TO.N,/VDD*%
X148537599Y-91346000D03*
%TO.P,U1,6,VSS*%
%TO.N,B-*%
X148537599Y-90396001D03*
%TD*%
D18*
%TO.P,R1,1*%
%TO.N,B-*%
X147392597Y-84095999D03*
%TO.P,R1,2*%
%TO.N,Net-(C5-Pad1)*%
X153317597Y-84095999D03*
%TD*%
D19*
%TO.P,C7,1*%
%TO.N,B-*%
X146360098Y-97616000D03*
%TO.P,C7,2*%
%TO.N,Net-(U1-V-)*%
X147910098Y-97616000D03*
%TD*%
%TO.P,C8,1*%
%TO.N,B-*%
X146340097Y-94435999D03*
%TO.P,C8,2*%
%TO.N,Net-(U1-VC)*%
X147890097Y-94435999D03*
%TD*%
D20*
%TO.P,R3,1*%
%TO.N,Net-(U1-V-)*%
X150470098Y-98136000D03*
%TO.P,R3,2*%
%TO.N,PACK-*%
X152120098Y-98136000D03*
%TD*%
D19*
%TO.P,C9,1*%
%TO.N,B-*%
X146350099Y-95986000D03*
%TO.P,C9,2*%
%TO.N,/VDD*%
X147900099Y-95986000D03*
%TD*%
D15*
%TO.P,Q1,1,S*%
%TO.N,Net-(C5-Pad1)*%
X153240099Y-90921000D03*
%TO.P,Q1,2,S*%
X153240099Y-89651000D03*
%TO.P,Q1,3,S*%
X153240099Y-88381000D03*
%TO.P,Q1,4,G*%
%TO.N,Net-(Q1-G)*%
X153240099Y-87111000D03*
%TO.P,Q1,5,D*%
%TO.N,Net-(Q1-D-Pad5)*%
X158190099Y-87111000D03*
%TO.P,Q1,6,D*%
X158190099Y-88381000D03*
%TO.P,Q1,7,D*%
X158190099Y-89651000D03*
%TO.P,Q1,8,D*%
X158190099Y-90921000D03*
%TD*%
D21*
%TO.P,J1,1,Pin_1*%
%TO.N,PACK-*%
X160150506Y-81469670D03*
%TO.P,J1,2,Pin_2*%
%TO.N,PACK+*%
X167250506Y-81469670D03*
%TO.P,J1,3,Pin_3*%
%TO.N,PACK-*%
X160150506Y-79469670D03*
%TO.P,J1,4,Pin_4*%
%TO.N,PACK+*%
X167250506Y-79469670D03*
%TO.P,J1,5,Pin_5*%
%TO.N,PACK-*%
X160150506Y-77469670D03*
%TO.P,J1,6,Pin_6*%
%TO.N,PACK+*%
X167250506Y-77469670D03*
%TO.P,J1,7,Pin_7*%
%TO.N,PACK-*%
X160150506Y-75469670D03*
%TO.P,J1,8,Pin_8*%
%TO.N,PACK+*%
X167250506Y-75469670D03*
%TO.P,J1,9,Pin_9*%
%TO.N,unconnected-(J1-Pin_9-Pad9)*%
X160150506Y-73469670D03*
%TO.P,J1,10,Pin_10*%
%TO.N,unconnected-(J1-Pin_10-Pad10)*%
X167250506Y-73469670D03*
%TO.P,J1,11,Pin_11*%
%TO.N,unconnected-(J1-Pin_11-Pad11)*%
X160150506Y-71469670D03*
%TO.P,J1,12,Pin_12*%
%TO.N,unconnected-(J1-Pin_12-Pad12)*%
X167250506Y-71469670D03*
D22*
%TO.P,J1,13*%
%TO.N,N/C*%
X163700506Y-67469670D03*
%TO.P,J1,14*%
X163700506Y-85469670D03*
%TD*%
D16*
%TO.P,R5,1*%
%TO.N,PACK+*%
X151120097Y-95965999D03*
%TO.P,R5,2*%
%TO.N,/VDD*%
X149470097Y-95965999D03*
%TD*%
D19*
%TO.P,C5,1*%
%TO.N,Net-(C5-Pad1)*%
X155160097Y-85255999D03*
%TO.P,C5,2*%
%TO.N,PACK-*%
X156710097Y-85255999D03*
%TD*%
D11*
%TO.P,BT4,*%
%TO.N,*%
X195200000Y-117000000D03*
X179200000Y-61800000D03*
D12*
X195200000Y-53600000D03*
D13*
%TO.P,BT4,1,+*%
%TO.N,PACK+*%
X187200000Y-53680000D03*
%TO.P,BT4,2,-*%
%TO.N,BM*%
X187200000Y-125120000D03*
%TD*%
D23*
%TO.N,/VDD*%
X147190097Y-93301507D03*
X148705560Y-95268460D03*
%TO.N,PACK-*%
X121900000Y-58800000D03*
X182700000Y-108700000D03*
X139800000Y-51400000D03*
X163700000Y-77600000D03*
X169300000Y-64000000D03*
X144500000Y-99600000D03*
X158000000Y-80700000D03*
X158200000Y-78200000D03*
X169700000Y-75900000D03*
X179000000Y-121700000D03*
X144500000Y-100700000D03*
X146000000Y-61000000D03*
X129800000Y-111500000D03*
X183000000Y-128000000D03*
X163700000Y-75200000D03*
X163700000Y-80200000D03*
X147800000Y-118000000D03*
X147500000Y-107900000D03*
X161300000Y-96400000D03*
X168300000Y-83100000D03*
X137000000Y-115500000D03*
X153600000Y-69100000D03*
X118300000Y-116900000D03*
X126700000Y-63900000D03*
X141800000Y-118900000D03*
X165500000Y-63400000D03*
X157775506Y-84775506D03*
X175132930Y-122786059D03*
X158700000Y-99000000D03*
X159925506Y-82625506D03*
X153200000Y-100100000D03*
X169500000Y-77600000D03*
X150200000Y-100000000D03*
X190900000Y-108600000D03*
X130100000Y-58800000D03*
X121400000Y-63700000D03*
X151070035Y-56949400D03*
X140200000Y-55800000D03*
X160800000Y-115900000D03*
X131300000Y-123000000D03*
X154400000Y-94250000D03*
X169300000Y-79500000D03*
X136000000Y-123000000D03*
X135350000Y-56400000D03*
X153600000Y-73900000D03*
X154600000Y-59800000D03*
X175000000Y-127200000D03*
X159200000Y-120700000D03*
X153300000Y-98200000D03*
X144500000Y-118000000D03*
X153800000Y-78300000D03*
X120700000Y-109400000D03*
X147900000Y-99400000D03*
X160100000Y-97800000D03*
X169300000Y-73500000D03*
X129650000Y-51300000D03*
X120200000Y-123300000D03*
X158100000Y-69300000D03*
X127300000Y-115600000D03*
X133300000Y-51300000D03*
X153600000Y-80400000D03*
X144500000Y-98600000D03*
X150000000Y-65000000D03*
X169400000Y-81600000D03*
X144500000Y-96700000D03*
X144500000Y-97700000D03*
X163800000Y-73400000D03*
X158475506Y-84075506D03*
X159125506Y-83425506D03*
X158200000Y-73700000D03*
X144600000Y-115200000D03*
X140000000Y-124000000D03*
X163700000Y-81700000D03*
%TO.N,BM*%
X151250000Y-93500000D03*
%TD*%
D24*
%TO.N,PACK-*%
X154090999Y-93940999D02*
X153230098Y-93940999D01*
X154400000Y-94250000D02*
X154090999Y-93940999D01*
D25*
%TO.N,PACK+*%
X167250506Y-89098269D02*
X167250506Y-81469670D01*
X157674387Y-98674387D02*
X167250506Y-89098269D01*
%TO.N,/VDD*%
X146941097Y-91880839D02*
X147475936Y-91346000D01*
X146941097Y-92722175D02*
X146941097Y-91880839D01*
X147190097Y-92971175D02*
X146941097Y-92722175D01*
X147475936Y-91346000D02*
X148537599Y-91346000D01*
X147190097Y-93301507D02*
X147190097Y-92971175D01*
D24*
%TO.N,PACK-*%
X159125506Y-83425506D02*
X159925506Y-82625506D01*
X158475506Y-84075506D02*
X159125506Y-83425506D01*
X157775506Y-84775506D02*
X158475506Y-84075506D01*
X157295013Y-85255999D02*
X156710097Y-85255999D01*
X157775506Y-84775506D02*
X157295013Y-85255999D01*
D25*
%TO.N,Net-(C5-Pad1)*%
X153240099Y-89651000D02*
X153240099Y-88381000D01*
D24*
X153240099Y-88381000D02*
X153799199Y-88381000D01*
D25*
X153240099Y-90921000D02*
X153240099Y-89651000D01*
D24*
X155250000Y-85345902D02*
X155160097Y-85255999D01*
X153799199Y-88381000D02*
X155250000Y-86930199D01*
D25*
X153317597Y-84095999D02*
X154000097Y-84095999D01*
D24*
X155160097Y-85255999D02*
X154000097Y-84095999D01*
X155250000Y-86930199D02*
X155250000Y-85345902D01*
%TO.N,B-*%
X146360098Y-97616000D02*
X146360098Y-95995999D01*
X146360098Y-95995999D02*
X146350099Y-95986000D01*
X147392597Y-89250999D02*
X147392597Y-84095999D01*
X146340097Y-94435999D02*
X146340097Y-91231839D01*
X146360098Y-97616000D02*
X146360098Y-123749902D01*
X147175935Y-90396001D02*
X148537599Y-90396001D01*
X146360098Y-123749902D02*
X145000000Y-125110000D01*
X148537599Y-90396001D02*
X147392597Y-89250999D01*
X146340097Y-91231839D02*
X147175935Y-90396001D01*
X146350099Y-95986000D02*
X146350099Y-94446001D01*
X146350099Y-94446001D02*
X146340097Y-94435999D01*
D25*
%TO.N,Net-(U1-V-)*%
X150369097Y-98034999D02*
X150470098Y-98136000D01*
X149470098Y-97636000D02*
X147930098Y-97636000D01*
X147930098Y-97636000D02*
X147910098Y-97616000D01*
X149869097Y-98034999D02*
X150369097Y-98034999D01*
X149869097Y-98034999D02*
X149470098Y-97636000D01*
X150369097Y-92739501D02*
X150369097Y-98034999D01*
X150812599Y-92295999D02*
X150369097Y-92739501D01*
%TO.N,Net-(U1-VC)*%
X148537599Y-93079159D02*
X148640188Y-93181748D01*
X148537599Y-92295999D02*
X148537599Y-93079159D01*
X148640188Y-93181748D02*
X148640188Y-93685908D01*
X147890097Y-94435999D02*
X149470099Y-94435999D01*
X149480098Y-94021658D02*
X149480098Y-94426000D01*
X148640188Y-93685908D02*
X147890097Y-94435999D01*
X149470099Y-94435999D02*
X149480098Y-94426000D01*
X148537599Y-93079159D02*
X149480098Y-94021658D01*
%TO.N,/VDD*%
X147900099Y-95986000D02*
X148770429Y-95986000D01*
X148770429Y-95986000D02*
X149450096Y-95986000D01*
X148770429Y-95986000D02*
X148770429Y-95333329D01*
X148770429Y-95333329D02*
X148705560Y-95268460D01*
X149450096Y-95986000D02*
X149470097Y-95965999D01*
D24*
%TO.N,PACK-*%
X160150506Y-77469670D02*
X160150506Y-76000000D01*
X159925506Y-82625506D02*
X160150506Y-82400506D01*
X160150506Y-76000000D02*
X160150506Y-75469670D01*
D25*
X153236000Y-98136000D02*
X153300000Y-98200000D01*
X153230098Y-97026000D02*
X153230098Y-96480999D01*
D24*
X160150506Y-79469670D02*
X160150506Y-77469670D01*
X160150506Y-82400506D02*
X160150506Y-81469670D01*
D25*
X152120098Y-98136000D02*
X153230098Y-97026000D01*
D24*
X156000000Y-85966096D02*
X156710097Y-85255999D01*
X160150506Y-81469670D02*
X160150506Y-79469670D01*
X153230098Y-93940999D02*
X154459001Y-93940999D01*
X156000000Y-92400000D02*
X156000000Y-85966096D01*
X154459001Y-93940999D02*
X156000000Y-92400000D01*
D25*
X152120098Y-98136000D02*
X153236000Y-98136000D01*
D24*
X153230098Y-95210999D02*
X153230098Y-96480999D01*
X153230098Y-93940999D02*
X153230098Y-95210999D01*
D25*
%TO.N,BM*%
X151130098Y-93619902D02*
X151250000Y-93500000D01*
X151130098Y-94426000D02*
X151130098Y-93619902D01*
%TO.N,PACK+*%
X151221098Y-97127226D02*
X151221098Y-98496774D01*
X151686324Y-98962000D02*
X157386774Y-98962000D01*
X157386774Y-98962000D02*
X157674387Y-98674387D01*
X151221098Y-98496774D02*
X151686324Y-98962000D01*
X151000000Y-96086096D02*
X151000000Y-96906128D01*
X157598775Y-98750000D02*
X157674387Y-98674387D01*
X151120097Y-95965999D02*
X151000000Y-96086096D01*
X151000000Y-96906128D02*
X151221098Y-97127226D01*
%TO.N,Net-(Q1-G)*%
X151750000Y-87111000D02*
X153240099Y-87111000D01*
X150812599Y-88048401D02*
X151750000Y-87111000D01*
X150812599Y-90396001D02*
X150812599Y-88048401D01*
D26*
%TO.N,Net-(Q1-D-Pad5)*%
X158180098Y-96480999D02*
X158180098Y-95210999D01*
X158190099Y-89651000D02*
X158190099Y-88381000D01*
X158180098Y-95210999D02*
X158180098Y-93940999D01*
X158190099Y-90921000D02*
X158190099Y-89651000D01*
X158180098Y-93940999D02*
X158180098Y-92670999D01*
X158180098Y-92670999D02*
X158180098Y-90931001D01*
X158190099Y-88381000D02*
X158190099Y-87111000D01*
X158180098Y-90931001D02*
X158190099Y-90921000D01*
D25*
%TO.N,Net-(Q2-G)*%
X153230098Y-91730098D02*
X153072000Y-91572000D01*
X153072000Y-91572000D02*
X152203421Y-91572000D01*
X152203421Y-91572000D02*
X151977421Y-91346000D01*
X153230098Y-92670999D02*
X153230098Y-91730098D01*
X151977421Y-91346000D02*
X150812599Y-91346000D01*
%TD*%
%TA.AperFunction,Conductor*%
%TO.N,Chassis Ground*%
G36*
X197003197Y-43020002D02*
G01*
X197032024Y-43045520D01*
X197470950Y-43574269D01*
X197499069Y-43639456D01*
X197500000Y-43654745D01*
X197500000Y-48874000D01*
X197479998Y-48942121D01*
X197426342Y-48988614D01*
X197374000Y-49000000D01*
X187626000Y-49000000D01*
X187557879Y-48979998D01*
X187511386Y-48926342D01*
X187500000Y-48874000D01*
X187500000Y-45854374D01*
X188995959Y-45854374D01*
X188995959Y-45854386D01*
X189028799Y-46108798D01*
X189028800Y-46108803D01*
X189097870Y-46355857D01*
X189097875Y-46355872D01*
X189201733Y-46590420D01*
X189201735Y-46590424D01*
X189282215Y-46718480D01*
X189338241Y-46807626D01*
X189504548Y-47002949D01*
X189504553Y-47002953D01*
X189697203Y-47172339D01*
X189912205Y-47312276D01*
X189912207Y-47312277D01*
X190145092Y-47419858D01*
X190145094Y-47419858D01*
X190145095Y-47419859D01*
X190145098Y-47419860D01*
X190391019Y-47492845D01*
X190391021Y-47492846D01*
X190447438Y-47501041D01*
X190644891Y-47529727D01*
X190771129Y-47529819D01*
X190772524Y-47529829D01*
X194582028Y-47579304D01*
X194583275Y-47579821D01*
X194621857Y-47579821D01*
X194660437Y-47580323D01*
X194660437Y-47580322D01*
X194667992Y-47580421D01*
X194674973Y-47579778D01*
X194751932Y-47579781D01*
X195006861Y-47543133D01*
X195253979Y-47470578D01*
X195488256Y-47363592D01*
X195704922Y-47224354D01*
X195899567Y-47055697D01*
X196068228Y-46861056D01*
X196207472Y-46644393D01*
X196314463Y-46410119D01*
X196387024Y-46163002D01*
X196423678Y-45908075D01*
X196423678Y-45650525D01*
X196387024Y-45395598D01*
X196314463Y-45148481D01*
X196226877Y-44956697D01*
X196207476Y-44914215D01*
X196207472Y-44914207D01*
X196178246Y-44868732D01*
X196068228Y-44697544D01*
X196032205Y-44655972D01*
X195899568Y-44502903D01*
X195704923Y-44334247D01*
X195704922Y-44334246D01*
X195488256Y-44195008D01*
X195488246Y-44195003D01*
X195253985Y-44088024D01*
X195253980Y-44088022D01*
X195253979Y-44088022D01*
X195191402Y-44069649D01*
X195006860Y-44015466D01*
X194816013Y-43988031D01*
X194751932Y-43978819D01*
X194751930Y-43978819D01*
X194675377Y-43978819D01*
X194675377Y-43978820D01*
X194663017Y-43978820D01*
X194663002Y-43978814D01*
X194625014Y-43978820D01*
X194623160Y-43978821D01*
X194623156Y-43978822D01*
X194572203Y-43978822D01*
X194572097Y-43978832D01*
X190829630Y-43979612D01*
X190825701Y-43979552D01*
X190712707Y-43976049D01*
X190701291Y-43975696D01*
X190701290Y-43975696D01*
X190701289Y-43975696D01*
X190446386Y-44004500D01*
X190446372Y-44004503D01*
X190198259Y-44069649D01*
X190198258Y-44069649D01*
X189962085Y-44169782D01*
X189962083Y-44169783D01*
X189742734Y-44302837D01*
X189544806Y-44466025D01*
X189372388Y-44655968D01*
X189229064Y-44868723D01*
X189229056Y-44868738D01*
X189117803Y-45099879D01*
X189117802Y-45099880D01*
X189040926Y-45344626D01*
X189000028Y-45597877D01*
X188995959Y-45854374D01*
X187500000Y-45854374D01*
X187500000Y-43126000D01*
X187520002Y-43057879D01*
X187573658Y-43011386D01*
X187626000Y-43000000D01*
X196935076Y-43000000D01*
X197003197Y-43020002D01*
G37*
%TD.AperFunction*%
%TD*%
%TA.AperFunction,Conductor*%
%TO.N,Chassis Ground*%
G36*
X120942121Y-43020002D02*
G01*
X120988614Y-43073658D01*
X121000000Y-43126000D01*
X121000000Y-48874000D01*
X120979998Y-48942121D01*
X120926342Y-48988614D01*
X120874000Y-49000000D01*
X110826500Y-49000000D01*
X110758379Y-48979998D01*
X110711886Y-48926342D01*
X110700500Y-48874000D01*
X110700500Y-46037542D01*
X110701346Y-46035363D01*
X110700500Y-45997757D01*
X110700500Y-45992675D01*
X110700511Y-45990974D01*
X110701491Y-45918391D01*
X110703048Y-45803099D01*
X112773656Y-45803099D01*
X112782289Y-45958081D01*
X112787830Y-46057570D01*
X112787830Y-46057574D01*
X112787831Y-46057575D01*
X112838123Y-46307408D01*
X112838128Y-46307428D01*
X112919696Y-46536809D01*
X112923516Y-46547551D01*
X113042260Y-46773062D01*
X113142386Y-46911060D01*
X113191929Y-46979343D01*
X113191939Y-46979355D01*
X113369469Y-47162190D01*
X113369473Y-47162193D01*
X113369474Y-47162194D01*
X113571264Y-47317871D01*
X113793182Y-47443199D01*
X113793185Y-47443200D01*
X114030691Y-47535619D01*
X114087950Y-47548910D01*
X114278958Y-47593247D01*
X114374014Y-47601363D01*
X114381260Y-47604442D01*
X114413517Y-47604735D01*
X114445665Y-47607477D01*
X114445665Y-47607476D01*
X114445668Y-47607477D01*
X114458006Y-47606098D01*
X114458169Y-47607561D01*
X114473288Y-47605278D01*
X117132401Y-47629459D01*
X117133275Y-47629821D01*
X117172287Y-47629821D01*
X117211219Y-47630176D01*
X117211220Y-47630175D01*
X117220103Y-47630256D01*
X117225175Y-47629778D01*
X117301932Y-47629781D01*
X117556861Y-47593133D01*
X117803979Y-47520578D01*
X118038256Y-47413592D01*
X118254922Y-47274354D01*
X118449567Y-47105697D01*
X118618228Y-46911056D01*
X118757472Y-46694393D01*
X118864463Y-46460119D01*
X118937024Y-46213002D01*
X118973678Y-45958075D01*
X118973678Y-45700525D01*
X118937024Y-45445598D01*
X118864463Y-45198481D01*
X118757472Y-44964207D01*
X118618228Y-44747544D01*
X118532907Y-44649080D01*
X118449568Y-44552903D01*
X118254923Y-44384247D01*
X118254922Y-44384246D01*
X118038256Y-44245008D01*
X118038246Y-44245003D01*
X117803985Y-44138024D01*
X117803980Y-44138022D01*
X117803979Y-44138022D01*
X117741633Y-44119717D01*
X117556860Y-44065466D01*
X117366013Y-44038031D01*
X117301932Y-44028819D01*
X117301930Y-44028819D01*
X117224902Y-44028819D01*
X117224902Y-44028820D01*
X117212046Y-44028820D01*
X117211128Y-44028450D01*
X117172170Y-44028821D01*
X117171596Y-44028822D01*
X117171595Y-44028821D01*
X117171593Y-44028822D01*
X117124382Y-44028822D01*
X117119524Y-44029324D01*
X114521819Y-44054128D01*
X114521820Y-44054129D01*
X114506358Y-44054276D01*
X114502074Y-44052765D01*
X114466639Y-44054656D01*
X114463863Y-44054683D01*
X114431141Y-44054995D01*
X114431044Y-44055016D01*
X114412042Y-44057492D01*
X114334995Y-44061615D01*
X114085032Y-44111336D01*
X113844702Y-44196175D01*
X113844698Y-44196177D01*
X113618924Y-44314397D01*
X113618920Y-44314400D01*
X113412296Y-44463595D01*
X113412292Y-44463598D01*
X113229040Y-44640717D01*
X113229032Y-44640726D01*
X113072903Y-44842145D01*
X113072892Y-44842161D01*
X112947062Y-45063777D01*
X112947058Y-45063785D01*
X112854095Y-45301077D01*
X112854091Y-45301089D01*
X112795897Y-45549210D01*
X112795896Y-45549215D01*
X112773656Y-45803099D01*
X110703048Y-45803099D01*
X110706503Y-45547315D01*
X110706949Y-45538300D01*
X110744837Y-45096238D01*
X110745935Y-45087248D01*
X110749662Y-45063781D01*
X110815521Y-44649060D01*
X110817258Y-44640199D01*
X110918188Y-44208129D01*
X110920557Y-44199421D01*
X111052298Y-43775749D01*
X111055283Y-43767241D01*
X111217173Y-43354105D01*
X111220767Y-43345825D01*
X111351648Y-43071710D01*
X111399050Y-43018855D01*
X111465352Y-43000000D01*
X120874000Y-43000000D01*
X120942121Y-43020002D01*
G37*
%TD.AperFunction*%
%TD*%
%TA.AperFunction,Conductor*%
%TO.N,PACK+*%
G36*
X151316218Y-95986001D02*
G01*
X151362711Y-96039657D01*
X151374097Y-96091999D01*
X151374097Y-96948998D01*
X151377319Y-96948998D01*
X151448650Y-96942517D01*
X151612804Y-96891364D01*
X151637433Y-96876476D01*
X151646918Y-96873971D01*
X151654566Y-96867827D01*
X151680679Y-96865056D01*
X151706077Y-96858351D01*
X151715411Y-96861372D01*
X151725166Y-96860338D01*
X151748632Y-96872126D01*
X151773623Y-96880216D01*
X151781532Y-96888653D01*
X151788608Y-96892208D01*
X151811071Y-96920164D01*
X151846221Y-96979599D01*
X151863681Y-97048416D01*
X151841165Y-97115747D01*
X151785820Y-97160216D01*
X151775252Y-97164034D01*
X151627191Y-97210170D01*
X151627186Y-97210172D01*
X151479942Y-97299184D01*
X151479937Y-97299188D01*
X151384193Y-97394933D01*
X151321881Y-97428959D01*
X151251066Y-97423894D01*
X151206003Y-97394933D01*
X151110258Y-97299188D01*
X151110253Y-97299184D01*
X151088410Y-97285979D01*
X151084488Y-97281696D01*
X151079031Y-97279719D01*
X151060783Y-97255809D01*
X151040462Y-97233619D01*
X151038984Y-97227248D01*
X151035957Y-97223282D01*
X151034828Y-97209328D01*
X151027597Y-97178152D01*
X151027597Y-96091999D01*
X151047599Y-96023878D01*
X151101255Y-95977385D01*
X151153597Y-95965999D01*
X151248097Y-95965999D01*
X151316218Y-95986001D01*
G37*
%TD.AperFunction*%
%TA.AperFunction,Conductor*%
G36*
X198241621Y-49824602D02*
G01*
X198288114Y-49878258D01*
X198299500Y-49930600D01*
X198299500Y-61837863D01*
X198279498Y-61905984D01*
X198275284Y-61912133D01*
X196868071Y-63840650D01*
X196868070Y-63840651D01*
X196858239Y-63854122D01*
X196853627Y-63857291D01*
X196834867Y-63886150D01*
X196832846Y-63888921D01*
X196832841Y-63888930D01*
X196814524Y-63914034D01*
X196812784Y-63917788D01*
X196804116Y-63933459D01*
X195550557Y-65862011D01*
X195550558Y-65862012D01*
X195543355Y-65873094D01*
X195530024Y-65886426D01*
X195521827Y-65906213D01*
X195515505Y-65915940D01*
X195515505Y-65915941D01*
X195510157Y-65924169D01*
X195510156Y-65924171D01*
X195509127Y-65929711D01*
X195501660Y-65954902D01*
X195499500Y-65960115D01*
X195499500Y-65969929D01*
X195497380Y-65992943D01*
X195495587Y-66002589D01*
X195495587Y-66002591D01*
X195496756Y-66008097D01*
X195499500Y-66034248D01*
X195499500Y-110988893D01*
X195496322Y-111017497D01*
X195499500Y-111028464D01*
X195499500Y-111039882D01*
X195510512Y-111066469D01*
X195518522Y-111094109D01*
X195525651Y-111103021D01*
X195530022Y-111113572D01*
X195530023Y-111113573D01*
X195530024Y-111113574D01*
X195545443Y-111128993D01*
X195554730Y-111139369D01*
X198238694Y-114494324D01*
X198271889Y-114535817D01*
X198298825Y-114601506D01*
X198299500Y-114614529D01*
X198299500Y-128230273D01*
X198279498Y-128298394D01*
X198225842Y-128344887D01*
X198173642Y-128356273D01*
X184005924Y-128372263D01*
X183937781Y-128352338D01*
X183891228Y-128298735D01*
X183881044Y-128228472D01*
X183882199Y-128221702D01*
X183908500Y-128089479D01*
X183908500Y-127910521D01*
X183873587Y-127735000D01*
X183805102Y-127569664D01*
X183705678Y-127420865D01*
X183579135Y-127294322D01*
X183430336Y-127194898D01*
X183313429Y-127146473D01*
X183265003Y-127126414D01*
X183265001Y-127126413D01*
X183265000Y-127126413D01*
X183176645Y-127108838D01*
X183089481Y-127091500D01*
X183089479Y-127091500D01*
X182910521Y-127091500D01*
X182910518Y-127091500D01*
X182779771Y-127117507D01*
X182735000Y-127126413D01*
X182734999Y-127126413D01*
X182734996Y-127126414D01*
X182569662Y-127194899D01*
X182420869Y-127294319D01*
X182420862Y-127294324D01*
X182294324Y-127420862D01*
X182294319Y-127420869D01*
X182194899Y-127569662D01*
X182126414Y-127734996D01*
X182091500Y-127910518D01*
X182091500Y-128089484D01*
X182118248Y-128223952D01*
X182111920Y-128294666D01*
X182068366Y-128350733D01*
X182001413Y-128374352D01*
X181994811Y-128374533D01*
X110826642Y-128454858D01*
X110758499Y-128434933D01*
X110711946Y-128381330D01*
X110700500Y-128328858D01*
X110700500Y-127110518D01*
X174091500Y-127110518D01*
X174091500Y-127289481D01*
X174108838Y-127376645D01*
X174126413Y-127465000D01*
X174194898Y-127630336D01*
X174294322Y-127779135D01*
X174420865Y-127905678D01*
X174569664Y-128005102D01*
X174735000Y-128073587D01*
X174910521Y-128108500D01*
X174910522Y-128108500D01*
X175089478Y-128108500D01*
X175089479Y-128108500D01*
X175265000Y-128073587D01*
X175430336Y-128005102D01*
X175579135Y-127905678D01*
X175705678Y-127779135D01*
X175805102Y-127630336D01*
X175873587Y-127465000D01*
X175908500Y-127289479D01*
X175908500Y-127110521D01*
X175873587Y-126935000D01*
X175805102Y-126769664D01*
X175705678Y-126620865D01*
X175579135Y-126494322D01*
X175430336Y-126394898D01*
X175313429Y-126346473D01*
X175265003Y-126326414D01*
X175265001Y-126326413D01*
X175265000Y-126326413D01*
X175176645Y-126308838D01*
X175089481Y-126291500D01*
X175089479Y-126291500D01*
X174910521Y-126291500D01*
X174910518Y-126291500D01*
X174779771Y-126317507D01*
X174735000Y-126326413D01*
X174734999Y-126326413D01*
X174734996Y-126326414D01*
X174569662Y-126394899D01*
X174420869Y-126494319D01*
X174420862Y-126494324D01*
X174294324Y-126620862D01*
X174294319Y-126620869D01*
X174194899Y-126769662D01*
X174126414Y-126934996D01*
X174091500Y-127110518D01*
X110700500Y-127110518D01*
X110700500Y-123781278D01*
X111351500Y-123781278D01*
X111351500Y-124018722D01*
X111381696Y-124209373D01*
X111388645Y-124253246D01*
X111446186Y-124430337D01*
X111462018Y-124479063D01*
X111569815Y-124690627D01*
X111709380Y-124882722D01*
X111709382Y-124882724D01*
X111709384Y-124882727D01*
X111877272Y-125050615D01*
X111877275Y-125050617D01*
X111877278Y-125050620D01*
X112069373Y-125190185D01*
X112280937Y-125297982D01*
X112506759Y-125371356D01*
X112741278Y-125408500D01*
X112741281Y-125408500D01*
X112978719Y-125408500D01*
X112978722Y-125408500D01*
X113213241Y-125371356D01*
X113439063Y-125297982D01*
X113650627Y-125190185D01*
X113842722Y-125050620D01*
X114010620Y-124882722D01*
X114150185Y-124690627D01*
X114257982Y-124479063D01*
X114331356Y-124253241D01*
X114368500Y-124018722D01*
X114368500Y-123781278D01*
X114331356Y-123546759D01*
X114257982Y-123320937D01*
X114201721Y-123210518D01*
X119291500Y-123210518D01*
X119291500Y-123389481D01*
X119297742Y-123420862D01*
X119322783Y-123546753D01*
X119326414Y-123565003D01*
X119337249Y-123591161D01*
X119394898Y-123730336D01*
X119494322Y-123879135D01*
X119620865Y-124005678D01*
X119769664Y-124105102D01*
X119935000Y-124173587D01*
X120110521Y-124208500D01*
X120110522Y-124208500D01*
X120289478Y-124208500D01*
X120289479Y-124208500D01*
X120345961Y-124197265D01*
X120416675Y-124203593D01*
X120472743Y-124247147D01*
X120496362Y-124314099D01*
X120486952Y-124369060D01*
X120465463Y-124420941D01*
X120431251Y-124503536D01*
X120371587Y-124726205D01*
X120341500Y-124954739D01*
X120341500Y-125185260D01*
X120371587Y-125413794D01*
X120371588Y-125413800D01*
X120371589Y-125413802D01*
X120431251Y-125636464D01*
X120519465Y-125849433D01*
X120519466Y-125849434D01*
X120519471Y-125849444D01*
X120548333Y-125899434D01*
X120634724Y-126049066D01*
X120712645Y-126150615D01*
X120775053Y-126231947D01*
X120775062Y-126231957D01*
X120938042Y-126394937D01*
X120938052Y-126394946D01*
X120938053Y-126394947D01*
X121120934Y-126535276D01*
X121320567Y-126650535D01*
X121533536Y-126738749D01*
X121756198Y-126798411D01*
X121756204Y-126798411D01*
X121756205Y-126798412D01*
X121782425Y-126801863D01*
X121984742Y-126828500D01*
X121984749Y-126828500D01*
X123215251Y-126828500D01*
X123215258Y-126828500D01*
X123443802Y-126798411D01*
X123666464Y-126738749D01*
X123879433Y-126650535D01*
X124079066Y-126535276D01*
X124261947Y-126394947D01*
X124424947Y-126231947D01*
X124565276Y-126049066D01*
X124680535Y-125849433D01*
X124768749Y-125636464D01*
X124828411Y-125413802D01*
X124858500Y-125185258D01*
X124858500Y-124974739D01*
X142341500Y-124974739D01*
X142341500Y-125205260D01*
X142371587Y-125433794D01*
X142371588Y-125433800D01*
X142371589Y-125433802D01*
X142431251Y-125656464D01*
X142519465Y-125869433D01*
X142519466Y-125869434D01*
X142519471Y-125869444D01*
X142536786Y-125899434D01*
X142634724Y-126069066D01*
X142759707Y-126231947D01*
X142775053Y-126251947D01*
X142775062Y-126251957D01*
X142938042Y-126414937D01*
X142938052Y-126414946D01*
X142938053Y-126414947D01*
X143120934Y-126555276D01*
X143320567Y-126670535D01*
X143533536Y-126758749D01*
X143756198Y-126818411D01*
X143756204Y-126818411D01*
X143756205Y-126818412D01*
X143782425Y-126821863D01*
X143984742Y-126848500D01*
X143984749Y-126848500D01*
X145215251Y-126848500D01*
X145215258Y-126848500D01*
X145443802Y-126818411D01*
X145666464Y-126758749D01*
X145879433Y-126670535D01*
X146079066Y-126555276D01*
X146261947Y-126414947D01*
X146424947Y-126251947D01*
X146565276Y-126069066D01*
X146680535Y-125869433D01*
X146768749Y-125656464D01*
X146828411Y-125433802D01*
X146858500Y-125205258D01*
X146858500Y-124994739D01*
X163741500Y-124994739D01*
X163741500Y-125225260D01*
X163771587Y-125453794D01*
X163771588Y-125453800D01*
X163771589Y-125453802D01*
X163831251Y-125676464D01*
X163919465Y-125889433D01*
X163919466Y-125889434D01*
X163919471Y-125889444D01*
X164011627Y-126049061D01*
X164034724Y-126089066D01*
X164081954Y-126150617D01*
X164175053Y-126271947D01*
X164175062Y-126271957D01*
X164338042Y-126434937D01*
X164338052Y-126434946D01*
X164338053Y-126434947D01*
X164520934Y-126575276D01*
X164720567Y-126690535D01*
X164933536Y-126778749D01*
X165156198Y-126838411D01*
X165156204Y-126838411D01*
X165156205Y-126838412D01*
X165182425Y-126841863D01*
X165384742Y-126868500D01*
X165384749Y-126868500D01*
X166615251Y-126868500D01*
X166615258Y-126868500D01*
X166843802Y-126838411D01*
X167066464Y-126778749D01*
X167279433Y-126690535D01*
X167479066Y-126575276D01*
X167661947Y-126434947D01*
X167824947Y-126271947D01*
X167965276Y-126089066D01*
X168080535Y-125889433D01*
X168168749Y-125676464D01*
X168228411Y-125453802D01*
X168258500Y-125225258D01*
X168258500Y-125004739D01*
X184941500Y-125004739D01*
X184941500Y-125235260D01*
X184971587Y-125463794D01*
X184971588Y-125463800D01*
X184971589Y-125463802D01*
X185031251Y-125686464D01*
X185119465Y-125899433D01*
X185119466Y-125899434D01*
X185119471Y-125899444D01*
X185228950Y-126089066D01*
X185234724Y-126099066D01*
X185352033Y-126251947D01*
X185375053Y-126281947D01*
X185375062Y-126281957D01*
X185538042Y-126444937D01*
X185538052Y-126444946D01*
X185538053Y-126444947D01*
X185720934Y-126585276D01*
X185920567Y-126700535D01*
X186133536Y-126788749D01*
X186356198Y-126848411D01*
X186356204Y-126848411D01*
X186356205Y-126848412D01*
X186382425Y-126851863D01*
X186584742Y-126878500D01*
X186584749Y-126878500D01*
X187815251Y-126878500D01*
X187815258Y-126878500D01*
X188043802Y-126848411D01*
X188266464Y-126788749D01*
X188479433Y-126700535D01*
X188679066Y-126585276D01*
X188861947Y-126444947D01*
X189024947Y-126281947D01*
X189165276Y-126099066D01*
X189280535Y-125899433D01*
X189368749Y-125686464D01*
X189428411Y-125463802D01*
X189458500Y-125235258D01*
X189458500Y-125004742D01*
X189442435Y-124882722D01*
X189442245Y-124881278D01*
X190291500Y-124881278D01*
X190291500Y-125118722D01*
X190309958Y-125235260D01*
X190328645Y-125353246D01*
X190364567Y-125463802D01*
X190402018Y-125579063D01*
X190509815Y-125790627D01*
X190649380Y-125982722D01*
X190649382Y-125982724D01*
X190649384Y-125982727D01*
X190817272Y-126150615D01*
X190817275Y-126150617D01*
X190817278Y-126150620D01*
X191009373Y-126290185D01*
X191220937Y-126397982D01*
X191446759Y-126471356D01*
X191681278Y-126508500D01*
X191681281Y-126508500D01*
X191918719Y-126508500D01*
X191918722Y-126508500D01*
X192153241Y-126471356D01*
X192379063Y-126397982D01*
X192590627Y-126290185D01*
X192782722Y-126150620D01*
X192950620Y-125982722D01*
X193090185Y-125790627D01*
X193197982Y-125579063D01*
X193271356Y-125353241D01*
X193308500Y-125118722D01*
X193308500Y-124881278D01*
X193271356Y-124646759D01*
X193197982Y-124420937D01*
X193090185Y-124209373D01*
X192950620Y-124017278D01*
X192950617Y-124017275D01*
X192950615Y-124017272D01*
X192782727Y-123849384D01*
X192782724Y-123849382D01*
X192782722Y-123849380D01*
X192590627Y-123709815D01*
X192379063Y-123602018D01*
X192379060Y-123602017D01*
X192379058Y-123602016D01*
X192153246Y-123528645D01*
X192153242Y-123528644D01*
X192153241Y-123528644D01*
X191918722Y-123491500D01*
X191681278Y-123491500D01*
X191446759Y-123528644D01*
X191446753Y-123528645D01*
X191220941Y-123602016D01*
X191220935Y-123602019D01*
X191009369Y-123709817D01*
X190817275Y-123849382D01*
X190817272Y-123849384D01*
X190649384Y-124017272D01*
X190649382Y-124017275D01*
X190509817Y-124209369D01*
X190402019Y-124420935D01*
X190402016Y-124420941D01*
X190328645Y-124646753D01*
X190328644Y-124646758D01*
X190328644Y-124646759D01*
X190291500Y-124881278D01*
X189442245Y-124881278D01*
X189428412Y-124776205D01*
X189428411Y-124776204D01*
X189428411Y-124776198D01*
X189368749Y-124553536D01*
X189280535Y-124340567D01*
X189165276Y-124140934D01*
X189024947Y-123958053D01*
X189024946Y-123958052D01*
X189024937Y-123958042D01*
X188861957Y-123795062D01*
X188861947Y-123795053D01*
X188783684Y-123735000D01*
X188679066Y-123654724D01*
X188661746Y-123644724D01*
X188479444Y-123539471D01*
X188479439Y-123539468D01*
X188479433Y-123539465D01*
X188266464Y-123451251D01*
X188043802Y-123391589D01*
X188043800Y-123391588D01*
X188043794Y-123391587D01*
X187815260Y-123361500D01*
X187815258Y-123361500D01*
X186584742Y-123361500D01*
X186584739Y-123361500D01*
X186356205Y-123391587D01*
X186133536Y-123451251D01*
X185944710Y-123529465D01*
X185920565Y-123539466D01*
X185920555Y-123539471D01*
X185720938Y-123654721D01*
X185538052Y-123795053D01*
X185538042Y-123795062D01*
X185375062Y-123958042D01*
X185375053Y-123958052D01*
X185234721Y-124140938D01*
X185119471Y-124340555D01*
X185119466Y-124340565D01*
X185119465Y-124340567D01*
X185062098Y-124479064D01*
X185031251Y-124553536D01*
X184971587Y-124776205D01*
X184941500Y-125004739D01*
X168258500Y-125004739D01*
X168258500Y-124994742D01*
X168231863Y-124792425D01*
X168228412Y-124766205D01*
X168228411Y-124766204D01*
X168228411Y-124766198D01*
X168168749Y-124543536D01*
X168080535Y-124330567D01*
X167965276Y-124130934D01*
X167824947Y-123948053D01*
X167824946Y-123948052D01*
X167824937Y-123948042D01*
X167661957Y-123785062D01*
X167661947Y-123785053D01*
X167635882Y-123765053D01*
X167479066Y-123644724D01*
X167479061Y-123644721D01*
X167279444Y-123529471D01*
X167279439Y-123529468D01*
X167279433Y-123529465D01*
X167066464Y-123441251D01*
X166843802Y-123381589D01*
X166843800Y-123381588D01*
X166843794Y-123381587D01*
X166615260Y-123351500D01*
X166615258Y-123351500D01*
X165384742Y-123351500D01*
X165384739Y-123351500D01*
X165156205Y-123381587D01*
X165118885Y-123391587D01*
X164933536Y-123441251D01*
X164768850Y-123509466D01*
X164720565Y-123529466D01*
X164720555Y-123529471D01*
X164520938Y-123644721D01*
X164338052Y-123785053D01*
X164338042Y-123785062D01*
X164175062Y-123948042D01*
X164175053Y-123948052D01*
X164034721Y-124130938D01*
X163919471Y-124330555D01*
X163919466Y-124330565D01*
X163919465Y-124330567D01*
X163857956Y-124479063D01*
X163831251Y-124543536D01*
X163771587Y-124766205D01*
X163741500Y-124994739D01*
X146858500Y-124994739D01*
X146858500Y-124974742D01*
X146828411Y-124746198D01*
X146768749Y-124523536D01*
X146768746Y-124523528D01*
X146767424Y-124519632D01*
X146768382Y-124519306D01*
X146761273Y-124453238D01*
X146793046Y-124389748D01*
X146796143Y-124386537D01*
X146949264Y-124233417D01*
X147032272Y-124109187D01*
X147089449Y-123971149D01*
X147118598Y-123824607D01*
X147118598Y-123675197D01*
X147118598Y-122696577D01*
X174224430Y-122696577D01*
X174224430Y-122875540D01*
X174239748Y-122952547D01*
X174259343Y-123051059D01*
X174327828Y-123216395D01*
X174427252Y-123365194D01*
X174553795Y-123491737D01*
X174702594Y-123591161D01*
X174867930Y-123659646D01*
X175043451Y-123694559D01*
X175043452Y-123694559D01*
X175222408Y-123694559D01*
X175222409Y-123694559D01*
X175397930Y-123659646D01*
X175563266Y-123591161D01*
X175712065Y-123491737D01*
X175838608Y-123365194D01*
X175938032Y-123216395D01*
X176006517Y-123051059D01*
X176041430Y-122875538D01*
X176041430Y-122696580D01*
X176006517Y-122521059D01*
X175938032Y-122355723D01*
X175838608Y-122206924D01*
X175712065Y-122080381D01*
X175563266Y-121980957D01*
X175446359Y-121932532D01*
X175397933Y-121912473D01*
X175397931Y-121912472D01*
X175397930Y-121912472D01*
X175309575Y-121894897D01*
X175222411Y-121877559D01*
X175222409Y-121877559D01*
X175043451Y-121877559D01*
X175043448Y-121877559D01*
X174912701Y-121903566D01*
X174867930Y-121912472D01*
X174867929Y-121912472D01*
X174867926Y-121912473D01*
X174702592Y-121980958D01*
X174553799Y-122080378D01*
X174553792Y-122080383D01*
X174427254Y-122206921D01*
X174427249Y-122206928D01*
X174327829Y-122355721D01*
X174259344Y-122521055D01*
X174224430Y-122696577D01*
X147118598Y-122696577D01*
X147118598Y-121610518D01*
X178091500Y-121610518D01*
X178091500Y-121789481D01*
X178126414Y-121965003D01*
X178133023Y-121980958D01*
X178194898Y-122130336D01*
X178294322Y-122279135D01*
X178420865Y-122405678D01*
X178569664Y-122505102D01*
X178735000Y-122573587D01*
X178910521Y-122608500D01*
X178910522Y-122608500D01*
X179089478Y-122608500D01*
X179089479Y-122608500D01*
X179265000Y-122573587D01*
X179430336Y-122505102D01*
X179579135Y-122405678D01*
X179705678Y-122279135D01*
X179805102Y-122130336D01*
X179873587Y-121965000D01*
X179908500Y-121789479D01*
X179908500Y-121610521D01*
X179873587Y-121435000D01*
X179805102Y-121269664D01*
X179705678Y-121120865D01*
X179579135Y-120994322D01*
X179430336Y-120894898D01*
X179313429Y-120846473D01*
X179265003Y-120826414D01*
X179265001Y-120826413D01*
X179265000Y-120826413D01*
X179176645Y-120808838D01*
X179089481Y-120791500D01*
X179089479Y-120791500D01*
X178910521Y-120791500D01*
X178910518Y-120791500D01*
X178779771Y-120817507D01*
X178735000Y-120826413D01*
X178734999Y-120826413D01*
X178734996Y-120826414D01*
X178569662Y-120894899D01*
X178420869Y-120994319D01*
X178420862Y-120994324D01*
X178294324Y-121120862D01*
X178294319Y-121120869D01*
X178194899Y-121269662D01*
X178126414Y-121434996D01*
X178091500Y-121610518D01*
X147118598Y-121610518D01*
X147118598Y-120610518D01*
X158291500Y-120610518D01*
X158291500Y-120789481D01*
X158326414Y-120965003D01*
X158346473Y-121013429D01*
X158394898Y-121130336D01*
X158494322Y-121279135D01*
X158620865Y-121405678D01*
X158769664Y-121505102D01*
X158935000Y-121573587D01*
X159110521Y-121608500D01*
X159110522Y-121608500D01*
X159289478Y-121608500D01*
X159289479Y-121608500D01*
X159465000Y-121573587D01*
X159630336Y-121505102D01*
X159779135Y-121405678D01*
X159905678Y-121279135D01*
X160005102Y-121130336D01*
X160073587Y-120965000D01*
X160108500Y-120789479D01*
X160108500Y-120610521D01*
X160073587Y-120435000D01*
X160005102Y-120269664D01*
X159905678Y-120120865D01*
X159779135Y-119994322D01*
X159630336Y-119894898D01*
X159513429Y-119846473D01*
X159465003Y-119826414D01*
X159465001Y-119826413D01*
X159465000Y-119826413D01*
X159376645Y-119808838D01*
X159289481Y-119791500D01*
X159289479Y-119791500D01*
X159110521Y-119791500D01*
X159110518Y-119791500D01*
X158979771Y-119817507D01*
X158935000Y-119826413D01*
X158934999Y-119826413D01*
X158934996Y-119826414D01*
X158769662Y-119894899D01*
X158620869Y-119994319D01*
X158620862Y-119994324D01*
X158494324Y-120120862D01*
X158494319Y-120120869D01*
X158394899Y-120269662D01*
X158326414Y-120434996D01*
X158291500Y-120610518D01*
X147118598Y-120610518D01*
X147118598Y-118873074D01*
X147138600Y-118804953D01*
X147192256Y-118758460D01*
X147262530Y-118748356D01*
X147314598Y-118768308D01*
X147369664Y-118805102D01*
X147535000Y-118873587D01*
X147710521Y-118908500D01*
X147710522Y-118908500D01*
X147889478Y-118908500D01*
X147889479Y-118908500D01*
X148065000Y-118873587D01*
X148230336Y-118805102D01*
X148379135Y-118705678D01*
X148505678Y-118579135D01*
X148605102Y-118430336D01*
X148673587Y-118265000D01*
X148708500Y-118089479D01*
X148708500Y-117910521D01*
X148673587Y-117735000D01*
X148605102Y-117569664D01*
X148505678Y-117420865D01*
X148379135Y-117294322D01*
X148230336Y-117194898D01*
X148077223Y-117131476D01*
X148065003Y-117126414D01*
X148065001Y-117126413D01*
X148065000Y-117126413D01*
X147976645Y-117108838D01*
X147889481Y-117091500D01*
X147889479Y-117091500D01*
X147710521Y-117091500D01*
X147710518Y-117091500D01*
X147579771Y-117117507D01*
X147535000Y-117126413D01*
X147534999Y-117126413D01*
X147534996Y-117126414D01*
X147369663Y-117194898D01*
X147314599Y-117231691D01*
X147246846Y-117252905D01*
X147178379Y-117234121D01*
X147130936Y-117181304D01*
X147118598Y-117126925D01*
X147118598Y-116828521D01*
X150441500Y-116828521D01*
X150441500Y-117111478D01*
X150478431Y-117391998D01*
X150478432Y-117392004D01*
X150478433Y-117392006D01*
X150551666Y-117665316D01*
X150659947Y-117926728D01*
X150659948Y-117926729D01*
X150659953Y-117926740D01*
X150801424Y-118171776D01*
X150973667Y-118396245D01*
X150973686Y-118396266D01*
X151173733Y-118596313D01*
X151173743Y-118596322D01*
X151173749Y-118596328D01*
X151173752Y-118596330D01*
X151173754Y-118596332D01*
X151398223Y-118768575D01*
X151643259Y-118910046D01*
X151643263Y-118910047D01*
X151643272Y-118910053D01*
X151904684Y-119018334D01*
X152177994Y-119091567D01*
X152178000Y-119091567D01*
X152178001Y-119091568D01*
X152210187Y-119095805D01*
X152458524Y-119128500D01*
X152458531Y-119128500D01*
X152741469Y-119128500D01*
X152741476Y-119128500D01*
X153022006Y-119091567D01*
X153295316Y-119018334D01*
X153556728Y-118910053D01*
X153801771Y-118768578D01*
X153801771Y-118768577D01*
X153801776Y-118768575D01*
X153932137Y-118668544D01*
X154026251Y-118596328D01*
X154226328Y-118396251D01*
X154306646Y-118291579D01*
X154398575Y-118171776D01*
X154482500Y-118026414D01*
X154540053Y-117926728D01*
X154648334Y-117665316D01*
X154721567Y-117392006D01*
X154758500Y-117111476D01*
X154758500Y-116848521D01*
X171841500Y-116848521D01*
X171841500Y-117131478D01*
X171878431Y-117411998D01*
X171878432Y-117412004D01*
X171878433Y-117412006D01*
X171951666Y-117685316D01*
X172059947Y-117946728D01*
X172059948Y-117946729D01*
X172059953Y-117946740D01*
X172201424Y-118191776D01*
X172373667Y-118416245D01*
X172373686Y-118416266D01*
X172573733Y-118616313D01*
X172573743Y-118616322D01*
X172573749Y-118616328D01*
X172573752Y-118616330D01*
X172573754Y-118616332D01*
X172798223Y-118788575D01*
X173043259Y-118930046D01*
X173043263Y-118930047D01*
X173043272Y-118930053D01*
X173304684Y-119038334D01*
X173577994Y-119111567D01*
X173578000Y-119111567D01*
X173578001Y-119111568D01*
X173610187Y-119115805D01*
X173858524Y-119148500D01*
X173858531Y-119148500D01*
X174141469Y-119148500D01*
X174141476Y-119148500D01*
X174422006Y-119111567D01*
X174695316Y-119038334D01*
X174956728Y-118930053D01*
X175201771Y-118788578D01*
X175201771Y-118788577D01*
X175201776Y-118788575D01*
X175401922Y-118634996D01*
X175426251Y-118616328D01*
X175626328Y-118416251D01*
X175715716Y-118299759D01*
X175798575Y-118191776D01*
X175923890Y-117974724D01*
X175940053Y-117946728D01*
X176048334Y-117685316D01*
X176121567Y-117412006D01*
X176158500Y-117131476D01*
X176158500Y-116858521D01*
X193041500Y-116858521D01*
X193041500Y-117141478D01*
X193078431Y-117421998D01*
X193078432Y-117422004D01*
X193078433Y-117422006D01*
X193151666Y-117695316D01*
X193259947Y-117956728D01*
X193259948Y-117956729D01*
X193259953Y-117956740D01*
X193401424Y-118201776D01*
X193573667Y-118426245D01*
X193573686Y-118426266D01*
X193773733Y-118626313D01*
X193773743Y-118626322D01*
X193773749Y-118626328D01*
X193773752Y-118626330D01*
X193773754Y-118626332D01*
X193998223Y-118798575D01*
X194243259Y-118940046D01*
X194243263Y-118940047D01*
X194243272Y-118940053D01*
X194504684Y-119048334D01*
X194777994Y-119121567D01*
X194778000Y-119121567D01*
X194778001Y-119121568D01*
X194810187Y-119125805D01*
X195058524Y-119158500D01*
X195058531Y-119158500D01*
X195341469Y-119158500D01*
X195341476Y-119158500D01*
X195622006Y-119121567D01*
X195895316Y-119048334D01*
X196156728Y-118940053D01*
X196401771Y-118798578D01*
X196401771Y-118798577D01*
X196401776Y-118798575D01*
X196614949Y-118635000D01*
X196626251Y-118626328D01*
X196826328Y-118426251D01*
X196929666Y-118291579D01*
X196998575Y-118201776D01*
X197002878Y-118194324D01*
X197140053Y-117956728D01*
X197248334Y-117695316D01*
X197321567Y-117422006D01*
X197358500Y-117141476D01*
X197358500Y-116858524D01*
X197321567Y-116577994D01*
X197248334Y-116304684D01*
X197140053Y-116043272D01*
X197140047Y-116043263D01*
X197140046Y-116043259D01*
X196998575Y-115798223D01*
X196826332Y-115573754D01*
X196826330Y-115573752D01*
X196826328Y-115573749D01*
X196826322Y-115573743D01*
X196826313Y-115573733D01*
X196626266Y-115373686D01*
X196626245Y-115373667D01*
X196401776Y-115201424D01*
X196156740Y-115059953D01*
X196156732Y-115059949D01*
X196156728Y-115059947D01*
X195895316Y-114951666D01*
X195622006Y-114878433D01*
X195622004Y-114878432D01*
X195621998Y-114878431D01*
X195341478Y-114841500D01*
X195341476Y-114841500D01*
X195058524Y-114841500D01*
X195058521Y-114841500D01*
X194778001Y-114878431D01*
X194542005Y-114941666D01*
X194504684Y-114951666D01*
X194324228Y-115026414D01*
X194243270Y-115059948D01*
X194243259Y-115059953D01*
X193998223Y-115201424D01*
X193773754Y-115373667D01*
X193773733Y-115373686D01*
X193573686Y-115573733D01*
X193573667Y-115573754D01*
X193401424Y-115798223D01*
X193259953Y-116043259D01*
X193259948Y-116043270D01*
X193259947Y-116043272D01*
X193203670Y-116179135D01*
X193151666Y-116304684D01*
X193078431Y-116578001D01*
X193041500Y-116858521D01*
X176158500Y-116858521D01*
X176158500Y-116848524D01*
X176125805Y-116600187D01*
X176121568Y-116568001D01*
X176121567Y-116568000D01*
X176121567Y-116567994D01*
X176048334Y-116294684D01*
X175940053Y-116033272D01*
X175940047Y-116033263D01*
X175940046Y-116033259D01*
X175798575Y-115788223D01*
X175626332Y-115563754D01*
X175626330Y-115563752D01*
X175626328Y-115563749D01*
X175626322Y-115563743D01*
X175626313Y-115563733D01*
X175426266Y-115363686D01*
X175426245Y-115363667D01*
X175201776Y-115191424D01*
X174956740Y-115049953D01*
X174956732Y-115049949D01*
X174956728Y-115049947D01*
X174695316Y-114941666D01*
X174422006Y-114868433D01*
X174422004Y-114868432D01*
X174421998Y-114868431D01*
X174141478Y-114831500D01*
X174141476Y-114831500D01*
X173858524Y-114831500D01*
X173858521Y-114831500D01*
X173578001Y-114868431D01*
X173382300Y-114920869D01*
X173304684Y-114941666D01*
X173100086Y-115026414D01*
X173043270Y-115049948D01*
X173043259Y-115049953D01*
X172798223Y-115191424D01*
X172573754Y-115363667D01*
X172573733Y-115363686D01*
X172373686Y-115563733D01*
X172373667Y-115563754D01*
X172201424Y-115788223D01*
X172059953Y-116033259D01*
X172059948Y-116033270D01*
X171951666Y-116294684D01*
X171878431Y-116568001D01*
X171841500Y-116848521D01*
X154758500Y-116848521D01*
X154758500Y-116828524D01*
X154721567Y-116547994D01*
X154648334Y-116274684D01*
X154540053Y-116013272D01*
X154540047Y-116013263D01*
X154540046Y-116013259D01*
X154455795Y-115867331D01*
X154422994Y-115810518D01*
X159891500Y-115810518D01*
X159891500Y-115989481D01*
X159902200Y-116043272D01*
X159921214Y-116138865D01*
X159926414Y-116165003D01*
X159943263Y-116205680D01*
X159994898Y-116330336D01*
X160094322Y-116479135D01*
X160220865Y-116605678D01*
X160369664Y-116705102D01*
X160535000Y-116773587D01*
X160710521Y-116808500D01*
X160710522Y-116808500D01*
X160889478Y-116808500D01*
X160889479Y-116808500D01*
X161065000Y-116773587D01*
X161230336Y-116705102D01*
X161379135Y-116605678D01*
X161505678Y-116479135D01*
X161605102Y-116330336D01*
X161673587Y-116165000D01*
X161708500Y-115989479D01*
X161708500Y-115810521D01*
X161673587Y-115635000D01*
X161605102Y-115469664D01*
X161505678Y-115320865D01*
X161379135Y-115194322D01*
X161230336Y-115094898D01*
X161113429Y-115046473D01*
X161065003Y-115026414D01*
X161065001Y-115026413D01*
X161065000Y-115026413D01*
X160976645Y-115008838D01*
X160889481Y-114991500D01*
X160889479Y-114991500D01*
X160710521Y-114991500D01*
X160710518Y-114991500D01*
X160579771Y-115017507D01*
X160535000Y-115026413D01*
X160534999Y-115026413D01*
X160534996Y-115026414D01*
X160369662Y-115094899D01*
X160220869Y-115194319D01*
X160220862Y-115194324D01*
X160094324Y-115320862D01*
X160094319Y-115320869D01*
X159994899Y-115469662D01*
X159926414Y-115634996D01*
X159891500Y-115810518D01*
X154422994Y-115810518D01*
X154398575Y-115768223D01*
X154226332Y-115543754D01*
X154226330Y-115543752D01*
X154226328Y-115543749D01*
X154226322Y-115543743D01*
X154226313Y-115543733D01*
X154026266Y-115343686D01*
X154026245Y-115343667D01*
X153801776Y-115171424D01*
X153556740Y-115029953D01*
X153556732Y-115029949D01*
X153556728Y-115029947D01*
X153295316Y-114921666D01*
X153022006Y-114848433D01*
X153022004Y-114848432D01*
X153021998Y-114848431D01*
X152741478Y-114811500D01*
X152741476Y-114811500D01*
X152458524Y-114811500D01*
X152458521Y-114811500D01*
X152178001Y-114848431D01*
X152006733Y-114894322D01*
X151904684Y-114921666D01*
X151651802Y-115026414D01*
X151643270Y-115029948D01*
X151643259Y-115029953D01*
X151398223Y-115171424D01*
X151173754Y-115343667D01*
X151173733Y-115343686D01*
X150973686Y-115543733D01*
X150973667Y-115543754D01*
X150801424Y-115768223D01*
X150659953Y-116013259D01*
X150659948Y-116013270D01*
X150659947Y-116013272D01*
X150584953Y-116194322D01*
X150551666Y-116274684D01*
X150478431Y-116548001D01*
X150441500Y-116828521D01*
X147118598Y-116828521D01*
X147118598Y-108903964D01*
X147138600Y-108835843D01*
X147192256Y-108789350D01*
X147262530Y-108779246D01*
X147269152Y-108780380D01*
X147410521Y-108808500D01*
X147410522Y-108808500D01*
X147589478Y-108808500D01*
X147589479Y-108808500D01*
X147765000Y-108773587D01*
X147930336Y-108705102D01*
X148071891Y-108610518D01*
X181791500Y-108610518D01*
X181791500Y-108789481D01*
X181808838Y-108876645D01*
X181826413Y-108965000D01*
X181894898Y-109130336D01*
X181994322Y-109279135D01*
X182120865Y-109405678D01*
X182269664Y-109505102D01*
X182435000Y-109573587D01*
X182610521Y-109608500D01*
X182610522Y-109608500D01*
X182789478Y-109608500D01*
X182789479Y-109608500D01*
X182965000Y-109573587D01*
X183130336Y-109505102D01*
X183279135Y-109405678D01*
X183405678Y-109279135D01*
X183505102Y-109130336D01*
X183573587Y-108965000D01*
X183608500Y-108789479D01*
X183608500Y-108610521D01*
X183588608Y-108510518D01*
X189991500Y-108510518D01*
X189991500Y-108689481D01*
X189998639Y-108725371D01*
X190026413Y-108865000D01*
X190094898Y-109030336D01*
X190194322Y-109179135D01*
X190320865Y-109305678D01*
X190469664Y-109405102D01*
X190635000Y-109473587D01*
X190810521Y-109508500D01*
X190810522Y-109508500D01*
X190989478Y-109508500D01*
X190989479Y-109508500D01*
X191165000Y-109473587D01*
X191330336Y-109405102D01*
X191479135Y-109305678D01*
X191605678Y-109179135D01*
X191705102Y-109030336D01*
X191773587Y-108865000D01*
X191808500Y-108689479D01*
X191808500Y-108510521D01*
X191773587Y-108335000D01*
X191705102Y-108169664D01*
X191605678Y-108020865D01*
X191479135Y-107894322D01*
X191330336Y-107794898D01*
X191213429Y-107746473D01*
X191165003Y-107726414D01*
X191165001Y-107726413D01*
X191165000Y-107726413D01*
X191076645Y-107708838D01*
X190989481Y-107691500D01*
X190989479Y-107691500D01*
X190810521Y-107691500D01*
X190810518Y-107691500D01*
X190679771Y-107717507D01*
X190635000Y-107726413D01*
X190634999Y-107726413D01*
X190634996Y-107726414D01*
X190503902Y-107780716D01*
X190477868Y-107791500D01*
X190469662Y-107794899D01*
X190320869Y-107894319D01*
X190320862Y-107894324D01*
X190194324Y-108020862D01*
X190194319Y-108020869D01*
X190094899Y-108169662D01*
X190026414Y-108334996D01*
X189991500Y-108510518D01*
X183588608Y-108510518D01*
X183573587Y-108435000D01*
X183505102Y-108269664D01*
X183405678Y-108120865D01*
X183279135Y-107994322D01*
X183130336Y-107894898D01*
X183013429Y-107846473D01*
X182965003Y-107826414D01*
X182965001Y-107826413D01*
X182965000Y-107826413D01*
X182876645Y-107808838D01*
X182789481Y-107791500D01*
X182789479Y-107791500D01*
X182610521Y-107791500D01*
X182610518Y-107791500D01*
X182479771Y-107817507D01*
X182435000Y-107826413D01*
X182434999Y-107826413D01*
X182434996Y-107826414D01*
X182269662Y-107894899D01*
X182120869Y-107994319D01*
X182120862Y-107994324D01*
X181994324Y-108120862D01*
X181994319Y-108120869D01*
X181894899Y-108269662D01*
X181826414Y-108434996D01*
X181791500Y-108610518D01*
X148071891Y-108610518D01*
X148079135Y-108605678D01*
X148205678Y-108479135D01*
X148305102Y-108330336D01*
X148373587Y-108165000D01*
X148408500Y-107989479D01*
X148408500Y-107810521D01*
X148373587Y-107635000D01*
X148305102Y-107469664D01*
X148205678Y-107320865D01*
X148079135Y-107194322D01*
X147930336Y-107094898D01*
X147813429Y-107046473D01*
X147765003Y-107026414D01*
X147765001Y-107026413D01*
X147765000Y-107026413D01*
X147676645Y-107008838D01*
X147589481Y-106991500D01*
X147589479Y-106991500D01*
X147410521Y-106991500D01*
X147410515Y-106991500D01*
X147269179Y-107019614D01*
X147198465Y-107013286D01*
X147142398Y-106969731D01*
X147118779Y-106902779D01*
X147118598Y-106896035D01*
X147118598Y-100206086D01*
X147138600Y-100137965D01*
X147192256Y-100091472D01*
X147262530Y-100081368D01*
X147314390Y-100104225D01*
X147315718Y-100102239D01*
X147320865Y-100105678D01*
X147469664Y-100205102D01*
X147635000Y-100273587D01*
X147810521Y-100308500D01*
X147810522Y-100308500D01*
X147989478Y-100308500D01*
X147989479Y-100308500D01*
X148165000Y-100273587D01*
X148330336Y-100205102D01*
X148479135Y-100105678D01*
X148605678Y-99979135D01*
X148705102Y-99830336D01*
X148773587Y-99665000D01*
X148808500Y-99489479D01*
X148808500Y-99310521D01*
X148773587Y-99135000D01*
X148705102Y-98969664D01*
X148605678Y-98820865D01*
X148481276Y-98696463D01*
X148447250Y-98634151D01*
X148452315Y-98563336D01*
X148494862Y-98506500D01*
X148504204Y-98500140D01*
X148593138Y-98445285D01*
X148707019Y-98331403D01*
X148769329Y-98297380D01*
X148796113Y-98294500D01*
X149145148Y-98294500D01*
X149213269Y-98314502D01*
X149234238Y-98331400D01*
X149449328Y-98546490D01*
X149528664Y-98599500D01*
X149557180Y-98618554D01*
X149558273Y-98619006D01*
X149564156Y-98622883D01*
X149583501Y-98645730D01*
X149604866Y-98666710D01*
X149608567Y-98675333D01*
X149610034Y-98677065D01*
X149610355Y-98679497D01*
X149615124Y-98690607D01*
X149616949Y-98696463D01*
X149619271Y-98703912D01*
X149619271Y-98703913D01*
X149708282Y-98851155D01*
X149708286Y-98851160D01*
X149835332Y-98978206D01*
X149833094Y-98980443D01*
X149866002Y-99026483D01*
X149869504Y-99097393D01*
X149834114Y-99158940D01*
X149795224Y-99184310D01*
X149769666Y-99194896D01*
X149769664Y-99194897D01*
X149620869Y-99294319D01*
X149620862Y-99294324D01*
X149494324Y-99420862D01*
X149494319Y-99420869D01*
X149394899Y-99569662D01*
X149326414Y-99734996D01*
X149291500Y-99910518D01*
X149291500Y-100089481D01*
X149300640Y-100135431D01*
X149326413Y-100265000D01*
X149394898Y-100430336D01*
X149494322Y-100579135D01*
X149620865Y-100705678D01*
X149769664Y-100805102D01*
X149935000Y-100873587D01*
X150110521Y-100908500D01*
X150110522Y-100908500D01*
X150289478Y-100908500D01*
X150289479Y-100908500D01*
X150465000Y-100873587D01*
X150630336Y-100805102D01*
X150779135Y-100705678D01*
X150905678Y-100579135D01*
X151005102Y-100430336D01*
X151073587Y-100265000D01*
X151108500Y-100089479D01*
X151108500Y-99910521D01*
X151073587Y-99735000D01*
X151005102Y-99569664D01*
X150905678Y-99420865D01*
X150792942Y-99308129D01*
X150758916Y-99245817D01*
X150763981Y-99175002D01*
X150806528Y-99118166D01*
X150844550Y-99098740D01*
X150963011Y-99061827D01*
X151110253Y-98972816D01*
X151148875Y-98934194D01*
X151206003Y-98877067D01*
X151268315Y-98843041D01*
X151339130Y-98848106D01*
X151384193Y-98877067D01*
X151479937Y-98972811D01*
X151479942Y-98972815D01*
X151479943Y-98972816D01*
X151627185Y-99061827D01*
X151627189Y-99061828D01*
X151627191Y-99061829D01*
X151642294Y-99066535D01*
X151791449Y-99113013D01*
X151862833Y-99119500D01*
X152377362Y-99119499D01*
X152448747Y-99113013D01*
X152613011Y-99061827D01*
X152723760Y-98994876D01*
X152734020Y-98992167D01*
X152742379Y-98985625D01*
X152767762Y-98983259D01*
X152792404Y-98976753D01*
X152804375Y-98979846D01*
X152813069Y-98979036D01*
X152832954Y-98987230D01*
X152846933Y-98990842D01*
X152853130Y-98994054D01*
X152869664Y-99005102D01*
X152893432Y-99014947D01*
X152898212Y-99017425D01*
X152920105Y-99038395D01*
X152943721Y-99057425D01*
X152945475Y-99062695D01*
X152949484Y-99066535D01*
X152956563Y-99096008D01*
X152966143Y-99124788D01*
X152964769Y-99130170D01*
X152966066Y-99135568D01*
X152956085Y-99164195D01*
X152948586Y-99193580D01*
X152944521Y-99197363D01*
X152942694Y-99202607D01*
X152918816Y-99221297D01*
X152896625Y-99241959D01*
X152888443Y-99245696D01*
X152769665Y-99294897D01*
X152769664Y-99294897D01*
X152620869Y-99394319D01*
X152620862Y-99394324D01*
X152494324Y-99520862D01*
X152494319Y-99520869D01*
X152455391Y-99579130D01*
X152394898Y-99669664D01*
X152380716Y-99703902D01*
X152326414Y-99834996D01*
X152291500Y-100010518D01*
X152291500Y-100189481D01*
X152307449Y-100269660D01*
X152323831Y-100352021D01*
X152326414Y-100365003D01*
X152337933Y-100392811D01*
X152394898Y-100530336D01*
X152494322Y-100679135D01*
X152620865Y-100805678D01*
X152769664Y-100905102D01*
X152935000Y-100973587D01*
X153110521Y-101008500D01*
X153110522Y-101008500D01*
X153289478Y-101008500D01*
X153289479Y-101008500D01*
X153465000Y-100973587D01*
X153630336Y-100905102D01*
X153779135Y-100805678D01*
X153905678Y-100679135D01*
X154005102Y-100530336D01*
X154073587Y-100365000D01*
X154108500Y-100189479D01*
X154108500Y-100010521D01*
X154073587Y-99835000D01*
X154005102Y-99669664D01*
X153905678Y-99520865D01*
X153779135Y-99394322D01*
X153630336Y-99294898D01*
X153611557Y-99287119D01*
X153556277Y-99242572D01*
X153533856Y-99175208D01*
X153551414Y-99106417D01*
X153603376Y-99058039D01*
X153611550Y-99054305D01*
X153730336Y-99005102D01*
X153879135Y-98905678D01*
X154005678Y-98779135D01*
X154105102Y-98630336D01*
X154173587Y-98465000D01*
X154208500Y-98289479D01*
X154208500Y-98110521D01*
X154173587Y-97935000D01*
X154105102Y-97769664D01*
X154005678Y-97620865D01*
X153889407Y-97504594D01*
X153855381Y-97442282D01*
X153860446Y-97371467D01*
X153902993Y-97314631D01*
X153969513Y-97289820D01*
X153978502Y-97289499D01*
X154121609Y-97289499D01*
X154121609Y-97289498D01*
X154158929Y-97286561D01*
X154318699Y-97240144D01*
X154318701Y-97240142D01*
X154318703Y-97240142D01*
X154423521Y-97178152D01*
X154461905Y-97155452D01*
X154579551Y-97037806D01*
X154645429Y-96926413D01*
X154664241Y-96894604D01*
X154664241Y-96894602D01*
X154664243Y-96894600D01*
X154710660Y-96734830D01*
X154713597Y-96697510D01*
X154713598Y-96697510D01*
X154713598Y-96264488D01*
X154713597Y-96264487D01*
X154710660Y-96227170D01*
X154710660Y-96227169D01*
X154683883Y-96135000D01*
X154664243Y-96067398D01*
X154664241Y-96067396D01*
X154664241Y-96067393D01*
X154579554Y-95924197D01*
X154579553Y-95924196D01*
X154579551Y-95924192D01*
X154579547Y-95924188D01*
X154578806Y-95923232D01*
X154578454Y-95922336D01*
X154575516Y-95917368D01*
X154576317Y-95916894D01*
X154552854Y-95857149D01*
X154566750Y-95787525D01*
X154578806Y-95768766D01*
X154579543Y-95767813D01*
X154579551Y-95767806D01*
X154664243Y-95624600D01*
X154710660Y-95464830D01*
X154713597Y-95427510D01*
X154713598Y-95427510D01*
X154713598Y-95187646D01*
X154733600Y-95119525D01*
X154787256Y-95073032D01*
X154791328Y-95071259D01*
X154830336Y-95055102D01*
X154979135Y-94955678D01*
X155105678Y-94829135D01*
X155205102Y-94680336D01*
X155273587Y-94515000D01*
X155308500Y-94339479D01*
X155308500Y-94216371D01*
X155328502Y-94148250D01*
X155345405Y-94127276D01*
X155842698Y-93629983D01*
X156514738Y-92957942D01*
X156577048Y-92923919D01*
X156647863Y-92928983D01*
X156704699Y-92971530D01*
X156724828Y-93011886D01*
X156745954Y-93084604D01*
X156830641Y-93227801D01*
X156831396Y-93228774D01*
X156831750Y-93229675D01*
X156834680Y-93234630D01*
X156833880Y-93235102D01*
X156857342Y-93294860D01*
X156843440Y-93364482D01*
X156831396Y-93383224D01*
X156830641Y-93384196D01*
X156745954Y-93527393D01*
X156699535Y-93687169D01*
X156699535Y-93687170D01*
X156696598Y-93724487D01*
X156696598Y-94157510D01*
X156699535Y-94194827D01*
X156699535Y-94194828D01*
X156745954Y-94354604D01*
X156830641Y-94497801D01*
X156831396Y-94498774D01*
X156831750Y-94499675D01*
X156834680Y-94504630D01*
X156833880Y-94505102D01*
X156857342Y-94564860D01*
X156843440Y-94634482D01*
X156831396Y-94653224D01*
X156830641Y-94654196D01*
X156745954Y-94797393D01*
X156699535Y-94957169D01*
X156699535Y-94957170D01*
X156696598Y-94994487D01*
X156696598Y-95427510D01*
X156699535Y-95464827D01*
X156699535Y-95464828D01*
X156745954Y-95624604D01*
X156830641Y-95767801D01*
X156831396Y-95768774D01*
X156831750Y-95769675D01*
X156834680Y-95774630D01*
X156833880Y-95775102D01*
X156857342Y-95834860D01*
X156843440Y-95904482D01*
X156831396Y-95923224D01*
X156830641Y-95924196D01*
X156745954Y-96067393D01*
X156699535Y-96227169D01*
X156699535Y-96227170D01*
X156696598Y-96264487D01*
X156696598Y-96697510D01*
X156699535Y-96734827D01*
X156699535Y-96734828D01*
X156745954Y-96894604D01*
X156830642Y-97037802D01*
X156830647Y-97037809D01*
X156948287Y-97155449D01*
X156948294Y-97155454D01*
X157091492Y-97240142D01*
X157091495Y-97240142D01*
X157091497Y-97240144D01*
X157251267Y-97286561D01*
X157288586Y-97289498D01*
X157288587Y-97289499D01*
X157288596Y-97289499D01*
X159071609Y-97289499D01*
X159071609Y-97289498D01*
X159108929Y-97286561D01*
X159108934Y-97286559D01*
X159115264Y-97285404D01*
X159115556Y-97287003D01*
X159178477Y-97287176D01*
X159238097Y-97325723D01*
X159267413Y-97390385D01*
X159259056Y-97456192D01*
X159226414Y-97534994D01*
X159191500Y-97710518D01*
X159191500Y-97889484D01*
X159217209Y-98018731D01*
X159210881Y-98089445D01*
X159167326Y-98145512D01*
X159100374Y-98169131D01*
X159045411Y-98159720D01*
X158965007Y-98126415D01*
X158965002Y-98126414D01*
X158965000Y-98126413D01*
X158841166Y-98101781D01*
X158789481Y-98091500D01*
X158789479Y-98091500D01*
X158610521Y-98091500D01*
X158610518Y-98091500D01*
X158479771Y-98117507D01*
X158435000Y-98126413D01*
X158434999Y-98126413D01*
X158434996Y-98126414D01*
X158269662Y-98194899D01*
X158120869Y-98294319D01*
X158120862Y-98294324D01*
X157994324Y-98420862D01*
X157994319Y-98420869D01*
X157894899Y-98569662D01*
X157826414Y-98734996D01*
X157826413Y-98734999D01*
X157826413Y-98735000D01*
X157817635Y-98779130D01*
X157791500Y-98910518D01*
X157791500Y-99089481D01*
X157806348Y-99164126D01*
X157823831Y-99252021D01*
X157826414Y-99265003D01*
X157838797Y-99294897D01*
X157894898Y-99430336D01*
X157994322Y-99579135D01*
X158120865Y-99705678D01*
X158269664Y-99805102D01*
X158435000Y-99873587D01*
X158610521Y-99908500D01*
X158610522Y-99908500D01*
X158789478Y-99908500D01*
X158789479Y-99908500D01*
X158965000Y-99873587D01*
X159130336Y-99805102D01*
X159279135Y-99705678D01*
X159405678Y-99579135D01*
X159505102Y-99430336D01*
X159573587Y-99265000D01*
X159608500Y-99089479D01*
X159608500Y-98910521D01*
X159582790Y-98781267D01*
X159589118Y-98710555D01*
X159632672Y-98654487D01*
X159699625Y-98630868D01*
X159754587Y-98640278D01*
X159767748Y-98645730D01*
X159834994Y-98673585D01*
X159834996Y-98673585D01*
X159835000Y-98673587D01*
X160010521Y-98708500D01*
X160010522Y-98708500D01*
X160189478Y-98708500D01*
X160189479Y-98708500D01*
X160365000Y-98673587D01*
X160530336Y-98605102D01*
X160679135Y-98505678D01*
X160805678Y-98379135D01*
X160905102Y-98230336D01*
X160973587Y-98065000D01*
X161008500Y-97889479D01*
X161008500Y-97710521D01*
X160973587Y-97535000D01*
X160969595Y-97525363D01*
X160940279Y-97454589D01*
X160932689Y-97383999D01*
X160964467Y-97320512D01*
X161025525Y-97284283D01*
X161081267Y-97282790D01*
X161210521Y-97308500D01*
X161210522Y-97308500D01*
X161389478Y-97308500D01*
X161389479Y-97308500D01*
X161565000Y-97273587D01*
X161730336Y-97205102D01*
X161879135Y-97105678D01*
X162005678Y-96979135D01*
X162105102Y-96830336D01*
X162173587Y-96665000D01*
X162208500Y-96489479D01*
X162208500Y-96310521D01*
X162173587Y-96135000D01*
X162105102Y-95969664D01*
X162005678Y-95820865D01*
X161879135Y-95694322D01*
X161730336Y-95594898D01*
X161613429Y-95546473D01*
X161565003Y-95526414D01*
X161565001Y-95526413D01*
X161565000Y-95526413D01*
X161476645Y-95508838D01*
X161389481Y-95491500D01*
X161389479Y-95491500D01*
X161210521Y-95491500D01*
X161210518Y-95491500D01*
X161079771Y-95517507D01*
X161035000Y-95526413D01*
X161034999Y-95526413D01*
X161034996Y-95526414D01*
X160903902Y-95580716D01*
X160889543Y-95586664D01*
X160869662Y-95594899D01*
X160720869Y-95694319D01*
X160720862Y-95694324D01*
X160594324Y-95820862D01*
X160594319Y-95820869D01*
X160525279Y-95924196D01*
X160494898Y-95969664D01*
X160484684Y-95994322D01*
X160426414Y-96134996D01*
X160391500Y-96310518D01*
X160391500Y-96489481D01*
X160405314Y-96558930D01*
X160426413Y-96665000D01*
X160426414Y-96665002D01*
X160426415Y-96665007D01*
X160459720Y-96745411D01*
X160467310Y-96816001D01*
X160435531Y-96879488D01*
X160374474Y-96915716D01*
X160318731Y-96917209D01*
X160189484Y-96891500D01*
X160189479Y-96891500D01*
X160010521Y-96891500D01*
X160010518Y-96891500D01*
X159834993Y-96926414D01*
X159815950Y-96934302D01*
X159745360Y-96941888D01*
X159681875Y-96910106D01*
X159645650Y-96849047D01*
X159646740Y-96782740D01*
X159660660Y-96734830D01*
X159663597Y-96697510D01*
X159663598Y-96697510D01*
X159663598Y-96264488D01*
X159663597Y-96264487D01*
X159660660Y-96227170D01*
X159660660Y-96227169D01*
X159633883Y-96135000D01*
X159614243Y-96067398D01*
X159614241Y-96067396D01*
X159614241Y-96067393D01*
X159529554Y-95924197D01*
X159529553Y-95924196D01*
X159529551Y-95924192D01*
X159529547Y-95924188D01*
X159528806Y-95923232D01*
X159528454Y-95922336D01*
X159525516Y-95917368D01*
X159526317Y-95916894D01*
X159502854Y-95857149D01*
X159516750Y-95787525D01*
X159528806Y-95768766D01*
X159529543Y-95767813D01*
X159529551Y-95767806D01*
X159614243Y-95624600D01*
X159660660Y-95464830D01*
X159663597Y-95427510D01*
X159663598Y-95427510D01*
X159663598Y-94994488D01*
X159663597Y-94994487D01*
X159660660Y-94957170D01*
X159660660Y-94957169D01*
X159660660Y-94957168D01*
X159614243Y-94797398D01*
X159614241Y-94797396D01*
X159614241Y-94797393D01*
X159529554Y-94654197D01*
X159529553Y-94654196D01*
X159529551Y-94654192D01*
X159529547Y-94654188D01*
X159528806Y-94653232D01*
X159528454Y-94652336D01*
X159525516Y-94647368D01*
X159526317Y-94646894D01*
X159502854Y-94587149D01*
X159516750Y-94517525D01*
X159528806Y-94498766D01*
X159529543Y-94497813D01*
X159529551Y-94497806D01*
X159614243Y-94354600D01*
X159660660Y-94194830D01*
X159663597Y-94157510D01*
X159663598Y-94157510D01*
X159663598Y-93724488D01*
X159663597Y-93724487D01*
X159660660Y-93687170D01*
X159660660Y-93687169D01*
X159644046Y-93629983D01*
X159614243Y-93527398D01*
X159614241Y-93527396D01*
X159614241Y-93527393D01*
X159529554Y-93384197D01*
X159529553Y-93384196D01*
X159529551Y-93384192D01*
X159529547Y-93384188D01*
X159528806Y-93383232D01*
X159528454Y-93382336D01*
X159525516Y-93377368D01*
X159526317Y-93376894D01*
X159502854Y-93317149D01*
X159516750Y-93247525D01*
X159528806Y-93228766D01*
X159529543Y-93227813D01*
X159529551Y-93227806D01*
X159614243Y-93084600D01*
X159660660Y-92924830D01*
X159663597Y-92887510D01*
X159663598Y-92887510D01*
X159663598Y-92454488D01*
X159663597Y-92454487D01*
X159663248Y-92450058D01*
X159660660Y-92417168D01*
X159614243Y-92257398D01*
X159614241Y-92257394D01*
X159614241Y-92257393D01*
X159529553Y-92114195D01*
X159529548Y-92114188D01*
X159411908Y-91996548D01*
X159411901Y-91996543D01*
X159261876Y-91907818D01*
X159263239Y-91905512D01*
X159218625Y-91868394D01*
X159197262Y-91800687D01*
X159215896Y-91732180D01*
X159268609Y-91684621D01*
X159273204Y-91682523D01*
X159278691Y-91680147D01*
X159278700Y-91680145D01*
X159421906Y-91595453D01*
X159539552Y-91477807D01*
X159624244Y-91334601D01*
X159670661Y-91174831D01*
X159673598Y-91137511D01*
X159673599Y-91137511D01*
X159673599Y-90704489D01*
X159673598Y-90704488D01*
X159670661Y-90667171D01*
X159670661Y-90667170D01*
X159670661Y-90667169D01*
X159624244Y-90507399D01*
X159624242Y-90507397D01*
X159624242Y-90507394D01*
X159539555Y-90364198D01*
X159539554Y-90364197D01*
X159539552Y-90364193D01*
X159539548Y-90364189D01*
X159538807Y-90363233D01*
X159538455Y-90362337D01*
X159535517Y-90357369D01*
X159536318Y-90356895D01*
X159512855Y-90297150D01*
X159526751Y-90227526D01*
X159538807Y-90208767D01*
X159539544Y-90207814D01*
X159539552Y-90207807D01*
X159624244Y-90064601D01*
X159670661Y-89904831D01*
X159673598Y-89867511D01*
X159673599Y-89867511D01*
X159673599Y-89434489D01*
X159673598Y-89434488D01*
X159670661Y-89397171D01*
X159670661Y-89397170D01*
X159649899Y-89325706D01*
X159624244Y-89237399D01*
X159624242Y-89237397D01*
X159624242Y-89237394D01*
X159539555Y-89094198D01*
X159539554Y-89094197D01*
X159539552Y-89094193D01*
X159539548Y-89094189D01*
X159538807Y-89093233D01*
X159538455Y-89092337D01*
X159535517Y-89087369D01*
X159536318Y-89086895D01*
X159512855Y-89027150D01*
X159526751Y-88957526D01*
X159538807Y-88938767D01*
X159539544Y-88937814D01*
X159539552Y-88937807D01*
X159624244Y-88794601D01*
X159670661Y-88634831D01*
X159673598Y-88597511D01*
X159673599Y-88597511D01*
X159673599Y-88164489D01*
X159673598Y-88164488D01*
X159670661Y-88127171D01*
X159670661Y-88127170D01*
X159670661Y-88127169D01*
X159624244Y-87967399D01*
X159624242Y-87967397D01*
X159624242Y-87967394D01*
X159539555Y-87824198D01*
X159539554Y-87824197D01*
X159539552Y-87824193D01*
X159539548Y-87824189D01*
X159538807Y-87823233D01*
X159538455Y-87822337D01*
X159535517Y-87817369D01*
X159536318Y-87816895D01*
X159512855Y-87757150D01*
X159526751Y-87687526D01*
X159538807Y-87668767D01*
X159539544Y-87667814D01*
X159539552Y-87667807D01*
X159624244Y-87524601D01*
X159670661Y-87364831D01*
X159673598Y-87327511D01*
X159673599Y-87327511D01*
X159673599Y-86894489D01*
X159673598Y-86894488D01*
X159670661Y-86857171D01*
X159670661Y-86857170D01*
X159629611Y-86715874D01*
X159624244Y-86697399D01*
X159624242Y-86697397D01*
X159624242Y-86697394D01*
X159539554Y-86554196D01*
X159539549Y-86554189D01*
X159421909Y-86436549D01*
X159421902Y-86436544D01*
X159278704Y-86351856D01*
X159118928Y-86305437D01*
X159081610Y-86302500D01*
X159081601Y-86302500D01*
X157480112Y-86302500D01*
X157458522Y-86296160D01*
X157436081Y-86294556D01*
X157425124Y-86286354D01*
X157411991Y-86282498D01*
X157397255Y-86265492D01*
X157379245Y-86252010D01*
X157374461Y-86239186D01*
X157365498Y-86228842D01*
X157362295Y-86206570D01*
X157354433Y-86185491D01*
X157357342Y-86172117D01*
X157355394Y-86158568D01*
X157364741Y-86138099D01*
X157369524Y-86116116D01*
X157383010Y-86098099D01*
X157384888Y-86093988D01*
X157391015Y-86087406D01*
X157393137Y-86085284D01*
X157460656Y-86017764D01*
X157510589Y-85987837D01*
X157510541Y-85987719D01*
X157511338Y-85987388D01*
X157513185Y-85986282D01*
X157516245Y-85985352D01*
X157516260Y-85985350D01*
X157654297Y-85928173D01*
X157778528Y-85845165D01*
X157931209Y-85692482D01*
X157993519Y-85658459D01*
X157995631Y-85658018D01*
X158040506Y-85649093D01*
X158205842Y-85580608D01*
X158354641Y-85481184D01*
X158481184Y-85354641D01*
X158580608Y-85205842D01*
X158649093Y-85040506D01*
X158649095Y-85040494D01*
X158650812Y-85034833D01*
X158689719Y-84975446D01*
X158734833Y-84950812D01*
X158740494Y-84949095D01*
X158740506Y-84949093D01*
X158905842Y-84880608D01*
X159054641Y-84781184D01*
X159181184Y-84654641D01*
X159280608Y-84505842D01*
X159315742Y-84421020D01*
X162092006Y-84421020D01*
X162092006Y-86518319D01*
X162098515Y-86578866D01*
X162098517Y-86578874D01*
X162149616Y-86715872D01*
X162149618Y-86715877D01*
X162237244Y-86832931D01*
X162354298Y-86920557D01*
X162354300Y-86920558D01*
X162354302Y-86920559D01*
X162413381Y-86942594D01*
X162491301Y-86971658D01*
X162491309Y-86971660D01*
X162551856Y-86978169D01*
X162551861Y-86978169D01*
X162551868Y-86978170D01*
X162551874Y-86978170D01*
X164849138Y-86978170D01*
X164849144Y-86978170D01*
X164849151Y-86978169D01*
X164849155Y-86978169D01*
X164909702Y-86971660D01*
X164909705Y-86971659D01*
X164909707Y-86971659D01*
X165046710Y-86920559D01*
X165081524Y-86894498D01*
X165163767Y-86832931D01*
X165251393Y-86715877D01*
X165251393Y-86715876D01*
X165251395Y-86715874D01*
X165302495Y-86578871D01*
X165309006Y-86518308D01*
X165309006Y-84421032D01*
X165309005Y-84421020D01*
X165302496Y-84360473D01*
X165302494Y-84360465D01*
X165270932Y-84275845D01*
X165251395Y-84223466D01*
X165251394Y-84223464D01*
X165251393Y-84223462D01*
X165163767Y-84106408D01*
X165046713Y-84018782D01*
X165046708Y-84018780D01*
X164909710Y-83967681D01*
X164909702Y-83967679D01*
X164849155Y-83961170D01*
X164849144Y-83961170D01*
X162551868Y-83961170D01*
X162551856Y-83961170D01*
X162491309Y-83967679D01*
X162491301Y-83967681D01*
X162354303Y-84018780D01*
X162354298Y-84018782D01*
X162237244Y-84106408D01*
X162149618Y-84223462D01*
X162149616Y-84223467D01*
X162098517Y-84360465D01*
X162098515Y-84360473D01*
X162092006Y-84421020D01*
X159315742Y-84421020D01*
X159341250Y-84359438D01*
X159385796Y-84304160D01*
X159409430Y-84291254D01*
X159555842Y-84230608D01*
X159704641Y-84131184D01*
X159831184Y-84004641D01*
X159930608Y-83855842D01*
X159999093Y-83690506D01*
X159999094Y-83690500D01*
X159999095Y-83690500D01*
X160008001Y-83645722D01*
X160016906Y-83628695D01*
X160020992Y-83609916D01*
X160040035Y-83584477D01*
X160040907Y-83582812D01*
X160042428Y-83581263D01*
X160081208Y-83542483D01*
X160143518Y-83508459D01*
X160145722Y-83508001D01*
X160190500Y-83499095D01*
X160190500Y-83499094D01*
X160190506Y-83499093D01*
X160355842Y-83430608D01*
X160504641Y-83331184D01*
X160631184Y-83204641D01*
X160730608Y-83055842D01*
X160799093Y-82890506D01*
X160824902Y-82760748D01*
X160831723Y-82737967D01*
X160831908Y-82737508D01*
X160879857Y-82621753D01*
X160880806Y-82616982D01*
X160884936Y-82606802D01*
X160903590Y-82583303D01*
X160920037Y-82558210D01*
X160925416Y-82555811D01*
X160929079Y-82551198D01*
X160957477Y-82541515D01*
X160984879Y-82529297D01*
X160995376Y-82528593D01*
X160996278Y-82528286D01*
X160997063Y-82528480D01*
X161001693Y-82528170D01*
X161449138Y-82528170D01*
X161449144Y-82528170D01*
X161449151Y-82528169D01*
X161449155Y-82528169D01*
X161509702Y-82521660D01*
X161509705Y-82521659D01*
X161509707Y-82521659D01*
X161646710Y-82470559D01*
X161647305Y-82470114D01*
X161763767Y-82382931D01*
X161851393Y-82265877D01*
X161851393Y-82265876D01*
X161851395Y-82265874D01*
X161902495Y-82128871D01*
X161908613Y-82071969D01*
X161909005Y-82068319D01*
X161909006Y-82068302D01*
X161909006Y-80871037D01*
X161909005Y-80871020D01*
X161902496Y-80810473D01*
X161902494Y-80810465D01*
X161865529Y-80711360D01*
X161851395Y-80673466D01*
X161851394Y-80673464D01*
X161851393Y-80673462D01*
X161758367Y-80549195D01*
X161760163Y-80547849D01*
X161732098Y-80496453D01*
X161737163Y-80425638D01*
X161759451Y-80390957D01*
X161758367Y-80390145D01*
X161851393Y-80265877D01*
X161851393Y-80265876D01*
X161851395Y-80265874D01*
X161900209Y-80135000D01*
X161902494Y-80128874D01*
X161902496Y-80128866D01*
X161904469Y-80110518D01*
X162791500Y-80110518D01*
X162791500Y-80289481D01*
X162804480Y-80354734D01*
X162822014Y-80442887D01*
X162826414Y-80465003D01*
X162836521Y-80489402D01*
X162894898Y-80630336D01*
X162994322Y-80779135D01*
X163045523Y-80830336D01*
X163076092Y-80860905D01*
X163110117Y-80923217D01*
X163105051Y-80994033D01*
X163076092Y-81039095D01*
X162994320Y-81120867D01*
X162994319Y-81120869D01*
X162894899Y-81269662D01*
X162826414Y-81434996D01*
X162791500Y-81610518D01*
X162791500Y-81789481D01*
X162808838Y-81876645D01*
X162826413Y-81965000D01*
X162894898Y-82130336D01*
X162994322Y-82279135D01*
X163120865Y-82405678D01*
X163269664Y-82505102D01*
X163435000Y-82573587D01*
X163610521Y-82608500D01*
X163610522Y-82608500D01*
X163789478Y-82608500D01*
X163789479Y-82608500D01*
X163965000Y-82573587D01*
X164130336Y-82505102D01*
X164279135Y-82405678D01*
X164405678Y-82279135D01*
X164505102Y-82130336D01*
X164530812Y-82068267D01*
X165492506Y-82068267D01*
X165499011Y-82128763D01*
X165550061Y-82265634D01*
X165550061Y-82265635D01*
X165637601Y-82382574D01*
X165754540Y-82470114D01*
X165891412Y-82521164D01*
X165951908Y-82527669D01*
X165951921Y-82527670D01*
X166996506Y-82527670D01*
X166996506Y-81723670D01*
X165492506Y-81723670D01*
X165492506Y-82068267D01*
X164530812Y-82068267D01*
X164573587Y-81965000D01*
X164608500Y-81789479D01*
X164608500Y-81610521D01*
X164573587Y-81435000D01*
X164505102Y-81269664D01*
X164405678Y-81120865D01*
X164323908Y-81039095D01*
X164289882Y-80976783D01*
X164294947Y-80905968D01*
X164323908Y-80860905D01*
X164354477Y-80830336D01*
X164405678Y-80779135D01*
X164505102Y-80630336D01*
X164573587Y-80465000D01*
X164608500Y-80289479D01*
X164608500Y-80110521D01*
X164600095Y-80068267D01*
X165492506Y-80068267D01*
X165499011Y-80128763D01*
X165550061Y-80265634D01*
X165550061Y-80265635D01*
X165643002Y-80389788D01*
X165641320Y-80391046D01*
X165669628Y-80442887D01*
X165664563Y-80513702D01*
X165642003Y-80548804D01*
X165643002Y-80549552D01*
X165550061Y-80673704D01*
X165550061Y-80673705D01*
X165499011Y-80810576D01*
X165492506Y-80871072D01*
X165492506Y-81215670D01*
X166996506Y-81215670D01*
X166996506Y-79723670D01*
X165492506Y-79723670D01*
X165492506Y-80068267D01*
X164600095Y-80068267D01*
X164573587Y-79935000D01*
X164505102Y-79769664D01*
X164405678Y-79620865D01*
X164279135Y-79494322D01*
X164130336Y-79394898D01*
X164013429Y-79346473D01*
X163965003Y-79326414D01*
X163965001Y-79326413D01*
X163965000Y-79326413D01*
X163876645Y-79308838D01*
X163789481Y-79291500D01*
X163789479Y-79291500D01*
X163610521Y-79291500D01*
X163610518Y-79291500D01*
X163479771Y-79317507D01*
X163435000Y-79326413D01*
X163434999Y-79326413D01*
X163434996Y-79326414D01*
X163269662Y-79394899D01*
X163120869Y-79494319D01*
X163120862Y-79494324D01*
X162994324Y-79620862D01*
X162994319Y-79620869D01*
X162894899Y-79769662D01*
X162826414Y-79934996D01*
X162791500Y-80110518D01*
X161904469Y-80110518D01*
X161906582Y-80090862D01*
X161906582Y-80090860D01*
X161909004Y-80068324D01*
X161909006Y-80068308D01*
X161909006Y-78871032D01*
X161902507Y-78810576D01*
X161902496Y-78810473D01*
X161902494Y-78810465D01*
X161872607Y-78730336D01*
X161851395Y-78673466D01*
X161851394Y-78673464D01*
X161851393Y-78673462D01*
X161758367Y-78549195D01*
X161760163Y-78547849D01*
X161732098Y-78496453D01*
X161737163Y-78425638D01*
X161759451Y-78390957D01*
X161758367Y-78390145D01*
X161851393Y-78265877D01*
X161851393Y-78265876D01*
X161851395Y-78265874D01*
X161902495Y-78128871D01*
X161909006Y-78068308D01*
X161909006Y-77510518D01*
X162791500Y-77510518D01*
X162791500Y-77510521D01*
X162791500Y-77689479D01*
X162826413Y-77865000D01*
X162894898Y-78030336D01*
X162994322Y-78179135D01*
X163120865Y-78305678D01*
X163269664Y-78405102D01*
X163435000Y-78473587D01*
X163610521Y-78508500D01*
X163610522Y-78508500D01*
X163789478Y-78508500D01*
X163789479Y-78508500D01*
X163965000Y-78473587D01*
X164130336Y-78405102D01*
X164279135Y-78305678D01*
X164405678Y-78179135D01*
X164479757Y-78068267D01*
X165492506Y-78068267D01*
X165499011Y-78128763D01*
X165550061Y-78265634D01*
X165550061Y-78265635D01*
X165643002Y-78389788D01*
X165641320Y-78391046D01*
X165669628Y-78442887D01*
X165664563Y-78513702D01*
X165642003Y-78548804D01*
X165643002Y-78549552D01*
X165550061Y-78673704D01*
X165550061Y-78673705D01*
X165499011Y-78810576D01*
X165492506Y-78871072D01*
X165492506Y-79215670D01*
X166996506Y-79215670D01*
X166996506Y-77723670D01*
X165492506Y-77723670D01*
X165492506Y-78068267D01*
X164479757Y-78068267D01*
X164505102Y-78030336D01*
X164573587Y-77865000D01*
X164608500Y-77689479D01*
X164608500Y-77510521D01*
X164573587Y-77335000D01*
X164505102Y-77169664D01*
X164405678Y-77020865D01*
X164279135Y-76894322D01*
X164130336Y-76794898D01*
X164013429Y-76746473D01*
X163965003Y-76726414D01*
X163965001Y-76726413D01*
X163965000Y-76726413D01*
X163872536Y-76708021D01*
X163789481Y-76691500D01*
X163789479Y-76691500D01*
X163610521Y-76691500D01*
X163610518Y-76691500D01*
X163493177Y-76714841D01*
X163435000Y-76726413D01*
X163434999Y-76726413D01*
X163434996Y-76726414D01*
X163269662Y-76794899D01*
X163120869Y-76894319D01*
X163120862Y-76894324D01*
X162994324Y-77020862D01*
X162994319Y-77020869D01*
X162894899Y-77169662D01*
X162826414Y-77334996D01*
X162791500Y-77510518D01*
X161909006Y-77510518D01*
X161909006Y-76871032D01*
X161902507Y-76810576D01*
X161902496Y-76810473D01*
X161902494Y-76810465D01*
X161866827Y-76714841D01*
X161851395Y-76673466D01*
X161851394Y-76673464D01*
X161851393Y-76673462D01*
X161758367Y-76549195D01*
X161760163Y-76547849D01*
X161732098Y-76496453D01*
X161737163Y-76425638D01*
X161759451Y-76390957D01*
X161758367Y-76390145D01*
X161851393Y-76265877D01*
X161851393Y-76265876D01*
X161851395Y-76265874D01*
X161902495Y-76128871D01*
X161904686Y-76108499D01*
X161909005Y-76068319D01*
X161909006Y-76068302D01*
X161909006Y-75110518D01*
X162791500Y-75110518D01*
X162791500Y-75289481D01*
X162826414Y-75465003D01*
X162846473Y-75513429D01*
X162894898Y-75630336D01*
X162994322Y-75779135D01*
X163120865Y-75905678D01*
X163269664Y-76005102D01*
X163435000Y-76073587D01*
X163610521Y-76108500D01*
X163610522Y-76108500D01*
X163789478Y-76108500D01*
X163789479Y-76108500D01*
X163965000Y-76073587D01*
X163977844Y-76068267D01*
X165492506Y-76068267D01*
X165499011Y-76128763D01*
X165550061Y-76265634D01*
X165550061Y-76265635D01*
X165643002Y-76389788D01*
X165641320Y-76391046D01*
X165669628Y-76442887D01*
X165664563Y-76513702D01*
X165642003Y-76548804D01*
X165643002Y-76549552D01*
X165550061Y-76673704D01*
X165550061Y-76673705D01*
X165499011Y-76810576D01*
X165492506Y-76871072D01*
X165492506Y-77215670D01*
X166996506Y-77215670D01*
X166996506Y-75723670D01*
X165492506Y-75723670D01*
X165492506Y-76068267D01*
X163977844Y-76068267D01*
X164130336Y-76005102D01*
X164279135Y-75905678D01*
X164405678Y-75779135D01*
X164505102Y-75630336D01*
X164573587Y-75465000D01*
X164608500Y-75289479D01*
X164608500Y-75110521D01*
X164573587Y-74935000D01*
X164505102Y-74769664D01*
X164405678Y-74620865D01*
X164279135Y-74494322D01*
X164189256Y-74434267D01*
X164143730Y-74379792D01*
X164134881Y-74309349D01*
X164165522Y-74245304D01*
X164211039Y-74213094D01*
X164230336Y-74205102D01*
X164379135Y-74105678D01*
X164505678Y-73979135D01*
X164605102Y-73830336D01*
X164673587Y-73665000D01*
X164708500Y-73489479D01*
X164708500Y-73310521D01*
X164673587Y-73135000D01*
X164605102Y-72969664D01*
X164505678Y-72820865D01*
X164379135Y-72694322D01*
X164230336Y-72594898D01*
X164093396Y-72538175D01*
X164065003Y-72526414D01*
X164065001Y-72526413D01*
X164065000Y-72526413D01*
X163976645Y-72508838D01*
X163889481Y-72491500D01*
X163889479Y-72491500D01*
X163710521Y-72491500D01*
X163710518Y-72491500D01*
X163598903Y-72513702D01*
X163535000Y-72526413D01*
X163534999Y-72526413D01*
X163534996Y-72526414D01*
X163403902Y-72580716D01*
X163377868Y-72591500D01*
X163369662Y-72594899D01*
X163220869Y-72694319D01*
X163220862Y-72694324D01*
X163094324Y-72820862D01*
X163094319Y-72820869D01*
X163027502Y-72920869D01*
X162994898Y-72969664D01*
X162984684Y-72994322D01*
X162926414Y-73134996D01*
X162891500Y-73310518D01*
X162891500Y-73310521D01*
X162891500Y-73489479D01*
X162926413Y-73665000D01*
X162994898Y-73830336D01*
X163094322Y-73979135D01*
X163220865Y-74105678D01*
X163310742Y-74165732D01*
X163356269Y-74220207D01*
X163365118Y-74290650D01*
X163334477Y-74354694D01*
X163288963Y-74386903D01*
X163269665Y-74394897D01*
X163269664Y-74394897D01*
X163120869Y-74494319D01*
X163120862Y-74494324D01*
X162994324Y-74620862D01*
X162994319Y-74620869D01*
X162894899Y-74769662D01*
X162826414Y-74934996D01*
X162791500Y-75110518D01*
X161909006Y-75110518D01*
X161909006Y-74871037D01*
X161909005Y-74871020D01*
X161902496Y-74810473D01*
X161902494Y-74810465D01*
X161851484Y-74673705D01*
X161851395Y-74673466D01*
X161851394Y-74673464D01*
X161851393Y-74673462D01*
X161758367Y-74549195D01*
X161760163Y-74547849D01*
X161732098Y-74496453D01*
X161737163Y-74425638D01*
X161759451Y-74390957D01*
X161758367Y-74390145D01*
X161851393Y-74265877D01*
X161851393Y-74265876D01*
X161851395Y-74265874D01*
X161902495Y-74128871D01*
X161904989Y-74105680D01*
X161909005Y-74068319D01*
X161909006Y-74068302D01*
X161909006Y-72871037D01*
X161909005Y-72871020D01*
X161902496Y-72810473D01*
X161902494Y-72810465D01*
X161859389Y-72694898D01*
X161851395Y-72673466D01*
X161851394Y-72673464D01*
X161851393Y-72673462D01*
X161758367Y-72549195D01*
X161760163Y-72547849D01*
X161732098Y-72496453D01*
X161737163Y-72425638D01*
X161759451Y-72390957D01*
X161758367Y-72390145D01*
X161851393Y-72265877D01*
X161851393Y-72265876D01*
X161851395Y-72265874D01*
X161902495Y-72128871D01*
X161909006Y-72068308D01*
X161909006Y-70871032D01*
X161909005Y-70871020D01*
X165492006Y-70871020D01*
X165492006Y-72068319D01*
X165498515Y-72128866D01*
X165498517Y-72128874D01*
X165549616Y-72265872D01*
X165549618Y-72265877D01*
X165642645Y-72390145D01*
X165640848Y-72391490D01*
X165668914Y-72442887D01*
X165663849Y-72513702D01*
X165641560Y-72548382D01*
X165642645Y-72549195D01*
X165549618Y-72673462D01*
X165549616Y-72673467D01*
X165498517Y-72810465D01*
X165498515Y-72810473D01*
X165492006Y-72871020D01*
X165492006Y-74068319D01*
X165498515Y-74128866D01*
X165498517Y-74128874D01*
X165549616Y-74265872D01*
X165549618Y-74265877D01*
X165642645Y-74390145D01*
X165640963Y-74391403D01*
X165669271Y-74443244D01*
X165664206Y-74514059D01*
X165641917Y-74548739D01*
X165643002Y-74549552D01*
X165550061Y-74673704D01*
X165550061Y-74673705D01*
X165499011Y-74810576D01*
X165492506Y-74871072D01*
X165492506Y-75215670D01*
X167124506Y-75215670D01*
X167192627Y-75235672D01*
X167239120Y-75289328D01*
X167250506Y-75341670D01*
X167250506Y-75469670D01*
X167378506Y-75469670D01*
X167446627Y-75489672D01*
X167493120Y-75543328D01*
X167504506Y-75595670D01*
X167504506Y-82545963D01*
X167516528Y-82567979D01*
X167511463Y-82638794D01*
X167498173Y-82664762D01*
X167494899Y-82669660D01*
X167426414Y-82834996D01*
X167426413Y-82834999D01*
X167426413Y-82835000D01*
X167417507Y-82879771D01*
X167391500Y-83010518D01*
X167391500Y-83189481D01*
X167426414Y-83365003D01*
X167445175Y-83410295D01*
X167494898Y-83530336D01*
X167594322Y-83679135D01*
X167720865Y-83805678D01*
X167869664Y-83905102D01*
X168035000Y-83973587D01*
X168210521Y-84008500D01*
X168210522Y-84008500D01*
X168389478Y-84008500D01*
X168389479Y-84008500D01*
X168565000Y-83973587D01*
X168730336Y-83905102D01*
X168879135Y-83805678D01*
X169005678Y-83679135D01*
X169105102Y-83530336D01*
X169173587Y-83365000D01*
X169208500Y-83189479D01*
X169208500Y-83010521D01*
X169173587Y-82835000D01*
X169137790Y-82748580D01*
X169104117Y-82667286D01*
X169096527Y-82596696D01*
X169128306Y-82533209D01*
X169189363Y-82496981D01*
X169245104Y-82495488D01*
X169310521Y-82508500D01*
X169310522Y-82508500D01*
X169489478Y-82508500D01*
X169489479Y-82508500D01*
X169665000Y-82473587D01*
X169830336Y-82405102D01*
X169979135Y-82305678D01*
X170105678Y-82179135D01*
X170205102Y-82030336D01*
X170273587Y-81865000D01*
X170308500Y-81689479D01*
X170308500Y-81510521D01*
X170273587Y-81335000D01*
X170205102Y-81169664D01*
X170105678Y-81020865D01*
X169979135Y-80894322D01*
X169830336Y-80794898D01*
X169687066Y-80735553D01*
X169665003Y-80726414D01*
X169665001Y-80726413D01*
X169665000Y-80726413D01*
X169576645Y-80708838D01*
X169489481Y-80691500D01*
X169489479Y-80691500D01*
X169310521Y-80691500D01*
X169310518Y-80691500D01*
X169134999Y-80726413D01*
X169134994Y-80726415D01*
X169112933Y-80735553D01*
X169083296Y-80738738D01*
X169054099Y-80744695D01*
X169048410Y-80742488D01*
X169042343Y-80743141D01*
X169015690Y-80729798D01*
X168987906Y-80719023D01*
X168983221Y-80713544D01*
X168978857Y-80711360D01*
X168962878Y-80693337D01*
X168861807Y-80554607D01*
X168850104Y-80521943D01*
X168837967Y-80489402D01*
X168838147Y-80488571D01*
X168837861Y-80487771D01*
X168845676Y-80453959D01*
X168853058Y-80420028D01*
X168853659Y-80419426D01*
X168853851Y-80418598D01*
X168878709Y-80394376D01*
X168903260Y-80369826D01*
X168904091Y-80369645D01*
X168904700Y-80369052D01*
X168938711Y-80362113D01*
X168972634Y-80354734D01*
X168973677Y-80354980D01*
X168974264Y-80354861D01*
X168975968Y-80355521D01*
X169011865Y-80364005D01*
X169034992Y-80373584D01*
X169034993Y-80373584D01*
X169035000Y-80373587D01*
X169210521Y-80408500D01*
X169210522Y-80408500D01*
X169389478Y-80408500D01*
X169389479Y-80408500D01*
X169565000Y-80373587D01*
X169730336Y-80305102D01*
X169879135Y-80205678D01*
X170005678Y-80079135D01*
X170105102Y-79930336D01*
X170173587Y-79765000D01*
X170208500Y-79589479D01*
X170208500Y-79410521D01*
X170173587Y-79235000D01*
X170105102Y-79069664D01*
X170005678Y-78920865D01*
X169879135Y-78794322D01*
X169856398Y-78779130D01*
X169734869Y-78697927D01*
X169689342Y-78643451D01*
X169680493Y-78573007D01*
X169711134Y-78508963D01*
X169760059Y-78477834D01*
X169759281Y-78475956D01*
X169785723Y-78465003D01*
X169930336Y-78405102D01*
X170079135Y-78305678D01*
X170205678Y-78179135D01*
X170305102Y-78030336D01*
X170373587Y-77865000D01*
X170408500Y-77689479D01*
X170408500Y-77510521D01*
X170373587Y-77335000D01*
X170305102Y-77169664D01*
X170205678Y-77020865D01*
X170093673Y-76908860D01*
X170059647Y-76846548D01*
X170064712Y-76775733D01*
X170107259Y-76718897D01*
X170125222Y-76708670D01*
X170124875Y-76708021D01*
X170130331Y-76705103D01*
X170130336Y-76705102D01*
X170279135Y-76605678D01*
X170405678Y-76479135D01*
X170505102Y-76330336D01*
X170573587Y-76165000D01*
X170608500Y-75989479D01*
X170608500Y-75810521D01*
X170573587Y-75635000D01*
X170505102Y-75469664D01*
X170405678Y-75320865D01*
X170279135Y-75194322D01*
X170130336Y-75094898D01*
X169982515Y-75033668D01*
X169965003Y-75026414D01*
X169965001Y-75026413D01*
X169965000Y-75026413D01*
X169876645Y-75008838D01*
X169789481Y-74991500D01*
X169789479Y-74991500D01*
X169610521Y-74991500D01*
X169610518Y-74991500D01*
X169479771Y-75017507D01*
X169435000Y-75026413D01*
X169434999Y-75026413D01*
X169434996Y-75026414D01*
X169269663Y-75094898D01*
X169204507Y-75138434D01*
X169136754Y-75159648D01*
X169068287Y-75140864D01*
X169020844Y-75088047D01*
X169008506Y-75033668D01*
X169008506Y-74871084D01*
X169008505Y-74871072D01*
X169002000Y-74810576D01*
X168950950Y-74673705D01*
X168950950Y-74673704D01*
X168862777Y-74555920D01*
X168837966Y-74489400D01*
X168853057Y-74420026D01*
X168903259Y-74369824D01*
X168972633Y-74354732D01*
X169011858Y-74364001D01*
X169035000Y-74373587D01*
X169210521Y-74408500D01*
X169210522Y-74408500D01*
X169389478Y-74408500D01*
X169389479Y-74408500D01*
X169565000Y-74373587D01*
X169730336Y-74305102D01*
X169879135Y-74205678D01*
X170005678Y-74079135D01*
X170105102Y-73930336D01*
X170173587Y-73765000D01*
X170208500Y-73589479D01*
X170208500Y-73410521D01*
X170173587Y-73235000D01*
X170105102Y-73069664D01*
X170005678Y-72920865D01*
X169879135Y-72794322D01*
X169730336Y-72694898D01*
X169583587Y-72634112D01*
X169565003Y-72626414D01*
X169565001Y-72626413D01*
X169565000Y-72626413D01*
X169476645Y-72608838D01*
X169389481Y-72591500D01*
X169389479Y-72591500D01*
X169210521Y-72591500D01*
X169210518Y-72591500D01*
X169034999Y-72626413D01*
X169034983Y-72626418D01*
X169034712Y-72626531D01*
X169034558Y-72626547D01*
X169029070Y-72628212D01*
X169028754Y-72627170D01*
X169006820Y-72629526D01*
X168979506Y-72635922D01*
X168972019Y-72633263D01*
X168964121Y-72634112D01*
X168939037Y-72621552D01*
X168912602Y-72612166D01*
X168904641Y-72604330D01*
X168900638Y-72602326D01*
X168886845Y-72587211D01*
X168886228Y-72586414D01*
X168863767Y-72556409D01*
X168861987Y-72555076D01*
X168855557Y-72546764D01*
X168845427Y-72520863D01*
X168832098Y-72496453D01*
X168832682Y-72488276D01*
X168829698Y-72480644D01*
X168835178Y-72453382D01*
X168837163Y-72425638D01*
X168842391Y-72417501D01*
X168843691Y-72411040D01*
X168852167Y-72402291D01*
X168859451Y-72390957D01*
X168858367Y-72390145D01*
X168951393Y-72265877D01*
X168951393Y-72265876D01*
X168951395Y-72265874D01*
X169002495Y-72128871D01*
X169009006Y-72068308D01*
X169009006Y-70871032D01*
X169009005Y-70871020D01*
X169002496Y-70810473D01*
X169002494Y-70810465D01*
X168951395Y-70673467D01*
X168951393Y-70673462D01*
X168863767Y-70556408D01*
X168746713Y-70468782D01*
X168746708Y-70468780D01*
X168609710Y-70417681D01*
X168609702Y-70417679D01*
X168549155Y-70411170D01*
X168549144Y-70411170D01*
X165951868Y-70411170D01*
X165951856Y-70411170D01*
X165891309Y-70417679D01*
X165891301Y-70417681D01*
X165754303Y-70468780D01*
X165754298Y-70468782D01*
X165637244Y-70556408D01*
X165549618Y-70673462D01*
X165549616Y-70673467D01*
X165498517Y-70810465D01*
X165498515Y-70810473D01*
X165492006Y-70871020D01*
X161909005Y-70871020D01*
X161902496Y-70810473D01*
X161902494Y-70810465D01*
X161851395Y-70673467D01*
X161851393Y-70673462D01*
X161763767Y-70556408D01*
X161646713Y-70468782D01*
X161646708Y-70468780D01*
X161509710Y-70417681D01*
X161509702Y-70417679D01*
X161449155Y-70411170D01*
X161449144Y-70411170D01*
X158851868Y-70411170D01*
X158851856Y-70411170D01*
X158791309Y-70417679D01*
X158791301Y-70417681D01*
X158654303Y-70468780D01*
X158654298Y-70468782D01*
X158537244Y-70556408D01*
X158449618Y-70673462D01*
X158449616Y-70673467D01*
X158398517Y-70810465D01*
X158398515Y-70810473D01*
X158392006Y-70871020D01*
X158392006Y-72068319D01*
X158398515Y-72128866D01*
X158398517Y-72128874D01*
X158449616Y-72265872D01*
X158449618Y-72265877D01*
X158542645Y-72390145D01*
X158540848Y-72391490D01*
X158568914Y-72442887D01*
X158563849Y-72513702D01*
X158551543Y-72538175D01*
X158542071Y-72552795D01*
X158537245Y-72556409D01*
X158449617Y-72673466D01*
X158430229Y-72725444D01*
X158422739Y-72737008D01*
X158405848Y-72751536D01*
X158392497Y-72769372D01*
X158379462Y-72774233D01*
X158368915Y-72783306D01*
X158346849Y-72786396D01*
X158325976Y-72794182D01*
X158301983Y-72792681D01*
X158298605Y-72793155D01*
X158296887Y-72792362D01*
X158292410Y-72792083D01*
X158289479Y-72791500D01*
X158110521Y-72791500D01*
X158110518Y-72791500D01*
X157979771Y-72817507D01*
X157935000Y-72826413D01*
X157934999Y-72826413D01*
X157934996Y-72826414D01*
X157769662Y-72894899D01*
X157620869Y-72994319D01*
X157620862Y-72994324D01*
X157494324Y-73120862D01*
X157494319Y-73120869D01*
X157394899Y-73269662D01*
X157326414Y-73434996D01*
X157291500Y-73610518D01*
X157291500Y-73789481D01*
X157299627Y-73830336D01*
X157326413Y-73965000D01*
X157394898Y-74130336D01*
X157494322Y-74279135D01*
X157620865Y-74405678D01*
X157769664Y-74505102D01*
X157935000Y-74573587D01*
X158110521Y-74608500D01*
X158110522Y-74608500D01*
X158292373Y-74608500D01*
X158360494Y-74628502D01*
X158406987Y-74682158D01*
X158417091Y-74752432D01*
X158410429Y-74778529D01*
X158398517Y-74810469D01*
X158398516Y-74810472D01*
X158398515Y-74810473D01*
X158392006Y-74871020D01*
X158392006Y-76068319D01*
X158398515Y-76128866D01*
X158398517Y-76128874D01*
X158449616Y-76265872D01*
X158449618Y-76265877D01*
X158542645Y-76390145D01*
X158540848Y-76391490D01*
X158568914Y-76442887D01*
X158563849Y-76513702D01*
X158541560Y-76548382D01*
X158542645Y-76549195D01*
X158449618Y-76673462D01*
X158449616Y-76673467D01*
X158398517Y-76810465D01*
X158398515Y-76810473D01*
X158392006Y-76871020D01*
X158392006Y-77165500D01*
X158372004Y-77233621D01*
X158318348Y-77280114D01*
X158266006Y-77291500D01*
X158110518Y-77291500D01*
X157979771Y-77317507D01*
X157935000Y-77326413D01*
X157934999Y-77326413D01*
X157934996Y-77326414D01*
X157803902Y-77380716D01*
X157777868Y-77391500D01*
X157769662Y-77394899D01*
X157620869Y-77494319D01*
X157620862Y-77494324D01*
X157494324Y-77620862D01*
X157494319Y-77620869D01*
X157394899Y-77769662D01*
X157326414Y-77934996D01*
X157291500Y-78110518D01*
X157291500Y-78289481D01*
X157308838Y-78376645D01*
X157326413Y-78465000D01*
X157394898Y-78630336D01*
X157494322Y-78779135D01*
X157620865Y-78905678D01*
X157769664Y-79005102D01*
X157935000Y-79073587D01*
X158110521Y-79108500D01*
X158110522Y-79108500D01*
X158266006Y-79108500D01*
X158334127Y-79128502D01*
X158380620Y-79182158D01*
X158392006Y-79234500D01*
X158392006Y-79698144D01*
X158372004Y-79766265D01*
X158318348Y-79812758D01*
X158248074Y-79822862D01*
X158241425Y-79821723D01*
X158089484Y-79791500D01*
X158089479Y-79791500D01*
X157910521Y-79791500D01*
X157910518Y-79791500D01*
X157779771Y-79817507D01*
X157735000Y-79826413D01*
X157734999Y-79826413D01*
X157734996Y-79826414D01*
X157569662Y-79894899D01*
X157420869Y-79994319D01*
X157420862Y-79994324D01*
X157294324Y-80120862D01*
X157294319Y-80120869D01*
X157197432Y-80265872D01*
X157194898Y-80269664D01*
X157180716Y-80303902D01*
X157126414Y-80434996D01*
X157091500Y-80610518D01*
X157091500Y-80610521D01*
X157091500Y-80789479D01*
X157126413Y-80965000D01*
X157194898Y-81130336D01*
X157294322Y-81279135D01*
X157420865Y-81405678D01*
X157569664Y-81505102D01*
X157735000Y-81573587D01*
X157910521Y-81608500D01*
X157910522Y-81608500D01*
X158089478Y-81608500D01*
X158089479Y-81608500D01*
X158241425Y-81578276D01*
X158312138Y-81584604D01*
X158368206Y-81628158D01*
X158391825Y-81695111D01*
X158392006Y-81701855D01*
X158392006Y-82068319D01*
X158398515Y-82128866D01*
X158398517Y-82128874D01*
X158449616Y-82265872D01*
X158449618Y-82265877D01*
X158537244Y-82382931D01*
X158636796Y-82457454D01*
X158679343Y-82514289D01*
X158684408Y-82585105D01*
X158650383Y-82647417D01*
X158631289Y-82663087D01*
X158546375Y-82719824D01*
X158546368Y-82719830D01*
X158419830Y-82846368D01*
X158419825Y-82846375D01*
X158390339Y-82890505D01*
X158320404Y-82995170D01*
X158314046Y-83010521D01*
X158259762Y-83141572D01*
X158215213Y-83196852D01*
X158191573Y-83209761D01*
X158045170Y-83270404D01*
X158045168Y-83270405D01*
X157896375Y-83369825D01*
X157896368Y-83369830D01*
X157769830Y-83496368D01*
X157769825Y-83496375D01*
X157670404Y-83645169D01*
X157601915Y-83810515D01*
X157600188Y-83816208D01*
X157561266Y-83875585D01*
X157516208Y-83900188D01*
X157510515Y-83901915D01*
X157345169Y-83970404D01*
X157196375Y-84069825D01*
X157196373Y-84069826D01*
X157069827Y-84196371D01*
X157069825Y-84196374D01*
X157056376Y-84216502D01*
X157001899Y-84262029D01*
X156951612Y-84272499D01*
X156436217Y-84272499D01*
X156335763Y-84282762D01*
X156172996Y-84336697D01*
X156027056Y-84426714D01*
X156027050Y-84426719D01*
X156024192Y-84429578D01*
X156021745Y-84430913D01*
X156021299Y-84431267D01*
X156021238Y-84431190D01*
X155961880Y-84463604D01*
X155891065Y-84458539D01*
X155846002Y-84429578D01*
X155843143Y-84426719D01*
X155843137Y-84426714D01*
X155750282Y-84369440D01*
X155697198Y-84336697D01*
X155534433Y-84282763D01*
X155534430Y-84282762D01*
X155433977Y-84272499D01*
X155433969Y-84272499D01*
X155301468Y-84272499D01*
X155233347Y-84252497D01*
X155212377Y-84235598D01*
X154483612Y-83506833D01*
X154483611Y-83506832D01*
X154479235Y-83502456D01*
X154480338Y-83501352D01*
X154444689Y-83449003D01*
X154438596Y-83410295D01*
X154438596Y-82620454D01*
X154427984Y-82516573D01*
X154391238Y-82405680D01*
X154372212Y-82348261D01*
X154279127Y-82197347D01*
X154279126Y-82197346D01*
X154279121Y-82197340D01*
X154153755Y-82071974D01*
X154153749Y-82071969D01*
X154086253Y-82030337D01*
X154002835Y-81978884D01*
X153918679Y-81950998D01*
X153834524Y-81923112D01*
X153834517Y-81923111D01*
X153730650Y-81912499D01*
X152904552Y-81912499D01*
X152800671Y-81923111D01*
X152632358Y-81978884D01*
X152481444Y-82071969D01*
X152481438Y-82071974D01*
X152356072Y-82197340D01*
X152356067Y-82197346D01*
X152262982Y-82348261D01*
X152207210Y-82516571D01*
X152207209Y-82516578D01*
X152196597Y-82620445D01*
X152196597Y-85571543D01*
X152207209Y-85675424D01*
X152262982Y-85843737D01*
X152356067Y-85994651D01*
X152356072Y-85994657D01*
X152448820Y-86087405D01*
X152482846Y-86149717D01*
X152477781Y-86220532D01*
X152435234Y-86277368D01*
X152368714Y-86302179D01*
X152359725Y-86302500D01*
X152348588Y-86302500D01*
X152311270Y-86305437D01*
X152311269Y-86305437D01*
X152151493Y-86351856D01*
X152010986Y-86434953D01*
X151946847Y-86452500D01*
X151685139Y-86452500D01*
X151557922Y-86477806D01*
X151557919Y-86477807D01*
X151438083Y-86527445D01*
X151330231Y-86599509D01*
X151330225Y-86599514D01*
X150301114Y-87628624D01*
X150301109Y-87628631D01*
X150238388Y-87722499D01*
X150229045Y-87736481D01*
X150179406Y-87856320D01*
X150179405Y-87856323D01*
X150154099Y-87983540D01*
X150154099Y-89508086D01*
X150134097Y-89576207D01*
X150080441Y-89622700D01*
X150063254Y-89629082D01*
X150036495Y-89636856D01*
X150036494Y-89636856D01*
X149893295Y-89721545D01*
X149893288Y-89721550D01*
X149775644Y-89839194D01*
X149774655Y-89840470D01*
X149773625Y-89841213D01*
X149770040Y-89844799D01*
X149769461Y-89844220D01*
X149717097Y-89882035D01*
X149646205Y-89885882D01*
X149584486Y-89850792D01*
X149575543Y-89840470D01*
X149574553Y-89839194D01*
X149456909Y-89721550D01*
X149456902Y-89721545D01*
X149313704Y-89636857D01*
X149153928Y-89590438D01*
X149116610Y-89587501D01*
X149116601Y-89587501D01*
X148853970Y-89587501D01*
X148785849Y-89567499D01*
X148764875Y-89550596D01*
X148188002Y-88973723D01*
X148153976Y-88911411D01*
X148151097Y-88884628D01*
X148151097Y-86238248D01*
X148171099Y-86170127D01*
X148210951Y-86131007D01*
X148213421Y-86129482D01*
X148228749Y-86120029D01*
X148354127Y-85994651D01*
X148447212Y-85843737D01*
X148502984Y-85675425D01*
X148513597Y-85571544D01*
X148513596Y-82620455D01*
X148502984Y-82516573D01*
X148447212Y-82348261D01*
X148354127Y-82197347D01*
X148354126Y-82197346D01*
X148354121Y-82197340D01*
X148228755Y-82071974D01*
X148228749Y-82071969D01*
X148161253Y-82030337D01*
X148077835Y-81978884D01*
X147993679Y-81950998D01*
X147909524Y-81923112D01*
X147909517Y-81923111D01*
X147805650Y-81912499D01*
X146979552Y-81912499D01*
X146875671Y-81923111D01*
X146707358Y-81978884D01*
X146556444Y-82071969D01*
X146556438Y-82071974D01*
X146431072Y-82197340D01*
X146431067Y-82197346D01*
X146337982Y-82348261D01*
X146282210Y-82516571D01*
X146282209Y-82516578D01*
X146271597Y-82620445D01*
X146271597Y-85571543D01*
X146282209Y-85675424D01*
X146337982Y-85843737D01*
X146431067Y-85994651D01*
X146431072Y-85994657D01*
X146556438Y-86120023D01*
X146556442Y-86120026D01*
X146556445Y-86120029D01*
X146556447Y-86120030D01*
X146574243Y-86131007D01*
X146621722Y-86183793D01*
X146634097Y-86238248D01*
X146634097Y-89325706D01*
X146663246Y-89472246D01*
X146663248Y-89472251D01*
X146720423Y-89610283D01*
X146720424Y-89610286D01*
X146732573Y-89628468D01*
X146753787Y-89696221D01*
X146735003Y-89764688D01*
X146697818Y-89803227D01*
X146692424Y-89806831D01*
X146692413Y-89806840D01*
X145750934Y-90748319D01*
X145750931Y-90748323D01*
X145709988Y-90809601D01*
X145709987Y-90809602D01*
X145667923Y-90872555D01*
X145610747Y-91010589D01*
X145610746Y-91010592D01*
X145581597Y-91157129D01*
X145581597Y-93629983D01*
X145561595Y-93698104D01*
X145544692Y-93719078D01*
X145535817Y-93727952D01*
X145535812Y-93727958D01*
X145445795Y-93873898D01*
X145391860Y-94036665D01*
X145381597Y-94137118D01*
X145381597Y-94734879D01*
X145381596Y-94734879D01*
X145391860Y-94835332D01*
X145391861Y-94835335D01*
X145445795Y-94998100D01*
X145535812Y-95144039D01*
X145539665Y-95150285D01*
X145537536Y-95151598D01*
X145559673Y-95206447D01*
X145546433Y-95276198D01*
X145541519Y-95284923D01*
X145455797Y-95423899D01*
X145401862Y-95586666D01*
X145391599Y-95687119D01*
X145391599Y-96002596D01*
X145371597Y-96070717D01*
X145317941Y-96117210D01*
X145247667Y-96127314D01*
X145183087Y-96097820D01*
X145176504Y-96091691D01*
X145079137Y-95994324D01*
X145079135Y-95994322D01*
X144930336Y-95894898D01*
X144785393Y-95834860D01*
X144765003Y-95826414D01*
X144765001Y-95826413D01*
X144765000Y-95826413D01*
X144676645Y-95808838D01*
X144589481Y-95791500D01*
X144589479Y-95791500D01*
X144410521Y-95791500D01*
X144410518Y-95791500D01*
X144279771Y-95817507D01*
X144235000Y-95826413D01*
X144234999Y-95826413D01*
X144234996Y-95826414D01*
X144069662Y-95894899D01*
X143920869Y-95994319D01*
X143920862Y-95994324D01*
X143794324Y-96120862D01*
X143794319Y-96120869D01*
X143694899Y-96269662D01*
X143626414Y-96434996D01*
X143591500Y-96610518D01*
X143591500Y-96789481D01*
X143599627Y-96830336D01*
X143626413Y-96965000D01*
X143694898Y-97130336D01*
X143694899Y-97130338D01*
X143694901Y-97130342D01*
X143697816Y-97135796D01*
X143696681Y-97136402D01*
X143715886Y-97197768D01*
X143697671Y-97264126D01*
X143697816Y-97264204D01*
X143697476Y-97264839D01*
X143697094Y-97266232D01*
X143694940Y-97269584D01*
X143694901Y-97269657D01*
X143626414Y-97434996D01*
X143591500Y-97610518D01*
X143591500Y-97610521D01*
X143591500Y-97789479D01*
X143611391Y-97889481D01*
X143626414Y-97965003D01*
X143683070Y-98101781D01*
X143690659Y-98172371D01*
X143683070Y-98198219D01*
X143626414Y-98334996D01*
X143591500Y-98510518D01*
X143591500Y-98689481D01*
X143602869Y-98746636D01*
X143617871Y-98822058D01*
X143626414Y-98865003D01*
X143643263Y-98905680D01*
X143694898Y-99030336D01*
X143694899Y-99030338D01*
X143694901Y-99030342D01*
X143697816Y-99035796D01*
X143696681Y-99036402D01*
X143715886Y-99097768D01*
X143697671Y-99164126D01*
X143697816Y-99164204D01*
X143697476Y-99164839D01*
X143697094Y-99166232D01*
X143694940Y-99169584D01*
X143694901Y-99169657D01*
X143626414Y-99334996D01*
X143626413Y-99334999D01*
X143626413Y-99335000D01*
X143618834Y-99373103D01*
X143591500Y-99510518D01*
X143591500Y-99689481D01*
X143608838Y-99776645D01*
X143617871Y-99822058D01*
X143626414Y-99865003D01*
X143694899Y-100030339D01*
X143728081Y-100080000D01*
X143749295Y-100147753D01*
X143730511Y-100216220D01*
X143728081Y-100220000D01*
X143694899Y-100269660D01*
X143626414Y-100434996D01*
X143626413Y-100434999D01*
X143626413Y-100435000D01*
X143618111Y-100476739D01*
X143591500Y-100610518D01*
X143591500Y-100789481D01*
X143608230Y-100873585D01*
X143626413Y-100965000D01*
X143694898Y-101130336D01*
X143794322Y-101279135D01*
X143920865Y-101405678D01*
X144069664Y-101505102D01*
X144235000Y-101573587D01*
X144410521Y-101608500D01*
X144410522Y-101608500D01*
X144589478Y-101608500D01*
X144589479Y-101608500D01*
X144765000Y-101573587D01*
X144930336Y-101505102D01*
X145079135Y-101405678D01*
X145205678Y-101279135D01*
X145305102Y-101130336D01*
X145359189Y-100999758D01*
X145403738Y-100944479D01*
X145471101Y-100922058D01*
X145539893Y-100939617D01*
X145588271Y-100991579D01*
X145601598Y-101047978D01*
X145601598Y-114648374D01*
X145581596Y-114716495D01*
X145527940Y-114762988D01*
X145457666Y-114773092D01*
X145393086Y-114743598D01*
X145370833Y-114718376D01*
X145324059Y-114648374D01*
X145305678Y-114620865D01*
X145179135Y-114494322D01*
X145030336Y-114394898D01*
X144913429Y-114346473D01*
X144865003Y-114326414D01*
X144865001Y-114326413D01*
X144865000Y-114326413D01*
X144776645Y-114308838D01*
X144689481Y-114291500D01*
X144689479Y-114291500D01*
X144510521Y-114291500D01*
X144510518Y-114291500D01*
X144379771Y-114317507D01*
X144335000Y-114326413D01*
X144334999Y-114326413D01*
X144334996Y-114326414D01*
X144169662Y-114394899D01*
X144020869Y-114494319D01*
X144020862Y-114494324D01*
X143894324Y-114620862D01*
X143894319Y-114620869D01*
X143799359Y-114762988D01*
X143794898Y-114769664D01*
X143784684Y-114794322D01*
X143726414Y-114934996D01*
X143691500Y-115110518D01*
X143691500Y-115289481D01*
X143702282Y-115343686D01*
X143726413Y-115465000D01*
X143794898Y-115630336D01*
X143894322Y-115779135D01*
X144020865Y-115905678D01*
X144169664Y-116005102D01*
X144335000Y-116073587D01*
X144510521Y-116108500D01*
X144510522Y-116108500D01*
X144689478Y-116108500D01*
X144689479Y-116108500D01*
X144865000Y-116073587D01*
X145030336Y-116005102D01*
X145179135Y-115905678D01*
X145305678Y-115779135D01*
X145365584Y-115689479D01*
X145370833Y-115681624D01*
X145425309Y-115636096D01*
X145495752Y-115627247D01*
X145559797Y-115657888D01*
X145597108Y-115718290D01*
X145601598Y-115751625D01*
X145601598Y-117652021D01*
X145581596Y-117720142D01*
X145527940Y-117766635D01*
X145457666Y-117776739D01*
X145393086Y-117747245D01*
X145359190Y-117700240D01*
X145305104Y-117569668D01*
X145305102Y-117569664D01*
X145244614Y-117479137D01*
X145205678Y-117420865D01*
X145079135Y-117294322D01*
X144930336Y-117194898D01*
X144777223Y-117131476D01*
X144765003Y-117126414D01*
X144765001Y-117126413D01*
X144765000Y-117126413D01*
X144676645Y-117108838D01*
X144589481Y-117091500D01*
X144589479Y-117091500D01*
X144410521Y-117091500D01*
X144410518Y-117091500D01*
X144279771Y-117117507D01*
X144235000Y-117126413D01*
X144234999Y-117126413D01*
X144234996Y-117126414D01*
X144069662Y-117194899D01*
X143920869Y-117294319D01*
X143920862Y-117294324D01*
X143794324Y-117420862D01*
X143794319Y-117420869D01*
X143755391Y-117479130D01*
X143694898Y-117569664D01*
X143680716Y-117603902D01*
X143626414Y-117734996D01*
X143626413Y-117734999D01*
X143626413Y-117735000D01*
X143618738Y-117773585D01*
X143591500Y-117910518D01*
X143591500Y-118089481D01*
X143607869Y-118171771D01*
X143626413Y-118265000D01*
X143694898Y-118430336D01*
X143794322Y-118579135D01*
X143920865Y-118705678D01*
X144069664Y-118805102D01*
X144235000Y-118873587D01*
X144410521Y-118908500D01*
X144410522Y-118908500D01*
X144589478Y-118908500D01*
X144589479Y-118908500D01*
X144765000Y-118873587D01*
X144930336Y-118805102D01*
X145079135Y-118705678D01*
X145205678Y-118579135D01*
X145305102Y-118430336D01*
X145359189Y-118299758D01*
X145403738Y-118244479D01*
X145471101Y-118222058D01*
X145539893Y-118239617D01*
X145588271Y-118291579D01*
X145601598Y-118347978D01*
X145601598Y-123239664D01*
X145581596Y-123307785D01*
X145527940Y-123354278D01*
X145457666Y-123364382D01*
X145447843Y-123362367D01*
X145447839Y-123362392D01*
X145443799Y-123361588D01*
X145215260Y-123331500D01*
X145215258Y-123331500D01*
X143984742Y-123331500D01*
X143984739Y-123331500D01*
X143756205Y-123361587D01*
X143742736Y-123365196D01*
X143533536Y-123421251D01*
X143336702Y-123502782D01*
X143320565Y-123509466D01*
X143320555Y-123509471D01*
X143120938Y-123624721D01*
X142938052Y-123765053D01*
X142938042Y-123765062D01*
X142775062Y-123928042D01*
X142775053Y-123928052D01*
X142634721Y-124110938D01*
X142519471Y-124310555D01*
X142519466Y-124310565D01*
X142519465Y-124310567D01*
X142473749Y-124420935D01*
X142431251Y-124523536D01*
X142371587Y-124746205D01*
X142341500Y-124974739D01*
X124858500Y-124974739D01*
X124858500Y-124954742D01*
X124828411Y-124726198D01*
X124768749Y-124503536D01*
X124680535Y-124290567D01*
X124565276Y-124090934D01*
X124426838Y-123910518D01*
X139091500Y-123910518D01*
X139091500Y-124089481D01*
X139101735Y-124140934D01*
X139126413Y-124265000D01*
X139194898Y-124430336D01*
X139294322Y-124579135D01*
X139420865Y-124705678D01*
X139569664Y-124805102D01*
X139735000Y-124873587D01*
X139910521Y-124908500D01*
X139910522Y-124908500D01*
X140089478Y-124908500D01*
X140089479Y-124908500D01*
X140265000Y-124873587D01*
X140430336Y-124805102D01*
X140579135Y-124705678D01*
X140705678Y-124579135D01*
X140805102Y-124430336D01*
X140873587Y-124265000D01*
X140908500Y-124089479D01*
X140908500Y-123910521D01*
X140873587Y-123735000D01*
X140805102Y-123569664D01*
X140705678Y-123420865D01*
X140579135Y-123294322D01*
X140430336Y-123194898D01*
X140313429Y-123146473D01*
X140265003Y-123126414D01*
X140265001Y-123126413D01*
X140265000Y-123126413D01*
X140176645Y-123108838D01*
X140089481Y-123091500D01*
X140089479Y-123091500D01*
X139910521Y-123091500D01*
X139910518Y-123091500D01*
X139779771Y-123117507D01*
X139735000Y-123126413D01*
X139734999Y-123126413D01*
X139734996Y-123126414D01*
X139569662Y-123194899D01*
X139420869Y-123294319D01*
X139420862Y-123294324D01*
X139294324Y-123420862D01*
X139294319Y-123420869D01*
X139194899Y-123569662D01*
X139126414Y-123734996D01*
X139126413Y-123734999D01*
X139126413Y-123735000D01*
X139124412Y-123745062D01*
X139091500Y-123910518D01*
X124426838Y-123910518D01*
X124424947Y-123908053D01*
X124424946Y-123908052D01*
X124424937Y-123908042D01*
X124261957Y-123745062D01*
X124261947Y-123745053D01*
X124216026Y-123709817D01*
X124079066Y-123604724D01*
X124074376Y-123602016D01*
X123879444Y-123489471D01*
X123879439Y-123489468D01*
X123879433Y-123489465D01*
X123666464Y-123401251D01*
X123443802Y-123341589D01*
X123443800Y-123341588D01*
X123443794Y-123341587D01*
X123215260Y-123311500D01*
X123215258Y-123311500D01*
X121984742Y-123311500D01*
X121984739Y-123311500D01*
X121756205Y-123341587D01*
X121681557Y-123361589D01*
X121533536Y-123401251D01*
X121412825Y-123451251D01*
X121320565Y-123489466D01*
X121320554Y-123489471D01*
X121297500Y-123502782D01*
X121228505Y-123519520D01*
X121161413Y-123496300D01*
X121117526Y-123440492D01*
X121108500Y-123393663D01*
X121108500Y-123210522D01*
X121108499Y-123210518D01*
X121073587Y-123035000D01*
X121073585Y-123034994D01*
X121039435Y-122952549D01*
X121039434Y-122952547D01*
X121022025Y-122910518D01*
X130391500Y-122910518D01*
X130391500Y-123089481D01*
X130398847Y-123126414D01*
X130421373Y-123239664D01*
X130426414Y-123265003D01*
X130444135Y-123307785D01*
X130494898Y-123430336D01*
X130594322Y-123579135D01*
X130720865Y-123705678D01*
X130869664Y-123805102D01*
X131035000Y-123873587D01*
X131210521Y-123908500D01*
X131210522Y-123908500D01*
X131389478Y-123908500D01*
X131389479Y-123908500D01*
X131565000Y-123873587D01*
X131730336Y-123805102D01*
X131879135Y-123705678D01*
X132005678Y-123579135D01*
X132105102Y-123430336D01*
X132173587Y-123265000D01*
X132208500Y-123089479D01*
X132208500Y-122910521D01*
X132208499Y-122910518D01*
X135091500Y-122910518D01*
X135091500Y-123089481D01*
X135098847Y-123126414D01*
X135121373Y-123239664D01*
X135126414Y-123265003D01*
X135144135Y-123307785D01*
X135194898Y-123430336D01*
X135294322Y-123579135D01*
X135420865Y-123705678D01*
X135569664Y-123805102D01*
X135735000Y-123873587D01*
X135910521Y-123908500D01*
X135910522Y-123908500D01*
X136089478Y-123908500D01*
X136089479Y-123908500D01*
X136265000Y-123873587D01*
X136430336Y-123805102D01*
X136579135Y-123705678D01*
X136705678Y-123579135D01*
X136805102Y-123430336D01*
X136873587Y-123265000D01*
X136908500Y-123089479D01*
X136908500Y-122910521D01*
X136873587Y-122735000D01*
X136805102Y-122569664D01*
X136705678Y-122420865D01*
X136579135Y-122294322D01*
X136430336Y-122194898D01*
X136313429Y-122146473D01*
X136265003Y-122126414D01*
X136265001Y-122126413D01*
X136265000Y-122126413D01*
X136176645Y-122108838D01*
X136089481Y-122091500D01*
X136089479Y-122091500D01*
X135910521Y-122091500D01*
X135910518Y-122091500D01*
X135779771Y-122117507D01*
X135735000Y-122126413D01*
X135734999Y-122126413D01*
X135734996Y-122126414D01*
X135569662Y-122194899D01*
X135420869Y-122294319D01*
X135420862Y-122294324D01*
X135294324Y-122420862D01*
X135294319Y-122420869D01*
X135227375Y-122521059D01*
X135194898Y-122569664D01*
X135184684Y-122594322D01*
X135126414Y-122734996D01*
X135091500Y-122910518D01*
X132208499Y-122910518D01*
X132173587Y-122735000D01*
X132105102Y-122569664D01*
X132005678Y-122420865D01*
X131879135Y-122294322D01*
X131730336Y-122194898D01*
X131613429Y-122146473D01*
X131565003Y-122126414D01*
X131565001Y-122126413D01*
X131565000Y-122126413D01*
X131476645Y-122108838D01*
X131389481Y-122091500D01*
X131389479Y-122091500D01*
X131210521Y-122091500D01*
X131210518Y-122091500D01*
X131079771Y-122117507D01*
X131035000Y-122126413D01*
X131034999Y-122126413D01*
X131034996Y-122126414D01*
X130869662Y-122194899D01*
X130720869Y-122294319D01*
X130720862Y-122294324D01*
X130594324Y-122420862D01*
X130594319Y-122420869D01*
X130527375Y-122521059D01*
X130494898Y-122569664D01*
X130484684Y-122594322D01*
X130426414Y-122734996D01*
X130391500Y-122910518D01*
X121022025Y-122910518D01*
X121005104Y-122869669D01*
X121005102Y-122869664D01*
X121005101Y-122869662D01*
X120905678Y-122720865D01*
X120779135Y-122594322D01*
X120630336Y-122494898D01*
X120513429Y-122446473D01*
X120465003Y-122426414D01*
X120465001Y-122426413D01*
X120465000Y-122426413D01*
X120376645Y-122408838D01*
X120289481Y-122391500D01*
X120289479Y-122391500D01*
X120110521Y-122391500D01*
X120110518Y-122391500D01*
X119979771Y-122417507D01*
X119935000Y-122426413D01*
X119934999Y-122426413D01*
X119934996Y-122426414D01*
X119769662Y-122494899D01*
X119620869Y-122594319D01*
X119620862Y-122594324D01*
X119494324Y-122720862D01*
X119494319Y-122720869D01*
X119394899Y-122869662D01*
X119326414Y-123034996D01*
X119291500Y-123210518D01*
X114201721Y-123210518D01*
X114150185Y-123109373D01*
X114010620Y-122917278D01*
X114010617Y-122917275D01*
X114010615Y-122917272D01*
X113842727Y-122749384D01*
X113842724Y-122749382D01*
X113842722Y-122749380D01*
X113650627Y-122609815D01*
X113439063Y-122502018D01*
X113439060Y-122502017D01*
X113439058Y-122502016D01*
X113213246Y-122428645D01*
X113213242Y-122428644D01*
X113213241Y-122428644D01*
X112978722Y-122391500D01*
X112741278Y-122391500D01*
X112520839Y-122426414D01*
X112506753Y-122428645D01*
X112280941Y-122502016D01*
X112280935Y-122502019D01*
X112069369Y-122609817D01*
X111877275Y-122749382D01*
X111877272Y-122749384D01*
X111709384Y-122917272D01*
X111709382Y-122917275D01*
X111569817Y-123109369D01*
X111462019Y-123320935D01*
X111462016Y-123320941D01*
X111388645Y-123546753D01*
X111388644Y-123546758D01*
X111388644Y-123546759D01*
X111351500Y-123781278D01*
X110700500Y-123781278D01*
X110700500Y-119881278D01*
X111491500Y-119881278D01*
X111491500Y-120118722D01*
X111515407Y-120269664D01*
X111528645Y-120353246D01*
X111555209Y-120435000D01*
X111602018Y-120579063D01*
X111709815Y-120790627D01*
X111849380Y-120982722D01*
X111849382Y-120982724D01*
X111849384Y-120982727D01*
X112017272Y-121150615D01*
X112017275Y-121150617D01*
X112017278Y-121150620D01*
X112209373Y-121290185D01*
X112420937Y-121397982D01*
X112646759Y-121471356D01*
X112881278Y-121508500D01*
X112881281Y-121508500D01*
X113118719Y-121508500D01*
X113118722Y-121508500D01*
X113353241Y-121471356D01*
X113579063Y-121397982D01*
X113790627Y-121290185D01*
X113982722Y-121150620D01*
X114150620Y-120982722D01*
X114290185Y-120790627D01*
X114397982Y-120579063D01*
X114471356Y-120353241D01*
X114508500Y-120118722D01*
X114508500Y-119881278D01*
X114471356Y-119646759D01*
X114397982Y-119420937D01*
X114290185Y-119209373D01*
X114150620Y-119017278D01*
X114150617Y-119017275D01*
X114150615Y-119017272D01*
X113982727Y-118849384D01*
X113982724Y-118849382D01*
X113982722Y-118849380D01*
X113790627Y-118709815D01*
X113579063Y-118602018D01*
X113579060Y-118602017D01*
X113579058Y-118602016D01*
X113353246Y-118528645D01*
X113353242Y-118528644D01*
X113353241Y-118528644D01*
X113118722Y-118491500D01*
X112881278Y-118491500D01*
X112646759Y-118528644D01*
X112646753Y-118528645D01*
X112420941Y-118602016D01*
X112420935Y-118602019D01*
X112209369Y-118709817D01*
X112017275Y-118849382D01*
X112017272Y-118849384D01*
X111849384Y-119017272D01*
X111849382Y-119017275D01*
X111709817Y-119209369D01*
X111602019Y-119420935D01*
X111602016Y-119420941D01*
X111528645Y-119646753D01*
X111528644Y-119646758D01*
X111528644Y-119646759D01*
X111491500Y-119881278D01*
X110700500Y-119881278D01*
X110700500Y-118108832D01*
X110720502Y-118040711D01*
X110725690Y-118033245D01*
X111642735Y-116810518D01*
X117391500Y-116810518D01*
X117391500Y-116810521D01*
X117391500Y-116989479D01*
X117426413Y-117165000D01*
X117494898Y-117330336D01*
X117594322Y-117479135D01*
X117720865Y-117605678D01*
X117869664Y-117705102D01*
X118035000Y-117773587D01*
X118210521Y-117808500D01*
X118210522Y-117808500D01*
X118389478Y-117808500D01*
X118389479Y-117808500D01*
X118565000Y-117773587D01*
X118730336Y-117705102D01*
X118879135Y-117605678D01*
X119005678Y-117479135D01*
X119105102Y-117330336D01*
X119173587Y-117165000D01*
X119208500Y-116989479D01*
X119208500Y-116810521D01*
X119208102Y-116808521D01*
X128441500Y-116808521D01*
X128441500Y-117091478D01*
X128478431Y-117371998D01*
X128478432Y-117372004D01*
X128478433Y-117372006D01*
X128551666Y-117645316D01*
X128659947Y-117906728D01*
X128659948Y-117906729D01*
X128659953Y-117906740D01*
X128801424Y-118151776D01*
X128973667Y-118376245D01*
X128973686Y-118376266D01*
X129173733Y-118576313D01*
X129173743Y-118576322D01*
X129173749Y-118576328D01*
X129173752Y-118576330D01*
X129173754Y-118576332D01*
X129398223Y-118748575D01*
X129643259Y-118890046D01*
X129643263Y-118890047D01*
X129643272Y-118890053D01*
X129904684Y-118998334D01*
X130177994Y-119071567D01*
X130178000Y-119071567D01*
X130178001Y-119071568D01*
X130210187Y-119075805D01*
X130458524Y-119108500D01*
X130458531Y-119108500D01*
X130741469Y-119108500D01*
X130741476Y-119108500D01*
X131022006Y-119071567D01*
X131295316Y-118998334D01*
X131556728Y-118890053D01*
X131694487Y-118810518D01*
X140891500Y-118810518D01*
X140891500Y-118989481D01*
X140901218Y-119038334D01*
X140926413Y-119165000D01*
X140994898Y-119330336D01*
X141094322Y-119479135D01*
X141220865Y-119605678D01*
X141369664Y-119705102D01*
X141535000Y-119773587D01*
X141710521Y-119808500D01*
X141710522Y-119808500D01*
X141889478Y-119808500D01*
X141889479Y-119808500D01*
X142065000Y-119773587D01*
X142230336Y-119705102D01*
X142379135Y-119605678D01*
X142505678Y-119479135D01*
X142605102Y-119330336D01*
X142673587Y-119165000D01*
X142708500Y-118989479D01*
X142708500Y-118810521D01*
X142673587Y-118635000D01*
X142605102Y-118469664D01*
X142505678Y-118320865D01*
X142379135Y-118194322D01*
X142230336Y-118094898D01*
X142099518Y-118040711D01*
X142065003Y-118026414D01*
X142065001Y-118026413D01*
X142065000Y-118026413D01*
X141976645Y-118008838D01*
X141889481Y-117991500D01*
X141889479Y-117991500D01*
X141710521Y-117991500D01*
X141710518Y-117991500D01*
X141596153Y-118014249D01*
X141535000Y-118026413D01*
X141534999Y-118026413D01*
X141534996Y-118026414D01*
X141437418Y-118066833D01*
X141382752Y-118089477D01*
X141369662Y-118094899D01*
X141220869Y-118194319D01*
X141220862Y-118194324D01*
X141094324Y-118320862D01*
X141094319Y-118320869D01*
X140994899Y-118469662D01*
X140926414Y-118634996D01*
X140891500Y-118810518D01*
X131694487Y-118810518D01*
X131801771Y-118748578D01*
X131859385Y-118704368D01*
X131859387Y-118704368D01*
X131949788Y-118635000D01*
X132026251Y-118576328D01*
X132226328Y-118376251D01*
X132311694Y-118265000D01*
X132398575Y-118151776D01*
X132470953Y-118026414D01*
X132540053Y-117906728D01*
X132648334Y-117645316D01*
X132721567Y-117372006D01*
X132758500Y-117091476D01*
X132758500Y-116808524D01*
X132721567Y-116527994D01*
X132648334Y-116254684D01*
X132540053Y-115993272D01*
X132540047Y-115993263D01*
X132540046Y-115993259D01*
X132398575Y-115748223D01*
X132226332Y-115523754D01*
X132226330Y-115523752D01*
X132226328Y-115523749D01*
X132226322Y-115523743D01*
X132226313Y-115523733D01*
X132113098Y-115410518D01*
X136091500Y-115410518D01*
X136091500Y-115589481D01*
X136105107Y-115657888D01*
X136111391Y-115689481D01*
X136126414Y-115765003D01*
X136140177Y-115798229D01*
X136194898Y-115930336D01*
X136294322Y-116079135D01*
X136420865Y-116205678D01*
X136569664Y-116305102D01*
X136735000Y-116373587D01*
X136910521Y-116408500D01*
X136910522Y-116408500D01*
X137089478Y-116408500D01*
X137089479Y-116408500D01*
X137265000Y-116373587D01*
X137430336Y-116305102D01*
X137579135Y-116205678D01*
X137705678Y-116079135D01*
X137805102Y-115930336D01*
X137873587Y-115765000D01*
X137908500Y-115589479D01*
X137908500Y-115410521D01*
X137873587Y-115235000D01*
X137805102Y-115069664D01*
X137705678Y-114920865D01*
X137579135Y-114794322D01*
X137430336Y-114694898D01*
X137313429Y-114646473D01*
X137265003Y-114626414D01*
X137265001Y-114626413D01*
X137265000Y-114626413D01*
X137176645Y-114608838D01*
X137089481Y-114591500D01*
X137089479Y-114591500D01*
X136910521Y-114591500D01*
X136910518Y-114591500D01*
X136794745Y-114614529D01*
X136735000Y-114626413D01*
X136734999Y-114626413D01*
X136734996Y-114626414D01*
X136603902Y-114680716D01*
X136577868Y-114691500D01*
X136569662Y-114694899D01*
X136420869Y-114794319D01*
X136420862Y-114794324D01*
X136294324Y-114920862D01*
X136294319Y-114920869D01*
X136194899Y-115069662D01*
X136126414Y-115234996D01*
X136091500Y-115410518D01*
X132113098Y-115410518D01*
X132026266Y-115323686D01*
X132026245Y-115323667D01*
X131801776Y-115151424D01*
X131556740Y-115009953D01*
X131556732Y-115009949D01*
X131556728Y-115009947D01*
X131295316Y-114901666D01*
X131022006Y-114828433D01*
X131022004Y-114828432D01*
X131021998Y-114828431D01*
X130741478Y-114791500D01*
X130741476Y-114791500D01*
X130458524Y-114791500D01*
X130458521Y-114791500D01*
X130178001Y-114828431D01*
X129904684Y-114901666D01*
X129643270Y-115009948D01*
X129643259Y-115009953D01*
X129398223Y-115151424D01*
X129173754Y-115323667D01*
X129173733Y-115323686D01*
X128973686Y-115523733D01*
X128973667Y-115523754D01*
X128801424Y-115748223D01*
X128659953Y-115993259D01*
X128659948Y-115993270D01*
X128659947Y-115993272D01*
X128615707Y-116100077D01*
X128551666Y-116254684D01*
X128478431Y-116528001D01*
X128441500Y-116808521D01*
X119208102Y-116808521D01*
X119173587Y-116635000D01*
X119105102Y-116469664D01*
X119005678Y-116320865D01*
X118879135Y-116194322D01*
X118730336Y-116094898D01*
X118605696Y-116043270D01*
X118565003Y-116026414D01*
X118565001Y-116026413D01*
X118565000Y-116026413D01*
X118476645Y-116008838D01*
X118389481Y-115991500D01*
X118389479Y-115991500D01*
X118210521Y-115991500D01*
X118210518Y-115991500D01*
X118079771Y-116017507D01*
X118035000Y-116026413D01*
X118034999Y-116026413D01*
X118034996Y-116026414D01*
X117869662Y-116094899D01*
X117720869Y-116194319D01*
X117720862Y-116194324D01*
X117594324Y-116320862D01*
X117594319Y-116320869D01*
X117494899Y-116469662D01*
X117426414Y-116634996D01*
X117391500Y-116810518D01*
X111642735Y-116810518D01*
X112151848Y-116131701D01*
X112169976Y-116113574D01*
X112175566Y-116100077D01*
X112184329Y-116088394D01*
X112188468Y-116072237D01*
X112194112Y-116055302D01*
X112200500Y-116039882D01*
X112200500Y-116025275D01*
X112204125Y-116011126D01*
X112200500Y-115985750D01*
X112200500Y-115510518D01*
X126391500Y-115510518D01*
X126391500Y-115689481D01*
X126426414Y-115865003D01*
X126443263Y-115905680D01*
X126494898Y-116030336D01*
X126594322Y-116179135D01*
X126720865Y-116305678D01*
X126869664Y-116405102D01*
X127035000Y-116473587D01*
X127210521Y-116508500D01*
X127210522Y-116508500D01*
X127389478Y-116508500D01*
X127389479Y-116508500D01*
X127565000Y-116473587D01*
X127730336Y-116405102D01*
X127879135Y-116305678D01*
X128005678Y-116179135D01*
X128105102Y-116030336D01*
X128173587Y-115865000D01*
X128208500Y-115689479D01*
X128208500Y-115510521D01*
X128173587Y-115335000D01*
X128105102Y-115169664D01*
X128005678Y-115020865D01*
X127879135Y-114894322D01*
X127730336Y-114794898D01*
X127606488Y-114743598D01*
X127565003Y-114726414D01*
X127565001Y-114726413D01*
X127565000Y-114726413D01*
X127476645Y-114708838D01*
X127389481Y-114691500D01*
X127389479Y-114691500D01*
X127210521Y-114691500D01*
X127210518Y-114691500D01*
X127079771Y-114717507D01*
X127035000Y-114726413D01*
X127034999Y-114726413D01*
X127034996Y-114726414D01*
X126922308Y-114773092D01*
X126877868Y-114791500D01*
X126869662Y-114794899D01*
X126720869Y-114894319D01*
X126720862Y-114894324D01*
X126594324Y-115020862D01*
X126594319Y-115020869D01*
X126507086Y-115151424D01*
X126494898Y-115169664D01*
X126484684Y-115194322D01*
X126426414Y-115334996D01*
X126391500Y-115510518D01*
X112200500Y-115510518D01*
X112200500Y-111410518D01*
X128891500Y-111410518D01*
X128891500Y-111410521D01*
X128891500Y-111589479D01*
X128926413Y-111765000D01*
X128994898Y-111930336D01*
X129094322Y-112079135D01*
X129220865Y-112205678D01*
X129369664Y-112305102D01*
X129535000Y-112373587D01*
X129710521Y-112408500D01*
X129710522Y-112408500D01*
X129889478Y-112408500D01*
X129889479Y-112408500D01*
X130065000Y-112373587D01*
X130230336Y-112305102D01*
X130379135Y-112205678D01*
X130505678Y-112079135D01*
X130605102Y-111930336D01*
X130673587Y-111765000D01*
X130708500Y-111589479D01*
X130708500Y-111410521D01*
X130673587Y-111235000D01*
X130605102Y-111069664D01*
X130505678Y-110920865D01*
X130379135Y-110794322D01*
X130230336Y-110694898D01*
X130113429Y-110646473D01*
X130065003Y-110626414D01*
X130065001Y-110626413D01*
X130065000Y-110626413D01*
X129976645Y-110608838D01*
X129889481Y-110591500D01*
X129889479Y-110591500D01*
X129710521Y-110591500D01*
X129710518Y-110591500D01*
X129579771Y-110617507D01*
X129535000Y-110626413D01*
X129534999Y-110626413D01*
X129534996Y-110626414D01*
X129369662Y-110694899D01*
X129220869Y-110794319D01*
X129220862Y-110794324D01*
X129094324Y-110920862D01*
X129094319Y-110920869D01*
X128997033Y-111066469D01*
X128994898Y-111069664D01*
X128981080Y-111103024D01*
X128926414Y-111234996D01*
X128891500Y-111410518D01*
X112200500Y-111410518D01*
X112200500Y-109310518D01*
X119791500Y-109310518D01*
X119791500Y-109489481D01*
X119795283Y-109508499D01*
X119826413Y-109665000D01*
X119894898Y-109830336D01*
X119994322Y-109979135D01*
X120120865Y-110105678D01*
X120269664Y-110205102D01*
X120435000Y-110273587D01*
X120610521Y-110308500D01*
X120610522Y-110308500D01*
X120789478Y-110308500D01*
X120789479Y-110308500D01*
X120965000Y-110273587D01*
X121130336Y-110205102D01*
X121279135Y-110105678D01*
X121405678Y-109979135D01*
X121505102Y-109830336D01*
X121573587Y-109665000D01*
X121608500Y-109489479D01*
X121608500Y-109310521D01*
X121573587Y-109135000D01*
X121505102Y-108969664D01*
X121405678Y-108820865D01*
X121279135Y-108694322D01*
X121130336Y-108594898D01*
X121013429Y-108546473D01*
X120965003Y-108526414D01*
X120965001Y-108526413D01*
X120965000Y-108526413D01*
X120876645Y-108508838D01*
X120789481Y-108491500D01*
X120789479Y-108491500D01*
X120610521Y-108491500D01*
X120610518Y-108491500D01*
X120491191Y-108515236D01*
X120435000Y-108526413D01*
X120434999Y-108526413D01*
X120434996Y-108526414D01*
X120269662Y-108594899D01*
X120120869Y-108694319D01*
X120120862Y-108694324D01*
X119994324Y-108820862D01*
X119994319Y-108820869D01*
X119894899Y-108969662D01*
X119826414Y-109134996D01*
X119791500Y-109310518D01*
X112200500Y-109310518D01*
X112200500Y-80310518D01*
X152691500Y-80310518D01*
X152691500Y-80310521D01*
X152691500Y-80489479D01*
X152726413Y-80665000D01*
X152794898Y-80830336D01*
X152894322Y-80979135D01*
X153020865Y-81105678D01*
X153169664Y-81205102D01*
X153335000Y-81273587D01*
X153510521Y-81308500D01*
X153510522Y-81308500D01*
X153689478Y-81308500D01*
X153689479Y-81308500D01*
X153865000Y-81273587D01*
X154030336Y-81205102D01*
X154179135Y-81105678D01*
X154305678Y-80979135D01*
X154405102Y-80830336D01*
X154473587Y-80665000D01*
X154508500Y-80489479D01*
X154508500Y-80310521D01*
X154473587Y-80135000D01*
X154405102Y-79969664D01*
X154305678Y-79820865D01*
X154179135Y-79694322D01*
X154030336Y-79594898D01*
X153913429Y-79546473D01*
X153865003Y-79526414D01*
X153865001Y-79526413D01*
X153865000Y-79526413D01*
X153776645Y-79508838D01*
X153689481Y-79491500D01*
X153689479Y-79491500D01*
X153510521Y-79491500D01*
X153510518Y-79491500D01*
X153379771Y-79517507D01*
X153335000Y-79526413D01*
X153334999Y-79526413D01*
X153334996Y-79526414D01*
X153203902Y-79580716D01*
X153182752Y-79589477D01*
X153169662Y-79594899D01*
X153020869Y-79694319D01*
X153020862Y-79694324D01*
X152894324Y-79820862D01*
X152894319Y-79820869D01*
X152818060Y-79935000D01*
X152794898Y-79969664D01*
X152784684Y-79994322D01*
X152726414Y-80134996D01*
X152691500Y-80310518D01*
X112200500Y-80310518D01*
X112200500Y-78210518D01*
X152891500Y-78210518D01*
X152891500Y-78389481D01*
X152907451Y-78469670D01*
X152924704Y-78556409D01*
X152926414Y-78565003D01*
X152937390Y-78591500D01*
X152994898Y-78730336D01*
X153094322Y-78879135D01*
X153220865Y-79005678D01*
X153369664Y-79105102D01*
X153535000Y-79173587D01*
X153710521Y-79208500D01*
X153710522Y-79208500D01*
X153889478Y-79208500D01*
X153889479Y-79208500D01*
X154065000Y-79173587D01*
X154230336Y-79105102D01*
X154379135Y-79005678D01*
X154505678Y-78879135D01*
X154605102Y-78730336D01*
X154673587Y-78565000D01*
X154708500Y-78389479D01*
X154708500Y-78210521D01*
X154673587Y-78035000D01*
X154605102Y-77869664D01*
X154505678Y-77720865D01*
X154379135Y-77594322D01*
X154230336Y-77494898D01*
X154113429Y-77446473D01*
X154065003Y-77426414D01*
X154065001Y-77426413D01*
X154065000Y-77426413D01*
X153976645Y-77408838D01*
X153889481Y-77391500D01*
X153889479Y-77391500D01*
X153710521Y-77391500D01*
X153710518Y-77391500D01*
X153579771Y-77417507D01*
X153535000Y-77426413D01*
X153534999Y-77426413D01*
X153534996Y-77426414D01*
X153369662Y-77494899D01*
X153220869Y-77594319D01*
X153220862Y-77594324D01*
X153094324Y-77720862D01*
X153094319Y-77720869D01*
X152994899Y-77869662D01*
X152926414Y-78034996D01*
X152926413Y-78034999D01*
X152926413Y-78035000D01*
X152917507Y-78079771D01*
X152891500Y-78210518D01*
X112200500Y-78210518D01*
X112200500Y-73810518D01*
X152691500Y-73810518D01*
X152691500Y-73989481D01*
X152726414Y-74165003D01*
X152743263Y-74205680D01*
X152794898Y-74330336D01*
X152894322Y-74479135D01*
X153020865Y-74605678D01*
X153169664Y-74705102D01*
X153335000Y-74773587D01*
X153510521Y-74808500D01*
X153510522Y-74808500D01*
X153689478Y-74808500D01*
X153689479Y-74808500D01*
X153865000Y-74773587D01*
X154030336Y-74705102D01*
X154179135Y-74605678D01*
X154305678Y-74479135D01*
X154405102Y-74330336D01*
X154473587Y-74165000D01*
X154508500Y-73989479D01*
X154508500Y-73810521D01*
X154473587Y-73635000D01*
X154405102Y-73469664D01*
X154305678Y-73320865D01*
X154179135Y-73194322D01*
X154030336Y-73094898D01*
X153913429Y-73046473D01*
X153865003Y-73026414D01*
X153865001Y-73026413D01*
X153865000Y-73026413D01*
X153776645Y-73008838D01*
X153689481Y-72991500D01*
X153689479Y-72991500D01*
X153510521Y-72991500D01*
X153510518Y-72991500D01*
X153379771Y-73017507D01*
X153335000Y-73026413D01*
X153334999Y-73026413D01*
X153334996Y-73026414D01*
X153169662Y-73094899D01*
X153020869Y-73194319D01*
X153020862Y-73194324D01*
X152894324Y-73320862D01*
X152894319Y-73320869D01*
X152818060Y-73435000D01*
X152794898Y-73469664D01*
X152780716Y-73503902D01*
X152726414Y-73634996D01*
X152691500Y-73810518D01*
X112200500Y-73810518D01*
X112200500Y-69010518D01*
X152691500Y-69010518D01*
X152691500Y-69189481D01*
X152708838Y-69276645D01*
X152726413Y-69365000D01*
X152794898Y-69530336D01*
X152894322Y-69679135D01*
X153020865Y-69805678D01*
X153169664Y-69905102D01*
X153335000Y-69973587D01*
X153510521Y-70008500D01*
X153510522Y-70008500D01*
X153689478Y-70008500D01*
X153689479Y-70008500D01*
X153865000Y-69973587D01*
X154030336Y-69905102D01*
X154179135Y-69805678D01*
X154305678Y-69679135D01*
X154405102Y-69530336D01*
X154473587Y-69365000D01*
X154504315Y-69210518D01*
X157191500Y-69210518D01*
X157191500Y-69210521D01*
X157191500Y-69389479D01*
X157226413Y-69565000D01*
X157294898Y-69730336D01*
X157394322Y-69879135D01*
X157520865Y-70005678D01*
X157669664Y-70105102D01*
X157835000Y-70173587D01*
X158010521Y-70208500D01*
X158010522Y-70208500D01*
X158189478Y-70208500D01*
X158189479Y-70208500D01*
X158365000Y-70173587D01*
X158530336Y-70105102D01*
X158679135Y-70005678D01*
X158805678Y-69879135D01*
X158905102Y-69730336D01*
X158973587Y-69565000D01*
X159008500Y-69389479D01*
X159008500Y-69210521D01*
X158973587Y-69035000D01*
X158905102Y-68869664D01*
X158805678Y-68720865D01*
X158679135Y-68594322D01*
X158530336Y-68494898D01*
X158413429Y-68446473D01*
X158365003Y-68426414D01*
X158365001Y-68426413D01*
X158365000Y-68426413D01*
X158276645Y-68408838D01*
X158189481Y-68391500D01*
X158189479Y-68391500D01*
X158010521Y-68391500D01*
X158010518Y-68391500D01*
X157879771Y-68417507D01*
X157835000Y-68426413D01*
X157834999Y-68426413D01*
X157834996Y-68426414D01*
X157669662Y-68494899D01*
X157520869Y-68594319D01*
X157520862Y-68594324D01*
X157394324Y-68720862D01*
X157394319Y-68720869D01*
X157294899Y-68869662D01*
X157226414Y-69034996D01*
X157191500Y-69210518D01*
X154504315Y-69210518D01*
X154508500Y-69189479D01*
X154508500Y-69010521D01*
X154473587Y-68835000D01*
X154405102Y-68669664D01*
X154305678Y-68520865D01*
X154179135Y-68394322D01*
X154030336Y-68294898D01*
X153913429Y-68246473D01*
X153865003Y-68226414D01*
X153865001Y-68226413D01*
X153865000Y-68226413D01*
X153776645Y-68208838D01*
X153689481Y-68191500D01*
X153689479Y-68191500D01*
X153510521Y-68191500D01*
X153510518Y-68191500D01*
X153379771Y-68217507D01*
X153335000Y-68226413D01*
X153334999Y-68226413D01*
X153334996Y-68226414D01*
X153169662Y-68294899D01*
X153020869Y-68394319D01*
X153020862Y-68394324D01*
X152894324Y-68520862D01*
X152894319Y-68520869D01*
X152794899Y-68669662D01*
X152726414Y-68834996D01*
X152691500Y-69010518D01*
X112200500Y-69010518D01*
X112200500Y-66421020D01*
X162092006Y-66421020D01*
X162092006Y-68518319D01*
X162098515Y-68578866D01*
X162098517Y-68578874D01*
X162149616Y-68715872D01*
X162149618Y-68715877D01*
X162237244Y-68832931D01*
X162354298Y-68920557D01*
X162354300Y-68920558D01*
X162354302Y-68920559D01*
X162413381Y-68942594D01*
X162491301Y-68971658D01*
X162491309Y-68971660D01*
X162551856Y-68978169D01*
X162551861Y-68978169D01*
X162551868Y-68978170D01*
X162551874Y-68978170D01*
X164849138Y-68978170D01*
X164849144Y-68978170D01*
X164849151Y-68978169D01*
X164849155Y-68978169D01*
X164909702Y-68971660D01*
X164909705Y-68971659D01*
X164909707Y-68971659D01*
X165046710Y-68920559D01*
X165163767Y-68832931D01*
X165251395Y-68715874D01*
X165302495Y-68578871D01*
X165308732Y-68520862D01*
X165309005Y-68518319D01*
X165309006Y-68518302D01*
X165309006Y-66421037D01*
X165309005Y-66421020D01*
X165302496Y-66360473D01*
X165302494Y-66360465D01*
X165251395Y-66223467D01*
X165251393Y-66223462D01*
X165163767Y-66106408D01*
X165046713Y-66018782D01*
X165046708Y-66018780D01*
X164909710Y-65967681D01*
X164909702Y-65967679D01*
X164849155Y-65961170D01*
X164849144Y-65961170D01*
X162551868Y-65961170D01*
X162551856Y-65961170D01*
X162491309Y-65967679D01*
X162491301Y-65967681D01*
X162354303Y-66018780D01*
X162354298Y-66018782D01*
X162237244Y-66106408D01*
X162149618Y-66223462D01*
X162149616Y-66223467D01*
X162098517Y-66360465D01*
X162098515Y-66360473D01*
X162092006Y-66421020D01*
X112200500Y-66421020D01*
X112200500Y-64910518D01*
X149091500Y-64910518D01*
X149091500Y-64910521D01*
X149091500Y-65089479D01*
X149126413Y-65265000D01*
X149194898Y-65430336D01*
X149294322Y-65579135D01*
X149420865Y-65705678D01*
X149569664Y-65805102D01*
X149735000Y-65873587D01*
X149910521Y-65908500D01*
X149910522Y-65908500D01*
X150089478Y-65908500D01*
X150089479Y-65908500D01*
X150265000Y-65873587D01*
X150430336Y-65805102D01*
X150579135Y-65705678D01*
X150705678Y-65579135D01*
X150805102Y-65430336D01*
X150873587Y-65265000D01*
X150908500Y-65089479D01*
X150908500Y-64910521D01*
X150873587Y-64735000D01*
X150805102Y-64569664D01*
X150705678Y-64420865D01*
X150579135Y-64294322D01*
X150430336Y-64194898D01*
X150313429Y-64146473D01*
X150265003Y-64126414D01*
X150265001Y-64126413D01*
X150265000Y-64126413D01*
X150176645Y-64108838D01*
X150089481Y-64091500D01*
X150089479Y-64091500D01*
X149910521Y-64091500D01*
X149910518Y-64091500D01*
X149798345Y-64113813D01*
X149735000Y-64126413D01*
X149734999Y-64126413D01*
X149734996Y-64126414D01*
X149569662Y-64194899D01*
X149420869Y-64294319D01*
X149420862Y-64294324D01*
X149294324Y-64420862D01*
X149294319Y-64420869D01*
X149194899Y-64569662D01*
X149126414Y-64734996D01*
X149091500Y-64910518D01*
X112200500Y-64910518D01*
X112200500Y-61983285D01*
X112220502Y-61915164D01*
X112274158Y-61868671D01*
X112344432Y-61858567D01*
X112409012Y-61888061D01*
X112447396Y-61947787D01*
X112451422Y-61966839D01*
X112478431Y-62171998D01*
X112478432Y-62172004D01*
X112478433Y-62172006D01*
X112551666Y-62445316D01*
X112659947Y-62706728D01*
X112659948Y-62706729D01*
X112659953Y-62706740D01*
X112801424Y-62951776D01*
X112973667Y-63176245D01*
X112973686Y-63176266D01*
X113173733Y-63376313D01*
X113173743Y-63376322D01*
X113173749Y-63376328D01*
X113173752Y-63376330D01*
X113173754Y-63376332D01*
X113398223Y-63548575D01*
X113643259Y-63690046D01*
X113643263Y-63690047D01*
X113643272Y-63690053D01*
X113904684Y-63798334D01*
X114177994Y-63871567D01*
X114178000Y-63871567D01*
X114178001Y-63871568D01*
X114210187Y-63875805D01*
X114458524Y-63908500D01*
X114458531Y-63908500D01*
X114741469Y-63908500D01*
X114741476Y-63908500D01*
X115022006Y-63871567D01*
X115295316Y-63798334D01*
X115556728Y-63690053D01*
X115694487Y-63610518D01*
X120491500Y-63610518D01*
X120491500Y-63789481D01*
X120507828Y-63871567D01*
X120526413Y-63965000D01*
X120594898Y-64130336D01*
X120694322Y-64279135D01*
X120820865Y-64405678D01*
X120969664Y-64505102D01*
X121135000Y-64573587D01*
X121310521Y-64608500D01*
X121310522Y-64608500D01*
X121489478Y-64608500D01*
X121489479Y-64608500D01*
X121665000Y-64573587D01*
X121830336Y-64505102D01*
X121979135Y-64405678D01*
X122105678Y-64279135D01*
X122205102Y-64130336D01*
X122273587Y-63965000D01*
X122304315Y-63810518D01*
X125791500Y-63810518D01*
X125791500Y-63810521D01*
X125791500Y-63989479D01*
X125826413Y-64165000D01*
X125894898Y-64330336D01*
X125994322Y-64479135D01*
X126120865Y-64605678D01*
X126269664Y-64705102D01*
X126435000Y-64773587D01*
X126610521Y-64808500D01*
X126610522Y-64808500D01*
X126789478Y-64808500D01*
X126789479Y-64808500D01*
X126965000Y-64773587D01*
X127130336Y-64705102D01*
X127279135Y-64605678D01*
X127405678Y-64479135D01*
X127505102Y-64330336D01*
X127573587Y-64165000D01*
X127608500Y-63989479D01*
X127608500Y-63810521D01*
X127573587Y-63635000D01*
X127505102Y-63469664D01*
X127405678Y-63320865D01*
X127279135Y-63194322D01*
X127130336Y-63094898D01*
X127013429Y-63046473D01*
X126965003Y-63026414D01*
X126965001Y-63026413D01*
X126965000Y-63026413D01*
X126876645Y-63008838D01*
X126789481Y-62991500D01*
X126789479Y-62991500D01*
X126610521Y-62991500D01*
X126610518Y-62991500D01*
X126479771Y-63017507D01*
X126435000Y-63026413D01*
X126434999Y-63026413D01*
X126434996Y-63026414D01*
X126303902Y-63080716D01*
X126277868Y-63091500D01*
X126269662Y-63094899D01*
X126120869Y-63194319D01*
X126120862Y-63194324D01*
X125994324Y-63320862D01*
X125994319Y-63320869D01*
X125918060Y-63435000D01*
X125894898Y-63469664D01*
X125880716Y-63503902D01*
X125826414Y-63634996D01*
X125791500Y-63810518D01*
X122304315Y-63810518D01*
X122308500Y-63789479D01*
X122308500Y-63610521D01*
X122273587Y-63435000D01*
X122205102Y-63269664D01*
X122105678Y-63120865D01*
X121979135Y-62994322D01*
X121830336Y-62894898D01*
X121713429Y-62846473D01*
X121665003Y-62826414D01*
X121665001Y-62826413D01*
X121665000Y-62826413D01*
X121576645Y-62808838D01*
X121489481Y-62791500D01*
X121489479Y-62791500D01*
X121310521Y-62791500D01*
X121310518Y-62791500D01*
X121179771Y-62817507D01*
X121135000Y-62826413D01*
X121134999Y-62826413D01*
X121134996Y-62826414D01*
X120969662Y-62894899D01*
X120820869Y-62994319D01*
X120820862Y-62994324D01*
X120694324Y-63120862D01*
X120694319Y-63120869D01*
X120623896Y-63226266D01*
X120594898Y-63269664D01*
X120584684Y-63294322D01*
X120526414Y-63434996D01*
X120491500Y-63610518D01*
X115694487Y-63610518D01*
X115801771Y-63548578D01*
X115859385Y-63504368D01*
X115859387Y-63504368D01*
X115949788Y-63435000D01*
X116026251Y-63376328D01*
X116226328Y-63176251D01*
X116298544Y-63082137D01*
X116398575Y-62951776D01*
X116470953Y-62826414D01*
X116540053Y-62706728D01*
X116648334Y-62445316D01*
X116721567Y-62172006D01*
X116758500Y-61891476D01*
X116758500Y-61628521D01*
X134441500Y-61628521D01*
X134441500Y-61911478D01*
X134478431Y-62191998D01*
X134478432Y-62192004D01*
X134478433Y-62192006D01*
X134551666Y-62465316D01*
X134659947Y-62726728D01*
X134659948Y-62726729D01*
X134659953Y-62726740D01*
X134801424Y-62971776D01*
X134973667Y-63196245D01*
X134973686Y-63196266D01*
X135173733Y-63396313D01*
X135173743Y-63396322D01*
X135173749Y-63396328D01*
X135173752Y-63396330D01*
X135173754Y-63396332D01*
X135398223Y-63568575D01*
X135643259Y-63710046D01*
X135643263Y-63710047D01*
X135643272Y-63710053D01*
X135904684Y-63818334D01*
X136177994Y-63891567D01*
X136178000Y-63891567D01*
X136178001Y-63891568D01*
X136210187Y-63895805D01*
X136458524Y-63928500D01*
X136458531Y-63928500D01*
X136741469Y-63928500D01*
X136741476Y-63928500D01*
X137022006Y-63891567D01*
X137295316Y-63818334D01*
X137556728Y-63710053D01*
X137801771Y-63568578D01*
X137801771Y-63568577D01*
X137801776Y-63568575D01*
X137932137Y-63468544D01*
X138026251Y-63396328D01*
X138226328Y-63196251D01*
X138304099Y-63094898D01*
X138398575Y-62971776D01*
X138482500Y-62826414D01*
X138540053Y-62726728D01*
X138648334Y-62465316D01*
X138721567Y-62192006D01*
X138758500Y-61911476D01*
X138758500Y-61628524D01*
X138721567Y-61347994D01*
X138648334Y-61074684D01*
X138580334Y-60910518D01*
X145091500Y-60910518D01*
X145091500Y-60910521D01*
X145091500Y-61089479D01*
X145126413Y-61265000D01*
X145194898Y-61430336D01*
X145294322Y-61579135D01*
X145420865Y-61705678D01*
X145569664Y-61805102D01*
X145735000Y-61873587D01*
X145910521Y-61908500D01*
X145910522Y-61908500D01*
X146089478Y-61908500D01*
X146089479Y-61908500D01*
X146265000Y-61873587D01*
X146430336Y-61805102D01*
X146579135Y-61705678D01*
X146636292Y-61648521D01*
X155841500Y-61648521D01*
X155841500Y-61931478D01*
X155878431Y-62211998D01*
X155878432Y-62212004D01*
X155878433Y-62212006D01*
X155951666Y-62485316D01*
X156059947Y-62746728D01*
X156059948Y-62746729D01*
X156059953Y-62746740D01*
X156201424Y-62991776D01*
X156373667Y-63216245D01*
X156373686Y-63216266D01*
X156573733Y-63416313D01*
X156573743Y-63416322D01*
X156573749Y-63416328D01*
X156573752Y-63416330D01*
X156573754Y-63416332D01*
X156798223Y-63588575D01*
X157043259Y-63730046D01*
X157043263Y-63730047D01*
X157043272Y-63730053D01*
X157304684Y-63838334D01*
X157577994Y-63911567D01*
X157578000Y-63911567D01*
X157578001Y-63911568D01*
X157596725Y-63914033D01*
X157858524Y-63948500D01*
X157858531Y-63948500D01*
X158141469Y-63948500D01*
X158141476Y-63948500D01*
X158422006Y-63911567D01*
X158695316Y-63838334D01*
X158956728Y-63730053D01*
X159201771Y-63588578D01*
X159201771Y-63588577D01*
X159201776Y-63588575D01*
X159401922Y-63434996D01*
X159426251Y-63416328D01*
X159532061Y-63310518D01*
X164591500Y-63310518D01*
X164591500Y-63489481D01*
X164626414Y-63665003D01*
X164636790Y-63690053D01*
X164694898Y-63830336D01*
X164794322Y-63979135D01*
X164920865Y-64105678D01*
X165069664Y-64205102D01*
X165235000Y-64273587D01*
X165410521Y-64308500D01*
X165410522Y-64308500D01*
X165589478Y-64308500D01*
X165589479Y-64308500D01*
X165765000Y-64273587D01*
X165930336Y-64205102D01*
X166079135Y-64105678D01*
X166205678Y-63979135D01*
X166251526Y-63910518D01*
X168391500Y-63910518D01*
X168391500Y-64089481D01*
X168426414Y-64265003D01*
X168444431Y-64308499D01*
X168494898Y-64430336D01*
X168594322Y-64579135D01*
X168720865Y-64705678D01*
X168869664Y-64805102D01*
X169035000Y-64873587D01*
X169210521Y-64908500D01*
X169210522Y-64908500D01*
X169389478Y-64908500D01*
X169389479Y-64908500D01*
X169565000Y-64873587D01*
X169730336Y-64805102D01*
X169879135Y-64705678D01*
X170005678Y-64579135D01*
X170105102Y-64430336D01*
X170173587Y-64265000D01*
X170208500Y-64089479D01*
X170208500Y-63910521D01*
X170173587Y-63735000D01*
X170105102Y-63569664D01*
X170005678Y-63420865D01*
X169879135Y-63294322D01*
X169730336Y-63194898D01*
X169585721Y-63134996D01*
X169565003Y-63126414D01*
X169565001Y-63126413D01*
X169565000Y-63126413D01*
X169476645Y-63108838D01*
X169389481Y-63091500D01*
X169389479Y-63091500D01*
X169210521Y-63091500D01*
X169210518Y-63091500D01*
X169079771Y-63117507D01*
X169035000Y-63126413D01*
X169034999Y-63126413D01*
X169034996Y-63126414D01*
X168869662Y-63194899D01*
X168720869Y-63294319D01*
X168720862Y-63294324D01*
X168594324Y-63420862D01*
X168594319Y-63420869D01*
X168495624Y-63568578D01*
X168494898Y-63569664D01*
X168482923Y-63598575D01*
X168426414Y-63734996D01*
X168391500Y-63910518D01*
X166251526Y-63910518D01*
X166305102Y-63830336D01*
X166373587Y-63665000D01*
X166408500Y-63489479D01*
X166408500Y-63310521D01*
X166373587Y-63135000D01*
X166305102Y-62969664D01*
X166205678Y-62820865D01*
X166079135Y-62694322D01*
X165930336Y-62594898D01*
X165813429Y-62546473D01*
X165765003Y-62526414D01*
X165765001Y-62526413D01*
X165765000Y-62526413D01*
X165676645Y-62508838D01*
X165589481Y-62491500D01*
X165589479Y-62491500D01*
X165410521Y-62491500D01*
X165410518Y-62491500D01*
X165279771Y-62517507D01*
X165235000Y-62526413D01*
X165234999Y-62526413D01*
X165234996Y-62526414D01*
X165069662Y-62594899D01*
X164920869Y-62694319D01*
X164920862Y-62694324D01*
X164794324Y-62820862D01*
X164794319Y-62820869D01*
X164706854Y-62951771D01*
X164694898Y-62969664D01*
X164684684Y-62994322D01*
X164626414Y-63134996D01*
X164591500Y-63310518D01*
X159532061Y-63310518D01*
X159626328Y-63216251D01*
X159722053Y-63091500D01*
X159798575Y-62991776D01*
X159811343Y-62969662D01*
X159940053Y-62746728D01*
X160048334Y-62485316D01*
X160121567Y-62212006D01*
X160158500Y-61931476D01*
X160158500Y-61658521D01*
X177041500Y-61658521D01*
X177041500Y-61941478D01*
X177078431Y-62221998D01*
X177078432Y-62222004D01*
X177078433Y-62222006D01*
X177151666Y-62495316D01*
X177259947Y-62756728D01*
X177259948Y-62756729D01*
X177259953Y-62756740D01*
X177401424Y-63001776D01*
X177573667Y-63226245D01*
X177573686Y-63226266D01*
X177773733Y-63426313D01*
X177773743Y-63426322D01*
X177773749Y-63426328D01*
X177773752Y-63426330D01*
X177773754Y-63426332D01*
X177998223Y-63598575D01*
X178243259Y-63740046D01*
X178243263Y-63740047D01*
X178243272Y-63740053D01*
X178504684Y-63848334D01*
X178777994Y-63921567D01*
X178778000Y-63921567D01*
X178778001Y-63921568D01*
X178810187Y-63925805D01*
X179058524Y-63958500D01*
X179058531Y-63958500D01*
X179341469Y-63958500D01*
X179341476Y-63958500D01*
X179622006Y-63921567D01*
X179895316Y-63848334D01*
X180156728Y-63740053D01*
X180401771Y-63598578D01*
X180401771Y-63598577D01*
X180401776Y-63598575D01*
X180543954Y-63489477D01*
X180626251Y-63426328D01*
X180826328Y-63226251D01*
X180927119Y-63094898D01*
X180998575Y-63001776D01*
X181002878Y-62994324D01*
X181140053Y-62756728D01*
X181248334Y-62495316D01*
X181321567Y-62222006D01*
X181358500Y-61941476D01*
X181358500Y-61658524D01*
X181321567Y-61377994D01*
X181248334Y-61104684D01*
X181140053Y-60843272D01*
X181140047Y-60843263D01*
X181140046Y-60843259D01*
X180998575Y-60598223D01*
X180826332Y-60373754D01*
X180826330Y-60373752D01*
X180826328Y-60373749D01*
X180826322Y-60373743D01*
X180826313Y-60373733D01*
X180626266Y-60173686D01*
X180626245Y-60173667D01*
X180401776Y-60001424D01*
X180156740Y-59859953D01*
X180156732Y-59859949D01*
X180156728Y-59859947D01*
X179895316Y-59751666D01*
X179622006Y-59678433D01*
X179622004Y-59678432D01*
X179621998Y-59678431D01*
X179341478Y-59641500D01*
X179341476Y-59641500D01*
X179058524Y-59641500D01*
X179058521Y-59641500D01*
X178778001Y-59678431D01*
X178504684Y-59751666D01*
X178243270Y-59859948D01*
X178243259Y-59859953D01*
X177998223Y-60001424D01*
X177773754Y-60173667D01*
X177773733Y-60173686D01*
X177573686Y-60373733D01*
X177573667Y-60373754D01*
X177401424Y-60598223D01*
X177259953Y-60843259D01*
X177259948Y-60843270D01*
X177259947Y-60843272D01*
X177164092Y-61074684D01*
X177151666Y-61104684D01*
X177078431Y-61378001D01*
X177041500Y-61658521D01*
X160158500Y-61658521D01*
X160158500Y-61648524D01*
X160125805Y-61400187D01*
X160121568Y-61368001D01*
X160121567Y-61368000D01*
X160121567Y-61367994D01*
X160048334Y-61094684D01*
X159940053Y-60833272D01*
X159940047Y-60833263D01*
X159940046Y-60833259D01*
X159798575Y-60588223D01*
X159626332Y-60363754D01*
X159626330Y-60363752D01*
X159626328Y-60363749D01*
X159626322Y-60363743D01*
X159626313Y-60363733D01*
X159426266Y-60163686D01*
X159426245Y-60163667D01*
X159201776Y-59991424D01*
X158956740Y-59849953D01*
X158956732Y-59849949D01*
X158956728Y-59849947D01*
X158695316Y-59741666D01*
X158422006Y-59668433D01*
X158422004Y-59668432D01*
X158421998Y-59668431D01*
X158141478Y-59631500D01*
X158141476Y-59631500D01*
X157858524Y-59631500D01*
X157858521Y-59631500D01*
X157578001Y-59668431D01*
X157304684Y-59741666D01*
X157043270Y-59849948D01*
X157043259Y-59849953D01*
X156798223Y-59991424D01*
X156573754Y-60163667D01*
X156573733Y-60163686D01*
X156373686Y-60363733D01*
X156373667Y-60363754D01*
X156201424Y-60588223D01*
X156059953Y-60833259D01*
X156059948Y-60833270D01*
X156059947Y-60833272D01*
X155968235Y-61054684D01*
X155951666Y-61094684D01*
X155878431Y-61368001D01*
X155841500Y-61648521D01*
X146636292Y-61648521D01*
X146705678Y-61579135D01*
X146805102Y-61430336D01*
X146873587Y-61265000D01*
X146908500Y-61089479D01*
X146908500Y-60910521D01*
X146873587Y-60735000D01*
X146805102Y-60569664D01*
X146705678Y-60420865D01*
X146579135Y-60294322D01*
X146430336Y-60194898D01*
X146306667Y-60143672D01*
X146265003Y-60126414D01*
X146265001Y-60126413D01*
X146265000Y-60126413D01*
X146176645Y-60108838D01*
X146089481Y-60091500D01*
X146089479Y-60091500D01*
X145910521Y-60091500D01*
X145910518Y-60091500D01*
X145779771Y-60117507D01*
X145735000Y-60126413D01*
X145734999Y-60126413D01*
X145734996Y-60126414D01*
X145569662Y-60194899D01*
X145420869Y-60294319D01*
X145420862Y-60294324D01*
X145294324Y-60420862D01*
X145294319Y-60420869D01*
X145194899Y-60569662D01*
X145126414Y-60734996D01*
X145091500Y-60910518D01*
X138580334Y-60910518D01*
X138540053Y-60813272D01*
X138540047Y-60813263D01*
X138540046Y-60813259D01*
X138398575Y-60568223D01*
X138226332Y-60343754D01*
X138226330Y-60343752D01*
X138226328Y-60343749D01*
X138226322Y-60343743D01*
X138226313Y-60343733D01*
X138026266Y-60143686D01*
X138026245Y-60143667D01*
X137801776Y-59971424D01*
X137556740Y-59829953D01*
X137556732Y-59829949D01*
X137556728Y-59829947D01*
X137295316Y-59721666D01*
X137253711Y-59710518D01*
X153691500Y-59710518D01*
X153691500Y-59889481D01*
X153707799Y-59971422D01*
X153726413Y-60065000D01*
X153794898Y-60230336D01*
X153894322Y-60379135D01*
X154020865Y-60505678D01*
X154169664Y-60605102D01*
X154335000Y-60673587D01*
X154510521Y-60708500D01*
X154510522Y-60708500D01*
X154689478Y-60708500D01*
X154689479Y-60708500D01*
X154865000Y-60673587D01*
X155030336Y-60605102D01*
X155179135Y-60505678D01*
X155305678Y-60379135D01*
X155405102Y-60230336D01*
X155473587Y-60065000D01*
X155508500Y-59889479D01*
X155508500Y-59710521D01*
X155473587Y-59535000D01*
X155405102Y-59369664D01*
X155305678Y-59220865D01*
X155179135Y-59094322D01*
X155030336Y-58994898D01*
X154881303Y-58933166D01*
X154865003Y-58926414D01*
X154865001Y-58926413D01*
X154865000Y-58926413D01*
X154754951Y-58904523D01*
X154689481Y-58891500D01*
X154689479Y-58891500D01*
X154510521Y-58891500D01*
X154510518Y-58891500D01*
X154379771Y-58917507D01*
X154335000Y-58926413D01*
X154334999Y-58926413D01*
X154334996Y-58926414D01*
X154169662Y-58994899D01*
X154020869Y-59094319D01*
X154020862Y-59094324D01*
X153894324Y-59220862D01*
X153894319Y-59220869D01*
X153794899Y-59369662D01*
X153726414Y-59534996D01*
X153691500Y-59710518D01*
X137253711Y-59710518D01*
X137022006Y-59648433D01*
X137022004Y-59648432D01*
X137021998Y-59648431D01*
X136741478Y-59611500D01*
X136741476Y-59611500D01*
X136458524Y-59611500D01*
X136458521Y-59611500D01*
X136178001Y-59648431D01*
X135904684Y-59721666D01*
X135643270Y-59829948D01*
X135643259Y-59829953D01*
X135398223Y-59971424D01*
X135173754Y-60143667D01*
X135173733Y-60143686D01*
X134973686Y-60343733D01*
X134973667Y-60343754D01*
X134801424Y-60568223D01*
X134659953Y-60813259D01*
X134659948Y-60813270D01*
X134659947Y-60813272D01*
X134602256Y-60952549D01*
X134551666Y-61074684D01*
X134478431Y-61348001D01*
X134441500Y-61628521D01*
X116758500Y-61628521D01*
X116758500Y-61608524D01*
X116721567Y-61327994D01*
X116648334Y-61054684D01*
X116540053Y-60793272D01*
X116540047Y-60793263D01*
X116540046Y-60793259D01*
X116398575Y-60548223D01*
X116226332Y-60323754D01*
X116226330Y-60323752D01*
X116226328Y-60323749D01*
X116226322Y-60323743D01*
X116226313Y-60323733D01*
X116026266Y-60123686D01*
X116026245Y-60123667D01*
X115801776Y-59951424D01*
X115556740Y-59809953D01*
X115556732Y-59809949D01*
X115556728Y-59809947D01*
X115295316Y-59701666D01*
X115022006Y-59628433D01*
X115022004Y-59628432D01*
X115021998Y-59628431D01*
X114741478Y-59591500D01*
X114741476Y-59591500D01*
X114458524Y-59591500D01*
X114458521Y-59591500D01*
X114178001Y-59628431D01*
X113904684Y-59701666D01*
X113643270Y-59809948D01*
X113643259Y-59809953D01*
X113398223Y-59951424D01*
X113173754Y-60123667D01*
X113173733Y-60123686D01*
X112973686Y-60323733D01*
X112973667Y-60323754D01*
X112801424Y-60548223D01*
X112659953Y-60793259D01*
X112659948Y-60793270D01*
X112659947Y-60793272D01*
X112639242Y-60843259D01*
X112551666Y-61054684D01*
X112478431Y-61328001D01*
X112451422Y-61533160D01*
X112422700Y-61598087D01*
X112363434Y-61637179D01*
X112292443Y-61638024D01*
X112232264Y-61600354D01*
X112202005Y-61536129D01*
X112200500Y-61516714D01*
X112200500Y-61014249D01*
X112204125Y-60988874D01*
X112200500Y-60974724D01*
X112200500Y-60960118D01*
X112190690Y-60936434D01*
X112184329Y-60911606D01*
X112175566Y-60899922D01*
X112169976Y-60886426D01*
X112158177Y-60874627D01*
X112146477Y-60861137D01*
X112133078Y-60843272D01*
X110725700Y-58966766D01*
X110717797Y-58945637D01*
X110705604Y-58926664D01*
X110702420Y-58904523D01*
X110700829Y-58900268D01*
X110700500Y-58891166D01*
X110700500Y-58710518D01*
X120991500Y-58710518D01*
X120991500Y-58889481D01*
X121026414Y-59065003D01*
X121040942Y-59100077D01*
X121094898Y-59230336D01*
X121194322Y-59379135D01*
X121320865Y-59505678D01*
X121469664Y-59605102D01*
X121635000Y-59673587D01*
X121810521Y-59708500D01*
X121810522Y-59708500D01*
X121989478Y-59708500D01*
X121989479Y-59708500D01*
X122165000Y-59673587D01*
X122330336Y-59605102D01*
X122479135Y-59505678D01*
X122605678Y-59379135D01*
X122705102Y-59230336D01*
X122773587Y-59065000D01*
X122808500Y-58889479D01*
X122808500Y-58710521D01*
X122808499Y-58710518D01*
X129191500Y-58710518D01*
X129191500Y-58889481D01*
X129226414Y-59065003D01*
X129240942Y-59100077D01*
X129294898Y-59230336D01*
X129394322Y-59379135D01*
X129520865Y-59505678D01*
X129669664Y-59605102D01*
X129835000Y-59673587D01*
X130010521Y-59708500D01*
X130010522Y-59708500D01*
X130189478Y-59708500D01*
X130189479Y-59708500D01*
X130365000Y-59673587D01*
X130530336Y-59605102D01*
X130679135Y-59505678D01*
X130805678Y-59379135D01*
X130905102Y-59230336D01*
X130973587Y-59065000D01*
X131008500Y-58889479D01*
X131008500Y-58710521D01*
X130973587Y-58535000D01*
X130905102Y-58369664D01*
X130805678Y-58220865D01*
X130679135Y-58094322D01*
X130530336Y-57994898D01*
X130413429Y-57946473D01*
X130365003Y-57926414D01*
X130365001Y-57926413D01*
X130365000Y-57926413D01*
X130276645Y-57908838D01*
X130189481Y-57891500D01*
X130189479Y-57891500D01*
X130010521Y-57891500D01*
X130010518Y-57891500D01*
X129879771Y-57917507D01*
X129835000Y-57926413D01*
X129834999Y-57926413D01*
X129834996Y-57926414D01*
X129669662Y-57994899D01*
X129520869Y-58094319D01*
X129520862Y-58094324D01*
X129394324Y-58220862D01*
X129394319Y-58220869D01*
X129294899Y-58369662D01*
X129226414Y-58534996D01*
X129191500Y-58710518D01*
X122808499Y-58710518D01*
X122773587Y-58535000D01*
X122705102Y-58369664D01*
X122605678Y-58220865D01*
X122479135Y-58094322D01*
X122330336Y-57994898D01*
X122213429Y-57946473D01*
X122165003Y-57926414D01*
X122165001Y-57926413D01*
X122165000Y-57926413D01*
X122076645Y-57908838D01*
X121989481Y-57891500D01*
X121989479Y-57891500D01*
X121810521Y-57891500D01*
X121810518Y-57891500D01*
X121679771Y-57917507D01*
X121635000Y-57926413D01*
X121634999Y-57926413D01*
X121634996Y-57926414D01*
X121469662Y-57994899D01*
X121320869Y-58094319D01*
X121320862Y-58094324D01*
X121194324Y-58220862D01*
X121194319Y-58220869D01*
X121094899Y-58369662D01*
X121026414Y-58534996D01*
X120991500Y-58710518D01*
X110700500Y-58710518D01*
X110700500Y-56310518D01*
X134441500Y-56310518D01*
X134441500Y-56489481D01*
X134447384Y-56519062D01*
X134476413Y-56665000D01*
X134544898Y-56830336D01*
X134644322Y-56979135D01*
X134770865Y-57105678D01*
X134919664Y-57205102D01*
X135085000Y-57273587D01*
X135260521Y-57308500D01*
X135260522Y-57308500D01*
X135439478Y-57308500D01*
X135439479Y-57308500D01*
X135615000Y-57273587D01*
X135780336Y-57205102D01*
X135929135Y-57105678D01*
X136055678Y-56979135D01*
X136135336Y-56859918D01*
X150161535Y-56859918D01*
X150161535Y-56859921D01*
X150161535Y-57038879D01*
X150196448Y-57214400D01*
X150264933Y-57379736D01*
X150364357Y-57528535D01*
X150490900Y-57655078D01*
X150639699Y-57754502D01*
X150805035Y-57822987D01*
X150980556Y-57857900D01*
X150980557Y-57857900D01*
X151159513Y-57857900D01*
X151159514Y-57857900D01*
X151335035Y-57822987D01*
X151500371Y-57754502D01*
X151649170Y-57655078D01*
X151775713Y-57528535D01*
X151875137Y-57379736D01*
X151943622Y-57214400D01*
X151978535Y-57038879D01*
X151978535Y-56859921D01*
X151943622Y-56684400D01*
X151875137Y-56519064D01*
X151775713Y-56370265D01*
X151649170Y-56243722D01*
X151500371Y-56144298D01*
X151383464Y-56095873D01*
X151335038Y-56075814D01*
X151335036Y-56075813D01*
X151335035Y-56075813D01*
X151246680Y-56058238D01*
X151159516Y-56040900D01*
X151159514Y-56040900D01*
X150980556Y-56040900D01*
X150980553Y-56040900D01*
X150859396Y-56065000D01*
X150805035Y-56075813D01*
X150805034Y-56075813D01*
X150805031Y-56075814D01*
X150639697Y-56144299D01*
X150490904Y-56243719D01*
X150490897Y-56243724D01*
X150364359Y-56370262D01*
X150364354Y-56370269D01*
X150264934Y-56519062D01*
X150196449Y-56684396D01*
X150196448Y-56684399D01*
X150196448Y-56684400D01*
X150191654Y-56708500D01*
X150161535Y-56859918D01*
X136135336Y-56859918D01*
X136155102Y-56830336D01*
X136223587Y-56665000D01*
X136258500Y-56489479D01*
X136258500Y-56310521D01*
X136223587Y-56135000D01*
X136155102Y-55969664D01*
X136055678Y-55820865D01*
X135945331Y-55710518D01*
X139291500Y-55710518D01*
X139291500Y-55710521D01*
X139291500Y-55889479D01*
X139326413Y-56065000D01*
X139394898Y-56230336D01*
X139494322Y-56379135D01*
X139620865Y-56505678D01*
X139769664Y-56605102D01*
X139935000Y-56673587D01*
X140110521Y-56708500D01*
X140110522Y-56708500D01*
X140289478Y-56708500D01*
X140289479Y-56708500D01*
X140465000Y-56673587D01*
X140630336Y-56605102D01*
X140779135Y-56505678D01*
X140905678Y-56379135D01*
X141005102Y-56230336D01*
X141073587Y-56065000D01*
X141108500Y-55889479D01*
X141108500Y-55710521D01*
X141073587Y-55535000D01*
X141005102Y-55369664D01*
X140905678Y-55220865D01*
X140779135Y-55094322D01*
X140630336Y-54994898D01*
X140513429Y-54946473D01*
X140465003Y-54926414D01*
X140465001Y-54926413D01*
X140465000Y-54926413D01*
X140376645Y-54908838D01*
X140289481Y-54891500D01*
X140289479Y-54891500D01*
X140110521Y-54891500D01*
X140110518Y-54891500D01*
X139979771Y-54917507D01*
X139935000Y-54926413D01*
X139934999Y-54926413D01*
X139934996Y-54926414D01*
X139803902Y-54980716D01*
X139770447Y-54994574D01*
X139769662Y-54994899D01*
X139620869Y-55094319D01*
X139620862Y-55094324D01*
X139494324Y-55220862D01*
X139494319Y-55220869D01*
X139409190Y-55348275D01*
X139394898Y-55369664D01*
X139387096Y-55388499D01*
X139326414Y-55534996D01*
X139291500Y-55710518D01*
X135945331Y-55710518D01*
X135929135Y-55694322D01*
X135780336Y-55594898D01*
X135635721Y-55534996D01*
X135615003Y-55526414D01*
X135615001Y-55526413D01*
X135615000Y-55526413D01*
X135526645Y-55508838D01*
X135439481Y-55491500D01*
X135439479Y-55491500D01*
X135260521Y-55491500D01*
X135260518Y-55491500D01*
X135129771Y-55517507D01*
X135085000Y-55526413D01*
X135084999Y-55526413D01*
X135084996Y-55526414D01*
X134919662Y-55594899D01*
X134770869Y-55694319D01*
X134770862Y-55694324D01*
X134644324Y-55820862D01*
X134644319Y-55820869D01*
X134544899Y-55969662D01*
X134476414Y-56134996D01*
X134441500Y-56310518D01*
X110700500Y-56310518D01*
X110700500Y-53514739D01*
X120341500Y-53514739D01*
X120341500Y-53745260D01*
X120371587Y-53973794D01*
X120371588Y-53973800D01*
X120371589Y-53973802D01*
X120431251Y-54196464D01*
X120519465Y-54409433D01*
X120519466Y-54409434D01*
X120519471Y-54409444D01*
X120595557Y-54541228D01*
X120634724Y-54609066D01*
X120726690Y-54728919D01*
X120775053Y-54791947D01*
X120775062Y-54791957D01*
X120938042Y-54954937D01*
X120938052Y-54954946D01*
X120938053Y-54954947D01*
X121120934Y-55095276D01*
X121320567Y-55210535D01*
X121533536Y-55298749D01*
X121756198Y-55358411D01*
X121756204Y-55358411D01*
X121756205Y-55358412D01*
X121782425Y-55361863D01*
X121984742Y-55388500D01*
X121984749Y-55388500D01*
X123215251Y-55388500D01*
X123215258Y-55388500D01*
X123443802Y-55358411D01*
X123666464Y-55298749D01*
X123879433Y-55210535D01*
X124079066Y-55095276D01*
X124261947Y-54954947D01*
X124424947Y-54791947D01*
X124565276Y-54609066D01*
X124680535Y-54409433D01*
X124768749Y-54196464D01*
X124828411Y-53973802D01*
X124858500Y-53745258D01*
X124858500Y-53514742D01*
X124828411Y-53286198D01*
X124768749Y-53063536D01*
X124680535Y-52850567D01*
X124565276Y-52650934D01*
X124424947Y-52468053D01*
X124424946Y-52468052D01*
X124424937Y-52468042D01*
X124261957Y-52305062D01*
X124261947Y-52305053D01*
X124232848Y-52282725D01*
X124079066Y-52164724D01*
X123976791Y-52105675D01*
X123879444Y-52049471D01*
X123879439Y-52049468D01*
X123879433Y-52049465D01*
X123666464Y-51961251D01*
X123443802Y-51901589D01*
X123443800Y-51901588D01*
X123443794Y-51901587D01*
X123215260Y-51871500D01*
X123215258Y-51871500D01*
X121984742Y-51871500D01*
X121984739Y-51871500D01*
X121756205Y-51901587D01*
X121567770Y-51952078D01*
X121533536Y-51961251D01*
X121356926Y-52034405D01*
X121320565Y-52049466D01*
X121320555Y-52049471D01*
X121120938Y-52164721D01*
X120938052Y-52305053D01*
X120938042Y-52305062D01*
X120775062Y-52468042D01*
X120775053Y-52468052D01*
X120634721Y-52650938D01*
X120519471Y-52850555D01*
X120519466Y-52850565D01*
X120519465Y-52850567D01*
X120478238Y-52950099D01*
X120431251Y-53063536D01*
X120371587Y-53286205D01*
X120341500Y-53514739D01*
X110700500Y-53514739D01*
X110700500Y-51210518D01*
X128741500Y-51210518D01*
X128741500Y-51210521D01*
X128741500Y-51389479D01*
X128776413Y-51565000D01*
X128844898Y-51730336D01*
X128944322Y-51879135D01*
X129070865Y-52005678D01*
X129219664Y-52105102D01*
X129334688Y-52152747D01*
X129389968Y-52197294D01*
X129412389Y-52264658D01*
X129394831Y-52333449D01*
X129375565Y-52358250D01*
X129312725Y-52421090D01*
X129176383Y-52598776D01*
X129064411Y-52792716D01*
X129064406Y-52792726D01*
X129064405Y-52792728D01*
X128978698Y-52999642D01*
X128920731Y-53215979D01*
X128891500Y-53438016D01*
X128891500Y-53661983D01*
X128920731Y-53884020D01*
X128920733Y-53884027D01*
X128978698Y-54100358D01*
X129064405Y-54307272D01*
X129064406Y-54307273D01*
X129064411Y-54307283D01*
X129152135Y-54459224D01*
X129176386Y-54501228D01*
X129274479Y-54629066D01*
X129312725Y-54678909D01*
X129312734Y-54678919D01*
X129471080Y-54837265D01*
X129471090Y-54837274D01*
X129471091Y-54837275D01*
X129648772Y-54973614D01*
X129842728Y-55085595D01*
X130049642Y-55171302D01*
X130265973Y-55229267D01*
X130265977Y-55229267D01*
X130265979Y-55229268D01*
X130323204Y-55236801D01*
X130488019Y-55258500D01*
X130488026Y-55258500D01*
X130711974Y-55258500D01*
X130711981Y-55258500D01*
X130924449Y-55230528D01*
X130934020Y-55229268D01*
X130934020Y-55229267D01*
X130934027Y-55229267D01*
X131150358Y-55171302D01*
X131357272Y-55085595D01*
X131551228Y-54973614D01*
X131728909Y-54837275D01*
X131887275Y-54678909D01*
X132023614Y-54501228D01*
X132135595Y-54307272D01*
X132221302Y-54100358D01*
X132279267Y-53884027D01*
X132308500Y-53661981D01*
X132308500Y-53534739D01*
X142341500Y-53534739D01*
X142341500Y-53765260D01*
X142371587Y-53993794D01*
X142371588Y-53993800D01*
X142371589Y-53993802D01*
X142431251Y-54216464D01*
X142519465Y-54429433D01*
X142519466Y-54429434D01*
X142519471Y-54429444D01*
X142536665Y-54459224D01*
X142634724Y-54629066D01*
X142711336Y-54728909D01*
X142775053Y-54811947D01*
X142775062Y-54811957D01*
X142938042Y-54974937D01*
X142938052Y-54974946D01*
X142938053Y-54974947D01*
X143120934Y-55115276D01*
X143320567Y-55230535D01*
X143533536Y-55318749D01*
X143756198Y-55378411D01*
X143756204Y-55378411D01*
X143756205Y-55378412D01*
X143782425Y-55381863D01*
X143984742Y-55408500D01*
X143984749Y-55408500D01*
X145215251Y-55408500D01*
X145215258Y-55408500D01*
X145443802Y-55378411D01*
X145666464Y-55318749D01*
X145879433Y-55230535D01*
X146079066Y-55115276D01*
X146261947Y-54974947D01*
X146424947Y-54811947D01*
X146565276Y-54629066D01*
X146680535Y-54429433D01*
X146768749Y-54216464D01*
X146828411Y-53993802D01*
X146858500Y-53765258D01*
X146858500Y-53534742D01*
X146848399Y-53458016D01*
X150891500Y-53458016D01*
X150891500Y-53681983D01*
X150920731Y-53904020D01*
X150939108Y-53972605D01*
X150978698Y-54120358D01*
X151064405Y-54327272D01*
X151064406Y-54327273D01*
X151064411Y-54327283D01*
X151081726Y-54357273D01*
X151176386Y-54521228D01*
X151281936Y-54658784D01*
X151312725Y-54698909D01*
X151312734Y-54698919D01*
X151471080Y-54857265D01*
X151471090Y-54857274D01*
X151471091Y-54857275D01*
X151648772Y-54993614D01*
X151842728Y-55105595D01*
X152049642Y-55191302D01*
X152265973Y-55249267D01*
X152265977Y-55249267D01*
X152265979Y-55249268D01*
X152323204Y-55256801D01*
X152488019Y-55278500D01*
X152488026Y-55278500D01*
X152711974Y-55278500D01*
X152711981Y-55278500D01*
X152927867Y-55250078D01*
X152934020Y-55249268D01*
X152934020Y-55249267D01*
X152934027Y-55249267D01*
X153150358Y-55191302D01*
X153357272Y-55105595D01*
X153551228Y-54993614D01*
X153728909Y-54857275D01*
X153887275Y-54698909D01*
X154023614Y-54521228D01*
X154135595Y-54327272D01*
X154221302Y-54120358D01*
X154279267Y-53904027D01*
X154282773Y-53877399D01*
X154284090Y-53867398D01*
X154284090Y-53867397D01*
X154294569Y-53787792D01*
X154308500Y-53681981D01*
X154308500Y-53458019D01*
X154302968Y-53415999D01*
X163760269Y-53415999D01*
X163760270Y-53416000D01*
X164751645Y-53416000D01*
X164724970Y-53480399D01*
X164699990Y-53605979D01*
X164699990Y-53734021D01*
X164724970Y-53859601D01*
X164751645Y-53924000D01*
X163760270Y-53924000D01*
X163772078Y-54013697D01*
X163831724Y-54236298D01*
X163831725Y-54236302D01*
X163919916Y-54449213D01*
X163919921Y-54449224D01*
X164035137Y-54648784D01*
X164035141Y-54648790D01*
X164175425Y-54831611D01*
X164175444Y-54831632D01*
X164338367Y-54994555D01*
X164338388Y-54994574D01*
X164521209Y-55134858D01*
X164521215Y-55134862D01*
X164720775Y-55250078D01*
X164720786Y-55250083D01*
X164933697Y-55338274D01*
X164933701Y-55338275D01*
X165156301Y-55397921D01*
X165384772Y-55427999D01*
X165384782Y-55428000D01*
X165746000Y-55428000D01*
X165746000Y-54320012D01*
X166254000Y-54320012D01*
X166254000Y-55428000D01*
X166615218Y-55428000D01*
X166615227Y-55427999D01*
X166843698Y-55397921D01*
X167066298Y-55338275D01*
X167066302Y-55338274D01*
X167279213Y-55250083D01*
X167279224Y-55250078D01*
X167478784Y-55134862D01*
X167478790Y-55134858D01*
X167661611Y-54994574D01*
X167661632Y-54994555D01*
X167824555Y-54831632D01*
X167824574Y-54831611D01*
X167964858Y-54648790D01*
X167964862Y-54648784D01*
X168080078Y-54449224D01*
X168080083Y-54449213D01*
X168168274Y-54236302D01*
X168168275Y-54236298D01*
X168227921Y-54013697D01*
X168239730Y-53924000D01*
X167248355Y-53924000D01*
X167275030Y-53859601D01*
X167300010Y-53734021D01*
X167300010Y-53605979D01*
X167275030Y-53480399D01*
X167274043Y-53478016D01*
X172291500Y-53478016D01*
X172291500Y-53701983D01*
X172320731Y-53924020D01*
X172323412Y-53934027D01*
X172378698Y-54140358D01*
X172464405Y-54347272D01*
X172464406Y-54347273D01*
X172464411Y-54347283D01*
X172470179Y-54357273D01*
X172576386Y-54541228D01*
X172658921Y-54648790D01*
X172712725Y-54718909D01*
X172712734Y-54718919D01*
X172871080Y-54877265D01*
X172871090Y-54877274D01*
X172871091Y-54877275D01*
X173048772Y-55013614D01*
X173242728Y-55125595D01*
X173449642Y-55211302D01*
X173665973Y-55269267D01*
X173665977Y-55269267D01*
X173665979Y-55269268D01*
X173723204Y-55276801D01*
X173888019Y-55298500D01*
X173888026Y-55298500D01*
X174111974Y-55298500D01*
X174111981Y-55298500D01*
X174312656Y-55272080D01*
X174334020Y-55269268D01*
X174334020Y-55269267D01*
X174334027Y-55269267D01*
X174550358Y-55211302D01*
X174757272Y-55125595D01*
X174951228Y-55013614D01*
X175128909Y-54877275D01*
X175287275Y-54718909D01*
X175423614Y-54541228D01*
X175535595Y-54347272D01*
X175621302Y-54140358D01*
X175679267Y-53924027D01*
X175686433Y-53869601D01*
X175706615Y-53716299D01*
X175706615Y-53716298D01*
X175708499Y-53701988D01*
X175708500Y-53701981D01*
X175708500Y-53478019D01*
X175701651Y-53425999D01*
X184960269Y-53425999D01*
X184960270Y-53426000D01*
X185951645Y-53426000D01*
X185924970Y-53490399D01*
X185899990Y-53615979D01*
X185899990Y-53744021D01*
X185924970Y-53869601D01*
X185951645Y-53934000D01*
X184960270Y-53934000D01*
X184972078Y-54023697D01*
X185031724Y-54246298D01*
X185031725Y-54246302D01*
X185119916Y-54459213D01*
X185119921Y-54459224D01*
X185235137Y-54658784D01*
X185235141Y-54658790D01*
X185375425Y-54841611D01*
X185375444Y-54841632D01*
X185538367Y-55004555D01*
X185538388Y-55004574D01*
X185721209Y-55144858D01*
X185721215Y-55144862D01*
X185920775Y-55260078D01*
X185920786Y-55260083D01*
X186133697Y-55348274D01*
X186133701Y-55348275D01*
X186356301Y-55407921D01*
X186584772Y-55437999D01*
X186584782Y-55438000D01*
X186946000Y-55438000D01*
X186946000Y-54330012D01*
X187454000Y-54330012D01*
X187454000Y-55438000D01*
X187815218Y-55438000D01*
X187815227Y-55437999D01*
X188043698Y-55407921D01*
X188266298Y-55348275D01*
X188266302Y-55348274D01*
X188479213Y-55260083D01*
X188479224Y-55260078D01*
X188678784Y-55144862D01*
X188678790Y-55144858D01*
X188861611Y-55004574D01*
X188861632Y-55004555D01*
X189024555Y-54841632D01*
X189024574Y-54841611D01*
X189164858Y-54658790D01*
X189164862Y-54658784D01*
X189280078Y-54459224D01*
X189280083Y-54459213D01*
X189368274Y-54246302D01*
X189368275Y-54246298D01*
X189427921Y-54023697D01*
X189439730Y-53934000D01*
X188448355Y-53934000D01*
X188475030Y-53869601D01*
X188500010Y-53744021D01*
X188500010Y-53615979D01*
X188475030Y-53490399D01*
X188448355Y-53426000D01*
X189439730Y-53426000D01*
X189439730Y-53425999D01*
X189427921Y-53336302D01*
X189368275Y-53113701D01*
X189368274Y-53113697D01*
X189280083Y-52900786D01*
X189280078Y-52900775D01*
X189164862Y-52701215D01*
X189164858Y-52701209D01*
X189024574Y-52518388D01*
X189024555Y-52518367D01*
X188937509Y-52431321D01*
X190492000Y-52431321D01*
X190492000Y-52668678D01*
X190529133Y-52903129D01*
X190602480Y-53128867D01*
X190710246Y-53340368D01*
X190769230Y-53421556D01*
X190769232Y-53421556D01*
X191515841Y-52674946D01*
X191534075Y-52742993D01*
X191599901Y-52857007D01*
X191692993Y-52950099D01*
X191807007Y-53015925D01*
X191875051Y-53034157D01*
X191128442Y-53780766D01*
X191209636Y-53839756D01*
X191209637Y-53839757D01*
X191421132Y-53947519D01*
X191646870Y-54020866D01*
X191881321Y-54058000D01*
X192118679Y-54058000D01*
X192353129Y-54020866D01*
X192578867Y-53947519D01*
X192790367Y-53839754D01*
X192871556Y-53780767D01*
X192871556Y-53780765D01*
X192124948Y-53034157D01*
X192192993Y-53015925D01*
X192307007Y-52950099D01*
X192400099Y-52857007D01*
X192465925Y-52742993D01*
X192484157Y-52674948D01*
X193230765Y-53421556D01*
X193230766Y-53421556D01*
X193268271Y-53369935D01*
X193324493Y-53326581D01*
X193395229Y-53320504D01*
X193458021Y-53353635D01*
X193492933Y-53415455D01*
X193495131Y-53460437D01*
X193491501Y-53488016D01*
X193491500Y-53488022D01*
X193491500Y-53711983D01*
X193520731Y-53934020D01*
X193535167Y-53987896D01*
X193578698Y-54150358D01*
X193664405Y-54357272D01*
X193664406Y-54357273D01*
X193664411Y-54357283D01*
X193770612Y-54541228D01*
X193776386Y-54551228D01*
X193889705Y-54698909D01*
X193912725Y-54728909D01*
X193912734Y-54728919D01*
X194071080Y-54887265D01*
X194071090Y-54887274D01*
X194071091Y-54887275D01*
X194248772Y-55023614D01*
X194442728Y-55135595D01*
X194649642Y-55221302D01*
X194865973Y-55279267D01*
X194865977Y-55279267D01*
X194865979Y-55279268D01*
X194923204Y-55286801D01*
X195088019Y-55308500D01*
X195088026Y-55308500D01*
X195311974Y-55308500D01*
X195311981Y-55308500D01*
X195512656Y-55282080D01*
X195534020Y-55279268D01*
X195534020Y-55279267D01*
X195534027Y-55279267D01*
X195750358Y-55221302D01*
X195957272Y-55135595D01*
X196151228Y-55023614D01*
X196328909Y-54887275D01*
X196487275Y-54728909D01*
X196623614Y-54551228D01*
X196735595Y-54357272D01*
X196821302Y-54150358D01*
X196879267Y-53934027D01*
X196908500Y-53711981D01*
X196908500Y-53488019D01*
X196879267Y-53265973D01*
X196821302Y-53049642D01*
X196735595Y-52842728D01*
X196623614Y-52648772D01*
X196487275Y-52471091D01*
X196487274Y-52471090D01*
X196487265Y-52471080D01*
X196328919Y-52312734D01*
X196328909Y-52312725D01*
X196277903Y-52273587D01*
X196151228Y-52176386D01*
X196133908Y-52166386D01*
X195957283Y-52064411D01*
X195957278Y-52064408D01*
X195957272Y-52064405D01*
X195750358Y-51978698D01*
X195537222Y-51921589D01*
X195534020Y-51920731D01*
X195311983Y-51891500D01*
X195311981Y-51891500D01*
X195088019Y-51891500D01*
X195088016Y-51891500D01*
X194865979Y-51920731D01*
X194686963Y-51968698D01*
X194649642Y-51978698D01*
X194478797Y-52049465D01*
X194442726Y-52064406D01*
X194442716Y-52064411D01*
X194248776Y-52176383D01*
X194071090Y-52312725D01*
X194071080Y-52312734D01*
X193912734Y-52471080D01*
X193912725Y-52471090D01*
X193776383Y-52648776D01*
X193743119Y-52706391D01*
X193691736Y-52755385D01*
X193622022Y-52768820D01*
X193556112Y-52742433D01*
X193514930Y-52684601D01*
X193508000Y-52643391D01*
X193508000Y-52431321D01*
X193470866Y-52196870D01*
X193397519Y-51971132D01*
X193289757Y-51759637D01*
X193289756Y-51759636D01*
X193230766Y-51678442D01*
X192484157Y-52425051D01*
X192465925Y-52357007D01*
X192400099Y-52242993D01*
X192307007Y-52149901D01*
X192192993Y-52084075D01*
X192124946Y-52065841D01*
X192871556Y-51319232D01*
X192871556Y-51319230D01*
X192790368Y-51260246D01*
X192578867Y-51152480D01*
X192353129Y-51079133D01*
X192118679Y-51042000D01*
X191881321Y-51042000D01*
X191646870Y-51079133D01*
X191421132Y-51152480D01*
X191209634Y-51260243D01*
X191128442Y-51319231D01*
X191875052Y-52065841D01*
X191807007Y-52084075D01*
X191692993Y-52149901D01*
X191599901Y-52242993D01*
X191534075Y-52357007D01*
X191515841Y-52425052D01*
X190769231Y-51678442D01*
X190710243Y-51759634D01*
X190602480Y-51971132D01*
X190529133Y-52196870D01*
X190492000Y-52431321D01*
X188937509Y-52431321D01*
X188861632Y-52355444D01*
X188861611Y-52355425D01*
X188678790Y-52215141D01*
X188678784Y-52215137D01*
X188479224Y-52099921D01*
X188479213Y-52099916D01*
X188266302Y-52011725D01*
X188266298Y-52011724D01*
X188043698Y-51952078D01*
X187815227Y-51922000D01*
X187454000Y-51922000D01*
X187454000Y-53029988D01*
X186946000Y-53029988D01*
X186946000Y-51922000D01*
X186584772Y-51922000D01*
X186356301Y-51952078D01*
X186133701Y-52011724D01*
X186133697Y-52011725D01*
X185920786Y-52099916D01*
X185920775Y-52099921D01*
X185721215Y-52215137D01*
X185721209Y-52215141D01*
X185538388Y-52355425D01*
X185538367Y-52355444D01*
X185375444Y-52518367D01*
X185375425Y-52518388D01*
X185235141Y-52701209D01*
X185235137Y-52701215D01*
X185119921Y-52900775D01*
X185119916Y-52900786D01*
X185031725Y-53113697D01*
X185031724Y-53113701D01*
X184972078Y-53336302D01*
X184960269Y-53425999D01*
X175701651Y-53425999D01*
X175683246Y-53286198D01*
X175679268Y-53255979D01*
X175679267Y-53255977D01*
X175679267Y-53255973D01*
X175621302Y-53039642D01*
X175535595Y-52832728D01*
X175423614Y-52638772D01*
X175287275Y-52461091D01*
X175287274Y-52461090D01*
X175287265Y-52461080D01*
X175128919Y-52302734D01*
X175128909Y-52302725D01*
X175102844Y-52282725D01*
X174951228Y-52166386D01*
X174951223Y-52166383D01*
X174757283Y-52054411D01*
X174757278Y-52054408D01*
X174757272Y-52054405D01*
X174550358Y-51968698D01*
X174334027Y-51910733D01*
X174334020Y-51910731D01*
X174111983Y-51881500D01*
X174111981Y-51881500D01*
X173888019Y-51881500D01*
X173888016Y-51881500D01*
X173665979Y-51910731D01*
X173511669Y-51952078D01*
X173449642Y-51968698D01*
X173254655Y-52049465D01*
X173242726Y-52054406D01*
X173242716Y-52054411D01*
X173048776Y-52166383D01*
X172871090Y-52302725D01*
X172871080Y-52302734D01*
X172712734Y-52461080D01*
X172712725Y-52461090D01*
X172576383Y-52638776D01*
X172464411Y-52832716D01*
X172464406Y-52832726D01*
X172464405Y-52832728D01*
X172436219Y-52900775D01*
X172378698Y-53039642D01*
X172320731Y-53255979D01*
X172291500Y-53478016D01*
X167274043Y-53478016D01*
X167248355Y-53416000D01*
X168239730Y-53416000D01*
X168239730Y-53415999D01*
X168227921Y-53326302D01*
X168168275Y-53103701D01*
X168168274Y-53103697D01*
X168080083Y-52890786D01*
X168080078Y-52890775D01*
X167964862Y-52691215D01*
X167964858Y-52691209D01*
X167824574Y-52508388D01*
X167824555Y-52508367D01*
X167661632Y-52345444D01*
X167661611Y-52345425D01*
X167478790Y-52205141D01*
X167478784Y-52205137D01*
X167279224Y-52089921D01*
X167279213Y-52089916D01*
X167066302Y-52001725D01*
X167066298Y-52001724D01*
X166843698Y-51942078D01*
X166615227Y-51912000D01*
X166254000Y-51912000D01*
X166254000Y-53019988D01*
X165746000Y-53019988D01*
X165746000Y-51912000D01*
X165384772Y-51912000D01*
X165156301Y-51942078D01*
X164933701Y-52001724D01*
X164933697Y-52001725D01*
X164720786Y-52089916D01*
X164720775Y-52089921D01*
X164521215Y-52205137D01*
X164521209Y-52205141D01*
X164338388Y-52345425D01*
X164338367Y-52345444D01*
X164175444Y-52508367D01*
X164175425Y-52508388D01*
X164035141Y-52691209D01*
X164035137Y-52691215D01*
X163919921Y-52890775D01*
X163919916Y-52890786D01*
X163831725Y-53103697D01*
X163831724Y-53103701D01*
X163772078Y-53326302D01*
X163760269Y-53415999D01*
X154302968Y-53415999D01*
X154281900Y-53255973D01*
X154279268Y-53235979D01*
X154279267Y-53235977D01*
X154279267Y-53235973D01*
X154221302Y-53019642D01*
X154135595Y-52812728D01*
X154023614Y-52618772D01*
X153887275Y-52441091D01*
X153887274Y-52441090D01*
X153887265Y-52441080D01*
X153728919Y-52282734D01*
X153728909Y-52282725D01*
X153716997Y-52273585D01*
X153551228Y-52146386D01*
X153516582Y-52126383D01*
X153357283Y-52034411D01*
X153357278Y-52034408D01*
X153357272Y-52034405D01*
X153150358Y-51948698D01*
X152934027Y-51890733D01*
X152934020Y-51890731D01*
X152711983Y-51861500D01*
X152711981Y-51861500D01*
X152488019Y-51861500D01*
X152488016Y-51861500D01*
X152265979Y-51890731D01*
X152074348Y-51942078D01*
X152049642Y-51948698D01*
X151971053Y-51981251D01*
X151842726Y-52034406D01*
X151842716Y-52034411D01*
X151648776Y-52146383D01*
X151648772Y-52146385D01*
X151648772Y-52146386D01*
X151634058Y-52157676D01*
X151471090Y-52282725D01*
X151471080Y-52282734D01*
X151312734Y-52441080D01*
X151312725Y-52441090D01*
X151176383Y-52618776D01*
X151064411Y-52812716D01*
X151064406Y-52812726D01*
X151064405Y-52812728D01*
X151024441Y-52909210D01*
X150978698Y-53019642D01*
X150920731Y-53235979D01*
X150891500Y-53458016D01*
X146848399Y-53458016D01*
X146831058Y-53326302D01*
X146828412Y-53306205D01*
X146828411Y-53306204D01*
X146828411Y-53306198D01*
X146768749Y-53083536D01*
X146680535Y-52870567D01*
X146565276Y-52670934D01*
X146424947Y-52488053D01*
X146424946Y-52488052D01*
X146424937Y-52488042D01*
X146261957Y-52325062D01*
X146261947Y-52325053D01*
X146079066Y-52184724D01*
X146064619Y-52176383D01*
X145879444Y-52069471D01*
X145879439Y-52069468D01*
X145879433Y-52069465D01*
X145666464Y-51981251D01*
X145443802Y-51921589D01*
X145443800Y-51921588D01*
X145443794Y-51921587D01*
X145215260Y-51891500D01*
X145215258Y-51891500D01*
X143984742Y-51891500D01*
X143984739Y-51891500D01*
X143756205Y-51921587D01*
X143571301Y-51971132D01*
X143533536Y-51981251D01*
X143356926Y-52054405D01*
X143320565Y-52069466D01*
X143320555Y-52069471D01*
X143120938Y-52184721D01*
X142938052Y-52325053D01*
X142938042Y-52325062D01*
X142775062Y-52488042D01*
X142775053Y-52488052D01*
X142634721Y-52670938D01*
X142519471Y-52870555D01*
X142519466Y-52870565D01*
X142519465Y-52870567D01*
X142503459Y-52909210D01*
X142431251Y-53083536D01*
X142371587Y-53306205D01*
X142341500Y-53534739D01*
X132308500Y-53534739D01*
X132308500Y-53438019D01*
X132279267Y-53215973D01*
X132221302Y-52999642D01*
X132135595Y-52792728D01*
X132023614Y-52598772D01*
X131887275Y-52421091D01*
X131887274Y-52421090D01*
X131887265Y-52421080D01*
X131728919Y-52262734D01*
X131728909Y-52262725D01*
X131658240Y-52208499D01*
X131551228Y-52126386D01*
X131551223Y-52126383D01*
X131357283Y-52014411D01*
X131357278Y-52014408D01*
X131357272Y-52014405D01*
X131150358Y-51928698D01*
X131002605Y-51889108D01*
X130934020Y-51870731D01*
X130711983Y-51841500D01*
X130711981Y-51841500D01*
X130597629Y-51841500D01*
X130529508Y-51821498D01*
X130483015Y-51767842D01*
X130472911Y-51697568D01*
X130481221Y-51667281D01*
X130523584Y-51565007D01*
X130523583Y-51565007D01*
X130523587Y-51565000D01*
X130558500Y-51389479D01*
X130558500Y-51210521D01*
X130558499Y-51210518D01*
X132391500Y-51210518D01*
X132391500Y-51210521D01*
X132391500Y-51389479D01*
X132426413Y-51565000D01*
X132494898Y-51730336D01*
X132594322Y-51879135D01*
X132720865Y-52005678D01*
X132869664Y-52105102D01*
X133035000Y-52173587D01*
X133210521Y-52208500D01*
X133210522Y-52208500D01*
X133389478Y-52208500D01*
X133389479Y-52208500D01*
X133565000Y-52173587D01*
X133730336Y-52105102D01*
X133879135Y-52005678D01*
X134005678Y-51879135D01*
X134105102Y-51730336D01*
X134173587Y-51565000D01*
X134208500Y-51389479D01*
X134208500Y-51310518D01*
X138891500Y-51310518D01*
X138891500Y-51489481D01*
X138906523Y-51565007D01*
X138926413Y-51665000D01*
X138994898Y-51830336D01*
X139094322Y-51979135D01*
X139220865Y-52105678D01*
X139369664Y-52205102D01*
X139535000Y-52273587D01*
X139710521Y-52308500D01*
X139710522Y-52308500D01*
X139889478Y-52308500D01*
X139889479Y-52308500D01*
X140065000Y-52273587D01*
X140230336Y-52205102D01*
X140379135Y-52105678D01*
X140505678Y-51979135D01*
X140605102Y-51830336D01*
X140673587Y-51665000D01*
X140708500Y-51489479D01*
X140708500Y-51310521D01*
X140673587Y-51135000D01*
X140605102Y-50969664D01*
X140505678Y-50820865D01*
X140379135Y-50694322D01*
X140230336Y-50594898D01*
X140113429Y-50546473D01*
X140065003Y-50526414D01*
X140065001Y-50526413D01*
X140065000Y-50526413D01*
X139976645Y-50508838D01*
X139889481Y-50491500D01*
X139889479Y-50491500D01*
X139710521Y-50491500D01*
X139710518Y-50491500D01*
X139579771Y-50517507D01*
X139535000Y-50526413D01*
X139534999Y-50526413D01*
X139534996Y-50526414D01*
X139369662Y-50594899D01*
X139220869Y-50694319D01*
X139220862Y-50694324D01*
X139094324Y-50820862D01*
X139094319Y-50820869D01*
X138994899Y-50969662D01*
X138926414Y-51134996D01*
X138891500Y-51310518D01*
X134208500Y-51310518D01*
X134208500Y-51210521D01*
X134173587Y-51035000D01*
X134105102Y-50869664D01*
X134005678Y-50720865D01*
X133879135Y-50594322D01*
X133730336Y-50494898D01*
X133613429Y-50446473D01*
X133565003Y-50426414D01*
X133565001Y-50426413D01*
X133565000Y-50426413D01*
X133476645Y-50408838D01*
X133389481Y-50391500D01*
X133389479Y-50391500D01*
X133210521Y-50391500D01*
X133210518Y-50391500D01*
X133079771Y-50417507D01*
X133035000Y-50426413D01*
X133034999Y-50426413D01*
X133034996Y-50426414D01*
X132903902Y-50480716D01*
X132877868Y-50491500D01*
X132869662Y-50494899D01*
X132720869Y-50594319D01*
X132720862Y-50594324D01*
X132594324Y-50720862D01*
X132594319Y-50720869D01*
X132494899Y-50869662D01*
X132426414Y-51034996D01*
X132391500Y-51210518D01*
X130558499Y-51210518D01*
X130523587Y-51035000D01*
X130455102Y-50869664D01*
X130355678Y-50720865D01*
X130229135Y-50594322D01*
X130080336Y-50494898D01*
X129963429Y-50446473D01*
X129915003Y-50426414D01*
X129915001Y-50426413D01*
X129915000Y-50426413D01*
X129826645Y-50408838D01*
X129739481Y-50391500D01*
X129739479Y-50391500D01*
X129560521Y-50391500D01*
X129560518Y-50391500D01*
X129429771Y-50417507D01*
X129385000Y-50426413D01*
X129384999Y-50426413D01*
X129384996Y-50426414D01*
X129253902Y-50480716D01*
X129227868Y-50491500D01*
X129219662Y-50494899D01*
X129070869Y-50594319D01*
X129070862Y-50594324D01*
X128944324Y-50720862D01*
X128944319Y-50720869D01*
X128844899Y-50869662D01*
X128776414Y-51034996D01*
X128741500Y-51210518D01*
X110700500Y-51210518D01*
X110700500Y-49930600D01*
X110720502Y-49862479D01*
X110774158Y-49815986D01*
X110826500Y-49804600D01*
X198173500Y-49804600D01*
X198241621Y-49824602D01*
G37*
%TD.AperFunction*%
%TD*%
%TA.AperFunction,NonConductor*%
G36*
X135942121Y-42020002D02*
G01*
X135988614Y-42073658D01*
X136000000Y-42126000D01*
X136000000Y-48374000D01*
X135979998Y-48442121D01*
X135926342Y-48488614D01*
X135874000Y-48500000D01*
X129626000Y-48500000D01*
X129557879Y-48479998D01*
X129511386Y-48426342D01*
X129500000Y-48374000D01*
X129500000Y-42126000D01*
X129520002Y-42057879D01*
X129573658Y-42011386D01*
X129626000Y-42000000D01*
X135874000Y-42000000D01*
X135942121Y-42020002D01*
G37*
%TD.AperFunction*%
%TA.AperFunction,NonConductor*%
G36*
X158942121Y-42520002D02*
G01*
X158988614Y-42573658D01*
X159000000Y-42626000D01*
X159000000Y-48874000D01*
X158979998Y-48942121D01*
X158926342Y-48988614D01*
X158874000Y-49000000D01*
X150626000Y-49000000D01*
X150557879Y-48979998D01*
X150511386Y-48926342D01*
X150500000Y-48874000D01*
X150500000Y-46000000D01*
X148626000Y-46000000D01*
X148557879Y-45979998D01*
X148511386Y-45926342D01*
X148500000Y-45874000D01*
X148500000Y-42626000D01*
X148520002Y-42557879D01*
X148573658Y-42511386D01*
X148626000Y-42500000D01*
X158874000Y-42500000D01*
X158942121Y-42520002D01*
G37*
%TD.AperFunction*%
%TA.AperFunction,NonConductor*%
G36*
X187442121Y-131770002D02*
G01*
X187488614Y-131823658D01*
X187500000Y-131876000D01*
X187500000Y-133250000D01*
X192124000Y-133250000D01*
X192192121Y-133270002D01*
X192238614Y-133323658D01*
X192250000Y-133376000D01*
X192250000Y-134874000D01*
X192229998Y-134942121D01*
X192176342Y-134988614D01*
X192124000Y-135000000D01*
X160876000Y-135000000D01*
X160807879Y-134979998D01*
X160761386Y-134926342D01*
X160750000Y-134874000D01*
X160750000Y-133376000D01*
X160770002Y-133307879D01*
X160823658Y-133261386D01*
X160876000Y-133250000D01*
X168500000Y-133250000D01*
X168500000Y-131876000D01*
X168520002Y-131807879D01*
X168573658Y-131761386D01*
X168626000Y-131750000D01*
X187374000Y-131750000D01*
X187442121Y-131770002D01*
G37*
%TD.AperFunction*%
M02*
