M48
; DRILL file {KiCad 9.0.0} date 2025-03-28T16:48:43-0700
; FORMAT={-:-/ absolute / inch / decimal}
; #@! TF.CreationDate,2025-03-28T16:48:43-07:00
; #@! TF.GenerationSoftware,Kicad,Pcbnew,9.0.0
; #@! TF.FileFunction,Plated,1,4,PTH
FMAT,2
INCH
; #@! TA.AperFunction,Plated,PTH,ViaDrill
T1C0.0157
; #@! TA.AperFunction,Plated,PTH,ComponentDrill
T2C0.0394
; #@! TA.AperFunction,Plated,PTH,ComponentDrill
T3C0.0512
; #@! TA.AperFunction,Plated,PTH,ComponentDrill
T4C0.0728
; #@! TA.AperFunction,Plated,PTH,ComponentDrill
T5C0.0945
; #@! TA.AperFunction,Plated,PTH,ComponentDrill
T6C0.1260
; #@! TA.AperFunction,Plated,PTH,ComponentDrill
T7C0.1299
%
G90
G05
T1
X4.6575Y-4.6024
X4.7323Y-4.8543
X4.752Y-4.3071
X4.7795Y-2.5079
X4.7992Y-2.315
X4.9882Y-2.5157
X5.0118Y-4.5512
X5.0284Y-2.0722
X5.1102Y-4.3898
X5.122Y-2.315
X5.1693Y-4.8425
X5.248Y-2.0197
X5.2992Y-2.2008
X5.3071Y-4.7244
X5.3937Y-4.5472
X5.5039Y-2.0236
X5.5118Y-4.8189
X5.5197Y-2.1969
X5.5827Y-4.6811
X5.689Y-3.8071
X5.689Y-3.8465
X5.689Y-3.8819
X5.689Y-3.9213
X5.689Y-3.9646
X5.689Y-4.6457
X5.6929Y-4.5354
X5.7874Y-2.3622
X5.7949Y-3.6733
X5.8071Y-4.248
X5.8189Y-4.6457
X5.8228Y-3.9134
X5.8545Y-3.7507
X5.9134Y-3.937
X5.9476Y-2.2421
X5.9528Y-2.5079
X5.9547Y-3.6811
X6.0315Y-3.9409
X6.0354Y-3.8661
X6.0472Y-2.7205
X6.0472Y-2.9094
X6.0472Y-3.1654
X6.0551Y-3.0827
X6.0787Y-3.7106
X6.0866Y-2.3543
X6.2205Y-3.1772
X6.2234Y-3.3258
X6.2244Y-2.7283
X6.2283Y-2.9016
X6.2283Y-3.0787
X6.248Y-3.8976
X6.249Y-3.3002
X6.2677Y-4.752
X6.2746Y-3.2746
X6.2963Y-3.253
X6.3031Y-3.8504
X6.3307Y-4.563
X6.3504Y-3.7953
X6.4449Y-2.815
X6.4449Y-2.9606
X6.4449Y-3.0551
X6.4449Y-3.1575
X6.4449Y-3.2165
X6.4488Y-2.8898
X6.5157Y-2.4961
X6.626Y-3.2717
X6.6654Y-2.5197
X6.6654Y-2.8937
X6.6654Y-3.1299
X6.6693Y-3.2126
X6.6732Y-3.0551
X6.6772Y-2.8228
X6.6811Y-2.9882
X6.8898Y-5.0079
X6.895Y-4.8341
X7.0472Y-4.7913
X7.1929Y-4.2795
X7.2008Y-4.9213
X7.5157Y-4.2756
T2
X4.4433Y-4.878
X4.4488Y-4.7244
X7.5492Y-4.9311
X7.687Y-2.0768
T4
X4.8819Y-2.0866
X4.8819Y-2.7165
X4.9071Y-4.3012
X4.9071Y-4.9311
X7.3622Y-2.0866
X7.3622Y-2.7165
X7.3622Y-4.3012
X7.3622Y-4.9311
T5
X5.3937Y-4.9287
X6.2598Y-4.9287
T6
X4.5079Y-5.1783
X7.6575Y-5.1783
T7
X5.3937Y-2.4327
X6.0236Y-4.6059
X6.2598Y-2.4327
X6.8898Y-4.6059
T3
G00X5.6831Y-2.113
M15
G01X5.7343Y-2.113
M16
G05
G00X5.6831Y-4.9256
M15
G01X5.7343Y-4.9256
M16
G05
G00X6.5492Y-2.113
M15
G01X6.6004Y-2.113
M16
G05
G00X6.5492Y-4.9256
M15
G01X6.6004Y-4.9256
M16
G05
M30
