%TF.GenerationSoftware,KiCad,Pcbnew,9.0.0*%
%TF.CreationDate,2025-03-28T16:48:43-07:00*%
%TF.ProjectId,battery_pack_v1,62617474-6572-4795-9f70-61636b5f7631,rev?*%
%TF.SameCoordinates,Original*%
%TF.FileFunction,Soldermask,Bot*%
%TF.FilePolarity,Negative*%
%FSLAX46Y46*%
G04 Gerber Fmt 4.6, Leading zero omitted, Abs format (unit mm)*
G04 Created by KiCad (PCBNEW 9.0.0) date 2025-03-28 16:48:43*
%MOMM*%
%LPD*%
G01*
G04 APERTURE LIST*
G04 Aperture macros list*
%AMRoundRect*
0 Rectangle with rounded corners*
0 $1 Rounding radius*
0 $2 $3 $4 $5 $6 $7 $8 $9 X,Y pos of 4 corners*
0 Add a 4 corners polygon primitive as box body*
4,1,4,$2,$3,$4,$5,$6,$7,$8,$9,$2,$3,0*
0 Add four circle primitives for the rounded corners*
1,1,$1+$1,$2,$3*
1,1,$1+$1,$4,$5*
1,1,$1+$1,$6,$7*
1,1,$1+$1,$8,$9*
0 Add four rect primitives between the rounded corners*
20,1,$1+$1,$2,$3,$4,$5,0*
20,1,$1+$1,$4,$5,$6,$7,0*
20,1,$1+$1,$6,$7,$8,$9,0*
20,1,$1+$1,$8,$9,$2,$3,0*%
G04 Aperture macros list end*
%ADD10C,0.150000*%
%ADD11C,0.500000*%
%ADD12C,0.000000*%
%ADD13C,5.000000*%
%ADD14C,1.850000*%
%ADD15C,2.000000*%
%ADD16C,3.300000*%
%ADD17C,2.400000*%
%ADD18O,3.500000X2.500000*%
%ADD19RoundRect,0.150000X-0.825000X-0.150000X0.825000X-0.150000X0.825000X0.150000X-0.825000X0.150000X0*%
%ADD20RoundRect,0.200000X0.200000X0.275000X-0.200000X0.275000X-0.200000X-0.275000X0.200000X-0.275000X0*%
%ADD21RoundRect,0.150000X0.512500X0.150000X-0.512500X0.150000X-0.512500X-0.150000X0.512500X-0.150000X0*%
%ADD22RoundRect,0.250000X-0.362500X-1.425000X0.362500X-1.425000X0.362500X1.425000X-0.362500X1.425000X0*%
%ADD23RoundRect,0.225000X-0.225000X-0.250000X0.225000X-0.250000X0.225000X0.250000X-0.225000X0.250000X0*%
%ADD24RoundRect,0.200000X-0.200000X-0.275000X0.200000X-0.275000X0.200000X0.275000X-0.200000X0.275000X0*%
%ADD25R,2.500000X1.100000*%
%ADD26R,2.200000X2.000000*%
G04 APERTURE END LIST*
D10*
X193457397Y-45864308D02*
G75*
G02*
X188042603Y-45864308I-2707397J0D01*
G01*
X188042603Y-45864308D02*
G75*
G02*
X193457397Y-45864308I2707397J0D01*
G01*
X117793079Y-48564936D02*
X113993079Y-48558429D01*
X190743079Y-43092944D02*
X194543079Y-43086437D01*
X190750000Y-43167561D02*
X194550000Y-43161054D01*
X113942531Y-43067561D02*
X117742531Y-43061054D01*
X197242408Y-45889606D02*
G75*
G02*
X191857592Y-45889606I-2692408J0D01*
G01*
X191857592Y-45889606D02*
G75*
G02*
X197242408Y-45889606I2692408J0D01*
G01*
X116650476Y-45861683D02*
G75*
G02*
X111235682Y-45861683I-2707397J0D01*
G01*
X111235682Y-45861683D02*
G75*
G02*
X116650476Y-45861683I2707397J0D01*
G01*
X120435487Y-45886981D02*
G75*
G02*
X115050671Y-45886981I-2692408J0D01*
G01*
X115050671Y-45886981D02*
G75*
G02*
X120435487Y-45886981I2692408J0D01*
G01*
X116649928Y-45764308D02*
G75*
G02*
X111235134Y-45764308I-2707397J0D01*
G01*
X111235134Y-45764308D02*
G75*
G02*
X116649928Y-45764308I2707397J0D01*
G01*
X193450476Y-45789691D02*
G75*
G02*
X188035682Y-45789691I-2707397J0D01*
G01*
X188035682Y-45789691D02*
G75*
G02*
X193450476Y-45789691I2707397J0D01*
G01*
X113943079Y-43164936D02*
X117743079Y-43158429D01*
X120434939Y-45789606D02*
G75*
G02*
X115050123Y-45789606I-2692408J0D01*
G01*
X115050123Y-45789606D02*
G75*
G02*
X120434939Y-45789606I2692408J0D01*
G01*
X194600000Y-48567561D02*
X190800000Y-48561054D01*
X197235487Y-45814989D02*
G75*
G02*
X191850671Y-45814989I-2692408J0D01*
G01*
X191850671Y-45814989D02*
G75*
G02*
X197235487Y-45814989I2692408J0D01*
G01*
X117792531Y-48467561D02*
X113992531Y-48461054D01*
X194593079Y-48492944D02*
X190793079Y-48486437D01*
D11*
X158278056Y-44742257D02*
X156420913Y-44742257D01*
X156420913Y-44742257D02*
X157420913Y-45885114D01*
X157420913Y-45885114D02*
X156992342Y-45885114D01*
X156992342Y-45885114D02*
X156706628Y-46027971D01*
X156706628Y-46027971D02*
X156563770Y-46170828D01*
X156563770Y-46170828D02*
X156420913Y-46456542D01*
X156420913Y-46456542D02*
X156420913Y-47170828D01*
X156420913Y-47170828D02*
X156563770Y-47456542D01*
X156563770Y-47456542D02*
X156706628Y-47599400D01*
X156706628Y-47599400D02*
X156992342Y-47742257D01*
X156992342Y-47742257D02*
X157849485Y-47742257D01*
X157849485Y-47742257D02*
X158135199Y-47599400D01*
X158135199Y-47599400D02*
X158278056Y-47456542D01*
X155135199Y-47742257D02*
X155135199Y-44742257D01*
X155135199Y-44742257D02*
X153992342Y-44742257D01*
X153992342Y-44742257D02*
X153706627Y-44885114D01*
X153706627Y-44885114D02*
X153563770Y-45027971D01*
X153563770Y-45027971D02*
X153420913Y-45313685D01*
X153420913Y-45313685D02*
X153420913Y-45742257D01*
X153420913Y-45742257D02*
X153563770Y-46027971D01*
X153563770Y-46027971D02*
X153706627Y-46170828D01*
X153706627Y-46170828D02*
X153992342Y-46313685D01*
X153992342Y-46313685D02*
X155135199Y-46313685D01*
X152420913Y-45742257D02*
X151706627Y-47742257D01*
X150992342Y-45742257D02*
X151706627Y-47742257D01*
X151706627Y-47742257D02*
X151992342Y-48456542D01*
X151992342Y-48456542D02*
X152135199Y-48599400D01*
X152135199Y-48599400D02*
X152420913Y-48742257D01*
X150279028Y-43387314D02*
X150183790Y-43292076D01*
X150183790Y-43292076D02*
X149993314Y-43196838D01*
X149993314Y-43196838D02*
X149517123Y-43196838D01*
X149517123Y-43196838D02*
X149326647Y-43292076D01*
X149326647Y-43292076D02*
X149231409Y-43387314D01*
X149231409Y-43387314D02*
X149136171Y-43577790D01*
X149136171Y-43577790D02*
X149136171Y-43768266D01*
X149136171Y-43768266D02*
X149231409Y-44053980D01*
X149231409Y-44053980D02*
X150374266Y-45196838D01*
X150374266Y-45196838D02*
X149136171Y-45196838D01*
D10*
X188028572Y-132908557D02*
X188028572Y-132008557D01*
X188028572Y-132008557D02*
X187685715Y-132008557D01*
X187685715Y-132008557D02*
X187600000Y-132051414D01*
X187600000Y-132051414D02*
X187557143Y-132094271D01*
X187557143Y-132094271D02*
X187514286Y-132179985D01*
X187514286Y-132179985D02*
X187514286Y-132308557D01*
X187514286Y-132308557D02*
X187557143Y-132394271D01*
X187557143Y-132394271D02*
X187600000Y-132437128D01*
X187600000Y-132437128D02*
X187685715Y-132479985D01*
X187685715Y-132479985D02*
X188028572Y-132479985D01*
X186957143Y-132479985D02*
X186957143Y-132908557D01*
X187257143Y-132008557D02*
X186957143Y-132479985D01*
X186957143Y-132479985D02*
X186657143Y-132008557D01*
X186400000Y-132865700D02*
X186271429Y-132908557D01*
X186271429Y-132908557D02*
X186057143Y-132908557D01*
X186057143Y-132908557D02*
X185971429Y-132865700D01*
X185971429Y-132865700D02*
X185928571Y-132822842D01*
X185928571Y-132822842D02*
X185885714Y-132737128D01*
X185885714Y-132737128D02*
X185885714Y-132651414D01*
X185885714Y-132651414D02*
X185928571Y-132565700D01*
X185928571Y-132565700D02*
X185971429Y-132522842D01*
X185971429Y-132522842D02*
X186057143Y-132479985D01*
X186057143Y-132479985D02*
X186228571Y-132437128D01*
X186228571Y-132437128D02*
X186314286Y-132394271D01*
X186314286Y-132394271D02*
X186357143Y-132351414D01*
X186357143Y-132351414D02*
X186400000Y-132265700D01*
X186400000Y-132265700D02*
X186400000Y-132179985D01*
X186400000Y-132179985D02*
X186357143Y-132094271D01*
X186357143Y-132094271D02*
X186314286Y-132051414D01*
X186314286Y-132051414D02*
X186228571Y-132008557D01*
X186228571Y-132008557D02*
X186014286Y-132008557D01*
X186014286Y-132008557D02*
X185885714Y-132051414D01*
X184900000Y-132994271D02*
X184985714Y-132951414D01*
X184985714Y-132951414D02*
X185071428Y-132865700D01*
X185071428Y-132865700D02*
X185200000Y-132737128D01*
X185200000Y-132737128D02*
X185285714Y-132694271D01*
X185285714Y-132694271D02*
X185371428Y-132694271D01*
X185328571Y-132908557D02*
X185414286Y-132865700D01*
X185414286Y-132865700D02*
X185500000Y-132779985D01*
X185500000Y-132779985D02*
X185542857Y-132608557D01*
X185542857Y-132608557D02*
X185542857Y-132308557D01*
X185542857Y-132308557D02*
X185500000Y-132137128D01*
X185500000Y-132137128D02*
X185414286Y-132051414D01*
X185414286Y-132051414D02*
X185328571Y-132008557D01*
X185328571Y-132008557D02*
X185157143Y-132008557D01*
X185157143Y-132008557D02*
X185071428Y-132051414D01*
X185071428Y-132051414D02*
X184985714Y-132137128D01*
X184985714Y-132137128D02*
X184942857Y-132308557D01*
X184942857Y-132308557D02*
X184942857Y-132608557D01*
X184942857Y-132608557D02*
X184985714Y-132779985D01*
X184985714Y-132779985D02*
X185071428Y-132865700D01*
X185071428Y-132865700D02*
X185157143Y-132908557D01*
X185157143Y-132908557D02*
X185328571Y-132908557D01*
X184557143Y-132008557D02*
X184557143Y-132737128D01*
X184557143Y-132737128D02*
X184514286Y-132822842D01*
X184514286Y-132822842D02*
X184471429Y-132865700D01*
X184471429Y-132865700D02*
X184385714Y-132908557D01*
X184385714Y-132908557D02*
X184214286Y-132908557D01*
X184214286Y-132908557D02*
X184128571Y-132865700D01*
X184128571Y-132865700D02*
X184085714Y-132822842D01*
X184085714Y-132822842D02*
X184042857Y-132737128D01*
X184042857Y-132737128D02*
X184042857Y-132008557D01*
X183657143Y-132651414D02*
X183228572Y-132651414D01*
X183742857Y-132908557D02*
X183442857Y-132008557D01*
X183442857Y-132008557D02*
X183142857Y-132908557D01*
X182328571Y-132908557D02*
X182628571Y-132479985D01*
X182842857Y-132908557D02*
X182842857Y-132008557D01*
X182842857Y-132008557D02*
X182500000Y-132008557D01*
X182500000Y-132008557D02*
X182414285Y-132051414D01*
X182414285Y-132051414D02*
X182371428Y-132094271D01*
X182371428Y-132094271D02*
X182328571Y-132179985D01*
X182328571Y-132179985D02*
X182328571Y-132308557D01*
X182328571Y-132308557D02*
X182371428Y-132394271D01*
X182371428Y-132394271D02*
X182414285Y-132437128D01*
X182414285Y-132437128D02*
X182500000Y-132479985D01*
X182500000Y-132479985D02*
X182842857Y-132479985D01*
X181942857Y-132437128D02*
X181642857Y-132437128D01*
X181514285Y-132908557D02*
X181942857Y-132908557D01*
X181942857Y-132908557D02*
X181942857Y-132008557D01*
X181942857Y-132008557D02*
X181514285Y-132008557D01*
X181128571Y-132908557D02*
X181128571Y-132008557D01*
X181128571Y-132008557D02*
X180914285Y-132008557D01*
X180914285Y-132008557D02*
X180785714Y-132051414D01*
X180785714Y-132051414D02*
X180699999Y-132137128D01*
X180699999Y-132137128D02*
X180657142Y-132222842D01*
X180657142Y-132222842D02*
X180614285Y-132394271D01*
X180614285Y-132394271D02*
X180614285Y-132522842D01*
X180614285Y-132522842D02*
X180657142Y-132694271D01*
X180657142Y-132694271D02*
X180699999Y-132779985D01*
X180699999Y-132779985D02*
X180785714Y-132865700D01*
X180785714Y-132865700D02*
X180914285Y-132908557D01*
X180914285Y-132908557D02*
X181128571Y-132908557D01*
X179242857Y-132437128D02*
X179114285Y-132479985D01*
X179114285Y-132479985D02*
X179071428Y-132522842D01*
X179071428Y-132522842D02*
X179028571Y-132608557D01*
X179028571Y-132608557D02*
X179028571Y-132737128D01*
X179028571Y-132737128D02*
X179071428Y-132822842D01*
X179071428Y-132822842D02*
X179114285Y-132865700D01*
X179114285Y-132865700D02*
X179200000Y-132908557D01*
X179200000Y-132908557D02*
X179542857Y-132908557D01*
X179542857Y-132908557D02*
X179542857Y-132008557D01*
X179542857Y-132008557D02*
X179242857Y-132008557D01*
X179242857Y-132008557D02*
X179157143Y-132051414D01*
X179157143Y-132051414D02*
X179114285Y-132094271D01*
X179114285Y-132094271D02*
X179071428Y-132179985D01*
X179071428Y-132179985D02*
X179071428Y-132265700D01*
X179071428Y-132265700D02*
X179114285Y-132351414D01*
X179114285Y-132351414D02*
X179157143Y-132394271D01*
X179157143Y-132394271D02*
X179242857Y-132437128D01*
X179242857Y-132437128D02*
X179542857Y-132437128D01*
X178685714Y-132651414D02*
X178257143Y-132651414D01*
X178771428Y-132908557D02*
X178471428Y-132008557D01*
X178471428Y-132008557D02*
X178171428Y-132908557D01*
X177999999Y-132008557D02*
X177485714Y-132008557D01*
X177742856Y-132908557D02*
X177742856Y-132008557D01*
X177314285Y-132008557D02*
X176800000Y-132008557D01*
X177057142Y-132908557D02*
X177057142Y-132008557D01*
X176500000Y-132437128D02*
X176200000Y-132437128D01*
X176071428Y-132908557D02*
X176500000Y-132908557D01*
X176500000Y-132908557D02*
X176500000Y-132008557D01*
X176500000Y-132008557D02*
X176071428Y-132008557D01*
X175171428Y-132908557D02*
X175471428Y-132479985D01*
X175685714Y-132908557D02*
X175685714Y-132008557D01*
X175685714Y-132008557D02*
X175342857Y-132008557D01*
X175342857Y-132008557D02*
X175257142Y-132051414D01*
X175257142Y-132051414D02*
X175214285Y-132094271D01*
X175214285Y-132094271D02*
X175171428Y-132179985D01*
X175171428Y-132179985D02*
X175171428Y-132308557D01*
X175171428Y-132308557D02*
X175214285Y-132394271D01*
X175214285Y-132394271D02*
X175257142Y-132437128D01*
X175257142Y-132437128D02*
X175342857Y-132479985D01*
X175342857Y-132479985D02*
X175685714Y-132479985D01*
X174614285Y-132479985D02*
X174614285Y-132908557D01*
X174914285Y-132008557D02*
X174614285Y-132479985D01*
X174614285Y-132479985D02*
X174314285Y-132008557D01*
X173328571Y-132908557D02*
X173328571Y-132008557D01*
X173328571Y-132008557D02*
X172985714Y-132008557D01*
X172985714Y-132008557D02*
X172899999Y-132051414D01*
X172899999Y-132051414D02*
X172857142Y-132094271D01*
X172857142Y-132094271D02*
X172814285Y-132179985D01*
X172814285Y-132179985D02*
X172814285Y-132308557D01*
X172814285Y-132308557D02*
X172857142Y-132394271D01*
X172857142Y-132394271D02*
X172899999Y-132437128D01*
X172899999Y-132437128D02*
X172985714Y-132479985D01*
X172985714Y-132479985D02*
X173328571Y-132479985D01*
X172471428Y-132651414D02*
X172042857Y-132651414D01*
X172557142Y-132908557D02*
X172257142Y-132008557D01*
X172257142Y-132008557D02*
X171957142Y-132908557D01*
X171142856Y-132822842D02*
X171185713Y-132865700D01*
X171185713Y-132865700D02*
X171314285Y-132908557D01*
X171314285Y-132908557D02*
X171399999Y-132908557D01*
X171399999Y-132908557D02*
X171528570Y-132865700D01*
X171528570Y-132865700D02*
X171614285Y-132779985D01*
X171614285Y-132779985D02*
X171657142Y-132694271D01*
X171657142Y-132694271D02*
X171699999Y-132522842D01*
X171699999Y-132522842D02*
X171699999Y-132394271D01*
X171699999Y-132394271D02*
X171657142Y-132222842D01*
X171657142Y-132222842D02*
X171614285Y-132137128D01*
X171614285Y-132137128D02*
X171528570Y-132051414D01*
X171528570Y-132051414D02*
X171399999Y-132008557D01*
X171399999Y-132008557D02*
X171314285Y-132008557D01*
X171314285Y-132008557D02*
X171185713Y-132051414D01*
X171185713Y-132051414D02*
X171142856Y-132094271D01*
X170757142Y-132908557D02*
X170757142Y-132008557D01*
X170242856Y-132908557D02*
X170628570Y-132394271D01*
X170242856Y-132008557D02*
X170757142Y-132522842D01*
X169299999Y-132008557D02*
X168999999Y-132908557D01*
X168999999Y-132908557D02*
X168699999Y-132008557D01*
X167928570Y-132908557D02*
X168442856Y-132908557D01*
X168185713Y-132908557D02*
X168185713Y-132008557D01*
X168185713Y-132008557D02*
X168271427Y-132137128D01*
X168271427Y-132137128D02*
X168357142Y-132222842D01*
X168357142Y-132222842D02*
X168442856Y-132265700D01*
X192023810Y-134454819D02*
X192023810Y-133454819D01*
X192023810Y-133931009D02*
X191452382Y-133931009D01*
X191452382Y-134454819D02*
X191452382Y-133454819D01*
X190595239Y-134407200D02*
X190690477Y-134454819D01*
X190690477Y-134454819D02*
X190880953Y-134454819D01*
X190880953Y-134454819D02*
X190976191Y-134407200D01*
X190976191Y-134407200D02*
X191023810Y-134311961D01*
X191023810Y-134311961D02*
X191023810Y-133931009D01*
X191023810Y-133931009D02*
X190976191Y-133835771D01*
X190976191Y-133835771D02*
X190880953Y-133788152D01*
X190880953Y-133788152D02*
X190690477Y-133788152D01*
X190690477Y-133788152D02*
X190595239Y-133835771D01*
X190595239Y-133835771D02*
X190547620Y-133931009D01*
X190547620Y-133931009D02*
X190547620Y-134026247D01*
X190547620Y-134026247D02*
X191023810Y-134121485D01*
X189976191Y-134454819D02*
X190071429Y-134407200D01*
X190071429Y-134407200D02*
X190119048Y-134311961D01*
X190119048Y-134311961D02*
X190119048Y-133454819D01*
X189166667Y-134454819D02*
X189166667Y-133454819D01*
X189166667Y-134407200D02*
X189261905Y-134454819D01*
X189261905Y-134454819D02*
X189452381Y-134454819D01*
X189452381Y-134454819D02*
X189547619Y-134407200D01*
X189547619Y-134407200D02*
X189595238Y-134359580D01*
X189595238Y-134359580D02*
X189642857Y-134264342D01*
X189642857Y-134264342D02*
X189642857Y-133978628D01*
X189642857Y-133978628D02*
X189595238Y-133883390D01*
X189595238Y-133883390D02*
X189547619Y-133835771D01*
X189547619Y-133835771D02*
X189452381Y-133788152D01*
X189452381Y-133788152D02*
X189261905Y-133788152D01*
X189261905Y-133788152D02*
X189166667Y-133835771D01*
X188071428Y-133454819D02*
X187500000Y-133454819D01*
X187785714Y-134454819D02*
X187785714Y-133454819D01*
X187023809Y-134454819D02*
X187119047Y-134407200D01*
X187119047Y-134407200D02*
X187166666Y-134359580D01*
X187166666Y-134359580D02*
X187214285Y-134264342D01*
X187214285Y-134264342D02*
X187214285Y-133978628D01*
X187214285Y-133978628D02*
X187166666Y-133883390D01*
X187166666Y-133883390D02*
X187119047Y-133835771D01*
X187119047Y-133835771D02*
X187023809Y-133788152D01*
X187023809Y-133788152D02*
X186880952Y-133788152D01*
X186880952Y-133788152D02*
X186785714Y-133835771D01*
X186785714Y-133835771D02*
X186738095Y-133883390D01*
X186738095Y-133883390D02*
X186690476Y-133978628D01*
X186690476Y-133978628D02*
X186690476Y-134264342D01*
X186690476Y-134264342D02*
X186738095Y-134359580D01*
X186738095Y-134359580D02*
X186785714Y-134407200D01*
X186785714Y-134407200D02*
X186880952Y-134454819D01*
X186880952Y-134454819D02*
X187023809Y-134454819D01*
X185833333Y-133788152D02*
X185833333Y-134597676D01*
X185833333Y-134597676D02*
X185880952Y-134692914D01*
X185880952Y-134692914D02*
X185928571Y-134740533D01*
X185928571Y-134740533D02*
X186023809Y-134788152D01*
X186023809Y-134788152D02*
X186166666Y-134788152D01*
X186166666Y-134788152D02*
X186261904Y-134740533D01*
X185833333Y-134407200D02*
X185928571Y-134454819D01*
X185928571Y-134454819D02*
X186119047Y-134454819D01*
X186119047Y-134454819D02*
X186214285Y-134407200D01*
X186214285Y-134407200D02*
X186261904Y-134359580D01*
X186261904Y-134359580D02*
X186309523Y-134264342D01*
X186309523Y-134264342D02*
X186309523Y-133978628D01*
X186309523Y-133978628D02*
X186261904Y-133883390D01*
X186261904Y-133883390D02*
X186214285Y-133835771D01*
X186214285Y-133835771D02*
X186119047Y-133788152D01*
X186119047Y-133788152D02*
X185928571Y-133788152D01*
X185928571Y-133788152D02*
X185833333Y-133835771D01*
X184976190Y-134407200D02*
X185071428Y-134454819D01*
X185071428Y-134454819D02*
X185261904Y-134454819D01*
X185261904Y-134454819D02*
X185357142Y-134407200D01*
X185357142Y-134407200D02*
X185404761Y-134311961D01*
X185404761Y-134311961D02*
X185404761Y-133931009D01*
X185404761Y-133931009D02*
X185357142Y-133835771D01*
X185357142Y-133835771D02*
X185261904Y-133788152D01*
X185261904Y-133788152D02*
X185071428Y-133788152D01*
X185071428Y-133788152D02*
X184976190Y-133835771D01*
X184976190Y-133835771D02*
X184928571Y-133931009D01*
X184928571Y-133931009D02*
X184928571Y-134026247D01*
X184928571Y-134026247D02*
X185404761Y-134121485D01*
X184642856Y-133788152D02*
X184261904Y-133788152D01*
X184499999Y-133454819D02*
X184499999Y-134311961D01*
X184499999Y-134311961D02*
X184452380Y-134407200D01*
X184452380Y-134407200D02*
X184357142Y-134454819D01*
X184357142Y-134454819D02*
X184261904Y-134454819D01*
X183928570Y-134454819D02*
X183928570Y-133454819D01*
X183499999Y-134454819D02*
X183499999Y-133931009D01*
X183499999Y-133931009D02*
X183547618Y-133835771D01*
X183547618Y-133835771D02*
X183642856Y-133788152D01*
X183642856Y-133788152D02*
X183785713Y-133788152D01*
X183785713Y-133788152D02*
X183880951Y-133835771D01*
X183880951Y-133835771D02*
X183928570Y-133883390D01*
X182642856Y-134407200D02*
X182738094Y-134454819D01*
X182738094Y-134454819D02*
X182928570Y-134454819D01*
X182928570Y-134454819D02*
X183023808Y-134407200D01*
X183023808Y-134407200D02*
X183071427Y-134311961D01*
X183071427Y-134311961D02*
X183071427Y-133931009D01*
X183071427Y-133931009D02*
X183023808Y-133835771D01*
X183023808Y-133835771D02*
X182928570Y-133788152D01*
X182928570Y-133788152D02*
X182738094Y-133788152D01*
X182738094Y-133788152D02*
X182642856Y-133835771D01*
X182642856Y-133835771D02*
X182595237Y-133931009D01*
X182595237Y-133931009D02*
X182595237Y-134026247D01*
X182595237Y-134026247D02*
X183071427Y-134121485D01*
X182166665Y-134454819D02*
X182166665Y-133788152D01*
X182166665Y-133978628D02*
X182119046Y-133883390D01*
X182119046Y-133883390D02*
X182071427Y-133835771D01*
X182071427Y-133835771D02*
X181976189Y-133788152D01*
X181976189Y-133788152D02*
X181880951Y-133788152D01*
X180785712Y-134454819D02*
X180785712Y-133454819D01*
X180785712Y-133835771D02*
X180690474Y-133788152D01*
X180690474Y-133788152D02*
X180499998Y-133788152D01*
X180499998Y-133788152D02*
X180404760Y-133835771D01*
X180404760Y-133835771D02*
X180357141Y-133883390D01*
X180357141Y-133883390D02*
X180309522Y-133978628D01*
X180309522Y-133978628D02*
X180309522Y-134264342D01*
X180309522Y-134264342D02*
X180357141Y-134359580D01*
X180357141Y-134359580D02*
X180404760Y-134407200D01*
X180404760Y-134407200D02*
X180499998Y-134454819D01*
X180499998Y-134454819D02*
X180690474Y-134454819D01*
X180690474Y-134454819D02*
X180785712Y-134407200D01*
X179976188Y-133788152D02*
X179738093Y-134454819D01*
X179499998Y-133788152D02*
X179738093Y-134454819D01*
X179738093Y-134454819D02*
X179833331Y-134692914D01*
X179833331Y-134692914D02*
X179880950Y-134740533D01*
X179880950Y-134740533D02*
X179976188Y-134788152D01*
X178452378Y-133454819D02*
X177833331Y-133454819D01*
X177833331Y-133454819D02*
X178166664Y-133835771D01*
X178166664Y-133835771D02*
X178023807Y-133835771D01*
X178023807Y-133835771D02*
X177928569Y-133883390D01*
X177928569Y-133883390D02*
X177880950Y-133931009D01*
X177880950Y-133931009D02*
X177833331Y-134026247D01*
X177833331Y-134026247D02*
X177833331Y-134264342D01*
X177833331Y-134264342D02*
X177880950Y-134359580D01*
X177880950Y-134359580D02*
X177928569Y-134407200D01*
X177928569Y-134407200D02*
X178023807Y-134454819D01*
X178023807Y-134454819D02*
X178309521Y-134454819D01*
X178309521Y-134454819D02*
X178404759Y-134407200D01*
X178404759Y-134407200D02*
X178452378Y-134359580D01*
X177404759Y-134454819D02*
X177404759Y-133454819D01*
X177404759Y-133454819D02*
X177071426Y-134169104D01*
X177071426Y-134169104D02*
X176738093Y-133454819D01*
X176738093Y-133454819D02*
X176738093Y-134454819D01*
X176309521Y-133550057D02*
X176261902Y-133502438D01*
X176261902Y-133502438D02*
X176166664Y-133454819D01*
X176166664Y-133454819D02*
X175928569Y-133454819D01*
X175928569Y-133454819D02*
X175833331Y-133502438D01*
X175833331Y-133502438D02*
X175785712Y-133550057D01*
X175785712Y-133550057D02*
X175738093Y-133645295D01*
X175738093Y-133645295D02*
X175738093Y-133740533D01*
X175738093Y-133740533D02*
X175785712Y-133883390D01*
X175785712Y-133883390D02*
X176357140Y-134454819D01*
X176357140Y-134454819D02*
X175738093Y-134454819D01*
X175357140Y-133550057D02*
X175309521Y-133502438D01*
X175309521Y-133502438D02*
X175214283Y-133454819D01*
X175214283Y-133454819D02*
X174976188Y-133454819D01*
X174976188Y-133454819D02*
X174880950Y-133502438D01*
X174880950Y-133502438D02*
X174833331Y-133550057D01*
X174833331Y-133550057D02*
X174785712Y-133645295D01*
X174785712Y-133645295D02*
X174785712Y-133740533D01*
X174785712Y-133740533D02*
X174833331Y-133883390D01*
X174833331Y-133883390D02*
X175404759Y-134454819D01*
X175404759Y-134454819D02*
X174785712Y-134454819D01*
X173833331Y-134454819D02*
X174404759Y-134454819D01*
X174119045Y-134454819D02*
X174119045Y-133454819D01*
X174119045Y-133454819D02*
X174214283Y-133597676D01*
X174214283Y-133597676D02*
X174309521Y-133692914D01*
X174309521Y-133692914D02*
X174404759Y-133740533D01*
X172976188Y-133454819D02*
X173166664Y-133454819D01*
X173166664Y-133454819D02*
X173261902Y-133502438D01*
X173261902Y-133502438D02*
X173309521Y-133550057D01*
X173309521Y-133550057D02*
X173404759Y-133692914D01*
X173404759Y-133692914D02*
X173452378Y-133883390D01*
X173452378Y-133883390D02*
X173452378Y-134264342D01*
X173452378Y-134264342D02*
X173404759Y-134359580D01*
X173404759Y-134359580D02*
X173357140Y-134407200D01*
X173357140Y-134407200D02*
X173261902Y-134454819D01*
X173261902Y-134454819D02*
X173071426Y-134454819D01*
X173071426Y-134454819D02*
X172976188Y-134407200D01*
X172976188Y-134407200D02*
X172928569Y-134359580D01*
X172928569Y-134359580D02*
X172880950Y-134264342D01*
X172880950Y-134264342D02*
X172880950Y-134026247D01*
X172880950Y-134026247D02*
X172928569Y-133931009D01*
X172928569Y-133931009D02*
X172976188Y-133883390D01*
X172976188Y-133883390D02*
X173071426Y-133835771D01*
X173071426Y-133835771D02*
X173261902Y-133835771D01*
X173261902Y-133835771D02*
X173357140Y-133883390D01*
X173357140Y-133883390D02*
X173404759Y-133931009D01*
X173404759Y-133931009D02*
X173452378Y-134026247D01*
X171261902Y-134454819D02*
X171261902Y-133931009D01*
X171261902Y-133931009D02*
X171309521Y-133835771D01*
X171309521Y-133835771D02*
X171404759Y-133788152D01*
X171404759Y-133788152D02*
X171595235Y-133788152D01*
X171595235Y-133788152D02*
X171690473Y-133835771D01*
X171261902Y-134407200D02*
X171357140Y-134454819D01*
X171357140Y-134454819D02*
X171595235Y-134454819D01*
X171595235Y-134454819D02*
X171690473Y-134407200D01*
X171690473Y-134407200D02*
X171738092Y-134311961D01*
X171738092Y-134311961D02*
X171738092Y-134216723D01*
X171738092Y-134216723D02*
X171690473Y-134121485D01*
X171690473Y-134121485D02*
X171595235Y-134073866D01*
X171595235Y-134073866D02*
X171357140Y-134073866D01*
X171357140Y-134073866D02*
X171261902Y-134026247D01*
X170785711Y-133788152D02*
X170785711Y-134454819D01*
X170785711Y-133883390D02*
X170738092Y-133835771D01*
X170738092Y-133835771D02*
X170642854Y-133788152D01*
X170642854Y-133788152D02*
X170499997Y-133788152D01*
X170499997Y-133788152D02*
X170404759Y-133835771D01*
X170404759Y-133835771D02*
X170357140Y-133931009D01*
X170357140Y-133931009D02*
X170357140Y-134454819D01*
X169452378Y-134454819D02*
X169452378Y-133454819D01*
X169452378Y-134407200D02*
X169547616Y-134454819D01*
X169547616Y-134454819D02*
X169738092Y-134454819D01*
X169738092Y-134454819D02*
X169833330Y-134407200D01*
X169833330Y-134407200D02*
X169880949Y-134359580D01*
X169880949Y-134359580D02*
X169928568Y-134264342D01*
X169928568Y-134264342D02*
X169928568Y-133978628D01*
X169928568Y-133978628D02*
X169880949Y-133883390D01*
X169880949Y-133883390D02*
X169833330Y-133835771D01*
X169833330Y-133835771D02*
X169738092Y-133788152D01*
X169738092Y-133788152D02*
X169547616Y-133788152D01*
X169547616Y-133788152D02*
X169452378Y-133835771D01*
X167785711Y-134454819D02*
X167785711Y-133931009D01*
X167785711Y-133931009D02*
X167833330Y-133835771D01*
X167833330Y-133835771D02*
X167928568Y-133788152D01*
X167928568Y-133788152D02*
X168119044Y-133788152D01*
X168119044Y-133788152D02*
X168214282Y-133835771D01*
X167785711Y-134407200D02*
X167880949Y-134454819D01*
X167880949Y-134454819D02*
X168119044Y-134454819D01*
X168119044Y-134454819D02*
X168214282Y-134407200D01*
X168214282Y-134407200D02*
X168261901Y-134311961D01*
X168261901Y-134311961D02*
X168261901Y-134216723D01*
X168261901Y-134216723D02*
X168214282Y-134121485D01*
X168214282Y-134121485D02*
X168119044Y-134073866D01*
X168119044Y-134073866D02*
X167880949Y-134073866D01*
X167880949Y-134073866D02*
X167785711Y-134026247D01*
X166119044Y-134454819D02*
X166119044Y-133454819D01*
X166119044Y-134407200D02*
X166214282Y-134454819D01*
X166214282Y-134454819D02*
X166404758Y-134454819D01*
X166404758Y-134454819D02*
X166499996Y-134407200D01*
X166499996Y-134407200D02*
X166547615Y-134359580D01*
X166547615Y-134359580D02*
X166595234Y-134264342D01*
X166595234Y-134264342D02*
X166595234Y-133978628D01*
X166595234Y-133978628D02*
X166547615Y-133883390D01*
X166547615Y-133883390D02*
X166499996Y-133835771D01*
X166499996Y-133835771D02*
X166404758Y-133788152D01*
X166404758Y-133788152D02*
X166214282Y-133788152D01*
X166214282Y-133788152D02*
X166119044Y-133835771D01*
X165642853Y-134454819D02*
X165642853Y-133788152D01*
X165642853Y-133978628D02*
X165595234Y-133883390D01*
X165595234Y-133883390D02*
X165547615Y-133835771D01*
X165547615Y-133835771D02*
X165452377Y-133788152D01*
X165452377Y-133788152D02*
X165357139Y-133788152D01*
X164642853Y-134407200D02*
X164738091Y-134454819D01*
X164738091Y-134454819D02*
X164928567Y-134454819D01*
X164928567Y-134454819D02*
X165023805Y-134407200D01*
X165023805Y-134407200D02*
X165071424Y-134311961D01*
X165071424Y-134311961D02*
X165071424Y-133931009D01*
X165071424Y-133931009D02*
X165023805Y-133835771D01*
X165023805Y-133835771D02*
X164928567Y-133788152D01*
X164928567Y-133788152D02*
X164738091Y-133788152D01*
X164738091Y-133788152D02*
X164642853Y-133835771D01*
X164642853Y-133835771D02*
X164595234Y-133931009D01*
X164595234Y-133931009D02*
X164595234Y-134026247D01*
X164595234Y-134026247D02*
X165071424Y-134121485D01*
X163738091Y-134454819D02*
X163738091Y-133931009D01*
X163738091Y-133931009D02*
X163785710Y-133835771D01*
X163785710Y-133835771D02*
X163880948Y-133788152D01*
X163880948Y-133788152D02*
X164071424Y-133788152D01*
X164071424Y-133788152D02*
X164166662Y-133835771D01*
X163738091Y-134407200D02*
X163833329Y-134454819D01*
X163833329Y-134454819D02*
X164071424Y-134454819D01*
X164071424Y-134454819D02*
X164166662Y-134407200D01*
X164166662Y-134407200D02*
X164214281Y-134311961D01*
X164214281Y-134311961D02*
X164214281Y-134216723D01*
X164214281Y-134216723D02*
X164166662Y-134121485D01*
X164166662Y-134121485D02*
X164071424Y-134073866D01*
X164071424Y-134073866D02*
X163833329Y-134073866D01*
X163833329Y-134073866D02*
X163738091Y-134026247D01*
X163261900Y-134454819D02*
X163261900Y-133788152D01*
X163261900Y-133883390D02*
X163214281Y-133835771D01*
X163214281Y-133835771D02*
X163119043Y-133788152D01*
X163119043Y-133788152D02*
X162976186Y-133788152D01*
X162976186Y-133788152D02*
X162880948Y-133835771D01*
X162880948Y-133835771D02*
X162833329Y-133931009D01*
X162833329Y-133931009D02*
X162833329Y-134454819D01*
X162833329Y-133931009D02*
X162785710Y-133835771D01*
X162785710Y-133835771D02*
X162690472Y-133788152D01*
X162690472Y-133788152D02*
X162547615Y-133788152D01*
X162547615Y-133788152D02*
X162452376Y-133835771D01*
X162452376Y-133835771D02*
X162404757Y-133931009D01*
X162404757Y-133931009D02*
X162404757Y-134454819D01*
X161928567Y-134359580D02*
X161880948Y-134407200D01*
X161880948Y-134407200D02*
X161928567Y-134454819D01*
X161928567Y-134454819D02*
X161976186Y-134407200D01*
X161976186Y-134407200D02*
X161928567Y-134359580D01*
X161928567Y-134359580D02*
X161928567Y-134454819D01*
X161452377Y-134359580D02*
X161404758Y-134407200D01*
X161404758Y-134407200D02*
X161452377Y-134454819D01*
X161452377Y-134454819D02*
X161499996Y-134407200D01*
X161499996Y-134407200D02*
X161452377Y-134359580D01*
X161452377Y-134359580D02*
X161452377Y-134454819D01*
X160976187Y-134359580D02*
X160928568Y-134407200D01*
X160928568Y-134407200D02*
X160976187Y-134454819D01*
X160976187Y-134454819D02*
X161023806Y-134407200D01*
X161023806Y-134407200D02*
X160976187Y-134359580D01*
X160976187Y-134359580D02*
X160976187Y-134454819D01*
D12*
%TO.C,G\u002A\u002A\u002A*%
G36*
X134174852Y-43117799D02*
G01*
X134177834Y-43266698D01*
X134185149Y-43684884D01*
X133463599Y-43690775D01*
X132742048Y-43696667D01*
X132742048Y-43875226D01*
X134996354Y-43897546D01*
X135123981Y-43957364D01*
X135176190Y-43983977D01*
X135335174Y-44096820D01*
X135467032Y-44243909D01*
X135570161Y-44423158D01*
X135642958Y-44632481D01*
X135702482Y-44919058D01*
X135733980Y-45244052D01*
X135724999Y-45568413D01*
X135675777Y-45901395D01*
X135626719Y-46104582D01*
X135553729Y-46313444D01*
X135464650Y-46483351D01*
X135358188Y-46616232D01*
X135233052Y-46714017D01*
X135087948Y-46778633D01*
X135041555Y-46788499D01*
X134949178Y-46798833D01*
X134828713Y-46805832D01*
X134689456Y-46808794D01*
X134382558Y-46810287D01*
X134382558Y-46446699D01*
X134381656Y-46329933D01*
X134375611Y-46167471D01*
X134362680Y-46035404D01*
X134341468Y-45925011D01*
X134310581Y-45827569D01*
X134268623Y-45734355D01*
X134263248Y-45724149D01*
X134186470Y-45613676D01*
X134080453Y-45503595D01*
X133957689Y-45405422D01*
X133830673Y-45330673D01*
X133679483Y-45259057D01*
X132764368Y-45247897D01*
X132554995Y-45245299D01*
X132365757Y-45242702D01*
X132212431Y-45240072D01*
X132090468Y-45237128D01*
X131995320Y-45233590D01*
X131922441Y-45229175D01*
X131867281Y-45223603D01*
X131825293Y-45216592D01*
X131791930Y-45207862D01*
X131762642Y-45197130D01*
X131732884Y-45184117D01*
X131641980Y-45130922D01*
X131531177Y-45037099D01*
X131433520Y-44924420D01*
X131362218Y-44806348D01*
X131355691Y-44791967D01*
X131344564Y-44764341D01*
X131335591Y-44733876D01*
X131328541Y-44695926D01*
X131323182Y-44645848D01*
X131319282Y-44578996D01*
X131316611Y-44490727D01*
X131314937Y-44376396D01*
X131314027Y-44231358D01*
X131313651Y-44050970D01*
X131313577Y-43830586D01*
X131313577Y-42995509D01*
X133294158Y-42995509D01*
X133295075Y-43091202D01*
X133334097Y-43190233D01*
X133337537Y-43195633D01*
X133391433Y-43254372D01*
X133456056Y-43296252D01*
X133510034Y-43315148D01*
X133603173Y-43323385D01*
X133685477Y-43291419D01*
X133765002Y-43217187D01*
X133773521Y-43206835D01*
X133811415Y-43147228D01*
X133826816Y-43082427D01*
X133824760Y-42993591D01*
X133816954Y-42946373D01*
X133779638Y-42873796D01*
X133705958Y-42813921D01*
X133645516Y-42785332D01*
X133548322Y-42770814D01*
X133458428Y-42790807D01*
X133381995Y-42839077D01*
X133325185Y-42909390D01*
X133294158Y-42995509D01*
X131313577Y-42995509D01*
X131313577Y-42960111D01*
X131368208Y-42849094D01*
X131377753Y-42830480D01*
X131475330Y-42690870D01*
X131605919Y-42569998D01*
X131759923Y-42476982D01*
X131844590Y-42441727D01*
X131974093Y-42402468D01*
X132123703Y-42373357D01*
X132299424Y-42353558D01*
X132507258Y-42342232D01*
X132753208Y-42338544D01*
X132823033Y-42338842D01*
X133124799Y-42349293D01*
X133385789Y-42374912D01*
X133607119Y-42416029D01*
X133789900Y-42472971D01*
X133935248Y-42546069D01*
X134044274Y-42635651D01*
X134118093Y-42742047D01*
X134133522Y-42775220D01*
X134148213Y-42815640D01*
X134158821Y-42862460D01*
X134166216Y-42923328D01*
X134171269Y-43005892D01*
X134173719Y-43082427D01*
X134174852Y-43117799D01*
G37*
G36*
X134173654Y-47615283D02*
G01*
X134168750Y-47670551D01*
X134162105Y-47712251D01*
X134153454Y-47745187D01*
X134142529Y-47774160D01*
X134129064Y-47803974D01*
X134065118Y-47905777D01*
X133967558Y-48012098D01*
X133850149Y-48107773D01*
X133724809Y-48181667D01*
X133631458Y-48220551D01*
X133496912Y-48266868D01*
X133348732Y-48310428D01*
X133203263Y-48346476D01*
X133076846Y-48370256D01*
X133068312Y-48371466D01*
X132840520Y-48390257D01*
X132606720Y-48385769D01*
X132373951Y-48359764D01*
X132149255Y-48314004D01*
X131939672Y-48250250D01*
X131752244Y-48170265D01*
X131594011Y-48075811D01*
X131472014Y-47968650D01*
X131466726Y-47962730D01*
X131407178Y-47887968D01*
X131363485Y-47811690D01*
X131333405Y-47725322D01*
X131324388Y-47674699D01*
X131664398Y-47674699D01*
X131687433Y-47762271D01*
X131740949Y-47838319D01*
X131826706Y-47894144D01*
X131858081Y-47906053D01*
X131956139Y-47922501D01*
X132041838Y-47898331D01*
X132123205Y-47831856D01*
X132154076Y-47792557D01*
X132193437Y-47699596D01*
X132197508Y-47603798D01*
X132169900Y-47513965D01*
X132114222Y-47438899D01*
X132034084Y-47387405D01*
X131933097Y-47368284D01*
X131841861Y-47383186D01*
X131760575Y-47429847D01*
X131702729Y-47499787D01*
X131670083Y-47584304D01*
X131664398Y-47674699D01*
X131324388Y-47674699D01*
X131314695Y-47620285D01*
X131305113Y-47488004D01*
X131302417Y-47319902D01*
X131302417Y-47011784D01*
X132022233Y-47005895D01*
X132742048Y-47000006D01*
X132748912Y-46905147D01*
X132755775Y-46810287D01*
X131620230Y-46810287D01*
X131547363Y-46810286D01*
X131284559Y-46810152D01*
X131061617Y-46809475D01*
X130874722Y-46807814D01*
X130720056Y-46804727D01*
X130593804Y-46799771D01*
X130492148Y-46792505D01*
X130411273Y-46782486D01*
X130347361Y-46769272D01*
X130296597Y-46752421D01*
X130255164Y-46731491D01*
X130219245Y-46706039D01*
X130185024Y-46675623D01*
X130148684Y-46639802D01*
X130102874Y-46588496D01*
X130011475Y-46451410D01*
X129929621Y-46282593D01*
X129859771Y-46090541D01*
X129804382Y-45883753D01*
X129765912Y-45670727D01*
X129746820Y-45459958D01*
X129749562Y-45259946D01*
X129765360Y-45095330D01*
X129803607Y-44843687D01*
X129856202Y-44614324D01*
X129921644Y-44411608D01*
X129998435Y-44239905D01*
X130085073Y-44103580D01*
X130180059Y-44007001D01*
X130202399Y-43990414D01*
X130262161Y-43952307D01*
X130324803Y-43924824D01*
X130398666Y-43906277D01*
X130492091Y-43894978D01*
X130613420Y-43889237D01*
X130770994Y-43887365D01*
X131121206Y-43886386D01*
X131128112Y-44316043D01*
X131135019Y-44745700D01*
X131206634Y-44896891D01*
X131266996Y-45005915D01*
X131392445Y-45162441D01*
X131546112Y-45286832D01*
X131723495Y-45375752D01*
X131920095Y-45425864D01*
X131958992Y-45429737D01*
X132046187Y-45434684D01*
X132166866Y-45439099D01*
X132314592Y-45442826D01*
X132482926Y-45445711D01*
X132665429Y-45447598D01*
X132855663Y-45448334D01*
X133638873Y-45448776D01*
X133775708Y-45517153D01*
X133799685Y-45529685D01*
X133942756Y-45630887D01*
X134057369Y-45760102D01*
X134136295Y-45909467D01*
X134146597Y-45938601D01*
X134156441Y-45973235D01*
X134164251Y-46013451D01*
X134170261Y-46064130D01*
X134174700Y-46130154D01*
X134177802Y-46216407D01*
X134179797Y-46327770D01*
X134180918Y-46469126D01*
X134181395Y-46645357D01*
X134181461Y-46861344D01*
X134181426Y-46967333D01*
X134181215Y-47162480D01*
X134180600Y-47320046D01*
X134179312Y-47444833D01*
X134177086Y-47541645D01*
X134174189Y-47603798D01*
X134173654Y-47615283D01*
G37*
G36*
X154905825Y-103307949D02*
G01*
X154924362Y-103314381D01*
X154927392Y-103318776D01*
X154930466Y-103329598D01*
X154932934Y-103348076D01*
X154934856Y-103375948D01*
X154936292Y-103414952D01*
X154937304Y-103466828D01*
X154937952Y-103533314D01*
X154938296Y-103616151D01*
X154938397Y-103717075D01*
X154938381Y-103745659D01*
X154937974Y-103855875D01*
X154937018Y-103947916D01*
X154935523Y-104021455D01*
X154933498Y-104076161D01*
X154930951Y-104111704D01*
X154927889Y-104127755D01*
X154923058Y-104135067D01*
X154911527Y-104142507D01*
X154890955Y-104145223D01*
X154856012Y-104144453D01*
X154794642Y-104141517D01*
X154794642Y-103308730D01*
X154852485Y-103305732D01*
X154873706Y-103305309D01*
X154905825Y-103307949D01*
G37*
G36*
X156100333Y-103305314D02*
G01*
X156124819Y-103308267D01*
X156147921Y-103314065D01*
X156147921Y-103587341D01*
X156148192Y-103658189D01*
X156149040Y-103725024D01*
X156150397Y-103780461D01*
X156152194Y-103822393D01*
X156154361Y-103848712D01*
X156156828Y-103857312D01*
X156160653Y-103853207D01*
X156174649Y-103834543D01*
X156197345Y-103802613D01*
X156227386Y-103759374D01*
X156263415Y-103706782D01*
X156304076Y-103646794D01*
X156348013Y-103581369D01*
X156530291Y-103308730D01*
X156587796Y-103305732D01*
X156608778Y-103305310D01*
X156640812Y-103307949D01*
X156659335Y-103314381D01*
X156662831Y-103319953D01*
X156665774Y-103331726D01*
X156668136Y-103351343D01*
X156669976Y-103380516D01*
X156671352Y-103420958D01*
X156672322Y-103474379D01*
X156672942Y-103542492D01*
X156673272Y-103627009D01*
X156673370Y-103729642D01*
X156673342Y-103765220D01*
X156673047Y-103850611D01*
X156672456Y-103928946D01*
X156671606Y-103998097D01*
X156670532Y-104055935D01*
X156669273Y-104100331D01*
X156667864Y-104129157D01*
X156666341Y-104140284D01*
X156656855Y-104143116D01*
X156632328Y-104144873D01*
X156599421Y-104144415D01*
X156539529Y-104141517D01*
X156534572Y-103858964D01*
X156529615Y-103576412D01*
X156508451Y-103606154D01*
X156505583Y-103610263D01*
X156491112Y-103631517D01*
X156467808Y-103666104D01*
X156437218Y-103711715D01*
X156400888Y-103766045D01*
X156360362Y-103826785D01*
X156317188Y-103891629D01*
X156147090Y-104147361D01*
X156014080Y-104141517D01*
X156014080Y-103308730D01*
X156057898Y-103305599D01*
X156067658Y-103305070D01*
X156100333Y-103305314D01*
G37*
G36*
X155702027Y-101973833D02*
G01*
X155735195Y-101974682D01*
X155751356Y-101975991D01*
X155776141Y-101981659D01*
X155778728Y-102394194D01*
X155781314Y-102806729D01*
X155753942Y-102809876D01*
X155752190Y-102810029D01*
X155731976Y-102810597D01*
X155695257Y-102810786D01*
X155644820Y-102810611D01*
X155583450Y-102810089D01*
X155513935Y-102809235D01*
X155439060Y-102808067D01*
X155151551Y-102803109D01*
X155152357Y-102746123D01*
X155153144Y-102721496D01*
X155155175Y-102696145D01*
X155157835Y-102684465D01*
X155160672Y-102683801D01*
X155179892Y-102682434D01*
X155214680Y-102681178D01*
X155262147Y-102680106D01*
X155319401Y-102679290D01*
X155383553Y-102678802D01*
X155413171Y-102678622D01*
X155475584Y-102677921D01*
X155530374Y-102676874D01*
X155574489Y-102675563D01*
X155604880Y-102674071D01*
X155618493Y-102672479D01*
X155619858Y-102671811D01*
X155625884Y-102662980D01*
X155629738Y-102643234D01*
X155631785Y-102609612D01*
X155632386Y-102559153D01*
X155632386Y-102451158D01*
X155429957Y-102451158D01*
X155416876Y-102451145D01*
X155355705Y-102450749D01*
X155301368Y-102449860D01*
X155257114Y-102448569D01*
X155226190Y-102446966D01*
X155211846Y-102445140D01*
X155202790Y-102436752D01*
X155197657Y-102416532D01*
X155196164Y-102380698D01*
X155196422Y-102354651D01*
X155197321Y-102330418D01*
X155198643Y-102320294D01*
X155200347Y-102320030D01*
X155217326Y-102319054D01*
X155250115Y-102317748D01*
X155295806Y-102316214D01*
X155351495Y-102314551D01*
X155414275Y-102312859D01*
X155627429Y-102307403D01*
X155627429Y-102109120D01*
X155171379Y-102099206D01*
X155171379Y-101980237D01*
X155448975Y-101975280D01*
X155455560Y-101975164D01*
X155528616Y-101974109D01*
X155595922Y-101973540D01*
X155654664Y-101973450D01*
X155702027Y-101973833D01*
G37*
G36*
X153565291Y-103304017D02*
G01*
X153627177Y-103304395D01*
X153681953Y-103305148D01*
X153726523Y-103306290D01*
X153757795Y-103307833D01*
X153772676Y-103309791D01*
X153775907Y-103312125D01*
X153779230Y-103318684D01*
X153781912Y-103330968D01*
X153784021Y-103350741D01*
X153785624Y-103379766D01*
X153786785Y-103419805D01*
X153787573Y-103472621D01*
X153788053Y-103539976D01*
X153788293Y-103623635D01*
X153788358Y-103725358D01*
X153788349Y-103755942D01*
X153788147Y-103856621D01*
X153787649Y-103939328D01*
X153786809Y-104005523D01*
X153785584Y-104056666D01*
X153783931Y-104094216D01*
X153781806Y-104119634D01*
X153779165Y-104134378D01*
X153775965Y-104139908D01*
X153775767Y-104139982D01*
X153760928Y-104141756D01*
X153729665Y-104143174D01*
X153684997Y-104144244D01*
X153629946Y-104144976D01*
X153567532Y-104145381D01*
X153500778Y-104145467D01*
X153432703Y-104145245D01*
X153366329Y-104144724D01*
X153304676Y-104143913D01*
X153250767Y-104142822D01*
X153207621Y-104141461D01*
X153178260Y-104139840D01*
X153165705Y-104137967D01*
X153161401Y-104133294D01*
X153155888Y-104111048D01*
X153155791Y-104071198D01*
X153158811Y-104012633D01*
X153634689Y-104002719D01*
X153634689Y-103784608D01*
X153208381Y-103774694D01*
X153205430Y-103712731D01*
X153204389Y-103683267D01*
X153204329Y-103658892D01*
X153205430Y-103648788D01*
X153207178Y-103648524D01*
X153224276Y-103647548D01*
X153257175Y-103646243D01*
X153302961Y-103644708D01*
X153358719Y-103643044D01*
X153421535Y-103641352D01*
X153634689Y-103635896D01*
X153637524Y-103539417D01*
X153640360Y-103442938D01*
X153409499Y-103440276D01*
X153178639Y-103437614D01*
X153175619Y-103379049D01*
X153175007Y-103358859D01*
X153177511Y-103327112D01*
X153185533Y-103312280D01*
X153192795Y-103310782D01*
X153217851Y-103308899D01*
X153257448Y-103307300D01*
X153308493Y-103305998D01*
X153367894Y-103305005D01*
X153432556Y-103304335D01*
X153499386Y-103304002D01*
X153565291Y-103304017D01*
G37*
G36*
X157137448Y-101964225D02*
G01*
X157207254Y-101980648D01*
X157284784Y-102014694D01*
X157348928Y-102063358D01*
X157399704Y-102126661D01*
X157437130Y-102204620D01*
X157461225Y-102297254D01*
X157465138Y-102320418D01*
X157470355Y-102359768D01*
X157471394Y-102392977D01*
X157468240Y-102428551D01*
X157460875Y-102474992D01*
X157441066Y-102559134D01*
X157407134Y-102642972D01*
X157361716Y-102710801D01*
X157304901Y-102762523D01*
X157236780Y-102798035D01*
X157157440Y-102817237D01*
X157091569Y-102822140D01*
X157003429Y-102815538D01*
X156925337Y-102793052D01*
X156858269Y-102755133D01*
X156803203Y-102702229D01*
X156761116Y-102634791D01*
X156750674Y-102611660D01*
X156735778Y-102568184D01*
X156734657Y-102537197D01*
X156748259Y-102516621D01*
X156777533Y-102504381D01*
X156823425Y-102498402D01*
X156843184Y-102497550D01*
X156858687Y-102500351D01*
X156870303Y-102510641D01*
X156881852Y-102532032D01*
X156897154Y-102568137D01*
X156927314Y-102617490D01*
X156970358Y-102654814D01*
X157022570Y-102678576D01*
X157080435Y-102687731D01*
X157140436Y-102681230D01*
X157199059Y-102658028D01*
X157236328Y-102631444D01*
X157270753Y-102589487D01*
X157294271Y-102535076D01*
X157307607Y-102466427D01*
X157311487Y-102381759D01*
X157311445Y-102376237D01*
X157310109Y-102325179D01*
X157306618Y-102287940D01*
X157300181Y-102259052D01*
X157290008Y-102233047D01*
X157262824Y-102185136D01*
X157221138Y-102140157D01*
X157169513Y-102111353D01*
X157105997Y-102097283D01*
X157089966Y-102095999D01*
X157027546Y-102099791D01*
X156976352Y-102119507D01*
X156934874Y-102155978D01*
X156901600Y-102210040D01*
X156880254Y-102255451D01*
X156824557Y-102248905D01*
X156819360Y-102248268D01*
X156776603Y-102239590D01*
X156751434Y-102225375D01*
X156742910Y-102203452D01*
X156750092Y-102171654D01*
X156772040Y-102127810D01*
X156784213Y-102108098D01*
X156835827Y-102047290D01*
X156898948Y-102001608D01*
X156971585Y-101971942D01*
X157051749Y-101959184D01*
X157137448Y-101964225D01*
G37*
G36*
X157213690Y-103304017D02*
G01*
X157275577Y-103304395D01*
X157330352Y-103305148D01*
X157374923Y-103306290D01*
X157406195Y-103307833D01*
X157421076Y-103309791D01*
X157424271Y-103312082D01*
X157427603Y-103318594D01*
X157430294Y-103330818D01*
X157432409Y-103350518D01*
X157434016Y-103379459D01*
X157435181Y-103419404D01*
X157435971Y-103472120D01*
X157436452Y-103539370D01*
X157436692Y-103622919D01*
X157436758Y-103724532D01*
X157436726Y-103764560D01*
X157436438Y-103850204D01*
X157435876Y-103928691D01*
X157435075Y-103997910D01*
X157434068Y-104055749D01*
X157432889Y-104100095D01*
X157431571Y-104128838D01*
X157430148Y-104139865D01*
X157428877Y-104140430D01*
X157412511Y-104142313D01*
X157380085Y-104143816D01*
X157334574Y-104144950D01*
X157278952Y-104145723D01*
X157216193Y-104146145D01*
X157149272Y-104146224D01*
X157081163Y-104145971D01*
X157014839Y-104145393D01*
X156953276Y-104144501D01*
X156899446Y-104143303D01*
X156856325Y-104141809D01*
X156826887Y-104140027D01*
X156814105Y-104137967D01*
X156809801Y-104133294D01*
X156804288Y-104111048D01*
X156804191Y-104071198D01*
X156807210Y-104012633D01*
X157047628Y-104009979D01*
X157288046Y-104007324D01*
X157288046Y-103780038D01*
X157072413Y-103777366D01*
X156856781Y-103774694D01*
X156853756Y-103721840D01*
X156853338Y-103704233D01*
X156855936Y-103673306D01*
X156862406Y-103654920D01*
X156863030Y-103654231D01*
X156871522Y-103649509D01*
X156887995Y-103645986D01*
X156914816Y-103643512D01*
X156954356Y-103641934D01*
X157008982Y-103641098D01*
X157081063Y-103640853D01*
X157288046Y-103640853D01*
X157288046Y-103442936D01*
X157057542Y-103440275D01*
X156827039Y-103437614D01*
X156824019Y-103379049D01*
X156823407Y-103358859D01*
X156825911Y-103327112D01*
X156833933Y-103312280D01*
X156841194Y-103310782D01*
X156866250Y-103308899D01*
X156905848Y-103307300D01*
X156956893Y-103305998D01*
X157016293Y-103305005D01*
X157080955Y-103304335D01*
X157147785Y-103304002D01*
X157213690Y-103304017D01*
G37*
G36*
X154055742Y-103304942D02*
G01*
X154080014Y-103309791D01*
X154083813Y-103312406D01*
X154087723Y-103319896D01*
X154090686Y-103334067D01*
X154092826Y-103357113D01*
X154094271Y-103391222D01*
X154095147Y-103438587D01*
X154095580Y-103501397D01*
X154095696Y-103581844D01*
X154095696Y-103582349D01*
X154095975Y-103652916D01*
X154096754Y-103716773D01*
X154097958Y-103771296D01*
X154099513Y-103813862D01*
X154101345Y-103841848D01*
X154103380Y-103852629D01*
X154107312Y-103849486D01*
X154121294Y-103832201D01*
X154143919Y-103801560D01*
X154173857Y-103759444D01*
X154209775Y-103707733D01*
X154250342Y-103648310D01*
X154294227Y-103583054D01*
X154477390Y-103308730D01*
X154526304Y-103305634D01*
X154541481Y-103304985D01*
X154574555Y-103305467D01*
X154598181Y-103308301D01*
X154621145Y-103314065D01*
X154621145Y-103724486D01*
X154621135Y-103756157D01*
X154620932Y-103856775D01*
X154620431Y-103939434D01*
X154619590Y-104005593D01*
X154618364Y-104056708D01*
X154616712Y-104094239D01*
X154614587Y-104119644D01*
X154611949Y-104134381D01*
X154608752Y-104139908D01*
X154587136Y-104144462D01*
X154556746Y-104145909D01*
X154524967Y-104144439D01*
X154498842Y-104140386D01*
X154485411Y-104134081D01*
X154485396Y-104134059D01*
X154483094Y-104121074D01*
X154480681Y-104090994D01*
X154478282Y-104046534D01*
X154476024Y-103990406D01*
X154474033Y-103925326D01*
X154472433Y-103854007D01*
X154467476Y-103586326D01*
X154094756Y-104146474D01*
X154032767Y-104146474D01*
X154004524Y-104145335D01*
X153974974Y-104141063D01*
X153958881Y-104134577D01*
X153958077Y-104133183D01*
X153955041Y-104115921D01*
X153952446Y-104082068D01*
X153950293Y-104034225D01*
X153948581Y-103974993D01*
X153947311Y-103906974D01*
X153946481Y-103832767D01*
X153946094Y-103754975D01*
X153946147Y-103676198D01*
X153946642Y-103599037D01*
X153947578Y-103526094D01*
X153948956Y-103459968D01*
X153950775Y-103403262D01*
X153953036Y-103358577D01*
X153955738Y-103328512D01*
X153958881Y-103315670D01*
X153966808Y-103311328D01*
X153991485Y-103306082D01*
X154023681Y-103303830D01*
X154055742Y-103304942D01*
G37*
G36*
X154701401Y-101961887D02*
G01*
X154777356Y-101977008D01*
X154848503Y-102005584D01*
X154911420Y-102047298D01*
X154962685Y-102101833D01*
X154986201Y-102136772D01*
X155012691Y-102188503D01*
X155029894Y-102243968D01*
X155039249Y-102308321D01*
X155042195Y-102386716D01*
X155041951Y-102432475D01*
X155040215Y-102475368D01*
X155036200Y-102508803D01*
X155029164Y-102538486D01*
X155018365Y-102570127D01*
X155003941Y-102606407D01*
X154977662Y-102659616D01*
X154947708Y-102702470D01*
X154910281Y-102740976D01*
X154905494Y-102745233D01*
X154856424Y-102780599D01*
X154801851Y-102803704D01*
X154735157Y-102817437D01*
X154707860Y-102821113D01*
X154682439Y-102824613D01*
X154670715Y-102826332D01*
X154670106Y-102826377D01*
X154656062Y-102825299D01*
X154628415Y-102822236D01*
X154592425Y-102817764D01*
X154581681Y-102816213D01*
X154503957Y-102794481D01*
X154436705Y-102756116D01*
X154381068Y-102701950D01*
X154338191Y-102632814D01*
X154330082Y-102615084D01*
X154314496Y-102571905D01*
X154312592Y-102540934D01*
X154325569Y-102519538D01*
X154354622Y-102505089D01*
X154400951Y-102494955D01*
X154416977Y-102492557D01*
X154436183Y-102492798D01*
X154447363Y-102502792D01*
X154458043Y-102526729D01*
X154476224Y-102569151D01*
X154495631Y-102604709D01*
X154516689Y-102630830D01*
X154542925Y-102652749D01*
X154557658Y-102662068D01*
X154610068Y-102681610D01*
X154669624Y-102687642D01*
X154730030Y-102679271D01*
X154773608Y-102660705D01*
X154818523Y-102623623D01*
X154854135Y-102572932D01*
X154879429Y-102511241D01*
X154893388Y-102441158D01*
X154894995Y-102365290D01*
X154883234Y-102286245D01*
X154872980Y-102246956D01*
X154860960Y-102215718D01*
X154844538Y-102190027D01*
X154819936Y-102162495D01*
X154804732Y-102147841D01*
X154755668Y-102114343D01*
X154700486Y-102097665D01*
X154635212Y-102096382D01*
X154612136Y-102099332D01*
X154558296Y-102117398D01*
X154516339Y-102150987D01*
X154484740Y-102201162D01*
X154459953Y-102255304D01*
X154407552Y-102249145D01*
X154394951Y-102247607D01*
X154358201Y-102241649D01*
X154336563Y-102234126D01*
X154326311Y-102223159D01*
X154323721Y-102206871D01*
X154324659Y-102196826D01*
X154335322Y-102162684D01*
X154355189Y-102122811D01*
X154380891Y-102083378D01*
X154409060Y-102050551D01*
X154417937Y-102042296D01*
X154478905Y-102000426D01*
X154548753Y-101973279D01*
X154624059Y-101960539D01*
X154701401Y-101961887D01*
G37*
G36*
X154143215Y-101972097D02*
G01*
X154170856Y-101977728D01*
X154186131Y-101986707D01*
X154186816Y-101989114D01*
X154188529Y-102008372D01*
X154189984Y-102044480D01*
X154191149Y-102095258D01*
X154191993Y-102158528D01*
X154192482Y-102232110D01*
X154192585Y-102313824D01*
X154192270Y-102401492D01*
X154189880Y-102802919D01*
X154160138Y-102809574D01*
X154139206Y-102812153D01*
X154106009Y-102811898D01*
X154074478Y-102808164D01*
X154053636Y-102801624D01*
X154052902Y-102800530D01*
X154050244Y-102784992D01*
X154048092Y-102754370D01*
X154046651Y-102712443D01*
X154046125Y-102662989D01*
X154046125Y-102528997D01*
X153946419Y-102426373D01*
X153918695Y-102458618D01*
X153916040Y-102461796D01*
X153898187Y-102485056D01*
X153872984Y-102519771D01*
X153843399Y-102561798D01*
X153812401Y-102606993D01*
X153807162Y-102614721D01*
X153775062Y-102661453D01*
X153744030Y-102705705D01*
X153717374Y-102742804D01*
X153698402Y-102768074D01*
X153662974Y-102813024D01*
X153584390Y-102808067D01*
X153543891Y-102804529D01*
X153518163Y-102798259D01*
X153507332Y-102786768D01*
X153510811Y-102767525D01*
X153528014Y-102737996D01*
X153558353Y-102695649D01*
X153602828Y-102635443D01*
X153655750Y-102563469D01*
X153703649Y-102497954D01*
X153745389Y-102440472D01*
X153779832Y-102392597D01*
X153805842Y-102355903D01*
X153822282Y-102331963D01*
X153828014Y-102322351D01*
X153826789Y-102320424D01*
X153814730Y-102306866D01*
X153791431Y-102282354D01*
X153758916Y-102248974D01*
X153719213Y-102208816D01*
X153674345Y-102163967D01*
X153655520Y-102145159D01*
X153612418Y-102101345D01*
X153575342Y-102062607D01*
X153546333Y-102031138D01*
X153527431Y-102009132D01*
X153520676Y-101998783D01*
X153521309Y-101992119D01*
X153526764Y-101984116D01*
X153540930Y-101979130D01*
X153567513Y-101976142D01*
X153610219Y-101974130D01*
X153684260Y-101971476D01*
X153856933Y-102146875D01*
X153894248Y-102184583D01*
X153938799Y-102229049D01*
X153977410Y-102266965D01*
X154008108Y-102296417D01*
X154028917Y-102315491D01*
X154037866Y-102322274D01*
X154040042Y-102316289D01*
X154042468Y-102293456D01*
X154044395Y-102256567D01*
X154045666Y-102208839D01*
X154046125Y-102153489D01*
X154046125Y-102151715D01*
X154046215Y-102090712D01*
X154046725Y-102046554D01*
X154048023Y-102016329D01*
X154050475Y-101997125D01*
X154054450Y-101986032D01*
X154060313Y-101980139D01*
X154068432Y-101976534D01*
X154079936Y-101973390D01*
X154110483Y-101970441D01*
X154143215Y-101972097D01*
G37*
G36*
X156071086Y-101974111D02*
G01*
X156072773Y-101974290D01*
X156078855Y-101977212D01*
X156083134Y-101985736D01*
X156085920Y-102002707D01*
X156087525Y-102030969D01*
X156088260Y-102073368D01*
X156088436Y-102132749D01*
X156088484Y-102180795D01*
X156088899Y-102226321D01*
X156090089Y-102257352D01*
X156092462Y-102276872D01*
X156096423Y-102287864D01*
X156102381Y-102293312D01*
X156110743Y-102296197D01*
X156117711Y-102297323D01*
X156143938Y-102299261D01*
X156183845Y-102300830D01*
X156233411Y-102301893D01*
X156288612Y-102302311D01*
X156329271Y-102302174D01*
X156383102Y-102301088D01*
X156420234Y-102298803D01*
X156442616Y-102295174D01*
X156452195Y-102290053D01*
X156453519Y-102286123D01*
X156456447Y-102264685D01*
X156459091Y-102228951D01*
X156461204Y-102182755D01*
X156462539Y-102129930D01*
X156463002Y-102104824D01*
X156464332Y-102055791D01*
X156465992Y-102015823D01*
X156467815Y-101988505D01*
X156469634Y-101977428D01*
X156477224Y-101975509D01*
X156500015Y-101974002D01*
X156531753Y-101973928D01*
X156558893Y-101975422D01*
X156586550Y-101981261D01*
X156601785Y-101992407D01*
X156602357Y-101993284D01*
X156605553Y-102003204D01*
X156608094Y-102021881D01*
X156610018Y-102050894D01*
X156611362Y-102091826D01*
X156612164Y-102146258D01*
X156612462Y-102215770D01*
X156612295Y-102301944D01*
X156611699Y-102406362D01*
X156608928Y-102803109D01*
X156537050Y-102806022D01*
X156465173Y-102808935D01*
X156463220Y-102736623D01*
X156462551Y-102696600D01*
X156462458Y-102640676D01*
X156463167Y-102589956D01*
X156463378Y-102547421D01*
X156462086Y-102505178D01*
X156459555Y-102473465D01*
X156454044Y-102431330D01*
X156277258Y-102431330D01*
X156263796Y-102431336D01*
X156202945Y-102431636D01*
X156158729Y-102432554D01*
X156128459Y-102434320D01*
X156109449Y-102437164D01*
X156099009Y-102441318D01*
X156094454Y-102447012D01*
X156092873Y-102457194D01*
X156091104Y-102485058D01*
X156089698Y-102526329D01*
X156088771Y-102577422D01*
X156088436Y-102634752D01*
X156088436Y-102806810D01*
X156056215Y-102810774D01*
X156027582Y-102812406D01*
X155992046Y-102810025D01*
X155963100Y-102803638D01*
X155947311Y-102794244D01*
X155946820Y-102792612D01*
X155945248Y-102775050D01*
X155943802Y-102740501D01*
X155942523Y-102691150D01*
X155941451Y-102629183D01*
X155940625Y-102556782D01*
X155940087Y-102476134D01*
X155939876Y-102389423D01*
X155939724Y-101995565D01*
X155962031Y-101982331D01*
X155962496Y-101982057D01*
X155977728Y-101975328D01*
X155997546Y-101972014D01*
X156026986Y-101971735D01*
X156071086Y-101974111D01*
G37*
G36*
X155530641Y-103299448D02*
G01*
X155570891Y-103305410D01*
X155606213Y-103315453D01*
X155644388Y-103331273D01*
X155650651Y-103334203D01*
X155716702Y-103374448D01*
X155771649Y-103425337D01*
X155811236Y-103483003D01*
X155812633Y-103485762D01*
X155848648Y-103577659D01*
X155867445Y-103673681D01*
X155868962Y-103770449D01*
X155853137Y-103864586D01*
X155819909Y-103952716D01*
X155810329Y-103970178D01*
X155765745Y-104028028D01*
X155706916Y-104078839D01*
X155638004Y-104119466D01*
X155563169Y-104146765D01*
X155548854Y-104149169D01*
X155514509Y-104151779D01*
X155470375Y-104152909D01*
X155422496Y-104152319D01*
X155410718Y-104151930D01*
X155365291Y-104149765D01*
X155331596Y-104145923D01*
X155302955Y-104138865D01*
X155272692Y-104127055D01*
X155234127Y-104108955D01*
X155218471Y-104101235D01*
X155178961Y-104080577D01*
X155145587Y-104061566D01*
X155124287Y-104047522D01*
X155097023Y-104026065D01*
X155097023Y-103868508D01*
X155097043Y-103842368D01*
X155097379Y-103790076D01*
X155098412Y-103753320D01*
X155100497Y-103729039D01*
X155103994Y-103714173D01*
X155109259Y-103705662D01*
X155116649Y-103700446D01*
X155118725Y-103699559D01*
X155140637Y-103695761D01*
X155179924Y-103693289D01*
X155234565Y-103692228D01*
X155302539Y-103692662D01*
X155468803Y-103695381D01*
X155468803Y-103824265D01*
X155245735Y-103829871D01*
X155245735Y-103954460D01*
X155306625Y-103983547D01*
X155310132Y-103985213D01*
X155343463Y-103999529D01*
X155373158Y-104007806D01*
X155407022Y-104011584D01*
X155452859Y-104012403D01*
X155460647Y-104012368D01*
X155503265Y-104011103D01*
X155534061Y-104007035D01*
X155559971Y-103998748D01*
X155587932Y-103984826D01*
X155613514Y-103968679D01*
X155659783Y-103923670D01*
X155692337Y-103865115D01*
X155711753Y-103792116D01*
X155714919Y-103768570D01*
X155716338Y-103692584D01*
X155704785Y-103621647D01*
X155681490Y-103558475D01*
X155647682Y-103505779D01*
X155604590Y-103466273D01*
X155553443Y-103442670D01*
X155535652Y-103438788D01*
X155493076Y-103433551D01*
X155446486Y-103431533D01*
X155403704Y-103432936D01*
X155372555Y-103437965D01*
X155370478Y-103438618D01*
X155327527Y-103461697D01*
X155288727Y-103499484D01*
X155259122Y-103547126D01*
X155235247Y-103599275D01*
X155180119Y-103586460D01*
X155156748Y-103580705D01*
X155126825Y-103570347D01*
X155112149Y-103557566D01*
X155109870Y-103538953D01*
X155117139Y-103511097D01*
X155139481Y-103457783D01*
X155182184Y-103395981D01*
X155238154Y-103348760D01*
X155307127Y-103316276D01*
X155388840Y-103298683D01*
X155483031Y-103296135D01*
X155530641Y-103299448D01*
G37*
G36*
X158514712Y-104588995D02*
G01*
X158513253Y-104640015D01*
X158511568Y-104678624D01*
X158509633Y-104705923D01*
X158507426Y-104723012D01*
X158504925Y-104730992D01*
X158504180Y-104731979D01*
X158492165Y-104745674D01*
X158468542Y-104771287D01*
X158435187Y-104806832D01*
X158393974Y-104850318D01*
X158346779Y-104899758D01*
X158295475Y-104953163D01*
X158098365Y-105157715D01*
X157110483Y-105157715D01*
X156993546Y-105235578D01*
X156991033Y-105237251D01*
X156950430Y-105264196D01*
X156896975Y-105299556D01*
X156834125Y-105341050D01*
X156765340Y-105386395D01*
X156694078Y-105433311D01*
X156623799Y-105479514D01*
X156606467Y-105490903D01*
X156540791Y-105534114D01*
X156478544Y-105575153D01*
X156422358Y-105612279D01*
X156374861Y-105643753D01*
X156338685Y-105667835D01*
X156316461Y-105682785D01*
X156288524Y-105701271D01*
X156263697Y-105716563D01*
X156249542Y-105723880D01*
X156242011Y-105724216D01*
X156215599Y-105724587D01*
X156171263Y-105724908D01*
X156110051Y-105725179D01*
X156033016Y-105725400D01*
X155941209Y-105725570D01*
X155835681Y-105725688D01*
X155717483Y-105725755D01*
X155587665Y-105725769D01*
X155447280Y-105725729D01*
X155297378Y-105725637D01*
X155139011Y-105725490D01*
X154973228Y-105725288D01*
X154801083Y-105725031D01*
X154623624Y-105724718D01*
X153010099Y-105721658D01*
X152945568Y-105655319D01*
X152918776Y-105627543D01*
X152881278Y-105588322D01*
X152837061Y-105541835D01*
X152789589Y-105491727D01*
X152742329Y-105441640D01*
X152708696Y-105405970D01*
X152668018Y-105362141D01*
X152637914Y-105326929D01*
X152616778Y-105296646D01*
X152603006Y-105267599D01*
X152594995Y-105236098D01*
X152591140Y-105198453D01*
X152589837Y-105150974D01*
X152589483Y-105089969D01*
X152589246Y-105064868D01*
X152588015Y-105019083D01*
X152585626Y-104989815D01*
X152581825Y-104974749D01*
X152576356Y-104971574D01*
X152574086Y-104973210D01*
X152561132Y-104987778D01*
X152539454Y-105015319D01*
X152510882Y-105053411D01*
X152477247Y-105099630D01*
X152440378Y-105151556D01*
X152316794Y-105327657D01*
X151979371Y-105321435D01*
X151919704Y-105320273D01*
X151843059Y-105318592D01*
X151773958Y-105316863D01*
X151714857Y-105315158D01*
X151668213Y-105313550D01*
X151636482Y-105312110D01*
X151622121Y-105310912D01*
X151618073Y-105309445D01*
X151600819Y-105294287D01*
X151585333Y-105269342D01*
X151581275Y-105260528D01*
X151568161Y-105232382D01*
X151548815Y-105191080D01*
X151524675Y-105139690D01*
X151497183Y-105081279D01*
X151467779Y-105018917D01*
X151453015Y-104987625D01*
X151423159Y-104924291D01*
X151395252Y-104865024D01*
X151370924Y-104813289D01*
X151351805Y-104772552D01*
X151339525Y-104746279D01*
X151325890Y-104717068D01*
X151305269Y-104673079D01*
X151281658Y-104622848D01*
X151257942Y-104572520D01*
X151204018Y-104458245D01*
X151197906Y-103242386D01*
X151192537Y-102174396D01*
X151646906Y-102174396D01*
X151646906Y-104299478D01*
X151761153Y-104567492D01*
X151769046Y-104585994D01*
X151797869Y-104653317D01*
X151824163Y-104714368D01*
X151846886Y-104766749D01*
X151864994Y-104808065D01*
X151877446Y-104835919D01*
X151883197Y-104847915D01*
X151897349Y-104854905D01*
X151930784Y-104859983D01*
X151982728Y-104862787D01*
X152074464Y-104865248D01*
X152126322Y-104780978D01*
X152144242Y-104751751D01*
X152175945Y-104699742D01*
X152209724Y-104644050D01*
X152240759Y-104592610D01*
X152241053Y-104592120D01*
X152266233Y-104551076D01*
X152288677Y-104516002D01*
X152305947Y-104490606D01*
X152315610Y-104478597D01*
X152324220Y-104477183D01*
X152350419Y-104475972D01*
X152391266Y-104475251D01*
X152443943Y-104474981D01*
X152505628Y-104475121D01*
X152573503Y-104475632D01*
X152644747Y-104476474D01*
X152716542Y-104477607D01*
X152786066Y-104478991D01*
X152850502Y-104480587D01*
X152907028Y-104482353D01*
X152952825Y-104484252D01*
X152985073Y-104486242D01*
X153000953Y-104488284D01*
X153003370Y-104493065D01*
X153007282Y-104516525D01*
X153011338Y-104559111D01*
X153015507Y-104620397D01*
X153019756Y-104699956D01*
X153024054Y-104797361D01*
X153036473Y-105103188D01*
X153097642Y-105164925D01*
X153105411Y-105172686D01*
X153138855Y-105204603D01*
X153170573Y-105232847D01*
X153194604Y-105252063D01*
X153230397Y-105277462D01*
X153516813Y-105274956D01*
X153522085Y-105274910D01*
X153573147Y-105274478D01*
X153642134Y-105273911D01*
X153727362Y-105273223D01*
X153827148Y-105272427D01*
X153939809Y-105271536D01*
X154063662Y-105270563D01*
X154197024Y-105269521D01*
X154338212Y-105268424D01*
X154485543Y-105267285D01*
X154637334Y-105266116D01*
X154791902Y-105264932D01*
X154947563Y-105263745D01*
X155113263Y-105262469D01*
X155271424Y-105261208D01*
X155411859Y-105260022D01*
X155535650Y-105258888D01*
X155643882Y-105257783D01*
X155737637Y-105256683D01*
X155817998Y-105255565D01*
X155886050Y-105254405D01*
X155942875Y-105253180D01*
X155989557Y-105251865D01*
X156027179Y-105250438D01*
X156056824Y-105248875D01*
X156079577Y-105247153D01*
X156096520Y-105245247D01*
X156108737Y-105243135D01*
X156117310Y-105240792D01*
X156123325Y-105238196D01*
X156132913Y-105232848D01*
X156161511Y-105216035D01*
X156198426Y-105193653D01*
X156238085Y-105169058D01*
X156257581Y-105156853D01*
X156302550Y-105128819D01*
X156356383Y-105095364D01*
X156413952Y-105059672D01*
X156470130Y-105024929D01*
X156474095Y-105022480D01*
X156531011Y-104987281D01*
X156598825Y-104945274D01*
X156672051Y-104899861D01*
X156745204Y-104854443D01*
X156812798Y-104812423D01*
X157006754Y-104691751D01*
X157268848Y-104690793D01*
X157306591Y-104690601D01*
X157394607Y-104689814D01*
X157486300Y-104688601D01*
X157575795Y-104687057D01*
X157657214Y-104685277D01*
X157724681Y-104683358D01*
X157918421Y-104676880D01*
X158051423Y-104557910D01*
X158050971Y-102976607D01*
X158050520Y-101395303D01*
X157971745Y-101312201D01*
X157892970Y-101229098D01*
X157243432Y-101232504D01*
X157020447Y-101009044D01*
X156797461Y-100785584D01*
X154365746Y-100785584D01*
X154124144Y-101035742D01*
X154093318Y-101067658D01*
X154029265Y-101133958D01*
X153965165Y-101200287D01*
X153903782Y-101263788D01*
X153847880Y-101321601D01*
X153800222Y-101370867D01*
X153763573Y-101408726D01*
X153644603Y-101531552D01*
X153340795Y-101526635D01*
X153309045Y-101526155D01*
X153235464Y-101525321D01*
X153169226Y-101524950D01*
X153112825Y-101525034D01*
X153068758Y-101525562D01*
X153039522Y-101526524D01*
X153027614Y-101527909D01*
X153027522Y-101527981D01*
X153024678Y-101539801D01*
X153021434Y-101568720D01*
X153017977Y-101612113D01*
X153014491Y-101667353D01*
X153011164Y-101731813D01*
X153008180Y-101802868D01*
X153008117Y-101804547D01*
X153005205Y-101875814D01*
X153002107Y-101940723D01*
X152998987Y-101996583D01*
X152996008Y-102040701D01*
X152993335Y-102070385D01*
X152991131Y-102082943D01*
X152990175Y-102083855D01*
X152977793Y-102087195D01*
X152951043Y-102089840D01*
X152908833Y-102091828D01*
X152850073Y-102093199D01*
X152773672Y-102093993D01*
X152678540Y-102094249D01*
X152372937Y-102094249D01*
X152317693Y-102007501D01*
X152295865Y-101973060D01*
X152262544Y-101920114D01*
X152227309Y-101863806D01*
X152194900Y-101811697D01*
X152127351Y-101702641D01*
X152060812Y-101699714D01*
X152054728Y-101699468D01*
X152009661Y-101700153D01*
X151977828Y-101707597D01*
X151953718Y-101724017D01*
X151931822Y-101751632D01*
X151926597Y-101759442D01*
X151909492Y-101784906D01*
X151884218Y-101822466D01*
X151852664Y-101869315D01*
X151816717Y-101922649D01*
X151778268Y-101979664D01*
X151646906Y-102174396D01*
X151192537Y-102174396D01*
X151191794Y-102026526D01*
X151302859Y-101867115D01*
X151330008Y-101828104D01*
X151379036Y-101757506D01*
X151431532Y-101681766D01*
X151482748Y-101607738D01*
X151527936Y-101542276D01*
X151528129Y-101541996D01*
X151566253Y-101486698D01*
X151603677Y-101432449D01*
X151637764Y-101383070D01*
X151665877Y-101342379D01*
X151685379Y-101314198D01*
X151728808Y-101251548D01*
X152367596Y-101251548D01*
X152470579Y-101380484D01*
X152496209Y-101412082D01*
X152528454Y-101450340D01*
X152555270Y-101480424D01*
X152574412Y-101499838D01*
X152583634Y-101506089D01*
X152584104Y-101505821D01*
X152587600Y-101496061D01*
X152590946Y-101472025D01*
X152594196Y-101432788D01*
X152597406Y-101377423D01*
X152600630Y-101305006D01*
X152603923Y-101214611D01*
X152607339Y-101105315D01*
X152608576Y-101063180D01*
X153025622Y-101063180D01*
X153109631Y-101063068D01*
X153214538Y-101062506D01*
X153300464Y-101061459D01*
X153367907Y-101059916D01*
X153417366Y-101057863D01*
X153449338Y-101055287D01*
X153464322Y-101052177D01*
X153466383Y-101050785D01*
X153481594Y-101037639D01*
X153508956Y-101012248D01*
X153547061Y-100975973D01*
X153594504Y-100930177D01*
X153649879Y-100876222D01*
X153711780Y-100815468D01*
X153778801Y-100749279D01*
X153849536Y-100679017D01*
X154213095Y-100316859D01*
X154704130Y-100321736D01*
X154737740Y-100322065D01*
X154845527Y-100323029D01*
X154935487Y-100323642D01*
X155009179Y-100323875D01*
X155068164Y-100323698D01*
X155114003Y-100323083D01*
X155148256Y-100321999D01*
X155172484Y-100320417D01*
X155188247Y-100318308D01*
X155197106Y-100315642D01*
X155200621Y-100312391D01*
X155203302Y-100296656D01*
X155205310Y-100267130D01*
X155206078Y-100230747D01*
X155206078Y-100163323D01*
X154965661Y-100156526D01*
X154921258Y-100155122D01*
X154855229Y-100152471D01*
X154796285Y-100149437D01*
X154747613Y-100146216D01*
X154712396Y-100143000D01*
X154693818Y-100139984D01*
X154679144Y-100133469D01*
X154646699Y-100109696D01*
X154612902Y-100075395D01*
X154582332Y-100035509D01*
X154559564Y-99994982D01*
X154548499Y-99961805D01*
X154543812Y-99901960D01*
X154556229Y-99841417D01*
X154584759Y-99783942D01*
X154628413Y-99733299D01*
X154629444Y-99732369D01*
X154648314Y-99716614D01*
X154666507Y-99705848D01*
X154689126Y-99698351D01*
X154721277Y-99692408D01*
X154768061Y-99686300D01*
X154794467Y-99684186D01*
X154840276Y-99682118D01*
X154901927Y-99680286D01*
X154977347Y-99678691D01*
X155064463Y-99677336D01*
X155161203Y-99676223D01*
X155265491Y-99675353D01*
X155375256Y-99674730D01*
X155488424Y-99674355D01*
X155602922Y-99674231D01*
X155716677Y-99674358D01*
X155827614Y-99674740D01*
X155933662Y-99675378D01*
X156032747Y-99676275D01*
X156122795Y-99677433D01*
X156201734Y-99678853D01*
X156267490Y-99680538D01*
X156317990Y-99682490D01*
X156351160Y-99684710D01*
X156370621Y-99686532D01*
X156424837Y-99690774D01*
X156477566Y-99693900D01*
X156519701Y-99695334D01*
X156556634Y-99697136D01*
X156595485Y-99701724D01*
X156623441Y-99707982D01*
X156634821Y-99713025D01*
X156668008Y-99738553D01*
X156700149Y-99777068D01*
X156727687Y-99823794D01*
X156747063Y-99873951D01*
X156755347Y-99905965D01*
X156757970Y-99929871D01*
X156754029Y-99952820D01*
X156743203Y-99984022D01*
X156735040Y-100003402D01*
X156714644Y-100042113D01*
X156693332Y-100073451D01*
X156676002Y-100092455D01*
X156656501Y-100108121D01*
X156632862Y-100120249D01*
X156602470Y-100129431D01*
X156562711Y-100136258D01*
X156510968Y-100141320D01*
X156444628Y-100145207D01*
X156361075Y-100148512D01*
X156142964Y-100156037D01*
X156146496Y-100235350D01*
X156146886Y-100243038D01*
X156150344Y-100281034D01*
X156155450Y-100308964D01*
X156161368Y-100321947D01*
X156166196Y-100322867D01*
X156188934Y-100324353D01*
X156228164Y-100325714D01*
X156281787Y-100326913D01*
X156347705Y-100327915D01*
X156423821Y-100328684D01*
X156508034Y-100329185D01*
X156598247Y-100329382D01*
X157023787Y-100329534D01*
X157247622Y-100552506D01*
X157471457Y-100775479D01*
X158086133Y-100776475D01*
X158289373Y-100968680D01*
X158492612Y-101160886D01*
X158498746Y-101387150D01*
X158499458Y-101414783D01*
X158501295Y-101498793D01*
X158502991Y-101593534D01*
X158504446Y-101692405D01*
X158505559Y-101788806D01*
X158506227Y-101876138D01*
X158506614Y-101929595D01*
X158507549Y-102007887D01*
X158508847Y-102083431D01*
X158510418Y-102151956D01*
X158512175Y-102209192D01*
X158514028Y-102250870D01*
X158520481Y-102362878D01*
X158724658Y-102359926D01*
X158928834Y-102356974D01*
X158925514Y-101866224D01*
X158925139Y-101793544D01*
X158925065Y-101661262D01*
X158925767Y-101534790D01*
X158927199Y-101415687D01*
X158929315Y-101305508D01*
X158932067Y-101205811D01*
X158935410Y-101118153D01*
X158939297Y-101044092D01*
X158943682Y-100985184D01*
X158948518Y-100942987D01*
X158953759Y-100919058D01*
X158962122Y-100904138D01*
X158981871Y-100878180D01*
X159006967Y-100850684D01*
X159020483Y-100837673D01*
X159077703Y-100794120D01*
X159134112Y-100770297D01*
X159190104Y-100766159D01*
X159246073Y-100781659D01*
X159302416Y-100816754D01*
X159306017Y-100819645D01*
X159335914Y-100848355D01*
X159357871Y-100881094D01*
X159373438Y-100921793D01*
X159384166Y-100974382D01*
X159391607Y-101042793D01*
X159392549Y-101062080D01*
X159393627Y-101101363D01*
X159394725Y-101158339D01*
X159395836Y-101231886D01*
X159396950Y-101320878D01*
X159398058Y-101424191D01*
X159399150Y-101540702D01*
X159400217Y-101669287D01*
X159401251Y-101808821D01*
X159402240Y-101958181D01*
X159403177Y-102116242D01*
X159404053Y-102281881D01*
X159404857Y-102453974D01*
X159405580Y-102631396D01*
X159406214Y-102813024D01*
X159406521Y-102910822D01*
X159407169Y-103134351D01*
X159407673Y-103339214D01*
X159408022Y-103526234D01*
X159408204Y-103696233D01*
X159408207Y-103850033D01*
X159408021Y-103988457D01*
X159407633Y-104112328D01*
X159407034Y-104222469D01*
X159406210Y-104319701D01*
X159405151Y-104404847D01*
X159403845Y-104478731D01*
X159402282Y-104542173D01*
X159400449Y-104595998D01*
X159398336Y-104641028D01*
X159395930Y-104678085D01*
X159393221Y-104707991D01*
X159390197Y-104731570D01*
X159386847Y-104749644D01*
X159383160Y-104763035D01*
X159379123Y-104772566D01*
X159377833Y-104774911D01*
X159352515Y-104809946D01*
X159316660Y-104847575D01*
X159276778Y-104881592D01*
X159239378Y-104905792D01*
X159199718Y-104922093D01*
X159149380Y-104929410D01*
X159101237Y-104919083D01*
X159053128Y-104890539D01*
X159002892Y-104843207D01*
X158998738Y-104838695D01*
X158982762Y-104821746D01*
X158968920Y-104806804D01*
X158957060Y-104792412D01*
X158947030Y-104777116D01*
X158938678Y-104759459D01*
X158931851Y-104737986D01*
X158926396Y-104711241D01*
X158922162Y-104677769D01*
X158918997Y-104636114D01*
X158916748Y-104584821D01*
X158915262Y-104522433D01*
X158914388Y-104447496D01*
X158913974Y-104358554D01*
X158913866Y-104254151D01*
X158913913Y-104132831D01*
X158913963Y-103993139D01*
X158913963Y-103283526D01*
X158522355Y-103288902D01*
X158519810Y-104001137D01*
X158519383Y-104109215D01*
X158518723Y-104238796D01*
X158517949Y-104350464D01*
X158517037Y-104445320D01*
X158515965Y-104524463D01*
X158515316Y-104557910D01*
X158514712Y-104588995D01*
G37*
%TD*%
D13*
%TO.C,*%
X194500000Y-131530000D03*
%TD*%
D14*
%TO.C,J4*%
X187000000Y-53000000D03*
X187000000Y-69000000D03*
%TD*%
D15*
%TO.C,TP2*%
X113000000Y-120000000D03*
%TD*%
D14*
%TO.C,J3*%
X124000000Y-53000000D03*
X124000000Y-69000000D03*
%TD*%
D15*
%TO.C,TP5*%
X195250000Y-52750000D03*
%TD*%
D16*
%TO.C,BT1*%
X137000000Y-61790000D03*
X153000000Y-116990000D03*
D17*
X137000000Y-125190000D03*
D18*
X145000000Y-53670000D03*
X145000000Y-125110000D03*
%TD*%
D16*
%TO.C,BT2*%
X159000000Y-61790000D03*
X175000000Y-116990000D03*
D17*
X159000000Y-125190000D03*
D18*
X167000000Y-53670000D03*
X167000000Y-125110000D03*
%TD*%
D14*
%TO.C,J2*%
X124641287Y-125250000D03*
X124641287Y-109250000D03*
%TD*%
D13*
%TO.C,*%
X114500000Y-131530000D03*
%TD*%
D15*
%TO.C,TP4*%
X112860000Y-123900000D03*
%TD*%
%TO.C,TP3*%
X191750000Y-125250000D03*
%TD*%
D14*
%TO.C,J5*%
X187000000Y-125250000D03*
X187000000Y-109250000D03*
%TD*%
D19*
%TO.C,Q2*%
X153230098Y-96480999D03*
X153230098Y-95210999D03*
X153230098Y-93940999D03*
X153230098Y-92670999D03*
X158180098Y-92670999D03*
X158180098Y-93940999D03*
X158180098Y-95210999D03*
X158180098Y-96480999D03*
%TD*%
D20*
%TO.C,R4*%
X151130098Y-94426000D03*
X149480098Y-94426000D03*
%TD*%
D21*
%TO.C,U1*%
X150812599Y-90396001D03*
X150812599Y-91346000D03*
X150812599Y-92295999D03*
X148537599Y-92295999D03*
X148537599Y-91346000D03*
X148537599Y-90396001D03*
%TD*%
D22*
%TO.C,R1*%
X147392597Y-84095999D03*
X153317597Y-84095999D03*
%TD*%
D23*
%TO.C,C7*%
X146360098Y-97616000D03*
X147910098Y-97616000D03*
%TD*%
%TO.C,C8*%
X146340097Y-94435999D03*
X147890097Y-94435999D03*
%TD*%
D24*
%TO.C,R3*%
X150470098Y-98136000D03*
X152120098Y-98136000D03*
%TD*%
D23*
%TO.C,C9*%
X146350099Y-95986000D03*
X147900099Y-95986000D03*
%TD*%
D19*
%TO.C,Q1*%
X153240099Y-90921000D03*
X153240099Y-89651000D03*
X153240099Y-88381000D03*
X153240099Y-87111000D03*
X158190099Y-87111000D03*
X158190099Y-88381000D03*
X158190099Y-89651000D03*
X158190099Y-90921000D03*
%TD*%
D25*
%TO.C,J1*%
X160150506Y-81469670D03*
X167250506Y-81469670D03*
X160150506Y-79469670D03*
X167250506Y-79469670D03*
X160150506Y-77469670D03*
X167250506Y-77469670D03*
X160150506Y-75469670D03*
X167250506Y-75469670D03*
X160150506Y-73469670D03*
X167250506Y-73469670D03*
X160150506Y-71469670D03*
X167250506Y-71469670D03*
D26*
X163700506Y-67469670D03*
X163700506Y-85469670D03*
%TD*%
D20*
%TO.C,R5*%
X151120097Y-95965999D03*
X149470097Y-95965999D03*
%TD*%
D23*
%TO.C,C5*%
X155160097Y-85255999D03*
X156710097Y-85255999D03*
%TD*%
G36*
X194809031Y-43093945D02*
G01*
X195530059Y-43286219D01*
X195555076Y-43295841D01*
X195849535Y-43446798D01*
X195867653Y-43458122D01*
X196250696Y-43745404D01*
X196266304Y-43759273D01*
X196689417Y-44203205D01*
X196707608Y-44227623D01*
X196894849Y-44555296D01*
X196903608Y-44574052D01*
X197240934Y-45484952D01*
X197248767Y-45530212D01*
X197248399Y-45561039D01*
X197250374Y-45572453D01*
X197250092Y-45572501D01*
X197255688Y-45604832D01*
X197250179Y-46066467D01*
X197246299Y-46096024D01*
X197004447Y-47046824D01*
X196990826Y-47079840D01*
X196812678Y-47381465D01*
X196797421Y-47402145D01*
X196315903Y-47931816D01*
X196294118Y-47950843D01*
X195832439Y-48268675D01*
X195809453Y-48281199D01*
X195240463Y-48518279D01*
X195201211Y-48527634D01*
X194553847Y-48575081D01*
X194544357Y-48575418D01*
X190649102Y-48566750D01*
X190649099Y-48566750D01*
X190497241Y-48583943D01*
X190462352Y-48583029D01*
X190190320Y-48537690D01*
X190169585Y-48532391D01*
X189421624Y-48271840D01*
X189382410Y-48249649D01*
X189100004Y-48014311D01*
X188759673Y-47767850D01*
X188730223Y-47737869D01*
X188407468Y-47275018D01*
X188394886Y-47252294D01*
X188216033Y-46832093D01*
X188210816Y-46817362D01*
X188115804Y-46484820D01*
X188111784Y-46464630D01*
X188044272Y-45878794D01*
X188043446Y-45863604D01*
X188043483Y-45857394D01*
X188043132Y-45854347D01*
X189198792Y-45854347D01*
X189198792Y-45854355D01*
X189234376Y-46101854D01*
X189308616Y-46340615D01*
X189419654Y-46564659D01*
X189419658Y-46564666D01*
X189564681Y-46768328D01*
X189564690Y-46768339D01*
X189740082Y-46946541D01*
X189740085Y-46946543D01*
X189941435Y-47094799D01*
X189941438Y-47094801D01*
X190163677Y-47209378D01*
X190163682Y-47209380D01*
X190401237Y-47287406D01*
X190648134Y-47326917D01*
X190648142Y-47326918D01*
X190773264Y-47329323D01*
X194623165Y-47379321D01*
X194748888Y-47376943D01*
X194748908Y-47376941D01*
X194997283Y-47337609D01*
X195236453Y-47259902D01*
X195236455Y-47259901D01*
X195460528Y-47145734D01*
X195663975Y-46997926D01*
X195841800Y-46820106D01*
X195989621Y-46616650D01*
X196103784Y-46392597D01*
X196103787Y-46392589D01*
X196181499Y-46153423D01*
X196220840Y-45905035D01*
X196220840Y-45653564D01*
X196181499Y-45405176D01*
X196103787Y-45166010D01*
X196103784Y-45166002D01*
X195989621Y-44941949D01*
X195841800Y-44738493D01*
X195663975Y-44560673D01*
X195460528Y-44412865D01*
X195236455Y-44298698D01*
X195236453Y-44298697D01*
X194997282Y-44220990D01*
X194997284Y-44220990D01*
X194748905Y-44181657D01*
X194748900Y-44181656D01*
X194623177Y-44179322D01*
X190823995Y-44180114D01*
X190822347Y-44180104D01*
X190698098Y-44178504D01*
X190450079Y-44210161D01*
X190450077Y-44210162D01*
X190210159Y-44280611D01*
X189984394Y-44388080D01*
X189778431Y-44529878D01*
X189597475Y-44702423D01*
X189446046Y-44901402D01*
X189446043Y-44901406D01*
X189327957Y-45121807D01*
X189246181Y-45358087D01*
X189202758Y-45604345D01*
X189198792Y-45854347D01*
X188043132Y-45854347D01*
X188037432Y-45804882D01*
X188037617Y-45774515D01*
X188093061Y-45339828D01*
X188140843Y-44957575D01*
X188150237Y-44923152D01*
X188318770Y-44533789D01*
X188325004Y-44521326D01*
X188511399Y-44195135D01*
X188536781Y-44163749D01*
X188842022Y-43890636D01*
X188844196Y-43888736D01*
X189042975Y-43718916D01*
X189051582Y-43712186D01*
X189391334Y-43469506D01*
X189403354Y-43461906D01*
X189874882Y-43199805D01*
X189913559Y-43185967D01*
X190431904Y-43091723D01*
X190454443Y-43089691D01*
X194776566Y-43089691D01*
X194809031Y-43093945D01*
G37*
G36*
X118008483Y-43068562D02*
G01*
X118729511Y-43260836D01*
X118754528Y-43270458D01*
X119048987Y-43421415D01*
X119067105Y-43432739D01*
X119450148Y-43720021D01*
X119465756Y-43733890D01*
X119888869Y-44177822D01*
X119907060Y-44202240D01*
X120094301Y-44529913D01*
X120103060Y-44548669D01*
X120440386Y-45459569D01*
X120448219Y-45504829D01*
X120447362Y-45576575D01*
X120448850Y-45595199D01*
X120443258Y-46063841D01*
X120439378Y-46093399D01*
X120197526Y-47044199D01*
X120183905Y-47077215D01*
X120005757Y-47378840D01*
X119990500Y-47399520D01*
X119508982Y-47929191D01*
X119487197Y-47948218D01*
X119025518Y-48266050D01*
X119002532Y-48278574D01*
X118433542Y-48515654D01*
X118394290Y-48525009D01*
X117746926Y-48572456D01*
X117737436Y-48572793D01*
X113842181Y-48564125D01*
X113842178Y-48564125D01*
X113690320Y-48581318D01*
X113655431Y-48580404D01*
X113383399Y-48535065D01*
X113362664Y-48529766D01*
X112614703Y-48269215D01*
X112575489Y-48247024D01*
X112293083Y-48011686D01*
X111952752Y-47765225D01*
X111923302Y-47735244D01*
X111600547Y-47272393D01*
X111587965Y-47249669D01*
X111409112Y-46829468D01*
X111403895Y-46814737D01*
X111308883Y-46482195D01*
X111304863Y-46462005D01*
X111237432Y-45876876D01*
X111237617Y-45846509D01*
X111241288Y-45817723D01*
X111241288Y-45817718D01*
X111239974Y-45806312D01*
X112976192Y-45806312D01*
X112991951Y-46055473D01*
X113046729Y-46299027D01*
X113046735Y-46299046D01*
X113139164Y-46530941D01*
X113266952Y-46745411D01*
X113266959Y-46745421D01*
X113426909Y-46937097D01*
X113615040Y-47101212D01*
X113615039Y-47101212D01*
X113826650Y-47233662D01*
X113826655Y-47233665D01*
X114056490Y-47331163D01*
X114298791Y-47391263D01*
X114298805Y-47391265D01*
X114422952Y-47404311D01*
X114422959Y-47404312D01*
X117173179Y-47429322D01*
X117298905Y-47426987D01*
X117298908Y-47426986D01*
X117547291Y-47387651D01*
X117786469Y-47309943D01*
X117786471Y-47309942D01*
X118010548Y-47195774D01*
X118214009Y-47047955D01*
X118214010Y-47047954D01*
X118391828Y-46870140D01*
X118391833Y-46870134D01*
X118539656Y-46666678D01*
X118539656Y-46666677D01*
X118653824Y-46442614D01*
X118653827Y-46442606D01*
X118731541Y-46203435D01*
X118770884Y-45955038D01*
X118770884Y-45703561D01*
X118731541Y-45455164D01*
X118653827Y-45215993D01*
X118653824Y-45215985D01*
X118539656Y-44991922D01*
X118539656Y-44991921D01*
X118391833Y-44788465D01*
X118391828Y-44788459D01*
X118214010Y-44610645D01*
X118214009Y-44610644D01*
X118010548Y-44462825D01*
X117786471Y-44348657D01*
X117786469Y-44348656D01*
X117547291Y-44270948D01*
X117298904Y-44231613D01*
X117173155Y-44229321D01*
X114472935Y-44255106D01*
X114348411Y-44264125D01*
X114104324Y-44316509D01*
X114104318Y-44316511D01*
X113871516Y-44406663D01*
X113871509Y-44406666D01*
X113655801Y-44532338D01*
X113462555Y-44690404D01*
X113296606Y-44876907D01*
X113296602Y-44876911D01*
X113162078Y-45087214D01*
X113162071Y-45087227D01*
X113062331Y-45316071D01*
X113062328Y-45316082D01*
X112999848Y-45557784D01*
X112976192Y-45806312D01*
X111239974Y-45806312D01*
X111236884Y-45779500D01*
X111237069Y-45749133D01*
X111292513Y-45314445D01*
X111340295Y-44932192D01*
X111349689Y-44897769D01*
X111518222Y-44508406D01*
X111524456Y-44495943D01*
X111710851Y-44169752D01*
X111736233Y-44138366D01*
X112041474Y-43865253D01*
X112043648Y-43863353D01*
X112242427Y-43693533D01*
X112251034Y-43686803D01*
X112590786Y-43444123D01*
X112602806Y-43436523D01*
X113074334Y-43174422D01*
X113113011Y-43160584D01*
X113631356Y-43066340D01*
X113653895Y-43064308D01*
X117976018Y-43064308D01*
X118008483Y-43068562D01*
G37*
G36*
X118008483Y-43068562D02*
G01*
X118729511Y-43260836D01*
X118754528Y-43270458D01*
X119048987Y-43421415D01*
X119067105Y-43432739D01*
X119450148Y-43720021D01*
X119465756Y-43733890D01*
X119888869Y-44177822D01*
X119907060Y-44202240D01*
X120094301Y-44529913D01*
X120103060Y-44548669D01*
X120440386Y-45459569D01*
X120448219Y-45504829D01*
X120447362Y-45576575D01*
X120448850Y-45595199D01*
X120443258Y-46063841D01*
X120439378Y-46093399D01*
X120197526Y-47044199D01*
X120183905Y-47077215D01*
X120005757Y-47378840D01*
X119990500Y-47399520D01*
X119508982Y-47929191D01*
X119487197Y-47948218D01*
X119025518Y-48266050D01*
X119002532Y-48278574D01*
X118433542Y-48515654D01*
X118394290Y-48525009D01*
X117746926Y-48572456D01*
X117737436Y-48572793D01*
X113842181Y-48564125D01*
X113842178Y-48564125D01*
X113690320Y-48581318D01*
X113655431Y-48580404D01*
X113383399Y-48535065D01*
X113362664Y-48529766D01*
X112614703Y-48269215D01*
X112575489Y-48247024D01*
X112293083Y-48011686D01*
X111952752Y-47765225D01*
X111923302Y-47735244D01*
X111600547Y-47272393D01*
X111587965Y-47249669D01*
X111409112Y-46829468D01*
X111403895Y-46814737D01*
X111308883Y-46482195D01*
X111304863Y-46462005D01*
X111237432Y-45876876D01*
X111237617Y-45846509D01*
X111241288Y-45817723D01*
X111241288Y-45817718D01*
X111239974Y-45806312D01*
X112976192Y-45806312D01*
X112991951Y-46055473D01*
X113046729Y-46299027D01*
X113046735Y-46299046D01*
X113139164Y-46530941D01*
X113266952Y-46745411D01*
X113266959Y-46745421D01*
X113426909Y-46937097D01*
X113615040Y-47101212D01*
X113615039Y-47101212D01*
X113826650Y-47233662D01*
X113826655Y-47233665D01*
X114056490Y-47331163D01*
X114298791Y-47391263D01*
X114298805Y-47391265D01*
X114422952Y-47404311D01*
X114422959Y-47404312D01*
X117173179Y-47429322D01*
X117298905Y-47426987D01*
X117298908Y-47426986D01*
X117547291Y-47387651D01*
X117786469Y-47309943D01*
X117786471Y-47309942D01*
X118010548Y-47195774D01*
X118214009Y-47047955D01*
X118214010Y-47047954D01*
X118391828Y-46870140D01*
X118391833Y-46870134D01*
X118539656Y-46666678D01*
X118539656Y-46666677D01*
X118653824Y-46442614D01*
X118653827Y-46442606D01*
X118731541Y-46203435D01*
X118770884Y-45955038D01*
X118770884Y-45703561D01*
X118731541Y-45455164D01*
X118653827Y-45215993D01*
X118653824Y-45215985D01*
X118539656Y-44991922D01*
X118539656Y-44991921D01*
X118391833Y-44788465D01*
X118391828Y-44788459D01*
X118214010Y-44610645D01*
X118214009Y-44610644D01*
X118010548Y-44462825D01*
X117786471Y-44348657D01*
X117786469Y-44348656D01*
X117547291Y-44270948D01*
X117298904Y-44231613D01*
X117173155Y-44229321D01*
X114472935Y-44255106D01*
X114348411Y-44264125D01*
X114104324Y-44316509D01*
X114104318Y-44316511D01*
X113871516Y-44406663D01*
X113871509Y-44406666D01*
X113655801Y-44532338D01*
X113462555Y-44690404D01*
X113296606Y-44876907D01*
X113296602Y-44876911D01*
X113162078Y-45087214D01*
X113162071Y-45087227D01*
X113062331Y-45316071D01*
X113062328Y-45316082D01*
X112999848Y-45557784D01*
X112976192Y-45806312D01*
X111239974Y-45806312D01*
X111236884Y-45779500D01*
X111237069Y-45749133D01*
X111292513Y-45314445D01*
X111340295Y-44932192D01*
X111349689Y-44897769D01*
X111518222Y-44508406D01*
X111524456Y-44495943D01*
X111710851Y-44169752D01*
X111736233Y-44138366D01*
X112041474Y-43865253D01*
X112043648Y-43863353D01*
X112242427Y-43693533D01*
X112251034Y-43686803D01*
X112590786Y-43444123D01*
X112602806Y-43436523D01*
X113074334Y-43174422D01*
X113113011Y-43160584D01*
X113631356Y-43066340D01*
X113653895Y-43064308D01*
X117976018Y-43064308D01*
X118008483Y-43068562D01*
G37*
G36*
X194809031Y-43093945D02*
G01*
X195530059Y-43286219D01*
X195555076Y-43295841D01*
X195849535Y-43446798D01*
X195867653Y-43458122D01*
X196250696Y-43745404D01*
X196266304Y-43759273D01*
X196689417Y-44203205D01*
X196707608Y-44227623D01*
X196894849Y-44555296D01*
X196903608Y-44574052D01*
X197240934Y-45484952D01*
X197248767Y-45530212D01*
X197248399Y-45561039D01*
X197250374Y-45572453D01*
X197250092Y-45572501D01*
X197255688Y-45604832D01*
X197250179Y-46066467D01*
X197246299Y-46096024D01*
X197004447Y-47046824D01*
X196990826Y-47079840D01*
X196812678Y-47381465D01*
X196797421Y-47402145D01*
X196315903Y-47931816D01*
X196294118Y-47950843D01*
X195832439Y-48268675D01*
X195809453Y-48281199D01*
X195240463Y-48518279D01*
X195201211Y-48527634D01*
X194553847Y-48575081D01*
X194544357Y-48575418D01*
X190649102Y-48566750D01*
X190649099Y-48566750D01*
X190497241Y-48583943D01*
X190462352Y-48583029D01*
X190190320Y-48537690D01*
X190169585Y-48532391D01*
X189421624Y-48271840D01*
X189382410Y-48249649D01*
X189100004Y-48014311D01*
X188759673Y-47767850D01*
X188730223Y-47737869D01*
X188407468Y-47275018D01*
X188394886Y-47252294D01*
X188216033Y-46832093D01*
X188210816Y-46817362D01*
X188115804Y-46484820D01*
X188111784Y-46464630D01*
X188044272Y-45878794D01*
X188043446Y-45863604D01*
X188043483Y-45857394D01*
X188043132Y-45854347D01*
X189198792Y-45854347D01*
X189198792Y-45854355D01*
X189234376Y-46101854D01*
X189308616Y-46340615D01*
X189419654Y-46564659D01*
X189419658Y-46564666D01*
X189564681Y-46768328D01*
X189564690Y-46768339D01*
X189740082Y-46946541D01*
X189740085Y-46946543D01*
X189941435Y-47094799D01*
X189941438Y-47094801D01*
X190163677Y-47209378D01*
X190163682Y-47209380D01*
X190401237Y-47287406D01*
X190648134Y-47326917D01*
X190648142Y-47326918D01*
X190773264Y-47329323D01*
X194623165Y-47379321D01*
X194748888Y-47376943D01*
X194748908Y-47376941D01*
X194997283Y-47337609D01*
X195236453Y-47259902D01*
X195236455Y-47259901D01*
X195460528Y-47145734D01*
X195663975Y-46997926D01*
X195841800Y-46820106D01*
X195989621Y-46616650D01*
X196103784Y-46392597D01*
X196103787Y-46392589D01*
X196181499Y-46153423D01*
X196220840Y-45905035D01*
X196220840Y-45653564D01*
X196181499Y-45405176D01*
X196103787Y-45166010D01*
X196103784Y-45166002D01*
X195989621Y-44941949D01*
X195841800Y-44738493D01*
X195663975Y-44560673D01*
X195460528Y-44412865D01*
X195236455Y-44298698D01*
X195236453Y-44298697D01*
X194997282Y-44220990D01*
X194997284Y-44220990D01*
X194748905Y-44181657D01*
X194748900Y-44181656D01*
X194623177Y-44179322D01*
X190823995Y-44180114D01*
X190822347Y-44180104D01*
X190698098Y-44178504D01*
X190450079Y-44210161D01*
X190450077Y-44210162D01*
X190210159Y-44280611D01*
X189984394Y-44388080D01*
X189778431Y-44529878D01*
X189597475Y-44702423D01*
X189446046Y-44901402D01*
X189446043Y-44901406D01*
X189327957Y-45121807D01*
X189246181Y-45358087D01*
X189202758Y-45604345D01*
X189198792Y-45854347D01*
X188043132Y-45854347D01*
X188037432Y-45804882D01*
X188037617Y-45774515D01*
X188093061Y-45339828D01*
X188140843Y-44957575D01*
X188150237Y-44923152D01*
X188318770Y-44533789D01*
X188325004Y-44521326D01*
X188511399Y-44195135D01*
X188536781Y-44163749D01*
X188842022Y-43890636D01*
X188844196Y-43888736D01*
X189042975Y-43718916D01*
X189051582Y-43712186D01*
X189391334Y-43469506D01*
X189403354Y-43461906D01*
X189874882Y-43199805D01*
X189913559Y-43185967D01*
X190431904Y-43091723D01*
X190454443Y-43089691D01*
X194776566Y-43089691D01*
X194809031Y-43093945D01*
G37*
M02*
