%TF.GenerationSoftware,KiCad,Pcbnew,9.0.0*%
%TF.CreationDate,2025-05-14T15:36:39-07:00*%
%TF.ProjectId,battery_pack_v1a,62617474-6572-4795-9f70-61636b5f7631,rev?*%
%TF.SameCoordinates,Original*%
%TF.FileFunction,Copper,L1,Top*%
%TF.FilePolarity,Positive*%
%FSLAX46Y46*%
G04 Gerber Fmt 4.6, Leading zero omitted, Abs format (unit mm)*
G04 Created by KiCad (PCBNEW 9.0.0) date 2025-05-14 15:36:39*
%MOMM*%
%LPD*%
G01*
G04 APERTURE LIST*
%TA.AperFunction,ComponentPad*%
%ADD10C,5.000000*%
%TD*%
%TA.AperFunction,ComponentPad*%
%ADD11C,3.300000*%
%TD*%
%TA.AperFunction,ComponentPad*%
%ADD12C,2.400000*%
%TD*%
%TA.AperFunction,ComponentPad*%
%ADD13O,3.500000X2.500000*%
%TD*%
%TA.AperFunction,ComponentPad*%
%ADD14C,2.000000*%
%TD*%
%TA.AperFunction,ViaPad*%
%ADD15C,0.800000*%
%TD*%
%TA.AperFunction,Conductor*%
%ADD16C,2.000000*%
%TD*%
%TA.AperFunction,Conductor*%
%ADD17C,0.300000*%
%TD*%
%TA.AperFunction,Conductor*%
%ADD18C,0.400000*%
%TD*%
G04 APERTURE END LIST*
D10*
%TO.P,,1*%
%TO.N,Chassis Ground*%
X194500000Y-131530000D03*
%TD*%
D11*
%TO.P,BT3,*%
%TO.N,*%
X130600000Y-116950000D03*
X114600000Y-61750000D03*
D12*
X130600000Y-53550000D03*
D13*
%TO.P,BT3,1,+*%
%TO.N,BM*%
X122600000Y-53630000D03*
%TO.P,BT3,2,-*%
%TO.N,B-*%
X122600000Y-125070000D03*
%TD*%
D14*
%TO.P,TP2,1,1*%
%TO.N,B-*%
X113000000Y-120000000D03*
%TD*%
%TO.P,TP5,1,1*%
%TO.N,PACK+*%
X192000000Y-52550000D03*
%TD*%
D11*
%TO.P,BT1,*%
%TO.N,*%
X152600000Y-116970000D03*
X136600000Y-61770000D03*
D12*
X152600000Y-53570000D03*
D13*
%TO.P,BT1,1,+*%
%TO.N,BM*%
X144600000Y-53650000D03*
%TO.P,BT1,2,-*%
%TO.N,B-*%
X144600000Y-125090000D03*
%TD*%
D11*
%TO.P,BT2,*%
%TO.N,*%
X174000000Y-116990000D03*
X158000000Y-61790000D03*
D12*
X174000000Y-53590000D03*
D13*
%TO.P,BT2,1,+*%
%TO.N,PACK+*%
X166000000Y-53670000D03*
%TO.P,BT2,2,-*%
%TO.N,BM*%
X166000000Y-125110000D03*
%TD*%
D10*
%TO.P,,1*%
%TO.N,Chassis Ground*%
X114500000Y-131530000D03*
%TD*%
D14*
%TO.P,TP4,1,1*%
%TO.N,PACK-*%
X112860000Y-123900000D03*
%TD*%
%TO.P,TP3,1,1*%
%TO.N,BM*%
X191800000Y-125000000D03*
%TD*%
D11*
%TO.P,BT4,*%
%TO.N,*%
X195200000Y-117000000D03*
X179200000Y-61800000D03*
D12*
X195200000Y-53600000D03*
D13*
%TO.P,BT4,1,+*%
%TO.N,PACK+*%
X187200000Y-53680000D03*
%TO.P,BT4,2,-*%
%TO.N,BM*%
X187200000Y-125120000D03*
%TD*%
D15*
%TO.N,/VDD*%
X147190097Y-93301507D03*
X148705560Y-95268460D03*
%TO.N,PACK-*%
X121900000Y-58800000D03*
X182700000Y-108700000D03*
X139800000Y-51400000D03*
X163700000Y-77600000D03*
X169300000Y-64000000D03*
X144500000Y-99600000D03*
X158000000Y-80700000D03*
X158200000Y-78200000D03*
X169700000Y-75900000D03*
X179000000Y-121700000D03*
X144500000Y-100700000D03*
X146000000Y-61000000D03*
X129800000Y-111500000D03*
X183000000Y-128000000D03*
X163700000Y-75200000D03*
X163700000Y-80200000D03*
X147800000Y-118000000D03*
X147500000Y-107900000D03*
X161300000Y-96400000D03*
X168300000Y-83100000D03*
X137000000Y-115500000D03*
X153600000Y-69100000D03*
X118300000Y-116900000D03*
X126700000Y-63900000D03*
X141800000Y-118900000D03*
X165500000Y-63400000D03*
X157775506Y-84775506D03*
X175132930Y-122786059D03*
X158700000Y-99000000D03*
X159925506Y-82625506D03*
X153200000Y-100100000D03*
X169500000Y-77600000D03*
X150200000Y-100000000D03*
X190900000Y-108600000D03*
X130100000Y-58800000D03*
X121400000Y-63700000D03*
X151070035Y-56949400D03*
X140200000Y-55800000D03*
X160800000Y-115900000D03*
X131300000Y-123000000D03*
X154400000Y-94250000D03*
X169300000Y-79500000D03*
X136000000Y-123000000D03*
X135350000Y-56400000D03*
X153600000Y-73900000D03*
X154600000Y-59800000D03*
X175000000Y-127200000D03*
X159200000Y-120700000D03*
X153300000Y-98200000D03*
X144500000Y-118000000D03*
X153800000Y-78300000D03*
X120700000Y-109400000D03*
X147900000Y-99400000D03*
X160100000Y-97800000D03*
X169300000Y-73500000D03*
X129650000Y-51300000D03*
X120200000Y-123300000D03*
X158100000Y-69300000D03*
X127300000Y-115600000D03*
X133300000Y-51300000D03*
X153600000Y-80400000D03*
X144500000Y-98600000D03*
X150000000Y-65000000D03*
X169400000Y-81600000D03*
X144500000Y-96700000D03*
X144500000Y-97700000D03*
X163800000Y-73400000D03*
X158475506Y-84075506D03*
X159125506Y-83425506D03*
X158200000Y-73700000D03*
X144600000Y-115200000D03*
X140000000Y-124000000D03*
X163700000Y-81700000D03*
%TO.N,BM*%
X151250000Y-93500000D03*
%TD*%
D16*
%TO.N,B-*%
X123750000Y-123920000D02*
X122600000Y-125070000D01*
X123750000Y-121000000D02*
X123750000Y-123920000D01*
X122750000Y-120000000D02*
X113000000Y-120000000D01*
X123750000Y-121000000D02*
X122750000Y-120000000D01*
X144750000Y-124885844D02*
X140864156Y-121000000D01*
X144750000Y-124900000D02*
X144750000Y-124885844D01*
X140864156Y-121000000D02*
X123750000Y-121000000D01*
%TO.N,BM*%
X187000000Y-125090000D02*
X191590000Y-125090000D01*
X178660000Y-125090000D02*
X187000000Y-125090000D01*
X178640000Y-125110000D02*
X178660000Y-125090000D01*
X167000000Y-125110000D02*
X178640000Y-125110000D01*
X156000000Y-114110000D02*
X167000000Y-125110000D01*
X156000000Y-92300000D02*
X156000000Y-114110000D01*
X144000000Y-54250000D02*
X144600000Y-53650000D01*
X144000000Y-55000000D02*
X144000000Y-54250000D01*
X144000000Y-55000000D02*
X142670000Y-53670000D01*
X131791894Y-57000000D02*
X125550000Y-57000000D01*
X125550000Y-57000000D02*
X122400000Y-53850000D01*
X142670000Y-53670000D02*
X135050000Y-53670000D01*
X135050000Y-53670000D02*
X135050000Y-53741894D01*
X135050000Y-53741894D02*
X131791894Y-57000000D01*
X156000000Y-92300000D02*
X156000000Y-67000000D01*
X156000000Y-67000000D02*
X144000000Y-55000000D01*
%TO.N,PACK+*%
X187000000Y-55180000D02*
X187000000Y-57000000D01*
X187000000Y-57000000D02*
X189000000Y-57000000D01*
X192000000Y-54000000D02*
X192000000Y-52550000D01*
X185350000Y-57000000D02*
X187000000Y-57000000D01*
X189000000Y-57000000D02*
X192000000Y-54000000D01*
X185350000Y-57000000D02*
X170000000Y-57000000D01*
X170000000Y-57000000D02*
X166850000Y-53850000D01*
X187000000Y-55180000D02*
X187000000Y-53650000D01*
%TO.N,BM*%
X152450000Y-92300000D02*
X151250000Y-93500000D01*
X156000000Y-92300000D02*
X152450000Y-92300000D01*
D17*
%TO.N,/VDD*%
X147190097Y-93752997D02*
X148705560Y-95268460D01*
X147190097Y-93301507D02*
X147190097Y-93752997D01*
D16*
%TO.N,PACK+*%
X187000000Y-55180000D02*
X187020000Y-55180000D01*
D18*
%TO.N,Chassis Ground*%
X192210000Y-127290000D02*
X192210000Y-129240000D01*
X112725000Y-127540000D02*
X112725000Y-129755000D01*
X112725000Y-129755000D02*
X114500000Y-131530000D01*
X192210000Y-129240000D02*
X194500000Y-131530000D01*
%TD*%
%TA.AperFunction,Conductor*%
%TO.N,Chassis Ground*%
G36*
X197003197Y-43020002D02*
G01*
X197032024Y-43045520D01*
X197470950Y-43574269D01*
X197499069Y-43639456D01*
X197500000Y-43654745D01*
X197500000Y-48874000D01*
X197479998Y-48942121D01*
X197426342Y-48988614D01*
X197374000Y-49000000D01*
X187626000Y-49000000D01*
X187557879Y-48979998D01*
X187511386Y-48926342D01*
X187500000Y-48874000D01*
X187500000Y-45854374D01*
X188995959Y-45854374D01*
X188995959Y-45854386D01*
X189028799Y-46108798D01*
X189028800Y-46108803D01*
X189097870Y-46355857D01*
X189097875Y-46355872D01*
X189201733Y-46590420D01*
X189201735Y-46590424D01*
X189282215Y-46718480D01*
X189338241Y-46807626D01*
X189504548Y-47002949D01*
X189504553Y-47002953D01*
X189697203Y-47172339D01*
X189912205Y-47312276D01*
X189912207Y-47312277D01*
X190145092Y-47419858D01*
X190145094Y-47419858D01*
X190145095Y-47419859D01*
X190145098Y-47419860D01*
X190391019Y-47492845D01*
X190391021Y-47492846D01*
X190447438Y-47501041D01*
X190644891Y-47529727D01*
X190771129Y-47529819D01*
X190772524Y-47529829D01*
X194582028Y-47579304D01*
X194583275Y-47579821D01*
X194621857Y-47579821D01*
X194660437Y-47580323D01*
X194660437Y-47580322D01*
X194667992Y-47580421D01*
X194674973Y-47579778D01*
X194751932Y-47579781D01*
X195006861Y-47543133D01*
X195253979Y-47470578D01*
X195488256Y-47363592D01*
X195704922Y-47224354D01*
X195899567Y-47055697D01*
X196068228Y-46861056D01*
X196207472Y-46644393D01*
X196314463Y-46410119D01*
X196387024Y-46163002D01*
X196423678Y-45908075D01*
X196423678Y-45650525D01*
X196387024Y-45395598D01*
X196314463Y-45148481D01*
X196226877Y-44956697D01*
X196207476Y-44914215D01*
X196207472Y-44914207D01*
X196178246Y-44868732D01*
X196068228Y-44697544D01*
X196032205Y-44655972D01*
X195899568Y-44502903D01*
X195704923Y-44334247D01*
X195704922Y-44334246D01*
X195488256Y-44195008D01*
X195488246Y-44195003D01*
X195253985Y-44088024D01*
X195253980Y-44088022D01*
X195253979Y-44088022D01*
X195191402Y-44069649D01*
X195006860Y-44015466D01*
X194816013Y-43988031D01*
X194751932Y-43978819D01*
X194751930Y-43978819D01*
X194675377Y-43978819D01*
X194675377Y-43978820D01*
X194663017Y-43978820D01*
X194663002Y-43978814D01*
X194625014Y-43978820D01*
X194623160Y-43978821D01*
X194623156Y-43978822D01*
X194572203Y-43978822D01*
X194572097Y-43978832D01*
X190829630Y-43979612D01*
X190825701Y-43979552D01*
X190712707Y-43976049D01*
X190701291Y-43975696D01*
X190701290Y-43975696D01*
X190701289Y-43975696D01*
X190446386Y-44004500D01*
X190446372Y-44004503D01*
X190198259Y-44069649D01*
X190198258Y-44069649D01*
X189962085Y-44169782D01*
X189962083Y-44169783D01*
X189742734Y-44302837D01*
X189544806Y-44466025D01*
X189372388Y-44655968D01*
X189229064Y-44868723D01*
X189229056Y-44868738D01*
X189117803Y-45099879D01*
X189117802Y-45099880D01*
X189040926Y-45344626D01*
X189000028Y-45597877D01*
X188995959Y-45854374D01*
X187500000Y-45854374D01*
X187500000Y-43126000D01*
X187520002Y-43057879D01*
X187573658Y-43011386D01*
X187626000Y-43000000D01*
X196935076Y-43000000D01*
X197003197Y-43020002D01*
G37*
%TD.AperFunction*%
%TD*%
%TA.AperFunction,Conductor*%
%TO.N,Chassis Ground*%
G36*
X120942121Y-43020002D02*
G01*
X120988614Y-43073658D01*
X121000000Y-43126000D01*
X121000000Y-48874000D01*
X120979998Y-48942121D01*
X120926342Y-48988614D01*
X120874000Y-49000000D01*
X110826500Y-49000000D01*
X110758379Y-48979998D01*
X110711886Y-48926342D01*
X110700500Y-48874000D01*
X110700500Y-46037542D01*
X110701346Y-46035363D01*
X110700500Y-45997757D01*
X110700500Y-45992675D01*
X110700511Y-45990974D01*
X110701491Y-45918391D01*
X110703048Y-45803099D01*
X112773656Y-45803099D01*
X112782289Y-45958081D01*
X112787830Y-46057570D01*
X112787830Y-46057574D01*
X112787831Y-46057575D01*
X112838123Y-46307408D01*
X112838128Y-46307428D01*
X112919696Y-46536809D01*
X112923516Y-46547551D01*
X113042260Y-46773062D01*
X113142386Y-46911060D01*
X113191929Y-46979343D01*
X113191939Y-46979355D01*
X113369469Y-47162190D01*
X113369473Y-47162193D01*
X113369474Y-47162194D01*
X113571264Y-47317871D01*
X113793182Y-47443199D01*
X113793185Y-47443200D01*
X114030691Y-47535619D01*
X114087950Y-47548910D01*
X114278958Y-47593247D01*
X114374014Y-47601363D01*
X114381260Y-47604442D01*
X114413517Y-47604735D01*
X114445665Y-47607477D01*
X114445665Y-47607476D01*
X114445668Y-47607477D01*
X114458006Y-47606098D01*
X114458169Y-47607561D01*
X114473288Y-47605278D01*
X117132401Y-47629459D01*
X117133275Y-47629821D01*
X117172287Y-47629821D01*
X117211219Y-47630176D01*
X117211220Y-47630175D01*
X117220103Y-47630256D01*
X117225175Y-47629778D01*
X117301932Y-47629781D01*
X117556861Y-47593133D01*
X117803979Y-47520578D01*
X118038256Y-47413592D01*
X118254922Y-47274354D01*
X118449567Y-47105697D01*
X118618228Y-46911056D01*
X118757472Y-46694393D01*
X118864463Y-46460119D01*
X118937024Y-46213002D01*
X118973678Y-45958075D01*
X118973678Y-45700525D01*
X118937024Y-45445598D01*
X118864463Y-45198481D01*
X118757472Y-44964207D01*
X118618228Y-44747544D01*
X118532907Y-44649080D01*
X118449568Y-44552903D01*
X118254923Y-44384247D01*
X118254922Y-44384246D01*
X118038256Y-44245008D01*
X118038246Y-44245003D01*
X117803985Y-44138024D01*
X117803980Y-44138022D01*
X117803979Y-44138022D01*
X117741633Y-44119717D01*
X117556860Y-44065466D01*
X117366013Y-44038031D01*
X117301932Y-44028819D01*
X117301930Y-44028819D01*
X117224902Y-44028819D01*
X117224902Y-44028820D01*
X117212046Y-44028820D01*
X117211128Y-44028450D01*
X117172170Y-44028821D01*
X117171596Y-44028822D01*
X117171595Y-44028821D01*
X117171593Y-44028822D01*
X117124382Y-44028822D01*
X117119524Y-44029324D01*
X114521819Y-44054128D01*
X114521820Y-44054129D01*
X114506358Y-44054276D01*
X114502074Y-44052765D01*
X114466639Y-44054656D01*
X114463863Y-44054683D01*
X114431141Y-44054995D01*
X114431044Y-44055016D01*
X114412042Y-44057492D01*
X114334995Y-44061615D01*
X114085032Y-44111336D01*
X113844702Y-44196175D01*
X113844698Y-44196177D01*
X113618924Y-44314397D01*
X113618920Y-44314400D01*
X113412296Y-44463595D01*
X113412292Y-44463598D01*
X113229040Y-44640717D01*
X113229032Y-44640726D01*
X113072903Y-44842145D01*
X113072892Y-44842161D01*
X112947062Y-45063777D01*
X112947058Y-45063785D01*
X112854095Y-45301077D01*
X112854091Y-45301089D01*
X112795897Y-45549210D01*
X112795896Y-45549215D01*
X112773656Y-45803099D01*
X110703048Y-45803099D01*
X110706503Y-45547315D01*
X110706949Y-45538300D01*
X110744837Y-45096238D01*
X110745935Y-45087248D01*
X110749662Y-45063781D01*
X110815521Y-44649060D01*
X110817258Y-44640199D01*
X110918188Y-44208129D01*
X110920557Y-44199421D01*
X111052298Y-43775749D01*
X111055283Y-43767241D01*
X111217173Y-43354105D01*
X111220767Y-43345825D01*
X111351648Y-43071710D01*
X111399050Y-43018855D01*
X111465352Y-43000000D01*
X120874000Y-43000000D01*
X120942121Y-43020002D01*
G37*
%TD.AperFunction*%
%TD*%
M02*
