%TF.GenerationSoftware,KiCad,Pcbnew,(6.0.7)*%
%TF.CreationDate,2023-03-29T01:01:16-07:00*%
%TF.ProjectId,battery_board_v1,62617474-6572-4795-9f62-6f6172645f76,rev?*%
%TF.SameCoordinates,Original*%
%TF.FileFunction,Soldermask,Top*%
%TF.FilePolarity,Negative*%
%FSLAX46Y46*%
G04 Gerber Fmt 4.6, Leading zero omitted, Abs format (unit mm)*
G04 Created by KiCad (PCBNEW (6.0.7)) date 2023-03-29 01:01:16*
%MOMM*%
%LPD*%
G01*
G04 APERTURE LIST*
G04 Aperture macros list*
%AMRoundRect*
0 Rectangle with rounded corners*
0 $1 Rounding radius*
0 $2 $3 $4 $5 $6 $7 $8 $9 X,Y pos of 4 corners*
0 Add a 4 corners polygon primitive as box body*
4,1,4,$2,$3,$4,$5,$6,$7,$8,$9,$2,$3,0*
0 Add four circle primitives for the rounded corners*
1,1,$1+$1,$2,$3*
1,1,$1+$1,$4,$5*
1,1,$1+$1,$6,$7*
1,1,$1+$1,$8,$9*
0 Add four rect primitives between the rounded corners*
20,1,$1+$1,$2,$3,$4,$5,0*
20,1,$1+$1,$4,$5,$6,$7,0*
20,1,$1+$1,$6,$7,$8,$9,0*
20,1,$1+$1,$8,$9,$2,$3,0*%
%AMFreePoly0*
4,1,24,0.750000,-0.950000,0.000000,-0.950000,0.000000,-0.945015,-0.095001,-0.943523,-0.257687,-0.900844,-0.405497,-0.820589,-0.529897,-0.707394,-0.623705,-0.567793,-0.681505,-0.409846,-0.699153,-0.250000,-0.700000,-0.250000,-0.700000,0.250000,-0.699153,0.250000,-0.699962,0.257330,-0.678008,0.424083,-0.616912,0.580786,-0.520201,0.718391,-0.393458,0.828956,-0.244000,0.906097,-0.080456,0.945361,
0.000000,0.944940,0.000000,0.950000,0.750000,0.950000,0.750000,-0.950000,0.750000,-0.950000,$1*%
%AMFreePoly1*
4,1,22,0.000000,0.944940,0.087733,0.944480,0.250858,0.903506,0.399499,0.824804,0.525078,0.712918,0.620343,0.574307,0.679794,0.416973,0.700000,0.250000,0.700000,-0.250000,0.699846,-0.264660,0.676148,-0.431173,0.613415,-0.587228,0.515268,-0.723813,0.387374,-0.833045,0.237117,-0.908617,0.073170,-0.946165,0.000000,-0.945015,0.000000,-0.950000,-0.750000,-0.950000,-0.750000,0.950000,
0.000000,0.950000,0.000000,0.944940,0.000000,0.944940,$1*%
G04 Aperture macros list end*
%ADD10C,0.150000*%
%ADD11C,0.010000*%
%ADD12C,4.770000*%
%ADD13C,5.325000*%
%ADD14C,3.570000*%
%ADD15C,1.980000*%
%ADD16RoundRect,0.200000X-0.200000X-0.275000X0.200000X-0.275000X0.200000X0.275000X-0.200000X0.275000X0*%
%ADD17RoundRect,0.200000X0.275000X-0.200000X0.275000X0.200000X-0.275000X0.200000X-0.275000X-0.200000X0*%
%ADD18RoundRect,0.225000X-0.250000X0.225000X-0.250000X-0.225000X0.250000X-0.225000X0.250000X0.225000X0*%
%ADD19RoundRect,0.225000X0.250000X-0.225000X0.250000X0.225000X-0.250000X0.225000X-0.250000X-0.225000X0*%
%ADD20RoundRect,0.150000X-0.150000X-0.350000X0.150000X-0.350000X0.150000X0.350000X-0.150000X0.350000X0*%
%ADD21RoundRect,0.250000X-0.375000X-0.650000X0.375000X-0.650000X0.375000X0.650000X-0.375000X0.650000X0*%
%ADD22RoundRect,0.063500X-1.100000X-0.700000X1.100000X-0.700000X1.100000X0.700000X-1.100000X0.700000X0*%
%ADD23RoundRect,0.063500X-0.450000X-0.700000X0.450000X-0.700000X0.450000X0.700000X-0.450000X0.700000X0*%
%ADD24RoundRect,0.225000X-0.225000X-0.250000X0.225000X-0.250000X0.225000X0.250000X-0.225000X0.250000X0*%
%ADD25RoundRect,0.150000X-0.825000X-0.150000X0.825000X-0.150000X0.825000X0.150000X-0.825000X0.150000X0*%
%ADD26R,0.400000X0.510000*%
%ADD27R,0.650000X0.400000*%
%ADD28R,0.600000X1.550000*%
%ADD29R,1.200000X1.800000*%
%ADD30R,0.600000X1.000000*%
%ADD31R,1.250000X1.800000*%
%ADD32RoundRect,0.200000X0.200000X0.275000X-0.200000X0.275000X-0.200000X-0.275000X0.200000X-0.275000X0*%
%ADD33R,1.000000X0.600000*%
%ADD34R,1.800000X1.250000*%
%ADD35C,5.000000*%
%ADD36C,2.000000*%
%ADD37R,2.209800X0.609600*%
%ADD38RoundRect,0.225000X0.225000X0.250000X-0.225000X0.250000X-0.225000X-0.250000X0.225000X-0.250000X0*%
%ADD39RoundRect,0.250000X1.100000X-0.325000X1.100000X0.325000X-1.100000X0.325000X-1.100000X-0.325000X0*%
%ADD40R,2.000000X0.650000*%
%ADD41R,2.000000X3.200000*%
%ADD42RoundRect,0.200000X-0.275000X0.200000X-0.275000X-0.200000X0.275000X-0.200000X0.275000X0.200000X0*%
%ADD43RoundRect,0.063500X0.700000X-0.450000X0.700000X0.450000X-0.700000X0.450000X-0.700000X-0.450000X0*%
%ADD44RoundRect,0.063500X0.700000X-1.100000X0.700000X1.100000X-0.700000X1.100000X-0.700000X-1.100000X0*%
%ADD45RoundRect,0.063500X-0.152400X0.800100X-0.152400X-0.800100X0.152400X-0.800100X0.152400X0.800100X0*%
%ADD46RoundRect,0.063500X-1.230000X1.155000X-1.230000X-1.155000X1.230000X-1.155000X1.230000X1.155000X0*%
%ADD47R,1.700000X1.700000*%
%ADD48O,1.700000X1.700000*%
%ADD49RoundRect,0.020500X0.764500X0.184500X-0.764500X0.184500X-0.764500X-0.184500X0.764500X-0.184500X0*%
%ADD50RoundRect,0.063500X0.279400X0.660400X-0.279400X0.660400X-0.279400X-0.660400X0.279400X-0.660400X0*%
%ADD51RoundRect,0.250000X-0.362500X-1.425000X0.362500X-1.425000X0.362500X1.425000X-0.362500X1.425000X0*%
%ADD52RoundRect,0.250000X-1.425000X0.362500X-1.425000X-0.362500X1.425000X-0.362500X1.425000X0.362500X0*%
%ADD53RoundRect,0.250000X-1.450000X0.312500X-1.450000X-0.312500X1.450000X-0.312500X1.450000X0.312500X0*%
%ADD54RoundRect,0.250000X1.450000X-0.312500X1.450000X0.312500X-1.450000X0.312500X-1.450000X-0.312500X0*%
%ADD55FreePoly0,0.000000*%
%ADD56R,1.400000X1.900000*%
%ADD57FreePoly1,0.000000*%
%ADD58RoundRect,0.250000X0.362500X1.425000X-0.362500X1.425000X-0.362500X-1.425000X0.362500X-1.425000X0*%
%ADD59R,0.450000X1.425000*%
%ADD60R,2.947000X1.753000*%
%ADD61RoundRect,0.063500X0.450000X0.700000X-0.450000X0.700000X-0.450000X-0.700000X0.450000X-0.700000X0*%
%ADD62RoundRect,0.063500X1.100000X0.700000X-1.100000X0.700000X-1.100000X-0.700000X1.100000X-0.700000X0*%
%ADD63R,1.508000X1.508000*%
%ADD64C,1.508000*%
%ADD65C,1.800000*%
%ADD66RoundRect,0.250000X-1.100000X0.325000X-1.100000X-0.325000X1.100000X-0.325000X1.100000X0.325000X0*%
%ADD67R,1.100000X0.400000*%
%ADD68R,1.700000X2.350000*%
%ADD69R,0.450000X1.475000*%
G04 APERTURE END LIST*
D10*
X193457397Y-45800000D02*
G75*
G03*
X193457397Y-45800000I-2707397J0D01*
G01*
X190750000Y-48496747D02*
X194550000Y-48503254D01*
X113942531Y-48568739D02*
X117742531Y-48575246D01*
X197242408Y-45774702D02*
G75*
G03*
X197242408Y-45774702I-2692408J0D01*
G01*
X116649928Y-45871992D02*
G75*
G03*
X116649928Y-45871992I-2707397J0D01*
G01*
X120434939Y-45846694D02*
G75*
G03*
X120434939Y-45846694I-2692408J0D01*
G01*
X194600000Y-43096747D02*
X190800000Y-43103254D01*
X117792531Y-43168739D02*
X113992531Y-43175246D01*
X168657142Y-132907142D02*
X168657142Y-132007142D01*
X169000000Y-132007142D01*
X169085714Y-132050000D01*
X169128571Y-132092857D01*
X169171428Y-132178571D01*
X169171428Y-132307142D01*
X169128571Y-132392857D01*
X169085714Y-132435714D01*
X169000000Y-132478571D01*
X168657142Y-132478571D01*
X169728571Y-132478571D02*
X169728571Y-132907142D01*
X169428571Y-132007142D02*
X169728571Y-132478571D01*
X170028571Y-132007142D01*
X170285714Y-132864285D02*
X170414285Y-132907142D01*
X170628571Y-132907142D01*
X170714285Y-132864285D01*
X170757142Y-132821428D01*
X170800000Y-132735714D01*
X170800000Y-132650000D01*
X170757142Y-132564285D01*
X170714285Y-132521428D01*
X170628571Y-132478571D01*
X170457142Y-132435714D01*
X170371428Y-132392857D01*
X170328571Y-132350000D01*
X170285714Y-132264285D01*
X170285714Y-132178571D01*
X170328571Y-132092857D01*
X170371428Y-132050000D01*
X170457142Y-132007142D01*
X170671428Y-132007142D01*
X170800000Y-132050000D01*
X171785714Y-132992857D02*
X171700000Y-132950000D01*
X171614285Y-132864285D01*
X171485714Y-132735714D01*
X171400000Y-132692857D01*
X171314285Y-132692857D01*
X171357142Y-132907142D02*
X171271428Y-132864285D01*
X171185714Y-132778571D01*
X171142857Y-132607142D01*
X171142857Y-132307142D01*
X171185714Y-132135714D01*
X171271428Y-132050000D01*
X171357142Y-132007142D01*
X171528571Y-132007142D01*
X171614285Y-132050000D01*
X171700000Y-132135714D01*
X171742857Y-132307142D01*
X171742857Y-132607142D01*
X171700000Y-132778571D01*
X171614285Y-132864285D01*
X171528571Y-132907142D01*
X171357142Y-132907142D01*
X172128571Y-132007142D02*
X172128571Y-132735714D01*
X172171428Y-132821428D01*
X172214285Y-132864285D01*
X172300000Y-132907142D01*
X172471428Y-132907142D01*
X172557142Y-132864285D01*
X172600000Y-132821428D01*
X172642857Y-132735714D01*
X172642857Y-132007142D01*
X173028571Y-132650000D02*
X173457142Y-132650000D01*
X172942857Y-132907142D02*
X173242857Y-132007142D01*
X173542857Y-132907142D01*
X174357142Y-132907142D02*
X174057142Y-132478571D01*
X173842857Y-132907142D02*
X173842857Y-132007142D01*
X174185714Y-132007142D01*
X174271428Y-132050000D01*
X174314285Y-132092857D01*
X174357142Y-132178571D01*
X174357142Y-132307142D01*
X174314285Y-132392857D01*
X174271428Y-132435714D01*
X174185714Y-132478571D01*
X173842857Y-132478571D01*
X174742857Y-132435714D02*
X175042857Y-132435714D01*
X175171428Y-132907142D02*
X174742857Y-132907142D01*
X174742857Y-132007142D01*
X175171428Y-132007142D01*
X175557142Y-132907142D02*
X175557142Y-132007142D01*
X175771428Y-132007142D01*
X175900000Y-132050000D01*
X175985714Y-132135714D01*
X176028571Y-132221428D01*
X176071428Y-132392857D01*
X176071428Y-132521428D01*
X176028571Y-132692857D01*
X175985714Y-132778571D01*
X175900000Y-132864285D01*
X175771428Y-132907142D01*
X175557142Y-132907142D01*
X177442857Y-132435714D02*
X177571428Y-132478571D01*
X177614285Y-132521428D01*
X177657142Y-132607142D01*
X177657142Y-132735714D01*
X177614285Y-132821428D01*
X177571428Y-132864285D01*
X177485714Y-132907142D01*
X177142857Y-132907142D01*
X177142857Y-132007142D01*
X177442857Y-132007142D01*
X177528571Y-132050000D01*
X177571428Y-132092857D01*
X177614285Y-132178571D01*
X177614285Y-132264285D01*
X177571428Y-132350000D01*
X177528571Y-132392857D01*
X177442857Y-132435714D01*
X177142857Y-132435714D01*
X178000000Y-132650000D02*
X178428571Y-132650000D01*
X177914285Y-132907142D02*
X178214285Y-132007142D01*
X178514285Y-132907142D01*
X178685714Y-132007142D02*
X179200000Y-132007142D01*
X178942857Y-132907142D02*
X178942857Y-132007142D01*
X179371428Y-132007142D02*
X179885714Y-132007142D01*
X179628571Y-132907142D02*
X179628571Y-132007142D01*
X180185714Y-132435714D02*
X180485714Y-132435714D01*
X180614285Y-132907142D02*
X180185714Y-132907142D01*
X180185714Y-132007142D01*
X180614285Y-132007142D01*
X181514285Y-132907142D02*
X181214285Y-132478571D01*
X181000000Y-132907142D02*
X181000000Y-132007142D01*
X181342857Y-132007142D01*
X181428571Y-132050000D01*
X181471428Y-132092857D01*
X181514285Y-132178571D01*
X181514285Y-132307142D01*
X181471428Y-132392857D01*
X181428571Y-132435714D01*
X181342857Y-132478571D01*
X181000000Y-132478571D01*
X182071428Y-132478571D02*
X182071428Y-132907142D01*
X181771428Y-132007142D02*
X182071428Y-132478571D01*
X182371428Y-132007142D01*
X183657142Y-132435714D02*
X183785714Y-132478571D01*
X183828571Y-132521428D01*
X183871428Y-132607142D01*
X183871428Y-132735714D01*
X183828571Y-132821428D01*
X183785714Y-132864285D01*
X183700000Y-132907142D01*
X183357142Y-132907142D01*
X183357142Y-132007142D01*
X183657142Y-132007142D01*
X183742857Y-132050000D01*
X183785714Y-132092857D01*
X183828571Y-132178571D01*
X183828571Y-132264285D01*
X183785714Y-132350000D01*
X183742857Y-132392857D01*
X183657142Y-132435714D01*
X183357142Y-132435714D01*
X184428571Y-132007142D02*
X184600000Y-132007142D01*
X184685714Y-132050000D01*
X184771428Y-132135714D01*
X184814285Y-132307142D01*
X184814285Y-132607142D01*
X184771428Y-132778571D01*
X184685714Y-132864285D01*
X184600000Y-132907142D01*
X184428571Y-132907142D01*
X184342857Y-132864285D01*
X184257142Y-132778571D01*
X184214285Y-132607142D01*
X184214285Y-132307142D01*
X184257142Y-132135714D01*
X184342857Y-132050000D01*
X184428571Y-132007142D01*
X185157142Y-132650000D02*
X185585714Y-132650000D01*
X185071428Y-132907142D02*
X185371428Y-132007142D01*
X185671428Y-132907142D01*
X186485714Y-132907142D02*
X186185714Y-132478571D01*
X185971428Y-132907142D02*
X185971428Y-132007142D01*
X186314285Y-132007142D01*
X186400000Y-132050000D01*
X186442857Y-132092857D01*
X186485714Y-132178571D01*
X186485714Y-132307142D01*
X186442857Y-132392857D01*
X186400000Y-132435714D01*
X186314285Y-132478571D01*
X185971428Y-132478571D01*
X186871428Y-132907142D02*
X186871428Y-132007142D01*
X187085714Y-132007142D01*
X187214285Y-132050000D01*
X187300000Y-132135714D01*
X187342857Y-132221428D01*
X187385714Y-132392857D01*
X187385714Y-132521428D01*
X187342857Y-132692857D01*
X187300000Y-132778571D01*
X187214285Y-132864285D01*
X187085714Y-132907142D01*
X186871428Y-132907142D01*
X160976190Y-134452380D02*
X160976190Y-133452380D01*
X160976190Y-133928571D02*
X161547619Y-133928571D01*
X161547619Y-134452380D02*
X161547619Y-133452380D01*
X162404761Y-134404761D02*
X162309523Y-134452380D01*
X162119047Y-134452380D01*
X162023809Y-134404761D01*
X161976190Y-134309523D01*
X161976190Y-133928571D01*
X162023809Y-133833333D01*
X162119047Y-133785714D01*
X162309523Y-133785714D01*
X162404761Y-133833333D01*
X162452380Y-133928571D01*
X162452380Y-134023809D01*
X161976190Y-134119047D01*
X163023809Y-134452380D02*
X162928571Y-134404761D01*
X162880952Y-134309523D01*
X162880952Y-133452380D01*
X163833333Y-134452380D02*
X163833333Y-133452380D01*
X163833333Y-134404761D02*
X163738095Y-134452380D01*
X163547619Y-134452380D01*
X163452380Y-134404761D01*
X163404761Y-134357142D01*
X163357142Y-134261904D01*
X163357142Y-133976190D01*
X163404761Y-133880952D01*
X163452380Y-133833333D01*
X163547619Y-133785714D01*
X163738095Y-133785714D01*
X163833333Y-133833333D01*
X164928571Y-133452380D02*
X165500000Y-133452380D01*
X165214285Y-134452380D02*
X165214285Y-133452380D01*
X165976190Y-134452380D02*
X165880952Y-134404761D01*
X165833333Y-134357142D01*
X165785714Y-134261904D01*
X165785714Y-133976190D01*
X165833333Y-133880952D01*
X165880952Y-133833333D01*
X165976190Y-133785714D01*
X166119047Y-133785714D01*
X166214285Y-133833333D01*
X166261904Y-133880952D01*
X166309523Y-133976190D01*
X166309523Y-134261904D01*
X166261904Y-134357142D01*
X166214285Y-134404761D01*
X166119047Y-134452380D01*
X165976190Y-134452380D01*
X167166666Y-133785714D02*
X167166666Y-134595238D01*
X167119047Y-134690476D01*
X167071428Y-134738095D01*
X166976190Y-134785714D01*
X166833333Y-134785714D01*
X166738095Y-134738095D01*
X167166666Y-134404761D02*
X167071428Y-134452380D01*
X166880952Y-134452380D01*
X166785714Y-134404761D01*
X166738095Y-134357142D01*
X166690476Y-134261904D01*
X166690476Y-133976190D01*
X166738095Y-133880952D01*
X166785714Y-133833333D01*
X166880952Y-133785714D01*
X167071428Y-133785714D01*
X167166666Y-133833333D01*
X168023809Y-134404761D02*
X167928571Y-134452380D01*
X167738095Y-134452380D01*
X167642857Y-134404761D01*
X167595238Y-134309523D01*
X167595238Y-133928571D01*
X167642857Y-133833333D01*
X167738095Y-133785714D01*
X167928571Y-133785714D01*
X168023809Y-133833333D01*
X168071428Y-133928571D01*
X168071428Y-134023809D01*
X167595238Y-134119047D01*
X168357142Y-133785714D02*
X168738095Y-133785714D01*
X168500000Y-133452380D02*
X168500000Y-134309523D01*
X168547619Y-134404761D01*
X168642857Y-134452380D01*
X168738095Y-134452380D01*
X169071428Y-134452380D02*
X169071428Y-133452380D01*
X169500000Y-134452380D02*
X169500000Y-133928571D01*
X169452380Y-133833333D01*
X169357142Y-133785714D01*
X169214285Y-133785714D01*
X169119047Y-133833333D01*
X169071428Y-133880952D01*
X170357142Y-134404761D02*
X170261904Y-134452380D01*
X170071428Y-134452380D01*
X169976190Y-134404761D01*
X169928571Y-134309523D01*
X169928571Y-133928571D01*
X169976190Y-133833333D01*
X170071428Y-133785714D01*
X170261904Y-133785714D01*
X170357142Y-133833333D01*
X170404761Y-133928571D01*
X170404761Y-134023809D01*
X169928571Y-134119047D01*
X170833333Y-134452380D02*
X170833333Y-133785714D01*
X170833333Y-133976190D02*
X170880952Y-133880952D01*
X170928571Y-133833333D01*
X171023809Y-133785714D01*
X171119047Y-133785714D01*
X172214285Y-134452380D02*
X172214285Y-133452380D01*
X172214285Y-133833333D02*
X172309523Y-133785714D01*
X172500000Y-133785714D01*
X172595238Y-133833333D01*
X172642857Y-133880952D01*
X172690476Y-133976190D01*
X172690476Y-134261904D01*
X172642857Y-134357142D01*
X172595238Y-134404761D01*
X172500000Y-134452380D01*
X172309523Y-134452380D01*
X172214285Y-134404761D01*
X173023809Y-133785714D02*
X173261904Y-134452380D01*
X173500000Y-133785714D02*
X173261904Y-134452380D01*
X173166666Y-134690476D01*
X173119047Y-134738095D01*
X173023809Y-134785714D01*
X174547619Y-133452380D02*
X175166666Y-133452380D01*
X174833333Y-133833333D01*
X174976190Y-133833333D01*
X175071428Y-133880952D01*
X175119047Y-133928571D01*
X175166666Y-134023809D01*
X175166666Y-134261904D01*
X175119047Y-134357142D01*
X175071428Y-134404761D01*
X174976190Y-134452380D01*
X174690476Y-134452380D01*
X174595238Y-134404761D01*
X174547619Y-134357142D01*
X175595238Y-134452380D02*
X175595238Y-133452380D01*
X175928571Y-134166666D01*
X176261904Y-133452380D01*
X176261904Y-134452380D01*
X176690476Y-133547619D02*
X176738095Y-133500000D01*
X176833333Y-133452380D01*
X177071428Y-133452380D01*
X177166666Y-133500000D01*
X177214285Y-133547619D01*
X177261904Y-133642857D01*
X177261904Y-133738095D01*
X177214285Y-133880952D01*
X176642857Y-134452380D01*
X177261904Y-134452380D01*
X177642857Y-133547619D02*
X177690476Y-133500000D01*
X177785714Y-133452380D01*
X178023809Y-133452380D01*
X178119047Y-133500000D01*
X178166666Y-133547619D01*
X178214285Y-133642857D01*
X178214285Y-133738095D01*
X178166666Y-133880952D01*
X177595238Y-134452380D01*
X178214285Y-134452380D01*
X179166666Y-134452380D02*
X178595238Y-134452380D01*
X178880952Y-134452380D02*
X178880952Y-133452380D01*
X178785714Y-133595238D01*
X178690476Y-133690476D01*
X178595238Y-133738095D01*
X180023809Y-133452380D02*
X179833333Y-133452380D01*
X179738095Y-133500000D01*
X179690476Y-133547619D01*
X179595238Y-133690476D01*
X179547619Y-133880952D01*
X179547619Y-134261904D01*
X179595238Y-134357142D01*
X179642857Y-134404761D01*
X179738095Y-134452380D01*
X179928571Y-134452380D01*
X180023809Y-134404761D01*
X180071428Y-134357142D01*
X180119047Y-134261904D01*
X180119047Y-134023809D01*
X180071428Y-133928571D01*
X180023809Y-133880952D01*
X179928571Y-133833333D01*
X179738095Y-133833333D01*
X179642857Y-133880952D01*
X179595238Y-133928571D01*
X179547619Y-134023809D01*
X181738095Y-134452380D02*
X181738095Y-133928571D01*
X181690476Y-133833333D01*
X181595238Y-133785714D01*
X181404761Y-133785714D01*
X181309523Y-133833333D01*
X181738095Y-134404761D02*
X181642857Y-134452380D01*
X181404761Y-134452380D01*
X181309523Y-134404761D01*
X181261904Y-134309523D01*
X181261904Y-134214285D01*
X181309523Y-134119047D01*
X181404761Y-134071428D01*
X181642857Y-134071428D01*
X181738095Y-134023809D01*
X182214285Y-133785714D02*
X182214285Y-134452380D01*
X182214285Y-133880952D02*
X182261904Y-133833333D01*
X182357142Y-133785714D01*
X182499999Y-133785714D01*
X182595238Y-133833333D01*
X182642857Y-133928571D01*
X182642857Y-134452380D01*
X183547619Y-134452380D02*
X183547619Y-133452380D01*
X183547619Y-134404761D02*
X183452380Y-134452380D01*
X183261904Y-134452380D01*
X183166666Y-134404761D01*
X183119047Y-134357142D01*
X183071428Y-134261904D01*
X183071428Y-133976190D01*
X183119047Y-133880952D01*
X183166666Y-133833333D01*
X183261904Y-133785714D01*
X183452380Y-133785714D01*
X183547619Y-133833333D01*
X185214285Y-134452380D02*
X185214285Y-133928571D01*
X185166666Y-133833333D01*
X185071428Y-133785714D01*
X184880952Y-133785714D01*
X184785714Y-133833333D01*
X185214285Y-134404761D02*
X185119047Y-134452380D01*
X184880952Y-134452380D01*
X184785714Y-134404761D01*
X184738095Y-134309523D01*
X184738095Y-134214285D01*
X184785714Y-134119047D01*
X184880952Y-134071428D01*
X185119047Y-134071428D01*
X185214285Y-134023809D01*
X186880952Y-134452380D02*
X186880952Y-133452380D01*
X186880952Y-134404761D02*
X186785714Y-134452380D01*
X186595238Y-134452380D01*
X186499999Y-134404761D01*
X186452380Y-134357142D01*
X186404761Y-134261904D01*
X186404761Y-133976190D01*
X186452380Y-133880952D01*
X186499999Y-133833333D01*
X186595238Y-133785714D01*
X186785714Y-133785714D01*
X186880952Y-133833333D01*
X187357142Y-134452380D02*
X187357142Y-133785714D01*
X187357142Y-133976190D02*
X187404761Y-133880952D01*
X187452380Y-133833333D01*
X187547619Y-133785714D01*
X187642857Y-133785714D01*
X188357142Y-134404761D02*
X188261904Y-134452380D01*
X188071428Y-134452380D01*
X187976190Y-134404761D01*
X187928571Y-134309523D01*
X187928571Y-133928571D01*
X187976190Y-133833333D01*
X188071428Y-133785714D01*
X188261904Y-133785714D01*
X188357142Y-133833333D01*
X188404761Y-133928571D01*
X188404761Y-134023809D01*
X187928571Y-134119047D01*
X189261904Y-134452380D02*
X189261904Y-133928571D01*
X189214285Y-133833333D01*
X189119047Y-133785714D01*
X188928571Y-133785714D01*
X188833333Y-133833333D01*
X189261904Y-134404761D02*
X189166666Y-134452380D01*
X188928571Y-134452380D01*
X188833333Y-134404761D01*
X188785714Y-134309523D01*
X188785714Y-134214285D01*
X188833333Y-134119047D01*
X188928571Y-134071428D01*
X189166666Y-134071428D01*
X189261904Y-134023809D01*
X189738095Y-134452380D02*
X189738095Y-133785714D01*
X189738095Y-133880952D02*
X189785714Y-133833333D01*
X189880952Y-133785714D01*
X190023809Y-133785714D01*
X190119047Y-133833333D01*
X190166666Y-133928571D01*
X190166666Y-134452380D01*
X190166666Y-133928571D02*
X190214285Y-133833333D01*
X190309523Y-133785714D01*
X190452380Y-133785714D01*
X190547619Y-133833333D01*
X190595238Y-133928571D01*
X190595238Y-134452380D01*
X191071428Y-134357142D02*
X191119047Y-134404761D01*
X191071428Y-134452380D01*
X191023809Y-134404761D01*
X191071428Y-134357142D01*
X191071428Y-134452380D01*
X191547619Y-134357142D02*
X191595238Y-134404761D01*
X191547619Y-134452380D01*
X191499999Y-134404761D01*
X191547619Y-134357142D01*
X191547619Y-134452380D01*
X192023809Y-134357142D02*
X192071428Y-134404761D01*
X192023809Y-134452380D01*
X191976190Y-134404761D01*
X192023809Y-134357142D01*
X192023809Y-134452380D01*
%TO.C,J4*%
G36*
X120246200Y-89876200D02*
G01*
X119093800Y-89876200D01*
X119093800Y-89123800D01*
X120246200Y-89123800D01*
X120246200Y-89876200D01*
G37*
D11*
X120246200Y-89876200D02*
X119093800Y-89876200D01*
X119093800Y-89123800D01*
X120246200Y-89123800D01*
X120246200Y-89876200D01*
G36*
X120246200Y-91376200D02*
G01*
X119093800Y-91376200D01*
X119093800Y-90623800D01*
X120246200Y-90623800D01*
X120246200Y-91376200D01*
G37*
X120246200Y-91376200D02*
X119093800Y-91376200D01*
X119093800Y-90623800D01*
X120246200Y-90623800D01*
X120246200Y-91376200D01*
G36*
X120246200Y-92876200D02*
G01*
X119093800Y-92876200D01*
X119093800Y-92123800D01*
X120246200Y-92123800D01*
X120246200Y-92876200D01*
G37*
X120246200Y-92876200D02*
X119093800Y-92876200D01*
X119093800Y-92123800D01*
X120246200Y-92123800D01*
X120246200Y-92876200D01*
G36*
X120246200Y-88376200D02*
G01*
X119093800Y-88376200D01*
X119093800Y-87623800D01*
X120246200Y-87623800D01*
X120246200Y-88376200D01*
G37*
X120246200Y-88376200D02*
X119093800Y-88376200D01*
X119093800Y-87623800D01*
X120246200Y-87623800D01*
X120246200Y-88376200D01*
G36*
X115456200Y-86096200D02*
G01*
X113503800Y-86096200D01*
X113503800Y-84693800D01*
X115456200Y-84693800D01*
X115456200Y-86096200D01*
G37*
X115456200Y-86096200D02*
X113503800Y-86096200D01*
X113503800Y-84693800D01*
X115456200Y-84693800D01*
X115456200Y-86096200D01*
G36*
X115456200Y-97306200D02*
G01*
X113503800Y-97306200D01*
X113503800Y-95903800D01*
X115456200Y-95903800D01*
X115456200Y-97306200D01*
G37*
X115456200Y-97306200D02*
X113503800Y-97306200D01*
X113503800Y-95903800D01*
X115456200Y-95903800D01*
X115456200Y-97306200D01*
G36*
X120246200Y-94376200D02*
G01*
X119093800Y-94376200D01*
X119093800Y-93623800D01*
X120246200Y-93623800D01*
X120246200Y-94376200D01*
G37*
X120246200Y-94376200D02*
X119093800Y-94376200D01*
X119093800Y-93623800D01*
X120246200Y-93623800D01*
X120246200Y-94376200D01*
%TO.C,J1*%
G36*
X195196200Y-80381200D02*
G01*
X193243800Y-80381200D01*
X193243800Y-78978800D01*
X195196200Y-78978800D01*
X195196200Y-80381200D01*
G37*
X195196200Y-80381200D02*
X193243800Y-80381200D01*
X193243800Y-78978800D01*
X195196200Y-78978800D01*
X195196200Y-80381200D01*
G36*
X189606200Y-72951200D02*
G01*
X188453800Y-72951200D01*
X188453800Y-72198800D01*
X189606200Y-72198800D01*
X189606200Y-72951200D01*
G37*
X189606200Y-72951200D02*
X188453800Y-72951200D01*
X188453800Y-72198800D01*
X189606200Y-72198800D01*
X189606200Y-72951200D01*
G36*
X189606200Y-75951200D02*
G01*
X188453800Y-75951200D01*
X188453800Y-75198800D01*
X189606200Y-75198800D01*
X189606200Y-75951200D01*
G37*
X189606200Y-75951200D02*
X188453800Y-75951200D01*
X188453800Y-75198800D01*
X189606200Y-75198800D01*
X189606200Y-75951200D01*
G36*
X189606200Y-71451200D02*
G01*
X188453800Y-71451200D01*
X188453800Y-70698800D01*
X189606200Y-70698800D01*
X189606200Y-71451200D01*
G37*
X189606200Y-71451200D02*
X188453800Y-71451200D01*
X188453800Y-70698800D01*
X189606200Y-70698800D01*
X189606200Y-71451200D01*
G36*
X189606200Y-77451200D02*
G01*
X188453800Y-77451200D01*
X188453800Y-76698800D01*
X189606200Y-76698800D01*
X189606200Y-77451200D01*
G37*
X189606200Y-77451200D02*
X188453800Y-77451200D01*
X188453800Y-76698800D01*
X189606200Y-76698800D01*
X189606200Y-77451200D01*
G36*
X189606200Y-74451200D02*
G01*
X188453800Y-74451200D01*
X188453800Y-73698800D01*
X189606200Y-73698800D01*
X189606200Y-74451200D01*
G37*
X189606200Y-74451200D02*
X188453800Y-74451200D01*
X188453800Y-73698800D01*
X189606200Y-73698800D01*
X189606200Y-74451200D01*
G36*
X195196200Y-69171200D02*
G01*
X193243800Y-69171200D01*
X193243800Y-67768800D01*
X195196200Y-67768800D01*
X195196200Y-69171200D01*
G37*
X195196200Y-69171200D02*
X193243800Y-69171200D01*
X193243800Y-67768800D01*
X195196200Y-67768800D01*
X195196200Y-69171200D01*
%TO.C,J2*%
G36*
X189656200Y-93226200D02*
G01*
X188503800Y-93226200D01*
X188503800Y-92473800D01*
X189656200Y-92473800D01*
X189656200Y-93226200D01*
G37*
X189656200Y-93226200D02*
X188503800Y-93226200D01*
X188503800Y-92473800D01*
X189656200Y-92473800D01*
X189656200Y-93226200D01*
G36*
X195246200Y-96156200D02*
G01*
X193293800Y-96156200D01*
X193293800Y-94753800D01*
X195246200Y-94753800D01*
X195246200Y-96156200D01*
G37*
X195246200Y-96156200D02*
X193293800Y-96156200D01*
X193293800Y-94753800D01*
X195246200Y-94753800D01*
X195246200Y-96156200D01*
G36*
X189656200Y-91726200D02*
G01*
X188503800Y-91726200D01*
X188503800Y-90973800D01*
X189656200Y-90973800D01*
X189656200Y-91726200D01*
G37*
X189656200Y-91726200D02*
X188503800Y-91726200D01*
X188503800Y-90973800D01*
X189656200Y-90973800D01*
X189656200Y-91726200D01*
G36*
X189656200Y-90226200D02*
G01*
X188503800Y-90226200D01*
X188503800Y-89473800D01*
X189656200Y-89473800D01*
X189656200Y-90226200D01*
G37*
X189656200Y-90226200D02*
X188503800Y-90226200D01*
X188503800Y-89473800D01*
X189656200Y-89473800D01*
X189656200Y-90226200D01*
G36*
X195246200Y-84946200D02*
G01*
X193293800Y-84946200D01*
X193293800Y-83543800D01*
X195246200Y-83543800D01*
X195246200Y-84946200D01*
G37*
X195246200Y-84946200D02*
X193293800Y-84946200D01*
X193293800Y-83543800D01*
X195246200Y-83543800D01*
X195246200Y-84946200D01*
G36*
X189656200Y-87226200D02*
G01*
X188503800Y-87226200D01*
X188503800Y-86473800D01*
X189656200Y-86473800D01*
X189656200Y-87226200D01*
G37*
X189656200Y-87226200D02*
X188503800Y-87226200D01*
X188503800Y-86473800D01*
X189656200Y-86473800D01*
X189656200Y-87226200D01*
G36*
X189656200Y-88726200D02*
G01*
X188503800Y-88726200D01*
X188503800Y-87973800D01*
X189656200Y-87973800D01*
X189656200Y-88726200D01*
G37*
X189656200Y-88726200D02*
X188503800Y-88726200D01*
X188503800Y-87973800D01*
X189656200Y-87973800D01*
X189656200Y-88726200D01*
%TO.C,J3*%
G36*
X189606200Y-104726200D02*
G01*
X188453800Y-104726200D01*
X188453800Y-103973800D01*
X189606200Y-103973800D01*
X189606200Y-104726200D01*
G37*
X189606200Y-104726200D02*
X188453800Y-104726200D01*
X188453800Y-103973800D01*
X189606200Y-103973800D01*
X189606200Y-104726200D01*
G36*
X189606200Y-106226200D02*
G01*
X188453800Y-106226200D01*
X188453800Y-105473800D01*
X189606200Y-105473800D01*
X189606200Y-106226200D01*
G37*
X189606200Y-106226200D02*
X188453800Y-106226200D01*
X188453800Y-105473800D01*
X189606200Y-105473800D01*
X189606200Y-106226200D01*
G36*
X189606200Y-107726200D02*
G01*
X188453800Y-107726200D01*
X188453800Y-106973800D01*
X189606200Y-106973800D01*
X189606200Y-107726200D01*
G37*
X189606200Y-107726200D02*
X188453800Y-107726200D01*
X188453800Y-106973800D01*
X189606200Y-106973800D01*
X189606200Y-107726200D01*
G36*
X195196200Y-112156200D02*
G01*
X193243800Y-112156200D01*
X193243800Y-110753800D01*
X195196200Y-110753800D01*
X195196200Y-112156200D01*
G37*
X195196200Y-112156200D02*
X193243800Y-112156200D01*
X193243800Y-110753800D01*
X195196200Y-110753800D01*
X195196200Y-112156200D01*
G36*
X189606200Y-103226200D02*
G01*
X188453800Y-103226200D01*
X188453800Y-102473800D01*
X189606200Y-102473800D01*
X189606200Y-103226200D01*
G37*
X189606200Y-103226200D02*
X188453800Y-103226200D01*
X188453800Y-102473800D01*
X189606200Y-102473800D01*
X189606200Y-103226200D01*
G36*
X195196200Y-100946200D02*
G01*
X193243800Y-100946200D01*
X193243800Y-99543800D01*
X195196200Y-99543800D01*
X195196200Y-100946200D01*
G37*
X195196200Y-100946200D02*
X193243800Y-100946200D01*
X193243800Y-99543800D01*
X195196200Y-99543800D01*
X195196200Y-100946200D01*
G36*
X189606200Y-109226200D02*
G01*
X188453800Y-109226200D01*
X188453800Y-108473800D01*
X189606200Y-108473800D01*
X189606200Y-109226200D01*
G37*
X189606200Y-109226200D02*
X188453800Y-109226200D01*
X188453800Y-108473800D01*
X189606200Y-108473800D01*
X189606200Y-109226200D01*
%TO.C,J5*%
G36*
X120221200Y-110001200D02*
G01*
X119068800Y-110001200D01*
X119068800Y-109248800D01*
X120221200Y-109248800D01*
X120221200Y-110001200D01*
G37*
X120221200Y-110001200D02*
X119068800Y-110001200D01*
X119068800Y-109248800D01*
X120221200Y-109248800D01*
X120221200Y-110001200D01*
G36*
X120221200Y-107001200D02*
G01*
X119068800Y-107001200D01*
X119068800Y-106248800D01*
X120221200Y-106248800D01*
X120221200Y-107001200D01*
G37*
X120221200Y-107001200D02*
X119068800Y-107001200D01*
X119068800Y-106248800D01*
X120221200Y-106248800D01*
X120221200Y-107001200D01*
G36*
X115431200Y-101721200D02*
G01*
X113478800Y-101721200D01*
X113478800Y-100318800D01*
X115431200Y-100318800D01*
X115431200Y-101721200D01*
G37*
X115431200Y-101721200D02*
X113478800Y-101721200D01*
X113478800Y-100318800D01*
X115431200Y-100318800D01*
X115431200Y-101721200D01*
G36*
X120221200Y-104001200D02*
G01*
X119068800Y-104001200D01*
X119068800Y-103248800D01*
X120221200Y-103248800D01*
X120221200Y-104001200D01*
G37*
X120221200Y-104001200D02*
X119068800Y-104001200D01*
X119068800Y-103248800D01*
X120221200Y-103248800D01*
X120221200Y-104001200D01*
G36*
X115431200Y-112931200D02*
G01*
X113478800Y-112931200D01*
X113478800Y-111528800D01*
X115431200Y-111528800D01*
X115431200Y-112931200D01*
G37*
X115431200Y-112931200D02*
X113478800Y-112931200D01*
X113478800Y-111528800D01*
X115431200Y-111528800D01*
X115431200Y-112931200D01*
G36*
X120221200Y-108501200D02*
G01*
X119068800Y-108501200D01*
X119068800Y-107748800D01*
X120221200Y-107748800D01*
X120221200Y-108501200D01*
G37*
X120221200Y-108501200D02*
X119068800Y-108501200D01*
X119068800Y-107748800D01*
X120221200Y-107748800D01*
X120221200Y-108501200D01*
G36*
X120221200Y-105501200D02*
G01*
X119068800Y-105501200D01*
X119068800Y-104748800D01*
X120221200Y-104748800D01*
X120221200Y-105501200D01*
G37*
X120221200Y-105501200D02*
X119068800Y-105501200D01*
X119068800Y-104748800D01*
X120221200Y-104748800D01*
X120221200Y-105501200D01*
%TD*%
D12*
%TO.C,U7*%
X175240000Y-117000000D03*
X157710000Y-117000000D03*
D13*
X175240000Y-61800000D03*
X192710000Y-61800000D03*
D14*
X157290000Y-53290000D03*
D15*
X165660000Y-125510000D03*
X184790000Y-125510000D03*
X165660000Y-53290000D03*
X184790000Y-53290000D03*
%TD*%
D12*
%TO.C,U8*%
X134298500Y-116975000D03*
X116768500Y-116975000D03*
D13*
X134298500Y-61775000D03*
X151768500Y-61775000D03*
D14*
X116348500Y-53265000D03*
D15*
X124718500Y-125485000D03*
X143848500Y-125485000D03*
X124718500Y-53265000D03*
X143848500Y-53265000D03*
%TD*%
D16*
%TO.C,R43*%
X154800000Y-79450000D03*
X156450000Y-79450000D03*
%TD*%
D17*
%TO.C,R14*%
X145148500Y-64752900D03*
X145148500Y-63102900D03*
%TD*%
D18*
%TO.C,C1*%
X174902000Y-91735100D03*
X174902000Y-93285100D03*
%TD*%
D19*
%TO.C,C16*%
X160325000Y-83675000D03*
X160325000Y-82125000D03*
%TD*%
D20*
%TO.C,J6*%
X145425000Y-126905000D03*
X146925000Y-126905000D03*
X148425000Y-126905000D03*
X149925000Y-126905000D03*
X151425000Y-126905000D03*
X152925000Y-126905000D03*
X154425000Y-126905000D03*
X155925000Y-126905000D03*
X157425000Y-126905000D03*
X158925000Y-126905000D03*
X160425000Y-126905000D03*
X161925000Y-126905000D03*
D21*
X142820000Y-132095000D03*
X164530000Y-132095000D03*
%TD*%
D22*
%TO.C,D5*%
X134884000Y-55977900D03*
D23*
X137434000Y-55977900D03*
%TD*%
D16*
%TO.C,R41*%
X139563899Y-79791599D03*
X141213899Y-79791599D03*
%TD*%
%TO.C,R28*%
X153475000Y-103874800D03*
X155125000Y-103874800D03*
%TD*%
D24*
%TO.C,C17*%
X150548201Y-65986401D03*
X152098201Y-65986401D03*
%TD*%
D25*
%TO.C,Q2*%
X176200000Y-66164000D03*
X176200000Y-67434000D03*
X176200000Y-68704000D03*
X176200000Y-69974000D03*
X181150000Y-69974000D03*
X181150000Y-68704000D03*
X181150000Y-67434000D03*
X181150000Y-66164000D03*
%TD*%
D26*
%TO.C,Q7*%
X140489500Y-56318900D03*
X140989500Y-57608900D03*
X139989500Y-57608900D03*
%TD*%
D27*
%TO.C,Q3*%
X171534000Y-86797100D03*
X171534000Y-86147100D03*
X171534000Y-85497100D03*
X169634000Y-85497100D03*
X169634000Y-86147100D03*
X169634000Y-86797100D03*
%TD*%
D28*
%TO.C,J20*%
X130800000Y-129750000D03*
X131800000Y-129750000D03*
X132800000Y-129750000D03*
X133800000Y-129750000D03*
D29*
X129500000Y-133625000D03*
X135100000Y-133625000D03*
%TD*%
D30*
%TO.C,J11*%
X176550000Y-50140000D03*
X175050000Y-50140000D03*
D31*
X179155000Y-44950000D03*
X172445000Y-44950000D03*
%TD*%
D17*
%TO.C,R25*%
X176908800Y-110928561D03*
X176908800Y-109278561D03*
%TD*%
D32*
%TO.C,R31*%
X141730200Y-111894000D03*
X140080200Y-111894000D03*
%TD*%
D30*
%TO.C,J15*%
X158700000Y-50090000D03*
X157200000Y-50090000D03*
D31*
X161305000Y-44900000D03*
X154595000Y-44900000D03*
%TD*%
D16*
%TO.C,R29*%
X153475000Y-102300000D03*
X155125000Y-102300000D03*
%TD*%
D17*
%TO.C,R19*%
X175384800Y-110928562D03*
X175384800Y-109278562D03*
%TD*%
D33*
%TO.C,J19*%
X118865000Y-74825000D03*
X118865000Y-76325000D03*
D34*
X113675000Y-72220000D03*
X113675000Y-78930000D03*
%TD*%
D32*
%TO.C,R34*%
X159361801Y-67916800D03*
X157711801Y-67916800D03*
%TD*%
D16*
%TO.C,R2*%
X172643000Y-67434000D03*
X174293000Y-67434000D03*
%TD*%
D35*
%TO.C,*%
X194573162Y-131529322D03*
%TD*%
D32*
%TO.C,R9*%
X174711000Y-83099100D03*
X173061000Y-83099100D03*
%TD*%
D17*
%TO.C,R21*%
X169288800Y-110928562D03*
X169288800Y-109278562D03*
%TD*%
D24*
%TO.C,C5*%
X177900000Y-71625000D03*
X179450000Y-71625000D03*
%TD*%
D36*
%TO.C,TP4*%
X173000000Y-55250000D03*
%TD*%
D32*
%TO.C,R33*%
X158875000Y-77175000D03*
X157225000Y-77175000D03*
%TD*%
D37*
%TO.C,Q6*%
X133680200Y-71423000D03*
X133680200Y-70153000D03*
X133680200Y-68883000D03*
X133680200Y-67613000D03*
X128447800Y-67613000D03*
X128447800Y-68883000D03*
X128447800Y-70153000D03*
X128447800Y-71423000D03*
%TD*%
D36*
%TO.C,TP3*%
X138850000Y-121525000D03*
%TD*%
D38*
%TO.C,C10*%
X177455000Y-81575100D03*
X175905000Y-81575100D03*
%TD*%
D30*
%TO.C,J16*%
X167700000Y-50140000D03*
X166200000Y-50140000D03*
D31*
X170305000Y-44950000D03*
X163595000Y-44950000D03*
%TD*%
D39*
%TO.C,C3*%
X184050000Y-82425000D03*
X184050000Y-79475000D03*
%TD*%
D30*
%TO.C,J13*%
X140200000Y-50090000D03*
X138700000Y-50090000D03*
D31*
X142805000Y-44900000D03*
X136095000Y-44900000D03*
%TD*%
D19*
%TO.C,C15*%
X138619200Y-111907000D03*
X138619200Y-110357000D03*
%TD*%
D36*
%TO.C,TP5*%
X168575000Y-121100000D03*
%TD*%
D25*
%TO.C,Q1*%
X176200000Y-73276000D03*
X176200000Y-74546000D03*
X176200000Y-75816000D03*
X176200000Y-77086000D03*
X181150000Y-77086000D03*
X181150000Y-75816000D03*
X181150000Y-74546000D03*
X181150000Y-73276000D03*
%TD*%
D16*
%TO.C,R32*%
X154200000Y-77175000D03*
X155850000Y-77175000D03*
%TD*%
D30*
%TO.C,J12*%
X131150000Y-50040000D03*
X129650000Y-50040000D03*
D31*
X133755000Y-44850000D03*
X127045000Y-44850000D03*
%TD*%
D35*
%TO.C,*%
X114573162Y-131529322D03*
%TD*%
D40*
%TO.C,U5*%
X143747200Y-106560000D03*
X143747200Y-107830000D03*
X143747200Y-109100000D03*
X143747200Y-110370000D03*
X143747200Y-111640000D03*
D41*
X149747200Y-109100000D03*
%TD*%
D42*
%TO.C,R7*%
X181506000Y-80496100D03*
X181506000Y-82146100D03*
%TD*%
D19*
%TO.C,C6*%
X181506000Y-93285100D03*
X181506000Y-91735100D03*
%TD*%
D32*
%TO.C,R30*%
X141730200Y-110370000D03*
X140080200Y-110370000D03*
%TD*%
D19*
%TO.C,C8*%
X168134000Y-73175000D03*
X168134000Y-71625000D03*
%TD*%
D43*
%TO.C,D2*%
X155184001Y-65400000D03*
D44*
X155184001Y-67950000D03*
%TD*%
D45*
%TO.C,U2*%
X179900034Y-84140500D03*
X179250021Y-84140500D03*
X178600012Y-84140500D03*
X177950000Y-84140500D03*
X177299988Y-84140500D03*
X176649979Y-84140500D03*
X175999966Y-84140500D03*
X175999966Y-89677700D03*
X176649979Y-89677700D03*
X177299988Y-89677700D03*
X177950000Y-89677700D03*
X178600012Y-89677700D03*
X179250021Y-89677700D03*
X179900034Y-89677700D03*
D46*
X177950000Y-86909100D03*
%TD*%
D47*
%TO.C,J18*%
X169025000Y-54782400D03*
D48*
X169025000Y-57322400D03*
%TD*%
D49*
%TO.C,U4*%
X165961801Y-107577562D03*
X165961801Y-106927562D03*
X165961801Y-106277562D03*
X165961801Y-105627562D03*
X165961801Y-104977562D03*
X165961801Y-104327562D03*
X165961801Y-103677562D03*
X165961801Y-103027562D03*
X165961801Y-102377562D03*
X165961801Y-101727562D03*
X165961801Y-101077562D03*
X165961801Y-100427562D03*
X160221801Y-100427562D03*
X160221801Y-101077562D03*
X160221801Y-101727562D03*
X160221801Y-102377562D03*
X160221801Y-103027562D03*
X160221801Y-103677562D03*
X160221801Y-104327562D03*
X160221801Y-104977562D03*
X160221801Y-105627562D03*
X160221801Y-106277562D03*
X160221801Y-106927562D03*
X160221801Y-107577562D03*
%TD*%
D36*
%TO.C,TP6*%
X124500000Y-57475000D03*
%TD*%
D38*
%TO.C,C18*%
X163013801Y-56778400D03*
X161463801Y-56778400D03*
%TD*%
D39*
%TO.C,C19*%
X124945700Y-79945802D03*
X124945700Y-76995802D03*
%TD*%
D16*
%TO.C,R8*%
X169759000Y-89957100D03*
X171409000Y-89957100D03*
%TD*%
%TO.C,R16*%
X141275500Y-65896900D03*
X142925500Y-65896900D03*
%TD*%
D33*
%TO.C,U1*%
X174106000Y-72956000D03*
X174106000Y-72006000D03*
X174106000Y-71056000D03*
X171306000Y-71056000D03*
X171306000Y-72006000D03*
X171306000Y-72956000D03*
%TD*%
D17*
%TO.C,R40*%
X141608099Y-77873400D03*
X141608099Y-76223400D03*
%TD*%
D32*
%TO.C,R6*%
X166700190Y-90563911D03*
X165050190Y-90563911D03*
%TD*%
D36*
%TO.C,TP2*%
X164973000Y-113665000D03*
%TD*%
D17*
%TO.C,R26*%
X173860800Y-110928562D03*
X173860800Y-109278562D03*
%TD*%
D42*
%TO.C,R4*%
X169658000Y-68514000D03*
X169658000Y-70164000D03*
%TD*%
D50*
%TO.C,Q8*%
X139004599Y-76705499D03*
X137099599Y-76705499D03*
X138052099Y-78585099D03*
%TD*%
D32*
%TO.C,R10*%
X171409000Y-88433100D03*
X169759000Y-88433100D03*
%TD*%
D33*
%TO.C,J17*%
X118864000Y-66179000D03*
X118864000Y-67679000D03*
D34*
X113674000Y-63574000D03*
X113674000Y-70284000D03*
%TD*%
D32*
%TO.C,R15*%
X171409000Y-83861100D03*
X169759000Y-83861100D03*
%TD*%
D51*
%TO.C,R1*%
X168092500Y-75943000D03*
X174017500Y-75943000D03*
%TD*%
D52*
%TO.C,R22*%
X155641799Y-82116449D03*
X155641799Y-88041449D03*
%TD*%
D25*
%TO.C,U6*%
X148705800Y-92481400D03*
X148705800Y-93751400D03*
X148705800Y-95021400D03*
X148705800Y-96291400D03*
X153655800Y-96291400D03*
X153655800Y-95021400D03*
X153655800Y-93751400D03*
X153655800Y-92481400D03*
%TD*%
D24*
%TO.C,C11*%
X175905000Y-80051100D03*
X177455000Y-80051100D03*
%TD*%
D17*
%TO.C,R20*%
X172336800Y-110928562D03*
X172336800Y-109278562D03*
%TD*%
D53*
%TO.C,L1*%
X178158800Y-93108800D03*
X178158800Y-97383800D03*
%TD*%
D17*
%TO.C,R23*%
X179956800Y-110928562D03*
X179956800Y-109278562D03*
%TD*%
D32*
%TO.C,R11*%
X171409000Y-97577100D03*
X169759000Y-97577100D03*
%TD*%
D54*
%TO.C,L2*%
X151780401Y-71933900D03*
X151780401Y-67658900D03*
%TD*%
D55*
%TO.C,JP1*%
X145050000Y-114475000D03*
D56*
X146750000Y-114475000D03*
D57*
X148450000Y-114475000D03*
%TD*%
D52*
%TO.C,R37*%
X157022800Y-90407900D03*
X157022800Y-96332900D03*
%TD*%
D16*
%TO.C,R12*%
X169759000Y-96053100D03*
X171409000Y-96053100D03*
%TD*%
D25*
%TO.C,U3*%
X147425000Y-83095000D03*
X147425000Y-84365000D03*
X147425000Y-85635000D03*
X147425000Y-86905000D03*
X152375000Y-86905000D03*
X152375000Y-85635000D03*
X152375000Y-84365000D03*
X152375000Y-83095000D03*
%TD*%
D19*
%TO.C,C9*%
X169658000Y-73175000D03*
X169658000Y-71625000D03*
%TD*%
D18*
%TO.C,C20*%
X159816800Y-95491000D03*
X159816800Y-97041000D03*
%TD*%
D42*
%TO.C,R3*%
X168134000Y-68514000D03*
X168134000Y-70164000D03*
%TD*%
D17*
%TO.C,R18*%
X178432800Y-110928562D03*
X178432800Y-109278562D03*
%TD*%
D58*
%TO.C,R36*%
X165150501Y-60080400D03*
X159225501Y-60080400D03*
%TD*%
D59*
%TO.C,IC2*%
X154575000Y-75412000D03*
X155225000Y-75412000D03*
X155875000Y-75412000D03*
X156525000Y-75412000D03*
X157175000Y-75412000D03*
X157825000Y-75412000D03*
X157825000Y-70988000D03*
X157175000Y-70988000D03*
X156525000Y-70988000D03*
X155875000Y-70988000D03*
X155225000Y-70988000D03*
X154575000Y-70988000D03*
D60*
X156200000Y-73200000D03*
%TD*%
D39*
%TO.C,C13*%
X124841000Y-70944000D03*
X124841000Y-67994000D03*
%TD*%
D17*
%TO.C,R42*%
X136832899Y-81277001D03*
X136832899Y-79627001D03*
%TD*%
%TO.C,R27*%
X170812800Y-110928561D03*
X170812800Y-109278561D03*
%TD*%
D61*
%TO.C,D4*%
X166986401Y-60080400D03*
D62*
X169536401Y-60080400D03*
%TD*%
D36*
%TO.C,TP1*%
X187225000Y-121850000D03*
%TD*%
D50*
%TO.C,Q5*%
X141275000Y-62353600D03*
X139370000Y-62353600D03*
X140322500Y-64233200D03*
%TD*%
D24*
%TO.C,C7*%
X172693000Y-69085000D03*
X174243000Y-69085000D03*
%TD*%
D37*
%TO.C,Q9*%
X134115099Y-80325000D03*
X134115099Y-79055000D03*
X134115099Y-77785000D03*
X134115099Y-76515000D03*
X128882699Y-76515000D03*
X128882699Y-77785000D03*
X128882699Y-79055000D03*
X128882699Y-80325000D03*
%TD*%
D16*
%TO.C,R13*%
X169759000Y-82337100D03*
X171409000Y-82337100D03*
%TD*%
D27*
%TO.C,Q4*%
X171534000Y-94417100D03*
X171534000Y-93767100D03*
X171534000Y-93117100D03*
X169634000Y-93117100D03*
X169634000Y-93767100D03*
X169634000Y-94417100D03*
%TD*%
D63*
%TO.C,K1*%
X137632500Y-87010000D03*
D64*
X137632500Y-89550000D03*
D65*
X137632500Y-104790000D03*
X137632500Y-99710000D03*
%TD*%
D24*
%TO.C,C12*%
X169809000Y-91481100D03*
X171359000Y-91481100D03*
%TD*%
D66*
%TO.C,C4*%
X182776000Y-85434100D03*
X182776000Y-88384100D03*
%TD*%
D17*
%TO.C,R38*%
X155900000Y-113325000D03*
X155900000Y-111675000D03*
%TD*%
D18*
%TO.C,C2*%
X173378000Y-91735100D03*
X173378000Y-93285100D03*
%TD*%
D42*
%TO.C,R5*%
X179982000Y-80496100D03*
X179982000Y-82146100D03*
%TD*%
%TO.C,R17*%
X136144000Y-70867000D03*
X136144000Y-72517000D03*
%TD*%
D16*
%TO.C,R39*%
X141172900Y-59929700D03*
X139522900Y-59929700D03*
%TD*%
D17*
%TO.C,R24*%
X167771801Y-110927562D03*
X167771801Y-109277562D03*
%TD*%
D67*
%TO.C,IC3*%
X157950000Y-110425000D03*
X157950000Y-111075000D03*
X157950000Y-111725000D03*
X157950000Y-112375000D03*
X162250000Y-112375000D03*
X162250000Y-111725000D03*
X162250000Y-111075000D03*
X162250000Y-110425000D03*
%TD*%
D68*
%TO.C,D3*%
X156498401Y-62941600D03*
X156498401Y-58641600D03*
%TD*%
D24*
%TO.C,C14*%
X149175000Y-88550000D03*
X150725000Y-88550000D03*
%TD*%
D30*
%TO.C,J14*%
X149300000Y-50090000D03*
X147800000Y-50090000D03*
D31*
X151905000Y-44900000D03*
X145195000Y-44900000D03*
%TD*%
D69*
%TO.C,IC1*%
X128900000Y-115112000D03*
X128250000Y-115112000D03*
X127600000Y-115112000D03*
X126950000Y-115112000D03*
X126300000Y-115112000D03*
X125650000Y-115112000D03*
X125000000Y-115112000D03*
X124350000Y-115112000D03*
X123700000Y-115112000D03*
X123050000Y-115112000D03*
X122400000Y-115112000D03*
X121750000Y-115112000D03*
X121100000Y-115112000D03*
X120450000Y-115112000D03*
X120450000Y-120988000D03*
X121100000Y-120988000D03*
X121750000Y-120988000D03*
X122400000Y-120988000D03*
X123050000Y-120988000D03*
X123700000Y-120988000D03*
X124350000Y-120988000D03*
X125000000Y-120988000D03*
X125650000Y-120988000D03*
X126300000Y-120988000D03*
X126950000Y-120988000D03*
X127600000Y-120988000D03*
X128250000Y-120988000D03*
X128900000Y-120988000D03*
%TD*%
D68*
%TO.C,D1*%
X160800000Y-86450000D03*
X160800000Y-90750000D03*
%TD*%
D16*
%TO.C,R44*%
X139925000Y-83450000D03*
X141575000Y-83450000D03*
%TD*%
%TO.C,R35*%
X157711801Y-66392800D03*
X159361801Y-66392800D03*
%TD*%
G36*
X190645514Y-43097151D02*
G01*
X190652716Y-43097550D01*
X194544357Y-43088890D01*
X194553847Y-43089227D01*
X195201211Y-43136674D01*
X195240463Y-43146029D01*
X195809453Y-43383108D01*
X195832439Y-43395632D01*
X196294118Y-43713465D01*
X196315902Y-43732492D01*
X196797421Y-44262162D01*
X196812679Y-44282842D01*
X196990826Y-44584468D01*
X197004447Y-44617484D01*
X197246299Y-45568284D01*
X197250179Y-45597841D01*
X197255688Y-46059478D01*
X197247855Y-46104738D01*
X196910530Y-47015638D01*
X196901771Y-47034396D01*
X196714529Y-47362068D01*
X196696339Y-47386485D01*
X196273227Y-47830418D01*
X196257618Y-47844287D01*
X195874575Y-48131569D01*
X195856457Y-48142893D01*
X195561998Y-48293850D01*
X195536981Y-48303472D01*
X194815953Y-48495746D01*
X194783488Y-48500000D01*
X190461364Y-48500000D01*
X190438825Y-48497968D01*
X189920481Y-48403724D01*
X189881804Y-48389886D01*
X189410276Y-48127784D01*
X189398256Y-48120184D01*
X189058504Y-47877504D01*
X189049897Y-47870774D01*
X188851117Y-47700955D01*
X188848943Y-47699055D01*
X188543702Y-47425941D01*
X188518320Y-47394555D01*
X188331925Y-47068364D01*
X188325691Y-47055901D01*
X188157158Y-46666538D01*
X188147764Y-46632115D01*
X188100000Y-46250000D01*
X188044539Y-45815176D01*
X188044354Y-45784809D01*
X188050174Y-45734302D01*
X189198693Y-45734302D01*
X189213891Y-45973443D01*
X189215313Y-45983330D01*
X189268104Y-46217073D01*
X189271060Y-46226581D01*
X189360129Y-46449070D01*
X189364548Y-46457986D01*
X189487644Y-46663595D01*
X189493435Y-46671726D01*
X189647461Y-46855292D01*
X189654456Y-46862398D01*
X189835554Y-47019325D01*
X189843594Y-47025245D01*
X190047208Y-47151585D01*
X190056069Y-47156154D01*
X190277100Y-47248742D01*
X190286567Y-47251851D01*
X190519451Y-47308354D01*
X190529301Y-47309930D01*
X190771053Y-47329154D01*
X190775276Y-47329349D01*
X194620270Y-47379284D01*
X194626043Y-47379095D01*
X194868532Y-47359973D01*
X194878263Y-47358432D01*
X195112771Y-47302136D01*
X195122168Y-47299083D01*
X195344977Y-47206797D01*
X195353772Y-47202316D01*
X195559408Y-47076307D01*
X195567388Y-47070509D01*
X195750780Y-46913882D01*
X195757756Y-46906906D01*
X195914383Y-46723523D01*
X195920186Y-46715536D01*
X196046201Y-46509902D01*
X196050678Y-46501118D01*
X196142974Y-46278297D01*
X196146021Y-46268920D01*
X196202324Y-46034404D01*
X196203867Y-46024664D01*
X196222790Y-45784230D01*
X196222790Y-45774370D01*
X196203867Y-45533936D01*
X196202324Y-45524196D01*
X196146021Y-45289680D01*
X196142974Y-45280303D01*
X196050678Y-45057482D01*
X196046201Y-45048698D01*
X195920186Y-44843064D01*
X195914383Y-44835077D01*
X195757756Y-44651694D01*
X195750780Y-44644718D01*
X195567388Y-44488091D01*
X195559408Y-44482293D01*
X195353772Y-44356284D01*
X195344977Y-44351803D01*
X195122168Y-44259517D01*
X195112771Y-44256464D01*
X194878274Y-44200171D01*
X194868522Y-44198627D01*
X194625643Y-44179517D01*
X194620671Y-44179323D01*
X190824623Y-44180115D01*
X190821648Y-44180186D01*
X190578787Y-44191715D01*
X190568886Y-44192978D01*
X190334327Y-44242062D01*
X190324775Y-44244867D01*
X190100907Y-44330399D01*
X190091920Y-44334677D01*
X189884379Y-44454503D01*
X189876171Y-44460155D01*
X189690179Y-44611262D01*
X189682966Y-44618139D01*
X189523190Y-44796728D01*
X189517141Y-44804676D01*
X189387594Y-45006257D01*
X189382881Y-45015054D01*
X189286805Y-45234587D01*
X189283546Y-45244004D01*
X189223363Y-45475958D01*
X189221630Y-45485788D01*
X189198852Y-45724327D01*
X189198693Y-45734302D01*
X188050174Y-45734302D01*
X188111785Y-45199677D01*
X188115805Y-45179487D01*
X188210817Y-44846946D01*
X188216034Y-44832215D01*
X188394887Y-44412014D01*
X188407469Y-44389290D01*
X188730223Y-43926438D01*
X188759673Y-43896457D01*
X189098274Y-43651250D01*
X189101640Y-43648633D01*
X189382410Y-43414658D01*
X189421624Y-43392467D01*
X190169586Y-43131916D01*
X190190321Y-43126617D01*
X190462352Y-43081278D01*
X190497241Y-43080364D01*
X190645514Y-43097151D01*
G37*
G36*
X113838045Y-43169143D02*
G01*
X113845247Y-43169542D01*
X117736888Y-43160882D01*
X117746378Y-43161219D01*
X118393742Y-43208666D01*
X118432994Y-43218021D01*
X119001984Y-43455100D01*
X119024970Y-43467624D01*
X119486649Y-43785457D01*
X119508433Y-43804484D01*
X119989952Y-44334154D01*
X120005210Y-44354834D01*
X120183357Y-44656460D01*
X120196978Y-44689476D01*
X120438830Y-45640276D01*
X120442710Y-45669833D01*
X120448219Y-46131470D01*
X120440386Y-46176730D01*
X120103061Y-47087630D01*
X120094302Y-47106388D01*
X119907060Y-47434060D01*
X119888870Y-47458477D01*
X119465758Y-47902410D01*
X119450149Y-47916279D01*
X119067106Y-48203561D01*
X119048988Y-48214885D01*
X118754529Y-48365842D01*
X118729512Y-48375464D01*
X118008484Y-48567738D01*
X117976019Y-48571992D01*
X113653895Y-48571992D01*
X113631356Y-48569960D01*
X113113012Y-48475716D01*
X113074335Y-48461878D01*
X112602807Y-48199776D01*
X112590787Y-48192176D01*
X112251035Y-47949496D01*
X112242428Y-47942766D01*
X112043648Y-47772947D01*
X112041474Y-47771047D01*
X111736233Y-47497933D01*
X111710851Y-47466547D01*
X111524456Y-47140356D01*
X111518222Y-47127893D01*
X111349689Y-46738530D01*
X111340295Y-46704107D01*
X111292531Y-46321992D01*
X111242030Y-45926055D01*
X112981788Y-45926055D01*
X112982416Y-45935980D01*
X113016326Y-46172841D01*
X113018505Y-46182532D01*
X113089278Y-46411114D01*
X113092954Y-46420336D01*
X113198821Y-46634922D01*
X113203911Y-46643465D01*
X113342237Y-46838711D01*
X113348598Y-46846334D01*
X113515934Y-47017378D01*
X113523419Y-47023908D01*
X113715595Y-47166480D01*
X113724008Y-47171746D01*
X113936234Y-47282295D01*
X113945367Y-47286169D01*
X114172361Y-47361938D01*
X114181976Y-47364325D01*
X114418128Y-47403511D01*
X114427862Y-47404358D01*
X117170409Y-47429297D01*
X117175907Y-47429106D01*
X117418526Y-47410017D01*
X117428285Y-47408471D01*
X117662790Y-47352177D01*
X117672176Y-47349128D01*
X117894997Y-47256836D01*
X117903792Y-47252355D01*
X118109434Y-47126342D01*
X118117414Y-47120544D01*
X118300806Y-46963917D01*
X118307788Y-46956935D01*
X118464424Y-46773543D01*
X118470220Y-46765565D01*
X118596240Y-46559923D01*
X118600717Y-46551138D01*
X118693019Y-46328304D01*
X118696062Y-46318937D01*
X118752367Y-46084415D01*
X118753910Y-46074668D01*
X118772834Y-45834230D01*
X118772834Y-45824370D01*
X118753910Y-45583932D01*
X118752367Y-45574185D01*
X118696062Y-45339663D01*
X118693019Y-45330296D01*
X118600717Y-45107462D01*
X118596240Y-45098677D01*
X118470220Y-44893035D01*
X118464424Y-44885057D01*
X118307788Y-44701665D01*
X118300806Y-44694683D01*
X118117414Y-44538056D01*
X118109434Y-44532258D01*
X117903792Y-44406245D01*
X117894997Y-44401764D01*
X117672176Y-44309472D01*
X117662790Y-44306423D01*
X117428284Y-44250129D01*
X117418529Y-44248584D01*
X117175922Y-44229539D01*
X117170386Y-44229349D01*
X114476807Y-44255069D01*
X114469109Y-44255616D01*
X114230812Y-44287345D01*
X114221096Y-44289430D01*
X113991831Y-44357955D01*
X113982580Y-44361537D01*
X113766950Y-44465298D01*
X113758375Y-44470294D01*
X113561772Y-44606700D01*
X113554087Y-44612986D01*
X113381406Y-44778636D01*
X113374807Y-44786052D01*
X113230353Y-44976818D01*
X113225003Y-44985181D01*
X113112376Y-45196308D01*
X113108409Y-45205410D01*
X113030417Y-45431637D01*
X113027935Y-45441238D01*
X112986525Y-45676922D01*
X112985584Y-45686806D01*
X112981788Y-45926055D01*
X111242030Y-45926055D01*
X111237070Y-45887168D01*
X111236885Y-45856801D01*
X111304316Y-45271669D01*
X111308336Y-45251479D01*
X111403348Y-44918938D01*
X111408565Y-44904207D01*
X111587418Y-44484006D01*
X111600000Y-44461282D01*
X111922754Y-43998430D01*
X111952204Y-43968449D01*
X112290805Y-43723242D01*
X112294171Y-43720625D01*
X112574941Y-43486650D01*
X112614155Y-43464459D01*
X113362117Y-43203908D01*
X113382852Y-43198609D01*
X113654883Y-43153270D01*
X113689772Y-43152356D01*
X113838045Y-43169143D01*
G37*
M02*
