%TF.GenerationSoftware,KiCad,Pcbnew,(6.0.7)*%
%TF.CreationDate,2023-03-29T01:01:16-07:00*%
%TF.ProjectId,battery_board_v1,62617474-6572-4795-9f62-6f6172645f76,rev?*%
%TF.SameCoordinates,Original*%
%TF.FileFunction,Paste,Top*%
%TF.FilePolarity,Positive*%
%FSLAX46Y46*%
G04 Gerber Fmt 4.6, Leading zero omitted, Abs format (unit mm)*
G04 Created by KiCad (PCBNEW (6.0.7)) date 2023-03-29 01:01:16*
%MOMM*%
%LPD*%
G01*
G04 APERTURE LIST*
G04 Aperture macros list*
%AMRoundRect*
0 Rectangle with rounded corners*
0 $1 Rounding radius*
0 $2 $3 $4 $5 $6 $7 $8 $9 X,Y pos of 4 corners*
0 Add a 4 corners polygon primitive as box body*
4,1,4,$2,$3,$4,$5,$6,$7,$8,$9,$2,$3,0*
0 Add four circle primitives for the rounded corners*
1,1,$1+$1,$2,$3*
1,1,$1+$1,$4,$5*
1,1,$1+$1,$6,$7*
1,1,$1+$1,$8,$9*
0 Add four rect primitives between the rounded corners*
20,1,$1+$1,$2,$3,$4,$5,0*
20,1,$1+$1,$4,$5,$6,$7,0*
20,1,$1+$1,$6,$7,$8,$9,0*
20,1,$1+$1,$8,$9,$2,$3,0*%
G04 Aperture macros list end*
%ADD10RoundRect,0.200000X-0.200000X-0.275000X0.200000X-0.275000X0.200000X0.275000X-0.200000X0.275000X0*%
%ADD11RoundRect,0.200000X0.275000X-0.200000X0.275000X0.200000X-0.275000X0.200000X-0.275000X-0.200000X0*%
%ADD12RoundRect,0.225000X-0.250000X0.225000X-0.250000X-0.225000X0.250000X-0.225000X0.250000X0.225000X0*%
%ADD13RoundRect,0.225000X0.250000X-0.225000X0.250000X0.225000X-0.250000X0.225000X-0.250000X-0.225000X0*%
%ADD14RoundRect,0.150000X-0.150000X-0.350000X0.150000X-0.350000X0.150000X0.350000X-0.150000X0.350000X0*%
%ADD15RoundRect,0.250000X-0.375000X-0.650000X0.375000X-0.650000X0.375000X0.650000X-0.375000X0.650000X0*%
%ADD16R,2.200000X1.400000*%
%ADD17R,0.900000X1.400000*%
%ADD18RoundRect,0.225000X-0.225000X-0.250000X0.225000X-0.250000X0.225000X0.250000X-0.225000X0.250000X0*%
%ADD19RoundRect,0.150000X-0.825000X-0.150000X0.825000X-0.150000X0.825000X0.150000X-0.825000X0.150000X0*%
%ADD20R,0.400000X0.510000*%
%ADD21R,0.650000X0.400000*%
%ADD22R,0.600000X1.550000*%
%ADD23R,1.200000X1.800000*%
%ADD24R,0.600000X1.000000*%
%ADD25R,1.250000X1.800000*%
%ADD26R,1.000000X0.600000*%
%ADD27R,1.800000X1.250000*%
%ADD28RoundRect,0.200000X0.200000X0.275000X-0.200000X0.275000X-0.200000X-0.275000X0.200000X-0.275000X0*%
%ADD29R,2.209800X0.609600*%
%ADD30RoundRect,0.225000X0.225000X0.250000X-0.225000X0.250000X-0.225000X-0.250000X0.225000X-0.250000X0*%
%ADD31RoundRect,0.250000X1.100000X-0.325000X1.100000X0.325000X-1.100000X0.325000X-1.100000X-0.325000X0*%
%ADD32R,2.000000X0.650000*%
%ADD33R,2.000000X3.200000*%
%ADD34RoundRect,0.200000X-0.275000X0.200000X-0.275000X-0.200000X0.275000X-0.200000X0.275000X0.200000X0*%
%ADD35R,1.400000X0.900000*%
%ADD36R,1.400000X2.200000*%
%ADD37R,0.304800X1.600200*%
%ADD38R,2.460000X2.310000*%
%ADD39RoundRect,0.020500X0.764500X0.184500X-0.764500X0.184500X-0.764500X-0.184500X0.764500X-0.184500X0*%
%ADD40R,0.558800X1.320800*%
%ADD41RoundRect,0.250000X-0.362500X-1.425000X0.362500X-1.425000X0.362500X1.425000X-0.362500X1.425000X0*%
%ADD42RoundRect,0.250000X-1.425000X0.362500X-1.425000X-0.362500X1.425000X-0.362500X1.425000X0.362500X0*%
%ADD43RoundRect,0.250000X-1.450000X0.312500X-1.450000X-0.312500X1.450000X-0.312500X1.450000X0.312500X0*%
%ADD44RoundRect,0.250000X1.450000X-0.312500X1.450000X0.312500X-1.450000X0.312500X-1.450000X-0.312500X0*%
%ADD45RoundRect,0.250000X0.362500X1.425000X-0.362500X1.425000X-0.362500X-1.425000X0.362500X-1.425000X0*%
%ADD46R,0.450000X1.425000*%
%ADD47R,2.947000X1.753000*%
%ADD48RoundRect,0.250000X-1.100000X0.325000X-1.100000X-0.325000X1.100000X-0.325000X1.100000X0.325000X0*%
%ADD49R,1.100000X0.400000*%
%ADD50R,1.700000X2.350000*%
%ADD51R,0.450000X1.475000*%
G04 APERTURE END LIST*
%TO.C,U2*%
G36*
X179180000Y-88064100D02*
G01*
X176720000Y-88064100D01*
X176720000Y-85754100D01*
X179180000Y-85754100D01*
X179180000Y-88064100D01*
G37*
%TD*%
D10*
%TO.C,R43*%
X154800000Y-79450000D03*
X156450000Y-79450000D03*
%TD*%
D11*
%TO.C,R14*%
X145148500Y-64752900D03*
X145148500Y-63102900D03*
%TD*%
D12*
%TO.C,C1*%
X174902000Y-91735100D03*
X174902000Y-93285100D03*
%TD*%
D13*
%TO.C,C16*%
X160325000Y-83675000D03*
X160325000Y-82125000D03*
%TD*%
D14*
%TO.C,J6*%
X145425000Y-126905000D03*
X146925000Y-126905000D03*
X148425000Y-126905000D03*
X149925000Y-126905000D03*
X151425000Y-126905000D03*
X152925000Y-126905000D03*
X154425000Y-126905000D03*
X155925000Y-126905000D03*
X157425000Y-126905000D03*
X158925000Y-126905000D03*
X160425000Y-126905000D03*
X161925000Y-126905000D03*
D15*
X142820000Y-132095000D03*
X164530000Y-132095000D03*
%TD*%
D16*
%TO.C,D5*%
X134884000Y-55977900D03*
D17*
X137434000Y-55977900D03*
%TD*%
D10*
%TO.C,R41*%
X139563899Y-79791599D03*
X141213899Y-79791599D03*
%TD*%
%TO.C,R28*%
X153475000Y-103874800D03*
X155125000Y-103874800D03*
%TD*%
D18*
%TO.C,C17*%
X150548201Y-65986401D03*
X152098201Y-65986401D03*
%TD*%
D19*
%TO.C,Q2*%
X176200000Y-66164000D03*
X176200000Y-67434000D03*
X176200000Y-68704000D03*
X176200000Y-69974000D03*
X181150000Y-69974000D03*
X181150000Y-68704000D03*
X181150000Y-67434000D03*
X181150000Y-66164000D03*
%TD*%
D20*
%TO.C,Q7*%
X140489500Y-56318900D03*
X140989500Y-57608900D03*
X139989500Y-57608900D03*
%TD*%
D21*
%TO.C,Q3*%
X171534000Y-86797100D03*
X171534000Y-86147100D03*
X171534000Y-85497100D03*
X169634000Y-85497100D03*
X169634000Y-86147100D03*
X169634000Y-86797100D03*
%TD*%
D22*
%TO.C,J20*%
X130800000Y-129750000D03*
X131800000Y-129750000D03*
X132800000Y-129750000D03*
X133800000Y-129750000D03*
D23*
X129500000Y-133625000D03*
X135100000Y-133625000D03*
%TD*%
D24*
%TO.C,J11*%
X176550000Y-50140000D03*
X175050000Y-50140000D03*
D25*
X179155000Y-44950000D03*
X172445000Y-44950000D03*
%TD*%
D26*
%TO.C,J4*%
X119670000Y-88000000D03*
X119670000Y-89500000D03*
X119670000Y-91000000D03*
X119670000Y-92500000D03*
X119670000Y-94000000D03*
D27*
X114480000Y-85395000D03*
X114480000Y-96605000D03*
%TD*%
D11*
%TO.C,R25*%
X176908800Y-110928561D03*
X176908800Y-109278561D03*
%TD*%
D28*
%TO.C,R31*%
X141730200Y-111894000D03*
X140080200Y-111894000D03*
%TD*%
D24*
%TO.C,J15*%
X158700000Y-50090000D03*
X157200000Y-50090000D03*
D25*
X161305000Y-44900000D03*
X154595000Y-44900000D03*
%TD*%
D10*
%TO.C,R29*%
X153475000Y-102300000D03*
X155125000Y-102300000D03*
%TD*%
D11*
%TO.C,R19*%
X175384800Y-110928562D03*
X175384800Y-109278562D03*
%TD*%
D26*
%TO.C,J19*%
X118865000Y-74825000D03*
X118865000Y-76325000D03*
D27*
X113675000Y-72220000D03*
X113675000Y-78930000D03*
%TD*%
D28*
%TO.C,R34*%
X159361801Y-67916800D03*
X157711801Y-67916800D03*
%TD*%
D10*
%TO.C,R2*%
X172643000Y-67434000D03*
X174293000Y-67434000D03*
%TD*%
D28*
%TO.C,R9*%
X174711000Y-83099100D03*
X173061000Y-83099100D03*
%TD*%
D11*
%TO.C,R21*%
X169288800Y-110928562D03*
X169288800Y-109278562D03*
%TD*%
D18*
%TO.C,C5*%
X177900000Y-71625000D03*
X179450000Y-71625000D03*
%TD*%
D28*
%TO.C,R33*%
X158875000Y-77175000D03*
X157225000Y-77175000D03*
%TD*%
D29*
%TO.C,Q6*%
X133680200Y-71423000D03*
X133680200Y-70153000D03*
X133680200Y-68883000D03*
X133680200Y-67613000D03*
X128447800Y-67613000D03*
X128447800Y-68883000D03*
X128447800Y-70153000D03*
X128447800Y-71423000D03*
%TD*%
D30*
%TO.C,C10*%
X177455000Y-81575100D03*
X175905000Y-81575100D03*
%TD*%
D24*
%TO.C,J16*%
X167700000Y-50140000D03*
X166200000Y-50140000D03*
D25*
X170305000Y-44950000D03*
X163595000Y-44950000D03*
%TD*%
D31*
%TO.C,C3*%
X184050000Y-82425000D03*
X184050000Y-79475000D03*
%TD*%
D24*
%TO.C,J13*%
X140200000Y-50090000D03*
X138700000Y-50090000D03*
D25*
X142805000Y-44900000D03*
X136095000Y-44900000D03*
%TD*%
D13*
%TO.C,C15*%
X138619200Y-111907000D03*
X138619200Y-110357000D03*
%TD*%
D19*
%TO.C,Q1*%
X176200000Y-73276000D03*
X176200000Y-74546000D03*
X176200000Y-75816000D03*
X176200000Y-77086000D03*
X181150000Y-77086000D03*
X181150000Y-75816000D03*
X181150000Y-74546000D03*
X181150000Y-73276000D03*
%TD*%
D10*
%TO.C,R32*%
X154200000Y-77175000D03*
X155850000Y-77175000D03*
%TD*%
D24*
%TO.C,J12*%
X131150000Y-50040000D03*
X129650000Y-50040000D03*
D25*
X133755000Y-44850000D03*
X127045000Y-44850000D03*
%TD*%
D32*
%TO.C,U5*%
X143747200Y-106560000D03*
X143747200Y-107830000D03*
X143747200Y-109100000D03*
X143747200Y-110370000D03*
X143747200Y-111640000D03*
D33*
X149747200Y-109100000D03*
%TD*%
D34*
%TO.C,R7*%
X181506000Y-80496100D03*
X181506000Y-82146100D03*
%TD*%
D13*
%TO.C,C6*%
X181506000Y-93285100D03*
X181506000Y-91735100D03*
%TD*%
D28*
%TO.C,R30*%
X141730200Y-110370000D03*
X140080200Y-110370000D03*
%TD*%
D13*
%TO.C,C8*%
X168134000Y-73175000D03*
X168134000Y-71625000D03*
%TD*%
D35*
%TO.C,D2*%
X155184001Y-65400000D03*
D36*
X155184001Y-67950000D03*
%TD*%
D37*
%TO.C,U2*%
X179900034Y-84140500D03*
X179250021Y-84140500D03*
X178600012Y-84140500D03*
X177950000Y-84140500D03*
X177299988Y-84140500D03*
X176649979Y-84140500D03*
X175999966Y-84140500D03*
X175999966Y-89677700D03*
X176649979Y-89677700D03*
X177299988Y-89677700D03*
X177950000Y-89677700D03*
X178600012Y-89677700D03*
X179250021Y-89677700D03*
X179900034Y-89677700D03*
D38*
X177950000Y-86909100D03*
%TD*%
D39*
%TO.C,U4*%
X165961801Y-107577562D03*
X165961801Y-106927562D03*
X165961801Y-106277562D03*
X165961801Y-105627562D03*
X165961801Y-104977562D03*
X165961801Y-104327562D03*
X165961801Y-103677562D03*
X165961801Y-103027562D03*
X165961801Y-102377562D03*
X165961801Y-101727562D03*
X165961801Y-101077562D03*
X165961801Y-100427562D03*
X160221801Y-100427562D03*
X160221801Y-101077562D03*
X160221801Y-101727562D03*
X160221801Y-102377562D03*
X160221801Y-103027562D03*
X160221801Y-103677562D03*
X160221801Y-104327562D03*
X160221801Y-104977562D03*
X160221801Y-105627562D03*
X160221801Y-106277562D03*
X160221801Y-106927562D03*
X160221801Y-107577562D03*
%TD*%
D30*
%TO.C,C18*%
X163013801Y-56778400D03*
X161463801Y-56778400D03*
%TD*%
D31*
%TO.C,C19*%
X124945700Y-79945802D03*
X124945700Y-76995802D03*
%TD*%
D10*
%TO.C,R8*%
X169759000Y-89957100D03*
X171409000Y-89957100D03*
%TD*%
%TO.C,R16*%
X141275500Y-65896900D03*
X142925500Y-65896900D03*
%TD*%
D26*
%TO.C,U1*%
X174106000Y-72956000D03*
X174106000Y-72006000D03*
X174106000Y-71056000D03*
X171306000Y-71056000D03*
X171306000Y-72006000D03*
X171306000Y-72956000D03*
%TD*%
D11*
%TO.C,R40*%
X141608099Y-77873400D03*
X141608099Y-76223400D03*
%TD*%
D28*
%TO.C,R6*%
X166700190Y-90563911D03*
X165050190Y-90563911D03*
%TD*%
D11*
%TO.C,R26*%
X173860800Y-110928562D03*
X173860800Y-109278562D03*
%TD*%
D34*
%TO.C,R4*%
X169658000Y-68514000D03*
X169658000Y-70164000D03*
%TD*%
D40*
%TO.C,Q8*%
X139004599Y-76705499D03*
X137099599Y-76705499D03*
X138052099Y-78585099D03*
%TD*%
D28*
%TO.C,R10*%
X171409000Y-88433100D03*
X169759000Y-88433100D03*
%TD*%
D26*
%TO.C,J17*%
X118864000Y-66179000D03*
X118864000Y-67679000D03*
D27*
X113674000Y-63574000D03*
X113674000Y-70284000D03*
%TD*%
D28*
%TO.C,R15*%
X171409000Y-83861100D03*
X169759000Y-83861100D03*
%TD*%
D41*
%TO.C,R1*%
X168092500Y-75943000D03*
X174017500Y-75943000D03*
%TD*%
D42*
%TO.C,R22*%
X155641799Y-82116449D03*
X155641799Y-88041449D03*
%TD*%
D19*
%TO.C,U6*%
X148705800Y-92481400D03*
X148705800Y-93751400D03*
X148705800Y-95021400D03*
X148705800Y-96291400D03*
X153655800Y-96291400D03*
X153655800Y-95021400D03*
X153655800Y-93751400D03*
X153655800Y-92481400D03*
%TD*%
D26*
%TO.C,J1*%
X189030000Y-77075000D03*
X189030000Y-75575000D03*
X189030000Y-74075000D03*
X189030000Y-72575000D03*
X189030000Y-71075000D03*
D27*
X194220000Y-79680000D03*
X194220000Y-68470000D03*
%TD*%
D18*
%TO.C,C11*%
X175905000Y-80051100D03*
X177455000Y-80051100D03*
%TD*%
D11*
%TO.C,R20*%
X172336800Y-110928562D03*
X172336800Y-109278562D03*
%TD*%
D43*
%TO.C,L1*%
X178158800Y-93108800D03*
X178158800Y-97383800D03*
%TD*%
D11*
%TO.C,R23*%
X179956800Y-110928562D03*
X179956800Y-109278562D03*
%TD*%
D28*
%TO.C,R11*%
X171409000Y-97577100D03*
X169759000Y-97577100D03*
%TD*%
D44*
%TO.C,L2*%
X151780401Y-71933900D03*
X151780401Y-67658900D03*
%TD*%
D26*
%TO.C,J2*%
X189080000Y-92850000D03*
X189080000Y-91350000D03*
X189080000Y-89850000D03*
X189080000Y-88350000D03*
X189080000Y-86850000D03*
D27*
X194270000Y-95455000D03*
X194270000Y-84245000D03*
%TD*%
D42*
%TO.C,R37*%
X157022800Y-90407900D03*
X157022800Y-96332900D03*
%TD*%
D10*
%TO.C,R12*%
X169759000Y-96053100D03*
X171409000Y-96053100D03*
%TD*%
D19*
%TO.C,U3*%
X147425000Y-83095000D03*
X147425000Y-84365000D03*
X147425000Y-85635000D03*
X147425000Y-86905000D03*
X152375000Y-86905000D03*
X152375000Y-85635000D03*
X152375000Y-84365000D03*
X152375000Y-83095000D03*
%TD*%
D13*
%TO.C,C9*%
X169658000Y-73175000D03*
X169658000Y-71625000D03*
%TD*%
D12*
%TO.C,C20*%
X159816800Y-95491000D03*
X159816800Y-97041000D03*
%TD*%
D34*
%TO.C,R3*%
X168134000Y-68514000D03*
X168134000Y-70164000D03*
%TD*%
D11*
%TO.C,R18*%
X178432800Y-110928562D03*
X178432800Y-109278562D03*
%TD*%
D45*
%TO.C,R36*%
X165150501Y-60080400D03*
X159225501Y-60080400D03*
%TD*%
D46*
%TO.C,IC2*%
X154575000Y-75412000D03*
X155225000Y-75412000D03*
X155875000Y-75412000D03*
X156525000Y-75412000D03*
X157175000Y-75412000D03*
X157825000Y-75412000D03*
X157825000Y-70988000D03*
X157175000Y-70988000D03*
X156525000Y-70988000D03*
X155875000Y-70988000D03*
X155225000Y-70988000D03*
X154575000Y-70988000D03*
D47*
X156200000Y-73200000D03*
%TD*%
D31*
%TO.C,C13*%
X124841000Y-70944000D03*
X124841000Y-67994000D03*
%TD*%
D11*
%TO.C,R42*%
X136832899Y-81277001D03*
X136832899Y-79627001D03*
%TD*%
%TO.C,R27*%
X170812800Y-110928561D03*
X170812800Y-109278561D03*
%TD*%
D17*
%TO.C,D4*%
X166986401Y-60080400D03*
D16*
X169536401Y-60080400D03*
%TD*%
D40*
%TO.C,Q5*%
X141275000Y-62353600D03*
X139370000Y-62353600D03*
X140322500Y-64233200D03*
%TD*%
D18*
%TO.C,C7*%
X172693000Y-69085000D03*
X174243000Y-69085000D03*
%TD*%
D29*
%TO.C,Q9*%
X134115099Y-80325000D03*
X134115099Y-79055000D03*
X134115099Y-77785000D03*
X134115099Y-76515000D03*
X128882699Y-76515000D03*
X128882699Y-77785000D03*
X128882699Y-79055000D03*
X128882699Y-80325000D03*
%TD*%
D10*
%TO.C,R13*%
X169759000Y-82337100D03*
X171409000Y-82337100D03*
%TD*%
D21*
%TO.C,Q4*%
X171534000Y-94417100D03*
X171534000Y-93767100D03*
X171534000Y-93117100D03*
X169634000Y-93117100D03*
X169634000Y-93767100D03*
X169634000Y-94417100D03*
%TD*%
D18*
%TO.C,C12*%
X169809000Y-91481100D03*
X171359000Y-91481100D03*
%TD*%
D48*
%TO.C,C4*%
X182776000Y-85434100D03*
X182776000Y-88384100D03*
%TD*%
D11*
%TO.C,R38*%
X155900000Y-113325000D03*
X155900000Y-111675000D03*
%TD*%
D12*
%TO.C,C2*%
X173378000Y-91735100D03*
X173378000Y-93285100D03*
%TD*%
D26*
%TO.C,J3*%
X189030000Y-108850000D03*
X189030000Y-107350000D03*
X189030000Y-105850000D03*
X189030000Y-104350000D03*
X189030000Y-102850000D03*
D27*
X194220000Y-111455000D03*
X194220000Y-100245000D03*
%TD*%
D34*
%TO.C,R5*%
X179982000Y-80496100D03*
X179982000Y-82146100D03*
%TD*%
%TO.C,R17*%
X136144000Y-70867000D03*
X136144000Y-72517000D03*
%TD*%
D26*
%TO.C,J5*%
X119645000Y-103625000D03*
X119645000Y-105125000D03*
X119645000Y-106625000D03*
X119645000Y-108125000D03*
X119645000Y-109625000D03*
D27*
X114455000Y-101020000D03*
X114455000Y-112230000D03*
%TD*%
D10*
%TO.C,R39*%
X141172900Y-59929700D03*
X139522900Y-59929700D03*
%TD*%
D11*
%TO.C,R24*%
X167771801Y-110927562D03*
X167771801Y-109277562D03*
%TD*%
D49*
%TO.C,IC3*%
X157950000Y-110425000D03*
X157950000Y-111075000D03*
X157950000Y-111725000D03*
X157950000Y-112375000D03*
X162250000Y-112375000D03*
X162250000Y-111725000D03*
X162250000Y-111075000D03*
X162250000Y-110425000D03*
%TD*%
D50*
%TO.C,D3*%
X156498401Y-62941600D03*
X156498401Y-58641600D03*
%TD*%
D18*
%TO.C,C14*%
X149175000Y-88550000D03*
X150725000Y-88550000D03*
%TD*%
D24*
%TO.C,J14*%
X149300000Y-50090000D03*
X147800000Y-50090000D03*
D25*
X151905000Y-44900000D03*
X145195000Y-44900000D03*
%TD*%
D51*
%TO.C,IC1*%
X128900000Y-115112000D03*
X128250000Y-115112000D03*
X127600000Y-115112000D03*
X126950000Y-115112000D03*
X126300000Y-115112000D03*
X125650000Y-115112000D03*
X125000000Y-115112000D03*
X124350000Y-115112000D03*
X123700000Y-115112000D03*
X123050000Y-115112000D03*
X122400000Y-115112000D03*
X121750000Y-115112000D03*
X121100000Y-115112000D03*
X120450000Y-115112000D03*
X120450000Y-120988000D03*
X121100000Y-120988000D03*
X121750000Y-120988000D03*
X122400000Y-120988000D03*
X123050000Y-120988000D03*
X123700000Y-120988000D03*
X124350000Y-120988000D03*
X125000000Y-120988000D03*
X125650000Y-120988000D03*
X126300000Y-120988000D03*
X126950000Y-120988000D03*
X127600000Y-120988000D03*
X128250000Y-120988000D03*
X128900000Y-120988000D03*
%TD*%
D50*
%TO.C,D1*%
X160800000Y-86450000D03*
X160800000Y-90750000D03*
%TD*%
D10*
%TO.C,R44*%
X139925000Y-83450000D03*
X141575000Y-83450000D03*
%TD*%
%TO.C,R35*%
X157711801Y-66392800D03*
X159361801Y-66392800D03*
%TD*%
M02*
