M48
; DRILL file {KiCad (6.0.7)} date Wed Mar 29 01:01:16 2023
; FORMAT={-:-/ absolute / inch / decimal}
; #@! TF.CreationDate,2023-03-29T01:01:16-07:00
; #@! TF.GenerationSoftware,Kicad,Pcbnew,(6.0.7)
; #@! TF.FileFunction,Plated,1,4,PTH
FMAT,2
INCH
; #@! TA.AperFunction,Plated,PTH,ViaDrill
T1C0.0079
; #@! TA.AperFunction,Plated,PTH,ViaDrill
T2C0.0157
; #@! TA.AperFunction,Plated,PTH,ComponentDrill
T3C0.0394
; #@! TA.AperFunction,Plated,PTH,ComponentDrill
T4C0.0472
; #@! TA.AperFunction,Plated,PTH,ComponentDrill
T5C0.0520
; #@! TA.AperFunction,Plated,PTH,ComponentDrill
T6C0.0937
; #@! TA.AperFunction,Plated,PTH,ComponentDrill
T7C0.1252
; #@! TA.AperFunction,Plated,PTH,ComponentDrill
T8C0.1260
; #@! TA.AperFunction,Plated,PTH,ComponentDrill
T9C0.1398
%
G90
G05
T1
X6.7249Y-4.1328
X6.7249Y-4.1794
X6.7849Y-4.1068
X6.7849Y-4.1794
X6.8449Y-4.0808
X6.8449Y-4.1794
X6.9049Y-4.0568
X6.9049Y-4.1808
X6.9649Y-4.0308
X6.9649Y-4.1794
X7.0249Y-4.0068
X7.0249Y-4.1808
X7.0849Y-3.9808
X7.0849Y-4.1794
T2
X4.7087Y-2.1358
X4.7835Y-4.1339
X4.7835Y-4.1929
X4.8031Y-3.5236
X4.8031Y-3.6417
X4.8031Y-3.7008
X4.8622Y-4.2126
X4.8819Y-4.252
X4.9211Y-3.0814
X4.935Y-2.6191
X4.9414Y-4.3902
X4.9951Y-4.8425
X5.0197Y-3.6417
X5.0591Y-4.6161
X5.0591Y-4.8228
X5.0787Y-3.7598
X5.1181Y-3.7795
X5.1181Y-4.5276
X5.1181Y-4.7835
X5.1289Y-3.4665
X5.1378Y-4.8425
X5.1466Y-3.8189
X5.1575Y-3.9764
X5.2323Y-4.9803
X5.2362Y-3.6811
X5.2469Y-3.9066
X5.2756Y-4.9955
X5.3898Y-4.9567
X5.4134Y-2.7165
X5.4458Y-2.8346
X5.4528Y-4.4488
X5.4724Y-4.9213
X5.4794Y-3.3263
X5.4875Y-2.4034
X5.4876Y-3.5433
X5.4921Y-4.2126
X5.5295Y-2.3114
X5.5316Y-2.9574
X5.5512Y-3.189
X5.5709Y-3.56
X5.5906Y-4.1339
X5.6102Y-3.6614
X5.6299Y-4.0551
X5.7087Y-4.7441
X5.7283Y-3.4252
X5.7283Y-3.622
X5.748Y-3.2677
X5.7677Y-2.4409
X5.7677Y-2.8543
X5.7677Y-3.5236
X5.7677Y-3.622
X5.7874Y-3.0315
X5.7874Y-3.9764
X5.7874Y-4.3504
X5.7962Y-3.706
X5.8268Y-1.8652
X5.8268Y-4.7441
X5.8273Y-3.9759
X5.8465Y-4.0945
X5.8661Y-2.3228
X5.8661Y-2.8543
X5.8661Y-3.0118
X5.8661Y-4.1339
X5.8917Y-2.0768
X5.9055Y-4.7047
X5.9252Y-3.6417
X5.9334Y-4.4163
X5.9606Y-4.5079
X5.9646Y-4.1535
X5.9646Y-4.6457
X5.9646Y-4.7835
X5.9646Y-4.8819
X5.9796Y-2.7388
X5.9843Y-3.9567
X5.9843Y-4.0354
X6.0039Y-3.4843
X6.0236Y-3.1496
X6.0236Y-4.8425
X6.0301Y-4.5846
X6.0572Y-4.6219
X6.063Y-2.1594
X6.0827Y-2.3031
X6.0827Y-4.2835
X6.1024Y-4.7047
X6.1024Y-4.7835
X6.11Y-3.738
X6.1417Y-3.8868
X6.1636Y-2.6748
X6.1811Y-4.2126
X6.184Y-3.604
X6.184Y-3.688
X6.185Y-4.4656
X6.187Y-5.0611
X6.2008Y-3.8583
X6.2402Y-2.5787
X6.2449Y-4.1588
X6.2676Y-2.8828
X6.2795Y-4.4252
X6.2825Y-4.9075
X6.283Y-4.8666
X6.2953Y-4.2795
X6.3091Y-3.0276
X6.3159Y-2.1614
X6.332Y-3.9153
X6.3366Y-4.5138
X6.3386Y-2.3819
X6.342Y-3.8297
X6.3626Y-3.6799
X6.3642Y-3.2165
X6.3819Y-3.7795
X6.3829Y-4.8701
X6.4016Y-3.3071
X6.4134Y-2.6339
X6.4154Y-2.5492
X6.4311Y-3.6181
X6.437Y-4.3346
X6.4582Y-4.6914
X6.5059Y-2.6969
X6.5665Y-3.485
X6.5688Y-3.7816
X6.5729Y-3.1305
X6.5733Y-3.6152
X6.5738Y-3.5236
X6.5768Y-2.5591
X6.5819Y-3.3877
X6.5827Y-2.6201
X6.5877Y-3.3136
X6.5945Y-3.1693
X6.5989Y-3.9468
X6.6063Y-3.8701
X6.6102Y-3.6988
X6.6206Y-3.2416
X6.625Y-3.7451
X6.626Y-3.8012
X6.6272Y-3.4843
X6.6319Y-3.6216
X6.6399Y-3.3796
X6.6467Y-3.5758
X6.6535Y-3.0945
X6.6535Y-4.1603
X6.6781Y-3.1476
X6.7827Y-3.1976
X6.7923Y-3.5177
X6.846Y-3.5686
X6.8504Y-3.1693
X6.8539Y-3.3582
X6.8579Y-3.7856
X6.8602Y-2.5984
X6.8959Y-3.8296
X6.9012Y-3.5708
X6.9547Y-3.7136
X7.0059Y-3.4216
X7.0141Y-3.8325
X7.0335Y-3.126
X7.0394Y-2.7461
X7.0404Y-2.6171
X7.0859Y-3.3756
X7.1279Y-3.5563
X7.1319Y-4.0118
X7.1437Y-4.1752
X7.1457Y-4.7638
X7.1479Y-3.1296
X7.1752Y-4.5197
X7.1772Y-4.3957
X7.1772Y-4.4626
X7.185Y-3.9764
X7.19Y-2.042
X7.1919Y-3.3016
X7.1929Y-3.4213
X7.2047Y-3.937
X7.2105Y-3.5699
X7.2421Y-3.189
X7.2441Y-3.8386
X7.2618Y-3.6594
X7.2643Y-4.7839
X7.2835Y-3.8976
X7.2835Y-3.937
X7.2835Y-3.9764
X7.2835Y-4.0157
X7.2835Y-4.0551
X7.2835Y-4.1142
X7.2894Y-4.3976
X7.2894Y-4.4626
X7.2894Y-4.5157
X7.314Y-3.1909
X7.3425Y-3.2283
X7.3622Y-3.9764
X7.3622Y-4.0157
X7.3622Y-4.0551
X7.3622Y-4.1142
X7.3819Y-2.9921
X7.3819Y-3.5827
X7.3819Y-3.7205
X7.3819Y-4.2323
X7.4213Y-4.4882
X7.5Y-3.6024
X7.5197Y-2.8543
X7.5197Y-3.2283
X7.5285Y-3.4252
X7.5394Y-3.5039
X7.5394Y-3.9567
X7.5394Y-4.0157
T3
X4.9016Y-2.2628
X5.4186Y-3.4256
X5.4186Y-3.5256
X5.4665Y-4.7844
X6.495Y-4.475
X6.6368Y-4.7677
X6.6545Y-2.1568
X6.6545Y-2.2568
X6.811Y-2.1752
X7.3711Y-4.7972
T4
X5.4186Y-3.9256
X5.4186Y-4.1256
T5
X4.9102Y-2.097
X4.9102Y-4.9404
X5.6633Y-2.097
X5.6633Y-4.9404
X6.522Y-2.098
X6.522Y-4.9413
X7.2752Y-2.098
X7.2752Y-4.9413
T6
X4.5806Y-2.097
X6.1925Y-2.098
T7
X4.5972Y-4.6053
X5.2873Y-4.6053
X6.2091Y-4.6063
X6.8992Y-4.6063
T8
X4.5108Y-5.1783
X7.6604Y-5.1783
T9
X5.2873Y-2.4321
X5.9751Y-2.4321
X6.8992Y-2.4331
X7.587Y-2.4331
T0
M30
