%TF.GenerationSoftware,KiCad,Pcbnew,7.0.1*%
%TF.CreationDate,2023-12-11T20:48:33-07:00*%
%TF.ProjectId,Battery_Board_V3,42617474-6572-4795-9f42-6f6172645f56,rev?*%
%TF.SameCoordinates,Original*%
%TF.FileFunction,Soldermask,Top*%
%TF.FilePolarity,Negative*%
%FSLAX46Y46*%
G04 Gerber Fmt 4.6, Leading zero omitted, Abs format (unit mm)*
G04 Created by KiCad (PCBNEW 7.0.1) date 2023-12-11 20:48:33*
%MOMM*%
%LPD*%
G01*
G04 APERTURE LIST*
G04 Aperture macros list*
%AMRoundRect*
0 Rectangle with rounded corners*
0 $1 Rounding radius*
0 $2 $3 $4 $5 $6 $7 $8 $9 X,Y pos of 4 corners*
0 Add a 4 corners polygon primitive as box body*
4,1,4,$2,$3,$4,$5,$6,$7,$8,$9,$2,$3,0*
0 Add four circle primitives for the rounded corners*
1,1,$1+$1,$2,$3*
1,1,$1+$1,$4,$5*
1,1,$1+$1,$6,$7*
1,1,$1+$1,$8,$9*
0 Add four rect primitives between the rounded corners*
20,1,$1+$1,$2,$3,$4,$5,0*
20,1,$1+$1,$4,$5,$6,$7,0*
20,1,$1+$1,$6,$7,$8,$9,0*
20,1,$1+$1,$8,$9,$2,$3,0*%
%AMRotRect*
0 Rectangle, with rotation*
0 The origin of the aperture is its center*
0 $1 length*
0 $2 width*
0 $3 Rotation angle, in degrees counterclockwise*
0 Add horizontal line*
21,1,$1,$2,0,0,$3*%
%AMFreePoly0*
4,1,19,0.550000,-0.750000,0.000000,-0.750000,0.000000,-0.744911,-0.071157,-0.744911,-0.207708,-0.704816,-0.327430,-0.627875,-0.420627,-0.520320,-0.479746,-0.390866,-0.500000,-0.250000,-0.500000,0.250000,-0.479746,0.390866,-0.420627,0.520320,-0.327430,0.627875,-0.207708,0.704816,-0.071157,0.744911,0.000000,0.744911,0.000000,0.750000,0.550000,0.750000,0.550000,-0.750000,0.550000,-0.750000,
$1*%
%AMFreePoly1*
4,1,19,0.000000,0.744911,0.071157,0.744911,0.207708,0.704816,0.327430,0.627875,0.420627,0.520320,0.479746,0.390866,0.500000,0.250000,0.500000,-0.250000,0.479746,-0.390866,0.420627,-0.520320,0.327430,-0.627875,0.207708,-0.704816,0.071157,-0.744911,0.000000,-0.744911,0.000000,-0.750000,-0.550000,-0.750000,-0.550000,0.750000,0.000000,0.750000,0.000000,0.744911,0.000000,0.744911,
$1*%
%AMFreePoly2*
4,1,19,0.500000,-0.750000,0.000000,-0.750000,0.000000,-0.744911,-0.071157,-0.744911,-0.207708,-0.704816,-0.327430,-0.627875,-0.420627,-0.520320,-0.479746,-0.390866,-0.500000,-0.250000,-0.500000,0.250000,-0.479746,0.390866,-0.420627,0.520320,-0.327430,0.627875,-0.207708,0.704816,-0.071157,0.744911,0.000000,0.744911,0.000000,0.750000,0.500000,0.750000,0.500000,-0.750000,0.500000,-0.750000,
$1*%
%AMFreePoly3*
4,1,19,0.000000,0.744911,0.071157,0.744911,0.207708,0.704816,0.327430,0.627875,0.420627,0.520320,0.479746,0.390866,0.500000,0.250000,0.500000,-0.250000,0.479746,-0.390866,0.420627,-0.520320,0.327430,-0.627875,0.207708,-0.704816,0.071157,-0.744911,0.000000,-0.744911,0.000000,-0.750000,-0.500000,-0.750000,-0.500000,0.750000,0.000000,0.750000,0.000000,0.744911,0.000000,0.744911,
$1*%
G04 Aperture macros list end*
%ADD10C,0.150000*%
%ADD11C,0.010000*%
%ADD12RoundRect,0.150000X0.150000X0.625000X-0.150000X0.625000X-0.150000X-0.625000X0.150000X-0.625000X0*%
%ADD13RoundRect,0.250000X0.350000X0.650000X-0.350000X0.650000X-0.350000X-0.650000X0.350000X-0.650000X0*%
%ADD14RoundRect,0.250000X1.425000X-0.362500X1.425000X0.362500X-1.425000X0.362500X-1.425000X-0.362500X0*%
%ADD15R,1.000000X0.600000*%
%ADD16R,1.800000X1.250000*%
%ADD17RoundRect,0.200000X0.275000X-0.200000X0.275000X0.200000X-0.275000X0.200000X-0.275000X-0.200000X0*%
%ADD18RotRect,0.600000X1.550000X135.000000*%
%ADD19RotRect,1.200000X1.800000X135.000000*%
%ADD20C,5.000000*%
%ADD21RoundRect,0.225000X-0.225000X-0.250000X0.225000X-0.250000X0.225000X0.250000X-0.225000X0.250000X0*%
%ADD22C,2.000000*%
%ADD23R,1.500000X0.900000*%
%ADD24RoundRect,0.150000X0.825000X0.150000X-0.825000X0.150000X-0.825000X-0.150000X0.825000X-0.150000X0*%
%ADD25R,0.650000X0.400000*%
%ADD26RoundRect,0.200000X-0.200000X-0.275000X0.200000X-0.275000X0.200000X0.275000X-0.200000X0.275000X0*%
%ADD27RoundRect,0.150000X0.662500X0.150000X-0.662500X0.150000X-0.662500X-0.150000X0.662500X-0.150000X0*%
%ADD28R,2.514000X3.200000*%
%ADD29RoundRect,0.150000X-0.512500X-0.150000X0.512500X-0.150000X0.512500X0.150000X-0.512500X0.150000X0*%
%ADD30RoundRect,0.140000X-0.021213X0.219203X-0.219203X0.021213X0.021213X-0.219203X0.219203X-0.021213X0*%
%ADD31R,0.600000X1.000000*%
%ADD32R,1.250000X1.800000*%
%ADD33RoundRect,0.140000X-0.219203X-0.021213X-0.021213X-0.219203X0.219203X0.021213X0.021213X0.219203X0*%
%ADD34RoundRect,0.200000X0.200000X0.275000X-0.200000X0.275000X-0.200000X-0.275000X0.200000X-0.275000X0*%
%ADD35RoundRect,0.250000X0.275000X0.500000X-0.275000X0.500000X-0.275000X-0.500000X0.275000X-0.500000X0*%
%ADD36RoundRect,0.250000X0.950000X0.500000X-0.950000X0.500000X-0.950000X-0.500000X0.950000X-0.500000X0*%
%ADD37RoundRect,0.225000X-0.250000X0.225000X-0.250000X-0.225000X0.250000X-0.225000X0.250000X0.225000X0*%
%ADD38RotRect,0.800000X0.500000X135.000000*%
%ADD39RotRect,0.800000X0.400000X135.000000*%
%ADD40RoundRect,0.200000X0.335876X0.053033X0.053033X0.335876X-0.335876X-0.053033X-0.053033X-0.335876X0*%
%ADD41RoundRect,0.225000X0.250000X-0.225000X0.250000X0.225000X-0.250000X0.225000X-0.250000X-0.225000X0*%
%ADD42RoundRect,0.250000X-0.475000X0.250000X-0.475000X-0.250000X0.475000X-0.250000X0.475000X0.250000X0*%
%ADD43RoundRect,0.150000X0.150000X-0.825000X0.150000X0.825000X-0.150000X0.825000X-0.150000X-0.825000X0*%
%ADD44R,2.200000X0.600000*%
%ADD45R,2.150000X3.450000*%
%ADD46RoundRect,0.150000X0.406586X0.618718X-0.618718X-0.406586X-0.406586X-0.618718X0.618718X0.406586X0*%
%ADD47RoundRect,0.050800X0.000000X0.636396X-0.636396X0.000000X0.000000X-0.636396X0.636396X0.000000X0*%
%ADD48RoundRect,0.050800X0.000000X-0.636396X0.636396X0.000000X0.000000X0.636396X-0.636396X0.000000X0*%
%ADD49RoundRect,0.020500X0.184500X-0.764500X0.184500X0.764500X-0.184500X0.764500X-0.184500X-0.764500X0*%
%ADD50RoundRect,0.150000X0.587500X0.150000X-0.587500X0.150000X-0.587500X-0.150000X0.587500X-0.150000X0*%
%ADD51RoundRect,0.250000X0.362500X1.425000X-0.362500X1.425000X-0.362500X-1.425000X0.362500X-1.425000X0*%
%ADD52R,1.700000X1.700000*%
%ADD53O,1.700000X1.700000*%
%ADD54C,1.800000*%
%ADD55R,3.000000X3.100000*%
%ADD56RoundRect,0.100000X-0.687500X-0.100000X0.687500X-0.100000X0.687500X0.100000X-0.687500X0.100000X0*%
%ADD57RoundRect,0.200000X0.053033X-0.335876X0.335876X-0.053033X-0.053033X0.335876X-0.335876X0.053033X0*%
%ADD58R,0.500000X0.800000*%
%ADD59R,0.400000X0.800000*%
%ADD60RoundRect,0.237500X-0.237500X0.287500X-0.237500X-0.287500X0.237500X-0.287500X0.237500X0.287500X0*%
%ADD61RoundRect,0.250000X-0.362500X-1.425000X0.362500X-1.425000X0.362500X1.425000X-0.362500X1.425000X0*%
%ADD62RoundRect,0.250000X-1.000000X-0.900000X1.000000X-0.900000X1.000000X0.900000X-1.000000X0.900000X0*%
%ADD63RoundRect,0.140000X0.219203X0.021213X0.021213X0.219203X-0.219203X-0.021213X-0.021213X-0.219203X0*%
%ADD64RoundRect,0.125000X0.176777X0.000000X0.000000X0.176777X-0.176777X0.000000X0.000000X-0.176777X0*%
%ADD65RoundRect,0.150000X-0.150000X0.512500X-0.150000X-0.512500X0.150000X-0.512500X0.150000X0.512500X0*%
%ADD66RoundRect,0.150000X-0.150000X0.825000X-0.150000X-0.825000X0.150000X-0.825000X0.150000X0.825000X0*%
%ADD67RoundRect,0.200000X-0.053033X0.335876X-0.335876X0.053033X0.053033X-0.335876X0.335876X-0.053033X0*%
%ADD68RoundRect,0.237500X-0.287500X-0.237500X0.287500X-0.237500X0.287500X0.237500X-0.287500X0.237500X0*%
%ADD69R,0.400000X0.510000*%
%ADD70RoundRect,0.250000X-1.425000X0.362500X-1.425000X-0.362500X1.425000X-0.362500X1.425000X0.362500X0*%
%ADD71RoundRect,0.200000X-0.275000X0.200000X-0.275000X-0.200000X0.275000X-0.200000X0.275000X0.200000X0*%
%ADD72RoundRect,0.100000X0.100000X-0.712500X0.100000X0.712500X-0.100000X0.712500X-0.100000X-0.712500X0*%
%ADD73RoundRect,0.250000X0.325000X1.100000X-0.325000X1.100000X-0.325000X-1.100000X0.325000X-1.100000X0*%
%ADD74R,0.450000X1.475000*%
%ADD75RoundRect,0.225000X0.225000X0.250000X-0.225000X0.250000X-0.225000X-0.250000X0.225000X-0.250000X0*%
%ADD76RoundRect,0.150000X-0.650000X-0.150000X0.650000X-0.150000X0.650000X0.150000X-0.650000X0.150000X0*%
%ADD77RoundRect,0.150000X-0.587500X-0.150000X0.587500X-0.150000X0.587500X0.150000X-0.587500X0.150000X0*%
%ADD78RoundRect,0.150000X-0.625000X0.150000X-0.625000X-0.150000X0.625000X-0.150000X0.625000X0.150000X0*%
%ADD79RoundRect,0.250000X-0.650000X0.350000X-0.650000X-0.350000X0.650000X-0.350000X0.650000X0.350000X0*%
%ADD80FreePoly0,0.000000*%
%ADD81R,1.000000X1.500000*%
%ADD82FreePoly1,0.000000*%
%ADD83RoundRect,0.250000X1.100000X-0.325000X1.100000X0.325000X-1.100000X0.325000X-1.100000X-0.325000X0*%
%ADD84RoundRect,0.140000X0.170000X-0.140000X0.170000X0.140000X-0.170000X0.140000X-0.170000X-0.140000X0*%
%ADD85RoundRect,0.140000X-0.140000X-0.170000X0.140000X-0.170000X0.140000X0.170000X-0.140000X0.170000X0*%
%ADD86R,1.380000X0.450000*%
%ADD87O,2.416000X1.208000*%
%ADD88R,2.100000X1.475000*%
%ADD89R,1.900000X1.375000*%
%ADD90RoundRect,0.250000X-0.900000X1.000000X-0.900000X-1.000000X0.900000X-1.000000X0.900000X1.000000X0*%
%ADD91RoundRect,0.140000X0.140000X0.170000X-0.140000X0.170000X-0.140000X-0.170000X0.140000X-0.170000X0*%
%ADD92RoundRect,0.050000X-0.309359X0.238649X0.238649X-0.309359X0.309359X-0.238649X-0.238649X0.309359X0*%
%ADD93RoundRect,0.050000X-0.309359X-0.238649X-0.238649X-0.309359X0.309359X0.238649X0.238649X0.309359X0*%
%ADD94RotRect,3.200000X3.200000X315.000000*%
%ADD95RoundRect,0.250000X0.475000X-0.250000X0.475000X0.250000X-0.475000X0.250000X-0.475000X-0.250000X0*%
%ADD96R,0.250000X1.100000*%
%ADD97RoundRect,0.250000X-0.312500X-1.450000X0.312500X-1.450000X0.312500X1.450000X-0.312500X1.450000X0*%
%ADD98RoundRect,0.075000X0.362392X-0.256326X-0.256326X0.362392X-0.362392X0.256326X0.256326X-0.362392X0*%
%ADD99RoundRect,0.075000X0.362392X0.256326X0.256326X0.362392X-0.362392X-0.256326X-0.256326X-0.362392X0*%
%ADD100RotRect,4.250000X4.250000X135.000000*%
%ADD101C,1.000000*%
%ADD102RoundRect,0.050800X1.187939X0.650538X0.650538X1.187939X-1.187939X-0.650538X-0.650538X-1.187939X0*%
%ADD103R,1.508000X1.508000*%
%ADD104C,1.508000*%
%ADD105R,0.400000X1.100000*%
%ADD106R,0.600000X1.550000*%
%ADD107R,1.200000X1.800000*%
%ADD108RoundRect,0.225000X0.017678X-0.335876X0.335876X-0.017678X-0.017678X0.335876X-0.335876X0.017678X0*%
%ADD109RoundRect,0.225000X-0.335876X-0.017678X-0.017678X-0.335876X0.335876X0.017678X0.017678X0.335876X0*%
%ADD110RoundRect,0.250000X-0.325000X-1.100000X0.325000X-1.100000X0.325000X1.100000X-0.325000X1.100000X0*%
%ADD111RoundRect,0.250000X-1.450000X0.312500X-1.450000X-0.312500X1.450000X-0.312500X1.450000X0.312500X0*%
%ADD112RoundRect,0.100000X0.100000X-0.625000X0.100000X0.625000X-0.100000X0.625000X-0.100000X-0.625000X0*%
%ADD113R,2.850000X1.650000*%
%ADD114RotRect,1.150000X1.000000X315.000000*%
%ADD115RoundRect,0.250000X-0.250000X-0.475000X0.250000X-0.475000X0.250000X0.475000X-0.250000X0.475000X0*%
%ADD116RoundRect,0.140000X0.021213X-0.219203X0.219203X-0.021213X-0.021213X0.219203X-0.219203X0.021213X0*%
%ADD117RotRect,1.150000X1.000000X225.000000*%
%ADD118FreePoly2,270.000000*%
%ADD119FreePoly3,270.000000*%
%ADD120C,4.770000*%
%ADD121C,5.325000*%
%ADD122C,3.570000*%
%ADD123C,1.980000*%
G04 APERTURE END LIST*
D10*
X193457397Y-45800000D02*
G75*
G03*
X193457397Y-45800000I-2707397J0D01*
G01*
X190750000Y-48496747D02*
X194550000Y-48503254D01*
X113942531Y-48568739D02*
X117742531Y-48575246D01*
X197242408Y-45774702D02*
G75*
G03*
X197242408Y-45774702I-2692408J0D01*
G01*
X116649928Y-45871992D02*
G75*
G03*
X116649928Y-45871992I-2707397J0D01*
G01*
X120434939Y-45846694D02*
G75*
G03*
X120434939Y-45846694I-2692408J0D01*
G01*
X194600000Y-43096747D02*
X190800000Y-43103254D01*
X117792531Y-43168739D02*
X113992531Y-43175246D01*
%TO.C,J11*%
D11*
X153016200Y-134296200D02*
X151613800Y-134296200D01*
X151613800Y-132343800D01*
X153016200Y-132343800D01*
X153016200Y-134296200D01*
G36*
X153016200Y-134296200D02*
G01*
X151613800Y-134296200D01*
X151613800Y-132343800D01*
X153016200Y-132343800D01*
X153016200Y-134296200D01*
G37*
X150086200Y-128706200D02*
X149333800Y-128706200D01*
X149333800Y-127553800D01*
X150086200Y-127553800D01*
X150086200Y-128706200D01*
G36*
X150086200Y-128706200D02*
G01*
X149333800Y-128706200D01*
X149333800Y-127553800D01*
X150086200Y-127553800D01*
X150086200Y-128706200D01*
G37*
X148586200Y-128706200D02*
X147833800Y-128706200D01*
X147833800Y-127553800D01*
X148586200Y-127553800D01*
X148586200Y-128706200D01*
G36*
X148586200Y-128706200D02*
G01*
X147833800Y-128706200D01*
X147833800Y-127553800D01*
X148586200Y-127553800D01*
X148586200Y-128706200D01*
G37*
X147086200Y-128706200D02*
X146333800Y-128706200D01*
X146333800Y-127553800D01*
X147086200Y-127553800D01*
X147086200Y-128706200D01*
G36*
X147086200Y-128706200D02*
G01*
X146333800Y-128706200D01*
X146333800Y-127553800D01*
X147086200Y-127553800D01*
X147086200Y-128706200D01*
G37*
X145586200Y-128706200D02*
X144833800Y-128706200D01*
X144833800Y-127553800D01*
X145586200Y-127553800D01*
X145586200Y-128706200D01*
G36*
X145586200Y-128706200D02*
G01*
X144833800Y-128706200D01*
X144833800Y-127553800D01*
X145586200Y-127553800D01*
X145586200Y-128706200D01*
G37*
X144086200Y-128706200D02*
X143333800Y-128706200D01*
X143333800Y-127553800D01*
X144086200Y-127553800D01*
X144086200Y-128706200D01*
G36*
X144086200Y-128706200D02*
G01*
X143333800Y-128706200D01*
X143333800Y-127553800D01*
X144086200Y-127553800D01*
X144086200Y-128706200D01*
G37*
X141806200Y-134296200D02*
X140403800Y-134296200D01*
X140403800Y-132343800D01*
X141806200Y-132343800D01*
X141806200Y-134296200D01*
G36*
X141806200Y-134296200D02*
G01*
X140403800Y-134296200D01*
X140403800Y-132343800D01*
X141806200Y-132343800D01*
X141806200Y-134296200D01*
G37*
%TO.C,J13*%
X182396200Y-134266200D02*
X180993800Y-134266200D01*
X180993800Y-132313800D01*
X182396200Y-132313800D01*
X182396200Y-134266200D01*
G36*
X182396200Y-134266200D02*
G01*
X180993800Y-134266200D01*
X180993800Y-132313800D01*
X182396200Y-132313800D01*
X182396200Y-134266200D01*
G37*
X179466200Y-128676200D02*
X178713800Y-128676200D01*
X178713800Y-127523800D01*
X179466200Y-127523800D01*
X179466200Y-128676200D01*
G36*
X179466200Y-128676200D02*
G01*
X178713800Y-128676200D01*
X178713800Y-127523800D01*
X179466200Y-127523800D01*
X179466200Y-128676200D01*
G37*
X177966200Y-128676200D02*
X177213800Y-128676200D01*
X177213800Y-127523800D01*
X177966200Y-127523800D01*
X177966200Y-128676200D01*
G36*
X177966200Y-128676200D02*
G01*
X177213800Y-128676200D01*
X177213800Y-127523800D01*
X177966200Y-127523800D01*
X177966200Y-128676200D01*
G37*
X176466200Y-128676200D02*
X175713800Y-128676200D01*
X175713800Y-127523800D01*
X176466200Y-127523800D01*
X176466200Y-128676200D01*
G36*
X176466200Y-128676200D02*
G01*
X175713800Y-128676200D01*
X175713800Y-127523800D01*
X176466200Y-127523800D01*
X176466200Y-128676200D01*
G37*
X174966200Y-128676200D02*
X174213800Y-128676200D01*
X174213800Y-127523800D01*
X174966200Y-127523800D01*
X174966200Y-128676200D01*
G36*
X174966200Y-128676200D02*
G01*
X174213800Y-128676200D01*
X174213800Y-127523800D01*
X174966200Y-127523800D01*
X174966200Y-128676200D01*
G37*
X173466200Y-128676200D02*
X172713800Y-128676200D01*
X172713800Y-127523800D01*
X173466200Y-127523800D01*
X173466200Y-128676200D01*
G36*
X173466200Y-128676200D02*
G01*
X172713800Y-128676200D01*
X172713800Y-127523800D01*
X173466200Y-127523800D01*
X173466200Y-128676200D01*
G37*
X171186200Y-134266200D02*
X169783800Y-134266200D01*
X169783800Y-132313800D01*
X171186200Y-132313800D01*
X171186200Y-134266200D01*
G36*
X171186200Y-134266200D02*
G01*
X169783800Y-134266200D01*
X169783800Y-132313800D01*
X171186200Y-132313800D01*
X171186200Y-134266200D01*
G37*
%TO.C,J14*%
X195186200Y-106941200D02*
X193233800Y-106941200D01*
X193233800Y-105538800D01*
X195186200Y-105538800D01*
X195186200Y-106941200D01*
G36*
X195186200Y-106941200D02*
G01*
X193233800Y-106941200D01*
X193233800Y-105538800D01*
X195186200Y-105538800D01*
X195186200Y-106941200D01*
G37*
X189596200Y-109221200D02*
X188443800Y-109221200D01*
X188443800Y-108468800D01*
X189596200Y-108468800D01*
X189596200Y-109221200D01*
G36*
X189596200Y-109221200D02*
G01*
X188443800Y-109221200D01*
X188443800Y-108468800D01*
X189596200Y-108468800D01*
X189596200Y-109221200D01*
G37*
X189596200Y-110721200D02*
X188443800Y-110721200D01*
X188443800Y-109968800D01*
X189596200Y-109968800D01*
X189596200Y-110721200D01*
G36*
X189596200Y-110721200D02*
G01*
X188443800Y-110721200D01*
X188443800Y-109968800D01*
X189596200Y-109968800D01*
X189596200Y-110721200D01*
G37*
X189596200Y-112221200D02*
X188443800Y-112221200D01*
X188443800Y-111468800D01*
X189596200Y-111468800D01*
X189596200Y-112221200D01*
G36*
X189596200Y-112221200D02*
G01*
X188443800Y-112221200D01*
X188443800Y-111468800D01*
X189596200Y-111468800D01*
X189596200Y-112221200D01*
G37*
X189596200Y-113721200D02*
X188443800Y-113721200D01*
X188443800Y-112968800D01*
X189596200Y-112968800D01*
X189596200Y-113721200D01*
G36*
X189596200Y-113721200D02*
G01*
X188443800Y-113721200D01*
X188443800Y-112968800D01*
X189596200Y-112968800D01*
X189596200Y-113721200D01*
G37*
X189596200Y-115221200D02*
X188443800Y-115221200D01*
X188443800Y-114468800D01*
X189596200Y-114468800D01*
X189596200Y-115221200D01*
G36*
X189596200Y-115221200D02*
G01*
X188443800Y-115221200D01*
X188443800Y-114468800D01*
X189596200Y-114468800D01*
X189596200Y-115221200D01*
G37*
X195186200Y-118151200D02*
X193233800Y-118151200D01*
X193233800Y-116748800D01*
X195186200Y-116748800D01*
X195186200Y-118151200D01*
G36*
X195186200Y-118151200D02*
G01*
X193233800Y-118151200D01*
X193233800Y-116748800D01*
X195186200Y-116748800D01*
X195186200Y-118151200D01*
G37*
%TO.C,J12*%
X167696200Y-134276200D02*
X166293800Y-134276200D01*
X166293800Y-132323800D01*
X167696200Y-132323800D01*
X167696200Y-134276200D01*
G36*
X167696200Y-134276200D02*
G01*
X166293800Y-134276200D01*
X166293800Y-132323800D01*
X167696200Y-132323800D01*
X167696200Y-134276200D01*
G37*
X164766200Y-128686200D02*
X164013800Y-128686200D01*
X164013800Y-127533800D01*
X164766200Y-127533800D01*
X164766200Y-128686200D01*
G36*
X164766200Y-128686200D02*
G01*
X164013800Y-128686200D01*
X164013800Y-127533800D01*
X164766200Y-127533800D01*
X164766200Y-128686200D01*
G37*
X163266200Y-128686200D02*
X162513800Y-128686200D01*
X162513800Y-127533800D01*
X163266200Y-127533800D01*
X163266200Y-128686200D01*
G36*
X163266200Y-128686200D02*
G01*
X162513800Y-128686200D01*
X162513800Y-127533800D01*
X163266200Y-127533800D01*
X163266200Y-128686200D01*
G37*
X161766200Y-128686200D02*
X161013800Y-128686200D01*
X161013800Y-127533800D01*
X161766200Y-127533800D01*
X161766200Y-128686200D01*
G36*
X161766200Y-128686200D02*
G01*
X161013800Y-128686200D01*
X161013800Y-127533800D01*
X161766200Y-127533800D01*
X161766200Y-128686200D01*
G37*
X160266200Y-128686200D02*
X159513800Y-128686200D01*
X159513800Y-127533800D01*
X160266200Y-127533800D01*
X160266200Y-128686200D01*
G36*
X160266200Y-128686200D02*
G01*
X159513800Y-128686200D01*
X159513800Y-127533800D01*
X160266200Y-127533800D01*
X160266200Y-128686200D01*
G37*
X158766200Y-128686200D02*
X158013800Y-128686200D01*
X158013800Y-127533800D01*
X158766200Y-127533800D01*
X158766200Y-128686200D01*
G36*
X158766200Y-128686200D02*
G01*
X158013800Y-128686200D01*
X158013800Y-127533800D01*
X158766200Y-127533800D01*
X158766200Y-128686200D01*
G37*
X156486200Y-134276200D02*
X155083800Y-134276200D01*
X155083800Y-132323800D01*
X156486200Y-132323800D01*
X156486200Y-134276200D01*
G36*
X156486200Y-134276200D02*
G01*
X155083800Y-134276200D01*
X155083800Y-132323800D01*
X156486200Y-132323800D01*
X156486200Y-134276200D01*
G37*
%TO.C,J10*%
X138321200Y-134316200D02*
X136918800Y-134316200D01*
X136918800Y-132363800D01*
X138321200Y-132363800D01*
X138321200Y-134316200D01*
G36*
X138321200Y-134316200D02*
G01*
X136918800Y-134316200D01*
X136918800Y-132363800D01*
X138321200Y-132363800D01*
X138321200Y-134316200D01*
G37*
X135391200Y-128726200D02*
X134638800Y-128726200D01*
X134638800Y-127573800D01*
X135391200Y-127573800D01*
X135391200Y-128726200D01*
G36*
X135391200Y-128726200D02*
G01*
X134638800Y-128726200D01*
X134638800Y-127573800D01*
X135391200Y-127573800D01*
X135391200Y-128726200D01*
G37*
X133891200Y-128726200D02*
X133138800Y-128726200D01*
X133138800Y-127573800D01*
X133891200Y-127573800D01*
X133891200Y-128726200D01*
G36*
X133891200Y-128726200D02*
G01*
X133138800Y-128726200D01*
X133138800Y-127573800D01*
X133891200Y-127573800D01*
X133891200Y-128726200D01*
G37*
X132391200Y-128726200D02*
X131638800Y-128726200D01*
X131638800Y-127573800D01*
X132391200Y-127573800D01*
X132391200Y-128726200D01*
G36*
X132391200Y-128726200D02*
G01*
X131638800Y-128726200D01*
X131638800Y-127573800D01*
X132391200Y-127573800D01*
X132391200Y-128726200D01*
G37*
X130891200Y-128726200D02*
X130138800Y-128726200D01*
X130138800Y-127573800D01*
X130891200Y-127573800D01*
X130891200Y-128726200D01*
G36*
X130891200Y-128726200D02*
G01*
X130138800Y-128726200D01*
X130138800Y-127573800D01*
X130891200Y-127573800D01*
X130891200Y-128726200D01*
G37*
X129391200Y-128726200D02*
X128638800Y-128726200D01*
X128638800Y-127573800D01*
X129391200Y-127573800D01*
X129391200Y-128726200D01*
G36*
X129391200Y-128726200D02*
G01*
X128638800Y-128726200D01*
X128638800Y-127573800D01*
X129391200Y-127573800D01*
X129391200Y-128726200D01*
G37*
X127111200Y-134316200D02*
X125708800Y-134316200D01*
X125708800Y-132363800D01*
X127111200Y-132363800D01*
X127111200Y-134316200D01*
G36*
X127111200Y-134316200D02*
G01*
X125708800Y-134316200D01*
X125708800Y-132363800D01*
X127111200Y-132363800D01*
X127111200Y-134316200D01*
G37*
%TO.C,J15*%
X195206200Y-83626200D02*
X193253800Y-83626200D01*
X193253800Y-82223800D01*
X195206200Y-82223800D01*
X195206200Y-83626200D01*
G36*
X195206200Y-83626200D02*
G01*
X193253800Y-83626200D01*
X193253800Y-82223800D01*
X195206200Y-82223800D01*
X195206200Y-83626200D01*
G37*
X189616200Y-85906200D02*
X188463800Y-85906200D01*
X188463800Y-85153800D01*
X189616200Y-85153800D01*
X189616200Y-85906200D01*
G36*
X189616200Y-85906200D02*
G01*
X188463800Y-85906200D01*
X188463800Y-85153800D01*
X189616200Y-85153800D01*
X189616200Y-85906200D01*
G37*
X189616200Y-87406200D02*
X188463800Y-87406200D01*
X188463800Y-86653800D01*
X189616200Y-86653800D01*
X189616200Y-87406200D01*
G36*
X189616200Y-87406200D02*
G01*
X188463800Y-87406200D01*
X188463800Y-86653800D01*
X189616200Y-86653800D01*
X189616200Y-87406200D01*
G37*
X189616200Y-88906200D02*
X188463800Y-88906200D01*
X188463800Y-88153800D01*
X189616200Y-88153800D01*
X189616200Y-88906200D01*
G36*
X189616200Y-88906200D02*
G01*
X188463800Y-88906200D01*
X188463800Y-88153800D01*
X189616200Y-88153800D01*
X189616200Y-88906200D01*
G37*
X189616200Y-90406200D02*
X188463800Y-90406200D01*
X188463800Y-89653800D01*
X189616200Y-89653800D01*
X189616200Y-90406200D01*
G36*
X189616200Y-90406200D02*
G01*
X188463800Y-90406200D01*
X188463800Y-89653800D01*
X189616200Y-89653800D01*
X189616200Y-90406200D01*
G37*
X189616200Y-91906200D02*
X188463800Y-91906200D01*
X188463800Y-91153800D01*
X189616200Y-91153800D01*
X189616200Y-91906200D01*
G36*
X189616200Y-91906200D02*
G01*
X188463800Y-91906200D01*
X188463800Y-91153800D01*
X189616200Y-91153800D01*
X189616200Y-91906200D01*
G37*
X195206200Y-94836200D02*
X193253800Y-94836200D01*
X193253800Y-93433800D01*
X195206200Y-93433800D01*
X195206200Y-94836200D01*
G36*
X195206200Y-94836200D02*
G01*
X193253800Y-94836200D01*
X193253800Y-93433800D01*
X195206200Y-93433800D01*
X195206200Y-94836200D01*
G37*
%TD*%
D12*
%TO.C,J27*%
X154110000Y-70395000D03*
X153110000Y-70395000D03*
X152110000Y-70395000D03*
X151110000Y-70395000D03*
D13*
X155410000Y-72920000D03*
X149810000Y-72920000D03*
%TD*%
D14*
%TO.C,R58*%
X122690000Y-66092500D03*
X122690000Y-60167500D03*
%TD*%
D15*
%TO.C,J17*%
X119370000Y-61300000D03*
X119370000Y-59800000D03*
D16*
X114180000Y-57195000D03*
X114180000Y-63905000D03*
%TD*%
D17*
%TO.C,R57*%
X186790000Y-65585000D03*
X186790000Y-63935000D03*
%TD*%
D18*
%TO.C,J21*%
X179057577Y-87283744D03*
X178350470Y-86576637D03*
X177643363Y-85869530D03*
X176936256Y-85162423D03*
D19*
X178191371Y-89988427D03*
X174231573Y-86028629D03*
%TD*%
D20*
%TO.C,*%
X194500000Y-131530000D03*
%TD*%
D21*
%TO.C,C1*%
X144082500Y-90615000D03*
X145632500Y-90615000D03*
%TD*%
D22*
%TO.C,TP6*%
X122170000Y-56450000D03*
%TD*%
D23*
%TO.C,LED1*%
X193870000Y-68420000D03*
X193870000Y-65120000D03*
X188970000Y-65120000D03*
X188970000Y-68420000D03*
%TD*%
D24*
%TO.C,Q2*%
X125124999Y-122585000D03*
X125124999Y-121315000D03*
X125124999Y-120045000D03*
X125124999Y-118775000D03*
X120174999Y-118775000D03*
X120174999Y-120045000D03*
X120174999Y-121315000D03*
X120174999Y-122585000D03*
%TD*%
D25*
%TO.C,Q3*%
X154057500Y-98180000D03*
X154057500Y-98830000D03*
X154057500Y-99480000D03*
X155957500Y-99480000D03*
X155957500Y-98830000D03*
X155957500Y-98180000D03*
%TD*%
D26*
%TO.C,R4*%
X127225000Y-120530000D03*
X128875000Y-120530000D03*
%TD*%
D27*
%TO.C,Q9*%
X129840002Y-86574999D03*
X129840002Y-85304999D03*
X129840002Y-84034999D03*
X129840002Y-82764999D03*
X124565002Y-82764999D03*
X124565002Y-84034999D03*
X124565002Y-85304999D03*
X124565002Y-86574999D03*
D28*
X127202502Y-84669999D03*
%TD*%
D29*
%TO.C,U1*%
X127542500Y-116500000D03*
X127542500Y-117450000D03*
X127542500Y-118400000D03*
X129817500Y-118400000D03*
X129817500Y-117450000D03*
X129817500Y-116500000D03*
%TD*%
D30*
%TO.C,C31*%
X185639411Y-85060589D03*
X184960589Y-85739411D03*
%TD*%
D31*
%TO.C,J7*%
X153370000Y-48210000D03*
X151870000Y-48210000D03*
D32*
X155975000Y-43020000D03*
X149265000Y-43020000D03*
%TD*%
D33*
%TO.C,C20*%
X171960589Y-79870589D03*
X172639411Y-80549411D03*
%TD*%
D34*
%TO.C,FB3*%
X131215000Y-94502499D03*
X129565000Y-94502499D03*
%TD*%
D35*
%TO.C,D1*%
X121640001Y-70154998D03*
D36*
X119265001Y-70154998D03*
%TD*%
D34*
%TO.C,R19*%
X133285000Y-86564998D03*
X131635000Y-86564998D03*
%TD*%
D37*
%TO.C,C40*%
X180220000Y-108085000D03*
X180220000Y-109635000D03*
%TD*%
D38*
%TO.C,R48*%
X171537868Y-70934924D03*
D39*
X172103553Y-70369239D03*
X172669239Y-69803553D03*
D38*
X173234924Y-69237868D03*
X171962132Y-67965076D03*
D39*
X171396447Y-68530761D03*
X170830761Y-69096447D03*
D38*
X170265076Y-69662132D03*
%TD*%
D31*
%TO.C,J8*%
X162110000Y-48230000D03*
X160610000Y-48230000D03*
D32*
X164715000Y-43040000D03*
X158005000Y-43040000D03*
%TD*%
D34*
%TO.C,R31*%
X180825000Y-60880000D03*
X179175000Y-60880000D03*
%TD*%
D26*
%TO.C,R43*%
X169415000Y-115690000D03*
X171065000Y-115690000D03*
%TD*%
D40*
%TO.C,R40*%
X169963503Y-65683595D03*
X168796777Y-64516869D03*
%TD*%
D41*
%TO.C,C13*%
X145467500Y-86055000D03*
X145467500Y-84505000D03*
%TD*%
D42*
%TO.C,C18*%
X125665000Y-97682499D03*
X125665000Y-99582499D03*
%TD*%
D43*
%TO.C,U14*%
X182215000Y-108495000D03*
X183485000Y-108495000D03*
X184755000Y-108495000D03*
X186025000Y-108495000D03*
X186025000Y-103545000D03*
X184755000Y-103545000D03*
X183485000Y-103545000D03*
X182215000Y-103545000D03*
%TD*%
D44*
%TO.C,U6*%
X149270000Y-80630000D03*
X149270000Y-81900000D03*
X149270000Y-83170000D03*
X149270000Y-84440000D03*
X149270000Y-85710000D03*
D45*
X155570000Y-83170000D03*
%TD*%
D46*
%TO.C,U13*%
X185957838Y-82766238D03*
X185059813Y-81868213D03*
X184161787Y-80970187D03*
X183263762Y-80072162D03*
X179622162Y-83713762D03*
X180520187Y-84611787D03*
X181418213Y-85509813D03*
X182316238Y-86407838D03*
%TD*%
D47*
%TO.C,SW1*%
X167046117Y-79685254D03*
X169945254Y-76786117D03*
X165914746Y-78553883D03*
X168813883Y-75654746D03*
%TD*%
D26*
%TO.C,FB1*%
X132890000Y-106322499D03*
X134540000Y-106322499D03*
%TD*%
D48*
%TO.C,SW2*%
X172313883Y-87844746D03*
X169414746Y-90743883D03*
X173445254Y-88976117D03*
X170546117Y-91875254D03*
%TD*%
D22*
%TO.C,TP1*%
X161720000Y-100590000D03*
%TD*%
D21*
%TO.C,C12*%
X151052500Y-98160000D03*
X152602500Y-98160000D03*
%TD*%
D41*
%TO.C,C6*%
X156907500Y-95015000D03*
X156907500Y-93465000D03*
%TD*%
D49*
%TO.C,U5*%
X141420000Y-117000000D03*
X142070000Y-117000000D03*
X142720000Y-117000000D03*
X143370000Y-117000000D03*
X144020000Y-117000000D03*
X144670000Y-117000000D03*
X145320000Y-117000000D03*
X145970000Y-117000000D03*
X146620000Y-117000000D03*
X147270000Y-117000000D03*
X147920000Y-117000000D03*
X148570000Y-117000000D03*
X148570000Y-111260000D03*
X147920000Y-111260000D03*
X147270000Y-111260000D03*
X146620000Y-111260000D03*
X145970000Y-111260000D03*
X145320000Y-111260000D03*
X144670000Y-111260000D03*
X144020000Y-111260000D03*
X143370000Y-111260000D03*
X142720000Y-111260000D03*
X142070000Y-111260000D03*
X141420000Y-111260000D03*
%TD*%
D50*
%TO.C,Q7*%
X135407501Y-84619998D03*
X135407501Y-82719998D03*
X133532501Y-83669998D03*
%TD*%
D22*
%TO.C,TP2*%
X116620000Y-124620000D03*
%TD*%
D26*
%TO.C,R54*%
X187340000Y-76720000D03*
X188990000Y-76720000D03*
%TD*%
D51*
%TO.C,R1*%
X134712500Y-111740000D03*
X128787500Y-111740000D03*
%TD*%
D52*
%TO.C,J25*%
X158440000Y-63220000D03*
D53*
X158440000Y-65760000D03*
X158440000Y-68300000D03*
X158440000Y-70840000D03*
X158440000Y-73380000D03*
X158440000Y-75920000D03*
%TD*%
D12*
%TO.C,J20*%
X171300000Y-46780000D03*
X170300000Y-46780000D03*
X169300000Y-46780000D03*
X168300000Y-46780000D03*
D13*
X172600000Y-42905000D03*
X167000000Y-42905000D03*
%TD*%
D54*
%TO.C,J18*%
X116315001Y-99472500D03*
X116315001Y-95972500D03*
%TD*%
D55*
%TO.C,U3*%
X151977500Y-94300000D03*
D56*
X149115000Y-92350000D03*
X149115000Y-93000000D03*
X149115000Y-93650000D03*
X149115000Y-94300000D03*
X149115000Y-94950000D03*
X149115000Y-95600000D03*
X149115000Y-96250000D03*
X154840000Y-96250000D03*
X154840000Y-95600000D03*
X154840000Y-94950000D03*
X154840000Y-94300000D03*
X154840000Y-93650000D03*
X154840000Y-93000000D03*
X154840000Y-92350000D03*
%TD*%
D57*
%TO.C,R45*%
X173716637Y-91403363D03*
X174883363Y-90236637D03*
%TD*%
D52*
%TO.C,J1*%
X147990000Y-54600000D03*
D53*
X147990000Y-52060000D03*
%TD*%
D17*
%TO.C,R52*%
X178650000Y-109685000D03*
X178650000Y-108035000D03*
%TD*%
D34*
%TO.C,R10*%
X155762500Y-101060000D03*
X154112500Y-101060000D03*
%TD*%
D17*
%TO.C,R20*%
X139990000Y-116330000D03*
X139990000Y-114680000D03*
%TD*%
D42*
%TO.C,C27*%
X132924999Y-92572500D03*
X132924999Y-94472500D03*
%TD*%
D26*
%TO.C,R53*%
X187340000Y-75180000D03*
X188990000Y-75180000D03*
%TD*%
D58*
%TO.C,R18*%
X156840000Y-122790000D03*
D59*
X156040000Y-122790000D03*
X155240000Y-122790000D03*
D58*
X154440000Y-122790000D03*
X154440000Y-124590000D03*
D59*
X155240000Y-124590000D03*
X156040000Y-124590000D03*
D58*
X156840000Y-124590000D03*
%TD*%
D34*
%TO.C,R9*%
X122302500Y-75170000D03*
X120652500Y-75170000D03*
%TD*%
D57*
%TO.C,R36*%
X167200000Y-93110000D03*
X168366726Y-91943274D03*
%TD*%
D60*
%TO.C,D10*%
X186770000Y-62435000D03*
X186770000Y-60685000D03*
%TD*%
D61*
%TO.C,R49*%
X180597500Y-121770000D03*
X186522500Y-121770000D03*
%TD*%
D62*
%TO.C,D4*%
X173502500Y-121420000D03*
X177802500Y-121420000D03*
%TD*%
D12*
%TO.C,J22*%
X179250000Y-46800000D03*
X178250000Y-46800000D03*
X177250000Y-46800000D03*
X176250000Y-46800000D03*
D13*
X180550000Y-42925000D03*
X174950000Y-42925000D03*
%TD*%
D63*
%TO.C,C21*%
X169389411Y-83379411D03*
X168710589Y-82700589D03*
%TD*%
D64*
%TO.C,D8*%
X164772183Y-79872183D03*
X166327817Y-81427817D03*
%TD*%
D65*
%TO.C,D5*%
X174522500Y-49312500D03*
X172622500Y-49312500D03*
X173572500Y-51587500D03*
%TD*%
D66*
%TO.C,U12*%
X185025000Y-113555000D03*
X183755000Y-113555000D03*
X182485000Y-113555000D03*
X181215000Y-113555000D03*
X181215000Y-118505000D03*
X182485000Y-118505000D03*
X183755000Y-118505000D03*
X185025000Y-118505000D03*
%TD*%
D17*
%TO.C,R6*%
X147137500Y-92210000D03*
X147137500Y-90560000D03*
%TD*%
D67*
%TO.C,R38*%
X172683363Y-83136637D03*
X171516637Y-84303363D03*
%TD*%
D68*
%TO.C,D2*%
X155670000Y-68240000D03*
X153920000Y-68240000D03*
%TD*%
D69*
%TO.C,Q4*%
X120841957Y-73425562D03*
X121841957Y-73425562D03*
X121341957Y-72135562D03*
%TD*%
D70*
%TO.C,R55*%
X176250000Y-96307500D03*
X176250000Y-102232500D03*
%TD*%
D26*
%TO.C,R37*%
X129760000Y-106302499D03*
X131410000Y-106302499D03*
%TD*%
D71*
%TO.C,R25*%
X147057500Y-84455000D03*
X147057500Y-86105000D03*
%TD*%
D26*
%TO.C,R26*%
X148552500Y-87640000D03*
X150202500Y-87640000D03*
%TD*%
D33*
%TO.C,C35*%
X160049866Y-59984315D03*
X160728688Y-60663137D03*
%TD*%
D37*
%TO.C,C34*%
X169450000Y-117235000D03*
X169450000Y-118785000D03*
%TD*%
D31*
%TO.C,J5*%
X135890000Y-48177500D03*
X134390000Y-48177500D03*
D32*
X138495000Y-42987500D03*
X131785000Y-42987500D03*
%TD*%
D33*
%TO.C,C36*%
X162036836Y-55564897D03*
X162715658Y-56243719D03*
%TD*%
D42*
%TO.C,C16*%
X135085000Y-92592499D03*
X135085000Y-94492499D03*
%TD*%
D72*
%TO.C,U9*%
X127570000Y-100835000D03*
X128220000Y-100835000D03*
X128870000Y-100835000D03*
X129520000Y-100835000D03*
X129520000Y-96610000D03*
X128870000Y-96610000D03*
X128220000Y-96610000D03*
X127570000Y-96610000D03*
%TD*%
D34*
%TO.C,R47*%
X179615000Y-114000000D03*
X177965000Y-114000000D03*
%TD*%
D30*
%TO.C,C33*%
X174339411Y-81460589D03*
X173660589Y-82139411D03*
%TD*%
D73*
%TO.C,C4*%
X154822500Y-89530000D03*
X151872500Y-89530000D03*
%TD*%
D35*
%TO.C,D6*%
X173225000Y-99350000D03*
D36*
X170850000Y-99350000D03*
%TD*%
D74*
%TO.C,IC1*%
X151465000Y-110958000D03*
X152115000Y-110958000D03*
X152765000Y-110958000D03*
X153415000Y-110958000D03*
X154065000Y-110958000D03*
X154715000Y-110958000D03*
X155365000Y-110958000D03*
X156015000Y-110958000D03*
X156665000Y-110958000D03*
X157315000Y-110958000D03*
X157965000Y-110958000D03*
X158615000Y-110958000D03*
X159265000Y-110958000D03*
X159915000Y-110958000D03*
X159915000Y-105082000D03*
X159265000Y-105082000D03*
X158615000Y-105082000D03*
X157965000Y-105082000D03*
X157315000Y-105082000D03*
X156665000Y-105082000D03*
X156015000Y-105082000D03*
X155365000Y-105082000D03*
X154715000Y-105082000D03*
X154065000Y-105082000D03*
X153415000Y-105082000D03*
X152765000Y-105082000D03*
X152115000Y-105082000D03*
X151465000Y-105082000D03*
%TD*%
D75*
%TO.C,C7*%
X131995000Y-123720000D03*
X130445000Y-123720000D03*
%TD*%
D30*
%TO.C,C26*%
X185009411Y-77030589D03*
X184330589Y-77709411D03*
%TD*%
D26*
%TO.C,R12*%
X151012500Y-99750000D03*
X152662500Y-99750000D03*
%TD*%
D34*
%TO.C,R22*%
X138817501Y-82669999D03*
X137167501Y-82669999D03*
%TD*%
D76*
%TO.C,U8*%
X177720000Y-64275000D03*
X177720000Y-65545000D03*
X177720000Y-66815000D03*
X177720000Y-68085000D03*
X184920000Y-68085000D03*
X184920000Y-66815000D03*
X184920000Y-65545000D03*
X184920000Y-64275000D03*
%TD*%
D17*
%TO.C,R15*%
X147777500Y-102595000D03*
X147777500Y-100945000D03*
%TD*%
D26*
%TO.C,R56*%
X179155000Y-62450000D03*
X180805000Y-62450000D03*
%TD*%
D22*
%TO.C,TP8*%
X165470000Y-75160000D03*
%TD*%
D75*
%TO.C,C10*%
X145622500Y-95260000D03*
X144072500Y-95260000D03*
%TD*%
D25*
%TO.C,Q5*%
X149587500Y-99440000D03*
X149587500Y-98790000D03*
X149587500Y-98140000D03*
X147687500Y-98140000D03*
X147687500Y-98790000D03*
X147687500Y-99440000D03*
%TD*%
D50*
%TO.C,Q6*%
X135440002Y-79039999D03*
X135440002Y-77139999D03*
X133565002Y-78089999D03*
%TD*%
D34*
%TO.C,FB2*%
X131210000Y-92552500D03*
X129560000Y-92552500D03*
%TD*%
D75*
%TO.C,C11*%
X145627500Y-93730000D03*
X144077500Y-93730000D03*
%TD*%
D77*
%TO.C,U10*%
X127767500Y-102802500D03*
X127767500Y-104702500D03*
X129642500Y-103752500D03*
%TD*%
D75*
%TO.C,C8*%
X132015001Y-120540000D03*
X130465001Y-120540000D03*
%TD*%
D34*
%TO.C,R3*%
X128885000Y-123740000D03*
X127235000Y-123740000D03*
%TD*%
D78*
%TO.C,J16*%
X117890000Y-104910000D03*
X117890000Y-105910000D03*
X117890000Y-106910000D03*
X117890000Y-107910000D03*
D79*
X114015000Y-103610000D03*
X114015000Y-109210000D03*
%TD*%
D26*
%TO.C,R13*%
X157182500Y-102260000D03*
X158832500Y-102260000D03*
%TD*%
D22*
%TO.C,TP5*%
X188260000Y-52580000D03*
%TD*%
D21*
%TO.C,C42*%
X184575000Y-101520000D03*
X186125000Y-101520000D03*
%TD*%
D80*
%TO.C,JP1*%
X142607500Y-82460000D03*
D81*
X143907500Y-82460000D03*
D82*
X145207500Y-82460000D03*
%TD*%
D75*
%TO.C,C9*%
X132005000Y-122090000D03*
X130455000Y-122090000D03*
%TD*%
D83*
%TO.C,C14*%
X121732500Y-80184998D03*
X121732500Y-77234998D03*
%TD*%
D17*
%TO.C,R30*%
X151940000Y-117620000D03*
X151940000Y-115970000D03*
%TD*%
D84*
%TO.C,C29*%
X177630000Y-71530000D03*
X177630000Y-70570000D03*
%TD*%
D14*
%TO.C,R50*%
X180210000Y-100592500D03*
X180210000Y-94667500D03*
%TD*%
D85*
%TO.C,C37*%
X175690000Y-53130000D03*
X176650000Y-53130000D03*
%TD*%
D86*
%TO.C,J24*%
X191890000Y-74947500D03*
X191890000Y-75597500D03*
X191890000Y-76247500D03*
X191890000Y-76897500D03*
X191890000Y-77547500D03*
D87*
X194550000Y-80197500D03*
D88*
X192250000Y-78710000D03*
D89*
X194550000Y-77185000D03*
X194550000Y-75310000D03*
D88*
X192250000Y-73785000D03*
D87*
X194550000Y-72297500D03*
%TD*%
D90*
%TO.C,D7*%
X167900000Y-107792500D03*
X167900000Y-112092500D03*
%TD*%
D71*
%TO.C,R27*%
X131742501Y-77054999D03*
X131742501Y-78704999D03*
%TD*%
D15*
%TO.C,J4*%
X189480000Y-100950000D03*
X189480000Y-99450000D03*
D16*
X194670000Y-103555000D03*
X194670000Y-96845000D03*
%TD*%
D21*
%TO.C,C2*%
X145447500Y-89075000D03*
X146997500Y-89075000D03*
%TD*%
D34*
%TO.C,R39*%
X152310000Y-68160000D03*
X150660000Y-68160000D03*
%TD*%
D58*
%TO.C,R16*%
X150250000Y-122760000D03*
D59*
X149450000Y-122760000D03*
X148650000Y-122760000D03*
D58*
X147850000Y-122760000D03*
X147850000Y-124560000D03*
D59*
X148650000Y-124560000D03*
X149450000Y-124560000D03*
D58*
X150250000Y-124560000D03*
%TD*%
D26*
%TO.C,R23*%
X137147502Y-79059999D03*
X138797502Y-79059999D03*
%TD*%
D91*
%TO.C,C32*%
X173270000Y-75050000D03*
X172310000Y-75050000D03*
%TD*%
D15*
%TO.C,J2*%
X118900000Y-88055000D03*
X118900000Y-89555000D03*
D16*
X113710000Y-85450000D03*
X113710000Y-92160000D03*
%TD*%
D92*
%TO.C,IC3*%
X177074326Y-73728730D03*
X176791483Y-74011573D03*
X176508641Y-74294415D03*
X176225798Y-74577258D03*
X175942955Y-74860101D03*
X175660113Y-75142943D03*
X175377270Y-75425786D03*
X175094427Y-75708629D03*
X174811584Y-75991472D03*
X174528742Y-76274314D03*
X174245899Y-76557157D03*
X173963056Y-76840000D03*
X173680214Y-77122842D03*
X173397371Y-77405685D03*
D93*
X173397371Y-78590089D03*
X173680214Y-78872932D03*
X173963056Y-79155774D03*
X174245899Y-79438617D03*
X174528742Y-79721460D03*
X174811584Y-80004302D03*
X175094427Y-80287145D03*
X175377270Y-80569988D03*
X175660113Y-80852831D03*
X175942955Y-81135673D03*
X176225798Y-81418516D03*
X176508641Y-81701359D03*
X176791483Y-81984201D03*
X177074326Y-82267044D03*
D92*
X178258730Y-82267044D03*
X178541573Y-81984201D03*
X178824415Y-81701359D03*
X179107258Y-81418516D03*
X179390101Y-81135673D03*
X179672943Y-80852831D03*
X179955786Y-80569988D03*
X180238629Y-80287145D03*
X180521472Y-80004302D03*
X180804314Y-79721460D03*
X181087157Y-79438617D03*
X181370000Y-79155774D03*
X181652842Y-78872932D03*
X181935685Y-78590089D03*
D93*
X181935685Y-77405685D03*
X181652842Y-77122842D03*
X181370000Y-76840000D03*
X181087157Y-76557157D03*
X180804314Y-76274314D03*
X180521472Y-75991472D03*
X180238629Y-75708629D03*
X179955786Y-75425786D03*
X179672943Y-75142943D03*
X179390101Y-74860101D03*
X179107258Y-74577258D03*
X178824415Y-74294415D03*
X178541573Y-74011573D03*
X178258730Y-73728730D03*
D94*
X177666528Y-77997887D03*
%TD*%
D83*
%TO.C,C15*%
X121702500Y-86564998D03*
X121702500Y-83614998D03*
%TD*%
D26*
%TO.C,R8*%
X144032500Y-92145000D03*
X145682500Y-92145000D03*
%TD*%
D95*
%TO.C,C17*%
X125675000Y-103082499D03*
X125675000Y-101182499D03*
%TD*%
D96*
%TO.C,U7*%
X133265001Y-96572500D03*
X132765001Y-96572500D03*
X132265001Y-96572500D03*
X131765001Y-96572500D03*
X131265001Y-96572500D03*
X131265001Y-100872500D03*
X131765001Y-100872500D03*
X132265001Y-100872500D03*
X132765001Y-100872500D03*
X133265001Y-100872500D03*
%TD*%
D85*
%TO.C,C38*%
X170490000Y-53170000D03*
X171450000Y-53170000D03*
%TD*%
D97*
%TO.C,L2*%
X168822500Y-104250000D03*
X173097500Y-104250000D03*
%TD*%
D26*
%TO.C,R33*%
X122270001Y-99592499D03*
X123920001Y-99592499D03*
%TD*%
D98*
%TO.C,U11*%
X167239374Y-63935274D03*
X167698994Y-63475654D03*
X168158613Y-63016035D03*
X168618232Y-62556415D03*
X169077852Y-62096796D03*
X169537471Y-61637177D03*
X169997091Y-61177557D03*
D99*
X169997091Y-59922443D03*
X169537471Y-59462823D03*
X169077852Y-59003204D03*
X168618232Y-58543585D03*
X168158613Y-58083965D03*
X167698994Y-57624346D03*
X167239374Y-57164726D03*
D98*
X165984260Y-57164726D03*
X165524640Y-57624346D03*
X165065021Y-58083965D03*
X164605402Y-58543585D03*
X164145782Y-59003204D03*
X163686163Y-59462823D03*
X163226543Y-59922443D03*
D99*
X163226543Y-61177557D03*
X163686163Y-61637177D03*
X164145782Y-62096796D03*
X164605402Y-62556415D03*
X165065021Y-63016035D03*
X165524640Y-63475654D03*
X165984260Y-63935274D03*
D100*
X166611817Y-60550000D03*
%TD*%
D101*
%TO.C,J23*%
X164940000Y-86730000D03*
X162245924Y-84035924D03*
D102*
X166909293Y-85658734D03*
X163868734Y-88699293D03*
X166011267Y-84760708D03*
X162970708Y-87801267D03*
X165113242Y-83862682D03*
X162072682Y-86903242D03*
X164215216Y-82964657D03*
X161174657Y-86005216D03*
X163317190Y-82066631D03*
X160276631Y-85107190D03*
%TD*%
D26*
%TO.C,R7*%
X144582500Y-96900000D03*
X146232500Y-96900000D03*
%TD*%
D95*
%TO.C,C24*%
X127845000Y-94482500D03*
X127845000Y-92582500D03*
%TD*%
D24*
%TO.C,Q1*%
X125114999Y-117025000D03*
X125114999Y-115755000D03*
X125114999Y-114485000D03*
X125114999Y-113215000D03*
X120164999Y-113215000D03*
X120164999Y-114485000D03*
X120164999Y-115755000D03*
X120164999Y-117025000D03*
%TD*%
D34*
%TO.C,R17*%
X146182500Y-98700000D03*
X144532500Y-98700000D03*
%TD*%
D17*
%TO.C,R29*%
X150400000Y-117620000D03*
X150400000Y-115970000D03*
%TD*%
D71*
%TO.C,R44*%
X171000000Y-112555000D03*
X171000000Y-114205000D03*
%TD*%
D103*
%TO.C,K1*%
X128862500Y-56350000D03*
D104*
X128862500Y-58890000D03*
D54*
X128862500Y-74130000D03*
X128862500Y-69050000D03*
%TD*%
D26*
%TO.C,R5*%
X127235001Y-122070000D03*
X128885001Y-122070000D03*
%TD*%
D34*
%TO.C,R21*%
X138807501Y-77109998D03*
X137157501Y-77109998D03*
%TD*%
D31*
%TO.C,J9*%
X127190000Y-48207500D03*
X125690000Y-48207500D03*
D32*
X129795000Y-43017500D03*
X123085000Y-43017500D03*
%TD*%
D34*
%TO.C,R46*%
X174425000Y-53400000D03*
X172775000Y-53400000D03*
%TD*%
D105*
%TO.C,IC2*%
X140545000Y-94982499D03*
X139895000Y-94982499D03*
X139245000Y-94982499D03*
X138595000Y-94982499D03*
X138595000Y-99282499D03*
X139245000Y-99282499D03*
X139895000Y-99282499D03*
X140545000Y-99282499D03*
%TD*%
D106*
%TO.C,J19*%
X142597500Y-80005000D03*
X143597500Y-80005000D03*
X144597500Y-80005000D03*
X145597500Y-80005000D03*
D107*
X141297500Y-77480000D03*
X146897500Y-77480000D03*
%TD*%
D108*
%TO.C,C23*%
X181041992Y-74288008D03*
X182138008Y-73191992D03*
%TD*%
D109*
%TO.C,C28*%
X186071992Y-77961992D03*
X187168008Y-79058008D03*
%TD*%
D35*
%TO.C,D9*%
X173235000Y-96660000D03*
D36*
X170860000Y-96660000D03*
%TD*%
D17*
%TO.C,R32*%
X122335000Y-96207501D03*
X122335000Y-94557501D03*
%TD*%
D110*
%TO.C,C3*%
X156942500Y-90780000D03*
X159892500Y-90780000D03*
%TD*%
D17*
%TO.C,R2*%
X136900000Y-94607499D03*
X136900000Y-92957499D03*
%TD*%
D27*
%TO.C,Q8*%
X129857500Y-80990000D03*
X129857500Y-79720000D03*
X129857500Y-78450000D03*
X129857500Y-77180000D03*
X124582500Y-77180000D03*
X124582500Y-78450000D03*
X124582500Y-79720000D03*
X124582500Y-80990000D03*
D28*
X127220000Y-79085000D03*
%TD*%
D95*
%TO.C,C19*%
X125685001Y-96102500D03*
X125685001Y-94202500D03*
%TD*%
D20*
%TO.C,*%
X114500000Y-131530000D03*
%TD*%
D22*
%TO.C,TP4*%
X112860000Y-124670000D03*
%TD*%
D111*
%TO.C,L1*%
X159727500Y-93312500D03*
X159727500Y-97587500D03*
%TD*%
D22*
%TO.C,TP3*%
X190450000Y-124720000D03*
%TD*%
D112*
%TO.C,IC4*%
X173465000Y-112030000D03*
X174115000Y-112030000D03*
X174765000Y-112030000D03*
X175415000Y-112030000D03*
X176065000Y-112030000D03*
X176715000Y-112030000D03*
X176715000Y-107730000D03*
X176065000Y-107730000D03*
X175415000Y-107730000D03*
X174765000Y-107730000D03*
X174115000Y-107730000D03*
X173465000Y-107730000D03*
D113*
X175090000Y-109880000D03*
%TD*%
D114*
%TO.C,Y1*%
X169616307Y-81406256D03*
X170853744Y-82643693D03*
X171843693Y-81653744D03*
X170606256Y-80416307D03*
%TD*%
D17*
%TO.C,R11*%
X147237500Y-95325000D03*
X147237500Y-93675000D03*
%TD*%
D34*
%TO.C,R35*%
X136530000Y-96502499D03*
X134880000Y-96502499D03*
%TD*%
%TO.C,R34*%
X123910001Y-97682499D03*
X122260001Y-97682499D03*
%TD*%
D17*
%TO.C,R51*%
X176360000Y-105505000D03*
X176360000Y-103855000D03*
%TD*%
D26*
%TO.C,R24*%
X137147501Y-84639998D03*
X138797501Y-84639998D03*
%TD*%
D21*
%TO.C,C39*%
X169935000Y-101470000D03*
X171485000Y-101470000D03*
%TD*%
D115*
%TO.C,C22*%
X131555000Y-104442499D03*
X133455000Y-104442499D03*
%TD*%
D21*
%TO.C,C5*%
X127395000Y-114610000D03*
X128945000Y-114610000D03*
%TD*%
D31*
%TO.C,J6*%
X144645000Y-48160000D03*
X143145000Y-48160000D03*
D32*
X147250000Y-42970000D03*
X140540000Y-42970000D03*
%TD*%
D21*
%TO.C,C41*%
X183215000Y-111430000D03*
X184765000Y-111430000D03*
%TD*%
D116*
%TO.C,C25*%
X174240589Y-83009411D03*
X174919411Y-82330589D03*
%TD*%
D15*
%TO.C,J3*%
X119107500Y-76790000D03*
X119107500Y-78290000D03*
D16*
X113917500Y-74185000D03*
X113917500Y-80895000D03*
%TD*%
D40*
%TO.C,R42*%
X168863952Y-66790217D03*
X167697226Y-65623491D03*
%TD*%
D17*
%TO.C,R14*%
X157427500Y-100785000D03*
X157427500Y-99135000D03*
%TD*%
D71*
%TO.C,R28*%
X131712500Y-82625000D03*
X131712500Y-84275000D03*
%TD*%
D117*
%TO.C,Y2*%
X161170631Y-56643235D03*
X159933194Y-57880672D03*
X160923143Y-58870621D03*
X162160580Y-57633184D03*
%TD*%
D106*
%TO.C,J26*%
X185410000Y-73365000D03*
X186410000Y-73365000D03*
X187410000Y-73365000D03*
X188410000Y-73365000D03*
D107*
X184110000Y-70840000D03*
X189710000Y-70840000D03*
%TD*%
D118*
%TO.C,JP2*%
X135485000Y-100822499D03*
D119*
X135485000Y-102122499D03*
%TD*%
D68*
%TO.C,D3*%
X155655000Y-65610000D03*
X153905000Y-65610000D03*
%TD*%
D34*
%TO.C,R41*%
X152320000Y-65610000D03*
X150670000Y-65610000D03*
%TD*%
D109*
%TO.C,C30*%
X184961992Y-79041992D03*
X186058008Y-80138008D03*
%TD*%
D120*
%TO.C,U2*%
X133828500Y-116160000D03*
X116298500Y-116160000D03*
D121*
X133828500Y-60960000D03*
X151298500Y-60960000D03*
D122*
X115878500Y-52450000D03*
D123*
X124248500Y-124670000D03*
X143378500Y-124670000D03*
X124248500Y-52450000D03*
X143378500Y-52450000D03*
%TD*%
D120*
%TO.C,U4*%
X174790000Y-116180000D03*
X157260000Y-116180000D03*
D121*
X174790000Y-60980000D03*
X192260000Y-60980000D03*
D122*
X156840000Y-52470000D03*
D123*
X165210000Y-124690000D03*
X184340000Y-124690000D03*
X165210000Y-52470000D03*
X184340000Y-52470000D03*
%TD*%
G36*
X190649101Y-43097557D02*
G01*
X194544357Y-43088889D01*
X194553847Y-43089226D01*
X195201211Y-43136673D01*
X195240463Y-43146028D01*
X195809453Y-43383108D01*
X195832439Y-43395632D01*
X196294118Y-43713464D01*
X196315903Y-43732491D01*
X196797421Y-44262162D01*
X196812678Y-44282842D01*
X196990826Y-44584467D01*
X197004447Y-44617483D01*
X197246299Y-45568283D01*
X197250179Y-45597840D01*
X197255688Y-46059477D01*
X197247855Y-46104738D01*
X196910529Y-47015638D01*
X196901770Y-47034394D01*
X196714529Y-47362067D01*
X196696338Y-47386485D01*
X196273225Y-47830417D01*
X196257617Y-47844286D01*
X195874574Y-48131568D01*
X195856456Y-48142892D01*
X195561997Y-48293849D01*
X195536981Y-48303471D01*
X194815953Y-48495746D01*
X194783487Y-48500000D01*
X190461364Y-48500000D01*
X190438824Y-48497968D01*
X189920479Y-48403723D01*
X189881803Y-48389885D01*
X189410275Y-48127784D01*
X189398255Y-48120184D01*
X189058503Y-47877504D01*
X189049896Y-47870774D01*
X188851117Y-47700954D01*
X188848943Y-47699054D01*
X188543702Y-47425941D01*
X188518320Y-47394555D01*
X188331925Y-47068364D01*
X188325691Y-47055901D01*
X188157158Y-46666538D01*
X188147764Y-46632115D01*
X188099980Y-46249843D01*
X188099979Y-46249843D01*
X188044538Y-45815175D01*
X188044353Y-45784808D01*
X188050749Y-45729308D01*
X189198375Y-45729308D01*
X189214208Y-45978443D01*
X189269203Y-46221941D01*
X189361984Y-46453703D01*
X189490217Y-46667893D01*
X189650674Y-46859122D01*
X189839338Y-47022605D01*
X190051456Y-47154222D01*
X190281708Y-47250672D01*
X190524314Y-47309533D01*
X190773159Y-47329322D01*
X194623158Y-47379321D01*
X194873458Y-47359584D01*
X195117588Y-47300979D01*
X195349551Y-47204902D01*
X195563627Y-47073720D01*
X195754543Y-46910668D01*
X195917598Y-46719759D01*
X196048784Y-46505687D01*
X196144866Y-46273728D01*
X196203479Y-46029593D01*
X196223177Y-45779299D01*
X196203479Y-45529006D01*
X196144866Y-45284871D01*
X196048784Y-45052912D01*
X195917598Y-44838840D01*
X195754543Y-44647931D01*
X195563627Y-44484879D01*
X195349551Y-44353697D01*
X195117588Y-44257620D01*
X194873459Y-44199015D01*
X194623159Y-44179322D01*
X190823131Y-44180115D01*
X190573788Y-44191952D01*
X190329437Y-44243085D01*
X190096239Y-44332181D01*
X189880053Y-44457000D01*
X189686299Y-44614413D01*
X189519848Y-44800462D01*
X189384888Y-45010467D01*
X189284801Y-45239165D01*
X189222105Y-45480805D01*
X189198375Y-45729308D01*
X188050749Y-45729308D01*
X188111784Y-45199677D01*
X188115804Y-45179487D01*
X188210816Y-44846945D01*
X188216033Y-44832214D01*
X188394886Y-44412013D01*
X188407468Y-44389289D01*
X188730223Y-43926438D01*
X188759673Y-43896457D01*
X189100002Y-43649997D01*
X189382409Y-43414658D01*
X189421623Y-43392467D01*
X190169585Y-43131916D01*
X190190320Y-43126617D01*
X190462352Y-43081278D01*
X190497241Y-43080364D01*
X190649101Y-43097557D01*
G37*
G36*
X113841632Y-43169549D02*
G01*
X117736888Y-43160881D01*
X117746378Y-43161218D01*
X118393742Y-43208665D01*
X118432994Y-43218020D01*
X119001984Y-43455100D01*
X119024970Y-43467624D01*
X119486649Y-43785456D01*
X119508434Y-43804483D01*
X119989952Y-44334154D01*
X120005209Y-44354834D01*
X120183357Y-44656459D01*
X120196978Y-44689475D01*
X120438830Y-45640275D01*
X120442710Y-45669832D01*
X120448219Y-46131469D01*
X120440386Y-46176730D01*
X120103060Y-47087630D01*
X120094301Y-47106386D01*
X119907060Y-47434059D01*
X119888869Y-47458477D01*
X119465756Y-47902409D01*
X119450148Y-47916278D01*
X119067105Y-48203560D01*
X119048987Y-48214884D01*
X118754528Y-48365841D01*
X118729512Y-48375463D01*
X118008484Y-48567738D01*
X117976018Y-48571992D01*
X113653895Y-48571992D01*
X113631355Y-48569960D01*
X113113010Y-48475715D01*
X113074334Y-48461877D01*
X112602806Y-48199776D01*
X112590786Y-48192176D01*
X112251034Y-47949496D01*
X112242427Y-47942766D01*
X112043648Y-47772946D01*
X112041474Y-47771046D01*
X111736233Y-47497933D01*
X111710851Y-47466547D01*
X111524456Y-47140356D01*
X111518222Y-47127893D01*
X111349689Y-46738530D01*
X111340295Y-46704107D01*
X111292511Y-46321835D01*
X111292510Y-46321835D01*
X111242665Y-45931043D01*
X112981709Y-45931043D01*
X113017031Y-46177769D01*
X113090752Y-46415870D01*
X113201028Y-46639395D01*
X113345116Y-46842775D01*
X113519417Y-47020938D01*
X113719591Y-47169445D01*
X113940646Y-47284593D01*
X114177076Y-47363511D01*
X114422960Y-47404313D01*
X117173162Y-47429321D01*
X117423466Y-47409627D01*
X117667602Y-47351021D01*
X117899573Y-47254940D01*
X118113647Y-47123759D01*
X118304574Y-46960698D01*
X118467636Y-46769781D01*
X118598823Y-46555706D01*
X118694909Y-46323740D01*
X118753520Y-46079602D01*
X118773221Y-45829300D01*
X118753520Y-45578997D01*
X118694909Y-45334859D01*
X118598823Y-45102893D01*
X118467636Y-44888818D01*
X118304574Y-44697901D01*
X118113647Y-44534840D01*
X117899573Y-44403659D01*
X117667602Y-44307578D01*
X117423468Y-44248972D01*
X117173153Y-44229321D01*
X114472943Y-44255105D01*
X114225870Y-44288003D01*
X113987062Y-44359380D01*
X113762465Y-44467455D01*
X113557679Y-44609538D01*
X113377813Y-44782082D01*
X113227347Y-44980786D01*
X113110030Y-45200704D01*
X113028796Y-45436338D01*
X112985662Y-45681827D01*
X112981709Y-45931043D01*
X111242665Y-45931043D01*
X111237069Y-45887167D01*
X111236884Y-45856800D01*
X111304315Y-45271669D01*
X111308335Y-45251479D01*
X111403347Y-44918937D01*
X111408564Y-44904206D01*
X111587417Y-44484005D01*
X111599999Y-44461281D01*
X111922754Y-43998430D01*
X111952204Y-43968449D01*
X112292533Y-43721989D01*
X112574940Y-43486650D01*
X112614154Y-43464459D01*
X113362116Y-43203908D01*
X113382851Y-43198609D01*
X113654883Y-43153270D01*
X113689772Y-43152356D01*
X113841632Y-43169549D01*
G37*
M02*
