M48
; DRILL file {KiCad 7.0.1} date Mon Dec 11 20:48:33 2023
; FORMAT={-:-/ absolute / inch / decimal}
; #@! TF.CreationDate,2023-12-11T20:48:33-07:00
; #@! TF.GenerationSoftware,Kicad,Pcbnew,7.0.1
; #@! TF.FileFunction,Plated,1,4,PTH
FMAT,2
INCH
; #@! TA.AperFunction,Plated,PTH,ViaDrill
T1C0.0118
; #@! TA.AperFunction,Plated,PTH,ComponentDrill
T2C0.0118
; #@! TA.AperFunction,Plated,PTH,ViaDrill
T3C0.0157
; #@! TA.AperFunction,Plated,PTH,ComponentDrill
T4C0.0276
; #@! TA.AperFunction,Plated,PTH,ComponentDrill
T5C0.0394
; #@! TA.AperFunction,Plated,PTH,ComponentDrill
T6C0.0433
; #@! TA.AperFunction,Plated,PTH,ComponentDrill
T7C0.0472
; #@! TA.AperFunction,Plated,PTH,ComponentDrill
T8C0.0520
; #@! TA.AperFunction,Plated,PTH,ComponentDrill
T9C0.0937
; #@! TA.AperFunction,Plated,PTH,ComponentDrill
T10C0.1252
; #@! TA.AperFunction,Plated,PTH,ComponentDrill
T11C0.1260
; #@! TA.AperFunction,Plated,PTH,ComponentDrill
T12C0.1398
%
G90
G05
T1
X4.8472Y-4.4083
X4.8547Y-3.5811
X4.9445Y-5.024
X4.9834Y-4.7763
X5.2323Y-3.8972
X5.2591Y-3.9205
X5.2799Y-3.0201
X5.2937Y-3.4083
X5.361Y-3.8384
X5.3913Y-4.8012
X5.3949Y-3.2063
X5.4075Y-3.8516
X5.4189Y-3.9772
X5.5094Y-3.0665
X5.5394Y-5.0118
X5.5492Y-4.2866
X5.5551Y-4.515
X5.5966Y-4.3038
X5.5969Y-4.7193
X5.6228Y-3.7819
X5.6386Y-4.176
X5.6394Y-3.9638
X5.6453Y-3.887
X5.6681Y-3.3197
X5.672Y-3.3787
X5.7118Y-4.8626
X5.7157Y-4.9929
X5.7165Y-3.052
X5.7866Y-3.4488
X5.8559Y-4.9929
X5.8634Y-2.9858
X5.8776Y-3.5457
X5.9319Y-2.6354
X5.9689Y-4.2063
X5.9988Y-3.1677
X6.0035Y-4.315
X6.0106Y-2.8311
X6.0134Y-4.1921
X6.0138Y-2.8637
X6.0346Y-4.5984
X6.0354Y-5.011
X6.0469Y-4.5591
X6.0661Y-2.8205
X6.085Y-4.0756
X6.085Y-4.4323
X6.0894Y-4.1988
X6.1138Y-4.4476
X6.1693Y-2.3807
X6.174Y-4.0831
X6.2004Y-3.3374
X6.2087Y-3.3768
X6.2476Y-3.4122
X6.2673Y-2.313
X6.2894Y-4.3079
X6.2925Y-4.9941
X6.328Y-4.6594
X6.3492Y-4.9878
X6.3547Y-4.4268
X6.3618Y-4.2488
X6.3764Y-4.6512
X6.3806Y-3.1915
X6.3854Y-2.7858
X6.3972Y-3.1311
X6.4008Y-4.2181
X6.4134Y-1.9961
X6.4197Y-3.165
X6.4441Y-3.361
X6.4504Y-1.987
X6.4535Y-2.265
X6.4626Y-2.5138
X6.4685Y-2.8406
X6.4752Y-3.1106
X6.485Y-2.2374
X6.4894Y-3.0618
X6.4898Y-2.5339
X6.5122Y-2.5583
X6.5181Y-2.8189
X6.5583Y-2.485
X6.5602Y-2.2846
X6.5713Y-3.2638
X6.572Y-2.6256
X6.6055Y-4.5559
X6.6063Y-5.0071
X6.6071Y-3.2185
X6.6071Y-4.5087
X6.6157Y-2.9362
X6.6474Y-2.8825
X6.6508Y-2.7165
X6.6713Y-2.1524
X6.6717Y-3.4075
X6.6744Y-2.4811
X6.6763Y-2.9056
X6.6961Y-4.7244
X6.6992Y-3.1102
X6.7055Y-1.7898
X6.7268Y-2.5378
X6.7437Y-1.7898
X6.7478Y-2.9056
X6.7744Y-2.8709
X6.7795Y-2.9232
X6.7829Y-3.0786
X6.7833Y-2.8344
X6.7995Y-1.9044
X6.8098Y-2.9851
X6.8213Y-2.1587
X6.8445Y-2.565
X6.848Y-5.0209
X6.8531Y-2.9559
X6.8591Y-1.8933
X6.8591Y-2.7862
X6.878Y-3.0898
X6.8965Y-2.7496
X6.9091Y-3.028
X6.9122Y-1.928
X6.9232Y-3.0701
X6.9311Y-3.1472
X6.932Y-2.8614
X6.935Y-3.9146
X6.9358Y-2.9921
X6.9374Y-3.4646
X6.9433Y-1.9098
X6.9433Y-2.5799
X6.9433Y-2.6287
X6.9496Y-2.6811
X6.9559Y-2.8197
X6.9727Y-3.1931
X6.9728Y-2.1504
X6.976Y-3.2823
X6.9929Y-2.8673
X6.9945Y-2.998
X6.9945Y-3.1421
X6.9957Y-3.072
X7.0112Y-3.2872
X7.0142Y-4.4335
X7.0257Y-3.1785
X7.0406Y-1.9776
X7.052Y-3.2535
X7.0657Y-3.0709
X7.0681Y-2.5815
X7.0764Y-2.6276
X7.0886Y-3.3953
X7.1083Y-3.2323
X7.1283Y-1.9807
X7.1374Y-4.5386
X7.1391Y-3.202
X7.1441Y-3.2358
X7.1512Y-2.6441
X7.1626Y-2.4535
X7.165Y-2.9402
X7.1783Y-3.2083
X7.1783Y-4.5343
X7.1835Y-3.8449
X7.1916Y-2.6361
X7.198Y-2.7807
X7.2122Y-3.0941
X7.2161Y-3.878
X7.2169Y-3.4953
X7.2185Y-2.6807
X7.2353Y-2.6495
X7.2437Y-3.8394
X7.2465Y-3.4614
X7.248Y-2.9929
X7.2531Y-2.8909
X7.2689Y-3.7528
X7.2717Y-4.2094
X7.2831Y-2.9713
X7.3189Y-4.2067
X7.3259Y-2.9377
X7.3323Y-3.0205
X7.339Y-2.7972
X7.3697Y-4.4177
X7.3712Y-2.8379
X7.3764Y-4.2862
X7.3791Y-4.3488
X7.3854Y-3.1567
X7.3917Y-3.6035
X7.3945Y-4.4673
X7.3961Y-3.0717
X7.4138Y-2.7386
X7.4693Y-2.8677
X7.4795Y-2.9177
X7.4921Y-3.0213
X7.4929Y-3.3665
X7.4945Y-3.5445
X7.4965Y-2.5728
X7.5051Y-3.0799
X7.524Y-2.7709
X7.6398Y-2.7516
T2
X5.9322Y-3.6102
X5.9322Y-3.6614
X5.9322Y-3.7126
X5.9322Y-3.7638
X5.9322Y-3.815
X5.9834Y-3.6102
X5.9834Y-3.6614
X5.9834Y-3.7126
X5.9834Y-3.7638
X5.9834Y-3.815
X6.0345Y-3.6102
X6.0345Y-3.6614
X6.0345Y-3.7126
X6.0345Y-3.7638
X6.0345Y-3.815
T3
X4.5992Y-2.7638
X4.6811Y-2.8772
X4.7067Y-3.2626
X4.7898Y-4.8591
X4.835Y-4.8256
X4.839Y-4.0584
X4.8551Y-2.8862
X4.8756Y-3.7227
X4.9853Y-4.7048
X4.989Y-4.5539
X4.9906Y-4.4598
X5.0386Y-4.7039
X5.0771Y-4.6958
X5.1035Y-4.8449
X5.1042Y-4.7791
X5.124Y-4.4862
X5.1402Y-4.9898
X5.1421Y-4.0134
X5.1465Y-4.1264
X5.1709Y-4.0598
X5.1855Y-3.3602
X5.1874Y-3.1886
X5.411Y-3.7638
X5.4571Y-3.7984
X5.7248Y-3.4551
X5.787Y-3.2161
X5.8437Y-3.8437
X5.85Y-4.5449
X5.8799Y-3.8276
X5.8898Y-3.9638
X5.9673Y-3.2913
X5.9795Y-3.5248
X6.1071Y-3.935
X6.1213Y-2.9465
X6.1236Y-3.2713
X6.1287Y-3.8291
X6.1788Y-3.574
X6.23Y-3.6251
X6.2547Y-3.9197
X6.2957Y-3.576
X6.2984Y-4.8988
X6.3919Y-3.5333
X6.4414Y-3.5856
X6.5984Y-3.7862
X6.8016Y-3.3213
X6.8128Y-3.4238
X6.8941Y-4.3272
X7.115Y-3.7972
X7.1181Y-4.0472
X7.1354Y-3.6622
X7.211Y-4.572
X7.2244Y-4.3339
T5
X4.4433Y-4.9083
X4.5913Y-4.9063
X4.8098Y-2.2224
X5.0733Y-2.2185
X5.0733Y-2.3185
X5.8264Y-2.0496
X5.8264Y-2.1496
X6.2378Y-2.489
X6.2378Y-2.589
X6.2378Y-2.689
X6.2378Y-2.789
X6.2378Y-2.889
X6.2378Y-2.989
X6.3669Y-3.9602
X6.5146Y-2.9591
X7.4118Y-2.0701
X7.498Y-4.9102
T6
X4.5793Y-3.7784
X4.5793Y-3.9162
T7
X5.0733Y-2.7185
X5.0733Y-2.9185
T8
X4.8917Y-2.065
X4.8917Y-4.9083
X5.6448Y-2.065
X5.6448Y-4.9083
X6.5043Y-2.0657
X6.5043Y-4.9091
X7.2575Y-2.0657
X7.2575Y-4.9091
T9
X4.5621Y-2.065
X6.1748Y-2.0657
T10
X4.5787Y-4.5732
X5.2688Y-4.5732
X6.1913Y-4.574
X6.8815Y-4.574
T11
X4.5079Y-5.1783
X7.6575Y-5.1783
T12
X5.2688Y-2.4
X5.9566Y-2.4
X6.8815Y-2.4008
X7.5693Y-2.4008
T4
G00X7.6476Y-2.8464
M15
G01X7.6713Y-2.8464
M16
G05
G00X7.6476Y-3.1574
M15
G01X7.6713Y-3.1574
M16
G05
T0
M30
